<svg xmlns="http://www.w3.org/2000/svg" width="32" height="32" version="1.1" viewBox="0 0 32 32">
 <path style="opacity:0.2" d="M 15.555989,3.0012281 C 8.2319073,2.9946611 2.1972623,9.0261339 2.0047315,16.634515 1.808915,24.363663 7.715398,30.793049 15.196427,30.99513 c 3.644634,0.09838 6.489848,-1.299619 8.985797,-3.653043 0.266507,-0.222354 0.411514,-0.36093 0.411514,-0.36093 0,0 2.706631,-2.840733 2.851889,-5.185626 -0.690631,1.140972 -1.324144,2.283368 -3.04329,3.129422 -0.788426,0.365213 -1.511085,0.675939 -2.239403,0.921464 -0.04663,0.01187 -0.09346,0.02288 -0.140818,0.03418 -0.34497,0.08234 -0.706528,0.151501 -1.085522,0.203705 -0.04593,0.0063 -0.09308,0.01189 -0.13945,0.01777 -0.393066,0.04985 -0.798923,0.08615 -1.218136,0.103904 -0.04315,0.0018 -0.08787,0.0013 -0.131247,0.0027 -0.41357,0.01415 -0.836549,0.01293 -1.265988,-0.0041 -0.02802,-0.0011 -0.05533,-1.21e-4 -0.0834,-0.0014 -0.436715,-0.01937 -0.380042,-0.05897 -0.823872,-0.110739 -0.06334,-0.0074 -0.126655,-0.01245 -0.190035,-0.02051 -0.432038,-0.0549 -0.863904,-0.127433 -1.29333,-0.213276 -0.06938,-0.01387 -0.138621,-0.02771 -0.207808,-0.04238 -0.420232,-0.08918 -0.836695,-0.193847 -1.24548,-0.313079 -0.131063,-0.03823 -0.261637,-0.07761 -0.391007,-0.118943 -0.09777,-0.03124 -0.195893,-0.06131 -0.292571,-0.09433 -0.138158,-0.04719 -0.273122,-0.0982 -0.40878,-0.149021 -0.110644,-0.04145 -0.222062,-0.0819 -0.330852,-0.125778 -0.126066,-0.05085 -0.248539,-0.105846 -0.371866,-0.159957 -0.104519,-0.04586 -0.210703,-0.08988 -0.313079,-0.138083 -0.222894,-0.104958 -0.441992,-0.214725 -0.653501,-0.330852 -0.168328,-0.09311 -0.328527,-0.190602 -0.481239,-0.292572 -0.350706,-0.234173 -0.656791,-0.492274 -0.931034,-0.762873 -1.4277533,-1.457009 -1.3614655,-3.170181 -1.2864944,-4.280568 0.094459,-1.394769 1.2638184,-4.454927 5.1117984,-6.075644 2.37751,-0.839468 5.173643,-1.426575 7.51116,-0.674008 1.758334,0.396731 3.022714,0.973616 4.694816,1.564027 0,0 -0.01353,0.0291 0.448427,0.143552 3.251893,0.515123 2.886868,-2.16384 2.886868,-2.16384 l -0.254887,-0.626928 v 0 c -0.05638,-0.330366 0.191069,-0.590913 0.191069,-0.590913 0,0 -0.200442,-0.7387262 -0.16666,-1.2269394 0.03424,-0.4879884 0.0066,-1.1135006 -0.0998,-2.0056186 C 29.093805,6.5017214 28.50824,5.7467209 28.318397,5.6080431 28.12812,5.4696153 27.241516,4.8012206 26.392073,4.4678344 25.542111,4.1344438 24.683068,3.8880606 23.624948,4.03718 23.507463,4.053793 23.396259,4.071758 23.280425,4.089132 23.259915,4.082622 23.243825,4.075205 23.221635,4.068625 22.818148,3.9487981 22.53273,2.995218 22.203104,3.0031156 c -0.02523,6.049e-4 -0.05074,0.00276 -0.07656,0.00547 -0.02542,0.00266 -0.05179,0.00606 -0.07793,0.010937 h -0.0014 c -0.02664,0.00497 -0.05313,0.011676 -0.08066,0.01914 -0.03006,0.00816 -0.05902,0.018843 -0.08613,0.031445 -0.192902,0.089676 -0.311075,1.1274854 -0.384142,1.3488651 -1.692467,-0.8554742 -3.584846,-1.3581969 -5.591668,-1.412276 -0.116888,-0.00316 -0.23237,-0.00536 -0.348625,-0.00547 z m 7.457316,22.5881629 c -0.248456,0.0926 -0.518157,0.170957 -0.795685,0.243356 0.277371,-0.07236 0.547395,-0.150823 0.795685,-0.243356 z"/>
 <path style="fill:#f8952b" d="M 17.499764,7.0004732 A 10.499764,10.499764 0 0 0 7,17.500237 10.499764,10.499764 0 0 0 17.499764,28 10.499764,10.499764 0 0 0 27.999528,17.500237 10.499764,10.499764 0 0 0 17.499764,7.0004732 Z"/>
 <path style="fill:#946857" d="m 17.29,10.52149 c 1.30062,0.307751 1.441738,1.965386 2.487932,2.369071 1.396,0.567061 1.515052,-1.208137 0.7943,-2.146826"/>
 <path style="opacity:0.2" d="m 21.462976,7.0127924 c -1.465005,-0.00175 -3.05321,0.426933 -4.213158,0.8303353 -2.199722,0.7784014 -3.571309,1.4083438 -5.353657,2.6820893 -0.472619,0.34319 -2.3298477,1.70685 -3.4583224,3.608445 -3.1185909,5.513629 -0.9120173,11.368037 3.1208444,12.698298 4.433892,1.658181 8.678089,2.137095 14.016425,-2.580684 -0.459493,0.367735 0,0 -2.562157,1.335117 C 19.993117,26.71183 15.158123,26.350317 11.576242,24.38372 8.6946389,22.789732 8.9838283,20.442726 9.078,19.047956 c 0.094459,-1.394769 1.063807,-4.455448 4.911787,-6.076165 2.37751,-0.839468 5.173146,-1.426534 7.510663,-0.673966 1.758335,0.39673 3.022223,1.11463 4.694324,1.705041 0,0 -0.01377,0.02866 0.44819,0.143124 C 29.894857,14.661045 30,11.799238 30,11.799238 l -0.09272,-0.521442 -0.28309,-0.707504 -0.134907,-0.303126 -0.08137,-0.164272 c 0,0 -0.02345,-0.2068301 -0.05632,-0.4169836 C 29.289313,10.471435 28.976512,10.89796 28.976512,10.89796 26.449049,10.418762 25.9973,8.2395925 23.332397,7.3248895 22.769166,7.1033822 22.128887,7.0135869 21.462976,7.0127924 Z m 4.112132,17.2384836 c 0.294389,-0.235601 0.437011,-0.396585 0.437055,-0.396476 -0.146194,0.136593 -0.291749,0.268062 -0.437055,0.396476 z"/>
 <path style="fill:#946857" d="M 15.555989,2.0006165 C 8.2319073,1.9940495 2.1972623,8.0255223 2.0047315,15.633903 1.808915,23.363051 7.715398,29.792437 15.196427,29.994518 c 3.644634,0.09838 6.489848,-1.299619 8.985797,-3.653043 0.266507,-0.222354 0.411514,-0.36093 0.411514,-0.36093 0,0 2.706631,-2.840733 2.851889,-5.185626 -0.690631,1.140972 -1.324144,2.283368 -3.04329,3.129422 -0.788426,0.365213 -1.511085,0.675939 -2.239403,0.921464 -0.04663,0.01187 -0.09346,0.02288 -0.140818,0.03418 -0.34497,0.08234 -0.706528,0.151501 -1.085522,0.203705 -0.04593,0.0063 -0.09308,0.01189 -0.13945,0.01777 -0.393066,0.04985 -0.798923,0.08615 -1.218136,0.103904 -0.04315,0.0018 -0.08787,0.0013 -0.131247,0.0027 -0.41357,0.01415 -0.836549,0.01293 -1.265988,-0.0041 -0.02802,-0.0011 -0.05533,-1.21e-4 -0.0834,-0.0014 -0.436715,-0.01937 -0.380042,-0.05897 -0.823872,-0.110739 -0.06334,-0.0074 -0.126655,-0.01245 -0.190035,-0.02051 -0.432038,-0.0549 -0.863904,-0.127433 -1.29333,-0.213276 -0.06938,-0.01387 -0.138621,-0.02771 -0.207808,-0.04238 -0.420232,-0.08918 -0.836695,-0.193847 -1.24548,-0.313079 -0.131063,-0.03823 -0.261637,-0.07761 -0.391007,-0.118943 -0.09777,-0.03124 -0.195893,-0.06131 -0.292571,-0.09433 -0.138158,-0.04719 -0.273122,-0.0982 -0.40878,-0.149021 -0.110644,-0.04145 -0.222062,-0.0819 -0.330852,-0.125778 -0.126066,-0.05085 -0.248539,-0.105846 -0.371866,-0.159957 -0.104519,-0.04586 -0.210703,-0.08988 -0.313079,-0.138083 C 12.006799,23.61151 11.787701,23.501743 11.576192,23.385616 11.407864,23.292506 11.247665,23.195014 11.094953,23.093044 10.744247,22.858871 10.438162,22.60077 10.163919,22.330171 8.7361657,20.873162 8.8024535,19.15999 8.8774246,18.049603 c 0.094459,-1.394769 1.2638184,-4.454927 5.1117984,-6.075644 2.37751,-0.839468 5.173643,-1.426575 7.51116,-0.674008 1.758334,0.396731 3.022714,0.973616 4.694816,1.564027 0,0 -0.01353,0.0291 0.448427,0.143552 3.251893,0.515123 2.886868,-2.16384 2.886868,-2.16384 l -0.254887,-0.626928 v 0 c -0.05638,-0.3303658 0.191069,-0.5909126 0.191069,-0.5909126 0,0 -0.200442,-0.7387262 -0.16666,-1.2269394 0.03424,-0.4879884 0.0066,-1.1135006 -0.0998,-2.0056186 C 29.093805,5.5011098 28.50824,4.7461093 28.318397,4.6074315 28.12812,4.4690037 27.241516,3.800609 26.392073,3.4672228 25.542111,3.1338322 24.683068,2.887449 23.624948,3.0365684 c -0.117485,0.016613 -0.228689,0.034578 -0.344523,0.051952 -0.02051,-0.00651 -0.0366,-0.013927 -0.05879,-0.020507 -0.403487,-0.1198269 -0.688905,-1.073407 -1.018531,-1.0655094 -0.02523,6.049e-4 -0.05074,0.00276 -0.07656,0.00547 -0.02542,0.00266 -0.05179,0.00606 -0.07793,0.010937 h -0.0014 c -0.02664,0.00497 -0.05313,0.011676 -0.08066,0.01914 -0.03006,0.00816 -0.05902,0.018843 -0.08613,0.031445 -0.192902,0.089676 -0.311075,1.1274854 -0.384142,1.3488651 -1.692467,-0.8554742 -3.584846,-1.3581969 -5.591668,-1.412276 -0.116888,-0.00316 -0.23237,-0.00536 -0.348625,-0.00547 z m 7.457316,22.5881625 c -0.248456,0.0926 -0.518157,0.170957 -0.795685,0.243356 0.277371,-0.07236 0.547395,-0.150823 0.795685,-0.243356 z"/>
 <path style="opacity:0.2;fill:#ffffff" d="M 15.556641,2 C 8.2325589,1.993433 2.196437,8.0263849 2.0039062,15.634766 c -0.00641,0.253062 0.011065,0.499897 0.017578,0.75 C 2.339502,8.8959255 8.3138057,2.995459 15.556641,3.0019531 c 0.116255,1.1e-4 0.230768,7.463e-4 0.347656,0.00391 2.006822,0.054079 3.89933,0.5585883 5.591797,1.4140625 0.07307,-0.2213797 0.191863,-1.2599334 0.384765,-1.3496094 0.02711,-0.012602 0.05588,-0.02309 0.08594,-0.03125 0.02753,-0.00746 0.05344,-0.014561 0.08008,-0.019531 h 0.002 c 0.02614,-0.00488 0.0527,-0.00906 0.07813,-0.011719 0.02582,-0.00271 0.05094,-0.0033 0.07617,-0.00391 0.329626,-0.0079 0.614091,0.9446263 1.017578,1.0644532 0.02219,0.00658 0.04004,0.014974 0.06055,0.021484 0.115834,-0.017374 0.226265,-0.036121 0.34375,-0.052734 1.05812,-0.1491194 1.917616,0.09825 2.767578,0.4316406 0.849443,0.3333862 1.735504,1.0002441 1.925781,1.1386719 0.189843,0.1386778 0.776402,0.8949278 0.882813,1.7871093 0.1064,0.892118 0.133849,1.517871 0.09961,2.0058594 -0.01,0.1441524 0.0018,0.3063821 0.02148,0.46875 C 29.381353,9.7240917 29.466797,9.625 29.466797,9.625 c 0,0 -0.199798,-0.7383493 -0.166016,-1.2265625 0.03424,-0.4879884 0.0068,-1.1137414 -0.09961,-2.0058594 C 29.094761,5.5003965 28.508202,4.7460997 28.318359,4.6074219 28.128082,4.4689941 27.242021,3.8001831 26.392578,3.4667969 25.542616,3.1334063 24.68312,2.88799 23.625,3.0371094 c -0.117485,0.016613 -0.227916,0.033407 -0.34375,0.050781 -0.02051,-0.00651 -0.03836,-0.012951 -0.06055,-0.019531 -0.403487,-0.1198269 -0.687952,-1.0743039 -1.017578,-1.0664063 -0.02523,6.049e-4 -0.05035,0.00315 -0.07617,0.00586 -0.02542,0.00266 -0.05199,0.00684 -0.07813,0.011719 h -0.002 c -0.02664,0.00497 -0.05255,0.010114 -0.08008,0.017578 -0.03006,0.00816 -0.05883,0.020601 -0.08594,0.033203 C 21.687957,2.1599885 21.569161,3.196589 21.496094,3.4179688 19.803627,2.5624946 17.911119,2.0599385 15.904297,2.0058594 15.787409,2.0026994 15.672896,2.00011 15.556641,2 Z m 13.894531,8.648438 c -0.02747,0.03041 -0.228563,0.259078 -0.175781,0.568359 l 0.191406,0.46875 c 0.114123,-0.452779 0.06445,-0.841797 0.06445,-0.841797 z"/>
 <path style="fill:#d3c9c6" d="m 21.462976,6.0148323 c -1.465005,-0.00175 -3.05321,0.426933 -4.213158,0.8303353 C 15.050096,7.623569 13.678509,8.2535114 11.896161,9.5272573 11.423542,9.870447 9.5663133,11.234107 8.4378386,13.135702 5.3192477,18.649331 7.5258213,24.503739 11.558683,25.834 c 4.433892,1.658181 8.678089,2.137095 14.016425,-2.580684 -0.459493,0.367735 0,0 -2.562157,1.335117 C 19.993117,25.71387 15.158123,25.352357 11.576242,23.38576 8.6946389,21.791772 8.9838283,19.444766 9.078,18.049996 c 0.094459,-1.394769 1.063807,-4.455448 4.911787,-6.076165 2.37751,-0.839468 5.173146,-1.426534 7.510663,-0.673966 1.758335,0.39673 3.022223,1.11463 4.694324,1.705041 0,0 -0.01377,0.02866 0.44819,0.143124 C 29.894857,13.663085 30,10.801278 30,10.801278 L 29.90728,10.279836 29.62419,9.5723314 29.489283,9.2692061 29.407913,9.1049337 c 0,0 -0.02345,-0.2068299 -0.05632,-0.4169834 C 29.289313,9.4734748 28.976512,9.9 28.976512,9.9 26.449049,9.4208019 25.9973,7.2416324 23.332397,6.3269294 22.769166,6.1054221 22.128887,6.0156268 21.462976,6.0148323 Z m 4.112132,17.2384837 c 0.294389,-0.235601 0.437011,-0.396585 0.437055,-0.396476 -0.146194,0.136593 -0.291749,0.268062 -0.437055,0.396476 z"/>
 <path style="fill:#946857" d="M 8.018169,13.108245 8.003,13.233149 c 1.0170064,-0.05153 2.263464,0.168848 3.188078,0.817358 0.716846,0.483945 1.362597,1.206173 2.281696,0.879426 0.628361,-0.220365 0.663275,-0.593523 0.422411,-1.207125 -0.203402,-0.498908 -0.539627,-1.360432 -0.955393,-1.690741 -0.598943,-0.473973 -2.14732,-0.308462 -2.225003,-1.299629 -0.05838,-0.468513 0.236727,-0.8209064 0.498506,-1.1623782 -4.83e-4,0 -2.9983895,0.7537062 -3.195126,3.5381852 z"/>
 <path style="opacity:0.2" d="m 29.025226,10.999996 c 0,0 -0.115213,0.36329 -0.656201,0.395169 -0.540776,0.0323 -0.447246,0.784347 0.02168,1.205404 0.46914,0.421273 0.836034,0.536808 1.148723,0.213526 0.312265,-0.322641 1.079212,-0.857948 -0.514204,-1.814099 z"/>
 <path style="fill:#3f3f3f" d="m 29.025226,9.9999956 c 0,0 -0.115213,0.3632904 -0.656201,0.3951694 -0.540776,0.0323 -0.447246,0.784347 0.02168,1.205404 0.46914,0.421273 0.836034,0.536808 1.148723,0.213526 0.312265,-0.322641 1.079212,-0.857948 -0.514204,-1.8140994 z"/>
 <path style="opacity:0.2" d="M 25.788632,9.6188805 C 25.448516,10.052859 24.820175,10.127562 24.384885,9.7867744 23.949596,9.4442398 23.871637,8.815632 24.211999,8.3814034 c 0.33938,-0.4332293 0.968212,-0.5081826 1.403257,-0.1668953 0.435535,0.3420359 0.51251,0.9703932 0.173376,1.4043724 z"/>
 <path style="fill:#3f3f3f" d="m 25.788632,8.6188804 c -0.340116,0.433978 -0.968457,0.5086813 -1.403747,0.1678939 -0.435289,-0.3425346 -0.513248,-0.9711424 -0.172886,-1.405371 0.33938,-0.4332293 0.968212,-0.5081826 1.403257,-0.1668953 0.435535,0.3420359 0.51251,0.9703932 0.173376,1.4043724 z"/>
 <path style="opacity:0.2" d="m 29.722509,9.6750749 c -0.02942,0.3857161 -0.27488,0.6752521 -0.547919,0.6460231 -0.272811,-0.02847 -0.470008,-0.3637313 -0.439899,-0.7501961 0.02965,-0.3852154 0.274649,-0.6745014 0.54746,-0.6457726 0.27281,0.029476 0.470006,0.3644804 0.440358,0.7499456 z"/>
 <path style="fill:#3f3f3f" d="M 29.722509,8.6750748 C 29.693089,9.0607906 29.447629,9.3503265 29.17459,9.321098 28.901779,9.292623 28.704582,8.9573666 28.734691,8.5709018 c 0.02965,-0.3852154 0.274649,-0.6745014 0.54746,-0.6457726 0.27281,0.029476 0.470006,0.3644804 0.440358,0.7499456 z"/>
</svg>
