<svg xmlns="http://www.w3.org/2000/svg" width="24" height="24" version="1.1" viewBox="0 0 24 24">
 <path style="opacity:0.2" d="m 11.682849,2.5008771 c -5.2314866,-0.00469 -9.5419473,4.3035041 -9.6794693,9.7380619 -0.139869,5.52082 4.0790475,10.113239 9.4226393,10.257582 2.60331,0.07027 4.992417,-0.928299 6.775238,-2.609316 0.190362,-0.158825 0.293939,-0.257807 0.293939,-0.257807 0,0 1.933308,-2.029095 2.037064,-3.704019 -0.493308,0.81498 -0.945818,1.630977 -2.17378,2.235302 -0.56316,0.260866 -1.079346,0.482813 -1.599573,0.658188 -0.03331,0.0085 -0.06675,0.01634 -0.100584,0.02442 -0.246407,0.05882 -0.504663,0.108215 -0.775373,0.145504 -0.03281,0.0045 -0.06649,0.0085 -0.09961,0.0127 -0.280761,0.03561 -0.570659,0.06153 -0.870098,0.07422 -0.03082,0.0013 -0.06277,9e-4 -0.09375,0.0019 -0.295407,0.01011 -0.597535,0.0092 -0.904277,-0.0029 -0.02002,-8e-4 -0.03952,-8.6e-5 -0.05957,-10e-4 -0.311939,-0.01384 -0.62827,-0.04212 -0.945291,-0.0791 -0.04524,-0.0053 -0.09047,-0.0089 -0.135739,-0.01465 -0.308599,-0.03921 -0.617075,-0.09102 -0.923808,-0.15234 -0.04955,-0.0099 -0.09901,-0.01979 -0.148434,-0.03027 -0.300166,-0.0637 -0.597639,-0.138462 -0.889628,-0.223628 -0.09362,-0.02731 -0.186884,-0.05543 -0.279291,-0.08496 -0.06984,-0.02231 -0.139924,-0.04379 -0.208979,-0.06738 -0.09868,-0.0337 -0.195088,-0.07014 -0.291986,-0.106443 -0.079031,-0.0296 -0.1586161,-0.0585 -0.2363229,-0.08984 -0.090048,-0.03632 -0.177528,-0.0756 -0.265619,-0.114256 -0.074656,-0.03275 -0.1505021,-0.0642 -0.223628,-0.09863 C 9.1477162,17.937228 8.9912177,17.858823 8.8401401,17.775875 8.7199058,17.709366 8.6054779,17.63973 8.4963979,17.566895 8.2458935,17.399629 8.0272614,17.21527 7.8313733,17.021986 6.8115498,15.981265 6.8588982,14.75757 6.912449,13.964437 6.97992,12.968173 7.8151762,10.782346 10.563734,9.6246913 c 1.698221,-0.5996201 3.695459,-1.0189826 5.365114,-0.4814347 1.255953,0.2833791 2.159082,0.6954403 3.35344,1.1171624 0,0 -0.0097,0.02078 0.320305,0.102537 2.322781,0.367945 2.062049,-1.5456001 2.062049,-1.5456001 L 21.482576,8.3695525 v 0 c -0.04027,-0.2359757 0.136478,-0.4220805 0.136478,-0.4220805 0,0 -0.143173,-0.5276616 -0.119043,-0.8763853 0.02446,-0.3485631 0.0047,-0.7953576 -0.07129,-1.4325848 C 21.352718,5.0012293 20.934457,4.7474195 20.798855,4.648364 20.662943,4.549487 20.029654,4.0720622 19.42291,3.8339292 18.815794,3.595793 18.202191,3.419805 17.446391,3.5263189 c -0.08392,0.011866 -0.163349,0.024698 -0.246087,0.037109 -0.01465,-0.00465 -0.02614,-0.00995 -0.04199,-0.014648 C 16.870109,3.4631889 16.66624,2.9968 16.430792,3.0024411 c -0.01802,4.321e-4 -0.03624,0.00198 -0.05469,0.0039 -0.01816,0.0019 -0.037,0.00433 -0.05566,0.00781 h -0.001 c -0.01903,0.00355 -0.03795,0.00834 -0.05762,0.013672 -0.02147,0.00583 -0.04215,0.013459 -0.06152,0.02246 -0.137787,0.064054 -0.222196,0.3051313 -0.274387,0.4632596 -1.208907,-0.6110508 -2.560607,-0.9701385 -3.994051,-1.0087663 -0.08349,-0.00226 -0.165979,-0.00383 -0.249018,-0.00391 z M 8.8469755,7.8767326 C 8.5093906,8.1218681 7.1833579,9.0965181 6.3773045,10.4548 7.1833579,9.0965191 7.5694387,8.7329523 8.8469755,7.8767326 Z M 17.366315,18.63528 c -0.177469,0.06614 -0.370112,0.122111 -0.568346,0.173824 0.198122,-0.05169 0.390996,-0.10773 0.568346,-0.173824 z"/>
 <path style="fill:#f8952b" d="M 13.500191,5.5003826 A 7.4998313,7.4998313 0 0 0 6.00036,13.000214 7.4998313,7.4998313 0 0 0 13.500191,20.500045 7.4998313,7.4998313 0 0 0 21.000023,13.000214 7.4998313,7.4998313 0 0 0 13.500191,5.5003826 Z"/>
 <path style="fill:#946857" d="m 13.350195,8.2299176 c 0.929013,0.2198221 1.029812,1.4038465 1.777094,1.692193 0.997142,0.4050434 1.08218,-0.8629551 0.567356,-1.5334465"/>
 <path style="opacity:0.2" d="M 15.902126,5.5107116 C 14.855693,5.5094617 13.721261,5.8156638 12.892727,6.1038084 11.321497,6.6598093 9.6202208,6.9670748 8.3471153,7.8768933 8.0095304,8.1220288 6.7937534,9.0960719 5.9877,10.454353 c -2.2275649,3.938307 -0.040685,8.33472 2.8399309,9.284906 3.1670661,1.184415 6.5554461,1.311803 10.3685431,-2.058039 -0.328209,0.262668 -0.925193,0.655635 -1.830112,0.953655 -2.157024,0.803883 -5.967402,0.54566 -8.5258889,-0.859052 C 6.7818849,16.63726 6.9457345,14.960827 7.013,13.964563 c 0.067471,-0.996264 0.8025762,-3.182464 3.551134,-4.340117 1.698221,-0.59962 3.695104,-1.0189526 5.364759,-0.4814046 1.255953,0.2833791 2.158731,0.7963807 3.353089,1.2181026 0,0 -0.0098,0.02047 0.320135,0.102231 C 21.924898,10.831271 22,8.7869084 22,8.7869084 L 21.933771,8.4144492 21.731564,7.9090891 21.635201,7.692571 21.577078,7.5752336 c 0,0 -0.01675,-0.1477356 -0.04023,-0.2978453 C 21.49236,7.8384772 21.268934,8.0005976 21.268934,8.0005976 19.463606,7.6583133 19.140929,6.3869974 17.237427,5.7336381 16.835119,5.5754187 16.377777,5.5112791 15.902126,5.5107116 Z M 19.196174,17.68122 c 0.210278,-0.168286 0.312151,-0.283274 0.312182,-0.283197 -0.104424,0.09757 -0.208392,0.191473 -0.312182,0.283197 z"/>
 <path style="fill:#946857" d="m 11.682849,2.0004613 c -5.2314866,-0.00469 -9.5419473,4.3035042 -9.6794693,9.7380617 -0.139869,5.52082 4.0790475,10.113239 9.4226393,10.257582 2.60331,0.07027 4.992417,-0.928299 6.775238,-2.609316 0.190362,-0.158824 0.293939,-0.257807 0.293939,-0.257807 0,0 1.933308,-2.029095 2.037064,-3.704018 -0.493308,0.814979 -0.945818,1.630977 -2.17378,2.235301 -0.56316,0.260866 -1.079346,0.482814 -1.599573,0.658189 -0.03331,0.0085 -0.06675,0.01634 -0.100584,0.02441 -0.246407,0.05882 -0.504663,0.108215 -0.775373,0.145504 -0.03281,0.0045 -0.06649,0.0085 -0.09961,0.0127 -0.280761,0.03561 -0.570659,0.06153 -0.870098,0.07422 -0.03082,0.0013 -0.06277,9e-4 -0.09375,0.002 -0.295407,0.01011 -0.597535,0.0092 -0.904277,-0.003 -0.02002,-8e-4 -0.03952,-8.6e-5 -0.05957,-10e-4 -0.311939,-0.01383 -0.62827,-0.04212 -0.945291,-0.0791 -0.04524,-0.0053 -0.09047,-0.0089 -0.135739,-0.01465 -0.308599,-0.03921 -0.617075,-0.09102 -0.923808,-0.15234 -0.04955,-0.0099 -0.09901,-0.01979 -0.148434,-0.03027 -0.300166,-0.0637 -0.597639,-0.138463 -0.889628,-0.223628 -0.09362,-0.02731 -0.186884,-0.05543 -0.279291,-0.08496 -0.06984,-0.02231 -0.139924,-0.04379 -0.208979,-0.06738 -0.09868,-0.03371 -0.195088,-0.07014 -0.291986,-0.106444 -0.079031,-0.0296 -0.1586161,-0.0585 -0.2363229,-0.08984 -0.090048,-0.03632 -0.177528,-0.0756 -0.265619,-0.114255 -0.074656,-0.03276 -0.1505021,-0.0642 -0.223628,-0.09863 C 9.1477162,17.436812 8.9912177,17.358407 8.8401401,17.275459 8.7199058,17.208951 8.6054779,17.139315 8.4963979,17.066479 8.2458935,16.899213 8.0272614,16.714855 7.8313733,16.52157 6.8115498,15.480849 6.8588982,14.257155 6.912449,13.464021 6.97992,12.467757 7.8151762,10.28193 10.563734,9.1242755 c 1.698221,-0.59962 3.695459,-1.0189826 5.365114,-0.4814347 1.255953,0.2833792 2.159082,0.6954404 3.35344,1.1171624 0,0 -0.0097,0.020784 0.320305,0.1025367 2.322781,0.3679451 2.062049,-1.5455997 2.062049,-1.5455997 L 21.482576,7.8691368 v 0 c -0.04027,-0.2359757 0.136478,-0.4220805 0.136478,-0.4220805 0,0 -0.143173,-0.5276617 -0.119043,-0.8763853 0.02446,-0.3485632 0.0047,-0.7953576 -0.07129,-1.4325848 -0.076,-0.6372725 -0.494265,-0.8910825 -0.629867,-0.990138 -0.135911,-0.098877 -0.7692,-0.5763018 -1.375944,-0.8144348 -0.607116,-0.2381362 -1.220719,-0.4141242 -1.976519,-0.3076103 -0.08392,0.011866 -0.163349,0.024698 -0.246087,0.037109 -0.01465,-0.00465 -0.02614,-0.00995 -0.04199,-0.014648 -0.288205,-0.085591 -0.492074,-0.5519799 -0.727522,-0.5463388 -0.01802,4.321e-4 -0.03624,0.00197 -0.05469,0.0039 -0.01816,0.0019 -0.037,0.00433 -0.05566,0.00781 h -0.001 c -0.01903,0.00355 -0.03795,0.00834 -0.05762,0.013672 -0.02147,0.00583 -0.04215,0.013459 -0.06152,0.022461 -0.137787,0.064055 -0.222196,0.3051313 -0.274387,0.4632596 -1.208907,-0.6110508 -2.560607,-0.9701385 -3.994051,-1.0087663 -0.08349,-0.00226 -0.165979,-0.00383 -0.249018,-0.00391 z M 8.8469755,7.3763168 C 8.5093906,7.6214523 7.1833579,8.5961024 6.3773045,9.9543838 7.1833579,8.5961034 7.5694387,8.2325366 8.8469755,7.3763168 Z M 17.366315,18.134864 c -0.177469,0.06614 -0.370112,0.122111 -0.568346,0.173824 0.198122,-0.05168 0.390996,-0.10773 0.568346,-0.173824 z"/>
 <path style="fill:#d3c9c6" d="M 15.902126,5.0104516 C 14.855693,5.0092017 13.721261,5.3154038 12.892727,5.6035484 11.321497,6.1595493 9.6202208,6.4668148 8.3471153,7.3766333 8.0095304,7.6217688 6.7937534,8.5958119 5.9877,9.9540933 3.7601351,13.892401 5.9470148,18.288814 8.8276309,19.239 c 3.1670661,1.184415 6.5554461,1.311803 10.3685431,-2.058039 -0.328209,0.262668 -0.925193,0.655635 -1.830112,0.953655 -2.157024,0.803883 -5.967402,0.54566 -8.5258889,-0.859052 C 6.7818849,16.137001 6.9457345,14.460568 7.013,13.464304 7.080471,12.46804 7.8155762,10.28184 10.564134,9.124186 c 1.698221,-0.59962 3.695104,-1.0189526 5.364759,-0.4814046 1.255953,0.2833791 2.158731,0.7963807 3.353089,1.2181027 0,0 -0.0098,0.020474 0.320135,0.1022318 C 21.924898,10.331012 22,8.2866484 22,8.2866484 L 21.933771,7.9141892 21.731564,7.4088291 21.635201,7.192311 21.577078,7.0749736 c 0,0 -0.01675,-0.1477356 -0.04023,-0.2978453 C 21.49236,7.3382172 21.268934,7.5003376 21.268934,7.5003376 19.463606,7.1580533 19.140929,5.8867374 17.237427,5.2333781 16.835119,5.0751587 16.377777,5.0110191 15.902126,5.0104516 Z m 3.294048,12.1705094 c 0.210278,-0.168286 0.312151,-0.283274 0.312182,-0.283197 -0.104424,0.09757 -0.208392,0.191473 -0.312182,0.283197 z"/>
 <path style="opacity:0.2" d="m 16.891834,3.7339343 c 0.03327,-7.05e-4 0.07732,0.038248 0.108279,0.053581 -0.207555,0.1373203 -0.148762,0.3696713 -0.371862,0.4995783 -0.185871,0.1265383 -0.421108,0.1850044 -0.628116,0.213311 0.09314,-0.2812131 -0.01732,-0.8168489 0.270556,-0.9796124 0.195281,-0.1004216 0.233857,0.2038753 0.472229,0.1907333 1.3e-4,-1.786e-4 0.101868,0.023251 0.148914,0.022409 z"/>
 <path style="fill:#3f3f3f" d="m 16.891834,3.2339458 c 0.03327,-7.05e-4 0.07732,0.038248 0.108279,0.053581 -0.207555,0.1373203 -0.148762,0.3696713 -0.371862,0.4995783 -0.185871,0.1265383 -0.421108,0.1850044 -0.628116,0.213311 0.09314,-0.2812131 -0.01732,-0.8168489 0.270556,-0.9796124 0.195281,-0.1004216 0.233857,0.2038753 0.472229,0.1907333 1.3e-4,-1.786e-4 0.101868,0.023251 0.148914,0.022409 z"/>
 <path style="opacity:0.2;fill:#ffffff" d="m 11.682849,2.0004613 c -5.2314866,-0.00469 -9.5419473,4.3035042 -9.6794693,9.7380617 -0.00425,0.167615 -0.0037,0.334184 0,0.499989 0.137522,-5.4345578 4.4479827,-9.7427527 9.6794693,-9.7380619 0.08304,7.5e-5 0.165526,0.00164 0.249018,0.0039 1.433444,0.038628 2.785144,0.3977155 3.994051,1.0087663 0.05219,-0.1581283 0.136621,-0.3988258 0.274408,-0.4628802 0.01937,-0.009 0.04005,-0.016634 0.06152,-0.022461 0.01966,-0.00533 0.03858,-0.010122 0.05762,-0.013672 h 0.001 c 0.01867,-0.00348 0.03751,-0.00591 0.05566,-0.00781 0.01844,-0.00193 0.03667,-0.00347 0.05469,-0.0039 0.235448,-0.00564 0.439317,0.4612721 0.727522,0.5468627 0.01585,0.0047 0.02734,0.01 0.04199,0.014648 0.08274,-0.01241 0.162169,-0.025243 0.246087,-0.037109 0.7558,-0.1065138 1.369403,0.069474 1.976519,0.3076103 0.606744,0.238133 1.240033,0.7155577 1.375945,0.8144348 0.135602,0.099056 0.553865,0.3519628 0.629869,0.989236 0.03718,0.3118129 0.05962,0.576178 0.07129,0.8075988 0.01368,-0.331738 -0.0031,-0.7358215 -0.07129,-1.3075876 C 21.35272,4.5008135 20.934457,4.2469295 20.798855,4.1478739 20.662943,4.0489969 20.029654,3.5715722 19.42291,3.3334391 18.815794,3.095303 18.202191,2.919315 17.446391,3.0258288 c -0.08392,0.011866 -0.163349,0.024698 -0.246087,0.037109 -0.01465,-0.00465 -0.02614,-0.00995 -0.04199,-0.014648 -0.288206,-0.085591 -0.492075,-0.5515273 -0.727523,-0.5458862 -0.01802,4.321e-4 -0.03624,0.00197 -0.05469,0.0039 -0.01816,0.0019 -0.03699,0.00433 -0.05566,0.00781 h -10e-4 c -0.01903,0.00355 -0.03795,0.00834 -0.05761,0.013672 -0.02147,0.00583 -0.04215,0.013459 -0.06152,0.022461 -0.137764,0.064055 -0.222194,0.304753 -0.274385,0.4628813 -1.208907,-0.6110508 -2.560607,-0.9701385 -3.994051,-1.0087663 -0.08349,-0.00226 -0.165979,-0.00383 -0.249018,-0.00391 z m 9.818139,4.6170836 c 0.0038,0.1621269 0.0081,0.3231047 -0.001,0.4531148 -0.01047,0.1513871 0.01285,0.333107 0.04004,0.4941294 0.03783,-0.070429 0.0791,-0.1181613 0.0791,-0.1181613 0,0 -0.128578,-0.4817412 -0.118162,-0.8290829 z m 0.05273,1.4267259 c -0.04728,0.076103 -0.09564,0.1825179 -0.07129,0.3251877 l 0.163082,0.399405 c 0.03857,-0.2517633 0.01953,-0.4521383 0.01953,-0.4521383 z"/>
 <path style="fill:#946857" d="m 5.8274175,9.6491714 -0.010835,0.08922 c 0.7264331,-0.0368 2.5171771,0.1206062 3.1776157,0.5838276 0.5120325,0.345675 0.9732836,0.861552 1.6297828,0.628162 0.44883,-0.157404 0.473768,-0.423946 0.301722,-0.862232 C 10.780417,9.7317836 10.540256,9.1164086 10.24328,8.8804735 9.8154635,8.5419211 8.7094799,8.6601434 8.6539917,7.9521673 8.6122926,7.6175154 8.8130147,7.243908 9,7 8.999655,7 5.9679438,7.6602584 5.8274175,9.6491714 Z"/>
 <path style="opacity:0.2" d="m 21.268934,8.0003263 c 0,0 -0.08641,0.2724609 -0.492138,0.2963698 -0.405572,0.024224 -0.335426,0.5882463 0.01626,0.9040317 0.351847,0.3159469 0.627011,0.4025949 0.861521,0.1601394 0.234193,-0.2419741 0.80939,-0.6434445 -0.385643,-1.3605409 z"/>
 <path style="fill:#3f3f3f" d="m 21.268934,7.5003376 c 0,0 -0.08641,0.2724608 -0.492138,0.2963698 -0.405572,0.024224 -0.335426,0.5882463 0.01626,0.9040316 0.351847,0.3159469 0.627011,0.402595 0.861521,0.1601394 0.234193,-0.241974 0.80939,-0.6434445 -0.385643,-1.3605408 z"/>
 <path style="opacity:0.2" d="M 19.341534,7.21416 C 19.086453,7.5396362 18.615208,7.5956624 18.288747,7.3400777 17.962288,7.0831824 17.90382,6.6117371 18.159086,6.2860729 18.413615,5.9611582 18.885229,5.9049445 19.211505,6.1609042 19.538148,6.4174254 19.595879,6.8886828 19.341534,7.21416 Z"/>
 <path style="fill:#3f3f3f" d="M 19.341534,6.7141712 C 19.086453,7.0396474 18.615208,7.0956737 18.288747,6.8400889 17.962288,6.5831937 17.90382,6.1117483 18.159086,5.7860841 c 0.254529,-0.3249147 0.726143,-0.3811284 1.052419,-0.1251687 0.326643,0.2565213 0.384374,0.7277787 0.130029,1.0532558 z"/>
 <path style="opacity:0.2" d="m 21.801792,7.2679203 c -0.02101,0.2755113 -0.196343,0.4823226 -0.391371,0.4614451 -0.194865,-0.020339 -0.33572,-0.2598082 -0.314213,-0.5358544 0.02118,-0.2751538 0.196177,-0.4817867 0.391043,-0.4612662 0.194864,0.021055 0.335718,0.2603432 0.314541,0.5356755 z"/>
 <path style="fill:#3f3f3f" d="m 21.801792,6.7679315 c -0.02101,0.2755113 -0.196343,0.4823227 -0.391371,0.4614452 -0.194865,-0.02034 -0.33572,-0.2598082 -0.314213,-0.5358545 0.02118,-0.2751538 0.196177,-0.4817866 0.391043,-0.4612661 0.194864,0.021054 0.335718,0.2603431 0.314541,0.5356754 z"/>
</svg>
