<?xml version="1.0" encoding="UTF-8" standalone="no"?>
<svg
   xmlns:dc="http://purl.org/dc/elements/1.1/"
   xmlns:cc="http://creativecommons.org/ns#"
   xmlns:rdf="http://www.w3.org/1999/02/22-rdf-syntax-ns#"
   xmlns:svg="http://www.w3.org/2000/svg"
   xmlns="http://www.w3.org/2000/svg"
   xmlns:sodipodi="http://sodipodi.sourceforge.net/DTD/sodipodi-0.dtd"
   xmlns:inkscape="http://www.inkscape.org/namespaces/inkscape"
   width="256"
   height="256"
   version="1.1"
   viewBox="0 0 256 256"
   id="svg30"
   sodipodi:docname="lutris.svg"
   inkscape:export-filename="/home/strider/Projects/lutris/share/icons/hicolor/48x48/apps/lutris.svg.png"
   inkscape:export-xdpi="1429.24"
   inkscape:export-ydpi="1429.24"
   inkscape:version="0.92.3 (2405546, 2018-03-11)">
  <metadata
     id="metadata36">
    <rdf:RDF>
      <cc:Work
         rdf:about="">
        <dc:format>image/svg+xml</dc:format>
        <dc:type
           rdf:resource="http://purl.org/dc/dcmitype/StillImage" />
        <dc:title></dc:title>
      </cc:Work>
    </rdf:RDF>
  </metadata>
  <defs
     id="defs34" />
  <sodipodi:namedview
     pagecolor="#ffffff"
     bordercolor="#666666"
     borderopacity="1"
     objecttolerance="10"
     gridtolerance="10"
     guidetolerance="10"
     inkscape:pageopacity="0"
     inkscape:pageshadow="2"
     inkscape:window-width="1932"
     inkscape:window-height="1325"
     id="namedview32"
     showgrid="false"
     inkscape:snap-bbox="true"
     inkscape:bbox-paths="true"
     inkscape:bbox-nodes="true"
     inkscape:snap-bbox-edge-midpoints="true"
     inkscape:snap-bbox-midpoints="true"
     inkscape:object-paths="true"
     inkscape:snap-intersection-paths="true"
     inkscape:snap-smooth-nodes="true"
     inkscape:snap-midpoints="true"
     inkscape:snap-object-midpoints="true"
     inkscape:snap-center="true"
     inkscape:zoom="2"
     inkscape:cx="127.3539"
     inkscape:cy="186.42299"
     inkscape:window-x="60"
     inkscape:window-y="27"
     inkscape:window-maximized="0"
     inkscape:current-layer="svg30" />
  <g
     id="g8666"
     transform="matrix(1.2750436,0,0,1.2750436,97.394617,-167.80937)">
    <path
       inkscape:connector-curvature="0"
       id="path4"
       d="M 38.439683,169.37401 A 72.263333,72.263333 0 0 0 -33.82365,241.63732 72.263333,72.263333 0 0 0 38.439683,313.90068 72.263333,72.263333 0 0 0 110.70302,241.63732 72.263333,72.263333 0 0 0 38.439683,169.37401 Z"
       style="fill:#ff9900;fill-opacity:1;stroke-width:4.81755543" />
    <path
       inkscape:connector-curvature="0"
       id="path6"
       d="m 36.994417,195.67396 c 8.95135,2.11807 9.92258,13.52653 17.122882,16.30486 9.607795,3.9027 10.427162,-8.31485 5.466669,-14.77529"
       style="fill:#946857;stroke-width:4.81755543" />
    <path
       sodipodi:nodetypes="ccccccccccccccccccccccccccccccccccccccccccccccccccccccccc"
       inkscape:connector-curvature="0"
       id="path10"
       d="m 20.928995,135.6511 c -50.40709,-0.0452 -91.939793,41.46571 -93.264863,93.82942 -1.347683,53.19495 39.302959,97.44438 90.790218,98.83517 25.083752,0.67709 48.367038,-9.41491 65.545107,-25.61205 1.834197,-1.53033 2.832191,-2.48405 2.832191,-2.48405 0,0 19.246262,-19.84246 20.245982,-35.9809 -4.75318,7.85259 -9.731463,16.00645 -21.563277,21.82931 -5.426243,2.51351 -10.663314,5.12254 -15.675874,6.81233 -0.320948,0.0819 -0.6432,0.15744 -0.969158,0.2351 -2.374216,0.56672 -4.862596,1.0427 -7.470976,1.40197 -0.316136,0.0435 -0.640646,0.0819 -0.959745,0.1224 -2.705227,0.34315 -5.49849,0.5929 -8.383677,0.71513 -0.296932,0.0127 -0.604783,0.008 -0.903293,0.0211 -2.846339,0.0975 -5.757442,0.0891 -8.712998,-0.0295 -0.192848,-0.008 -0.380799,-8.5e-4 -0.573967,-0.008 -3.00564,-0.13338 -6.053589,-0.40604 -9.108194,-0.76215 -0.435892,-0.0506 -0.871687,-0.0857 -1.307892,-0.14097 -2.973452,-0.37776 -5.94571,-0.87708 -8.901182,-1.46786 -0.477471,-0.0954 -0.954047,-0.19078 -1.430214,-0.29166 -2.892198,-0.61378 -5.758451,-1.33414 -8.57186,-2.15475 -0.902026,-0.26295 -1.800689,-0.53409 -2.6910572,-0.81857 -0.672893,-0.21484 -1.3482129,-0.42208 -2.0135845,-0.64924 -0.9508564,-0.32458 -1.8797353,-0.67588 -2.8133836,-1.02565 -0.7614913,-0.28533 -1.5283135,-0.56369 -2.2770454,-0.86564 -0.8676354,-0.3499 -1.7105412,-0.72846 -2.55932663,-1.10091 -0.71933842,-0.31571 -1.45013627,-0.61855 -2.15472727,-0.9503 -1.5340411,-0.72239 -3.0419555,-1.47782 -4.4976379,-2.27707 -1.1584975,-0.64084 -2.2610444,-1.31177 -3.3120683,-2.01356 -2.4136932,-1.61171 -4.5202822,-3.38802 -6.4077292,-5.2504 -9.826334,-10.02767 -9.370118,-21.81837 -8.854137,-29.46051 0.650105,-9.59931 8.698074,-30.66047 35.181325,-41.81484 16.362919,-5.77753 35.606961,-9.81825 51.694634,-4.63881 12.101518,2.73047 20.803463,6.70082 32.311493,10.76425 0,0 -0.09311,0.20006 3.086248,0.98796 22.380754,3.54528 19.868514,-14.89234 19.868514,-14.89234 l -1.75426,-4.31473 v 0 c -0.38806,-2.27373 1.31501,-4.06688 1.31501,-4.06688 0,0 -1.37952,-5.08422 -1.14702,-8.44426 0.23569,-3.35855 0.0453,-7.66353 -0.68689,-13.80345 -0.73232,-6.1406 -4.76241,-8.58616 -6.06898,-9.54056 -1.30956,-0.95272 -7.4115,-5.55286 -13.257685,-7.84735 -5.84976,-2.29454 -11.762016,-3.99024 -19.0444,-2.96392 -0.808578,0.11439 -1.573923,0.23805 -2.371139,0.3575 -0.141142,-0.0447 -0.251853,-0.0958 -0.404561,-0.14097 -2.776954,-0.8247 -4.741303,-5.31852 -7.009916,-5.26415 -0.173642,0.004 -0.349227,0.0211 -0.526921,0.038 -0.174909,0.0169 -0.356445,0.0422 -0.53633,0.0751 h -0.0097 c -0.18335,0.0338 -0.365646,0.0802 -0.555146,0.13169 -0.20686,0.0561 -0.406165,0.12958 -0.592782,0.21653 -1.327629,0.61716 -2.140938,2.94002 -2.643814,4.46364 -11.648215,-5.88769 -24.672281,-9.34759 -38.48399,-9.71977 -0.804467,-0.0211 -1.599256,-0.038 -2.399367,-0.038 z m 54.762063,155.46026 c -1.709976,0.6373 -3.566155,1.17658 -5.476208,1.67489 1.908968,-0.49801 3.76738,-1.03802 5.476208,-1.67489 z"
       style="fill:#794d3b;fill-opacity:1;stroke-width:4.81755543" />
    <path
       sodipodi:nodetypes="cccccccccccccccccccccc"
       inkscape:connector-curvature="0"
       inkscape:export-ydpi="1429.24"
       inkscape:export-xdpi="1429.24"
       id="path12"
       d="m 61.583109,164.65227 c -10.08272,-0.0127 -21.013344,2.93833 -28.996545,5.71468 -15.139316,5.35726 -25.2656164,8.31893 -37.5324072,17.08536 -3.2527411,2.36195 -15.1291648,10.84769 -22.8957518,23.93518 -21.463318,37.94688 -19.003518,73.59708 22.1653549,89.45901 38.6587381,12.84783 65.0833661,10.40434 101.8238081,-22.06517 -3.162404,2.53087 -2.497649,3.61561 -20.311311,11.29054 -14.234775,5.63798 -56.965616,5.4705 -81.617472,-8.06434 -19.832279,-10.97043 -18.631476,-27.19868 -17.983351,-36.79799 0.650105,-9.59936 8.463728,-30.126 34.946983,-41.28038 16.362919,-5.77756 34.570934,-8.01099 50.658603,-2.83155 12.101522,2.73047 20.800077,6.22573 32.308112,10.28916 0,0 -0.09476,0.19711 3.08461,0.98504 22.380758,3.54482 23.104388,-16.15122 23.104388,-16.15122 l -0.63815,-3.58876 -1.94832,-4.86934 -0.92849,-2.0862 -0.56003,-1.13058 c 0,0 -0.16141,-1.42349 -0.38764,-2.86983 -0.42867,5.40627 -2.58145,6.96833 -2.58145,6.96833 -17.394909,-3.29798 -20.504008,-15.54866 -38.84488,-21.84399 -3.876369,-1.52446 -8.283011,-2.14246 -12.866061,-2.14795 z"
       style="fill:#e5dfdd;fill-opacity:1;stroke-width:4.81755543" />
    <path
       inkscape:connector-curvature="0"
       id="path14"
       d="m 20.928995,135.6511 c -50.40709,-0.0452 -91.939793,41.46571 -93.264863,93.82942 -0.0409,1.61504 -0.03566,3.21999 0,4.81759 1.32507,-52.36375 42.857773,-93.87462 93.264863,-93.82945 0.800112,7.6e-4 1.594901,0.0169 2.399368,0.038 13.811709,0.37228 26.835783,3.83213 38.483989,9.71982 0.502876,-1.52362 1.316389,-3.84281 2.644017,-4.46001 0.186643,-0.0865 0.385948,-0.16039 0.592783,-0.21653 0.18947,-0.0515 0.371766,-0.0975 0.555146,-0.13169 h 0.0097 c 0.17989,-0.0338 0.361426,-0.057 0.53633,-0.0751 0.177653,-0.0169 0.353321,-0.0338 0.526918,-0.038 2.268616,-0.0544 4.232965,4.44452 7.009919,5.26921 0.152708,0.0452 0.263419,0.0962 0.404562,0.14098 0.797216,-0.11945 1.562561,-0.24312 2.371139,-0.3575 7.282383,-1.02633 13.19464,0.66937 19.044399,2.96391 5.846185,2.2945 11.948125,6.89464 13.257685,7.84735 1.30657,0.9544 5.33667,3.39127 6.06899,9.53161 0.35826,3.00444 0.5745,5.55167 0.68688,7.78147 0.13181,-3.1964 -0.03,-7.08989 -0.68688,-12.59902 -0.73258,-6.14034 -4.76268,-8.58658 -6.06925,-9.54102 -1.30956,-0.95271 -7.4115,-5.55285 -13.257682,-7.84735 -5.84976,-2.29454 -11.762016,-3.99024 -19.0444,-2.96392 -0.808578,0.11439 -1.573923,0.23806 -2.371139,0.3575 -0.141142,-0.0447 -0.251896,-0.0958 -0.404603,-0.14097 -2.776954,-0.8247 -4.741303,-5.31413 -7.00992,-5.2598 -0.173643,0.004 -0.349227,0.0211 -0.526922,0.038 -0.174909,0.0169 -0.356444,0.0422 -0.536329,0.0751 h -0.0097 c -0.183351,0.0338 -0.365646,0.0802 -0.555146,0.13169 -0.20686,0.0561 -0.406166,0.12958 -0.592787,0.21653 -1.3274,0.6172 -2.140913,2.93639 -2.643789,4.46001 -11.648206,-5.88769 -24.67228,-9.34759 -38.483989,-9.71978 -0.804467,-0.0211 -1.599256,-0.038 -2.399368,-0.038 z m 94.600985,44.48711 c 0.0367,1.56215 0.0785,3.11325 -0.01,4.36593 -0.10092,1.45866 0.12384,3.2096 0.38578,4.76112 0.36455,-0.67862 0.76215,-1.13856 0.76215,-1.13856 0,0 -1.23888,-4.64171 -1.13852,-7.98849 z m 0.5081,13.74698 c -0.45559,0.73328 -0.92149,1.75863 -0.68687,3.1333 l 1.57135,3.84842 c 0.37168,-2.42585 0.18816,-4.35652 0.18816,-4.35652 z"
       style="opacity:0.2;fill:#ffffff;stroke-width:4.81755543" />
    <path
       inkscape:connector-curvature="0"
       id="path16"
       d="m -31.636119,214.16535 -0.10438,0.85964 c 6.999423,-0.35454 15.578011,1.16211 21.9415526,5.62537 4.9336018,3.3307 9.37790598,8.30134 15.703486,6.05255 4.3246194,-1.51665 4.5649084,-4.08487 2.9071945,-8.30788 -1.3998879,-3.43369 -3.7139157,-9.36299 -6.5753739,-11.63634 -4.1221492,-3.26203 -14.7786632,-2.12293 -15.3133132,-8.9445 -0.401776,-3.22451 1.629245,-5.64981 3.4309085,-7.99993 -0.00332,0 -20.6360415,5.18729 -21.9900575,24.35109 z"
       style="fill:#946857;stroke-width:4.81755543" />
    <path
       sodipodi:nodetypes="cccccc"
       inkscape:connector-curvature="0"
       id="path20"
       d="m 113.29407,188.64421 c 0,0 -0.83257,2.62528 -4.74192,2.85565 -3.90782,0.23341 -3.23194,5.66792 0.15668,8.71063 3.39016,3.04424 6.81301,3.12637 8.30104,1.54299 2.36234,-2.57434 7.79873,-6.19981 -3.7158,-13.10927 z"
       style="fill:#3f3f3f;stroke-width:4.81755543" />
    <path
       inkscape:connector-curvature="0"
       id="path24"
       d="m 94.722938,181.06927 c -2.457792,3.13604 -6.998393,3.67588 -10.143952,1.21326 -3.145537,-2.47527 -3.708893,-7.0178 -1.249324,-10.15569 2.452469,-3.13068 6.99662,-3.67229 10.140402,-1.20604 3.147319,2.47164 3.703566,7.01239 1.252874,10.14847 z"
       style="fill:#3f3f3f;stroke-width:4.81755543" />
    <path
       inkscape:connector-curvature="0"
       id="path28"
       d="m 118.42834,181.58725 c -0.20248,2.65465 -1.89184,4.64732 -3.771,4.44616 -1.87758,-0.19584 -3.23477,-2.5033 -3.02755,-5.16311 0.20408,-2.65119 1.89024,-4.64217 3.76783,-4.44447 1.87758,0.20302 3.23476,2.50849 3.03072,5.16142 z"
       style="fill:#3f3f3f;stroke-width:4.81755543" />
  </g>
</svg>
