<?xml version="1.0" encoding="UTF-8" standalone="no"?>
<svg
   xmlns:dc="http://purl.org/dc/elements/1.1/"
   xmlns:cc="http://creativecommons.org/ns#"
   xmlns:rdf="http://www.w3.org/1999/02/22-rdf-syntax-ns#"
   xmlns:svg="http://www.w3.org/2000/svg"
   xmlns="http://www.w3.org/2000/svg"
   xmlns:sodipodi="http://sodipodi.sourceforge.net/DTD/sodipodi-0.dtd"
   xmlns:inkscape="http://www.inkscape.org/namespaces/inkscape"
   width="223.99998"
   height="228.00005"
   version="1.1"
   viewBox="0 0 223.99998 228.00005"
   id="svg30"
   sodipodi:docname="lutris.svg"
   inkscape:version="0.92.2 2405546, 2018-03-11"
   inkscape:export-filename="/home/alex/lutris.svg.png"
   inkscape:export-xdpi="187.5"
   inkscape:export-ydpi="187.5">
  <metadata
     id="metadata36">
    <rdf:RDF>
      <cc:Work
         rdf:about="">
        <dc:format>image/svg+xml</dc:format>
        <dc:type
           rdf:resource="http://purl.org/dc/dcmitype/StillImage" />
        <dc:title></dc:title>
      </cc:Work>
    </rdf:RDF>
  </metadata>
  <defs
     id="defs34" />
  <sodipodi:namedview
     pagecolor="#ffffff"
     bordercolor="#666666"
     borderopacity="1"
     objecttolerance="10"
     gridtolerance="10"
     guidetolerance="10"
     inkscape:pageopacity="0"
     inkscape:pageshadow="2"
     inkscape:window-width="1920"
     inkscape:window-height="1016"
     id="namedview32"
     showgrid="false"
     inkscape:zoom="3.6875"
     inkscape:cx="63.617744"
     inkscape:cy="125.38986"
     inkscape:window-x="0"
     inkscape:window-y="27"
     inkscape:window-maximized="1"
     inkscape:current-layer="svg30"
     fit-margin-top="0"
     fit-margin-left="0"
     fit-margin-right="0"
     fit-margin-bottom="0" />
  <path
     style="opacity:0.2;stroke-width:4"
     d="M 108.44789,4.0099226 C 49.85525,3.9575226 1.5780983,52.209163 0.03785226,113.07616 -1.5286797,174.90936 45.723174,226.34444 105.57139,227.96108 c 29.15707,0.78704 51.91878,-10.39696 71.88637,-29.22436 2.13205,-1.7788 3.29211,-2.88744 3.29211,-2.88744 0,0 21.65304,-22.72584 22.8151,-41.48496 -5.52504,9.12776 -10.59314,18.26692 -24.34631,25.03536 -6.30741,2.92168 -12.08868,5.40748 -17.91522,7.37168 -0.37304,0.0948 -0.74768,0.1832 -1.12655,0.2736 -2.75975,0.65872 -5.65222,1.21204 -8.68417,1.62968 -0.36744,0.0504 -0.74464,0.0952 -1.1156,0.142 -3.14453,0.3988 -6.39138,0.6892 -9.74509,0.83124 -0.3452,0.016 -0.70296,0.012 -1.04997,0.02 -3.30856,0.1132 -6.69239,0.1036 -10.1279,-0.032 -0.22416,-0.008 -0.44264,-9.6e-4 -0.6672,-0.012 -3.49372,-0.1548 -3.04034,-0.47176 -6.59098,-0.88592 -0.50672,-0.0592 -1.01324,-0.0996 -1.52028,-0.164 -3.4563,-0.4392 -6.91123,-1.01944 -10.34663,-1.7062 -0.55504,-0.1108 -1.10897,-0.2216 -1.66247,-0.3392 -3.36185,-0.71344 -6.69356,-1.55076 -9.96383,-2.50464 -1.04851,-0.306 -2.0931,-0.62088 -3.12806,-0.95152 -0.78216,-0.25 -1.56714,-0.49048 -2.34057,-0.75464 -1.10526,-0.3776 -2.18497,-0.7856 -3.27024,-1.19216 -0.88515,-0.3316 -1.77649,-0.6552 -2.64681,-1.00624 -1.00853,-0.4068 -1.98832,-0.84676 -2.97493,-1.27964 -0.836153,-0.3668 -1.685625,-0.71904 -2.504633,-1.10468 -1.783152,-0.83964 -3.535932,-1.7178 -5.228004,-2.6468 -1.346624,-0.74488 -2.628216,-1.52484 -3.849912,-2.3406 -2.805649,-1.87336 -5.254329,-3.93816 -7.448273,-6.10296 C 53.889314,154.9886 54.419618,141.28324 55.019386,132.40012 55.775058,121.242 65.12993,96.760723 95.91377,83.795003 c 19.02007,-6.71576 41.38913,-11.4126 60.08926,-5.39208 14.06667,3.17384 24.18171,7.78892 37.55852,12.51224 0,0 -0.10824,0.2328 3.58742,1.1484 26.01514,4.121 23.09494,-17.31072 23.09494,-17.31072 l -2.0391,-5.01544 v 0 c -0.45104,-2.64292 1.52855,-4.72728 1.52855,-4.72728 0,0 -1.60353,-5.9098 -1.33327,-9.81552 0.27392,-3.90392 0.0528,-8.908 -0.7984,-16.04496 -0.85129,-7.13744 -5.53581,-13.17744 -7.05456,-14.28684 -1.52221,-1.10744 -8.61504,-6.4546 -15.41058,-9.12168 -6.7997,-2.66712 -13.67204,-4.6382 -22.137,-3.44524 -0.93988,0.1328 -1.82951,0.2768 -2.75618,0.4156 -0.16408,-0.052 -0.2928,-0.1116 -0.47032,-0.164 -3.2279,-0.9586 -5.51124,-8.5872404 -8.14825,-8.5240804 -0.20184,0.004 -0.40592,0.024 -0.61248,0.0436 -0.20336,0.02 -0.41432,0.0484 -0.62344,0.0876 h -0.0112 c -0.21312,0.04 -0.42504,0.0932 -0.64528,0.1532 -0.24048,0.0652 -0.47216,0.1508 -0.68904,0.2516 -1.54321,0.7174 -2.4886,9.0198804 -3.07313,10.7909204 C 142.43049,8.5065226 127.29146,4.4847226 111.23689,4.0520826 c -0.9351,-0.024 -1.85896,-0.0428 -2.789,-0.0436 z M 168.10641,184.71516 c -1.98765,0.7408 -4.14526,1.36768 -6.36548,1.94684 2.21896,-0.57884 4.37916,-1.20656 6.36548,-1.94684 z"
     id="path2"
     inkscape:connector-curvature="0" />
  <path
     style="fill:#f8952b;stroke-width:4"
     d="m 123.99809,40.003843 a 83.998096,83.998096 0 0 0 -83.9981,83.998117 83.998096,83.998096 0 0 0 83.9981,83.99808 83.998096,83.998096 0 0 0 83.99809,-83.99808 83.998096,83.998096 0 0 0 -83.99809,-83.998117 z"
     id="path4"
     inkscape:connector-curvature="0" />
  <path
     style="fill:#946857;stroke-width:4"
     d="m 122.31997,68.172003 c 10.40496,2.462 11.53391,15.72308 19.90346,18.95256 11.168,4.53648 12.12041,-9.66512 6.3544,-17.1746"
     id="path6"
     inkscape:connector-curvature="0" />
  <path
     style="opacity:0.2;stroke-width:4"
     d="m 155.70378,36.102403 c -11.72004,-0.016 -24.42568,3.41548 -33.70526,6.64268 -17.59777,6.22724 -28.57047,11.26676 -42.829245,21.45672 -3.780952,2.74552 -18.638781,13.6548 -27.666577,28.86756 -24.94872,44.109037 -7.296136,90.944277 24.966753,101.586357 35.471129,13.26544 69.424699,17.09676 112.131379,-20.64548 -3.67595,2.94188 0,0 -20.49726,10.68096 -24.15866,9.00348 -62.83861,6.11136 -91.493647,-9.6214 -23.052821,-12.75188 -20.739309,-31.52796 -19.985933,-42.68608 0.755672,-11.15816 8.510452,-35.643597 39.29429,-48.609317 19.02007,-6.71576 41.38516,-11.41228 60.08529,-5.39172 14.06668,3.17384 24.17778,8.91704 37.55458,13.64032 0,0 -0.11016,0.2292 3.58552,1.145 26.01514,4.12044 26.85628,-18.77404 26.85628,-18.77404 l -0.74176,-4.17152 -2.26472,-5.66004 -1.07925,-2.425 -0.65096,-1.31416 c 0,0 -0.1876,-1.65468 -0.45056,-3.33588 -0.49824,6.2842 -3.00065,9.6964 -3.00065,9.6964 -20.2197,-3.8336 -23.83369,-21.26696 -45.15291,-28.58456 -4.50585,-1.77208 -9.62808,-2.49044 -14.95536,-2.4968 z m 32.89705,137.907837 c 2.35511,-1.8848 3.49608,-3.17268 3.49644,-3.1718 -1.16956,1.09276 -2.334,2.14452 -3.49644,3.1718 z"
     id="path8"
     inkscape:connector-curvature="0" />
  <path
     style="fill:#946857;stroke-width:4"
     d="M 108.44789,0.00500263 C 49.85525,-0.04739737 1.5780983,48.204243 0.03785226,109.07128 -1.5286797,170.90444 45.723174,222.33952 105.57139,223.9562 c 29.15707,0.78704 51.91878,-10.39696 71.88637,-29.22436 2.13205,-1.77884 3.29211,-2.88744 3.29211,-2.88744 0,0 21.65304,-22.72584 22.8151,-41.485 -5.52504,9.12776 -10.59314,18.26696 -24.34631,25.03536 -6.30741,2.92172 -12.08868,5.40752 -17.91522,7.37172 -0.37304,0.0948 -0.74768,0.1832 -1.12655,0.2736 -2.75975,0.65872 -5.65222,1.212 -8.68417,1.62964 -0.36744,0.0504 -0.74464,0.0952 -1.1156,0.142 -3.14453,0.3988 -6.39138,0.6892 -9.74509,0.83124 -0.3452,0.016 -0.70296,0.012 -1.04997,0.02 -3.30856,0.1132 -6.69239,0.1036 -10.1279,-0.032 -0.22416,-0.008 -0.44264,-9.6e-4 -0.6672,-0.012 -3.49372,-0.1548 -3.04034,-0.47176 -6.59098,-0.88592 -0.50672,-0.0592 -1.01324,-0.0996 -1.52028,-0.164 -3.4563,-0.4392 -6.91123,-1.01944 -10.34663,-1.7062 -0.55504,-0.1108 -1.10897,-0.2216 -1.66247,-0.3392 -3.36185,-0.71344 -6.69356,-1.55076 -9.96383,-2.50464 -1.04851,-0.306 -2.0931,-0.62088 -3.12806,-0.95152 -0.78216,-0.25 -1.56714,-0.49048 -2.34057,-0.75464 -1.10526,-0.3776 -2.18497,-0.7856 -3.27024,-1.1922 -0.88515,-0.3316 -1.77649,-0.6552 -2.64681,-1.0062 -1.00853,-0.4068 -1.98832,-0.84676 -2.97493,-1.27968 -0.836153,-0.3668 -1.685625,-0.71904 -2.504633,-1.10464 -1.783152,-0.83968 -3.535932,-1.7178 -5.228004,-2.64684 -1.346624,-0.74488 -2.628216,-1.5248 -3.849912,-2.34056 -2.805649,-1.8734 -5.254329,-3.9382 -7.448273,-6.103 C 53.889314,150.98368 54.419618,137.27828 55.019386,128.3952 55.775058,117.23704 65.12993,92.755803 95.91377,79.790043 c 19.02007,-6.71572 41.38913,-11.4126 60.08926,-5.39204 14.06667,3.17384 24.18171,7.78892 37.55852,12.5122 0,0 -0.10824,0.2328 3.58742,1.14844 26.01514,4.12096 23.09494,-17.31072 23.09494,-17.31072 l -2.0391,-5.01544 v 0 c -0.45104,-2.64292 1.52855,-4.72728 1.52855,-4.72728 0,0 -1.60353,-5.90984 -1.33327,-9.81552 0.27392,-3.90392 0.0528,-8.908 -0.7984,-16.04496 -0.85129,-7.13744 -5.53581,-13.17744 -7.05456,-14.28688 -1.52221,-1.1074 -8.61504,-6.45456 -15.41058,-9.12164 -6.7997,-2.6671604 -13.67204,-4.6382004 -22.137,-3.4452404 -0.93988,0.1328 -1.82951,0.2768 -2.75618,0.4156 -0.16408,-0.052 -0.2928,-0.1116 -0.47032,-0.164 -3.2279,-0.95864 -5.51124,-8.58727997 -8.14825,-8.52407997 -0.20184,0.004 -0.40592,0.024 -0.61248,0.0436 -0.20336,0.02 -0.41432,0.0484 -0.62344,0.0876 h -0.0112 c -0.21312,0.04 -0.42504,0.0932 -0.64528,0.1532 -0.24048,0.0652 -0.47216,0.1508 -0.68904,0.2516 C 157.50015,1.2718826 156.55476,9.5743626 155.97023,11.345403 142.43049,4.5016026 127.29146,0.47984263 111.23689,0.04720263 c -0.9351,-0.024 -1.85896,-0.0428 -2.789,-0.0436 z M 168.10641,180.71028 c -1.98765,0.7408 -4.14526,1.36764 -6.36548,1.94684 2.21896,-0.57888 4.37916,-1.20656 6.36548,-1.94684 z"
     id="path10"
     inkscape:connector-curvature="0" />
  <path
     style="opacity:0.2;fill:#ffffff;stroke-width:4"
     d="M 108.45311,4.2627708e-5 C 49.86047,-0.05235737 1.5714863,48.211123 0.03124026,109.07816 c -0.02324,0.91736 0.0332,1.8148 0.0625,2.71876 C 2.2775213,51.538803 50.274642,3.9478826 108.45311,4.0000426 c 0.93004,8.8e-4 1.84615,0.02 2.78126,0.0468 16.05457,0.43264 31.19463,4.45308 44.73437,11.2968804 0.58453,-1.77104 1.53537,-10.0638404 3.07813,-10.7812404 0.21688,-0.1008 0.44702,-0.2004 0.6875,-0.2656 0.22024,-0.0596 0.4275,-0.1008 0.64062,-0.1408 h 0.0156 c 0.20912,-0.04 0.42164,-0.0724 0.625,-0.0936 0.20656,-0.02 0.40754,-0.042 0.60938,-0.0468 2.637,-0.0632 4.91272,7.5726404 8.14062,8.5312404 0.17752,0.0528 0.32028,0.104 0.48438,0.1564 0.92667,-0.1392 1.81012,-0.2732 2.75,-0.40624 8.46495,-1.19296 15.34092,0.77036 22.14062,3.43748 6.79554,2.66712 13.88404,8.0176 15.40625,9.125 1.51875,1.10944 6.21122,7.1438 7.0625,14.28128 0.49961,4.1886 0.7592,7.57916 0.85156,10.5078 0.13276,-3.67676 -0.10432,-8.24308 -0.85156,-14.5078 -0.85125,-7.13748 -5.54373,-13.17184 -7.06247,-14.28128 -1.52222,-1.1074 -8.61072,-6.45788 -15.40626,-9.125 -6.79969,-2.6671204 -13.67566,-4.6304404 -22.14062,-3.4374804 -0.93988,0.1328 -1.82333,0.2672 -2.75,0.40624 -0.16408,-0.052 -0.30684,-0.1036 -0.48438,-0.1564 -3.22789,-0.9586 -5.50361,-8.59443997 -8.14062,-8.53123997 -0.20184,0.004 -0.40282,0.024 -0.60938,0.0468 -0.20336,0.02 -0.41588,0.0548 -0.625,0.0936 h -0.0156 c -0.21312,0.04 -0.42038,0.0808 -0.64062,0.1408 -0.24048,0.0652 -0.47062,0.1648 -0.6875,0.2656 C 157.50413,1.2799226 156.5533,9.5727226 155.96877,11.343763 142.429,4.4999626 127.28894,0.47952263 111.23437,0.04688263 c -0.93511,-0.024 -1.85122,-0.0460000023 -2.78126,-0.04680000229 z M 218.46874,53.351603 c -0.003,0.1028 -0.004,0.2036 -0.008,0.3048 0.0422,1.334 0.0416,2.56768 0.008,3.70312 0.106,1.7318 0.30992,3.23068 0.60156,4.67188 0.34724,-0.59056 0.66407,-1.03124 0.66407,-1.03124 0,0 -1.04551,-4.03216 -1.26563,-7.64844 z m -0.008,4.31252 c -0.0184,0.51188 -0.0212,1.06192 -0.0547,1.53904 -0.0368,0.53096 0.0519,1.14832 0.0781,1.72656 0.0212,-1.00836 0.0132,-2.10496 -0.0236,-3.2656 z m 1.14844,11.5234 c -0.21976,0.2432 -1.82851,2.07264 -1.40625,4.54688 l 0.41406,1.02344 c 0.38588,-0.86324 0.87702,-1.4428 0.99219,-1.57032 l 0.60938,1.4844 c 0.22972,-2.26884 0.0316,-3.92188 0.0316,-3.92188 z M 54.93749,138.8594 c -0.09844,1.86668 -0.13308,3.90716 -0.07032,6.03128 0.0216,-0.68152 0.036,-1.38436 0.07032,-2.03128 0.538384,7.50908 2.82764,16.07924 10.375,23.78128 2.193952,2.16476 4.647476,4.23596 7.453125,6.10936 1.221696,0.81576 2.497128,1.58324 3.843752,2.32812 1.692072,0.929 3.45122,1.8166 5.234376,2.65624 0.819004,0.3856 1.663848,0.74252 2.499997,1.1094 0.98661,0.43288 1.96023,0.8588 2.96875,1.2656 0.87033,0.3512 1.7711,0.68408 2.65625,1.01564 1.08526,0.40652 2.16036,0.80996 3.26563,1.18748 0.77342,0.264 1.56158,0.50008 2.34374,0.75 1.03496,0.3308 2.0765,0.64732 3.125,0.95316 3.27028,0.95384 6.6069,1.80216 9.96876,2.5156 0.55349,0.1172 1.1012,0.2172 1.65624,0.328 3.43541,0.68676 6.88746,1.27956 10.34376,1.71876 0.50704,0.0644 1.02452,0.0972 1.53124,0.1564 3.55064,0.41412 3.08441,0.73564 6.57813,0.89064 0.22456,0.012 0.44771,-0.008 0.67187,0 3.43552,0.1364 6.81645,0.16 10.125,0.0468 0.34704,-0.012 0.70168,-0.016 1.04688,-0.032 3.3537,-0.142 6.60547,-0.42932 9.75,-0.82812 0.37092,-0.0472 0.75756,-0.0904 1.125,-0.1408 3.03195,-0.4176 5.91212,-0.96628 8.67188,-1.625 0.37884,-0.0904 0.75196,-0.1864 1.125,-0.2812 5.82654,-1.9642 11.61446,-4.45328 17.92187,-7.375 12.98483,-6.39028 18.2114,-14.8962 23.40625,-23.5078 0.46233,-1.85916 0.82519,-3.7104 0.9375,-5.52344 -5.52504,9.1278 -10.59059,18.26284 -24.34375,25.03124 -6.30741,2.92172 -12.09533,5.4108 -17.92187,7.375 -0.37304,0.0948 -0.74616,0.1908 -1.125,0.2812 -2.75976,0.65872 -5.63993,1.2074 -8.67188,1.625 -0.36744,0.0504 -0.75408,0.0936 -1.125,0.1408 -3.14453,0.3988 -6.3963,0.68608 -9.75,0.82812 -0.3452,0.016 -0.69984,0.02 -1.04688,0.032 -3.30855,0.1132 -6.68948,0.0896 -10.125,-0.0468 -0.22416,-0.008 -0.44731,0.012 -0.67187,0 -3.49372,-0.1548 -3.02749,-0.47652 -6.57813,-0.89064 -0.50672,-0.0592 -1.0242,-0.0916 -1.53124,-0.1564 -3.4563,-0.4392 -6.90835,-1.032 -10.34376,-1.71876 -0.55504,-0.1108 -1.10275,-0.2108 -1.65624,-0.328 -3.36186,-0.71344 -6.69848,-1.56176 -9.96876,-2.5156 -1.0485,-0.306 -2.09004,-0.62248 -3.125,-0.95316 -0.78216,-0.25 -1.57032,-0.48584 -2.34374,-0.75 -1.10527,-0.3776 -2.18037,-0.78096 -3.26563,-1.18748 -0.88515,-0.3316 -1.78592,-0.6646 -2.65625,-1.01564 -1.00852,-0.4068 -1.98214,-0.83272 -2.96875,-1.2656 -0.836149,-0.3668 -1.680993,-0.72376 -2.499997,-1.1094 -1.783156,-0.83964 -3.542304,-1.72724 -5.234376,-2.65624 -1.346624,-0.74488 -2.622056,-1.51236 -3.843752,-2.32812 -2.805649,-1.8734 -5.259173,-3.9446 -7.453125,-6.10936 -7.54736,-7.70204 -9.836616,-16.2722 -10.375,-23.78128 z"
     id="path12"
     inkscape:connector-curvature="0" />
  <path
     style="fill:#d3c9c6;stroke-width:4"
     d="m 155.70378,32.118723 c -11.72004,-0.016 -24.42568,3.41548 -33.70526,6.64268 -17.59777,6.22724 -28.57047,11.26676 -42.829245,21.45672 -3.780952,2.74552 -18.638781,13.6548 -27.666577,28.86756 -24.94872,44.109037 -7.296136,90.944277 24.966753,101.586357 35.471129,13.26544 69.424699,17.09676 112.131379,-20.64548 -3.67595,2.94188 0,0 -20.49726,10.68096 -24.15866,9.00348 -62.83861,6.1114 -91.493647,-9.6214 C 53.557102,158.33424 55.870614,139.5582 56.62399,128.40004 c 0.755672,-11.15816 8.510452,-35.643597 39.29429,-48.609317 19.02007,-6.71576 41.38516,-11.41228 60.08529,-5.39172 14.06668,3.17384 24.17778,8.91704 37.55458,13.64032 0,0 -0.11016,0.2292 3.58552,1.145 26.01514,4.12044 26.85628,-18.77404 26.85628,-18.77404 l -0.74176,-4.17152 -2.26472,-5.66004 -1.07925,-2.425 -0.65096,-1.3142 c 0,0 -0.1876,-1.6546 -0.45056,-3.33584 -0.49824,6.2842 -3.00065,9.6964 -3.00065,9.6964 -20.2197,-3.8336 -23.83369,-21.26696 -45.15291,-28.58456 -4.50585,-1.77208 -9.62808,-2.49044 -14.95536,-2.4968 z m 32.89705,137.907837 c 2.35511,-1.8848 3.49608,-3.17268 3.49644,-3.1718 -1.16956,1.09276 -2.334,2.14452 -3.49644,3.1718 z"
     id="path14"
     inkscape:connector-curvature="0" />
  <path
     style="fill:#946857;stroke-width:4"
     d="m 48.145342,88.866043 -0.12136,0.9992 c 8.136048,-0.41224 18.107708,1.3508 25.504621,6.53888 5.734764,3.871557 10.900767,9.649357 18.253567,7.035397 5.02688,-1.76292 5.3062,-4.748157 3.37928,-9.656997 -1.62721,-3.99124 -4.31701,-10.88344 -7.64314,-13.52592 -4.791543,-3.7918 -17.178555,-2.46768 -17.80002,-10.39704 -0.46704,-3.74808 1.893817,-6.56724 3.988049,-9.299 -0.0039,0 -23.987113,6.02964 -25.561005,28.30548 z"
     id="path16"
     inkscape:connector-curvature="0" />
  <path
     style="opacity:0.2;stroke-width:4"
     d="m 216.20177,68.000003 c 0,0 -0.92171,2.90632 -5.24961,3.16136 -4.32621,0.2584 -3.57797,6.27476 0.17344,9.64324 3.75312,3.37016 6.68827,4.29444 9.18978,1.7082 2.49812,-2.58112 8.63369,-6.8636 -4.11363,-14.5128 z"
     id="path18"
     inkscape:connector-curvature="0" />
  <path
     style="fill:#3f3f3f;stroke-width:4"
     d="m 216.20177,64.000043 c 0,0 -0.92171,2.90632 -5.24961,3.16136 -4.32621,0.2584 -3.57797,6.27476 0.17344,9.6432 3.75312,3.3702 6.68827,4.29448 9.18978,1.70824 2.49812,-2.58116 8.63369,-6.8636 -4.11363,-14.5128 z"
     id="path20"
     inkscape:connector-curvature="0" />
  <path
     style="opacity:0.2;stroke-width:4"
     d="m 190.30902,56.951083 c -2.72093,3.47184 -7.74766,4.06948 -11.22997,1.34316 -3.48232,-2.74028 -4.10599,-7.76912 -1.38309,-11.24296 2.71503,-3.46584 7.74569,-4.06548 11.22605,-1.33516 3.48428,2.73628 4.10008,7.76312 1.38701,11.23496 z"
     id="path22"
     inkscape:connector-curvature="0" />
  <path
     style="fill:#3f3f3f;stroke-width:4"
     d="m 190.30902,52.951123 c -2.72093,3.4718 -7.74766,4.06944 -11.22997,1.34316 -3.48232,-2.74028 -4.10599,-7.76916 -1.38309,-11.243 2.71503,-3.4658 7.74569,-4.06544 11.22605,-1.33516 3.48428,2.73632 4.10008,7.76316 1.38701,11.235 z"
     id="path24"
     inkscape:connector-curvature="0" />
  <path
     style="opacity:0.2;stroke-width:4"
     d="m 221.78003,61.400683 c -0.23536,3.08572 -2.19904,5.402 -4.38335,5.16816 -2.18249,-0.2276 -3.76007,-2.90984 -3.51919,-6.00156 0.2372,-3.08172 2.19719,-5.396 4.37968,-5.16616 2.18247,0.236 3.76004,2.91584 3.52286,5.99956 z"
     id="path26"
     inkscape:connector-curvature="0" />
  <path
     style="fill:#3f3f3f;stroke-width:4"
     d="m 221.78003,53.400683 c -0.23536,3.08572 -2.19904,5.402 -4.38335,5.16816 -2.18249,-0.228 -3.76007,-2.90984 -3.51919,-6.00156 0.2372,-3.08172 2.19719,-5.396 4.37968,-5.16616 2.18247,0.236 3.76004,2.91584 3.52286,5.99956 z"
     id="path28"
     inkscape:connector-curvature="0" />
</svg>
