<svg xmlns="http://www.w3.org/2000/svg" width="16" height="16" version="1.1" viewBox="0 0 16 16">
 <path style="fill:#f8952b" d="M 8.999865,2.9997464 A 5.999865,6.0001269 0 0 0 3,8.9998733 5.999865,6.0001269 0 0 0 8.999865,15 5.999865,6.0001269 0 0 0 14.99973,8.9998733 5.999865,6.0001269 0 0 0 8.999865,2.9997464 Z"/>
 <path style="fill:#946857" d="m 8.88,4.5836472 c 0.7432109,0.1758654 0.8238499,1.1231262 1.421675,1.3538135 0.797714,0.3240488 0.865744,-0.6903942 0.453885,-1.2268108"/>
 <path style="fill:#946857" d="M 7.7462793,3.14e-6 C 3.5610899,-0.00374962 0.11272131,3.4429568 0.00270371,7.7907927 -0.10919146,12.207642 3.2659417,15.881737 7.5408151,15.997217 c 2.0826484,0.05622 3.9939339,-0.742672 5.4201909,-2.087544 0.152289,-0.127066 0.235151,-0.206255 0.235151,-0.206255 0,0 1.446838,-1.623347 1.529843,-2.963344 -0.394647,0.652012 -0.656847,1.304838 -1.639216,1.788319 -0.450528,0.208702 -0.863477,0.386268 -1.279658,0.526574 -0.02665,0.0068 -0.0534,0.01307 -0.08047,0.01953 -0.197126,0.04706 -0.403731,0.08658 -0.620299,0.116409 -0.02625,0.0036 -0.05319,0.0068 -0.07969,0.01016 -0.224609,0.02849 -0.456527,0.04923 -0.696078,0.05938 -0.02465,10e-4 -0.05021,7.2e-4 -0.075,0.0016 -0.236325,0.0081 -0.478028,0.0074 -0.7234213,-0.0024 -0.016012,-6.4e-4 -0.031615,-6.9e-5 -0.047655,-8e-4 -0.2495516,-0.01107 -0.5026163,-0.0337 -0.7562334,-0.06328 -0.036191,-0.0042 -0.072374,-0.0071 -0.1085911,-0.01172 -0.2468793,-0.03137 -0.4936593,-0.07282 -0.7390458,-0.121878 -0.039643,-0.0079 -0.079212,-0.01583 -0.1187473,-0.02422 -0.240133,-0.05096 -0.4781117,-0.110775 -0.7117028,-0.178911 -0.074893,-0.02185 -0.1495071,-0.04435 -0.2234326,-0.06797 -0.055869,-0.01785 -0.1119391,-0.03504 -0.1671834,-0.05391 -0.078947,-0.02696 -0.1560701,-0.05612 -0.2335888,-0.08516 -0.063225,-0.02369 -0.1268927,-0.04681 -0.1890581,-0.07188 -0.072038,-0.02906 -0.1420224,-0.06049 -0.2124952,-0.09141 -0.059725,-0.0262 -0.1204017,-0.05136 -0.1789024,-0.07891 C 5.7181729,12.349623 5.5929742,12.286896 5.4721121,12.220535 5.3759246,12.167326 5.2843823,12.111614 5.1971183,12.053344 4.9967148,11.919525 4.8218091,11.772032 4.6650986,11.617397 3.8492398,10.784784 3.8871185,9.8057857 3.9299592,9.1712515 3.983936,8.3742051 4.6521409,6.6254673 6.8509871,5.6993033 c 1.358577,-0.479717 2.956367,-0.8152217 4.2920909,-0.3851646 1.004763,0.2267132 1.727266,0.5563766 2.682752,0.8937689 0,0 -0.0077,0.016628 0.256244,0.082033 1.858225,0.294369 1.649639,-1.2365338 1.649639,-1.2365338 L 15.586061,4.6951484 v 0 c -0.03222,-0.1887888 0.109182,-0.3376791 0.109182,-0.3376791 0,0 -0.114538,-0.4221477 -0.09523,-0.7011388 0.01957,-0.2788627 0.0038,-0.6363139 -0.05703,-1.1461179 C 15.482183,2.0003724 15.147571,1.7973155 15.039089,1.7180676 14.930359,1.6389626 14.423728,1.2570061 13.938333,1.0664913 13.45264,0.87597411 12.961758,0.73517757 12.357118,0.82039237 c -0.06713,0.009493 -0.130679,0.0197596 -0.19687,0.0296882 -0.01172,-0.00372 -0.02091,-0.007959 -0.03359,-0.011719 -0.230565,-0.0684755 -0.39366,-0.44160318 -0.582019,-0.43709008 -0.01441,3.4564e-4 -0.029,0.00158 -0.04375,0.003124 -0.01452,0.00152 -0.02959,0.003464 -0.04453,0.00625 h -8e-4 c -0.01522,0.00284 -0.03036,0.006672 -0.04609,0.0109378 -0.01718,0.004662 -0.03372,0.0107678 -0.04922,0.0179692 -0.11023,0.0512458 -0.177757,0.24411564 -0.21951,0.37062383 C 10.173609,0.32131454 9.092249,0.03403186 7.9454936,0.00312821 7.8787003,0.00132017 7.8127106,6.3141269e-5 7.7462793,3.14e-6 Z M 12.293052,12.908089 c -0.141975,0.05291 -0.29609,0.09769 -0.454677,0.139065 0.158497,-0.04135 0.312797,-0.08619 0.454677,-0.139065 z"/>
 <path style="fill:#d3c9c6" d="M 11.121701,2.007751 C 10.284555,2.0067509 9.377009,2.2517233 8.7141815,2.482249 7.4571974,2.9270692 6.9165768,3.5732419 5.8980922,4.3011285 5.6280242,4.4972455 4.5667505,5.2765139 3.9219078,6.3631865 2.1398559,9.51397 3.1576122,12.430818 5.4621047,13.191 c 2.5336526,0.947573 5.2443573,1.649925 8.2948343,-1.046067 -0.262567,0.210144 0,-0.200255 -1.464089,0.562703 C 10.56723,13.35077 7.5189276,13.144182 5.4721385,12.020364 3.8255079,11.109474 3.9461876,9.968524 4,9.1714779 4.053977,8.3744315 4.6524609,6.6253957 6.8513071,5.6992317 8.2098841,5.2195147 9.8073905,5.004061 11.143114,5.4341181 c 1.004763,0.2267132 1.726985,0.5169321 2.682471,0.8543244 0,0 -0.0079,0.01638 0.256109,0.081789 C 15.939919,6.6645613 16,5.0291723 16,5.0291723 L 15.94702,4.731192 15.785255,4.3268863 l -0.07709,-0.1732221 -0.0465,-0.093874 c 0,0 -0.0134,-0.1181937 -0.03218,-0.2382866 -0.03559,0.4488907 -0.116876,0.9784708 -0.116876,0.9784708 C 14.068341,4.526135 13.712743,2.7088102 12.189941,2.1860999 11.868095,2.0595189 11.502221,2.008205 11.121701,2.007751 Z m 2.635238,10.137182 c 0.168222,-0.134635 0.249721,-0.226629 0.249746,-0.226567 -0.08354,0.07806 -0.166714,0.153184 -0.249746,0.226567 z"/>
 <path style="fill:#946857" d="M 3.58167,6.9190919 3.573,6.9904689 c 0.5811487,-0.029445 1.2934099,0.096489 1.8217608,0.467082 0.409626,0.2765523 0.7786269,0.6892722 1.3038259,0.5025514 C 7.0576502,7.8341737 7.077601,7.6209312 6.9399644,7.2702865 6.8237351,6.9851837 6.6316062,6.4928629 6.3940259,6.3041065 6.0517728,6.0332528 5.1669859,6.1278348 5.1225953,5.5614292 5.0892361,5.2936959 4.9574118,5.0923197 5.107,4.8971848 c -2.76e-4,0 -1.4129089,0.4307071 -1.52533,2.0219071 z"/>
 <path style="fill:#3f3f3f" d="m 15.512611,4.7999744 c 0,0 -0.05761,0.2179782 -0.328099,0.2371062 -0.270387,0.01938 -0.223622,0.4706176 0.01084,0.7232569 0.234569,0.2527686 0.418016,0.32209 0.57436,0.1281171 0.156132,-0.1935877 0.539604,-0.5147781 -0.257103,-1.0884802 z"/>
 <path style="fill:#3f3f3f" d="M 13.894316,3.8092984 C 13.724258,4.0262874 13.410087,4.0636391 13.192443,3.8932454 12.974798,3.7219781 12.935819,3.4076741 13.106,3.1905598 c 0.169689,-0.2166146 0.484106,-0.2540913 0.701628,-0.083448 0.217767,0.1710179 0.256255,0.4851966 0.08669,0.7021862 z"/>
 <path style="fill:#3f3f3f" d="M 15.841434,3.8141458 C 15.824622,4.0345645 15.68436,4.2000208 15.528337,4.183318 15.372445,4.1670457 15.259761,3.9754624 15.276966,3.7546157 15.29391,3.5344831 15.433908,3.3691696 15.5898,3.3855867 c 0.155892,0.016844 0.268575,0.2082836 0.251634,0.4285591 z"/>
</svg>
