<?xml version="1.0" encoding="UTF-8" standalone="no"?>
<svg
   xmlns:dc="http://purl.org/dc/elements/1.1/"
   xmlns:cc="http://creativecommons.org/ns#"
   xmlns:rdf="http://www.w3.org/1999/02/22-rdf-syntax-ns#"
   xmlns:svg="http://www.w3.org/2000/svg"
   xmlns="http://www.w3.org/2000/svg"
   xmlns:sodipodi="http://sodipodi.sourceforge.net/DTD/sodipodi-0.dtd"
   xmlns:inkscape="http://www.inkscape.org/namespaces/inkscape"
   width="48"
   height="48"
   version="1.1"
   viewBox="0 0 48 48"
   id="svg30"
   sodipodi:docname="lutris.svg"
   inkscape:export-filename="/home/strider/Projects/lutris/share/icons/hicolor/48x48/apps/lutris.svg.png"
   inkscape:export-xdpi="1429.24"
   inkscape:export-ydpi="1429.24"
   inkscape:version="0.92.3 (2405546, 2018-03-11)">
  <metadata
     id="metadata36">
    <rdf:RDF>
      <cc:Work
         rdf:about="">
        <dc:format>image/svg+xml</dc:format>
        <dc:type
           rdf:resource="http://purl.org/dc/dcmitype/StillImage" />
      </cc:Work>
    </rdf:RDF>
  </metadata>
  <defs
     id="defs34" />
  <sodipodi:namedview
     pagecolor="#ffffff"
     bordercolor="#666666"
     borderopacity="1"
     objecttolerance="10"
     gridtolerance="10"
     guidetolerance="10"
     inkscape:pageopacity="0"
     inkscape:pageshadow="2"
     inkscape:window-width="1932"
     inkscape:window-height="1325"
     id="namedview32"
     showgrid="false"
     inkscape:snap-bbox="true"
     inkscape:bbox-paths="true"
     inkscape:bbox-nodes="true"
     inkscape:snap-bbox-edge-midpoints="true"
     inkscape:snap-bbox-midpoints="true"
     inkscape:object-paths="true"
     inkscape:snap-intersection-paths="true"
     inkscape:snap-smooth-nodes="true"
     inkscape:snap-midpoints="true"
     inkscape:snap-object-midpoints="true"
     inkscape:snap-center="true"
     inkscape:zoom="11.313709"
     inkscape:cx="25.328868"
     inkscape:cy="13.608842"
     inkscape:window-x="60"
     inkscape:window-y="27"
     inkscape:window-maximized="0"
     inkscape:current-layer="svg30" />
  <path
     style="fill:#ff9900;fill-opacity:1"
     d="M 27,11 A 15,15 0 0 0 12,26 15,15 0 0 0 27,41 15,15 0 0 0 42,26 15,15 0 0 0 27,11 Z"
     id="path4" />
  <path
     style="fill:#946857"
     d="m 26.7,16.459193 c 1.858069,0.439654 2.059671,2.807756 3.554268,3.384462 1.99433,0.810105 2.164409,-1.725949 1.134739,-3.066962"
     id="path6" />
  <path
     style="fill:#815b4b;fill-opacity:1"
     d="M 23.365234,4 C 12.902025,3.9906183 4.2809096,12.607202 4.0058594,23.476562 3.7261152,34.518451 12.164138,43.703495 22.851562,43.992188 c 5.206738,0.140546 10.039746,-1.954296 13.605469,-5.316406 0.380732,-0.317656 0.58789,-0.515626 0.58789,-0.515626 0,0 3.995027,-4.118778 4.202543,-7.4687 -0.986638,1.629996 -2.020001,3.322524 -4.47598,4.5312 -1.126347,0.521744 -2.213428,1.063305 -3.253906,1.414063 -0.06662,0.01696 -0.133511,0.03268 -0.201172,0.04883 -0.492826,0.117638 -1.009349,0.216435 -1.550781,0.291015 -0.06562,0.009 -0.132982,0.01699 -0.199219,0.02539 -0.561535,0.07122 -1.141344,0.12307 -1.740234,0.148438 -0.06164,0.0026 -0.125537,0.0018 -0.1875,0.0039 -0.590827,0.02022 -1.195097,0.01847 -1.808594,-0.0059 -0.04003,-0.0016 -0.07904,-1.73e-4 -0.11914,-0.002 -0.623893,-0.02767 -1.256569,-0.08424 -1.890626,-0.158203 -0.09048,-0.01056 -0.18094,-0.01779 -0.271484,-0.0293 -0.617212,-0.07843 -1.234176,-0.182052 -1.847656,-0.304687 -0.09911,-0.01981 -0.198035,-0.03958 -0.296875,-0.06055 -0.600346,-0.127401 -1.195306,-0.276931 -1.779297,-0.447266 -0.187237,-0.05462 -0.373776,-0.110867 -0.558594,-0.169922 -0.139675,-0.04463 -0.279854,-0.08759 -0.417968,-0.134765 -0.197373,-0.06741 -0.390184,-0.140288 -0.583985,-0.212891 -0.158066,-0.05921 -0.317239,-0.117009 -0.472656,-0.179687 -0.180099,-0.07264 -0.355064,-0.151213 -0.53125,-0.228516 -0.149316,-0.06551 -0.301011,-0.128404 -0.447266,-0.197265 -0.318427,-0.149944 -0.631431,-0.306757 -0.933593,-0.472657 -0.240474,-0.13302 -0.469335,-0.272295 -0.6875,-0.417969 -0.50102,-0.33454 -0.938294,-0.703265 -1.330079,-1.089843 -2.039693,-2.081489 -1.944994,-4.528933 -1.83789,-6.115235 0.134945,-1.992574 1.805495,-6.364326 7.302734,-8.679687 3.396519,-1.199267 7.391084,-2.038011 10.730469,-0.962891 2.511963,0.566771 4.318261,1.390912 6.707031,2.234375 0,0 -0.01933,0.04157 0.640625,0.205078 4.645666,0.735907 4.12419,-3.091269 4.12419,-3.091269 l -0.364139,-0.895627 v 0 c -0.08055,-0.471962 0.272962,-0.84418 0.272962,-0.84418 0,0 -0.286352,-1.055347 -0.238091,-1.75281 0.04892,-0.697142 0.0094,-1.590751 -0.142581,-2.865234 C 42.705407,9.0008173 41.868866,8.4931859 41.597656,8.2950704 41.325825,8.0973119 40.05922,7.1424409 38.845703,6.6661641 37.631444,6.1898811 36.404212,5.8378972 34.892578,6.0509297 c -0.16784,0.023733 -0.326706,0.049398 -0.492187,0.074219 -0.0293,-0.0093 -0.05228,-0.019896 -0.08398,-0.029297 -0.576424,-0.1711851 -0.984172,-1.1039846 -1.455078,-1.0927021 -0.03604,8.641e-4 -0.07249,0.00395 -0.109375,0.00781 -0.03631,0.0038 -0.07399,0.00866 -0.111328,0.015625 h -0.002 c -0.03806,0.0071 -0.0759,0.01668 -0.115234,0.027344 -0.04294,0.011654 -0.08431,0.026919 -0.123047,0.044922 -0.275581,0.1281117 -0.444403,0.6102762 -0.548787,0.92654 C 29.433694,4.8032615 26.730234,4.08507 23.863281,4.0078125 23.696294,4.0032925 23.531316,4.00015 23.365234,4 Z m 11.367188,32.269531 c -0.354946,0.132282 -0.740241,0.244228 -1.136719,0.347657 0.396253,-0.103374 0.782011,-0.215465 1.136719,-0.347657 z"
     id="path10"
     inkscape:connector-curvature="0"
     sodipodi:nodetypes="ccccccccccccccccccccccccccccccccccccccccccccccccccccccccc" />
  <path
     style="fill:#e5dfdd;fill-opacity:1"
     d="m 31.803977,10.01989 c -2.092912,-0.0025 -4.361827,0.609918 -6.018933,1.18622 -3.142531,1.112027 -5.244489,1.726798 -7.790758,3.546476 -0.675185,0.490282 -3.140423,2.251703 -4.752566,4.968327 -4.4552298,7.876792 -3.9446389,15.276847 4.600955,18.569378 8.024554,2.666876 13.509624,2.159675 21.13599,-4.580161 -0.656433,0.525348 -0.518447,0.750508 -4.216103,2.343628 -2.954771,1.170302 -11.824589,1.135538 -16.941677,-1.673949 -4.116669,-2.277177 -3.867413,-5.645743 -3.732879,-7.638316 0.134945,-1.992574 1.756851,-6.253378 7.25409,-8.568739 3.396519,-1.199267 7.176032,-1.662874 10.515417,-0.587754 2.511963,0.566771 4.317558,1.292303 6.706328,2.135766 0,0 -0.01967,0.04095 0.640286,0.204468 C 43.849793,20.661043 44,16.572657 44,16.572657 l -0.132462,-0.744935 -0.404423,-1.010743 -0.192729,-0.433046 -0.116249,-0.23468 c 0,0 -0.0335,-0.295478 -0.08046,-0.595704 C 42.984697,14.675752 42.537835,15 42.537835,15 38.927098,14.315416 38.281729,11.772501 34.474639,10.465753 33.670005,10.149307 32.7553,10.021025 31.803977,10.01989 Z"
     id="path12"
     inkscape:export-xdpi="1429.24"
     inkscape:export-ydpi="1429.24"
     inkscape:connector-curvature="0"
     sodipodi:nodetypes="cccccccccccccccccccccc" />
  <path
     style="opacity:0.2;fill:#ffffff"
     d="M 23.365234,4 C 12.902025,3.9906183 4.2809096,12.607202 4.0058594,23.476562 c -0.00849,0.335238 -0.0074,0.668383 0,1 C 4.2809096,13.607202 12.902025,4.9906183 23.365234,5 c 0.166082,1.5e-4 0.33106,0.00329 0.498047,0.00781 2.866953,0.077257 5.570414,0.795449 7.988281,2.0175781 0.104384,-0.3162638 0.273248,-0.7976695 0.548829,-0.9257812 0.03874,-0.018003 0.08011,-0.033268 0.123047,-0.044922 0.03933,-0.010664 0.07717,-0.020244 0.115234,-0.027344 h 0.002 c 0.03734,-0.00697 0.07502,-0.011825 0.111328,-0.015625 0.03688,-0.00386 0.07334,-0.00695 0.109375,-0.00781 0.470906,-0.011283 0.878654,0.922565 1.455078,1.09375 0.0317,0.0094 0.05468,0.019997 0.08398,0.029297 0.165481,-0.024821 0.324347,-0.050486 0.492187,-0.074219 1.511634,-0.2130325 2.738866,0.1389513 3.953125,0.6152344 1.213517,0.4762768 2.480122,1.4311477 2.751953,1.6289062 0.27121,0.1981155 1.107754,0.7039415 1.259766,1.9785165 0.07437,0.62364 0.119251,1.152382 0.142578,1.615234 0.02736,-0.663491 -0.0062,-1.471677 -0.142578,-2.615234 C 42.70541,9.0008169 41.868866,8.4930374 41.597656,8.2949219 41.325825,8.0971634 40.05922,7.1422924 38.845703,6.6660156 37.631444,6.1897326 36.404212,5.8377488 34.892578,6.0507812 34.724738,6.0745143 34.565872,6.100179 34.400391,6.125 34.371091,6.1157 34.348106,6.1051041 34.316406,6.0957031 33.739982,5.924518 33.332234,4.9926237 32.861328,5.0039062 c -0.03604,8.642e-4 -0.07249,0.00395 -0.109375,0.00781 -0.03631,0.0038 -0.07399,0.00866 -0.111328,0.015625 h -0.002 c -0.03806,0.0071 -0.0759,0.01668 -0.115234,0.027344 -0.04294,0.011654 -0.08431,0.026919 -0.123047,0.044922 C 32.12481,5.2277211 31.955946,5.7091268 31.851562,6.0253906 29.433695,4.8032615 26.730234,4.08507 23.863281,4.0078125 23.696294,4.0032925 23.531316,4.00015 23.365234,4 Z m 19.636719,9.234375 c 0.0076,0.324261 0.01629,0.646224 -0.002,0.90625 -0.02095,0.302781 0.02571,0.666229 0.08008,0.988281 0.07567,-0.140861 0.158203,-0.236328 0.158203,-0.236328 0,0 -0.25716,-0.963504 -0.236328,-1.658203 z m 0.105469,2.853516 c -0.09457,0.152209 -0.191278,0.365044 -0.142578,0.65039 l 0.326172,0.798828 c 0.07715,-0.503538 0.03906,-0.904297 0.03906,-0.904297 z"
     id="path14" />
  <path
     style="fill:#946857"
     d="m 12.454075,20.297529 -0.02167,0.178439 c 1.452899,-0.07361 3.233592,0.241217 4.554499,1.16768 1.024088,0.691366 1.946611,1.723144 3.259638,1.256352 0.897679,-0.314815 0.947557,-0.84791 0.603458,-1.724503 -0.29058,-0.712742 -0.770913,-1.943518 -1.364877,-2.415399 -0.855652,-0.67712 -3.067669,-0.44067 -3.178648,-1.856654 -0.0834,-0.669319 0.338189,-1.172749 0.712168,-1.660576 -6.9e-4,0 -4.283509,1.076745 -4.564568,5.054661 z"
     id="path16" />
  <path
     style="fill:#3f3f3f"
     d="m 42.537835,15 c 0,0 -0.172819,0.544934 -0.984299,0.592753 -0.811162,0.04845 -0.670867,1.176519 0.03252,1.808104 0.703709,0.631908 1.414206,0.648958 1.723081,0.320286 C 43.799499,17.18678 44.927952,16.434225 42.537833,15 Z"
     id="path20"
     inkscape:connector-curvature="0"
     sodipodi:nodetypes="cccccc" />
  <path
     style="fill:#3f3f3f"
     d="m 38.682949,13.427632 c -0.510174,0.650967 -1.452686,0.763022 -2.105622,0.251841 -0.652933,-0.513802 -0.769871,-1.456714 -0.259328,-2.108057 0.509069,-0.649844 1.452318,-0.762274 2.104885,-0.250343 0.653302,0.513054 0.768765,1.45559 0.260065,2.106559 z"
     id="path24" />
  <path
     style="fill:#3f3f3f"
     d="m 43.603576,13.535155 c -0.04203,0.551035 -0.392695,0.964667 -0.78276,0.922911 -0.389739,-0.04068 -0.671455,-0.519628 -0.628441,-1.071733 0.04236,-0.55032 0.392364,-0.963595 0.782103,-0.922553 0.389737,0.04211 0.671452,0.520698 0.629098,1.071375 z"
     id="path28" />
</svg>
