<svg xmlns="http://www.w3.org/2000/svg" width="48" height="48" version="1.1" viewBox="0 0 48 48">
 <path style="opacity:0.2" d="M 23.365234,5.0008541 C 12.902025,4.9914724 4.2809096,13.608056 4.0058594,24.477416 3.7261152,35.519305 12.164138,44.704349 22.851562,44.993042 c 5.206738,0.140546 9.985059,-1.85664 13.550782,-5.21875 0.380732,-0.317656 0.58789,-0.515626 0.58789,-0.515626 0,0 3.866703,-4.058281 4.074219,-7.408203 -0.986638,1.629996 -1.891678,3.262027 -4.347656,4.470703 -1.126347,0.521744 -2.158741,0.965649 -3.199219,1.316407 -0.06662,0.01696 -0.133511,0.03268 -0.201172,0.04883 -0.492826,0.117638 -1.009349,0.216435 -1.550781,0.291015 -0.06562,0.009 -0.132982,0.01699 -0.199219,0.02539 -0.561535,0.07122 -1.141344,0.12307 -1.740234,0.148438 -0.06164,0.0026 -0.125537,0.0018 -0.1875,0.0039 -0.590827,0.02022 -1.195097,0.01847 -1.808594,-0.0059 -0.04003,-0.0016 -0.07904,-1.73e-4 -0.11914,-0.002 -0.623893,-0.02767 -1.256569,-0.08424 -1.890626,-0.158203 -0.09048,-0.01056 -0.18094,-0.01779 -0.271484,-0.0293 -0.617212,-0.07843 -1.234176,-0.182052 -1.847656,-0.304687 -0.09911,-0.01981 -0.198035,-0.03958 -0.296875,-0.06055 -0.600346,-0.127401 -1.195306,-0.276931 -1.779297,-0.447266 -0.187237,-0.05462 -0.373776,-0.110867 -0.558594,-0.169922 -0.139675,-0.04463 -0.279854,-0.08759 -0.417968,-0.134765 -0.197373,-0.06741 -0.390184,-0.140288 -0.583985,-0.212891 -0.158066,-0.05921 -0.317239,-0.117009 -0.472656,-0.179687 -0.180099,-0.07264 -0.355064,-0.151213 -0.53125,-0.228516 -0.149316,-0.06551 -0.301011,-0.128404 -0.447266,-0.197265 -0.318427,-0.149944 -0.631431,-0.306757 -0.933593,-0.472657 -0.240474,-0.13302 -0.469335,-0.272295 -0.6875,-0.417969 -0.50102,-0.33454 -0.938294,-0.703265 -1.330079,-1.089843 -2.039693,-2.081489 -1.944994,-4.528933 -1.83789,-6.115235 0.134945,-1.992574 1.805495,-6.364326 7.302734,-8.679687 3.396519,-1.199267 7.391084,-2.038011 10.730469,-0.962891 2.511963,0.566771 4.318261,1.390912 6.707031,2.234375 0,0 -0.01933,0.04157 0.640625,0.205078 4.645666,0.735907 4.12419,-3.091269 4.12419,-3.091269 l -0.364139,-0.895627 v 0 c -0.08055,-0.471962 0.272962,-0.84418 0.272962,-0.84418 0,0 -0.286352,-1.055347 -0.238091,-1.75281 0.04892,-0.697142 0.0094,-1.590751 -0.142581,-2.865234 C 42.705407,10.001671 41.868866,9.49404 41.597656,9.2959245 41.325825,9.098166 40.05922,8.143295 38.845703,7.6670182 37.631444,7.1907352 36.404212,6.8387513 34.892578,7.0517838 c -0.16784,0.023733 -0.326706,0.049398 -0.492187,0.074219 -0.0293,-0.0093 -0.05228,-0.019896 -0.08398,-0.029297 -0.576424,-0.1711851 -0.984172,-1.1039846 -1.455078,-1.0927021 -0.03604,8.641e-4 -0.07249,0.00395 -0.109375,0.00781 -0.03631,0.0038 -0.07399,0.00866 -0.111328,0.015625 h -0.002 c -0.03806,0.0071 -0.0759,0.01668 -0.115234,0.027344 -0.04294,0.011654 -0.08431,0.026919 -0.123047,0.044922 -0.275581,0.1281117 -0.444403,0.6102762 -0.548787,0.92654 -2.417868,-1.2221291 -5.121328,-1.9403206 -7.988281,-2.0175781 -0.166987,-0.00452 -0.331965,-0.00766 -0.498047,-0.00781 z M 17.693359,15.752807 c -0.675185,0.490282 -3.32731,2.439626 -4.939453,5.15625 1.612143,-2.716622 2.384322,-3.443772 4.939453,-5.15625 z m 17.039063,21.517578 c -0.354946,0.132282 -0.740241,0.244228 -1.136719,0.347657 0.396253,-0.103374 0.782011,-0.215465 1.136719,-0.347657 z"/>
 <path style="fill:#f8952b" d="M 27,11 A 15,15 0 0 0 12,26 15,15 0 0 0 27,41 15,15 0 0 0 42,26 15,15 0 0 0 27,11 Z"/>
 <path style="fill:#946857" d="m 26.7,16.459193 c 1.858069,0.439654 2.059671,2.807756 3.554268,3.384462 1.99433,0.810105 2.164409,-1.725949 1.134739,-3.066962"/>
 <path style="opacity:0.2" d="m 31.803977,11.025089 c -2.092912,-0.0025 -4.361827,0.609918 -6.018933,1.18622 -3.142531,1.112027 -5.244489,1.726798 -7.790758,3.546476 -0.675185,0.490282 -3.328429,2.438412 -4.940572,5.155036 -4.4552301,7.876792 -1.160406,16.668963 4.600955,18.569378 6.334274,2.368883 13.111187,2.624519 20.737553,-4.115317 -0.656433,0.525348 0,0 -3.660306,1.907353 C 30.41777,38.882037 22.796842,38.365579 17.679754,35.556092 13.563085,33.278915 13.865466,29.925974 14,27.933401 c 0.134945,-1.992574 1.630514,-6.365071 7.127753,-8.680432 3.396519,-1.199267 7.390375,-1.73789 10.72976,-0.66277 2.511963,0.566771 4.317558,1.292303 6.706328,2.135766 0,0 -0.01967,0.04095 0.640286,0.204468 C 43.849793,21.666242 44,17.577856 44,17.577856 l -0.132462,-0.744935 -0.404423,-1.010743 -0.192729,-0.433046 -0.116249,-0.23468 c 0,0 -0.0335,-0.295478 -0.08046,-0.595704 -0.08898,1.122203 -0.535842,1.446451 -0.535842,1.446451 C 38.927098,15.320615 38.281729,12.7777 34.474639,11.470952 33.670005,11.154506 32.7553,11.026224 31.803977,11.025089 Z m 6.588245,24.341793 c 0.420565,-0.33658 0.624316,-0.566562 0.624378,-0.566407 -0.208852,0.195138 -0.416793,0.382954 -0.624378,0.566407 z"/>
 <path style="fill:#946857" d="M 23.365234,4 C 12.902025,3.9906183 4.2809096,12.607202 4.0058594,23.476562 3.7261152,34.518451 12.164138,43.703495 22.851562,43.992188 c 5.206738,0.140546 9.985059,-1.85664 13.550782,-5.21875 0.380732,-0.317656 0.58789,-0.515626 0.58789,-0.515626 0,0 3.866703,-4.058281 4.074219,-7.408203 -0.986638,1.629996 -1.891678,3.262027 -4.347656,4.470703 -1.126347,0.521744 -2.158741,0.965649 -3.199219,1.316407 -0.06662,0.01696 -0.133511,0.03268 -0.201172,0.04883 -0.492826,0.117638 -1.009349,0.216435 -1.550781,0.291015 -0.06562,0.009 -0.132982,0.01699 -0.199219,0.02539 -0.561535,0.07122 -1.141344,0.12307 -1.740234,0.148438 -0.06164,0.0026 -0.125537,0.0018 -0.1875,0.0039 -0.590827,0.02022 -1.195097,0.01847 -1.808594,-0.0059 -0.04003,-0.0016 -0.07904,-1.73e-4 -0.11914,-0.002 -0.623893,-0.02767 -1.256569,-0.08424 -1.890626,-0.158203 -0.09048,-0.01056 -0.18094,-0.01779 -0.271484,-0.0293 -0.617212,-0.07843 -1.234176,-0.182052 -1.847656,-0.304687 -0.09911,-0.01981 -0.198035,-0.03958 -0.296875,-0.06055 -0.600346,-0.127401 -1.195306,-0.276931 -1.779297,-0.447266 -0.187237,-0.05462 -0.373776,-0.110867 -0.558594,-0.169922 -0.139675,-0.04463 -0.279854,-0.08759 -0.417968,-0.134765 -0.197373,-0.06741 -0.390184,-0.140288 -0.583985,-0.212891 -0.158066,-0.05921 -0.317239,-0.117009 -0.472656,-0.179687 -0.180099,-0.07264 -0.355064,-0.151213 -0.53125,-0.228516 -0.149316,-0.06551 -0.301011,-0.128404 -0.447266,-0.197265 -0.318427,-0.149944 -0.631431,-0.306757 -0.933593,-0.472657 -0.240474,-0.13302 -0.469335,-0.272295 -0.6875,-0.417969 -0.50102,-0.33454 -0.938294,-0.703265 -1.330079,-1.089843 -2.039693,-2.081489 -1.944994,-4.528933 -1.83789,-6.115235 0.134945,-1.992574 1.805495,-6.364326 7.302734,-8.679687 3.396519,-1.199267 7.391084,-2.038011 10.730469,-0.962891 2.511963,0.566771 4.318261,1.390912 6.707031,2.234375 0,0 -0.01933,0.04157 0.640625,0.205078 4.645666,0.735907 4.12419,-3.091269 4.12419,-3.091269 l -0.364139,-0.895627 v 0 c -0.08055,-0.471962 0.272962,-0.84418 0.272962,-0.84418 0,0 -0.286352,-1.055347 -0.238091,-1.75281 0.04892,-0.697142 0.0094,-1.590751 -0.142581,-2.865234 C 42.705407,9.0008173 41.868866,8.4931859 41.597656,8.2950704 41.325825,8.0973119 40.05922,7.1424409 38.845703,6.6661641 37.631444,6.1898811 36.404212,5.8378972 34.892578,6.0509297 c -0.16784,0.023733 -0.326706,0.049398 -0.492187,0.074219 -0.0293,-0.0093 -0.05228,-0.019896 -0.08398,-0.029297 -0.576424,-0.1711851 -0.984172,-1.1039846 -1.455078,-1.0927021 -0.03604,8.641e-4 -0.07249,0.00395 -0.109375,0.00781 -0.03631,0.0038 -0.07399,0.00866 -0.111328,0.015625 h -0.002 c -0.03806,0.0071 -0.0759,0.01668 -0.115234,0.027344 -0.04294,0.011654 -0.08431,0.026919 -0.123047,0.044922 -0.275581,0.1281117 -0.444403,0.6102762 -0.548787,0.92654 C 29.433694,4.8032615 26.730234,4.08507 23.863281,4.0078125 23.696294,4.0032925 23.531316,4.00015 23.365234,4 Z m 11.367188,32.269531 c -0.354946,0.132282 -0.740241,0.244228 -1.136719,0.347657 0.396253,-0.103374 0.782011,-0.215465 1.136719,-0.347657 z"/>
 <path style="fill:#d3c9c6" d="m 31.803977,10.01989 c -2.092912,-0.0025 -4.361827,0.609918 -6.018933,1.18622 -3.142531,1.112027 -5.244489,1.726798 -7.790758,3.546476 -0.675185,0.490282 -3.328429,2.438412 -4.940572,5.155036 -4.4552301,7.876792 -1.160406,16.668963 4.600955,18.569378 6.334274,2.368883 13.111187,2.624519 20.737553,-4.115317 -0.656433,0.525348 0,0 -3.660306,1.907353 C 30.41777,37.876838 22.796842,37.36038 17.679754,34.550893 13.563085,32.273716 13.765466,28.920775 13.9,26.928202 c 0.134945,-1.992574 1.730514,-6.365071 7.227753,-8.680432 3.396519,-1.199267 7.390375,-1.73789 10.72976,-0.66277 2.511963,0.566771 4.317558,1.292303 6.706328,2.135766 0,0 -0.01967,0.04095 0.640286,0.204468 C 43.849793,20.661043 44,16.572657 44,16.572657 l -0.132462,-0.744935 -0.404423,-1.010743 -0.192729,-0.433046 -0.116249,-0.23468 c 0,0 -0.0335,-0.295478 -0.08046,-0.595704 C 42.984697,14.675752 42.537835,15 42.537835,15 38.927098,14.315416 38.281729,11.772501 34.474639,10.465753 33.670005,10.149307 32.7553,10.021025 31.803977,10.01989 Z m 6.588245,24.341793 c 0.420565,-0.33658 0.624316,-0.566562 0.624378,-0.566407 -0.208852,0.195138 -0.416793,0.382954 -0.624378,0.566407 z"/>
 <path style="opacity:0.2;fill:#ffffff" d="M 23.365234,4 C 12.902025,3.9906183 4.2809096,12.607202 4.0058594,23.476562 c -0.00849,0.335238 -0.0074,0.668383 0,1 C 4.2809096,13.607202 12.902025,4.9906183 23.365234,5 c 0.166082,1.5e-4 0.33106,0.00329 0.498047,0.00781 2.866953,0.077257 5.570414,0.795449 7.988281,2.0175781 0.104384,-0.3162638 0.273248,-0.7976695 0.548829,-0.9257812 0.03874,-0.018003 0.08011,-0.033268 0.123047,-0.044922 0.03933,-0.010664 0.07717,-0.020244 0.115234,-0.027344 h 0.002 c 0.03734,-0.00697 0.07502,-0.011825 0.111328,-0.015625 0.03688,-0.00386 0.07334,-0.00695 0.109375,-0.00781 0.470906,-0.011283 0.878654,0.922565 1.455078,1.09375 0.0317,0.0094 0.05468,0.019997 0.08398,0.029297 0.165481,-0.024821 0.324347,-0.050486 0.492187,-0.074219 1.511634,-0.2130325 2.738866,0.1389513 3.953125,0.6152344 1.213517,0.4762768 2.480122,1.4311477 2.751953,1.6289062 0.27121,0.1981155 1.107754,0.7039415 1.259766,1.9785165 0.07437,0.62364 0.119251,1.152382 0.142578,1.615234 0.02736,-0.663491 -0.0062,-1.471677 -0.142578,-2.615234 C 42.70541,9.0008169 41.868866,8.4930374 41.597656,8.2949219 41.325825,8.0971634 40.05922,7.1422924 38.845703,6.6660156 37.631444,6.1897326 36.404212,5.8377488 34.892578,6.0507812 34.724738,6.0745143 34.565872,6.100179 34.400391,6.125 34.371091,6.1157 34.348106,6.1051041 34.316406,6.0957031 33.739982,5.924518 33.332234,4.9926237 32.861328,5.0039062 c -0.03604,8.642e-4 -0.07249,0.00395 -0.109375,0.00781 -0.03631,0.0038 -0.07399,0.00866 -0.111328,0.015625 h -0.002 c -0.03806,0.0071 -0.0759,0.01668 -0.115234,0.027344 -0.04294,0.011654 -0.08431,0.026919 -0.123047,0.044922 C 32.12481,5.2277211 31.955946,5.7091268 31.851562,6.0253906 29.433695,4.8032615 26.730234,4.08507 23.863281,4.0078125 23.696294,4.0032925 23.531316,4.00015 23.365234,4 Z m 19.636719,9.234375 c 0.0076,0.324261 0.01629,0.646224 -0.002,0.90625 -0.02095,0.302781 0.02571,0.666229 0.08008,0.988281 0.07567,-0.140861 0.158203,-0.236328 0.158203,-0.236328 0,0 -0.25716,-0.963504 -0.236328,-1.658203 z m 0.105469,2.853516 c -0.09457,0.152209 -0.191278,0.365044 -0.142578,0.65039 l 0.326172,0.798828 c 0.07715,-0.503538 0.03906,-0.904297 0.03906,-0.904297 z"/>
 <path style="fill:#946857" d="m 12.454075,20.297529 -0.02167,0.178439 c 1.452899,-0.07361 3.233592,0.241217 4.554499,1.16768 1.024088,0.691366 1.946611,1.723144 3.259638,1.256352 0.897679,-0.314815 0.947557,-0.84791 0.603458,-1.724503 -0.29058,-0.712742 -0.770913,-1.943518 -1.364877,-2.415399 -0.855652,-0.67712 -3.067669,-0.44067 -3.178648,-1.856654 -0.0834,-0.669319 0.338189,-1.172749 0.712168,-1.660576 -6.9e-4,0 -4.283509,1.076745 -4.564568,5.054661 z"/>
 <path style="opacity:0.2" d="m 42.537835,16 c 0,0 -0.172819,0.544934 -0.984299,0.592753 -0.811162,0.04845 -0.670867,1.176519 0.03252,1.808104 0.703709,0.631908 1.25405,0.805208 1.723081,0.320286 C 43.777533,18.237184 44.927952,17.434225 42.537833,16 Z"/>
 <path style="fill:#3f3f3f" d="m 42.537835,15 c 0,0 -0.172819,0.544934 -0.984299,0.592753 -0.811162,0.04845 -0.670867,1.176519 0.03252,1.808104 0.703709,0.631908 1.25405,0.805208 1.723081,0.320286 C 43.777533,17.237184 44.927952,16.434225 42.537833,15 Z"/>
 <path style="opacity:0.2" d="m 38.682949,14.427632 c -0.510174,0.650967 -1.452686,0.763022 -2.105622,0.251841 -0.652933,-0.513802 -0.769871,-1.456714 -0.259328,-2.108057 0.509069,-0.649844 1.452318,-0.762274 2.104885,-0.250343 0.653302,0.513054 0.768765,1.45559 0.260065,2.106559 z"/>
 <path style="fill:#3f3f3f" d="m 38.682949,13.427632 c -0.510174,0.650967 -1.452686,0.763022 -2.105622,0.251841 -0.652933,-0.513802 -0.769871,-1.456714 -0.259328,-2.108057 0.509069,-0.649844 1.452318,-0.762274 2.104885,-0.250343 0.653302,0.513054 0.768765,1.45559 0.260065,2.106559 z"/>
 <path style="opacity:0.2" d="m 43.603576,14.535155 c -0.04203,0.551035 -0.392695,0.964667 -0.78276,0.922911 -0.389739,-0.04068 -0.671455,-0.519628 -0.628441,-1.071733 0.04236,-0.55032 0.392364,-0.963595 0.782103,-0.922553 0.389737,0.04211 0.671452,0.520698 0.629098,1.071375 z"/>
 <path style="fill:#3f3f3f" d="m 43.603576,13.535155 c -0.04203,0.551035 -0.392695,0.964667 -0.78276,0.922911 -0.389739,-0.04068 -0.671455,-0.519628 -0.628441,-1.071733 0.04236,-0.55032 0.392364,-0.963595 0.782103,-0.922553 0.389737,0.04211 0.671452,0.520698 0.629098,1.071375 z"/>
</svg>
