<svg xmlns="http://www.w3.org/2000/svg" width="22" height="22" version="1.1" viewBox="0 0 22 22">
 <path style="opacity:0.2" d="m 10.682849,1.5008774 c -5.2314866,-0.00469 -9.5419473,4.3035041 -9.6794693,9.7380616 -0.139869,5.52082 4.0790475,10.113239 9.4226393,10.257582 2.60331,0.07027 4.992417,-0.928299 6.775238,-2.609316 0.190362,-0.158825 0.293939,-0.257807 0.293939,-0.257807 0,0 1.933308,-2.029095 2.037064,-3.704019 -0.493308,0.81498 -0.945818,1.630977 -2.17378,2.235302 -0.56316,0.260866 -1.079346,0.482813 -1.599573,0.658188 -0.03331,0.0085 -0.06675,0.01634 -0.100584,0.02442 -0.246407,0.05882 -0.504663,0.108215 -0.775373,0.145504 -0.03281,0.0045 -0.06649,0.0085 -0.09961,0.0127 -0.280761,0.03561 -0.570659,0.06153 -0.870098,0.07422 -0.03082,0.0013 -0.06277,9e-4 -0.09375,0.0019 -0.295407,0.01011 -0.597535,0.0092 -0.904277,-0.0029 -0.02002,-8e-4 -0.03952,-8.6e-5 -0.05957,-10e-4 -0.311939,-0.01384 -0.62827,-0.04212 -0.945291,-0.0791 -0.04524,-0.0053 -0.09047,-0.0089 -0.135739,-0.01465 -0.308599,-0.03921 -0.617075,-0.09102 -0.923808,-0.15234 -0.04955,-0.0099 -0.09901,-0.01979 -0.148434,-0.03027 -0.300166,-0.0637 -0.597639,-0.138462 -0.889628,-0.223628 -0.09362,-0.02731 -0.186884,-0.05543 -0.279291,-0.08496 -0.06984,-0.02231 -0.139924,-0.04379 -0.208979,-0.06738 -0.09868,-0.0337 -0.195088,-0.07014 -0.291986,-0.106443 -0.079031,-0.0296 -0.1586161,-0.0585 -0.2363229,-0.08984 -0.090048,-0.03632 -0.177528,-0.0756 -0.265619,-0.114256 -0.074656,-0.03275 -0.1505021,-0.0642 -0.223628,-0.09863 C 8.1477162,16.937228 7.9912177,16.858823 7.8401401,16.775875 7.7199058,16.709366 7.6054779,16.63973 7.4963979,16.566895 7.2458935,16.399629 7.0272614,16.21527 6.8313733,16.021986 5.8115498,14.981265 5.8588982,13.75757 5.912449,12.964437 5.97992,11.968173 6.8151762,9.7823463 9.563734,8.6246916 11.261955,8.0250715 13.259193,7.605709 14.928848,8.1432569 c 1.255953,0.2833791 2.159082,0.6954403 3.35344,1.1171624 0,0 -0.0097,0.02078 0.320305,0.102537 2.322781,0.367945 2.062049,-1.5456001 2.062049,-1.5456001 L 20.482576,7.3695528 v 0 c -0.04027,-0.2359757 0.136478,-0.4220805 0.136478,-0.4220805 0,0 -0.143173,-0.5276616 -0.119043,-0.8763853 0.02446,-0.3485631 0.0047,-0.7953576 -0.07129,-1.4325848 C 20.352718,4.0012296 19.934457,3.7474198 19.798855,3.6483643 19.662943,3.5494873 19.029654,3.0720625 18.42291,2.8339295 17.815794,2.5957933 17.202191,2.4198053 16.446391,2.5263192 c -0.08392,0.011866 -0.163349,0.024698 -0.246087,0.037109 -0.01465,-0.00465 -0.02614,-0.00995 -0.04199,-0.014648 -0.288205,-0.085591 -0.492074,-0.5519799 -0.727522,-0.5463388 -0.01802,4.321e-4 -0.03624,0.00198 -0.05469,0.0039 -0.01816,0.0019 -0.037,0.00433 -0.05566,0.00781 h -10e-4 c -0.01903,0.00355 -0.03795,0.00834 -0.05762,0.013672 -0.02147,0.00583 -0.04215,0.013459 -0.06152,0.02246 -0.137787,0.064054 -0.222196,0.3051313 -0.274387,0.4632596 -1.208907,-0.6110508 -2.560607,-0.9701385 -3.994051,-1.0087663 -0.08349,-0.00226 -0.165979,-0.00383 -0.249018,-0.00391 z M 7.8469755,6.8767329 C 7.5093906,7.1218684 6.1833579,8.0965184 5.3773045,9.4548003 6.1833579,8.0965194 6.5694387,7.7329526 7.8469755,6.8767329 Z M 16.366315,17.63528 c -0.177469,0.06614 -0.370112,0.122111 -0.568346,0.173824 0.198122,-0.05169 0.390996,-0.10773 0.568346,-0.173824 z"/>
 <path style="fill:#f8952b" d="M 12.500191,4.5003829 A 7.4998313,7.4998313 0 0 0 5.00036,12.000214 7.4998313,7.4998313 0 0 0 12.500191,19.500045 7.4998313,7.4998313 0 0 0 20.000023,12.000214 7.4998313,7.4998313 0 0 0 12.500191,4.5003829 Z"/>
 <path style="fill:#946857" d="m 12.350195,7.2299179 c 0.929013,0.2198221 1.029812,1.4038465 1.777094,1.692193 0.997142,0.4050434 1.08218,-0.8629551 0.567356,-1.5334465"/>
 <path style="opacity:0.2" d="M 14.902126,4.5107119 C 13.855693,4.509462 12.721261,4.8156641 11.892727,5.1038087 10.321497,5.6598096 8.6202208,5.9670751 7.3471153,6.8768936 7.0095304,7.1220291 5.7937534,8.0960722 4.9877,9.4543533 2.7601351,13.39266 4.947015,17.789073 7.8276309,18.739259 10.994697,19.923674 14.383077,20.051062 18.196174,16.68122 17.867965,16.943888 17.270981,17.336855 16.366062,17.634875 14.209038,18.438758 10.39866,18.180535 7.8401731,16.775823 5.7818849,15.63726 5.9457345,13.960827 6.013,12.964563 6.080471,11.968299 6.8155762,9.7820993 9.564134,8.6244463 c 1.698221,-0.59962 3.695104,-1.0189526 5.364759,-0.4814046 1.255953,0.2833791 2.158731,0.7963807 3.353089,1.2181026 0,0 -0.0098,0.02047 0.320135,0.102231 C 20.924898,9.8312713 21,7.7869087 21,7.7869087 L 20.933771,7.4144495 20.731564,6.9090894 20.635201,6.6925713 20.577078,6.5752339 c 0,0 -0.01675,-0.1477356 -0.04023,-0.2978453 C 20.49236,6.8384775 20.268934,7.0005979 20.268934,7.0005979 18.463606,6.6583136 18.140929,5.3869977 16.237427,4.7336384 15.835119,4.575419 15.377777,4.5112794 14.902126,4.5107119 Z M 18.196174,16.68122 c 0.210278,-0.168286 0.312151,-0.283274 0.312182,-0.283197 -0.104424,0.09757 -0.208392,0.191473 -0.312182,0.283197 z"/>
 <path style="fill:#946857" d="m 10.682849,1.0004616 c -5.2314866,-0.00469 -9.5419473,4.3035042 -9.6794693,9.7380614 -0.139869,5.52082 4.0790475,10.113239 9.4226393,10.257582 2.60331,0.07027 4.992417,-0.928299 6.775238,-2.609316 0.190362,-0.158824 0.293939,-0.257807 0.293939,-0.257807 0,0 1.933308,-2.029095 2.037064,-3.704018 -0.493308,0.814979 -0.945818,1.630977 -2.17378,2.235301 -0.56316,0.260866 -1.079346,0.482814 -1.599573,0.658189 -0.03331,0.0085 -0.06675,0.01634 -0.100584,0.02441 -0.246407,0.05882 -0.504663,0.108215 -0.775373,0.145504 -0.03281,0.0045 -0.06649,0.0085 -0.09961,0.0127 -0.280761,0.03561 -0.570659,0.06153 -0.870098,0.07422 -0.03082,0.0013 -0.06277,9e-4 -0.09375,0.002 -0.295407,0.01011 -0.597535,0.0092 -0.904277,-0.003 -0.02002,-8e-4 -0.03952,-8.6e-5 -0.05957,-10e-4 -0.311939,-0.01383 -0.62827,-0.04212 -0.945291,-0.0791 -0.04524,-0.0053 -0.09047,-0.0089 -0.135739,-0.01465 -0.308599,-0.03921 -0.617075,-0.09102 -0.923808,-0.15234 -0.04955,-0.0099 -0.09901,-0.01979 -0.148434,-0.03027 C 10.402207,17.233228 10.104734,17.158465 9.812745,17.0733 9.719125,17.04599 9.625861,17.01787 9.533454,16.98834 9.463614,16.96603 9.39353,16.94455 9.324475,16.92096 9.225795,16.88725 9.129387,16.85082 9.032489,16.814516 c -0.079031,-0.0296 -0.1586161,-0.0585 -0.2363229,-0.08984 -0.090048,-0.03632 -0.177528,-0.0756 -0.265619,-0.114255 -0.074656,-0.03276 -0.1505021,-0.0642 -0.223628,-0.09863 C 8.1477162,16.436812 7.9912177,16.358407 7.8401401,16.275459 7.7199058,16.208951 7.6054779,16.139315 7.4963979,16.066479 7.2458935,15.899213 7.0272614,15.714855 6.8313733,15.52157 5.8115498,14.480849 5.8588982,13.257155 5.912449,12.464021 5.97992,11.467757 6.8151762,9.2819303 9.563734,8.1242758 c 1.698221,-0.59962 3.695459,-1.0189826 5.365114,-0.4814347 1.255953,0.2833792 2.159082,0.6954404 3.35344,1.1171624 0,0 -0.0097,0.020784 0.320305,0.1025367 2.322781,0.3679451 2.062049,-1.5455997 2.062049,-1.5455997 L 20.482576,6.8691371 v 0 c -0.04027,-0.2359757 0.136478,-0.4220805 0.136478,-0.4220805 0,0 -0.143173,-0.5276617 -0.119043,-0.8763853 0.02446,-0.3485632 0.0047,-0.7953576 -0.07129,-1.4325848 C 20.352721,3.500814 19.934456,3.247004 19.798854,3.1479485 19.662943,3.0490715 19.029654,2.5716467 18.42291,2.3335137 17.815794,2.0953775 17.202191,1.9193895 16.446391,2.0259034 c -0.08392,0.011866 -0.163349,0.024698 -0.246087,0.037109 -0.01465,-0.00465 -0.02614,-0.00995 -0.04199,-0.014648 -0.288205,-0.085591 -0.492074,-0.5519799 -0.727522,-0.5463388 -0.01802,4.321e-4 -0.03624,0.00197 -0.05469,0.0039 -0.01816,0.0019 -0.037,0.00433 -0.05566,0.00781 h -10e-4 c -0.01903,0.00355 -0.03795,0.00834 -0.05762,0.013672 -0.02147,0.00583 -0.04215,0.013459 -0.06152,0.022461 -0.137787,0.064055 -0.222196,0.3051313 -0.274387,0.4632596 -1.208907,-0.6110508 -2.560607,-0.9701385 -3.994051,-1.0087663 -0.08349,-0.00226 -0.165979,-0.00383 -0.249018,-0.00391 z M 7.8469755,6.3763171 C 7.5093906,6.6214526 6.1833579,7.5961027 5.3773045,8.9543841 6.1833579,7.5961037 6.5694387,7.2325369 7.8469755,6.3763171 Z M 16.366315,17.134864 c -0.177469,0.06614 -0.370112,0.122111 -0.568346,0.173824 0.198122,-0.05168 0.390996,-0.10773 0.568346,-0.173824 z"/>
 <path style="fill:#d3c9c6" d="M 14.902126,4.0104519 C 13.855693,4.009202 12.721261,4.3154041 11.892727,4.6035487 10.321497,5.1595496 8.6202208,5.4668151 7.3471153,6.3766336 7.0095304,6.6217691 5.7937534,7.5958122 4.9877,8.9540936 2.7601351,12.892401 4.9470148,17.288814 7.8276309,18.239 c 3.1670661,1.184415 6.5554461,1.311803 10.3685431,-2.058039 -0.328209,0.262668 -0.925193,0.655635 -1.830112,0.953655 -2.157024,0.803883 -5.967402,0.54566 -8.5258889,-0.859052 C 5.7818849,15.137001 5.9457345,13.460568 6.013,12.464304 6.080471,11.46804 6.8155762,9.2818403 9.564134,8.1241863 c 1.698221,-0.59962 3.695104,-1.0189526 5.364759,-0.4814046 1.255953,0.2833791 2.158731,0.7963807 3.353089,1.2181027 0,0 -0.0098,0.020474 0.320135,0.1022318 C 20.924898,9.3310123 21,7.2866487 21,7.2866487 L 20.933771,6.9141895 20.731564,6.4088294 20.635201,6.1923113 20.577078,6.0749739 c 0,0 -0.01675,-0.1477356 -0.04023,-0.2978453 C 20.49236,6.3382175 20.268934,6.5003379 20.268934,6.5003379 18.463606,6.1580536 18.140929,4.8867377 16.237427,4.2333784 15.835119,4.075159 15.377777,4.0110194 14.902126,4.0104519 Z m 3.294048,12.1705091 c 0.210278,-0.168286 0.312151,-0.283274 0.312182,-0.283197 -0.104424,0.09757 -0.208392,0.191473 -0.312182,0.283197 z"/>
 <path style="opacity:0.2" d="m 15.891834,2.7339346 c 0.03327,-7.05e-4 0.07732,0.038248 0.108279,0.053581 -0.207555,0.1373203 -0.148762,0.3696713 -0.371862,0.4995783 -0.185871,0.1265383 -0.421108,0.1850044 -0.628116,0.213311 0.09314,-0.2812131 -0.01732,-0.8168489 0.270556,-0.9796124 0.195281,-0.1004216 0.233857,0.2038753 0.472229,0.1907333 1.3e-4,-1.786e-4 0.101868,0.023251 0.148914,0.022409 z"/>
 <path style="fill:#3f3f3f" d="m 15.891834,2.2339461 c 0.03327,-7.05e-4 0.07732,0.038248 0.108279,0.053581 -0.207555,0.1373203 -0.148762,0.3696713 -0.371862,0.4995783 -0.185871,0.1265383 -0.421108,0.1850044 -0.628116,0.213311 0.09314,-0.2812131 -0.01732,-0.8168489 0.270556,-0.9796124 0.195281,-0.1004216 0.233857,0.2038753 0.472229,0.1907333 1.3e-4,-1.786e-4 0.101868,0.023251 0.148914,0.022409 z"/>
 <path style="opacity:0.2;fill:#ffffff" d="m 10.682849,1.0004616 c -5.2314866,-0.00469 -9.5419473,4.3035042 -9.6794693,9.7380614 -0.00425,0.167615 -0.0037,0.334184 0,0.499989 0.137522,-5.4345575 4.4479827,-9.7427524 9.6794693,-9.7380616 0.08304,7.5e-5 0.165526,0.00164 0.249018,0.0039 1.433444,0.038628 2.785144,0.3977155 3.994051,1.0087663 0.05219,-0.1581283 0.136621,-0.3988258 0.274408,-0.4628802 0.01937,-0.009 0.04005,-0.016634 0.06152,-0.022461 0.01966,-0.00533 0.03858,-0.010122 0.05762,-0.013672 h 10e-4 c 0.01867,-0.00348 0.03751,-0.00591 0.05566,-0.00781 0.01844,-0.00193 0.03667,-0.00347 0.05469,-0.0039 0.235448,-0.00564 0.439317,0.4612721 0.727522,0.5468627 0.01585,0.0047 0.02734,0.01 0.04199,0.014648 0.08274,-0.01241 0.162169,-0.025243 0.246087,-0.037109 0.7558,-0.1065138 1.369403,0.069474 1.976519,0.3076103 0.606744,0.238133 1.240033,0.7155577 1.375945,0.8144348 0.135602,0.099056 0.553865,0.3519628 0.629869,0.989236 0.03718,0.3118129 0.05962,0.576178 0.07129,0.8075988 0.01368,-0.331738 -0.0031,-0.7358215 -0.07129,-1.3075876 C 20.35272,3.5008138 19.934457,3.2469298 19.798855,3.1478742 19.662943,3.0489972 19.029654,2.5715725 18.42291,2.3334394 17.815794,2.0953033 17.202191,1.9193153 16.446391,2.0258291 c -0.08392,0.011866 -0.163349,0.024698 -0.246087,0.037109 -0.01465,-0.00465 -0.02614,-0.00995 -0.04199,-0.014648 -0.288206,-0.085591 -0.492075,-0.5515273 -0.727523,-0.5458862 -0.01802,4.321e-4 -0.03624,0.00197 -0.05469,0.0039 -0.01816,0.0019 -0.03699,0.00433 -0.05566,0.00781 h -0.001 c -0.01903,0.00355 -0.03795,0.00834 -0.05761,0.013672 -0.02147,0.00583 -0.04215,0.013459 -0.06152,0.022461 -0.137764,0.064055 -0.222194,0.304753 -0.274385,0.4628813 -1.208907,-0.6110508 -2.560607,-0.9701385 -3.994051,-1.0087663 -0.08349,-0.00226 -0.165979,-0.00383 -0.249018,-0.00391 z m 9.818139,4.6170836 c 0.0038,0.1621269 0.0081,0.3231047 -0.001,0.4531148 -0.01047,0.1513871 0.01285,0.333107 0.04004,0.4941294 0.03783,-0.070429 0.0791,-0.1181613 0.0791,-0.1181613 0,0 -0.128578,-0.4817412 -0.118162,-0.8290829 z m 0.05273,1.4267259 c -0.04728,0.076103 -0.09564,0.1825179 -0.07129,0.3251877 l 0.163082,0.399405 c 0.03857,-0.2517633 0.01953,-0.4521383 0.01953,-0.4521383 z"/>
 <path style="fill:#946857" d="m 4.8274175,8.6491717 -0.010835,0.08922 c 0.7264331,-0.0368 2.5171771,0.1206062 3.1776157,0.5838276 0.5120325,0.345675 0.9732836,0.8615517 1.6297828,0.628162 0.44883,-0.157404 0.473768,-0.423946 0.301722,-0.862232 C 9.780417,8.7317839 9.540256,8.1164089 9.24328,7.8804738 8.8154635,7.5419214 7.7094799,7.6601437 7.6539917,6.9521676 7.6122926,6.6175157 7.8130147,6.2439083 8,6.0000003 c -3.45e-4,0 -3.0320562,0.6602584 -3.1725825,2.6491714 z"/>
 <path style="opacity:0.2" d="m 20.268934,7.0003266 c 0,0 -0.08641,0.2724609 -0.492138,0.2963698 -0.405572,0.024224 -0.335426,0.5882463 0.01626,0.9040317 0.351847,0.3159469 0.627011,0.4025949 0.861521,0.1601394 0.234193,-0.2419741 0.80939,-0.6434445 -0.385643,-1.3605409 z"/>
 <path style="fill:#3f3f3f" d="m 20.268934,6.5003379 c 0,0 -0.08641,0.2724608 -0.492138,0.2963698 -0.405572,0.024224 -0.335426,0.5882463 0.01626,0.9040316 0.351847,0.3159469 0.627011,0.402595 0.861521,0.1601394 0.234193,-0.241974 0.80939,-0.6434445 -0.385643,-1.3605408 z"/>
 <path style="opacity:0.2" d="M 18.341534,6.2141603 C 18.086453,6.5396365 17.615208,6.5956627 17.288747,6.340078 16.962288,6.0831827 16.90382,5.6117374 17.159086,5.2860732 c 0.254529,-0.3249147 0.726143,-0.3811284 1.052419,-0.1251687 0.326643,0.2565212 0.384374,0.7277786 0.130029,1.0532558 z"/>
 <path style="fill:#3f3f3f" d="M 18.341534,5.7141715 C 18.086453,6.0396477 17.615208,6.095674 17.288747,5.8400892 16.962288,5.583194 16.90382,5.1117486 17.159086,4.7860844 17.413615,4.4611697 17.885229,4.404956 18.211505,4.6609157 c 0.326643,0.2565213 0.384374,0.7277787 0.130029,1.0532558 z"/>
 <path style="opacity:0.2" d="m 20.801792,6.2679206 c -0.02101,0.2755113 -0.196343,0.4823226 -0.391371,0.4614451 -0.194865,-0.020339 -0.33572,-0.2598082 -0.314213,-0.5358544 0.02118,-0.2751538 0.196177,-0.4817867 0.391043,-0.4612662 0.194864,0.021055 0.335718,0.2603432 0.314541,0.5356755 z"/>
 <path style="fill:#3f3f3f" d="m 20.801792,5.7679318 c -0.02101,0.2755113 -0.196343,0.4823227 -0.391371,0.4614452 -0.194865,-0.02034 -0.33572,-0.2598082 -0.314213,-0.5358545 0.02118,-0.2751538 0.196177,-0.4817866 0.391043,-0.4612661 0.194864,0.021054 0.335718,0.2603431 0.314541,0.5356754 z"/>
</svg>
