<?xml version="1.0" encoding="UTF-8" standalone="no"?>
<svg
   xmlns:dc="http://purl.org/dc/elements/1.1/"
   xmlns:cc="http://creativecommons.org/ns#"
   xmlns:rdf="http://www.w3.org/1999/02/22-rdf-syntax-ns#"
   xmlns:svg="http://www.w3.org/2000/svg"
   xmlns="http://www.w3.org/2000/svg"
   xmlns:sodipodi="http://sodipodi.sourceforge.net/DTD/sodipodi-0.dtd"
   xmlns:inkscape="http://www.inkscape.org/namespaces/inkscape"
   version="1.1"
   width="2048"
   height="2048"
   viewBox="0 0 2048 2048"
   id="root"
   sodipodi:docname="dolphin-symbolic.svg"
   inkscape:version="0.92.1 r15371">
  <metadata
     id="metadata17">
    <rdf:RDF>
      <cc:Work
         rdf:about="">
        <dc:format>image/svg+xml</dc:format>
        <dc:type
           rdf:resource="http://purl.org/dc/dcmitype/StillImage" />
        <dc:title></dc:title>
      </cc:Work>
    </rdf:RDF>
  </metadata>
  <defs
     id="defs15" />
  <sodipodi:namedview
     pagecolor="#ffffff"
     bordercolor="#666666"
     borderopacity="1"
     objecttolerance="10"
     gridtolerance="10"
     guidetolerance="10"
     inkscape:pageopacity="0"
     inkscape:pageshadow="2"
     inkscape:window-width="1502"
     inkscape:window-height="865"
     id="namedview13"
     showgrid="false"
     inkscape:zoom="0.32666016"
     inkscape:cx="1024"
     inkscape:cy="1024"
     inkscape:window-x="112"
     inkscape:window-y="60"
     inkscape:window-maximized="0"
     inkscape:current-layer="layer1" />
  <linearGradient
     id="g"
     gradientUnits="userSpaceOnUse"
     x1="0"
     y1="506"
     x2="0"
     y2="1588">
    <stop
       offset="0"
       stop-color="#46D4FF"
       id="stop2" />
    <stop
       offset="1"
       stop-color="#1792FF"
       id="stop4" />
  </linearGradient>
  <g
     inkscape:groupmode="layer"
     id="layer2"
     inkscape:label="Threedee"
     style="display:inline">
    <path
       d="m 1455.7441,460.01562 c -17.1368,-0.10978 -35.6744,0.36235 -55.541,1.63672 -119.328,7.655 -226.5449,77.43124 -246.5879,87.24024 -64.265,-18.396 -137.5897,-34.61897 -223.34372,-49.16797 -296.609,-50.323 -547.63851,29.89717 -673.60351,117.32617 -165.101001,114.592 -160.533532,221.36739 -174.144532,274.77539 -8.431,33.085 -83.40776612,94.2636 -82.50976612,137.18363 v 45.1797 l 0.02929687,0.031 C -0.02003497,1031.3384 74.169919,970.65603 82.554688,937.75391 c 13.610999,-53.408 9.043531,-160.18535 174.144532,-274.77735 125.965,-87.429 376.99451,-167.64722 673.60351,-117.32422 85.75397,14.549 159.07877,30.77197 223.34377,49.16797 20.043,-9.809 127.2599,-79.58719 246.5879,-87.24219 127.0626,-8.15064 199.6957,16.49305 199.791,16.5254 v -45.91993 l -0.031,0.002 0.018,-0.004 c 0,0 -51.7287,-17.57317 -144.2676,-18.16602 z m 144.2813,64.09766 c 0,5.1e-4 -0.2888,0.0619 -0.3379,0.0723 l 0.3379,-0.002 z m -176.2227,104.49219 c -18.7855,60.74712 45.6239,114.9293 61.1114,126.88672 0.774,0.585 1.5473,1.16986 2.3203,1.75586 0.622,0.459 0.9629,0.69922 0.9629,0.69922 l -0.049,-0.01 c 42.849,32.582 84.0033,68.881 127.4493,109.5 C 1750.6697,993.7215 1831.739,1118.057 1926,1292 v 0.01 c 78.321,144.53 121.8105,295.8867 121.8105,295.8867 0,0 -0.6004,-1.2013 -1.0625,-2.1289 l 1.2891,2.748 v -46.2637 l -1.2363,-3.6035 v 0.01 c -6.813,-22.834 -49.284,-160.5384 -120.832,-292.5684 -94.261,-173.943 -175.3304,-298.27847 -310.4024,-424.56247 -43.445,-40.618 -84.5993,-76.91605 -127.4473,-109.49805 h 0.047 c 0,0 -0.3288,-0.23087 -0.9258,-0.67187 -0.801,-0.607 -1.6013,-1.21436 -2.4023,-1.81836 -11.4687,-8.86105 -49.372,-40.57544 -61.0352,-80.92578 z M 610.33789,842.4082 c -124.97798,-0.0929 -219.63466,11.34707 -256.875,16.66211 -16.4399,28.74628 -17.37109,48.59375 -17.37109,48.59375 0,0 156.76548,-27.319 369.52148,-17 194.644,9.44 335.12652,51.13635 506.22852,135.52734 208.386,102.78 331.8652,256.7598 331.8652,256.7598 0,0 -1.0535,-0.8431 -2.5761,-2.045 l 2.8652,2.3711 v -45.9687 l -0.3574,-0.332 c -1.596,-1.983 -124.8002,-154.6039 -331.8282,-256.71293 -171.102,-84.392 -311.58447,-126.08734 -506.22847,-135.52734 -33.24312,-1.61235 -65.11933,-2.30574 -95.24414,-2.32813 z m 255.94336,166.8281 c 2.034,34.702 11.59673,95.3888 51.55273,135.3418 58.712,58.708 154.14652,98.3574 154.14652,98.3574 0,0 -0.4147,0 -0.5059,0 l 0.5274,0.078 v -45.9687 l -0.088,-0.035 h 0.035 c 0,0 -95.43447,-39.6494 -154.14647,-98.3574 -25.08788,-25.086 -38.1878,-58.3433 -44.9707,-88.2129 -2.07203,-0.3916 -4.10928,-0.7723 -6.19141,-1.168 z"
       id="path7"
       inkscape:connector-curvature="0"
       style="opacity:0.6" />
  </g>
  <g
     inkscape:groupmode="layer"
     id="layer1"
     inkscape:label="Symbol"
     style="display:inline">
    <path
       style="opacity:1"
       d="m 1926,1292 c -94.261,-173.943 -175.33,-298.279 -310.402,-424.563 -43.446,-40.619 -84.601,-76.917 -127.45,-109.499 l 0.049,0.01 c 0,0 -0.34,-0.24 -0.962,-0.699 -0.773,-0.586 -1.547,-1.172 -2.321,-1.757 -15.904,-12.279 -83.413,-69.084 -59.428,-131.801 26.32,-68.822 174.556,-99.582 174.556,-99.582 0,0 -72.661,-24.686 -199.807,-16.53 -119.328,7.655 -226.545,77.432 -246.588,87.241 -64.265,-18.396 -137.59,-34.619 -223.344,-49.168 C 633.694,495.329 382.664,575.548 256.699,662.977 91.598,777.569 96.166,884.345 82.555,937.753 72.761,976.185 -26.834,1052.525 7.021,1094.12 c 21.122,25.95 91.411,-9.289 148.113,-32.611 59.615,-24.521 64.209,-37.859 227.133,-62.168 74.956,-11.184 153.843,-14.393 212.575,-14.886 22.855,48.26 79.68,147.46 178.133,195.042 132.934,64.246 299.005,63.438 299.005,63.438 0,0 -95.434,-39.648 -154.146,-98.356 -39.956,-39.953 -49.518,-100.64 -51.552,-135.342 l 0.359,0.033 c 96.193,18.278 180.215,31.468 381.156,108.425 175.815,67.334 295.91,165.256 295.91,165.256 0,0 -123.479,-153.98 -331.865,-256.76 C 1040.74,941.8 900.257,900.105 705.613,890.665 492.857,880.346 336.091,907.664 336.091,907.664 c 0,0 4.385,-94.537 165.003,-169.88 139.666,-65.516 359.388,-76.481 611.558,-12.15 356.261,90.886 477.766,245.646 631.012,405.573 163.107,170.22 304.146,456.685 304.146,456.685 0,0 -43.489,-151.357 -121.81,-295.887 z"
       id="path9"
       inkscape:connector-curvature="0" />
  </g>
</svg>
