<svg xmlns:dc="http://purl.org/dc/elements/1.1/" xmlns:cc="http://creativecommons.org/ns#" xmlns:rdf="http://www.w3.org/1999/02/22-rdf-syntax-ns#" xmlns:svg="http://www.w3.org/2000/svg" xmlns="http://www.w3.org/2000/svg" xmlns:sodipodi="http://sodipodi.sourceforge.net/DTD/sodipodi-0.dtd" xmlns:inkscape="http://www.inkscape.org/namespaces/inkscape" width="256" height="256" id="svg2" version="1.1" inkscape:version="0.48.4 r9939">
  <metadata id="metadata12">
    <rdf:RDF>
      <cc:Work rdf:about="">
        <dc:format>image/svg+xml</dc:format>
        <dc:type rdf:resource="http://purl.org/dc/dcmitype/StillImage"/>
      </cc:Work>
    </rdf:RDF>
  </metadata>
  <defs id="defs10"/>
  <path style="fill:#ffffff;stroke:none;fill-opacity:0" d="M0 0L0 256L256 256L256 0L0 0z" id="path4"/>
  <path style="fill:#4d9500;stroke:none" d="m 34 20 2 2 0 1 0 1 -2 0 0 1 0 1 2 0 -2 10 0 1 0 1 0 12 0 1 0 1 c 6.1 10.3 0.2 29.5 1 41 0.3 4.8 1.8 13.1 -1 17 l 0 1 0 1 2 0 -2 8 0 1 0 1 0 6 0 1 0 1 c 3.1 4 3.1 12 0 16 l 0 1 0 1 0 4 0 1 0 1 2 0 0 1 0 1 -2 0 0 1 0 1 0 6 0 1 0 1 c 2.5 3.3 2.5 6.7 0 10 l 0 1 0 1 c 3.4 4.4 3.4 15.6 0 20 l 0 1 0 1 c 3.4 4.5 3.6 25.3 0 30 l 0 1 0 1 6.3 16.6 L 56 254 l 1 0 1 0 c 4.4 -3.4 15.6 -3.4 20 0 l 1 0 1 0 c 3.5 -2.6 6.2 -1.4 10 0 l 12 -18 c 0.2 -3.3 -0.8 -2.9 0 -5 l 0 -1 0 -4 c -1.3 -8.8 -0.3 -11.8 -0.7 -17.6 L 101.5 204 c 0 -1.8 -0.7 -2.4 -0.7 -5.5 l -0.4 -2.9 C 100.3 193.7 99.9 193.4 100 192 l 0 -1 0 -1 0.1 -8.5 0.4 -10 0.7 -5.1 c 0.2 -1.5 -0.1 -1.3 0.6 -2.4 4.6 -1.9 5.1 -0.7 10.1 -0.1 0.3 -1.3 0.7 -1.7 2 -2 7 0 15.3 0.2 21.5 0.2 3.8 -1.2 5.7 2.2 9.4 -0.7 l 2.9 1.1 4.5 1.3 1.7 5.5 0.2 20.9 -0.5 12.5 c 0.3 18 -1.1 16.9 -0.2 33.2 -0.4 2.6 0.5 2.5 -0.5 6.5 1.6 2.2 0.9 2.9 0.9 5.5 l 4.8 3.3 3.8 1.5 L 168 254 c 3.3 -2.2 6.4 -1.9 10.8 -0.9 l 2.4 -1.6 L 208 254 l 1 0 1 0 9.7 -11 2.3 -17 0 -1 0 -1 -1.1 -14 0.2 -41 1 -11 0 -1 0 -1 c -2.7 -3.6 -2.7 -8.4 0 -12 l 0 -1 0 -1 c -2.5 -3.3 -2.5 -6.7 0 -10 l 0 -1 0 -1 0 -16 0 -1 0 -1 -2 0 2 -8 0 -1 0 -1 c -2.2 -2.9 -2.2 -5.1 0 -8 l 0 -1 0 -1 c -2.7 -3.6 -2.7 -8.4 0 -12 l 0 -1 0 -1 c -4.1 -5.3 -4.1 -26.7 0 -32 l 0 -1 0 -1 c -2.5 -3.4 -2.6 -14.6 0 -18 l 0 -1 0 -1 c -6.8 -8.5 -4.1 -13.5 -16 -18 -4.6 5.1 -22.6 6 -28 2 l -1 0 -1 0 -22 6 0 1 0 1 2 0 -4 6 0 1 0 1 c 2.2 2.9 2.2 5.1 0 8 l 0 1 0 1 0 6 0 1 0 1 c 2.2 2.9 2.2 5.1 0 8 l 0 1 0 1 2 0 0 1 0 1 -2 0 0 1 0 1 2 0 0 1 0 1 -2 0 0 1 0 1 2 0 0 1 0 1 -2 0 0 1 0 1 c 3 3.9 1.6 7.7 0 12 0.8 4.2 1.9 6.9 1.2 10.8 L 152 89 l 0 1 c 3 6.2 -7.3 7.4 -11.3 6.1 -6.5 1.2 -13 1.7 -17.8 0.3 -3.3 1 -9.9 -2.6 -15.5 0.7 C 99 96.3 101.1 85 101.1 76 c -0 -4.6 -0.3 -6.4 0.4 -11.6 0 -0.7 0 -1.6 0 -2.3 -1.1 -12.2 0.3 -15.7 -0.1 -22.8 l -0.2 -5.9 c 0.2 -5.7 -0.5 -10.5 -1.2 -17.7 L 96.2 8.5 92 6 86 6 85 6 84 6 C 80.6 8.6 71.6 8.1 68 6 L 67 6 45 7.2 34 20 m 70 142 0 2 2 0 0 -2 z" id="path6" inkscape:connector-curvature="0"/>
  <path id="path11918" d="m 45 6.7 -7 14 c 6 -0.9 7.8 -8.6 7 -14 m 21 0 -3 4 -5 -2 0 2 4 0 0 6 0 1 -2 3 c 3.4 -0.3 4.9 -0.7 6 -4 5.5 -0.4 9.5 -3 12 -8 l -10 -2 -2 0 m 18 0 0 4 4 0 0 4 1 0 c 0.7 -4.1 -1.4 -6.2 -5 -8 m 6 0 c 2.5 6.6 0.5 9.8 -2 16 l 2 -2 1 0 1 0 0 2 1 0 1 0 c 2.5 -4.9 0.8 -13 -4 -16 m 116 0 -8 4 0 2 8 2 4 -4 -4 -4 m -156 2 0 2 2 0 0 -2 -2 0 m 24 0 0 4 -2 0 0 -4 2 0 m 86 2 -2 10 2 0 c 0.4 -5.7 2.9 -7.1 8 -9 l 0 -2 -1 -1 -7 2 m 16 -2 -2 4 2 -2 1 0 1 0 4 1 0 -1 -4 -2 -2 0 m 6 8 -4 -2 2 4 0 1 0 1 -2 4 8 -14 4 0 c -4.5 -2.6 -7.2 1.9 -8 6 m -112 -2 -6 -2 2 4 -4 -4 2 -3 6 5 m -31 -4 -1 2 1 -2 m 7 0 0 4 2 0 0 -4 -2 0 m 8 0 -2 4 4 -4 -2 0 m 10 0 1 1 -1 -1 m 16 0 4 4 -4 -4 m 16 0 2 2 -2 -2 m 61 0 -1 2 2 0 -1 -2 m 13 0 0 2 2 0 0 -2 -2 0 m 22 0 0 1 4 1 -4 -2 m 14 0 0 2 -2 -2 2 0 m 6 0 0 12 2 -2 1 0 1 0 2 2 -4 -12 -2 0 m 4 0 0 2 2 0 -2 -2 m -160 4 0 2 2 0 -2 -2 m 22 0 0 2 2 0 0 -2 -2 0 m 76 0 0 2 2 0 0 -2 -2 0 m 20 0 0 4 2 0 0 -4 -2 0 m 12 1 0 1 4 2 1 0 1 0 4 -2 -10 -1 m 12 -1 0 2 2 0 0 -2 -2 0 m -130 4 0 4 5 -4 2 2 1 -2 1 0 -1 6 3 -2 3 2 -2 -2 0 -1 0 -1 4 -4 -16 2 m 19 -2 -1 2 1 -2 m 77 0 -2 6 4 -6 -2 0 m 6 0 -2 2 c 2 3.6 4.1 4 8 3 l 0 -1 -4 0 0 -4 -2 0 m 36 0 0 2 2 0 -2 -2 m -156 2 0 2 4 0 0 -2 -4 0 m 105 0 -1 2 2 0 -1 -2 m 40 0 -1 2 2 0 -1 -2 m -161 2 0 2 2 0 0 -2 -2 0 m 50 0 0 2 2 0 0 -2 -2 0 m 14 0 2 4 -2 -4 m 87 0 -1 2 1 -2 m 5 0 0 2 2 0 0 -2 -2 0 m 12 2 0 4 4 0 0 -4 4 0 -8 0 m -144 0 -4 4 -1 0 -1 0 0 -2 -4 2 0 1 2 5 2 0 0 -4 4 2 4 -8 -2 0 m 14 0 0 2 2 0 0 -2 -2 0 m 80 0 0 2 2 0 0 -2 -2 0 m 14 0 0 2 2 0 0 -2 -2 0 m 21 0 c -2.7 3.1 -3.4 5.6 1 7 l -1 -7 m 7 0 -2 4 6 -2 -4 -2 m -160 2 0 2 2 0 0 -2 -2 0 m 29 0 -1 2 1 -2 m 5 0 0 2 2 0 0 -2 -2 0 m 16 0 -1 10 7 1 6 -3 0 -6 -2 0 0 4 c -5.1 0.7 -8.4 2.1 -10 -4 l 4 0 -4 -2 m 78 0 0 2 2 0 0 -2 -2 0 m 58 0 0 2 2 0 0 -2 -2 0 m -186 5 3 6 -1 -3 0 -1 0 -1 2 -2 1 0 1 0 0 2 1 0 1 0 2 -4 -10 3 m 31 -3 -8 4 -3 4 4 0 1 0 1 0 5 -8 m 7 0 0 8 -4 3 6 -3 0 -1 0 -1 -2 -4 4 0 -4 -2 m 28 0 -2 9 2 0 0 -9 m 54 2 0 2 4 0 -2 6 3 -7 3 4 4 -4 -12 -1 m 12.7 -1.7 0.7 0.3 -0.7 -0.3 m 9.3 -0.3 0 3 2 0 0 -3 -2 0 m 28 7 8 -4 c -3.4 -5.2 -7.3 -0.4 -8 4 m 10 -7 2 2 0 1 0 1 c -1.8 1.6 -1.8 2.4 0 4 l 0 1 0 1 -4 6 6 -2 -2 -3 4 -3 0 4 c 2.8 -4.9 -0.6 -11.2 -6 -12 m -24 1 0 2 2 -2 -2 0 m 4 0 -2 4 4 -4 -2 0 m 24 3 -2 4 2 -4 m -48 1 -2 4 c 2.6 -0.6 3.4 -1.6 2 -4 m -130 1 0 3 12 6 -4 -9 -2 0 -1 3 -5 -3 m 38 0 0 5 2 0 0 -5 -2 0 m 74 0 0 2 2 0 0 -2 -2 0 m 25 1 -1 4 1 -4 m 22 0 -1 2 2 0 -1 -2 m 5 14 2 0 0 -8 4 2 2 -8 c -6.4 2 -8 7.9 -8 14 m -114 -10 4 4 3 -7 -7 3 m -30 -2 4 4 -4 -4 m 4 0 2 2 0 -2 -2 0 m 95 0 -3 5 3 3 1 0 2 -4 0 -1 0 -1 -3 -2 m 21 0 0 4 -4 0 0 1 8 3 2 -8 -6 0 m 8 0 2 6 c 5.5 1.6 4.9 7 6 12 l 2 0 -2 -8 4 0 0 -1 -4 -2 c 2.2 -3.3 1.4 -5.1 -2 -7 l 0 4 -2 0 0 -4 -4 0 m -14 8 0 -7 c -4.6 1.5 -3.9 5 0 7 m -139 -6 0 2 3 0 0 -2 -3 0 m 130 0 -1 1 4 3 -3 -4 m -125 2 2 8 3 -3 1 5 4 -2 0 8 2 0 c -0 -8.1 -3.7 -14.2 -12 -16 m 45 0 3 4 -3 -4 m 67 1 0 2 2 0 0 -2 -2 0 m -119 1 0 2 2 0 0 -2 -2 0 m 23 0 0 2 2 0 -2 -2 m 22 0 2 4 -2 -4 m -18 9 -4 2 0 1 4 0 -2 8 2 0 c 1.1 -5.1 0.4 -10.4 6 -12 l 2 -6 -4 0 0 4 -2 0 0 -4 c -3.4 1.9 -4.2 3.7 -2 7 m 10 -7 2 8 8 -3 0 -1 -4 0 0 -4 -6 0 m 26 0 -2 2 0 1 0 1 2 4 4 0 -3 -2 1 -6 -2 0 m 66 0 0 4 4 -4 -4 0 m 6 0 0 2 2 0 0 -2 -2 0 m -86 1 2 2 -2 5 c 3.9 -2 4.6 -5.5 0 -7 m 74 0 3 3 -3 -3 m 58 0 0 2 4 0 0 -2 -4 0 m 6 0 0 2 2 0 0 -2 -2 0 m -181 1 -4 3 5 3 -2 -2 0 -1 0 -1 1 -2 m 51 0 -2 4 4 -3 -2 -1 m 82 0 0 2 2 0 0 -2 -2 0 m 6 0 2 2 -2 -2 m 7 0 -1 2 2 0 -1 -2 m 5 0 0 4 2 0 0 -4 -2 0 m 22 1 0 2 2 0 -2 -2 m -46 2 0 1 4 0 2 4 -2 -6 -4 1 m 10 -1 4 9 -6 3 c 8.6 -1.3 8.8 -7.9 2 -12 m -22 1 -0.8 1.7 2.8 2.3 0 -4 -2 0 m 5.3 1.7 0.3 0.7 -0.3 -0.7 m 50.7 -0.7 1 4 3 -1 0 -2 -4 -1 m 8 1 0 2 2 0 0 -2 -2 0 m -132 1 0 2 2 0 0 -2 -2 0 m 4 0 4 4 0 -4 -4 0 m 94 0 -2 10 3 -2 3 2 10 0 c -3.3 -4.7 -8 -3.4 -13 -3 l 3 -1 0 -6 -4 0 m -26 1 0 4 1 0 -1 -4 m -123 1 0 2 3 0 0 -2 -3 0 m 29 0 0 4 2 0 0 -4 -2 0 m 6 0 0 2 2 0 -2 -2 m 7 0 -1 2 1 -2 m 5 0 0 2 2 0 0 -2 -2 0 m 70 0.3 2 0 0.7 -1.9 -2.7 -0.4 m 62 3 0 2 2 0 0 -2 -2 0 m 4 0 0 2 2 0 0 -2 -2 0 m -178 1 -2 4 4 -4 -2 0 m 39 0 c -5.5 5 -5.4 10.7 3 12 l -6 -3 3 -9 m 7 0 -2 6 2 -4 4 0 -4 -2 m 11 0 -1 4 4 -4 -3 0 m 66 0 -1 2 2 0 -1 -2 m 3 0 0 4 2 0 0 -4 -2 0 m 34 0 4 6 -4 -6 m 4 0 0 2 2 0 0 -2 -2 0 m -160 2 0 4 1 0 1 -4 -2 0 m 115.3 0.7 0.3 0.7 -0.3 -0.7 m 50.7 -0.7 0 4 2 0 0 -4 -2 0 m -58 1 0 2.9 c 0.2 1.7 1.9 0.3 2.6 0.7 l -0.3 -2.9 -2.3 -0.7 m -84 1 3 7 c -5 -0.4 -9.7 -1.7 -13 3 l 10 0 3 -2 3 2 -2 -10 -4 0 m 32 0 0 2 2 0 0 -2 -2 0 m 56.4 5.6 -4.4 -2.6 2 8 4 -2 c -0.9 3.6 -2.4 5.1 -6 6 l 2 10 c 6.8 -0 11.7 -1.3 12 -9 l -4 0 c 1.6 4.5 0.4 5.6 -4 7 l 1 -5 -3 1 0 -4 3 0 0.2 -9.8 m 54.8 -4.2 2 2 0 -2 -2 0 m 4 0 -2 8 -4 -2 -2 11 0 1 0 1 2 3 c -5.1 -0.3 -7.6 -1.7 -8 -7 l -2 0 2 6 0 1 -6 0 0 2 6 0 0 4 8 -4 2 10 -6 -1 0 1 6 4 -6 6 14 0 -2 -6 -4 2 -2 -11 0 -4 4 -1 0 6 2 0 -2 -6 0 -1 0 -1 4 -2 0 -1 0 -1 -2 -6 -4 0 4 -12 -2 0 m -180 1 -2 4 6 2 -2 -6 -2 0 m 59 0 -1 6 1 0 5 0 -5 -6 m 79 0 2 2 -2 -2 m 14 0 4 4 -4 -4 m -140 2 0 2 2 0 0 -2 -2 0 m 4 0 -2 6 4 -6 -2 0 m 34 0 0 4 2 0 0 -4 -2 0 m 4 0 0 2 2 0 -2 -2 m 82 0 2 3 -4 7 4 -2 0 4 2 0 0 -4 6 2 -12 8 0 1 12 -3 -2 3 0 1 0 1 2 4 4 0 -4 -4 0 -6 12 -7 -5 -6 -5 2 2 8 -6 -5 0 -1 2 -4 -4 4 -4 0 2 -2 0 -1 -4 -3 m 12 0 0 2 2 0 -2 -2 m -142 2 0 4 2 0 0 -4 -2 0 m 158 0 4 4 -4 -4 m -40 2 2 2 0 -2 -2 0 m 30 0 -4 4 2 -4 2 0 m -156 2 0 2 2 0 0 -2 -2 0 m 28 0 -2 4 4 -4 -2 0 m 15 0 -1 2 1 -2 m 18 0 0 2 5 0 0 -2 -5 0 m -28 2 -1 2 2 0 -1 -2 m 12 0 -1 6 -4 0 -4 -4 2 4 0 1 -6 5 2 -8 -5 -2 -5 6 12 7 -2 4 -8 -3 6 3 0 4 2 0 2 -7 10 2 0 1 -2 2 4 -2 0 -1 -12 -8 6 -2 0 4 2 0 0 -4 4 2 -4 -7 1 -3 m -29 2 -2 4 4 -4 -2 0 m 47 0 c -1.7 4 -2.3 6.8 1 10 l -2 -2 0 -1 0 -1 1 -6 m 119 1 2 6 -4 -2 -4 6 4 -6 0 -1 0 -1 -2 -2 4 0 m -183 1 1 8 6 2 -2 -8 -4 2 -1 -4 m 30 0 3 4 -3 -4 m 27 0 0 2 2 -2 -2 0 m 78 0 -2 3 1 1 3 -4 -2 0 m 26 2 0 2 4 0 0 -2 -4 0 m -8 4 0 1 6 8 -2 -3 3 -4 -3 -1 0 -1 2 -2 -6 2 m -10 1 0 2 2 0 0 -2 -2 0 m 27 0 1 2 -2 0 1 -2 m -153 1 -2 6 0 1 c 3.6 -1.4 3.9 -3.3 4 -7 l -2 0 m 32 0 3 4 1 -1 -4 -3 m 6 0 c 0.1 3.7 0.4 5.6 4 7 l 0 2 -4 4 7 -7 c -4.3 -0.5 -4.3 -2.3 -3 -6 l -4 0 m 75 1 -1 2 2 0 -1 -2 m 4 0 -1 2 1 -2 m 5 0 0 2 2 0 0 -2 -2 0 m -138 1 0 3 2 0 0 -3 -2 0 m 8 0 0 2 2 0 0 -2 -2 0 m 12 0 0 2 4 0 0 -2 -4 0 m 41 0 3 4 -6 8 c 2.8 2.9 4.8 4.8 4 9 l 4 -2 -2 6 6 2 c -0.2 -6.9 -4.2 -8.9 -8 -14 l 4 0 c -0.8 -5.4 0.1 -10 -5 -13 m -57 1 0 2 2 0 0 -2 -2 0 m 118 0 0 6 1 0 3 -6 -4 0 m 13 0 -3 4 -1 0 -1 0 -2 -2 -2 12 c 5.3 0.6 10.3 3.2 14 -2 l -5 2 -5 -2 -2 -8 c 3.5 1.7 7.6 0.7 7 -4 m 7 0 -2 11 6 5 -4 -2 -1 0 -5 10 c 4 -1.4 6.7 -2.8 8 -7 l 5 0 0 5 -7 4 4 2 1 0 7 -6 -4 2 c 1 -5.2 2.4 -9 -4 -10 l 0 -2 6 -1 0 -1 c -4.8 -1.1 -8.7 -3 -10 -8 l 4 0 -4 -2 m -26 2 c 2.4 7.5 -5.8 9.9 -12 8 l -1 0 -1 0 0 2 -3 -2 c -4.4 2.1 -12.6 1.2 -16.5 -0.9 l -10.5 0.9 -1 6 3 0 0 4 2 0 2 -8 8 2 -4 5 -2 7 2 4 4 0 0 4 2 0 -4 -10 6 0 -4 -8 4 -4 10 6 -6 0 2 4 -4 0 0 2 6 2 0 -6 6 4 -2 -4 12 -5 -4 -3 6 4 2 -2 1 0 1 0 4 4 -6 -6 2 -10 -4 0 m -117 2 3 7 c -3.1 3 -3.4 5 -2 9 l 3 -2 -1 6 4 0 -2 -6 2 -4 -6 2 6 -4 0 -8 -2 0 0 6 -2 0 -3 -6 m 11 0 0 2 2 0 -2 -2 m 29 0 0 2 3 0 0 -2 -3 0 m 127 0 4 4 0 -4 -4 0 m -152 9 -4 2 0 1 4 0 -2 8 2 0 c 1.1 -5.1 0.4 -10.4 6 -12 l 2 -6 -4 0 0 4 -2 0 0 -4 c -3.4 1.9 -4.2 3.7 -2 7 m 10 -7 2 8 8 -3 0 -1 -4 0 0 -4 -6 0 m 158 0 0 2 4 0 0 -2 -4 0 m -146 1 2 2 -2 5 c 3.9 -2 4.6 -5.5 0 -7 m 12 5 4 -5 -4 5 m -3 -4 -3 4 3 -4 m 18 0 1 2 -2 0 1 -2 m 59 0 1 4 1 0 0 -4 -2 0 m 40 4 4 -4 -4 4 m -154 -2 0 2 2 0 0 -2 -2 0 m 44 2 0 2 2 0 0 -2 -2 0 m 47 0 4 4 3 -4 1 0 1 0 2 3 -1 1 -1 -2 -7 6 -1 -1 2 -1 -3 -6 m 19 0 0 2 -2 0 0 -2 2 0 m 35 0 -1 1 6 3 0 -4 -3 2 -2 -2 m -16 1 -1 1 1 -1 m -97 1 0 2 2 0 0 -2 -2 0 m 8 0 0 2 2 0 0 -2 -2 0 m 2 8 2 -4 4 0 0 4 c 3.6 -1.9 4 -4.2 3 -8 -4.7 1.5 -7.8 3 -9 8 m 114 -8 4 4 0 -4 -4 0 m -22 1 1 1 -3 2 2 -3 m -124 1 0 4 2 0 0 -4 -2 0 m 6 0 0 2 2 0 -2 -2 m 7 0 -1 2 1 -2 m 5 0 0 2 2 0 0 -2 -2 0 m 8 0 -6 8 2 -4 6 -4 -2 0 m 13 0 1 2 -2 0 1 -2 m 84 0 1 1 -1 -1 m -108 2 c -5.5 5 -5.4 10.7 3 12 l -6 -3 3 -9 m 57 0 0 2 2 0 0 -2 -2 0 m 38 0 c 1.8 4.6 4.1 7.1 0 11 l 0 1 c 7.6 -1.6 5.9 -8.9 0 -12 m 50 0 -4 8 c 4.7 -0.8 5.7 -3.5 6 -8 l -2 0 m -100 2 0 2 2 0 0 -2 -2 0 m 78 0 0 2 2 0 -2 -2 m 28 0 0 4 1 0 -1 -4 m -162 2 3 7 c -5 -0.4 -9.7 -1.7 -13 3 l 10 0 3 -2 3 2 -2 -10 -4 0 m 38 0 0 2 2 0 0 -2 -2 0 m 14 0 0 2 2 0 0 -2 -2 0 m 32 6 2 2 1 0 1 0 4 -8 -8 6 m 10 -6 0 2 2 0 0 -2 -2 0 m 4 0 0 2 8 2 c -1.8 -3.5 -4.2 -3.9 -8 -4 m -122 2 0 2 2 0 0 -2 -2 0 m 56 0 0 4 4 -4 -4 0 m 58 0 0 2 -2 -2 2 0 m 58 0 -4 2 0 6 6 -8 -2 0 m -162 2 -2 6 4 -6 -2 0 m 34 0 4 5 -2 -3 4 0 0 -2 -6 0 m 18 0 -2 12 9 2 1 -1 -2 -5 c -3.6 -0.9 -5.1 -2.4 -6 -6 l 4 0 -4 -2 m 12 0 -2 12 12 3 0 -1 c -5.2 -1.3 -7.6 -4.7 -8 -10 l 4 2 -6 -6 m 44 0 -2 6 6 -2 -2 -4 -2 0 m 68 0 0 2 2 0 0 -2 -2 0 m -185 2 -1 3 6 1 0 -2 -5 -2 m 79 0 2 2 0 -2 -2 0 m 46 0 2 2 0 -2 -2 0 m 32 4 6 -3 c -3.3 -0.5 -4.3 0.2 -6 3 m 14 0 8 -3 -1 -1 -1 2 -2 -2 -4 4 m -68 2 4 -4 -4 4 m 34 -4 -2 3 4 1 0 -4 -2 0 m 8 0 0 2 2 0 -2 -2 m 6 0 4 2 -4 -2 m 30 0 0 2 2 0 0 -2 -2 0 m -162 2 -2 4 4 -4 -2 0 m 15 0 -1 2 1 -2 m 14 0 -3 4 3 -4 m 79 0 0 2 6 2 -6 -4 m 34 0 -2 6 2 0 2 -6 -2 0 m 24 0 -2 9 1 1 c 2.8 -3.2 3.7 -6.5 1 -10 m -186 2 0 2 2 0 0 -2 -2 0 m 25 0 -1 2 2 0 -1 -2 m 12 0 -3 5 2 5 6 -1 -6 -5 0 -1 0 -1 1 -2 m 61 0 0 2 2 0 0 -2 -2 0 m 58 0 0 2 2 0 0 -2 -2 0 m 12 3 1 1 3 -4 -4 3 m -166 3 3 -2 3 2 2 -4 c -3.8 0.1 -6.2 0.5 -8 4 m 19 -4 -3 6 c 2.7 -1.4 4.1 -2.9 3 -6 m 7 0 2 6 -6 -2 3 7 1 0 0 -4 3 0 1 -6 -4 -1 m 78 0 6 3 -6 -3 m 16 4 4 -4 -4 4 m 22 -4 0 4 4 -4 -4 0 m 6 0 c 0.8 4.9 3.1 7.2 8 8 l 0 -1 -7 -4 3 -3 -4 0 m 28 0 2 4 1 0 1 0 2 -4 -6 0 m -166 2 0 2 2 0 0 -2 -2 0 m 33 0 -1 4 10 3 0 -1 -9 -6 m 49 4 4 -4 -4 4 m 47 -4 -1 2 2 0 -1 -2 m -71 2 0 2 2 0 0 -2 -2 0 m 4 0 6 12 -4 2 -1 0 -1 0 -2 -2 -2 6 8 0 1 0 7 -6 -4 2 c 1.6 -8 -0.7 -10.4 -8 -14 m 39 0 -1 1 6 3 0 -4 -3 2 -2 -2 m -113 2 2 8 4 0 c 0.6 4.5 2 6.9 -2 10 l 0 -4 -2 0 -2 4 0 1 0 1 c 6 3.4 6.3 5.3 6 12 l 4 -2 -2 -3 4 -3 0 4 14 -2 c -4.1 -7.4 -14.6 -1.4 -16 -10 l 4 2 0 -5 -1 -1 -1 2 c -4.7 -3.6 -7.1 -9.8 0 -12 l 0 -1 -8 3 0 -4 -4 0 m 64 4 4 -4 -4 4 m 21 -4 -1 1 6 3 0 -4 -3 2 -2 -2 m 39 0 3 4 2 -2 1 0 6 2 0 -1 -6 -3 -1 0 -1 0 0 2 -1 0 -1 0 -2 -2 m 12 0 0 1 4 1 -4 -2 m 6 0 4 4 -4 -4 m 36 0 4 6 0 1 0 1 -2 6 c -5.2 0.2 -11.9 3 -8 9 l -2 3 8 -2 0 12 4 4 -3 -2 -1 0 -6 4 4 4 6 -4 -2 4 4 -3 -2 -3 5 2 1 -3 -6 -1 4 -6 -6 2 0 -10 c 5.7 -0.8 6.2 -5.2 8 -10 l -6 0 0 -6 4 0 2 -6 -6 2 0 -4 -4 0 m -162 2 0 4 2 0 0 -4 -2 0 m 17 0 0 3 1 0 -1 -3 m 11 0 4 6 c -6.1 -0.7 -9.7 -3.1 -12 4 l 6 -2 -2 4 4 -2 0 6 6 -1 0 -1 -4 0 c 1.3 -4.3 3.7 -5.5 8 -6 l -10 -8 m 26 0 2 4 -6 0 3 4 1 0 5 -3 c -0.7 -3.4 -1.6 -4.4 -5 -5 m 26 0 4 4 0 -4 -4 0 m 14 0 -4 12 8 -6 -4 2 2 -8 -2 0 m 38 0 0 2 2 0 0 -2 -2 0 m 12 0 0 2 2 0 0 -2 -2 0 m 6 0 0 2 2 0 0 -2 -2 0 m -154 2 -2 6 2 0 2 -6 -2 0 m 43 0 -1 1 6 3 0 -4 -3 2 -2 -2 m 65 0 0 2 2 0 0 -2 -2 0 m 18 0 2 2 0 -2 -2 0 m 32 0 0 2 2 -2 -2 0 m 0 6 -1 0 -1 0 -2 -2 -2 8 9 -4 1 -7 1 0 1 5 2 0 c -1.1 -6.6 -5.6 -5 -8 0 m -142 -4 2 2 0 1 0 1 -2 4 3 0 1 -8 -4 0 m 64 0 0 2 2 0 0 -2 -2 0 m 24 0 0 2 2 0 -2 -2 m 10 0 -2 2 0 1 0 1 c 3.5 4.6 -3.2 15.1 6 13 l 0 -1 -4 0 c 1.4 -5.7 4.3 -7.8 10 -8 l 2 8 6 -1 0 -1 -4 0 11 -10 9 4 0 -4 -4 0 2 -4 -4 4 -4 -2 -2 4 c -4.5 -2.3 -7.2 -1.1 -8 4 l -5 -6 -1 0 c -4 2.6 -5.5 -1.1 -8 -4 m 6 0 0 2 2 0 0 -2 -2 0 m 4 0 0 2 2 0 0 -2 -2 0 m -120 2 0 2 4 0 0 -2 -4 0 m 8.7 0.3 0.7 0.3 -0.7 -0.3 m 63.3 -0.3 0 2 2 0 -2 -2 m 12 0 4 2 -4 -2 m 39 0 -1 2 2 0 -1 -2 m -93 2 0 2 -2 0 2 -2 m 70 0 0 2 2 0 0 -2 -2 0 m 40 0 0 2 -2 0 0 -2 2 0 m -107 2 -1 2 2 0 -1 -2 m 3 0 2 3 -2 5 c 4.3 -2.3 4.2 -5.7 0 -8 m 36 0 0 2 2 0 0 -2 -2 0 m 12 0 -4 11 1 1 c 4.3 -3.5 5 -6.6 5 -12 l -2 0 m -40 2 -2 4 4 -4 -2 0 m 6 0 0 2 2 0 0 -2 -2 0 m 50 4 6 -3 c -3.3 -0.5 -4.4 0.1 -6 3 m 34 -4 0 2 2 0 0 -2 -2 0 m 32 0 0 2 -2 0 0 -2 2 0 m -150 1 2 3 0 1 0 1 -2 4 -4 0 0 12 2 0 0 -6 6 -1 0 -1 -4 0 c 1.3 -4.4 3.5 -5.7 8 -6 l 0 -4 -8 -3 m 56 9 -2 0 c -0.5 -7 -4.8 -4.1 -10 -6 l 2 6 8 2 1 0 1 0 3 0 1 -1 -2 -3 4 0 0 -2 -4 0 0 -2 4 0 c -4.6 -3.1 -5.8 2.1 -6 6 m 16 -8 c 0.6 4.1 2.3 6.2 6 8 l 0 -6 4 0 0 -1 -10 -1 m 39 0 -1 2 2 0 -1 -2 m 3 0 2 3 -2 5 c 4.3 -2.3 4.2 -5.7 0 -8 m 32 0 0 2 -2 -2 2 0 m -170 2 0 4 -2 0 0 -4 2 0 m 18 0 0 2 2 0 0 -2 -2 0 m 42 0 2 10 -6 2 0 -6 -2 0 0 8 c -3.6 -0.9 -5.1 -2.4 -6 -6 l 4 0 0 -1 -4 -1 -2 11 6 1 -8 6 4 4 6 -6 1 0 1 0 0 2 1 0 1 0 2 -2 0 -1 0 -1 -2 0 c 4 -5.5 6.5 -4.5 12 -2 l 0 -5 -1 -1 -2 2 c -1.5 -4 -2.3 -5.8 1 -9 l -8 -5 m 61 0 -1 2 2 0 -1 -2 m 3 0 2 3 -2 5 c 4.3 -2.3 4.2 -5.7 0 -8 m 20 4 8 0 2 -4 -3 2 c -3.1 -2.3 -5.3 -1.3 -7 2 m 26 0 4 -2 -2 4 -1 0 -1 0 0 -2 -1 0 -1 0 0 2 -1 0 -1 0 -1 -6 5 4 m -122 -2 0 2 2 0 0 -2 -2 0 m 4 0 4 2 -4 -2 m 58 0 0 2 2 0 0 -2 -2 0 m -100 2 0 2 -2 0 0 -2 2 0 m 25 0 -1 2 2 0 -1 -2 m 4 0 -1 2 1 -2 m 5 0 0 2 2 0 0 -2 -2 0 m 20 0 0 2 -2 0 0 -2 2 0 m 90 0 c 1.6 7.3 -0.1 10.8 6 0 l -6 0 m -162 2 0 2 2 0 0 -2 -2 0 m 35 0 -1 2 2 0 -1 -2 m 3 0 2 3 -2 5 c 4.3 -2.3 4.2 -5.7 0 -8 m 11 0 -5 6 c 2.9 -0.9 5.5 -2.7 5 -6 m 45 0 2 3 -10 5 2 -4 -2 2 -1 0 -1 0 c -1.8 -3.5 -4.2 -3.9 -8 -4 l 4 8 15 0 3 0 1 0 1 0 2 -2 0 -1 0 -1 -2 -2 6 0 -2 4 6 2 c -1.4 -8.8 -9.5 -7.2 -16 -10 m 56 0 0 2 2 0 0 -2 -2 0 m 4 0 2 6 4 0 -6 -6 m -36 2 0 1 8 7 -6 0 2 -3 -3 -1 -0.7 3.3 c 2.5 -0.9 5.1 -1 7.7 -1.3 l 2 -4 -10 -2 m 19 0 -1 2 2 0 -1 -2 m 4 0 -1 2 1 -2 m 5 0 0 2 2 0 0 -2 -2 0 m 38 0 0 4 4 0 -4 -4 m -184 2 4 2 -4 -2 m 22 0 0 4 1 0 1 -4 -2 0 m 76 0 2 4 -3 -2 -3 2 4 -4 m 14 0 2 2 0 -2 -2 0 m 4 0 0 2 2 0 0 -2 -2 0 m 10 0 0 2 -2 0 0 -2 2 0 m 6 0 0 2 2 0 0 -2 -2 0 m 11 0 -3 4 -1 0 -1 0 -2 -2 -2 12 c 5.3 0.6 10.3 3.2 14 -2 l -5 2 -5 -2 -2 -8 c 3.5 1.7 7.6 0.7 7 -4 m 7 0 -2 11 6 5 -4 -2 -1 0 -5 10 13 -6 0 5 -7 3 4 2 1 0 7 -6 -4 2 c 1 -5.2 2.4 -9 -4 -10 l 0 -2 6 -1 0 -1 c -4.8 -1.1 -8.7 -3 -10 -8 l 4 0 -4 -2 m -134 2 0 2 2 0 0 -2 -2 0 m -14 2 4 6 -6 -2 2 6 4 -2 8 6 c -0.8 -4.8 -3 -7.6 -8 -6 l 4 -6 -8 -2 m 22 0 0 4 2 0 0 -4 -2 0 m 19 0 -1 2 2 0 -1 -2 m 18 8 -1 -1 2 -7 c 5.3 1.8 2.2 5.4 -1 8 m -28 -6 -1 2 1 -2 m 5 0 0 2 2 0 0 -2 -2 0 m 32 0 0 2 2 0 0 -2 -2 0 m -56 2 0 2 4 0 0 -2 -4 0 m 21 0 -5 6 c 2.9 -0.9 5.5 -2.7 5 -6 m 7 0 -2 6 2 -4 4 0 -4 -2 m 8 0 0 4 2 0 0 -4 -2 0 m 120 4 4 -4 -4 4 m -48 -2 0 2 2 0 0 -2 -2 0 m -100 2 4 4 -4 -4 m 4 0 2 2 0 -2 -2 0 m 135 0 -1 1 6 3 0 -4 -3 2 -2 -2 m -16 1 -1 1 1 -1 m 32 0 -2 2 2 -2 m -47 1 0 4 2 0 0 -4 -2 0 m 20 1 1 1 -3 2 2 -3 m -148 1 0 2 2 0 0 -2 -2 0 m 45 0 3 4 -3 -4 m 13 0 0 2 2 0 0 -2 -2 0 m 61 0 -0.1 1.4 2 0 -1.4 -2.4 m 2.5 1 2 8 0 1 0 1 -6 2 0 2 c 2.8 -0.4 9.6 -2.6 6 -6 l 0 -1 0 -1 c 2.4 -2.4 0.5 -4.4 -2 -6 m 25 0 1 1 -1 -1 m -143 2 2 8 4 -2 0 8 2 0 c -0 -6.1 -1.6 -12 -8 -14 m 12 0 0 2 2 0 -2 -2 m 22 0 2 4 -2 -4 m 96 0 c 1.8 4.6 4.1 7.1 0 11 l 0 1 c 7.6 -1.6 5.9 -8.9 0 -12 m 32 0 0 2 2 0 0 -2 -2 0 m 16 0 0 2 2 0 0 -2 -2 0 m -184 2 0 2 2 0 0 -2 -2 0 m 22 7 -4 2 0 1 4 0 -2 8 2 0 c 1.1 -5.1 0.4 -10.4 6 -12 l 2 -6 -4 0 0 4 -2 0 0 -4 c -3.4 1.9 -4.2 3.7 -2 7 m 10 -7 2 8 8 -3 0 -1 -4 0 0 -4 -6 0 m 24 2 0 1 0 1 2 4 8 2 -6 -8 4 2 c -2 -3.8 -4.3 -3.9 -8 -2 m 108 -2 0 2 2 0 -2 -2 m 12 2 0 1 2 5 6 2 0 -4 3 2 -1 -6 -6 4 2 -6 -6 2 m -132 -1 2 2 -2 5 c 3.9 -2 4.6 -5.5 0 -7 m 8 1 -2 4 4 -3 -2 -1 m 80 0 4 4 -4 -4 m 40 0 0 2 2 0 0 -2 -2 0 m -167 2 -3 2 4 4 -2 -2 0 -1 0 -1 1 -2 m 159 0 0 2 2 0 0 -2 -2 0 m -34 2 4 4 -4 -4 m 44 0 0 6 2 0 0 -6 -2 0 m -126 2 0 2 2 0 0 -2 -2 0 m 4 0 4 4 0 -4 -4 0 m 112 4 6 -3 c -3.3 -0.5 -4.3 0.2 -6 3 m -138 -2 0 4 2 0 0 -4 -2 0 m 6 0 0 2 2 0 -2 -2 m 7 0 -1 2 1 -2 m 5 0 0 2 2 0 0 -2 -2 0 m 82 0 0 2 2 0 0 -2 -2 0 m 18 0 -2 3 4 1 0 -4 -2 0 m 8 0 0 2 2 0 -2 -2 m 6 0 4 2 -4 -2 m 28 0 0 4 1 0 -1 -4 m -184 2 0 2 2 0 0 -2 -2 0 m 39 0 c -5.5 5 -5.4 10.7 3 12 l -6 -3 3 -9 m 7 0 -2 6 2 -4 4 0 -4 -2 m 86 0 0 2 6 2 -6 -4 m 34 0 -2 6 2 0 2 -6 -2 0 m -162 2 -2 4 4 -4 -2 0 m 52 0 c 2.3 4 5.8 4.2 8 0 l -8 0 m 66 0 0 4 4 -4 -4 0 m 38 0 0 2 2 0 0 -2 -2 0 m 16 0 2 4 4 -4 -6 0 m -148 2 3 7 c -5 -0.4 -9.7 -1.7 -13 3 l 10 0 3 -2 3 2 -2 -10 -4 0 m 91 0 -1 2 2 0 -1 -2 m 29 0 0 4 4 -4 -4 0 m 6 0 c 0.8 4.9 3.1 7.2 8 8 l 0 -1 -7 -4 3 -3 -4 0 m 18 0 2 2 0 -2 -2 0 m -108 2 0 2 2 0 0 -2 -2 0 m 81 0 -1 2 2 0 -1 -2 m 33 8 8 -7 c -4.8 -0.9 -7.3 2.4 -8 7 m -176 -6 -2 4 6 2 -2 -6 -2 0 m 8 0 0 2 2 0 0 -2 -2 0 m 4 0 -2 6 4 -6 -2 0 m 34 0 0 4 2 0 0 -4 -2 0 m 4 0 0 2 2 0 -2 -2 m 8 0 -4 2 0 2 10 2 -4 -6 -2 0 m 58 0 0 4 6 2 2 -4 -8 -2 m 11 0 -1 2 1 -2 m 55 0 0 2 -2 0 0 -2 2 0 m -52 2 -2 4 2 -2 1 0 1 0 6 2 0 -1 -6 -3 -2 0 m 8 0 0 1 4 1 -4 -2 m 6 0 4 4 -4 -4 m 24 2 0 2 2 0 0 -2 -2 0 m -146 2 -2 4 4 -4 -2 0 m 15 0 -1 2 1 -2 m 103 0 2 2 0 -2 -2 0 m -142 2 0 2 2 0 0 -2 -2 0 m 29 0 -1 2 2 0 -1 -2 m 12 0 -1 6 -4 0 -4 -4 2 4 0 1 -6 5 2 -8 -5 -2 -5 6 12 7 -2 5 2 0 0 -4 12 4 -12 -10 6 -2 0 4 2 0 0 -4 4 2 -4 -7 1 -3 m 17 4 8 -2 0 -2 c -3.8 0.1 -6.2 0.5 -8 4 m 60 -4 0 2 2 0 0 -2 -2 0 m 12 0 0 6 2 0 -2 -6 m 10 0 0 2 2 0 0 -2 -2 0 m 18 4 -4 -2 -2 4 -6 -2 2 4 -4 2 0 -4 -6 -2 -4 12 4 0 2 -8 c 7.9 6.7 1.3 5.8 -2 12 l 2 -2 c 2.7 2.4 3.3 4 0 6 l 6 14 -6 4 8 0 1 0 c 6.9 -3.2 6 4.7 -3 2 4.2 7.7 12.2 2.7 14 -4 l -2 -2 0 -1 -5 0 0 -5 -7 2 1 -6 -3 0 0 -1 2 -5 5 0 5 8 0 -4 8 0 0 -2 -10 0 c 3.1 -3.3 5.4 -5.1 10 -4 -2.3 -4.4 -6.4 -4.8 -11 -5 l -1 -5 6 -2 0 4 3 -4 1 0 2 8 2 0 2 -6 -4 2 0 -8 -4 0 2 -4 -4 4 m 24 -4 0 2 2 0 0 -2 -2 0 m -170 2 -2 4 4 -4 -2 0 m 110 0 0 6 2 0 0 -6 -2 0 m 21 0 -1 2 2 0 -1 -2 m 27 0 0 4 4 0 -4 -4 m 9 0 -1 4 1 -4 m -154 2 3 4 -3 -4 m 27 0 0 2 2 -2 -2 0 m 11 0 -1 4 -4 -2 6 8 -2 -2 0 -1 0 -1 1 -6 m 55 0 0 2 2 0 0 -2 -2 0 m 38 0 -8 6 0 -2 8 -4 m 4 0 0 2 -2 0 0 -2 2 0 m -161 2 1 8 6 2 -2 -8 -4 2 -1 -4 m 185 0 0 4 1 0 -1 -4 m -62.5 8.6 2.4 5.2 c 3.8 -3.6 -1.2 -6.3 -3.1 -10.7 m 59.2 0.9 4 4 -4 -4 m -168 2 -4 10 c 4.5 -2.2 5.9 -5.1 6 -10 l -2 0 m 32 0 3 4 1 -1 -4 -3 m 6 0 c 0.2 5.8 3 9.2 8 12 l -2 -3 2 -3 -3 2 -1 -8 -4 0 m 78 0 3 6 1 0 0 -6 -4 0 m -112 2 0 2 4 0 0 -2 -4 0 m 42 0 6 4 -6 -4 m 94 0 3 8 -1 1 -9 -7 7 -2 m 18 0 0 4 1 0 -1 -4 m -170 2 0 4 2 0 0 -4 -2 0 m 22 0 4 7 -6 1 0 2 4 2 1 0 1 0 5 -2 0 4 5 -2 0 -1 0 -1 0 -6 -14 -4 m 160 0 0 2 2 0 0 -2 -2 0 m -8 6 8 7 -5 -1 -1 6 -1 0 1 -8 -3 2 -3 -2 2 4 -4 1 0 1 8 6 c -3.3 0.5 -7.5 2.8 -4 6 l 0 1 0 1 -2 0 0 1 0 1 2 2 1 0 1 0 c 6.7 -6.7 18.1 -24.2 2 -28 l 2 -4 -4 4 m -158 -2 0 2 2 -2 -2 0 m 30 0 0 2 2 0 0 -2 -2 0 m 18 0 -4 2 2 7 -6 4 2 3 -2 -2 -6 8 8 1 -7 3 -9 -2 0 6 7 -4 5 4 c 3.6 -4.5 8.8 -7.6 6 -14 l 4 0 -1 -6 3 2 -2 -2 0 -1 0 -1 2 -2 -4 0 4 -6 -2 0 m 70 0 0 2 2 -2 -2 0 m 42 0 -1 1 1 -1 m 6 0 0 2 4 0 0 -2 -4 0 m -29 1 1 1 -1 -1 m -151 1 0 4 -4 0 3 4 5 -8 -4 0 m 118 0 -2.6 6.4 2.6 5.6 c -1.2 -1 -1.6 -0.3 -2 1 l 0 1 4.8 7 9.2 7 0 -4 8 2 c -1.9 -3.5 -4.1 -3.9 -8 -4 l 0 -4 -2 0 0 4 -6 -1 c 2.1 -1.8 6.3 -4.3 4 -7 l 0 -1 0 -1 2 -2 -4 2 0 -4 -6 -1 2 -7 -2 0 m -82 2 0 4 12 0 0 4 4 0 2 -6 -10 0 -8 -2 m 129 0 -3 4 3 -4 m -159 2 -4 2 -4 8 4 -2 0 4 -4 0 0 1 c 5.1 4.5 6.6 8.6 14 9 l -2 -2 0 -1 0 -1 c 3.1 -2.9 -0.6 -6.8 -2 -10 l -4 2 2 -8 2 2 1 0 1 0 6 -2 0 -2 -6 2 -1 0 -1 0 0 -2 -2 0 m 122 0 0 2 4 0 0 -2 -4 0 m -116 4 0 2 2 0 -2 -2 m 6 0 -2 10 2 0 0 -6 4 0 -2 -4 -2 0 m 118 0 -1 8 1 0 2 -8 -2 0 m -112 1 -4 9 0 1 0 1 4 4 -10 -2 0 4 4 2 1 0 1 0 4 -4 1 0 1 0 c 5 5.7 9.6 -1.3 11 -6 l 3 2 -2 -4 -4 2 0 -4 6 -4 -3 2 -13 -3 m 132 5 8 0 c -1.7 -4.2 -7.2 -5.1 -8 0 m -113 -2 -1 6 2 0 -1 -6 m 80 0 4 4 -5 2 2 -2 0 -1 0 -1 -1 -2 m 53 0 0 2 -2 0 0 -2 2 0 m -148 2 0 4 6 0 c -1.9 7.8 -6.9 5.6 -12 2 l 0 -1 0 -1 6 -4 m 92 0 0 2 -2 -2 2 0 m 28 0 0 4 -1 0 -1 -4 2 0 m 32 0 0 2 -2 0 0 -2 2 0 m -174 2 -2 2 0 -2 2 0 m 50 0 0 2 -2 0 0 -2 2 0 m 120 0 0 2 -2 -2 2 0 m -167 2 1 4 -4 0 1 -4 2 0 m 17 0 4 4 -4 -4 m 150 4 -6 0 1 -4 5 4 m -60 -2 0 2 2 0 0 -2 -2 0 m 14 2 0 2 -2 0 0 -2 2 0 m 26 3 0 1 10 0 0 -4 -10 3 m -120 -1 0 2 2 0 0 -2 -2 0 m 105 0 -1 4 z" style="fill:#1e5605;stroke:none" inkscape:connector-curvature="0"/>
  <path id="path15074" d="m 42.9 6.7 0 6 2 0 0 -6 -1.7 1.2 m 9.7 -1.2 0 2 4 0 0 -2 -4 0 m -16 6 5.2 1.9 -0.1 -4.3 -3.3 2.2 m 38.2 -3.9 4 4 -4 -4 m 8 0 0 2 2 0 0 -2 -2 0 m 8 0 0 4 c 5.8 0.5 3 -1 0 -4 m 90 6 6 -6 -6 6 m 26 -6 0 2 2 0 0 -2 -2 0 M 52.9 10.7 l 0 2 2 0 0 -2 -2 0 m 30 6 8 -6 -8 6 m 90 -6 0 2 2 0 0 -2 -2 0 m 24 0 0 2 2 0 0 -2 -2 0 m 18 0 0 2 2 0 0 -2 -2 0 m -152 2 0 2 2 0 0 -2 -2 0 m 144 0 3 3 -3 1 4 4 -2 -2 0 -1 0 -1 2 0 -4 -4 m -170 2 0 2 2 0 0 -2 -2 0 m 18 0 2 2 0 -2 -2 0 m 40 0 0 2 c 3.2 0.2 1.6 -2 0 -2 m 60 0 0 2 2 0 0 -2 -2 0 m 16 0 0 2 2 0 0 -2 -2 0 m 44 0 0 2 2 0 0 -2 -2 0 m -172 2 2 7 3 1 3 -6 -2 2 -6 -4 m 28 0 0 2 2 0 -2 -2 m 17 0 -1 2 2 0 -1 -2 m 77 0 0 2 2 0 0 -2 -2 0 m 21 0 -1 2 2 0 -1 -2 m 3 0 0 2 2 0 0 -2 -2 0 m 10 6 -2 -2 0 -1 0 -1 2 -2 c -3.5 2 -3.5 4 0 6 m -123 -4 -1 2 2 0 -1 -2 m 3 0 0 2 2 0 0 -2 -2 0 m 14 0 0 2 2 0 0 -2 -2 0 m -56 2 0 2 2 0 -2 -2 m 27 0 -1 2 2 0 -1 -2 m 3 0 0 2 2 0 0 -2 -2 0 m 18 0 3 4 1 -4 -4 0 m 76 0 0 2 2 0 0 -2 -2 0 m 54 0 0 2 2 0 0 -2 -2 0 m -142 2 3 4 1 -4 -4 0 m 94 0 0 2 2 0 0 -2 -2 0 m 7 0 -1 2 2 0 -1 -2 m 3 0 0 2 4 0 0 -2 -4 0 m 31 0 -1 2 2 0 -1 -2 m -21 2 0 2 2 0 0 -2 -2 0 m 9 0 -1 2 2 0 -1 -2 m 7 0 0 2 2 0 0 -2 -2 0 m -162 2 0 2 2 0 0 -2 -2 0 m 4 0 0 2 2 0 0 -2 -2 0 m 41 0 -1 2 2 0 -1 -2 m 103 4 4 -4 -4 4 m -152 -2 c 0.7 4.6 4.7 9.8 8 4 l -4 2 -4 -6 m 28 0 0 2 2 0 0 -2 -2 0 m 9 0 -1 2 2 0 -1 -2 m 5 4 4 -4 -4 4 m 16 -4 c -1.1 3.8 -1.7 5.9 2 8 l -2 -2 0 -1 0 -1 2 -4 -2 0 m 64 0 0 2 2 0 0 -2 -2 0 m 9 0 -1 2 2 0 -1 -2 m 13 6 4 -6 -4 6 m -134 0 2 -2 1 0 1 0 2 2 0 -4 -6 4 m 20 0 4 -4 -4 4 m 94 0 4 -4 -4 4 m 14 -4 0 2 2 0 0 -2 -2 0 m -116 6 4 -4 -4 4 m 96 0 4 -4 -4 4 m 32 -4 2 2 -2 -2 m 4 0 0 4 4 -4 -4 0 m -106 2 c -1.1 3.8 -1.7 5.9 2 8 l -2 -2 0 -1 0 -1 2 -4 -2 0 m 4 0 0 4 2 0 0 -4 -2 0 m 80 4 4 -4 -4 4 m 8 -4 0 2 2 -2 -2 0 m 22 0 c 2 3.5 4 3.5 6 0 l -6 0 m 16 0 2 2 0 -2 -2 0 m -176 6 0 2 c 4.1 -0.6 6.2 -2.3 8 -6 l -8 4 m 120 -4 0 2 4 0 0 -2 -4 0 m -97 2 -1 2 2 0 -1 -2 m 3 0 0 2 2 0 0 -2 -2 0 m 10 6 -2 -2 0 -1 0 -1 2 -2 c -3.5 2 -3.5 4 0 6 m 114 -6 0 2 2 0 0 -2 -2 0 m 18 0 0 2 2 0 0 -2 -2 0 m -160 2 4 4 -4 -4 m 44 0 0 4 4 0 -2 4 4 -4 -6 -4 m 66 0 0 2 2 0 0 -2 -2 0 m 4 0 0 2 4 0 0 -2 -4 0 m 10 0 0 2 2 -2 -2 0 m 9 0 -1 2 2 0 -1 -2 m 3 0 0 2 2 0 0 -2 -2 0 m 12 0 0 2 2 0 0 -2 -2 0 m 18 0 c -1.8 4.5 -0.2 7.7 4 10 l -2 -9 -2 -1 m -22 2 0 4 2 0 0 -4 -2 0 m -153 2 -1 2 2 0 -1 -2 m 17 0 0 2 2 0 0 -2 -2 0 m 100 0 4 4 -4 -4 m 10 0 0 2 2 0 0 -2 -2 0 m -82 1 1 1 -1 -1 m -20 1 0 2 2 0 0 -2 -2 0 m 9 0 -1 2 2 0 -1 -2 m 7 0 0 2 2 0 0 -2 -2 0 m 94 0 2 2 0 -2 -2 0 m 30 0 0 2 2 0 0 -2 -2 0 m -138 6 4 -4 -4 4 m 116 -4 0 2 2 0 0 -2 -2 0 m 8 0 0 2 2 0 0 -2 -2 0 m 8 0 0 2 2 0 0 -2 -2 0 m -140 8 4 -6 -4 6 m 128 -6 0 2 2 -2 -2 0 m -147 2 -1 2 2 0 -1 -2 m 3 4 4 -4 -4 4 m 54 -4 0 2 2 0 0 -2 -2 0 m 70 4 6 -4 -6 4 m 10 2 4 -6 -4 6 m 32 -5 0 1 4 0 -4 -1 m 8 -1 0 2 2 0 0 -2 -2 0 m -164 2 0 2 2 0 0 -2 -2 0 m 130 0 0 2 2 0 -2 -2 m 4 0 0 4 4 -4 -4 0 m -90 2 0 2 2 0 0 -2 -2 0 m 76 0 0 2 2 0 0 -2 -2 0 m 22 0 c 2 3.5 4 3.5 6 0 l -6 0 m 12 0 4 6 -4 -6 m 8 0 0 2 4 0 0 -2 -4 0 m -170 2 0 2 2 0 0 -2 -2 0 m 32 0 0 2 2 0 0 -2 -2 0 m -38 2 0 2 2 -2 -2 0 m 12 0 0 4 2 0 0 -4 -2 0 m 30 0 0 2 2 0 0 -2 -2 0 m 4 0 0 2 2 0 0 -2 -2 0 m 4 0 2 2 0 -2 -2 0 m 4 0 0 2 2 0 0 -2 -2 0 m 4 0 2 2 0 -2 -2 0 m 60 0 0 2 2 -2 -2 0 m 16 0 0 2 2 0 0 -2 -2 0 m 12 0 0 2 2 0 0 -2 -2 0 m 32 0 0 2 2 0 0 -2 -2 0 m -147 2 -1 2 2 0 -1 -2 m 3 0 0 2 2 0 0 -2 -2 0 m 118 0 0 2 2 0 0 -2 -2 0 m 12 0 0 2 2 0 0 -2 -2 0 m -162 2 0 2 2 -2 -2 0 m 4 0 0 2 2 0 0 -2 -2 0 m 34 0 0 2 2 0 0 -2 -2 0 m 95 0 -1 2 2 0 -1 -2 m 13 0 0 4 2 0 0 -4 -2 0 m 28 0 0 2 2 0 0 -2 -2 0 m -156 2 0 2 2 0 0 -2 -2 0 m 4 0 0 2 2 -2 -2 0 m 98 0 0 2 2 0 0 -2 -2 0 m 48 0 -2 6 2 -2 1 0 1 0 2 2 -4 -6 m -170 2 0 2 2 0 0 -2 -2 0 m 8 0 0 2 2 0 0 -2 -2 0 m 32 3 0 1 6 -4 -6 3 m 12 -3 0 2 2 0 0 -2 -2 0 m 6 0 0 2 2 0 0 -2 -2 0 m 80 0 0 2 2 0 0 -2 -2 0 m 4 0 0 2 2 0 0 -2 -2 0 m 18 0 3 3 -11 7 c 4 -1.4 15.2 -5.8 8 -10 m 18 0 0 2 2 0 0 -2 -2 0 m -174 2 0 2 2 0 0 -2 -2 0 m 14 0 0 2 2 0 0 -2 -2 0 m 6 0 0 2 2 0 0 -2 -2 0 m 8 0 2 2 0 -2 -2 0 m 98 4 4 -4 -4 4 m -119 -2 -1 6 2 0 -1 -6 m 39 6 -2 -2 0 -1 0 -1 2 -2 c -3.5 2 -3.5 4 0 6 m 6 -6 3 4 1 -1 -4 -3 m 62 4 8 -2 0 -2 c -3.9 0.1 -6.1 0.5 -8 4 m 18 -4 0 2 2 0 0 -2 -2 0 m 6 0 0 2 2 0 0 -2 -2 0 m 8 0 0 2 2 0 0 -2 -2 0 m 26 0 0 2 2 0 0 -2 -2 0 m -151 2 -1 2 2 0 -1 -2 m 3 0 0 2 2 0 0 -2 -2 0 m 10 6 -2 -2 0 -1 0 -1 2 -2 c -3.5 2 -3.5 4 0 6 m 126 -6 0 2 4 0 0 -2 -4 0 m -158 2 0 2 2 0 0 -2 -2 0 m 134 0 0 2 2 0 0 -2 -2 0 m -126 2 6 4 -6 -4 m 112 0 0 2 2 0 0 -2 -2 0 m 19 0 -1 2 2 0 -1 -2 m 15 0 0 2 2 -2 -2 0 m 16 0 0 2 2 0 0 -2 -2 0 m -166 2 0 2 2 0 0 -2 -2 0 m 37 0 -1 2 2 0 -1 -2 m 86 0 -1 2 2 0 -1 -2 m 3 0 0 2 2 0 0 -2 -2 0 m 30 0 0 2 2 0 -2 -2 m -140 2 0 2 2 0 0 -2 -2 0 m 9 0 -1 2 2 0 -1 -2 m 7 0 0 2 2 0 0 -2 -2 0 m 78 0 0 2 4 0 0 -2 -4 0 m 22 0 4 4 0 -4 -4 0 m 35 0 -1 2 2 0 -1 -2 m -171 2 4 8 4 -6 -4 2 -4 -4 m 22 4 4 -4 -4 4 m 144 -4 0 2 2 0 0 -2 -2 0 m -152 8 4 -6 -4 6 m 36 -6 0 2 2 0 -2 -2 m 100 0 0 6 2 0 0 -6 -2 0 m -22 2 0 2 2 0 0 -2 -2 0 m 9 0 -1 2 2 0 -1 -2 m 3 0 0 2 2 -2 -2 0 m 22 0 0 2 2 -2 -2 0 m -140 2 0 2 2 0 0 -2 -2 0 m 90 0 0 4 2 0 0 -4 -2 0 m 18 4 4 -4 -4 4 m 24 -4 0 2 4 0 0 -2 -4 0 m 18 0 0 4 2 0 0 -4 -2 0 m -178 2 0 2 2 0 0 -2 -2 0 m 50 0 0 2 2 0 0 -2 -2 0 m 7 0 -1 2 2 0 -1 -2 m 65 4 4 -4 -4 4 m 6 0 4 -4 -4 4 m 24 -4 -4 6 6 -2 -2 -4 m 14 2 4 -1 -4 1 m -162 0 0 4 2 0 0 -4 -2 0 m 34 0 0 2 2 0 0 -2 -2 0 m -24 2 c -1.1 3.2 -1 4.3 2 6 l 0 -6 -2 0 m 28 0 0 2 2 0 0 -2 -2 0 m 4 0 0 2 2 0 0 -2 -2 0 m 6 4 4 -4 -4 4 m 24 -4 0 2 2 0 0 -2 -2 0 m 92 0 0 2 2 0 0 -2 -2 0 m 4 0 0 2 2 -2 -2 0 m -141 2 -1 2 2 0 -1 -2 m 3 0 0 2 2 0 0 -2 -2 0 m 28 0 0 2 2 0 0 -2 -2 0 m 30 0 0 2 2 0 0 -2 -2 0 m 14 0 0 2 2 -2 -2 0 m 18 0 4 4 -4 -4 m 34 4 -4 -2 c 0.6 4 1.9 5.6 6 5 l -2 -3 4 -4 -4 4 m -148 8 -4 -6 0 -1 0 -1 2 -2 c -5.1 2.9 -2.3 7.7 2 10 m 30 -10 0 2 2 0 0 -2 -2 0 m 30 0 -2 4 4 -4 -2 0 m 4 0 0 2 2 0 0 -2 -2 0 m 92 0 0 2 2 0 0 -2 -2 0 m 8 0 -6 8 c 4.9 -0.8 7 -3.2 8 -8 l -2 0 m -154 2 0 2 2 0 0 -2 -2 0 m 4 0 0 2 2 -2 -2 0 m 34 0 0 2 2 0 0 -2 -2 0 m 26 0 0 2 2 0 0 -2 -2 0 m 14 0 2 2 0 -2 -2 0 m 8 0 0 2 4 0 0 -2 -4 0 m 8 0 0 2 4 0 0 -2 -4 0 m 16 0 0 2 2 -2 -2 0 m 18 4 4 -4 -4 4 m -148 -2 0 2 2 0 0 -2 -2 0 m 40 3 4 3 2 -6 -6 3 m 13 -3 -1 1 4 3 -3 -4 m 10 0 -1 2 2 0 -1 -2 m 39 0 2 2 0 -2 -2 0 m 20 0 0 2 2 0 0 -2 -2 0 m 4 0 2 2 0 -2 -2 0 m 15 0 -1 2 2 0 -1 -2 m -127 2 3 6 3 -6 -2 2 -1 0 -1 0 -2 -2 m 10 0 0 2 2 0 0 -2 -2 0 m 8 0 -1 6 3 -6 -2 0 m 39 0 -1 4 4 0 -3 -4 m 5 0 0 2 2 0 0 -2 -2 0 m 12 0 0 2 2 0 0 -2 -2 0 m 8 0 0 8 2 0 0 -8 -2 0 m 68 0 0 2 2 -2 -2 0 m 12 4 4 -4 -4 4 m -116 -2 4 4 0 -4 -4 0 m 22 0 0 2 2 -2 -2 0 m 30 0 0 2 2 0 0 -2 -2 0 m 4 0 3 4 1 -1 -4 -3 m 10 0 0 2 2 0 0 -2 -2 0 m -124 2 2 2 0 -2 -2 0 m 46 0 0 2 2 0 0 -2 -2 0 m 28 0 0 2 4 0 0 -2 -4 0 m 10 0 0 2 2 -2 -2 0 m 36 0 0 2 2 0 0 -2 -2 0 m 32 6 c 2.4 -7.1 -6.1 -3.5 0 0 m 8 -6 0 2 2 0 0 -2 -2 0 m 10 0 0 2 2 0 0 -2 -2 0 m -162 2 0 2 2 0 -2 -2 m 26 0 0 2 2 0 0 -2 -2 0 m 6 0 0 2 4 0 0 -2 -4 0 m 22 3 6 5 0 -8 -6 3 m 36 -3 0 2 4 0 0 -2 -4 0 m 8 0 0 2 2 0 0 -2 -2 0 m 20 4 6 0 0 -4 -6 4 m 41 -4 -1 2 1 -2 m -154 2 -1 2 2 0 -1 -2 m 8 0 -1 2 2 0 -1 -2 m 5 4 6 -4 -6 4 m 33 -4 -1 2 2 0 -1 -2 m 31 0 0 2 2 0 -2 -2 m 22 0 0 6 2 0 0 -6 -2 0 m 10 0 0 2 2 0 0 -2 -2 0 m 50 0 2 6 2 0 -4 -6 m -174 2 4 4 0 -4 -4 0 m 52 3 0 1 6 -4 -6 3 m 20 -3 0 2 2 -2 -2 0 m 14 0 0 6 2 0 -2 -6 m 54 0 2 4 1 0 1 0 2 -4 -6 0 m 26 0 0 2 4 0 0 -2 -4 0 m -120 8 1 0 3 -6 -4 6 m 30 -6 0 2 2 -2 -2 0 m 42 0 4 2 -4 -2 m 6 0 0 4 4 -4 -4 0 m -118 2 0 2 2 0 0 -2 -2 0 m 16 0 0 2 2 0 0 -2 -2 0 m 12 4 4 -4 -4 4 m 4 0 6 -3 -6 3 m 52 -4 0 2 4 0 0 -2 -4 0 m 6 8 4 -1 -2 -3 4 -4 c -3.8 1.8 -5.4 3.8 -6 8 m 14 -8 -4 5 1 1 5 -2 -2 -4 m 22 0 c 2 3.5 4 3.5 6 0 l -6 0 m 19 6 3 -6 c -2.9 1.6 -3.5 2.7 -3 6 m 7 -2 6 2 -2 -6 -4 4 m -146 -2 -3 4 -5 -2 6 4 4 -6 -2 0 m 44 0 0 4 2 0 0 -4 -2 0 m 12 0 2 2 0 -2 -2 0 m 14 0 -4 6 6 -2 -2 -4 m 84 0 0 2 2 0 0 -2 -2 0 m -150 2 4 4 -4 -4 m 44 0 0 2 4 0 0 -2 -4 0 m 62 0 0 2 2 0 0 -2 -2 0 m 51 0 c -4.4 2.4 -8.2 2.5 -9 8 l 2 0 0 -4 c 2.9 -0 7.9 -0.1 7 -4 m -121 2 -4 6 6 -2 -2 -4 m 14 0 0 2 2 0 0 -2 -2 0 m 50 4 -4 -2 c 0.6 4 1.9 5.6 6 5 l -2 -3 4 -4 -4 4 m 12 -4 0 2 2 0 0 -2 -2 0 m 28 1 6 5 c -0.6 -4 -1.9 -5.6 -6 -5 m -156 1 0 2 2 -2 -2 0 m 32 0 1 5 1 0 0 -5 -2 0 m 56 4 -4 -2 c 0.6 4 1.9 5.6 6 5 l -2 -3 4 -4 -4 4 m 16 -4 0 2 2 0 0 -2 -2 0 m 20 0 0 4 2 0 0 -4 -2 0 m 18 0 0 2 2 0 0 -2 -2 0 m 10 0 0 2 2 0 0 -2 -2 0 m 26 0 0 2 2 0 0 -2 -2 0 m -175 2 -1 2 2 0 -1 -2 m 103 4 4 -4 -4 4 m -48 2 4 -4 -4 4 m 10 -4 3 4 -3 -4 m 10 4 4 -4 -4 4 m 24 -4 0 2 2 0 0 -2 -2 0 m 34 0 0 2 2 0 0 -2 -2 0 m -82 2 0 2 2 0 0 -2 -2 0 m 74 0 0 2 2 0 0 -2 -2 0 m 15 0 -1 2 1 -2 m -143 2 0 2 2 0 0 -2 -2 0 m 8 0 c 2 3.5 4 3.5 6 0 l -2 2 -1 0 -1 0 -2 -2 m 37 0 -3 4 3 -4 m 3 0 0 2 4 0 0 -2 -4 0 m 46 0 0 2 2 0 0 -2 -2 0 m 30 0 2 2 0 -2 -2 0 m 26 0 0 2 2 0 0 -2 -2 0 m 9 0 -1 2 2 0 -1 -2 m 5 2 0 2 c 3.9 -0.1 6.1 -0.5 8 -4 l -8 2 m 14 -2 0 2 2 0 0 -2 -2 0 m -158 2 0 2 2 0 0 -2 -2 0 m 19 0 -3 6 c 2.8 -1.5 4 -2.9 3 -6 m 17 2 4 -1 -4 1 m 8 2 4 -4 -4 4 m 46 4 4 0 -2 -2 2 -3 c -4.7 -4.2 -5 1.2 -4 5 m 10 -8 0 2 2 0 0 -2 -2 0 m -118 2 0 2 2 0 0 -2 -2 0 m 81 8 c 5.1 -7.9 -5.1 -7.5 0 0 m 9 -8 0 2 2 0 0 -2 -2 0 m 44 4 4 -4 -4 4 m 6 -4 0 2 4 0 0 -2 -4 0 m 34 0 0 2 2 0 0 -2 -2 0 m -164 2 0 2 2 0 0 -2 -2 0 m 12 0 2 2 0 -2 -2 0 m 8 0 0 2 2 0 0 -2 -2 0 m 20 0 0 2 2 0 0 -2 -2 0 m 70 4 4 -4 -4 4 m 6 -3 0 1 4 -2 -4 1 m 22 -1 0 2 4 0 0 -2 -4 0 m 17 0 -1 2 1 -2 m -149 2 0 4 2 0 0 -4 -2 0 m 39 0 -1 2 2 0 -1 -2 m 5 0 0 2 2 0 0 -2 -2 0 m 4 0 0 2 2 0 0 -2 -2 0 m 52 0 -4 4 4 4 2 -8 -2 0 m 40 4 6 -4 -6 4 m 12 -4 0 2 2 0 -2 -2 m -168 2 0 2 2 0 0 -2 -2 0 m 24 0 2 2 0 -2 -2 0 m 8 4 6 -4 -6 4 m 11 -4 -1 2 2 0 -1 -2 m 3 0 0 2 2 0 0 -2 -2 0 m 42 0 4 6 -2 -3 0 -1 2 -2 -4 0 m 56 0 0 2 2 0 0 -2 -2 0 m 31 0 -1 2 2 0 -1 -2 m -165 2 0 2 2 0 0 -2 -2 0 m 16 4 4 -4 -4 4 m 26 -4 4 4 0 -4 -4 0 m 32 0 0 2 2 0 0 -2 -2 0 m 12 0 0 2 2 0 -2 -2 m 8 0 0 4 8 2 -2 4 c 6.9 -4 -1.7 -8.5 -6 -10 m 26 0 0 2 2 0 0 -2 -2 0 m 19 0 -1 2 2 0 -1 -2 m 15 0 0 2 2 -2 -2 0 m -104 2 4 4 -4 -4 m 10 0 0 2 2 0 0 -2 -2 0 m 30 0 0 2 2 0 0 -2 -2 0 m 37 0 -1 2 2 0 -1 -2 m 3 0 0 2 2 0 0 -2 -2 0 m -136 2 0 2 2 0 0 -2 -2 0 m 8 0 0 2 2 0 0 -2 -2 0 m 10 0 0 4 2 0 0 -4 -2 0 m 44 0 0 2 2 0 0 -2 -2 0 m 14 0 0 2 4 0 0 -2 -4 0 m 43 0 -1 2 2 0 -1 -2 m 3 0 0 2 2 0 0 -2 -2 0 m 20 0 4 4 0 -4 -4 0 m -138 2 0 2 2 0 0 -2 -2 0 m 28 0 0 2 2 0 0 -2 -2 0 m 8 0 0 2 2 0 0 -2 -2 0 m 9 0 -1 2 2 0 -1 -2 m 45 0 0 2 2 0 0 -2 -2 0 m -83 2 -1 6 2 0 -1 -6 m 31 4 4 -4 -4 4 m 114 -4 0 6 2 0 0 -6 -2 0 m -131 2 -1 2 2 0 -1 -2 m 3 0 0 2 2 0 0 -2 -2 0 m 10 6 -2 -2 0 -1 0 -1 2 -2 c -3.5 2 -3.5 4 0 6 m 96 -6 0 2 2 0 0 -2 -2 0 m 9 0 -1 2 2 0 -1 -2 m 3 0 0 2 2 -2 -2 0 m -140 2 0 2 2 0 0 -2 -2 0 m 114 0 0 2 2 0 0 -2 -2 0 m 16 4 4 -4 -4 4 m 24 -4 0 2 4 0 0 -2 -4 0 m -146 2 6 4 -6 -4 m 108 4 4 -4 -4 4 m 6 0 4 -4 -4 4 m 24 -4 -4 6 6 -2 -2 -4 m -152 2 0 1 4 1 -4 -2 m 10 0 0 2 2 0 0 -2 -2 0 m 104 4 4 -4 -4 4 m -88 -2 0 2 2 0 0 -2 -2 0 m 9 0 -1 2 2 0 -1 -2 m -37 2 5 8 1 -1 -6 -7 m 8 0 4 8 4 -6 -4 2 -4 -4 m 22 4 4 -4 -4 4 m 14 2 4 4 4 -10 -8 6 m 82 -6 4 4 -4 -4 m 34 4 -4 -2 c 0.6 4 1.9 5.6 6 5 l -2 -3 4 -4 -4 4 m -138 4 4 -6 -4 6 m 96 -6 4 4 0 -4 -4 0 m 50 4 4 -4 -4 4 m -172 -2 4 8 -4 -8 m 58 0 0 2 2 0 0 -2 -2 0 m 78 0 0 2 2 -2 -2 0 m 18 4 4 -4 -4 4 m 24 -4 -2 8 4 -8 -2 0 m -125 1 -2 2 2 -2 m -19 1 0 2 2 0 0 -2 -2 0 m 84 0 0 2 2 0 0 -2 -2 0 m 10 0 0 2 2 0 0 -2 -2 0 m 4 0 2 2 0 -2 -2 0 m 15 0 -1 2 2 0 -1 -2 m -91 2 0 4 2 0 0 -4 -2 0 m 114 0 4 4 -4 -4 m -164 2 0 4 2 0 0 -4 -2 0 m 4 0 0 4 2 0 0 -4 -2 0 m 34 0 0 2 2 0 0 -2 -2 0 m 76 0 0 2 2 0 0 -2 -2 0 m 12 0 0 2 2 0 0 -2 -2 0 m -112 2 c -1.1 3.2 -1 4.3 2 6 l 0 -6 -2 0 m 29 0 -1 2 2 0 -1 -2 m 75 6 -6 -2 c 2.2 4 8.9 3.3 6 0 l 0 -1 0 -1 2 -2 c -3 1.7 -3.4 2.8 -2 6 m 4 -6 0 2 2 0 0 -2 -2 0 m 32 6 c 2.4 -7.1 -6.1 -3.5 0 0 m 8 -6 0 2 2 0 0 -2 -2 0 m -131 2 -1 2 2 0 -1 -2 m 3 0 0 2 2 0 0 -2 -2 0 m 14 0 -2 2 0 1 0 1 2 0 -2 4 8 -6 -6 2 2 -4 -2 0 m 80 4 6 0 0 -4 -6 4 m 38 -2 c 1.5 2.7 3.5 4.7 6 2 l 1 0 1 0 2 2 c -2.3 -4.6 -5.3 -6.3 -10 -4 m -172 0 8 6 c -1.8 -3.7 -3.9 -5.4 -8 -6 m 16 10 -4 -6 0 -1 0 -1 2 -2 c -4.9 2.9 -2.2 7.8 2 10 m 30 -10 3 4 1 -4 -4 0 m 84 0 0 2 2 0 0 -2 -2 0 m 46 0 0 2 -2 -2 2 0 m -150 2 0 2 2 0 0 -2 -2 0 m 4 0 0 2 2 -2 -2 0 m 116 0 2 4 1 0 1 0 2 -4 -6 0 m -148 2 0 2 2 0 0 -2 -2 0 m 132 0 0 4 4 -4 -4 0 m -110 2 3 6 3 -6 -2 2 -1 0 -1 0 -2 -2 m 10 0 0 2 2 0 0 -2 -2 0 m 8 0 -1 6 3 -6 -2 0 m 9 0 -1 2 2 0 -1 -2 m 91 0 c 2 3.5 4 3.5 6 0 l -6 0 m 19 6 3 -6 c -2.9 1.6 -3.5 2.7 -3 6 m 7 -2 6 2 -2 -6 -4 4 m -158 -2 0 2 2 0 0 -2 -2 0 m 46 0 0 1 4 1 -4 -2 m 6 0 0 2 2 0 0 -2 -2 0 m 60 0 0 2 2 0 0 -2 -2 0 m 6 0 0 2 2 0 0 -2 -2 0 m 48 0 4 2 -4 -2 m 7 0 -1 2 2 0 -1 -2 m -59 8 0 4 4 -4 1 0 1 0 2 2 2 -8 -10 6 m -112 -4 0 6 2 0 0 -6 -2 0 m 8 0 0 2 2 0 -2 -2 m 26 0 0 2 2 0 0 -2 -2 0 m 8 0 2 2 0 1 0 1 -2 2 2 -2 1 0 1 0 2 2 -6 -6 m 84 0 0 2 2 0 0 -2 -2 0 m 28 1 6 5 c -0.6 -4 -1.9 -5.6 -6 -5 m -141 1 -1 2 2 0 -1 -2 m 8 0 -1 2 2 0 -1 -2 m 5 4 6 -4 -6 4 m 96 -4 0 4 2 0 0 -4 -2 0 m 18 0 0 2 2 0 0 -2 -2 0 m 10 0 0 2 2 0 0 -2 -2 0 m 12 0 0 4 4 -4 -4 0 m -170 2 8 10 c -0.4 -5.1 -3.5 -7.8 -8 -10 m 172 6 c 4.2 -0.6 6.2 -2.2 8 -6 l -8 6 m -30 -4 0 2 2 0 0 -2 -2 0 m -130 2 0 4 2 0 0 -4 -2 0 m 16 0 0 2 2 0 0 -2 -2 0 m 14 0 c 2.4 7 5.2 7.8 12 6 l 0 -6 -1 0 -2 4 -2 0 -1 -4 -4 3 0 -3 -2 0 m 16 4 4 -4 -4 4 m 58 -4 2 2 0 1 0 1 -2 2 c 3.5 -2 3.5 -4 0 -6 m 8 0 0 4 2 0 0 -4 -2 0 m 10 0 0 2 2 0 0 -2 -2 0 m 15 0 -1 2 1 -2 m -19 2 0 5 c 4.3 -0.5 3.3 -3.4 0 -5 m 26 0 0 2 2 0 0 -2 -2 0 m 9 0 -1 2 2 0 -1 -2 m -167 2 0 2 2 0 0 -2 -2 0 m 50 0 0 2 -2 0 0 -2 2 0 m 118 3 0 1 8 -4 -8 3 m 14 -3 0 2 2 0 0 -2 -2 0 m -178 2 0 2 2 -2 -2 0 m 10 0 4 6 -4 -6 m 16 0 -2 4 4 -4 -2 0 m 92 0 0 2 2 0 0 -2 -2 0 m 22 0 0 2 2 -2 -2 0 m -136 2 c 0.6 4.4 2 7.9 6 10 l -6 -10 m 44 8 2 0 3 -6 5 4 c -3.7 -7 -9 -5.6 -10 2 m 10 -8 0 2 2 0 0 -2 -2 0 m 56 0 0 2 2 0 0 -2 -2 0 m 8 0 1 4 1 0 -2 -4 m 26.3 0.7 0.3 0.7 -0.3 -0.7 m 22.7 -0.7 -1 4 1 -4 m 7 0 0 2 2 0 0 -2 -2 0 m -162 2 0 2 2 0 0 -2 -2 0 m 22 0 0 2 2 0 0 -2 -2 0 m 6 0 0 2 2 0 0 -2 -2 0 m 84 0 0 2 4 0 0 -2 -4 0 m 6 0 6 4 -6 -4 m 22 4 4 -4 -4 4 m 6 -4 0 2 4 0 0 -2 -4 0 m 12 0 4 4 -4 -4 m -148 2 0 2 2 0 -2 -2 m 91 0 -1 2 2 0 -1 -2 m -103 2 2 2 0 -2 -2 0 m 110 0 2 3 -2 5 6 2 -4 -4 0 -1 0 -1 2 0 -4 -4 m 6 4 4 -4 -4 4 m 36 -2 0 1 0 5 6 2 -4 -7 2 -3 -4 2 m -154 0 0 2 2 0 -2 -2 m 30 0 0 2 2 0 0 -2 -2 0 m 120 0 0 2 2 0 0 -2 -2 0 m -166 2 0 2 2 0 0 -2 -2 0 m 36 0 0 2 2 0 -2 -2 m 16 0 0 4 4 0 -4 -4 m 10 0 0 2 2 0 0 -2 -2 0 m 56 0 0 2 4 0 0 -2 -4 0 m 38 0 0 2 2 0 0 -2 -2 0 m 24 0 2 2 0 -2 -2 0 m -172 2 0 2 2 0 0 -2 -2 0 m 4 0 0 2 2 0 0 -2 -2 0 m 7 0 -1 2 2 0 -1 -2 m -15 2 0 2 2 -2 -2 0 m 174 0 0 2 2 0 0 -2 -2 0 m 4 0 2 2 0 -2 -2 0 m -182 8 4 -4 -4 4 m 24 -4 2 2 0 -2 -2 0 m 14 0 2 2 0 -2 -2 0 m 22 0 0 2 2 -2 -2 0 m 99 0 -1 2 2 0 -1 -2 m 21 0 0 2 2 -2 -2 0 m -172 2 -2 6 2 -2 1 0 1 0 6 1 0 -1 -8 -4 m 118 0 0 2 2 0 0 -2 -2 0 m 48 0 1 4 1 0 0 -4 -2 0 m -155 2 -1 2 2 0 -1 -2 m 23 4 4 -4 -4 4 m 7 0 4 0 5 0 c -1.1 -2.1 -2 -3.8 -4 -2 l -1 0 -1 0 0 -2 -3 4 m 13 -4 2 2 0 -2 -2 0 m 62 2 0 2 2 0 -2 -2 m 4 0 0 2 6 -1 -6 -1 m 10 0 0 2 2 -2 -2 0 m 24 0 0 2 2 0 0 -2 -2 0 m 6 0 2 2 0 -2 -2 0 m -166 2 0 2 2 0 0 -2 -2 0 m 58 0 0 2 2 0 0 -2 -2 0 m 60 0 2 2 0 -2 -2 0 m 60 0 0 2 2 0 0 -2 -2 0 m -152 2 0 2 2 0 0 -2 -2 0 m 8 0 0 2 2 -2 -2 0 m 14 0 0 2 2 -2 -2 0 m 80 0 0 2 2 0 0 -2 -2 0 m -114 2 0 2 4 0 0 -2 -4 0 m 16 0 0 2 2 0 0 -2 -2 0 m 10 4 6 -4 -6 4 m 12 -4 0 2 2 0 0 -2 -2 0 m 90 0 4 4 -4 -4 m 8 0 0 2 2 0 0 -2 -2 0 m 12 0 0 2 2 0 0 -2 -2 0 m 10 0 0 2 2 0 -2 -2 m -172 2 2 2 0 -2 -2 0 m 24 0 0 2 2 0 0 -2 -2 0 m 34 0 0 2 2 -2 -2 0 m 60 0 0 2 2 0 0 -2 -2 0 m -70 2 2 2 0 -2 -2 0 m 80 0 0 2 2 0 0 -2 -2 0 m 40 0 0 2 2 0 0 -2 -2 0 m -144 2 0 2 2 0 0 -2 -2 0 m 120 0 2 2 z" style="fill:#9fa100;stroke:none" inkscape:connector-curvature="0"/>
  <path id="path15149" d="m 45.9 8.4 4 6 -4 -6 m 34 2 0 2 2 0 0 -2 -2 0 m 8 0 0 2 2 0 0 -2 -2 0 m 122 0 0 2 2 0 -2 -2 m 4 2 1 6 1 0 0 -6 -2 0 m -58 2 0 2 2 0 0 -2 -2 0 m 34 0 0 2 2 0 -2 -2 m 18 0 0 2 2 0 0 -2 -2 0 m -168 2 0 2 2 0 0 -2 -2 0 m 8 0 0 2 2 0 0 -2 -2 0 m 46 0 0 2 2 0 0 -2 -2 0 m -57 4 1 6 0 1 0 1 -2 2 4 -2 0 -1 0 -1 -3 -6 m 59 0 -2 6 0 1 0 1 6 2 -2 -10 -2 0 m 60 0 0 6 0 1 0 1 -2 2 8 -2 0 -2 -6 -4 4 2 -2 -4 -2 0 m 60 0 2 6 -4 0 0 2 6 2 -2 -2 0 -1 c 2.3 -3.3 1.9 -5.7 -2 -7 m -28 2 0 2 2 0 0 -2 -2 0 m -134 2 0 2 2 0 0 -2 -2 0 m 4 2 0 2 2 0 0 -2 -2 0 m 8 0 0 2 2 0 0 -2 -2 0 m 110 2 0 2 2 0 0 -2 -2 0 m -83 2 -1 2 2 0 -1 -2 m 119 0 0 2 2 0 0 -2 -2 0 m -176 2 0 2 2 0 0 -2 -2 0 m 6 0 0 2 2 0 0 -2 -2 0 m 112 0 0 2 2 0 0 -2 -2 0 m 62 2 0 2 2 0 0 -2 -2 0 m -174 2 0 2 2 0 0 -2 -2 0 m 54 0 0 2 2 0 0 -2 -2 0 m 58 2 0 6 2 0 0 -6 -2 0 m 52 0 0 2 2 0 0 -2 -2 0 m 12 0 0 6 2 0 0 -6 -2 0 m -120 2 0 4 2 0 0 -4 -2 0 m 68 0 0 2 2 0 0 -2 -2 0 m 23 0 -1 2 2 0 -1 -2 m 3 0 0 2 4 0 0 -2 -4 0 m -156 2 0 2 2 0 0 -2 -2 0 m 16 0 0 2 2 0 0 -2 -2 0 m 12 2 0 2 2 0 0 -2 -2 0 m 104 0 0 2 2 0 0 -2 -2 0 m -132 2 0 2 2 -2 -2 0 m 62 0 -2 6 4 0 0 -6 -2 0 m 56 0 4 6 -2 -6 -2 0 m 8 0 0 2 2 -2 -2 0 m 20 0 0 2 2 0 0 -2 -2 0 m 20 0 0 2 2 0 0 -2 -2 0 m 16 0 c -1.6 3.2 -1.6 4.8 2 6 l 0 -6 -2 0 m -172 2 0 2 2 0 0 -2 -2 0 m 119 0 -1 2 2 0 -1 -2 m -129 2 0 2 6 0 0 -2 -6 0 m 132 0 0 2 2 0 0 -2 -2 0 m -132 4 0 4 4 -4 -4 0 m 56 0 0 2 4 0 0 -2 -4 0 m 62 0 -2.1 2.5 2.6 1.7 2.5 -3.2 -2.9 -1.1 m 58 0 0 1 8 1 0 -2 -8 0 m -162 2 0 2 2 0 0 -2 -2 0 m 26 2 0 2 2 0 0 -2 -2 0 m 22 0 0 2 2 0 0 -2 -2 0 m 120 0 0 2 2 0 0 -2 -2 0 m -124 2 0 2 2 0 0 -2 -2 0 m 106 0 0 2 2 0 0 -2 -2 0 m -164 2 0 2 2 0 0 -2 -2 0 m 62 0 0 2 2 0 0 -2 -2 0 m 56 0 0 2 2 0 0 -2 -2 0 m 28 0 0 2 2 0 0 -2 -2 0 m 4 0 0 2 4 0 0 -2 -4 0 m -145 4 -1 2 2 0 -1 -2 m 41 0 0 2 2 0 0 -2 -2 0 m 8 0 0 2 2 0 0 -2 -2 0 m 4 0 2 2 -2 -2 m 65 0 -1 4 1 -4 m 55 0 0 2 2 0 0 -2 -2 0 m -144 2 0 2 2 0 0 -2 -2 0 m 126 0 0 2 2 0 0 -2 -2 0 m -160 2 0 2 4 0 0 -2 -4 0 m 61 0 -1 1 4 3 -3 -4 m 121 0 0 4 2 0 0 -4 -2 0 m -176 2 0 2 2 0 0 -2 -2 0 m 112 0 0 4 2 0 0 -4 -2 0 m -118 2 0 2 2 0 0 -2 -2 0 m 128 4 0 2 2 0 -2 -2 m -128 2 0 2 2 0 0 -2 -2 0 m 28 0 0 2 2 0 0 -2 -2 0 m 144 0 0 2 2 0 0 -2 -2 0 m 10 0 0 2 2 0 0 -2 -2 0 m -60 2 0 2 2 0 0 -2 -2 0 m -122 2 4 4 -4 -4 m 7 0 -1 2 1 -2 m 55 0 0 4 2 0 0 -4 -2 0 m 120 0 -2 4 4 -4 -2 0 m -123 2 -1 2 2 0 -1 -2 m 59 0 0 4 4 -4 -4 0 m 18 0 0 2 2 0 0 -2 -2 0 m 38 0 0 2 2 0 0 -2 -2 0 m -4 2 -2 4 4 0 0 -4 -2 0 m -170 2 0 4 4 0 -4 -4 m 62 0 -2 6 2 0 2 -5 -2 -1 m -10 2 0 2 2 0 0 -2 -2 0 m 68 0 0 2 2 0 0 -2 -2 0 m 56 0 0 4 2 0 0 -4 -2 0 m 4 0 0 2 4 0 0 -2 -4 0 m -174 2 0 2 2 0 0 -2 -2 0 m 34 0 0 2 2 0 0 -2 -2 0 m 28 4 0 2 2 0 -2 -2 m 26 0 0 2 4 0 0 -2 -4 0 m 25 0 -1 2 2 0 -1 -2 m 45 1 0 1 4 -2 -4 1 m 16 -1 0 2 2 0 0 -2 -2 0 m -90 2 0 2 2 0 0 -2 -2 0 m 16 0 0 2 2 0 0 -2 -2 0 m -106 4 4 -1 -4 1 m 18 -2 0 2 2 0 0 -2 -2 0 m 28 0 0 2 2 0 0 -2 -2 0 m 50 0 4 4 -4 -4 m -84 2 0 2 2 0 0 -2 -2 0 m 22 0 0 2 2 0 0 -2 -2 0 m 58 0 0 2 2 0 0 -2 -2 0 m 28 0 0 2 2 0 0 -2 -2 0 m 62 0 0 8 2 0 0 -8 -2 0 m -67 2 -1 2 2 0 -1 -2 m 15 0 0 2 2 0 0 -2 -2 0 m 6 0 0 2 2 0 0 -2 -2 0 m 38 0 0 2 2 -2 -2 0 m -174 2 0 4 2 0 0 -4 -2 0 m 70 4 4 -4 -4 4 m -18 -2 0 2 2 0 0 -2 -2 0 m -12 2 0 2 2 0 0 -2 -2 0 m 84 0 0 2 2 0 0 -2 -2 0 m -118 2 0 2 2 0 0 -2 -2 0 m 46 0 0 2 2 0 0 -2 -2 0 m 18 0 0 2 2 0 0 -2 -2 0 m 42 0 0 2 2 0 0 -2 -2 0 m -112 2 0 2 2 0 0 -2 -2 0 m 40 0 0 2 2 0 0 -2 -2 0 m 134 0 0 2 2 0 0 -2 -2 0 m 8 0 0 8 2 0 0 -8 -2 0 m -173 2 -1 4 1 0 0 -4 m 9 0 0 2 2 0 0 -2 -2 0 m 144 0 3 4 1 -4 -4 0 m -162 2 0 2 2 0 0 -2 -2 0 m 104 1 0 1 4 -2 -4 1 m 38 1 -2 4 4 -4 -2 0 m 18 0 0 2 2 0 0 -2 -2 0 m 16 0 0 2 2 0 0 -2 -2 0 m -164 2 0 2 2 -2 -2 0 m 10 2 0 2 2 0 0 -2 -2 0 m 4 0 0 2 2 0 0 -2 -2 0 m 97 0 -1 2 2 0 -1 -2 m 3 0 0 2 4 0 0 -2 -4 0 m -126 4 4 -1 -4 1 m 94 -1 0 1 4 -2 -4 1 m 86 -1 4 4 -4 -4 m -174 4 0 2 2 0 0 -2 -2 0 m 4 0 0 2 2 0 0 -2 -2 0 m 6 0 0 2 2 0 0 -2 -2 0 m 48 1 0 1 4 -2 -4 1 m 72 -1 0 2 2 0 0 -2 -2 0 m 16 0 0 2 2 0 0 -2 -2 0 m -152 6 0 6 2 0 0 -6 -2 0 m 10 0 0 2 2 0 0 -2 -2 0 m 116 0 0 2 2 0 0 -2 -2 0 m 37 0 -1 2 2 0 -1 -2 m 9 0 0 2 2 0 0 -2 -2 0 m 10 0 0 6 2 0 0 -6 -2 0 m -162 2 0 2 2 0 0 -2 -2 0 m 82 0 0 2 4 0 0 -2 -4 0 m 34 0 2 2 0 -2 -2 0 m -128 2 0 2 2 0 0 -2 -2 0 m 46 0 0 2 2 0 0 -2 -2 0 m 106 0 0 2 2 0 0 -2 -2 0 m 14 0 0 2 2 0 0 -2 -2 0 m -46 2 0 2 2 -2 -2 0 m -8 2 0 2 2 0 0 -2 -2 0 m 28 0 0 2 2 0 0 -2 -2 0 m -138 2 0 2 2 0 0 -2 -2 0 m 82 0 0 2 4 0 0 -2 -4 0 m 42 0 0 2 2 0 -2 -2 m -96 2 0 2 2 -2 -2 0 m 34 0 0 2 2 0 0 -2 -2 0 m -72 2 0 4 4 0 -4 -4 m 48 0 0 2 2 0 0 -2 -2 0 m 14 0 0 2 4 0 0 -2 -4 0 m 6 0 0 2 2 0 0 -2 -2 0 m 114 0 -2 3 4 1 0 -4 -2 0 m -174 2 0 2 2 0 0 -2 -2 0 m 32 0 0 2 2 -2 -2 0 m 40 0 0 2 2 -2 -2 0 m 22 0 0 2 2 0 0 -2 -2 0 m 18 0 0 2 2 0 -2 -2 m 54 0 0 4 2 0 0 -4 -2 0 m -162 2 0 2 2 0 0 -2 -2 0 m 130 0 0 2 2 0 0 -2 -2 0 m -52 2 0 2 2 0 0 -2 -2 0 m 19 0 -1 1 5.6 4 0.4 -3 -5 -2 m 19 0 0 2 2 0 0 -2 -2 0 m -128 2 0 2 4 0 0 -2 -4 0 m 6 0 0 4 2 0 0 -4 -2 0 m 78 0 0 2 2 0 0 -2 -2 0 m 16 0 0 2 2 0 0 -2 -2 0 m 80 0 0 2 4 0 0 -2 -4 0 m -118 2 -2 6 c 2.9 -1.6 3.9 -3.1 2 -6 m 28 0 2 2 0 -2 -2 0 m 28 0 0.7 1.7 3.3 0.3 0 -2 -4 0 m -118 2 0 4 4 0 -4 -4 m 34 0 0 2 2 0 0 -2 -2 0 m 149 0 -3 4 4 0 -1 -4 m -63.7 3.3 c 2 -0.3 3.7 1.2 2.7 -1.3 l -2.6 -1.1 m -107.4 3.1 0 2 2 -2 -2 0 m 38 0 0 2 6 -1 -6 -1 m 120 1 0 1 4 -2 -4 1 m -170 5 4 -4 -4 4 m 60 -4 2 6 1 0 c 0.6 -3.2 -0.1 -4.5 -3 -6 m 60 0 0 2 2 0 0 -2 -2 0 m 60 0 4 6 -4 -6 m -180 6 0 2 2 0 0 -2 -2 0 m 118 0 2 2 0 -2 -2 0 m 18 0 0 2 2 0 0 -2 -2 0 m 6 0 0 2 2 0 0 -2 -2 0 m -132 6 4 -4 -4 4 m 36 -4 0 2 2 0 0 -2 -2 0 m 82 0 0 2 2 0 0 -2 -2 0 m -126 2 -2 4 4 -3 -2 -1 m 118 0 -2 6 4 -6 -2 0 m 61 0 -1 2 2 0 -1 -2 m -119 2 2 4 -2 -4 m 68 0 0 2 2 0 0 -2 -2 0 m 52 2 1 6 1 0 0 -6 -2 0 m -182 2 0 4 2 0 0 -4 -2 0 m 6 0 4 4 -4 -4 m 18 0 0 2 2 0 0 -2 -2 0 m -6 2 0 2 2 0 0 -2 -2 0 m 22 0 0 2 2 0 0 -2 -2 0 m 22 0 0 2 2 -2 -2 0 m 56 0 2 2 0 -2 -2 0 m 50 0 3 4 1 -4 -4 0 m -20 4 -2 4 4 -4 -2 0 m 18 0 0 2 2 0 0 -2 -2 0 m 9 0 -1 2 2 0 -1 -2 m -175 2 -2 8 6 -4 0 -1 0 -1 -4 -2 m 46 2 0 2 2 0 0 -2 -2 0 m 16 0 0 4 2 0 0 -4 -2 0 m 56 0 0 2 2 0 0 -2 -2 0 m 14 0 0 2 4 0 0 -2 -4 0 m -120 2 0 2 2 0 0 -2 -2 0 m 38 0 0 2 2 0 0 -2 -2 0 m 132 0 0 2 2 0 0 -2 -2 0 m -136 2 0 2 2 0 0 -2 -2 0 m -31 2 -1 4 1 0 0 -4 m 9 0 0 2 2 0 0 -2 -2 0 m 118 0 0 2 2 0 0 -2 -2 0 m 16 0 0 2 2 0 0 -2 -2 0 m -154 2 0 2 2 0 0 -2 -2 0 m 116 0 0 2 2 0 0 -2 -2 0 m -120 4 0 4 2 0 0 -4 -2 0 m 18 0 0 2 2 -2 -2 0 m 38 0 0 2 2 0 0 -2 -2 0 m 4 0 0 2 2 -2 -2 0 m 60 0 2 2 0 -2 -2 0 m 4 0 0 2 2 0 0 -2 -2 0 m 8 0 0 2 2 0 0 -2 -2 0 m 37 0 -1 2 2 0 -1 -2 m 11 0 4 4 0 -4 -4 0 m -142 2 0 2 2 0 0 -2 -2 0 m 104 0 0 2 2 0 0 -2 -2 0 m -132 2 0 2 2 0 0 -2 -2 0 m -10 2 0 2 2 0 0 -2 -2 0 m 58 0 0 2 2 0 0 -2 -2 0 m 60 0 0 2 4 0 0 -2 -4 0 m 62 0 0 2 4 0 0 -2 -4 0 m -147.7 2.7 0.3 0.7 -0.3 -0.7 m -28.3 1.3 0 2 2 0 0 -2 -2 0 m 42 0 0 2 2 0 0 -2 -2 0 m -8 2 0 2 2 0 0 -2 -2 0 m 90 0 0 2 2 0 0 -2 -2 0 m 30 0 0 2 2 0 0 -2 -2 0 m -156 2 0 2 2 0 0 -2 -2 0 m 118 0 0 2 2 0 0 -2 -2 0 m 60 0 0 2 2 0 0 -2 -2 0 m -178 4 0 2 2 0 0 -2 -2 0 m 125 2 -1 4 1 -4 m 9 0 0 2 2 0 0 -2 -2 0 m -78 2 0 2 2 0 0 -2 -2 0 m 4 0 0 2 2 0 0 -2 -2 0 m 60 0 -1 6 1 0 2 -6 -2 0 m -120 2 0 2 2 0 0 -2 -2 0 m 178 0 0 2 2 0 -2 -2 m -117 4 -1 2 2 0 -1 -2 m 55 0 0 2 2 0 -2 -2 m -118 2 0 2 2 -2 -2 0 m 12 0 0 2 2 0 0 -2 -2 0 m 158 0 0 2 2 0 0 -2 -2 0 m 12 0 0 2 2 0 0 -2 -2 0 m -6 2 0 2 2 0 0 -2 -2 0 m -164 4 2 2 0 -2 -2 0 m 144 0 2 2 0 -2 -2 0 m -30 2 0 2 2 -2 -2 0 m -108 2 0 2 4 0 0 -2 -4 0 m 146 0 0 2 2 0 0 -2 z" style="fill:#a27f07;stroke:none" inkscape:connector-curvature="0"/>
</svg>