<?xml version="1.0" encoding="UTF-8"?>
<svg width="660" height="660" version="1.1" viewBox="0 0 174.625 174.625" xmlns="http://www.w3.org/2000/svg"><g transform="translate(-21.92264,-63.500008)"><path transform="matrix(.26458333 0 0 .26458333 21.92264 63.500008)" d="m57.859375 25.9375c-17.684546 0-31.921875 14.237326-31.921875 31.921875v241.427735a32.297292 32.255387 0 0 1 22.435547 30.71289 32.297292 32.255387 0 0 1-22.435547 30.71484v241.42578c0 17.68457 14.237329 31.92188 31.921875 31.92188h149.082035c1.51309-12.73417 15.48169-22.64844 32.60937-22.64844h180.89844c17.12768 0 31.09628 9.91427 32.60937 22.64844h149.08203c0.55265 0 1.10286-0.0135 1.64844-0.041 14.1851-0.71442 25.87058-10.60537 29.27149-23.88476 0.65402-2.55373 1.00195-5.23288 1.00195-7.9961v-241.42775a32.297292 32.255387 0 0 1-22.43555-30.71289 32.297292 32.255387 0 0 1 22.43555-30.71484v-241.425785c0-3.315855-0.49975-6.511326-1.42969-9.513672-4.02972-13.010157-16.12347-22.408203-30.49219-22.408203h-149.08203c-1.51311 12.734156-15.48168 22.648438-32.60937 22.648438h-180.89844c-17.12771 0-31.09626-9.914282-32.60937-22.648438z" fill="#3a3a3a" stroke-width=".944878"/></g><g fill="#c8c8c8"><g transform="scale(.99723488 1.0027728)" stroke-width="1.033" aria-label="LEG"><path d="m63.992607 49.538956q0.605367 0 1.045633 0.440267 0.440266 0.440266 0.440266 1.045632v5.83353q0 0.605366-0.440266 1.045633-0.440266 0.440266-1.045633 0.440266h-25.480417q-0.605366 0-1.045632-0.440266-0.440267-0.440267-0.440267-1.045633v-35.551511q0-0.605366 0.440267-1.045632 0.440266-0.440267 1.045632-0.440267h7.209362q0.605367 0 1.045633 0.440267 0.440266 0.440266 0.440266 1.045632v28.232082z"/><path d="m80.035569 43.375227h15.739523q0.605366 0 1.045633-0.440267 0.440266-0.440266 0.440266-1.045632v-5.83353q0-0.605366-0.440266-1.045633-0.440267-0.440266-1.045633-0.440266h-15.739523v-5.943596h16.950256q0.605366 0 1.045632-0.440267 0.440267-0.440266 0.440267-1.045632v-5.83353q0-0.605366-0.440267-1.045632-0.440266-0.440267-1.045632-0.440267h-25.645517q-0.605367 0-1.045633 0.440267-0.440266 0.440266-0.440266 1.045632v35.551511q0 0.605366 0.440266 1.045633 0.440266 0.440266 1.045633 0.440266h26.085783q0.605366 0 1.045633-0.440266 0.440266-0.440267 0.440266-1.045633v-5.83353q0-0.605366-0.440266-1.045632-0.440267-0.440267-1.045633-0.440267h-17.390522z"/><path d="m114.03335 34.459833q-0.1651 1.320799-0.1651 4.237563 0 3.412065 0.1651 5.008031 0.22013 2.806698 1.87113 4.622797 1.651 1.761065 5.06307 1.761065 3.13689 0 5.00803-1.430865 1.92616-1.4859 1.92616-4.622798h-4.6228q-0.60536 0-1.04563-0.440266-0.44026-0.440266-0.44026-1.045633v-5.833529q0-0.605367 0.44026-1.045633 0.44027-0.440266 1.04563-0.440266h13.31806q0.60537 0 1.04564 0.440266 0.44026 0.440266 0.44026 1.045633v7.044262q0 4.567764-2.25636 8.034862-2.25637 3.412064-6.16373 5.283196-3.85233 1.816099-8.69526 1.816099-5.1181 0-8.9154-1.981199-3.7973-2.036232-5.88856-5.393263-2.09127-3.412064-2.3114-7.539562-0.11007-2.641598-0.11007-4.34763 0-2.036232 0.11007-5.448297 0.1651-4.127497 2.25637-7.484529 2.09126-3.412064 5.88856-5.393263 3.85233-2.036232 8.97043-2.036232 4.89796 0 8.64022 1.816099 3.7973 1.816099 5.88857 4.567764 2.1463 2.751665 2.3114 5.33823 0.055 0.495299-0.3302 0.880532-0.38524 0.3302-0.88054 0.3302h-7.31943q-0.71543 0-1.1557-0.3302-0.38523-0.385233-1.04563-1.155699-0.9906-1.210732-2.36643-1.926165-1.3208-0.715433-3.74226-0.715433-6.21877 0-6.9342 6.383863z"/></g><g transform="scale(.99917249 1.0008282)" stroke-width="1.03138" aria-label="END"><path d="m43.106651 91.532843h15.739524q0.605366 0 1.045632-0.440267 0.440267-0.440266 0.440267-1.045633v-5.833529q0-0.605366-0.440267-1.045633-0.440266-0.440266-1.045632-0.440266h-15.739524v-5.943596h16.950256q0.605367 0 1.045633-0.440267 0.440266-0.440266 0.440266-1.045633v-5.833529q0-0.605366-0.440266-1.045633-0.440266-0.440266-1.045633-0.440266h-25.645517q-0.605366 0-1.045633 0.440266-0.440266 0.440267-0.440266 1.045633v35.55151q0 0.60537 0.440266 1.04563 0.440267 0.44027 1.045633 0.44027h26.085784q0.605366 0 1.045632-0.44027 0.440267-0.44026 0.440267-1.04563v-5.833529q0-0.605366-0.440267-1.045633-0.440266-0.440266-1.045632-0.440266h-17.390523z"/><path d="m93.328835 106.5019q-0.825499 0-1.430865-0.38523-0.605367-0.44027-0.8255-0.88054l-12.602625-18.821384v18.601254q0 0.60537-0.440267 1.04563-0.440266 0.44027-1.045632 0.44027h-7.209362q-0.605367 0-1.045633-0.44027-0.440266-0.44026-0.440266-1.04563v-35.55151q0-0.605366 0.440266-1.045633 0.440266-0.440266 1.045633-0.440266h5.723463q0.825499 0 1.430865 0.440266 0.605367 0.385233 0.8255 0.8255l12.602625 18.821388v-18.601255q0-0.605366 0.440267-1.045633 0.440266-0.440266 1.045632-0.440266h7.209362q0.605367 0 1.045632 0.440266 0.44027 0.440267 0.44027 1.045633v35.55151q0 0.60537-0.44027 1.04563-0.440265 0.44027-1.045632 0.44027z"/><path d="m141.73406 83.332881q0.11007 3.081865 0.11007 3.962398 0 0.880532-0.11007 3.85233-0.1651 4.512731-2.36643 7.979829-2.1463 3.467102-5.94359 5.448292-3.7973 1.92617-8.80533 1.92617h-14.85899q-0.60537 0-1.04563-0.44027-0.44027-0.44026-0.44027-1.04563v-35.55151q0-0.605366 0.44027-1.045633 0.44026-0.440266 1.04563-0.440266h14.58382q5.00803 0 8.86036 1.981199 3.90737 1.926165 6.1087 5.448296 2.25636 3.467098 2.42146 7.924795zm-23.27908-6.548962v20.912653h5.88856q6.9342 0 7.20936-6.328829 0.11007-3.191932 0.11007-4.182531 0-1.100666-0.11007-4.072464-0.1651-3.136898-2.09126-4.732864-1.87113-1.595965-5.39326-1.595965z"/></g><g transform="scale(1.0026599 .99734717)" stroke-width="1.03067" aria-label="ARY"><path d="m68.845077 153.57798q0.220133 0.55033 0.220133 0.8255 0 0.4953-0.385233 0.88053-0.3302 0.3302-0.8255 0.3302h-6.934195q-0.935567 0-1.485899-0.38523-0.4953-0.44027-0.6604-0.9906l-1.540932-4.56776h-14.638858l-1.540932 4.56776q-0.1651 0.55033-0.715433 0.9906-0.4953 0.38523-1.430866 0.38523h-6.934195q-0.4953 0-0.880533-0.3302-0.3302-0.38523-0.3302-0.88053 0-0.27517 0.220133-0.8255l11.997259-34.67098q0.275167-0.77046 0.880533-1.26576 0.605366-0.55034 1.595966-0.55034h8.915394q0.990599 0 1.595966 0.55034 0.605366 0.4953 0.880532 1.26576zm-14.473758-12.43753-4.457697-13.20799-4.457697 13.20799z"/><path d="m88.478181 117.0909q7.374462 0 11.446926 3.19193 4.072463 3.1369 4.072463 9.4107 0 7.97983-6.548961 11.00666l6.824131 13.09792q0.1651 0.3302 0.1651 0.60537 0 0.4953-0.38524 0.88053-0.3302 0.3302-0.82549 0.3302h-7.484533q-0.9906 0-1.485899-0.38523-0.4953-0.44027-0.8255-1.10067l-6.108696-11.77712h-5.063064v11.77712q0 0.60537-0.440266 1.04564-0.440266 0.44026-1.045633 0.44026h-7.209362q-0.605366 0-1.045632-0.44026-0.440267-0.44027-0.440267-1.04564v-35.55151q0-0.60536 0.440267-1.04563 0.440266-0.44027 1.045632-0.44027zm0 16.67509q5.33823 0 5.33823-4.07246 0-4.07247-5.33823-4.07247h-6.218763v8.14493z"/><path d="m130.46689 154.12831q0 0.60537-0.44027 1.04564-0.44026 0.44026-1.04563 0.44026h-7.20936q-0.60537 0-1.04563-0.44026-0.44027-0.44027-0.44027-1.04564v-11.72209l-12.71269-23.38915q-0.22014-0.38523-0.22014-0.71543 0-0.4953 0.3302-0.8255 0.38524-0.38524 0.88054-0.38524h7.53956q0.93557 0 1.4859 0.4953 0.60536 0.44027 0.8255 0.88054l6.93419 13.53819 6.98923-13.53819q0.22014-0.44027 0.77047-0.88054 0.60536-0.4953 1.54093-0.4953h7.53956q0.4953 0 0.8255 0.38524 0.38524 0.3302 0.38524 0.8255 0 0.3302-0.22014 0.71543l-12.71269 23.38915z"/></g></g></svg>
