<?xml version="1.0" encoding="UTF-8" ?>
<!DOCTYPE svg PUBLIC "-//W3C//DTD SVG 1.1//EN" "http://www.w3.org/Graphics/SVG/1.1/DTD/svg11.dtd">
<svg width="723pt" height="482pt" viewBox="0 0 723 482" version="1.1" xmlns="http://www.w3.org/2000/svg">
<g id="#000000ff">
<path fill="#000000" opacity="1.00" d=" M 482.53 0.00 L 499.58 0.00 C 516.16 1.23 533.98 4.60 546.53 16.37 C 556.06 25.05 559.77 38.48 558.96 51.05 C 558.14 64.14 555.72 77.90 547.65 88.61 C 544.09 93.49 538.73 96.59 533.11 98.53 C 568.71 102.47 603.99 111.73 636.02 127.96 C 653.33 136.79 669.68 147.81 683.31 161.72 C 694.73 173.61 704.41 187.91 707.78 204.28 C 709.79 213.57 709.20 223.32 706.28 232.36 C 712.21 246.88 710.94 263.36 706.13 278.01 C 701.86 291.15 693.70 303.34 682.01 310.94 C 678.69 313.17 674.57 312.98 670.78 312.55 C 665.27 320.80 658.60 328.26 650.92 334.55 C 666.78 339.41 682.10 346.55 695.26 356.74 C 705.47 364.67 714.34 374.83 719.07 387.00 C 721.28 392.59 722.33 398.55 723.00 404.50 L 723.00 411.60 C 722.51 415.08 721.86 418.78 719.55 421.58 C 716.93 424.81 711.50 425.55 708.37 422.67 C 706.88 421.16 707.38 418.85 707.31 416.95 C 708.12 409.66 704.82 402.88 702.72 396.10 C 698.26 382.79 690.28 370.40 678.61 362.35 C 667.35 353.67 653.12 350.91 640.15 345.80 C 635.11 343.44 629.34 344.08 624.24 341.93 C 619.93 346.84 615.05 351.22 609.71 355.00 C 627.20 361.08 644.17 369.48 658.04 381.92 C 670.07 392.55 679.40 406.92 681.57 423.06 C 682.44 430.50 683.34 438.77 679.52 445.58 C 676.97 450.23 669.06 451.65 665.98 446.90 C 664.56 442.66 666.46 438.04 665.12 433.74 C 661.64 421.82 657.85 409.70 650.69 399.40 C 644.07 389.73 634.63 382.25 624.28 376.91 C 616.48 373.31 608.21 370.88 600.13 367.99 C 595.53 366.46 590.98 364.03 585.98 364.63 C 582.84 364.92 579.91 363.68 577.13 362.43 C 572.23 366.86 566.68 370.44 561.01 373.79 C 564.46 375.68 568.32 376.65 571.92 378.21 C 588.08 384.95 603.62 393.71 616.50 405.69 C 628.48 416.70 638.03 430.94 641.27 447.07 C 642.96 455.96 644.12 465.45 641.16 474.20 C 639.94 478.05 636.77 481.07 632.83 482.00 L 629.35 482.00 C 627.16 481.30 624.52 480.41 623.94 477.90 C 622.87 473.24 624.79 468.37 623.33 463.75 C 619.00 448.96 614.23 433.82 604.68 421.46 C 596.93 411.35 586.43 403.52 575.04 397.95 C 559.22 391.40 542.61 386.96 526.89 380.15 C 513.23 388.65 496.66 389.67 481.00 389.53 C 476.86 389.65 472.77 388.77 468.91 387.35 C 457.94 400.38 443.36 409.97 428.05 417.17 C 413.62 423.74 398.48 428.69 383.09 432.44 C 358.86 438.20 333.89 439.93 309.05 440.01 C 283.67 439.47 258.15 438.94 233.11 434.42 C 202.98 429.31 174.12 417.92 147.80 402.52 C 145.71 409.42 144.16 416.48 142.68 423.54 C 141.65 428.29 143.01 433.18 142.14 437.94 C 141.47 441.86 136.23 443.23 133.38 440.72 C 129.54 437.40 128.98 431.90 128.45 427.17 C 127.74 415.47 129.45 403.67 132.89 392.49 C 125.51 386.89 118.45 380.80 112.29 373.86 C 105.82 380.16 100.58 387.70 96.91 395.95 C 91.82 407.34 89.05 419.57 86.44 431.72 C 85.35 436.71 86.76 441.85 85.76 446.84 C 84.87 450.97 78.93 451.68 76.36 448.69 C 72.87 444.73 72.40 439.11 72.04 434.08 C 71.61 418.78 74.50 403.23 81.47 389.53 C 86.67 379.12 94.03 369.87 102.53 361.96 C 91.75 347.76 86.07 329.84 87.15 312.01 C 87.39 306.25 88.67 300.61 89.80 294.98 C 93.12 287.22 95.12 278.94 99.20 271.50 C 102.87 266.95 105.50 261.15 110.75 258.18 C 116.79 256.27 120.38 250.59 125.35 247.01 C 131.36 242.76 137.26 238.33 143.67 234.68 C 147.61 232.34 151.88 230.50 155.47 227.61 C 174.39 212.34 194.05 197.97 214.48 184.79 C 205.91 166.52 196.41 148.63 185.14 131.87 C 172.98 113.84 158.83 96.84 141.47 83.57 C 125.75 71.42 107.02 62.81 87.19 60.49 C 71.25 58.49 55.00 60.63 39.72 65.35 C 47.73 69.03 55.88 73.79 60.51 81.58 C 64.62 88.34 64.03 97.27 59.88 103.87 C 53.94 113.56 43.21 119.95 32.03 121.43 C 23.81 122.59 14.92 119.97 9.33 113.68 C 3.13 106.83 0.96 97.45 0.00 88.51 L 0.00 78.11 C 1.27 69.72 5.56 61.69 12.60 56.79 C 24.82 48.02 40.42 46.27 55.04 45.78 C 73.07 45.75 91.18 48.10 108.45 53.35 C 132.57 61.24 152.65 77.88 169.85 96.08 C 192.35 120.33 210.36 148.49 224.73 178.21 C 256.15 158.72 289.19 141.77 323.72 128.52 C 343.44 93.77 366.60 60.24 396.93 33.86 C 409.50 23.13 423.45 13.64 439.09 8.02 C 453.07 3.17 467.83 1.11 482.53 0.00 M 401.23 46.28 C 376.88 67.20 358.30 93.94 342.46 121.64 C 397.82 102.71 456.75 93.06 515.28 96.86 C 504.28 92.14 495.01 83.15 490.84 71.84 C 487.76 63.62 488.06 54.06 492.33 46.31 C 497.06 37.57 505.38 31.36 514.21 27.16 C 514.88 26.97 516.77 25.80 515.07 25.44 C 500.16 19.43 484.01 16.11 467.89 17.09 C 443.02 18.39 419.88 30.30 401.23 46.28 M 503.67 45.80 C 498.73 58.28 501.55 74.12 512.15 82.84 C 517.86 87.63 525.86 89.66 533.11 87.77 C 541.98 85.58 549.12 78.29 552.05 69.75 C 552.85 67.73 553.43 65.61 553.71 63.45 C 554.63 58.50 554.45 53.29 552.88 48.50 C 550.44 37.11 539.87 27.40 527.92 27.70 C 516.95 27.62 507.41 35.86 503.67 45.80 M 16.16 69.16 C 10.94 71.94 6.86 76.77 5.11 82.44 C 3.72 86.21 3.47 90.36 4.26 94.30 C 4.69 96.11 5.22 97.92 6.11 99.56 C 10.25 109.77 22.47 115.36 33.02 112.93 C 42.60 111.13 50.59 102.86 51.81 93.16 C 52.95 85.65 50.14 77.69 44.49 72.60 C 37.08 65.54 25.06 64.21 16.16 69.16 M 344.50 127.65 C 342.20 128.55 339.67 129.03 337.63 130.45 C 335.72 133.45 334.23 136.69 332.60 139.85 C 328.15 148.18 324.17 156.75 320.15 165.30 C 318.86 168.11 317.58 170.92 316.37 173.76 L 316.21 173.76 C 315.07 176.58 313.88 179.37 312.67 182.16 C 320.40 182.58 328.19 183.33 335.88 182.12 C 341.77 181.31 347.43 179.36 352.90 177.12 C 393.32 159.93 433.85 142.72 475.87 129.79 C 502.03 121.75 528.87 115.44 556.22 113.33 C 553.69 112.61 551.18 111.71 548.57 111.36 C 536.54 108.15 524.21 106.18 511.85 104.81 C 455.24 98.89 397.89 108.75 344.50 127.65 M 493.00 130.04 C 468.62 135.12 444.68 142.92 422.59 154.51 C 411.88 160.36 401.18 166.92 393.27 176.39 C 390.05 180.31 387.31 185.37 388.46 190.60 C 389.73 195.48 394.19 198.69 398.66 200.46 C 419.89 208.82 440.07 219.94 458.25 233.74 C 471.90 244.24 484.69 256.20 494.32 270.58 C 499.63 278.77 504.58 288.02 504.26 298.06 C 504.27 302.13 502.03 305.61 500.37 309.16 C 508.14 307.79 515.48 304.81 522.88 302.17 C 550.65 291.76 577.93 280.10 604.94 267.90 C 623.85 259.18 642.78 250.40 660.73 239.80 C 665.08 237.31 669.35 234.26 671.84 229.78 C 675.93 222.96 675.91 214.53 674.36 206.95 C 670.85 191.90 661.70 178.88 651.40 167.66 C 638.82 154.20 623.83 143.08 607.71 134.24 C 597.70 130.22 587.02 128.06 576.39 126.43 C 548.67 122.44 520.36 124.50 493.00 130.04 M 227.93 185.27 C 228.35 186.25 228.78 187.23 229.21 188.21 C 229.69 189.40 230.18 190.59 230.67 191.78 C 252.68 185.70 275.44 182.33 298.28 181.96 C 299.27 179.56 300.25 177.16 301.23 174.75 C 302.62 171.49 304.03 168.24 305.42 164.99 C 307.73 159.85 310.27 154.81 312.53 149.65 C 314.88 145.78 316.57 141.50 318.83 137.56 C 287.19 150.72 256.88 166.96 227.93 185.27 M 232.59 196.22 C 232.71 196.75 232.96 197.80 233.08 198.33 L 233.31 198.28 C 233.82 199.74 234.34 201.20 234.87 202.67 C 235.33 204.10 235.79 205.54 236.25 206.98 C 254.16 205.38 272.17 204.77 290.14 205.53 C 290.75 203.54 291.36 201.56 291.96 199.57 C 292.60 197.57 293.27 195.58 293.93 193.58 L 294.06 193.59 C 294.51 192.21 294.96 190.84 295.42 189.47 C 274.30 189.47 253.20 191.57 232.59 196.22 M 309.17 190.18 C 308.97 190.84 308.57 192.17 308.37 192.83 L 308.19 192.81 C 307.78 193.74 307.38 194.67 306.98 195.61 C 306.53 196.75 306.09 197.90 305.65 199.04 C 305.31 199.86 304.97 200.68 304.63 201.51 C 304.02 203.07 303.41 204.64 302.80 206.20 C 334.77 208.97 366.65 216.23 395.57 230.41 C 431.68 247.69 462.14 275.80 483.61 309.47 C 484.88 311.27 487.25 314.93 489.59 312.47 C 492.58 306.10 491.51 298.69 490.89 291.91 C 489.23 277.34 479.59 265.42 469.67 255.33 C 454.32 240.35 436.10 228.64 417.01 219.02 C 383.44 202.43 346.56 192.48 309.17 190.18 M 205.81 199.89 C 210.27 198.37 214.70 196.73 219.16 195.20 C 218.68 194.09 218.20 192.99 217.73 191.90 C 213.70 194.47 209.61 196.98 205.81 199.89 M 195.63 208.03 C 193.82 211.89 200.29 210.46 202.48 210.28 C 209.95 210.02 217.34 208.82 224.77 208.08 C 224.26 207.01 223.71 205.97 223.13 204.95 C 222.73 203.76 222.32 202.58 221.91 201.40 C 221.68 200.91 221.21 199.92 220.98 199.43 C 212.44 201.95 203.67 204.15 195.63 208.03 M 241.11 225.49 C 241.43 228.99 241.54 232.51 241.54 236.03 C 241.01 238.83 239.57 241.26 237.56 243.24 C 237.11 240.97 236.46 238.75 235.63 236.59 C 234.36 233.27 233.17 229.93 231.94 226.59 C 206.77 229.89 182.09 237.04 159.13 247.88 C 158.75 247.39 158.00 246.40 157.62 245.90 C 155.88 246.90 154.14 247.89 152.40 248.88 C 159.21 249.02 165.98 250.03 172.57 251.72 C 178.11 253.35 183.51 255.50 188.39 258.60 L 188.55 258.52 C 191.30 260.59 193.93 262.82 196.31 265.31 C 202.54 272.67 203.54 283.32 199.86 292.08 C 193.16 308.54 179.31 321.96 162.63 328.13 C 156.03 330.44 149.12 331.82 142.13 332.13 C 134.25 332.43 126.35 331.31 118.86 328.87 C 113.43 326.90 108.37 324.07 103.80 320.54 C 104.49 328.27 106.64 335.83 110.09 342.78 C 106.96 344.26 102.81 347.86 105.58 351.54 C 109.30 355.46 115.00 356.48 120.10 357.47 C 133.67 374.22 151.88 386.56 170.96 396.24 C 186.63 404.18 203.12 410.47 220.16 414.79 C 218.70 410.25 217.64 405.60 216.71 400.93 C 215.88 396.76 215.44 392.49 214.30 388.39 C 210.52 385.41 207.60 381.48 206.73 376.65 C 206.58 373.40 207.02 370.10 208.73 367.29 C 208.35 370.84 207.97 374.45 208.88 377.97 C 211.04 382.78 215.65 386.39 220.93 386.98 C 224.02 387.33 226.84 385.79 229.51 384.48 C 232.80 382.61 236.17 380.46 240.05 380.21 C 244.35 380.45 246.25 384.87 248.42 387.93 L 248.52 387.94 C 252.80 392.78 259.27 396.33 265.88 395.39 C 269.33 394.95 272.18 392.80 274.63 390.48 C 276.77 387.81 278.51 384.84 279.81 381.68 C 279.98 381.66 280.32 381.60 280.49 381.58 C 280.34 388.55 275.42 394.46 269.31 397.34 C 268.73 400.34 267.75 403.23 266.85 406.14 C 264.45 410.91 261.92 415.62 258.81 419.98 C 257.41 421.00 259.33 421.22 259.98 421.31 C 270.31 422.26 280.69 422.70 291.07 423.00 C 317.08 423.79 343.32 423.40 368.96 418.43 C 386.84 414.94 404.42 409.59 421.01 402.01 C 433.99 395.86 446.57 387.96 455.75 376.72 C 463.99 366.27 467.68 351.96 464.05 338.98 C 461.10 329.08 456.47 319.74 451.07 310.96 C 452.70 317.11 454.22 323.49 453.26 329.89 C 452.93 333.90 451.24 337.57 449.84 341.27 L 449.86 342.04 L 449.39 342.05 C 444.94 349.26 438.31 354.95 430.65 358.53 C 404.74 370.53 371.52 363.85 352.31 342.69 C 344.03 333.39 336.38 321.99 336.54 309.06 C 336.76 298.62 344.16 289.88 352.94 285.02 C 367.68 276.77 385.19 274.77 401.80 276.25 C 409.07 277.23 416.37 278.70 423.04 281.88 C 425.34 282.98 427.70 283.95 430.13 284.75 C 423.57 277.31 415.89 270.98 408.12 264.86 C 406.00 263.24 403.72 261.85 401.42 260.52 C 368.94 241.75 332.45 230.17 295.22 225.97 C 294.08 229.06 292.95 232.15 291.81 235.24 C 290.71 238.26 289.68 241.30 288.72 244.38 C 286.12 241.87 285.27 238.33 284.89 234.87 C 285.03 231.59 285.27 228.33 285.60 225.07 C 270.79 223.97 255.90 224.15 241.11 225.49 M 688.97 256.66 C 685.76 259.30 682.58 261.98 679.18 264.38 C 683.65 272.22 681.88 281.63 680.60 290.08 C 681.88 288.56 683.15 287.02 684.44 285.50 C 684.55 286.32 684.77 287.95 684.89 288.77 C 687.17 287.98 689.42 286.66 690.36 284.31 C 693.09 278.29 694.45 271.63 694.30 265.02 C 694.41 260.93 692.91 256.97 693.33 252.87 C 691.86 254.12 690.40 255.37 688.97 256.66 M 112.00 263.12 C 104.11 267.69 97.15 274.96 95.34 284.16 C 93.25 295.13 97.58 306.90 105.61 314.51 C 110.72 319.51 117.52 322.45 124.49 323.74 L 124.54 323.92 C 128.77 324.21 133.16 325.57 137.34 324.44 C 151.93 324.02 166.24 318.55 177.90 309.86 C 186.61 303.20 194.21 293.44 194.28 282.01 C 194.61 276.36 191.24 271.42 187.65 267.40 C 179.89 259.30 168.65 255.65 157.76 254.36 C 142.14 252.74 125.72 255.19 112.00 263.12 M 658.87 277.99 C 652.32 281.93 645.64 285.66 638.90 289.28 C 642.04 301.37 639.78 314.30 634.86 325.61 C 636.87 324.24 638.80 322.75 640.61 321.13 C 643.82 324.51 648.46 321.64 651.70 319.78 C 666.56 310.59 670.35 289.95 665.00 274.28 C 662.98 275.55 660.93 276.78 658.87 277.99 M 375.43 282.57 C 368.63 283.59 361.79 285.34 355.75 288.72 C 348.72 293.76 343.39 302.05 343.75 310.94 C 344.09 319.54 348.89 327.20 354.40 333.51 C 364.58 344.65 378.01 353.46 393.05 356.06 C 404.40 357.81 416.57 357.52 427.01 352.25 C 436.67 347.59 445.64 339.67 448.27 328.90 C 450.72 319.38 449.94 307.76 442.33 300.71 C 433.19 292.20 421.38 286.81 409.20 284.37 C 398.14 282.00 386.68 280.99 375.43 282.57 M 619.15 299.36 C 611.44 302.86 603.77 306.43 596.04 309.88 C 599.05 322.35 596.47 335.58 590.07 346.57 C 591.69 345.58 593.97 345.21 595.23 343.74 C 597.85 345.44 601.08 345.23 603.99 344.46 C 609.68 342.91 615.10 340.39 620.01 337.12 C 617.18 335.05 613.57 331.62 616.71 328.10 C 620.28 328.50 623.87 328.82 627.44 329.35 C 631.89 323.32 636.27 315.80 634.50 308.04 C 632.42 303.13 628.40 298.85 623.17 297.35 C 621.82 298.02 620.50 298.70 619.15 299.36 M 575.34 318.44 L 575.13 318.81 C 567.24 321.20 559.70 324.57 551.88 327.18 C 553.67 338.63 551.36 350.68 545.80 360.82 C 543.38 362.35 548.41 363.19 547.40 360.83 C 547.96 360.81 549.06 360.78 549.61 360.76 C 549.74 362.84 552.22 363.37 553.91 363.25 C 560.61 362.70 566.93 359.95 572.77 356.74 C 570.87 355.17 568.61 353.82 567.40 351.61 C 566.57 350.05 567.62 348.43 568.01 346.92 C 572.80 347.06 577.57 347.56 582.30 348.34 C 587.19 342.55 590.85 334.88 589.39 327.14 C 588.59 323.38 587.29 319.15 583.81 317.04 C 580.98 315.49 578.00 317.48 575.34 318.44 M 527.71 335.25 C 512.63 338.58 497.30 343.53 481.67 341.06 C 483.04 351.39 481.46 361.94 477.73 371.64 C 475.77 372.78 479.35 374.28 479.83 372.51 L 481.05 373.19 C 482.32 376.83 486.35 378.17 489.85 378.54 C 498.83 379.41 507.81 377.44 516.34 374.78 C 514.28 372.86 511.55 371.04 511.14 368.02 C 511.43 366.73 512.06 365.56 512.62 364.38 C 518.81 364.62 524.93 365.63 531.07 366.35 C 539.44 360.09 544.71 349.42 543.92 338.91 C 543.82 336.09 541.91 333.24 538.97 332.86 C 535.10 332.30 531.21 333.75 527.71 335.25 M 229.36 387.31 C 225.52 389.58 220.85 389.82 216.55 389.06 C 219.48 396.24 220.68 403.94 222.55 411.43 C 224.69 418.78 227.29 427.69 235.13 430.76 C 240.29 433.14 246.19 430.83 250.04 427.10 C 256.09 421.26 259.81 413.54 263.40 406.06 C 264.62 403.40 265.83 400.75 267.07 398.11 C 261.54 398.14 256.12 396.41 251.38 393.64 C 246.74 390.78 245.67 383.89 239.95 382.52 C 235.86 382.46 232.78 385.54 229.36 387.31 Z" />
</g>
<g id="#bf7c04ff">
<path fill="#bf7c04" opacity="1.00" d=" M 503.67 45.80 C 507.41 35.86 516.95 27.62 527.92 27.70 C 539.87 27.40 550.44 37.11 552.88 48.50 C 549.44 42.88 544.75 37.30 537.96 35.95 C 533.06 34.48 528.18 36.39 523.70 38.24 C 521.83 38.86 519.73 38.95 518.06 40.02 C 515.87 41.95 516.22 45.17 515.48 47.75 C 513.37 53.59 512.31 59.96 513.97 66.07 C 515.82 73.14 521.09 79.63 528.28 81.67 C 534.49 83.57 541.77 81.89 546.21 77.05 C 548.45 74.87 550.36 72.38 552.05 69.75 C 549.12 78.29 541.98 85.58 533.11 87.77 C 525.86 89.66 517.86 87.63 512.15 82.84 C 501.55 74.12 498.73 58.28 503.67 45.80 Z" />
<path fill="#bf7c04" opacity="1.00" d=" M 16.16 69.16 C 25.06 64.21 37.08 65.54 44.49 72.60 C 50.14 77.69 52.95 85.65 51.81 93.16 C 50.59 102.86 42.60 111.13 33.02 112.93 C 22.47 115.36 10.25 109.77 6.11 99.56 C 7.59 101.20 9.14 102.79 10.83 104.22 C 19.23 112.08 34.56 108.74 39.38 98.41 C 42.26 93.32 41.23 87.35 39.70 82.02 C 39.08 80.12 39.13 77.78 37.67 76.27 C 36.01 75.27 34.05 74.97 32.24 74.35 C 27.82 72.74 23.09 71.20 18.36 72.50 C 12.63 73.54 8.26 77.77 5.11 82.44 C 6.86 76.77 10.94 71.94 16.16 69.16 Z" />
<path fill="#bf7c04" opacity="1.00" d=" M 548.57 111.36 C 551.18 111.71 553.69 112.61 556.22 113.33 C 528.87 115.44 502.03 121.75 475.87 129.79 C 433.85 142.72 393.32 159.93 352.90 177.12 C 347.43 179.36 341.77 181.31 335.88 182.12 C 328.19 183.33 320.40 182.58 312.67 182.16 C 313.88 179.37 315.07 176.58 316.21 173.76 L 316.37 173.76 C 330.46 173.66 344.65 171.53 358.01 166.99 C 368.14 162.96 378.04 158.34 388.14 154.21 C 416.14 142.52 444.67 131.97 473.90 123.76 C 498.24 116.98 523.23 111.89 548.57 111.36 Z" />
<path fill="#bf7c04" opacity="1.00" d=" M 493.00 130.04 C 520.36 124.50 548.67 122.44 576.39 126.43 C 587.02 128.06 597.70 130.22 607.71 134.24 C 623.83 143.08 638.82 154.20 651.40 167.66 C 661.70 178.88 670.85 191.90 674.36 206.95 C 675.91 214.53 675.93 222.96 671.84 229.78 C 669.35 234.26 665.08 237.31 660.73 239.80 C 642.78 250.40 623.85 259.18 604.94 267.90 C 577.93 280.10 550.65 291.76 522.88 302.17 C 515.48 304.81 508.14 307.79 500.37 309.16 C 502.03 305.61 504.27 302.13 504.26 298.06 C 504.58 288.02 499.63 278.77 494.32 270.58 C 484.69 256.20 471.90 244.24 458.25 233.74 C 440.07 219.94 419.89 208.82 398.66 200.46 C 394.19 198.69 389.73 195.48 388.46 190.60 C 387.31 185.37 390.05 180.31 393.27 176.39 C 401.18 166.92 411.88 160.36 422.59 154.51 C 444.68 142.92 468.62 135.12 493.00 130.04 M 409.03 168.14 C 404.15 172.00 401.09 178.84 403.04 184.99 C 404.51 189.88 408.00 193.85 411.75 197.19 C 421.20 205.41 432.68 210.67 443.80 216.18 C 456.67 223.04 467.88 232.58 478.61 242.36 C 490.06 253.29 501.13 264.84 509.77 278.17 C 512.46 282.35 514.91 287.04 514.30 292.18 C 532.02 285.19 549.06 276.61 566.07 268.07 C 582.80 259.54 599.33 250.51 615.03 240.18 C 621.69 235.58 628.48 230.92 633.74 224.70 C 638.86 218.26 642.96 210.94 645.26 203.02 C 649.06 190.53 647.61 176.43 640.84 165.21 C 633.86 153.28 622.31 144.60 609.72 139.27 C 590.18 131.27 569.03 127.75 547.99 127.28 C 499.01 126.48 449.49 140.25 409.03 168.14 Z" />
<path fill="#bf7c04" opacity="1.00" d=" M 264.03 177.96 C 276.25 175.39 288.77 174.68 301.23 174.75 C 300.25 177.16 299.27 179.56 298.28 181.96 C 275.44 182.33 252.68 185.70 230.67 191.78 C 230.18 190.59 229.69 189.40 229.21 188.21 C 240.70 184.42 252.13 180.29 264.03 177.96 Z" />
<path fill="#bf7c04" opacity="1.00" d=" M 232.59 196.22 C 253.20 191.57 274.30 189.47 295.42 189.47 C 294.96 190.84 294.51 192.21 294.06 193.59 L 293.93 193.58 C 278.88 192.86 263.87 194.15 248.97 196.15 C 243.72 196.60 238.44 197.01 233.31 198.28 L 233.08 198.33 C 232.96 197.80 232.71 196.75 232.59 196.22 Z" />
<path fill="#bf7c04" opacity="1.00" d=" M 309.17 190.18 C 346.56 192.48 383.44 202.43 417.01 219.02 C 436.10 228.64 454.32 240.35 469.67 255.33 C 479.59 265.42 489.23 277.34 490.89 291.91 C 491.51 298.69 492.58 306.10 489.59 312.47 C 487.25 314.93 484.88 311.27 483.61 309.47 C 462.14 275.80 431.68 247.69 395.57 230.41 C 366.65 216.23 334.77 208.97 302.80 206.20 C 303.41 204.64 304.02 203.07 304.63 201.51 C 352.71 206.15 399.46 222.82 440.15 248.74 C 446.14 252.35 451.48 256.92 457.48 260.50 C 453.31 255.06 447.99 250.68 442.91 246.12 C 417.66 224.15 387.00 208.69 354.61 200.48 C 339.47 196.43 323.89 194.66 308.37 192.83 C 308.57 192.17 308.97 190.84 309.17 190.18 Z" />
<path fill="#bf7c04" opacity="1.00" d=" M 205.81 199.89 C 209.61 196.98 213.70 194.47 217.73 191.90 C 218.20 192.99 218.68 194.09 219.16 195.20 C 214.70 196.73 210.27 198.37 205.81 199.89 Z" />
<path fill="#bf7c04" opacity="1.00" d=" M 234.87 202.67 C 243.49 201.09 252.24 200.53 260.94 199.58 C 271.28 199.43 281.62 199.56 291.96 199.57 C 291.36 201.56 290.75 203.54 290.14 205.53 C 272.17 204.77 254.16 205.38 236.25 206.98 C 235.79 205.54 235.33 204.10 234.87 202.67 Z" />
<path fill="#bf7c04" opacity="1.00" d=" M 207.26 207.90 C 212.54 206.86 217.77 205.51 223.13 204.95 C 223.71 205.97 224.26 207.01 224.77 208.08 C 217.34 208.82 209.95 210.02 202.48 210.28 C 204.08 209.51 205.65 208.66 207.26 207.90 Z" />
<path fill="#bf7c04" opacity="1.00" d=" M 241.11 225.49 C 255.90 224.15 270.79 223.97 285.60 225.07 C 285.27 228.33 285.03 231.59 284.89 234.87 C 270.43 234.49 255.95 234.73 241.54 236.03 C 241.54 232.51 241.43 228.99 241.11 225.49 Z" />
<path fill="#bf7c04" opacity="1.00" d=" M 295.22 225.97 C 332.45 230.17 368.94 241.75 401.42 260.52 C 403.72 261.85 406.00 263.24 408.12 264.86 C 415.89 270.98 423.57 277.31 430.13 284.75 C 427.70 283.95 425.34 282.98 423.04 281.88 C 416.37 278.70 409.07 277.23 401.80 276.25 C 396.25 270.64 389.60 266.29 382.96 262.09 C 355.61 245.24 323.58 237.64 291.81 235.24 C 292.95 232.15 294.08 229.06 295.22 225.97 Z" />
<path fill="#bf7c04" opacity="1.00" d=" M 159.13 247.88 C 182.09 237.04 206.77 229.89 231.94 226.59 C 233.17 229.93 234.36 233.27 235.63 236.59 C 214.22 239.55 192.54 243.11 172.57 251.72 C 165.98 250.03 159.21 249.02 152.40 248.88 C 154.14 247.89 155.88 246.90 157.62 245.90 C 158.00 246.40 158.75 247.39 159.13 247.88 Z" />
<path fill="#bf7c04" opacity="1.00" d=" M 110.75 258.18 C 115.50 254.30 120.16 250.29 125.35 247.01 C 120.38 250.59 116.79 256.27 110.75 258.18 Z" />
<path fill="#bf7c04" opacity="1.00" d=" M 89.80 294.98 C 90.64 286.46 94.17 278.37 99.20 271.50 C 95.12 278.94 93.12 287.22 89.80 294.98 Z" />
<path fill="#bf7c04" opacity="1.00" d=" M 451.07 310.96 C 456.47 319.74 461.10 329.08 464.05 338.98 C 467.68 351.96 463.99 366.27 455.75 376.72 C 446.57 387.96 433.99 395.86 421.01 402.01 C 404.42 409.59 386.84 414.94 368.96 418.43 C 343.32 423.40 317.08 423.79 291.07 423.00 C 280.69 422.70 270.31 422.26 259.98 421.31 C 259.33 421.22 257.41 421.00 258.81 419.98 C 261.92 415.62 264.45 410.91 266.85 406.14 C 266.71 406.65 266.42 407.66 266.28 408.17 C 295.74 410.41 325.45 408.98 354.64 404.56 C 371.92 401.68 389.31 398.36 405.65 391.92 C 410.68 391.60 417.61 392.27 419.91 386.57 C 429.30 381.96 438.82 376.78 445.56 368.56 C 451.60 361.28 452.57 350.88 449.86 342.04 L 449.84 341.27 C 451.24 337.57 452.93 333.90 453.26 329.89 C 454.22 323.49 452.70 317.11 451.07 310.96 Z" />
<path fill="#bf7c04" opacity="1.00" d=" M 103.80 320.54 C 108.37 324.07 113.43 326.90 118.86 328.87 C 120.15 332.21 121.51 335.51 122.95 338.79 C 118.54 339.64 114.14 340.80 110.09 342.78 C 106.64 335.83 104.49 328.27 103.80 320.54 Z" />
<path fill="#bf7c04" opacity="1.00" d=" M 120.10 357.47 C 126.37 358.40 132.72 358.37 139.05 358.21 C 138.45 358.33 137.26 358.56 136.66 358.68 C 143.74 366.92 152.52 373.55 161.70 379.28 C 178.62 389.62 197.54 396.21 216.71 400.93 C 217.64 405.60 218.70 410.25 220.16 414.79 C 203.12 410.47 186.63 404.18 170.96 396.24 C 151.88 386.56 133.67 374.22 120.10 357.47 Z" />
</g>
<g id="#dfbe02ff">
<path fill="#dfbe02" opacity="1.00" d=" M 523.70 38.24 C 528.18 36.39 533.06 34.48 537.96 35.95 C 544.75 37.30 549.44 42.88 552.88 48.50 C 554.45 53.29 554.63 58.50 553.71 63.45 C 552.79 58.19 551.55 52.32 547.09 48.85 C 542.45 44.95 535.24 44.79 530.43 48.46 C 521.32 55.05 521.42 70.93 531.21 76.84 C 535.71 79.89 541.43 78.74 546.21 77.05 C 541.77 81.89 534.49 83.57 528.28 81.67 C 521.09 79.63 515.82 73.14 513.97 66.07 C 512.31 59.96 513.37 53.59 515.48 47.75 C 517.33 49.21 518.93 51.85 521.60 51.59 C 525.66 51.21 528.15 46.20 526.38 42.63 C 525.61 41.09 524.61 39.68 523.70 38.24 Z" />
<path fill="#dfbe02" opacity="1.00" d=" M 18.36 72.50 C 23.09 71.20 27.82 72.74 32.24 74.35 C 31.22 75.91 30.03 77.38 29.33 79.12 C 28.41 82.69 32.52 86.21 35.90 84.74 C 37.28 84.00 38.46 82.96 39.70 82.02 C 41.23 87.35 42.26 93.32 39.38 98.41 C 34.56 108.74 19.23 112.08 10.83 104.22 C 15.80 105.82 21.75 106.48 26.16 103.08 C 31.90 99.24 33.37 90.45 28.86 85.11 C 24.29 78.80 14.14 78.21 8.69 83.66 C 5.68 86.34 4.83 90.49 4.26 94.30 C 3.47 90.36 3.72 86.21 5.11 82.44 C 8.26 77.77 12.63 73.54 18.36 72.50 Z" />
<path fill="#dfbe02" opacity="1.00" d=" M 409.03 168.14 C 449.49 140.25 499.01 126.48 547.99 127.28 C 569.03 127.75 590.18 131.27 609.72 139.27 C 622.31 144.60 633.86 153.28 640.84 165.21 C 647.61 176.43 649.06 190.53 645.26 203.02 C 642.96 210.94 638.86 218.26 633.74 224.70 C 628.48 230.92 621.69 235.58 615.03 240.18 C 599.33 250.51 582.80 259.54 566.07 268.07 C 549.06 276.61 532.02 285.19 514.30 292.18 C 514.91 287.04 512.46 282.35 509.77 278.17 C 501.13 264.84 490.06 253.29 478.61 242.36 C 467.88 232.58 456.67 223.04 443.80 216.18 C 432.68 210.67 421.20 205.41 411.75 197.19 C 408.00 193.85 404.51 189.88 403.04 184.99 C 401.09 178.84 404.15 172.00 409.03 168.14 M 520.07 131.76 C 498.06 133.77 475.88 138.13 455.87 147.82 C 444.25 152.35 432.74 157.93 423.41 166.35 C 419.01 170.60 414.86 176.52 416.22 182.96 C 418.05 189.65 424.36 193.64 430.02 196.91 C 441.49 202.51 453.50 206.85 465.27 211.75 C 472.65 214.92 479.54 219.21 485.72 224.34 C 490.20 228.25 494.07 232.81 498.45 236.84 C 501.49 226.69 509.39 218.52 518.63 213.66 C 534.83 204.91 553.21 201.80 571.04 198.06 C 586.53 195.44 602.63 193.98 616.97 187.05 C 622.41 184.49 626.96 179.25 626.98 173.00 C 626.96 162.37 620.79 152.77 613.32 145.66 C 609.97 142.22 605.29 140.81 600.90 139.24 C 586.10 134.19 570.50 131.93 554.94 130.93 C 543.32 130.87 531.64 130.37 520.07 131.76 Z" />
<path fill="#dfbe02" opacity="1.00" d=" M 308.19 192.81 L 308.37 192.83 C 323.89 194.66 339.47 196.43 354.61 200.48 C 387.00 208.69 417.66 224.15 442.91 246.12 C 447.99 250.68 453.31 255.06 457.48 260.50 C 451.48 256.92 446.14 252.35 440.15 248.74 C 399.46 222.82 352.71 206.15 304.63 201.51 C 304.97 200.68 305.31 199.86 305.65 199.04 C 336.78 202.26 367.06 210.87 396.39 221.52 C 401.57 223.30 406.65 225.39 411.93 226.87 C 396.88 219.22 381.76 211.48 365.60 206.39 C 346.68 200.03 326.82 197.13 306.98 195.61 C 307.38 194.67 307.78 193.74 308.19 192.81 Z" />
<path fill="#dfbe02" opacity="1.00" d=" M 195.63 208.03 C 203.67 204.15 212.44 201.95 220.98 199.43 C 221.21 199.92 221.68 200.91 221.91 201.40 C 214.31 203.32 206.21 204.15 199.27 208.04 C 201.93 208.09 204.60 208.08 207.26 207.90 C 205.65 208.66 204.08 209.51 202.48 210.28 C 200.29 210.46 193.82 211.89 195.63 208.03 Z" />
<path fill="#dfbe02" opacity="1.00" d=" M 241.54 236.03 C 255.95 234.73 270.43 234.49 284.89 234.87 C 285.27 238.33 286.12 241.87 288.72 244.38 C 289.68 241.30 290.71 238.26 291.81 235.24 C 323.58 237.64 355.61 245.24 382.96 262.09 C 389.60 266.29 396.25 270.64 401.80 276.25 C 385.19 274.77 367.68 276.77 352.94 285.02 C 344.16 289.88 336.76 298.62 336.54 309.06 C 336.38 321.99 344.03 333.39 352.31 342.69 C 371.52 363.85 404.74 370.53 430.65 358.53 C 438.31 354.95 444.94 349.26 449.39 342.05 L 449.86 342.04 C 452.57 350.88 451.60 361.28 445.56 368.56 C 438.82 376.78 429.30 381.96 419.91 386.57 C 417.99 383.70 415.74 380.97 412.73 379.19 C 403.66 373.38 393.34 369.86 383.00 367.07 C 373.18 364.59 363.04 362.67 352.87 363.39 C 349.90 363.72 346.30 364.18 344.61 367.00 C 343.92 369.80 346.28 372.05 348.17 373.74 C 353.78 378.30 360.52 381.17 367.21 383.76 C 379.54 388.27 392.50 391.38 405.65 391.92 C 389.31 398.36 371.92 401.68 354.64 404.56 C 325.45 408.98 295.74 410.41 266.28 408.17 C 266.42 407.66 266.71 406.65 266.85 406.14 C 267.75 403.23 268.73 400.34 269.31 397.34 C 275.42 394.46 280.34 388.55 280.49 381.58 C 280.32 381.60 279.98 381.66 279.81 381.68 C 269.75 370.33 260.94 357.11 258.32 341.90 C 256.18 332.30 257.75 322.27 261.05 313.11 C 261.75 311.00 262.95 309.07 264.69 307.67 C 271.57 308.47 278.79 305.49 282.55 299.57 C 286.19 294.26 286.13 287.33 284.00 281.46 C 286.59 279.59 289.28 277.86 291.73 275.79 C 292.29 278.94 292.36 282.74 295.24 284.80 C 299.79 288.63 307.87 285.98 308.87 279.99 C 310.00 275.49 306.96 271.21 302.83 269.66 C 302.77 269.31 302.64 268.62 302.57 268.27 C 313.08 262.58 323.99 257.26 335.94 255.49 C 316.16 251.06 296.27 246.63 276.00 245.13 C 257.40 244.34 238.60 244.43 220.33 248.44 C 209.53 251.05 198.60 253.66 188.55 258.52 L 188.39 258.60 C 183.51 255.50 178.11 253.35 172.57 251.72 C 192.54 243.11 214.22 239.55 235.63 236.59 C 236.46 238.75 237.11 240.97 237.56 243.24 C 239.57 241.26 241.01 238.83 241.54 236.03 Z" />
<path fill="#dfbe02" opacity="1.00" d=" M 118.86 328.87 C 126.35 331.31 134.25 332.43 142.13 332.13 C 143.23 333.96 144.33 335.80 145.41 337.64 C 137.91 337.23 130.35 337.46 122.95 338.79 C 121.51 335.51 120.15 332.21 118.86 328.87 Z" />
<path fill="#dfbe02" opacity="1.00" d=" M 139.05 358.21 C 146.41 357.45 153.83 356.31 160.66 353.34 C 168.74 360.53 178.75 364.88 188.31 369.68 C 194.29 372.39 200.31 375.14 206.73 376.65 C 207.60 381.48 210.52 385.41 214.30 388.39 C 215.44 392.49 215.88 396.76 216.71 400.93 C 197.54 396.21 178.62 389.62 161.70 379.28 C 152.52 373.55 143.74 366.92 136.66 358.68 C 137.26 358.56 138.45 358.33 139.05 358.21 Z" />
<path fill="#dfbe02" opacity="1.00" d=" M 208.88 377.97 C 215.75 380.16 222.83 381.73 229.51 384.48 C 226.84 385.79 224.02 387.33 220.93 386.98 C 215.65 386.39 211.04 382.78 208.88 377.97 Z" />
<path fill="#dfbe02" opacity="1.00" d=" M 248.52 387.94 C 257.22 388.83 265.93 389.62 274.63 390.48 C 272.18 392.80 269.33 394.95 265.88 395.39 C 259.27 396.33 252.80 392.78 248.52 387.94 Z" />
</g>
<g id="#fcf218ff">
<path fill="#fcf218" opacity="1.00" d=" M 518.06 40.02 C 519.73 38.95 521.83 38.86 523.70 38.24 C 524.61 39.68 525.61 41.09 526.38 42.63 C 528.15 46.20 525.66 51.21 521.60 51.59 C 518.93 51.85 517.33 49.21 515.48 47.75 C 516.22 45.17 515.87 41.95 518.06 40.02 Z" />
<path fill="#fcf218" opacity="1.00" d=" M 530.43 48.46 C 535.24 44.79 542.45 44.95 547.09 48.85 C 551.55 52.32 552.79 58.19 553.71 63.45 C 553.43 65.61 552.85 67.73 552.05 69.75 C 550.36 72.38 548.45 74.87 546.21 77.05 C 541.43 78.74 535.71 79.89 531.21 76.84 C 521.42 70.93 521.32 55.05 530.43 48.46 Z" />
<path fill="#fcf218" opacity="1.00" d=" M 32.24 74.35 C 34.05 74.97 36.01 75.27 37.67 76.27 C 39.13 77.78 39.08 80.12 39.70 82.02 C 38.46 82.96 37.28 84.00 35.90 84.74 C 32.52 86.21 28.41 82.69 29.33 79.12 C 30.03 77.38 31.22 75.91 32.24 74.35 Z" />
<path fill="#fcf218" opacity="1.00" d=" M 8.69 83.66 C 14.14 78.21 24.29 78.80 28.86 85.11 C 33.37 90.45 31.90 99.24 26.16 103.08 C 21.75 106.48 15.80 105.82 10.83 104.22 C 9.14 102.79 7.59 101.20 6.11 99.56 C 5.22 97.92 4.69 96.11 4.26 94.30 C 4.83 90.49 5.68 86.34 8.69 83.66 Z" />
<path fill="#fcf218" opacity="1.00" d=" M 427.02 111.96 C 439.90 109.52 453.06 109.24 466.12 108.52 C 479.48 108.05 492.90 107.51 506.24 108.45 C 498.94 110.71 491.38 111.94 484.03 114.00 C 465.98 118.83 447.89 123.54 430.10 129.24 C 406.54 137.51 383.57 147.36 360.89 157.77 C 348.17 163.44 334.10 166.49 320.15 165.30 C 324.17 156.75 328.15 148.18 332.60 139.85 C 350.22 134.05 367.13 126.21 384.93 120.92 C 398.73 116.94 412.91 114.57 427.02 111.96 Z" />
<path fill="#fcf218" opacity="1.00" d=" M 490.92 142.06 C 510.98 137.85 531.61 135.12 552.11 137.25 C 564.12 138.50 575.59 143.02 585.97 149.06 C 590.42 151.83 595.16 155.50 596.11 160.99 C 596.90 165.86 593.09 169.87 589.45 172.49 C 581.21 178.25 570.81 178.57 561.29 180.51 C 546.99 183.51 532.30 184.10 518.05 187.30 C 508.93 189.21 499.35 191.09 491.67 196.68 C 488.69 198.73 487.13 202.06 486.05 205.39 C 476.25 197.20 464.79 190.56 452.13 188.15 C 447.05 187.08 441.63 185.93 437.65 182.36 C 434.92 179.89 435.17 175.67 436.60 172.57 C 439.29 166.65 444.45 162.36 449.61 158.63 C 462.02 150.27 476.40 145.30 490.92 142.06 Z" />
<path fill="#fcf218" opacity="1.00" d=" M 287.55 163.86 C 295.79 158.97 304.02 154.05 312.53 149.65 C 310.27 154.81 307.73 159.85 305.42 164.99 C 299.46 164.70 293.43 165.13 287.55 163.86 Z" />
<path fill="#fcf218" opacity="1.00" d=" M 248.97 196.15 C 263.87 194.15 278.88 192.86 293.93 193.58 C 293.27 195.58 292.60 197.57 291.96 199.57 C 281.62 199.56 271.28 199.43 260.94 199.58 C 252.24 200.53 243.49 201.09 234.87 202.67 C 234.34 201.20 233.82 199.74 233.31 198.28 C 238.44 197.01 243.72 196.60 248.97 196.15 Z" />
<path fill="#fcf218" opacity="1.00" d=" M 305.65 199.04 C 306.09 197.90 306.53 196.75 306.98 195.61 C 326.82 197.13 346.68 200.03 365.60 206.39 C 381.76 211.48 396.88 219.22 411.93 226.87 C 406.65 225.39 401.57 223.30 396.39 221.52 C 367.06 210.87 336.78 202.26 305.65 199.04 Z" />
<path fill="#fcf218" opacity="1.00" d=" M 199.27 208.04 C 206.21 204.15 214.31 203.32 221.91 201.40 C 222.32 202.58 222.73 203.76 223.13 204.95 C 217.77 205.51 212.54 206.86 207.26 207.90 C 204.60 208.08 201.93 208.09 199.27 208.04 Z" />
<path fill="#fcf218" opacity="1.00" d=" M 196.31 265.31 C 215.89 257.24 236.94 253.07 258.03 251.76 C 271.14 251.43 284.76 250.71 297.25 255.49 C 288.28 260.86 278.29 264.56 270.11 271.23 C 275.92 272.67 281.00 276.24 284.00 281.46 C 286.13 287.33 286.19 294.26 282.55 299.57 C 278.79 305.49 271.57 308.47 264.69 307.67 C 261.34 306.96 257.96 305.83 255.36 303.53 C 252.04 300.81 250.50 296.68 248.73 292.91 C 239.51 307.02 237.73 324.93 241.72 341.08 C 243.82 351.43 248.57 360.90 252.09 370.78 C 234.57 369.79 217.56 364.52 201.71 357.20 C 187.06 350.12 172.51 341.35 162.63 328.13 C 179.31 321.96 193.16 308.54 199.86 292.08 C 203.54 283.32 202.54 272.67 196.31 265.31 Z" />
</g>
<g id="#e8d100ff">
<path fill="#e8d100" opacity="1.00" d=" M 344.50 127.65 C 397.89 108.75 455.24 98.89 511.85 104.81 C 524.21 106.18 536.54 108.15 548.57 111.36 C 523.23 111.89 498.24 116.98 473.90 123.76 C 444.67 131.97 416.14 142.52 388.14 154.21 C 378.04 158.34 368.14 162.96 358.01 166.99 C 344.65 171.53 330.46 173.66 316.37 173.76 C 317.58 170.92 318.86 168.11 320.15 165.30 C 334.10 166.49 348.17 163.44 360.89 157.77 C 383.57 147.36 406.54 137.51 430.10 129.24 C 447.89 123.54 465.98 118.83 484.03 114.00 C 491.38 111.94 498.94 110.71 506.24 108.45 C 492.90 107.51 479.48 108.05 466.12 108.52 C 453.06 109.24 439.90 109.52 427.02 111.96 C 412.91 114.57 398.73 116.94 384.93 120.92 C 367.13 126.21 350.22 134.05 332.60 139.85 C 334.23 136.69 335.72 133.45 337.63 130.45 C 339.67 129.03 342.20 128.55 344.50 127.65 Z" />
<path fill="#e8d100" opacity="1.00" d=" M 520.07 131.76 C 531.64 130.37 543.32 130.87 554.94 130.93 C 570.50 131.93 586.10 134.19 600.90 139.24 C 605.29 140.81 609.97 142.22 613.32 145.66 C 620.79 152.77 626.96 162.37 626.98 173.00 C 626.96 179.25 622.41 184.49 616.97 187.05 C 602.63 193.98 586.53 195.44 571.04 198.06 C 553.21 201.80 534.83 204.91 518.63 213.66 C 509.39 218.52 501.49 226.69 498.45 236.84 C 494.07 232.81 490.20 228.25 485.72 224.34 C 479.54 219.21 472.65 214.92 465.27 211.75 C 453.50 206.85 441.49 202.51 430.02 196.91 C 424.36 193.64 418.05 189.65 416.22 182.96 C 414.86 176.52 419.01 170.60 423.41 166.35 C 432.74 157.93 444.25 152.35 455.87 147.82 C 475.88 138.13 498.06 133.77 520.07 131.76 M 490.92 142.06 C 476.40 145.30 462.02 150.27 449.61 158.63 C 444.45 162.36 439.29 166.65 436.60 172.57 C 435.17 175.67 434.92 179.89 437.65 182.36 C 441.63 185.93 447.05 187.08 452.13 188.15 C 464.79 190.56 476.25 197.20 486.05 205.39 C 487.13 202.06 488.69 198.73 491.67 196.68 C 499.35 191.09 508.93 189.21 518.05 187.30 C 532.30 184.10 546.99 183.51 561.29 180.51 C 570.81 178.57 581.21 178.25 589.45 172.49 C 593.09 169.87 596.90 165.86 596.11 160.99 C 595.16 155.50 590.42 151.83 585.97 149.06 C 575.59 143.02 564.12 138.50 552.11 137.25 C 531.61 135.12 510.98 137.85 490.92 142.06 Z" />
<path fill="#e8d100" opacity="1.00" d=" M 227.93 185.27 C 256.88 166.96 287.19 150.72 318.83 137.56 C 316.57 141.50 314.88 145.78 312.53 149.65 C 304.02 154.05 295.79 158.97 287.55 163.86 C 293.43 165.13 299.46 164.70 305.42 164.99 C 304.03 168.24 302.62 171.49 301.23 174.75 C 288.77 174.68 276.25 175.39 264.03 177.96 C 252.13 180.29 240.70 184.42 229.21 188.21 C 228.78 187.23 228.35 186.25 227.93 185.27 Z" />
<path fill="#e8d100" opacity="1.00" d=" M 220.33 248.44 C 238.60 244.43 257.40 244.34 276.00 245.13 C 296.27 246.63 316.16 251.06 335.94 255.49 C 323.99 257.26 313.08 262.58 302.57 268.27 C 302.64 268.62 302.77 269.31 302.83 269.66 C 300.54 269.88 298.05 269.76 295.99 270.93 C 294.32 272.31 293.15 274.17 291.73 275.79 C 289.28 277.86 286.59 279.59 284.00 281.46 C 281.00 276.24 275.92 272.67 270.11 271.23 C 278.29 264.56 288.28 260.86 297.25 255.49 C 284.76 250.71 271.14 251.43 258.03 251.76 C 236.94 253.07 215.89 257.24 196.31 265.31 C 193.93 262.82 191.30 260.59 188.55 258.52 C 198.60 253.66 209.53 251.05 220.33 248.44 Z" />
<path fill="#e8d100" opacity="1.00" d=" M 241.72 341.08 C 237.73 324.93 239.51 307.02 248.73 292.91 C 250.50 296.68 252.04 300.81 255.36 303.53 C 257.96 305.83 261.34 306.96 264.69 307.67 C 262.95 309.07 261.75 311.00 261.05 313.11 C 257.75 322.27 256.18 332.30 258.32 341.90 C 260.94 357.11 269.75 370.33 279.81 381.68 C 278.51 384.84 276.77 387.81 274.63 390.48 C 265.93 389.62 257.22 388.83 248.52 387.94 L 248.42 387.93 C 246.25 384.87 244.35 380.45 240.05 380.21 C 236.17 380.46 232.80 382.61 229.51 384.48 C 222.83 381.73 215.75 380.16 208.88 377.97 C 207.97 374.45 208.35 370.84 208.73 367.29 C 207.02 370.10 206.58 373.40 206.73 376.65 C 200.31 375.14 194.29 372.39 188.31 369.68 C 178.75 364.88 168.74 360.53 160.66 353.34 C 163.19 351.85 166.45 350.14 166.72 346.85 C 166.67 344.32 164.36 342.67 162.34 341.60 C 157.09 338.99 151.18 338.17 145.41 337.64 C 144.33 335.80 143.23 333.96 142.13 332.13 C 149.12 331.82 156.03 330.44 162.63 328.13 C 172.51 341.35 187.06 350.12 201.71 357.20 C 217.56 364.52 234.57 369.79 252.09 370.78 C 248.57 360.90 243.82 351.43 241.72 341.08 Z" />
</g>
<g id="#a8ff00ff">
<path fill="#a8ff00" opacity="1.00" d=" M 688.97 256.66 C 690.40 255.37 691.86 254.12 693.33 252.87 C 692.91 256.97 694.41 260.93 694.30 265.02 C 694.45 271.63 693.09 278.29 690.36 284.31 C 689.42 286.66 687.17 287.98 684.89 288.77 C 684.77 287.95 684.55 286.32 684.44 285.50 C 683.87 280.79 685.41 276.25 686.96 271.88 C 688.70 267.00 688.91 261.79 688.97 256.66 Z" />
<path fill="#a8ff00" opacity="1.00" d=" M 658.87 277.99 C 660.93 276.78 662.98 275.55 665.00 274.28 C 670.35 289.95 666.56 310.59 651.70 319.78 C 648.46 321.64 643.82 324.51 640.61 321.13 C 641.12 318.19 641.58 315.02 643.81 312.82 C 649.12 306.97 654.78 300.96 657.27 293.29 C 658.39 288.27 658.03 283.06 658.87 277.99 Z" />
<path fill="#a8ff00" opacity="1.00" d=" M 619.15 299.36 C 620.50 298.70 621.82 298.02 623.17 297.35 C 628.40 298.85 632.42 303.13 634.50 308.04 C 636.27 315.80 631.89 323.32 627.44 329.35 C 623.87 328.82 620.28 328.50 616.71 328.10 C 613.57 331.62 617.18 335.05 620.01 337.12 C 615.10 340.39 609.68 342.91 603.99 344.46 C 601.08 345.23 597.85 345.44 595.23 343.74 C 596.18 341.61 596.45 338.91 598.60 337.57 C 602.60 334.64 607.03 332.01 609.80 327.75 C 613.05 323.18 613.58 317.44 614.47 312.07 C 615.17 307.56 617.14 303.41 619.15 299.36 Z" />
<path fill="#a8ff00" opacity="1.00" d=" M 575.34 318.44 C 578.00 317.48 580.98 315.49 583.81 317.04 C 587.29 319.15 588.59 323.38 589.39 327.14 C 590.85 334.88 587.19 342.55 582.30 348.34 C 577.57 347.56 572.80 347.06 568.01 346.92 C 567.62 348.43 566.57 350.05 567.40 351.61 C 568.61 353.82 570.87 355.17 572.77 356.74 C 566.93 359.95 560.61 362.70 553.91 363.25 C 552.22 363.37 549.74 362.84 549.61 360.76 C 550.04 358.81 550.54 356.63 552.45 355.59 C 557.36 352.24 562.72 349.03 565.77 343.73 C 568.45 339.52 568.75 334.44 569.79 329.70 C 570.67 325.69 573.09 322.29 575.13 318.81 L 575.34 318.44 Z" />
<path fill="#a8ff00" opacity="1.00" d=" M 527.71 335.25 C 531.21 333.75 535.10 332.30 538.97 332.86 C 541.91 333.24 543.82 336.09 543.92 338.91 C 544.71 349.42 539.44 360.09 531.07 366.35 C 524.93 365.63 518.81 364.62 512.62 364.38 C 512.06 365.56 511.43 366.73 511.14 368.02 C 511.55 371.04 514.28 372.86 516.34 374.78 C 507.81 377.44 498.83 379.41 489.85 378.54 C 486.35 378.17 482.32 376.83 481.05 373.19 C 481.30 370.86 481.74 368.55 482.20 366.25 C 488.34 365.91 494.78 365.44 500.19 362.20 C 506.74 358.29 511.43 352.09 516.30 346.37 C 519.67 342.23 523.94 338.99 527.71 335.25 Z" />
</g>
<g id="#5d9e12ff">
<path fill="#5d9e12" opacity="1.00" d=" M 112.00 263.12 C 125.72 255.19 142.14 252.74 157.76 254.36 C 168.65 255.65 179.89 259.30 187.65 267.40 C 191.24 271.42 194.61 276.36 194.28 282.01 C 194.21 293.44 186.61 303.20 177.90 309.86 C 166.24 318.55 151.93 324.02 137.34 324.44 C 143.29 321.80 149.84 320.72 155.55 317.52 C 159.33 315.76 162.48 313.01 165.44 310.12 C 166.76 309.27 168.09 308.44 169.38 307.56 C 175.85 303.70 179.56 295.31 176.77 288.09 C 173.39 279.11 163.17 274.34 153.97 275.13 C 150.39 275.55 146.91 276.61 143.28 276.68 C 141.16 270.60 134.96 267.44 128.82 267.12 C 141.59 262.88 155.62 265.53 167.25 271.77 C 173.25 274.78 178.44 279.06 183.95 282.82 C 180.75 274.05 172.83 268.10 164.56 264.43 C 151.49 258.62 135.82 257.54 122.67 263.68 C 112.25 268.56 104.78 278.42 101.43 289.28 C 106.26 282.49 111.82 276.17 118.91 271.67 C 116.81 275.17 115.19 279.04 115.21 283.20 C 104.89 289.36 104.75 304.62 111.34 313.57 C 114.32 318.10 119.35 320.36 124.12 322.49 C 124.21 322.80 124.39 323.43 124.49 323.74 C 117.52 322.45 110.72 319.51 105.61 314.51 C 97.58 306.90 93.25 295.13 95.34 284.16 C 97.15 274.96 104.11 267.69 112.00 263.12 Z" />
<path fill="#5d9e12" opacity="1.00" d=" M 375.43 282.57 C 386.68 280.99 398.14 282.00 409.20 284.37 C 421.38 286.81 433.19 292.20 442.33 300.71 C 449.94 307.76 450.72 319.38 448.27 328.90 C 445.64 339.67 436.67 347.59 427.01 352.25 C 416.57 357.52 404.40 357.81 393.05 356.06 C 378.01 353.46 364.58 344.65 354.40 333.51 C 348.89 327.20 344.09 319.54 343.75 310.94 C 343.39 302.05 348.72 293.76 355.75 288.72 C 361.79 285.34 368.63 283.59 375.43 282.57 M 381.86 286.21 C 370.18 288.35 359.66 295.84 353.70 306.10 C 358.99 301.77 364.52 297.71 370.80 294.90 C 368.86 299.74 368.40 305.66 371.94 309.90 C 366.39 310.73 360.51 311.49 355.76 314.72 C 351.93 317.38 353.54 322.64 354.72 326.28 C 358.47 334.91 366.09 341.11 373.76 346.17 C 381.22 350.58 389.29 354.71 398.12 355.10 C 408.32 355.90 419.71 353.73 426.88 345.88 C 429.94 342.50 432.92 338.15 432.39 333.38 C 432.77 332.72 433.09 332.05 433.37 331.34 C 436.46 325.97 435.73 318.80 431.95 313.95 C 427.98 308.85 421.90 305.67 415.64 304.40 C 408.15 302.70 400.57 304.36 393.40 306.58 C 395.91 300.86 393.12 294.54 388.50 290.88 C 395.46 290.66 402.47 291.59 409.04 293.95 C 422.99 298.87 434.30 308.96 443.90 319.93 C 442.31 310.05 434.90 302.41 426.99 296.91 C 413.97 288.05 397.56 283.22 381.86 286.21 Z" />
</g>
<g id="#7dcc00ff">
<path fill="#7dcc00" opacity="1.00" d=" M 679.18 264.38 C 682.58 261.98 685.76 259.30 688.97 256.66 C 688.91 261.79 688.70 267.00 686.96 271.88 C 685.41 276.25 683.87 280.79 684.44 285.50 C 683.15 287.02 681.88 288.56 680.60 290.08 C 681.88 281.63 683.65 272.22 679.18 264.38 Z" />
<path fill="#7dcc00" opacity="1.00" d=" M 638.90 289.28 C 645.64 285.66 652.32 281.93 658.87 277.99 C 658.03 283.06 658.39 288.27 657.27 293.29 C 654.78 300.96 649.12 306.97 643.81 312.82 C 641.58 315.02 641.12 318.19 640.61 321.13 C 638.80 322.75 636.87 324.24 634.86 325.61 C 639.78 314.30 642.04 301.37 638.90 289.28 Z" />
<path fill="#7dcc00" opacity="1.00" d=" M 596.04 309.88 C 603.77 306.43 611.44 302.86 619.15 299.36 C 617.14 303.41 615.17 307.56 614.47 312.07 C 613.58 317.44 613.05 323.18 609.80 327.75 C 607.03 332.01 602.60 334.64 598.60 337.57 C 596.45 338.91 596.18 341.61 595.23 343.74 C 593.97 345.21 591.69 345.58 590.07 346.57 C 596.47 335.58 599.05 322.35 596.04 309.88 Z" />
<path fill="#7dcc00" opacity="1.00" d=" M 551.88 327.18 C 559.70 324.57 567.24 321.20 575.13 318.81 C 573.09 322.29 570.67 325.69 569.79 329.70 C 568.75 334.44 568.45 339.52 565.77 343.73 C 562.72 349.03 557.36 352.24 552.45 355.59 C 550.54 356.63 550.04 358.81 549.61 360.76 C 549.06 360.78 547.96 360.81 547.40 360.83 C 547.00 360.83 546.20 360.82 545.80 360.82 C 551.36 350.68 553.67 338.63 551.88 327.18 Z" />
<path fill="#7dcc00" opacity="1.00" d=" M 481.67 341.06 C 497.30 343.53 512.63 338.58 527.71 335.25 C 523.94 338.99 519.67 342.23 516.30 346.37 C 511.43 352.09 506.74 358.29 500.19 362.20 C 494.78 365.44 488.34 365.91 482.20 366.25 C 481.74 368.55 481.30 370.86 481.05 373.19 L 479.83 372.51 C 479.31 372.29 478.26 371.86 477.73 371.64 C 481.46 361.94 483.04 351.39 481.67 341.06 Z" />
</g>
<g id="#afff00ff">
<path fill="#afff00" opacity="1.00" d=" M 122.67 263.68 C 135.82 257.54 151.49 258.62 164.56 264.43 C 172.83 268.10 180.75 274.05 183.95 282.82 C 178.44 279.06 173.25 274.78 167.25 271.77 C 155.62 265.53 141.59 262.88 128.82 267.12 C 134.96 267.44 141.16 270.60 143.28 276.68 C 143.90 279.13 144.20 281.65 144.30 284.18 C 143.05 289.74 138.98 294.29 133.58 296.12 C 129.42 296.51 124.87 296.34 121.41 293.69 C 117.83 291.36 116.03 287.25 115.21 283.20 C 115.19 279.04 116.81 275.17 118.91 271.67 C 111.82 276.17 106.26 282.49 101.43 289.28 C 104.78 278.42 112.25 268.56 122.67 263.68 Z" />
<path fill="#afff00" opacity="1.00" d=" M 381.86 286.21 C 397.56 283.22 413.97 288.05 426.99 296.91 C 434.90 302.41 442.31 310.05 443.90 319.93 C 434.30 308.96 422.99 298.87 409.04 293.95 C 402.47 291.59 395.46 290.66 388.50 290.88 C 393.12 294.54 395.91 300.86 393.40 306.58 C 392.94 307.62 392.43 308.64 391.89 309.64 C 388.76 313.54 383.65 314.73 378.86 314.18 C 376.12 313.63 373.89 311.79 371.94 309.90 C 368.40 305.66 368.86 299.74 370.80 294.90 C 364.52 297.71 358.99 301.77 353.70 306.10 C 359.66 295.84 370.18 288.35 381.86 286.21 Z" />
</g>
<g id="#ffff00ff">
<path fill="#ffff00" opacity="1.00" d=" M 295.99 270.93 C 298.05 269.76 300.54 269.88 302.83 269.66 C 306.96 271.21 310.00 275.49 308.87 279.99 C 307.87 285.98 299.79 288.63 295.24 284.80 C 292.36 282.74 292.29 278.94 291.73 275.79 C 293.15 274.17 294.32 272.31 295.99 270.93 Z" />
</g>
<g id="#80c80aff">
<path fill="#80c80a" opacity="1.00" d=" M 143.28 276.68 C 146.91 276.61 150.39 275.55 153.97 275.13 C 163.17 274.34 173.39 279.11 176.77 288.09 C 179.56 295.31 175.85 303.70 169.38 307.56 C 170.59 302.94 174.91 297.55 170.73 293.22 C 164.00 286.38 154.37 283.35 145.27 281.13 C 144.95 282.14 144.62 283.16 144.30 284.18 C 144.20 281.65 143.90 279.13 143.28 276.68 Z" />
<path fill="#80c80a" opacity="1.00" d=" M 393.40 306.58 C 400.57 304.36 408.15 302.70 415.64 304.40 C 421.90 305.67 427.98 308.85 431.95 313.95 C 435.73 318.80 436.46 325.97 433.37 331.34 C 432.19 326.35 429.50 321.66 425.11 318.85 C 415.29 312.44 403.34 310.70 391.89 309.64 C 392.43 308.64 392.94 307.62 393.40 306.58 Z" />
</g>
<g id="#75b800ff">
<path fill="#75b800" opacity="1.00" d=" M 145.27 281.13 C 154.37 283.35 164.00 286.38 170.73 293.22 C 174.91 297.55 170.59 302.94 169.38 307.56 C 168.09 308.44 166.76 309.27 165.44 310.12 C 157.35 312.32 147.97 312.32 141.01 307.07 C 137.15 304.56 134.89 300.42 133.58 296.12 C 138.98 294.29 143.05 289.74 144.30 284.18 C 144.62 283.16 144.95 282.14 145.27 281.13 Z" />
<path fill="#75b800" opacity="1.00" d=" M 378.86 314.18 C 383.65 314.73 388.76 313.54 391.89 309.64 C 403.34 310.70 415.29 312.44 425.11 318.85 C 429.50 321.66 432.19 326.35 433.37 331.34 C 433.09 332.05 432.77 332.72 432.39 333.38 C 424.67 343.20 410.70 346.00 399.06 342.78 C 391.85 340.83 384.78 336.06 382.39 328.69 C 380.80 324.13 382.18 319.33 383.87 315.03 C 382.20 314.76 380.52 314.51 378.86 314.18 Z" />
</g>
<g id="#498200ff">
<path fill="#498200" opacity="1.00" d=" M 111.34 313.57 C 104.75 304.62 104.89 289.36 115.21 283.20 C 116.03 287.25 117.83 291.36 121.41 293.69 C 124.87 296.34 129.42 296.51 133.58 296.12 C 134.89 300.42 137.15 304.56 141.01 307.07 C 147.97 312.32 157.35 312.32 165.44 310.12 C 162.48 313.01 159.33 315.76 155.55 317.52 C 149.84 320.72 143.29 321.80 137.34 324.44 C 133.16 325.57 128.77 324.21 124.54 323.92 L 124.49 323.74 C 124.39 323.43 124.21 322.80 124.12 322.49 C 119.35 320.36 114.32 318.10 111.34 313.57 Z" />
<path fill="#498200" opacity="1.00" d=" M 355.76 314.72 C 360.51 311.49 366.39 310.73 371.94 309.90 C 373.89 311.79 376.12 313.63 378.86 314.18 C 380.52 314.51 382.20 314.76 383.87 315.03 C 382.18 319.33 380.80 324.13 382.39 328.69 C 384.78 336.06 391.85 340.83 399.06 342.78 C 410.70 346.00 424.67 343.20 432.39 333.38 C 432.92 338.15 429.94 342.50 426.88 345.88 C 419.71 353.73 408.32 355.90 398.12 355.10 C 389.29 354.71 381.22 350.58 373.76 346.17 C 366.09 341.11 358.47 334.91 354.72 326.28 C 353.54 322.64 351.93 317.38 355.76 314.72 Z" />
</g>
<g id="#ff4295ff">
<path fill="#ff4295" opacity="1.00" d=" M 122.95 338.79 C 130.35 337.46 137.91 337.23 145.41 337.64 C 151.18 338.17 157.09 338.99 162.34 341.60 C 164.36 342.67 166.67 344.32 166.72 346.85 C 166.45 350.14 163.19 351.85 160.66 353.34 C 153.83 356.31 146.41 357.45 139.05 358.21 C 132.72 358.37 126.37 358.40 120.10 357.47 C 115.00 356.48 109.30 355.46 105.58 351.54 C 102.81 347.86 106.96 344.26 110.09 342.78 C 114.14 340.80 118.54 339.64 122.95 338.79 Z" />
<path fill="#ff4295" opacity="1.00" d=" M 344.61 367.00 C 346.30 364.18 349.90 363.72 352.87 363.39 C 363.04 362.67 373.18 364.59 383.00 367.07 C 393.34 369.86 403.66 373.38 412.73 379.19 C 415.74 380.97 417.99 383.70 419.91 386.57 C 417.61 392.27 410.68 391.60 405.65 391.92 C 392.50 391.38 379.54 388.27 367.21 383.76 C 360.52 381.17 353.78 378.30 348.17 373.74 C 346.28 372.05 343.92 369.80 344.61 367.00 Z" />
</g>
<g id="#111d008a">
<path fill="#111d00" opacity="0.54" d=" M 547.40 360.83 C 548.41 363.19 543.38 362.35 545.80 360.82 C 546.20 360.82 547.00 360.83 547.40 360.83 Z" />
</g>
<g id="#21370064">
<path fill="#213700" opacity="0.39" d=" M 479.83 372.51 C 479.35 374.28 475.77 372.78 477.73 371.64 C 478.26 371.86 479.31 372.29 479.83 372.51 Z" />
</g>
<g id="#ff005cff">
<path fill="#ff005c" opacity="1.00" d=" M 229.36 387.31 C 232.78 385.54 235.86 382.46 239.95 382.52 C 245.67 383.89 246.74 390.78 251.38 393.64 C 256.12 396.41 261.54 398.14 267.07 398.11 C 265.83 400.75 264.62 403.40 263.40 406.06 C 250.29 399.58 233.31 401.19 222.55 411.43 C 220.68 403.94 219.48 396.24 216.55 389.06 C 220.85 389.82 225.52 389.58 229.36 387.31 Z" />
</g>
<g id="#ce0054ff">
<path fill="#ce0054" opacity="1.00" d=" M 222.55 411.43 C 233.31 401.19 250.29 399.58 263.40 406.06 C 259.81 413.54 256.09 421.26 250.04 427.10 C 246.19 430.83 240.29 433.14 235.13 430.76 C 227.29 427.69 224.69 418.78 222.55 411.43 Z" />
</g>
</svg>
