<svg xmlns="http://www.w3.org/2000/svg" xmlns:svg="http://www.w3.org/2000/svg" xmlns:xlink="http://www.w3.org/1999/xlink" id="svg2" width="127" height="127" version="1.0"><metadata id="metadata7"/><defs id="defs5"><linearGradient id="linearGradient5199"><stop style="stop-color:#aaff61;stop-opacity:1" id="stop5201" offset="0"/><stop style="stop-color:#0e530d;stop-opacity:1" id="stop5203" offset="1"/></linearGradient><linearGradient id="linearGradient3856"><stop id="stop3858" offset="0" style="stop-color:red;stop-opacity:1"/><stop id="stop3860" offset="1" style="stop-color:#fff;stop-opacity:1"/></linearGradient><linearGradient id="linearGradient3848"><stop id="stop3850" offset="0" style="stop-color:#980000;stop-opacity:1"/><stop id="stop3852" offset="1" style="stop-color:red;stop-opacity:1"/></linearGradient><linearGradient id="linearGradient3840"><stop style="stop-color:#980000;stop-opacity:1" id="stop3842" offset="0"/><stop style="stop-color:red;stop-opacity:1" id="stop3844" offset="1"/></linearGradient><linearGradient id="linearGradient3832"><stop style="stop-color:#980000;stop-opacity:1" id="stop3834" offset="0"/><stop style="stop-color:red;stop-opacity:1" id="stop3836" offset="1"/></linearGradient><linearGradient id="linearGradient3824"><stop style="stop-color:#980000;stop-opacity:1" id="stop3826" offset="0"/><stop style="stop-color:red;stop-opacity:1" id="stop3828" offset="1"/></linearGradient><linearGradient id="linearGradient3814"><stop style="stop-color:red;stop-opacity:1" id="stop3816" offset="0"/><stop style="stop-color:#fff;stop-opacity:1" id="stop3818" offset="1"/></linearGradient><linearGradient id="linearGradient3802"><stop style="stop-color:#000;stop-opacity:1" id="stop3804" offset="0"/><stop style="stop-color:#fff;stop-opacity:1" id="stop3806" offset="1"/></linearGradient><linearGradient id="linearGradient3786"><stop style="stop-color:#000;stop-opacity:1" id="stop3788" offset="0"/><stop style="stop-color:#fff;stop-opacity:1" id="stop3790" offset="1"/></linearGradient><linearGradient id="linearGradient3772"><stop style="stop-color:#000;stop-opacity:0" id="stop3774" offset="0"/><stop style="stop-color:#fff;stop-opacity:0" id="stop3776" offset="1"/></linearGradient><linearGradient id="linearGradient3752"><stop id="stop3754" offset="0" style="stop-color:#000;stop-opacity:0"/><stop id="stop3756" offset="1" style="stop-color:#fff;stop-opacity:0"/></linearGradient><linearGradient id="linearGradient3792" x1="64.585" x2="64.585" y1="43.5" y2="58.5" gradientUnits="userSpaceOnUse" xlink:href="#linearGradient3786"/><linearGradient id="linearGradient3798" x1="64.585" x2="64.585" y1="43.5" y2="58.5" gradientTransform="translate(-37.930621,-18.5)" gradientUnits="userSpaceOnUse" xlink:href="#linearGradient3786"/><linearGradient id="linearGradient3800" x1="64.585" x2="64.585" y1="43.5" y2="58.5" gradientTransform="translate(-1.1998674e-7,-37)" gradientUnits="userSpaceOnUse" xlink:href="#linearGradient3786"/><linearGradient id="linearGradient3808" x1="46.132" x2="33.83" y1="57.5" y2="37.5" gradientUnits="userSpaceOnUse" xlink:href="#linearGradient3802"/><linearGradient id="linearGradient3812" x1="46.132" x2="33.83" y1="57.5" y2="37.5" gradientTransform="matrix(-1,0,0,1,91.238521,-18.5)" gradientUnits="userSpaceOnUse" xlink:href="#linearGradient3802"/><linearGradient id="linearGradient3822" x1="64.585" x2="31.78" y1="35.5" y2="51.5" gradientUnits="userSpaceOnUse" xlink:href="#linearGradient3848"/><linearGradient id="linearGradient3830" x1="20.174" x2="33.501" y1="84.839" y2="84.839" gradientUnits="userSpaceOnUse" xlink:href="#linearGradient3824"/><linearGradient id="linearGradient3846" x1="48.182" x2="42.031" y1="79.5" y2="82.5" gradientUnits="userSpaceOnUse" xlink:href="#linearGradient3840"/><linearGradient id="linearGradient3873" x1="27.35" x2="65.281" y1="101.339" y2="82.839" gradientTransform="translate(-0.696009,-0.339466)" gradientUnits="userSpaceOnUse" xlink:href="#linearGradient3832"/><linearGradient id="linearGradient3876" x1="20.174" x2="46.828" y1="97.839" y2="84.839" gradientTransform="matrix(-1,0,0,1,60.154821,-3.339466)" gradientUnits="userSpaceOnUse" xlink:href="#linearGradient3824"/><linearGradient id="linearGradient3903" x1="46.132" x2="33.83" y1="57.5" y2="37.5" gradientTransform="matrix(-1,0,0,1,91.238521,-18.5)" gradientUnits="userSpaceOnUse" xlink:href="#linearGradient3802"/><linearGradient id="linearGradient3905" x1="64.585" x2="31.78" y1="35.5" y2="51.5" gradientUnits="userSpaceOnUse" xlink:href="#linearGradient3848"/><linearGradient id="linearGradient3907" x1="46.132" x2="33.83" y1="57.5" y2="37.5" gradientUnits="userSpaceOnUse" xlink:href="#linearGradient3802"/><linearGradient id="linearGradient3909" x1="48.182" x2="42.031" y1="79.5" y2="82.5" gradientUnits="userSpaceOnUse" xlink:href="#linearGradient3840"/><linearGradient id="linearGradient3911" x1="20.174" x2="46.828" y1="97.839" y2="84.839" gradientTransform="matrix(-1,0,0,1,60.154821,-3.339466)" gradientUnits="userSpaceOnUse" xlink:href="#linearGradient3824"/><linearGradient id="linearGradient3913" x1="27.35" x2="65.281" y1="101.339" y2="82.839" gradientTransform="translate(-0.696009,-0.339466)" gradientUnits="userSpaceOnUse" xlink:href="#linearGradient3832"/><linearGradient id="linearGradient3915" x1="64.585" x2="64.585" y1="43.5" y2="58.5" gradientTransform="translate(-37.930621,-18.5)" gradientUnits="userSpaceOnUse" xlink:href="#linearGradient3786"/><linearGradient id="linearGradient3970" x1="64.585" x2="64.585" y1="43.5" y2="58.5" gradientTransform="matrix(-1,0,0,1,167.09976,-18.5)" gradientUnits="userSpaceOnUse" xlink:href="#linearGradient3786"/><linearGradient id="linearGradient3973" x1="27.35" x2="65.281" y1="101.339" y2="82.839" gradientTransform="matrix(-1,0,0,1,129.86515,-0.339466)" gradientUnits="userSpaceOnUse" xlink:href="#linearGradient3832"/><linearGradient id="linearGradient3976" x1="20.174" x2="46.828" y1="97.839" y2="84.839" gradientTransform="translate(69.014319,-3.339466)" gradientUnits="userSpaceOnUse" xlink:href="#linearGradient3824"/><linearGradient id="linearGradient3979" x1="48.182" x2="42.031" y1="79.5" y2="82.5" gradientTransform="matrix(-1,0,0,1,129.16914,0)" gradientUnits="userSpaceOnUse" xlink:href="#linearGradient3840"/><linearGradient id="linearGradient3982" x1="46.132" x2="33.83" y1="57.5" y2="37.5" gradientTransform="matrix(-1,0,0,1,129.16914,0)" gradientUnits="userSpaceOnUse" xlink:href="#linearGradient3802"/><linearGradient id="linearGradient3985" x1="64.585" x2="31.78" y1="35.5" y2="51.5" gradientTransform="matrix(-1,0,0,1,129.16914,0)" gradientUnits="userSpaceOnUse" xlink:href="#linearGradient3848"/><linearGradient id="linearGradient3988" x1="46.132" x2="33.83" y1="57.5" y2="37.5" gradientTransform="translate(37.930619,-18.5)" gradientUnits="userSpaceOnUse" xlink:href="#linearGradient3802"/><linearGradient id="linearGradient4025" x1="46.132" x2="33.83" y1="57.5" y2="37.5" gradientTransform="matrix(-1,0,0,1,91.238521,-18.5)" gradientUnits="userSpaceOnUse" xlink:href="#linearGradient3802"/><linearGradient id="linearGradient4027" x1="64.585" x2="31.78" y1="35.5" y2="51.5" gradientUnits="userSpaceOnUse" xlink:href="#linearGradient3848"/><linearGradient id="linearGradient4029" x1="46.132" x2="33.83" y1="57.5" y2="37.5" gradientUnits="userSpaceOnUse" xlink:href="#linearGradient3802"/><linearGradient id="linearGradient4031" x1="48.182" x2="42.031" y1="79.5" y2="82.5" gradientUnits="userSpaceOnUse" xlink:href="#linearGradient3840"/><linearGradient id="linearGradient4033" x1="20.174" x2="46.828" y1="97.839" y2="84.839" gradientTransform="matrix(-1,0,0,1,60.154821,-3.339466)" gradientUnits="userSpaceOnUse" xlink:href="#linearGradient3824"/><linearGradient id="linearGradient4035" x1="27.35" x2="65.281" y1="101.339" y2="82.839" gradientTransform="translate(-0.696009,-0.339466)" gradientUnits="userSpaceOnUse" xlink:href="#linearGradient3832"/><linearGradient id="linearGradient4037" x1="64.585" x2="64.585" y1="43.5" y2="58.5" gradientTransform="translate(-37.930621,-18.5)" gradientUnits="userSpaceOnUse" xlink:href="#linearGradient3786"/><linearGradient id="linearGradient4040" x1="64.585" x2="64.585" y1="43.5" y2="58.5" gradientTransform="translate(-37.930621,-18.5)" gradientUnits="userSpaceOnUse" xlink:href="#linearGradient3786"/><linearGradient id="linearGradient4043" x1="27.35" x2="65.281" y1="101.339" y2="82.839" gradientTransform="translate(-0.696009,-0.339466)" gradientUnits="userSpaceOnUse" xlink:href="#linearGradient3832"/><linearGradient id="linearGradient4046" x1="20.174" x2="46.828" y1="97.839" y2="84.839" gradientTransform="matrix(-1,0,0,1,60.154821,-3.339466)" gradientUnits="userSpaceOnUse" xlink:href="#linearGradient3824"/><linearGradient id="linearGradient4049" x1="48.182" x2="42.031" y1="79.5" y2="82.5" gradientUnits="userSpaceOnUse" xlink:href="#linearGradient3840"/><linearGradient id="linearGradient4052" x1="46.132" x2="33.83" y1="57.5" y2="37.5" gradientUnits="userSpaceOnUse" xlink:href="#linearGradient3802"/><linearGradient id="linearGradient4055" x1="64.585" x2="31.78" y1="35.5" y2="51.5" gradientUnits="userSpaceOnUse" xlink:href="#linearGradient3848"/><linearGradient id="linearGradient4058" x1="46.132" x2="33.83" y1="57.5" y2="37.5" gradientTransform="matrix(-1,0,0,1,91.238521,-18.5)" gradientUnits="userSpaceOnUse" xlink:href="#linearGradient3802"/><linearGradient id="linearGradient4130" x1="64.585" x2="64.585" y1="43.5" y2="58.5" gradientTransform="translate(-1.1998674e-7,-37)" gradientUnits="userSpaceOnUse" xlink:href="#linearGradient3786"/><linearGradient id="linearGradient4132" x1="46.132" x2="33.83" y1="57.5" y2="37.5" gradientTransform="matrix(-1,0,0,1,91.238521,-18.5)" gradientUnits="userSpaceOnUse" xlink:href="#linearGradient3802"/><linearGradient id="linearGradient4134" x1="64.585" x2="31.78" y1="35.5" y2="51.5" gradientUnits="userSpaceOnUse" xlink:href="#linearGradient3848"/><linearGradient id="linearGradient4136" x1="46.132" x2="33.83" y1="57.5" y2="37.5" gradientUnits="userSpaceOnUse" xlink:href="#linearGradient3802"/><linearGradient id="linearGradient4138" x1="48.182" x2="42.031" y1="79.5" y2="82.5" gradientUnits="userSpaceOnUse" xlink:href="#linearGradient3840"/><linearGradient id="linearGradient4140" x1="20.174" x2="46.828" y1="97.839" y2="84.839" gradientTransform="matrix(-1,0,0,1,60.154821,-3.339466)" gradientUnits="userSpaceOnUse" xlink:href="#linearGradient3824"/><linearGradient id="linearGradient4142" x1="27.35" x2="65.281" y1="101.339" y2="82.839" gradientTransform="translate(-0.696009,-0.339466)" gradientUnits="userSpaceOnUse" xlink:href="#linearGradient3832"/><linearGradient id="linearGradient4144" x1="64.585" x2="64.585" y1="43.5" y2="58.5" gradientTransform="translate(-37.930621,-18.5)" gradientUnits="userSpaceOnUse" xlink:href="#linearGradient3786"/><linearGradient id="linearGradient4146" x1="46.132" x2="33.83" y1="57.5" y2="37.5" gradientTransform="translate(37.930619,-18.5)" gradientUnits="userSpaceOnUse" xlink:href="#linearGradient3802"/><linearGradient id="linearGradient4148" x1="64.585" x2="31.78" y1="35.5" y2="51.5" gradientTransform="matrix(-1,0,0,1,129.16914,0)" gradientUnits="userSpaceOnUse" xlink:href="#linearGradient3848"/><linearGradient id="linearGradient4150" x1="46.132" x2="33.83" y1="57.5" y2="37.5" gradientTransform="matrix(-1,0,0,1,129.16914,0)" gradientUnits="userSpaceOnUse" xlink:href="#linearGradient3802"/><linearGradient id="linearGradient4152" x1="48.182" x2="42.031" y1="79.5" y2="82.5" gradientTransform="matrix(-1,0,0,1,129.16914,0)" gradientUnits="userSpaceOnUse" xlink:href="#linearGradient3840"/><linearGradient id="linearGradient4154" x1="20.174" x2="46.828" y1="97.839" y2="84.839" gradientTransform="translate(69.014319,-3.339466)" gradientUnits="userSpaceOnUse" xlink:href="#linearGradient3824"/><linearGradient id="linearGradient4156" x1="27.35" x2="65.281" y1="101.339" y2="82.839" gradientTransform="matrix(-1,0,0,1,129.86515,-0.339466)" gradientUnits="userSpaceOnUse" xlink:href="#linearGradient3832"/><linearGradient id="linearGradient4158" x1="64.585" x2="64.585" y1="43.5" y2="58.5" gradientTransform="matrix(-1,0,0,1,167.09976,-18.5)" gradientUnits="userSpaceOnUse" xlink:href="#linearGradient3786"/><linearGradient id="linearGradient4160" x1="64.585" x2="64.585" y1="43.5" y2="58.5" gradientUnits="userSpaceOnUse" xlink:href="#linearGradient3786"/><linearGradient id="linearGradient4276" x1="64.585" x2="64.585" y1="43.5" y2="58.5" gradientTransform="translate(-1.1998674e-7,-37)" gradientUnits="userSpaceOnUse" xlink:href="#linearGradient3786"/><linearGradient id="linearGradient4278" x1="46.132" x2="33.83" y1="57.5" y2="37.5" gradientTransform="matrix(-1,0,0,1,91.238521,-18.5)" gradientUnits="userSpaceOnUse" xlink:href="#linearGradient3802"/><linearGradient id="linearGradient4280" x1="64.585" x2="31.78" y1="35.5" y2="51.5" gradientUnits="userSpaceOnUse" xlink:href="#linearGradient3848"/><linearGradient id="linearGradient4282" x1="46.132" x2="33.83" y1="57.5" y2="37.5" gradientUnits="userSpaceOnUse" xlink:href="#linearGradient3802"/><linearGradient id="linearGradient4284" x1="48.182" x2="42.031" y1="79.5" y2="82.5" gradientUnits="userSpaceOnUse" xlink:href="#linearGradient3840"/><linearGradient id="linearGradient4286" x1="20.174" x2="46.828" y1="97.839" y2="84.839" gradientTransform="matrix(-1,0,0,1,60.154821,-3.339466)" gradientUnits="userSpaceOnUse" xlink:href="#linearGradient3824"/><linearGradient id="linearGradient4288" x1="27.35" x2="65.281" y1="101.339" y2="82.839" gradientTransform="translate(-0.696009,-0.339466)" gradientUnits="userSpaceOnUse" xlink:href="#linearGradient3832"/><linearGradient id="linearGradient4290" x1="64.585" x2="64.585" y1="43.5" y2="58.5" gradientTransform="translate(-37.930621,-18.5)" gradientUnits="userSpaceOnUse" xlink:href="#linearGradient3786"/><linearGradient id="linearGradient4292" x1="46.132" x2="33.83" y1="57.5" y2="37.5" gradientTransform="translate(37.930619,-18.5)" gradientUnits="userSpaceOnUse" xlink:href="#linearGradient3802"/><linearGradient id="linearGradient4294" x1="64.585" x2="31.78" y1="35.5" y2="51.5" gradientTransform="matrix(-1,0,0,1,129.16914,0)" gradientUnits="userSpaceOnUse" xlink:href="#linearGradient3848"/><linearGradient id="linearGradient4296" x1="46.132" x2="33.83" y1="57.5" y2="37.5" gradientTransform="matrix(-1,0,0,1,129.16914,0)" gradientUnits="userSpaceOnUse" xlink:href="#linearGradient3802"/><linearGradient id="linearGradient4298" x1="48.182" x2="42.031" y1="79.5" y2="82.5" gradientTransform="matrix(-1,0,0,1,129.16914,0)" gradientUnits="userSpaceOnUse" xlink:href="#linearGradient3840"/><linearGradient id="linearGradient4300" x1="20.174" x2="46.828" y1="97.839" y2="84.839" gradientTransform="translate(69.014319,-3.339466)" gradientUnits="userSpaceOnUse" xlink:href="#linearGradient3824"/><linearGradient id="linearGradient4302" x1="27.35" x2="65.281" y1="101.339" y2="82.839" gradientTransform="matrix(-1,0,0,1,129.86515,-0.339466)" gradientUnits="userSpaceOnUse" xlink:href="#linearGradient3832"/><linearGradient id="linearGradient4304" x1="64.585" x2="64.585" y1="43.5" y2="58.5" gradientTransform="matrix(-1,0,0,1,167.09976,-18.5)" gradientUnits="userSpaceOnUse" xlink:href="#linearGradient3786"/><linearGradient id="linearGradient4306" x1="64.585" x2="64.585" y1="43.5" y2="58.5" gradientUnits="userSpaceOnUse" xlink:href="#linearGradient3786"/><linearGradient id="linearGradient4309" x1="64.585" x2="64.585" y1="43.5" y2="58.5" gradientTransform="translate(-1.3769232,-0.671)" gradientUnits="userSpaceOnUse" xlink:href="#linearGradient3786"/><linearGradient id="linearGradient4312" x1="64.585" x2="64.585" y1="43.5" y2="58.5" gradientTransform="matrix(-1,0,0,1,165.72284,-19.171)" gradientUnits="userSpaceOnUse" xlink:href="#linearGradient3786"/><linearGradient id="linearGradient4315" x1="27.35" x2="65.281" y1="101.339" y2="82.839" gradientTransform="matrix(-1,0,0,1,128.48823,-1.010466)" gradientUnits="userSpaceOnUse" xlink:href="#linearGradient3832"/><linearGradient id="linearGradient4318" x1="20.174" x2="46.828" y1="97.839" y2="84.839" gradientTransform="translate(67.637396,-4.010466)" gradientUnits="userSpaceOnUse" xlink:href="#linearGradient3824"/><linearGradient id="linearGradient4321" x1="48.182" x2="42.031" y1="79.5" y2="82.5" gradientTransform="matrix(-1,0,0,1,127.79222,-0.671)" gradientUnits="userSpaceOnUse" xlink:href="#linearGradient3840"/><linearGradient id="linearGradient4324" x1="46.132" x2="33.83" y1="57.5" y2="37.5" gradientTransform="matrix(-1,0,0,1,127.79222,-0.671)" gradientUnits="userSpaceOnUse" xlink:href="#linearGradient3802"/><linearGradient id="linearGradient4327" x1="64.585" x2="31.78" y1="35.5" y2="51.5" gradientTransform="matrix(-1,0,0,1,127.79222,-0.671)" gradientUnits="userSpaceOnUse" xlink:href="#linearGradient3848"/><linearGradient id="linearGradient4330" x1="46.132" x2="33.83" y1="57.5" y2="37.5" gradientTransform="translate(36.553696,-19.171)" gradientUnits="userSpaceOnUse" xlink:href="#linearGradient3802"/><linearGradient id="linearGradient4333" x1="64.585" x2="64.585" y1="43.5" y2="58.5" gradientTransform="translate(-39.307544,-19.171)" gradientUnits="userSpaceOnUse" xlink:href="#linearGradient3786"/><linearGradient id="linearGradient4336" x1="27.35" x2="65.281" y1="101.339" y2="82.839" gradientTransform="translate(-2.0729322,-1.010466)" gradientUnits="userSpaceOnUse" xlink:href="#linearGradient3832"/><linearGradient id="linearGradient4339" x1="20.174" x2="46.828" y1="97.839" y2="84.839" gradientTransform="matrix(-1,0,0,1,58.777898,-4.010466)" gradientUnits="userSpaceOnUse" xlink:href="#linearGradient3824"/><linearGradient id="linearGradient4342" x1="48.182" x2="42.031" y1="79.5" y2="82.5" gradientTransform="translate(-1.3769232,-0.671)" gradientUnits="userSpaceOnUse" xlink:href="#linearGradient3840"/><linearGradient id="linearGradient4345" x1="46.132" x2="33.83" y1="57.5" y2="37.5" gradientTransform="translate(-1.3769232,-0.671)" gradientUnits="userSpaceOnUse" xlink:href="#linearGradient3802"/><linearGradient id="linearGradient4348" x1="64.585" x2="31.78" y1="35.5" y2="51.5" gradientTransform="translate(-1.3769232,-0.671)" gradientUnits="userSpaceOnUse" xlink:href="#linearGradient3848"/><linearGradient id="linearGradient4351" x1="46.132" x2="33.83" y1="57.5" y2="37.5" gradientTransform="matrix(-1,0,0,1,89.861598,-19.171)" gradientUnits="userSpaceOnUse" xlink:href="#linearGradient3802"/><linearGradient id="linearGradient4354" x1="64.585" x2="64.585" y1="43.5" y2="58.5" gradientTransform="translate(-1.3769233,-37.671)" gradientUnits="userSpaceOnUse" xlink:href="#linearGradient3786"/><linearGradient id="linearGradient4374" x1="64.585" x2="64.585" y1="43.5" y2="58.5" gradientTransform="translate(-1.3769233,-37.671)" gradientUnits="userSpaceOnUse" xlink:href="#linearGradient3786"/><linearGradient id="linearGradient4376" x1="46.132" x2="33.83" y1="57.5" y2="37.5" gradientTransform="matrix(-1,0,0,1,89.861598,-19.171)" gradientUnits="userSpaceOnUse" xlink:href="#linearGradient3802"/><linearGradient id="linearGradient4378" x1="64.585" x2="31.78" y1="35.5" y2="51.5" gradientTransform="translate(-1.3769232,-0.671)" gradientUnits="userSpaceOnUse" xlink:href="#linearGradient3848"/><linearGradient id="linearGradient4380" x1="46.132" x2="33.83" y1="57.5" y2="37.5" gradientTransform="translate(-1.3769232,-0.671)" gradientUnits="userSpaceOnUse" xlink:href="#linearGradient3802"/><linearGradient id="linearGradient4382" x1="48.182" x2="42.031" y1="79.5" y2="82.5" gradientTransform="translate(-1.3769232,-0.671)" gradientUnits="userSpaceOnUse" xlink:href="#linearGradient3840"/><linearGradient id="linearGradient4384" x1="20.174" x2="46.828" y1="97.839" y2="84.839" gradientTransform="matrix(-1,0,0,1,58.777898,-4.010466)" gradientUnits="userSpaceOnUse" xlink:href="#linearGradient3824"/><linearGradient id="linearGradient4386" x1="27.35" x2="65.281" y1="101.339" y2="82.839" gradientTransform="translate(-2.0729322,-1.010466)" gradientUnits="userSpaceOnUse" xlink:href="#linearGradient3832"/><linearGradient id="linearGradient4388" x1="64.585" x2="64.585" y1="43.5" y2="58.5" gradientTransform="translate(-39.307544,-19.171)" gradientUnits="userSpaceOnUse" xlink:href="#linearGradient3786"/><linearGradient id="linearGradient4390" x1="46.132" x2="33.83" y1="57.5" y2="37.5" gradientTransform="translate(36.553696,-19.171)" gradientUnits="userSpaceOnUse" xlink:href="#linearGradient3802"/><linearGradient id="linearGradient4392" x1="64.585" x2="31.78" y1="35.5" y2="51.5" gradientTransform="matrix(-1,0,0,1,127.79222,-0.671)" gradientUnits="userSpaceOnUse" xlink:href="#linearGradient3848"/><linearGradient id="linearGradient4394" x1="46.132" x2="33.83" y1="57.5" y2="37.5" gradientTransform="matrix(-1,0,0,1,127.79222,-0.671)" gradientUnits="userSpaceOnUse" xlink:href="#linearGradient3802"/><linearGradient id="linearGradient4396" x1="48.182" x2="42.031" y1="79.5" y2="82.5" gradientTransform="matrix(-1,0,0,1,127.79222,-0.671)" gradientUnits="userSpaceOnUse" xlink:href="#linearGradient3840"/><linearGradient id="linearGradient4398" x1="20.174" x2="46.828" y1="97.839" y2="84.839" gradientTransform="translate(67.637396,-4.010466)" gradientUnits="userSpaceOnUse" xlink:href="#linearGradient3824"/><linearGradient id="linearGradient4400" x1="27.35" x2="65.281" y1="101.339" y2="82.839" gradientTransform="matrix(-1,0,0,1,128.48823,-1.010466)" gradientUnits="userSpaceOnUse" xlink:href="#linearGradient3832"/><linearGradient id="linearGradient4402" x1="64.585" x2="64.585" y1="43.5" y2="58.5" gradientTransform="matrix(-1,0,0,1,165.72284,-19.171)" gradientUnits="userSpaceOnUse" xlink:href="#linearGradient3786"/><linearGradient id="linearGradient4404" x1="64.585" x2="64.585" y1="43.5" y2="58.5" gradientTransform="translate(-1.3769232,-0.671)" gradientUnits="userSpaceOnUse" xlink:href="#linearGradient3786"/><linearGradient id="linearGradient5228" x1="260" x2="380" y1="452.362" y2="692.362" gradientTransform="matrix(0.1025355,0,0,0.1025355,67.657185,48.31256)" gradientUnits="userSpaceOnUse" xlink:href="#linearGradient5199"/><linearGradient id="linearGradient2552" x1="64.585" x2="64.585" y1="43.5" y2="58.5" gradientTransform="translate(-2.050304,-1.40625)" gradientUnits="userSpaceOnUse" xlink:href="#linearGradient3786"/><linearGradient id="linearGradient2555" x1="64.585" x2="64.585" y1="43.5" y2="58.5" gradientTransform="matrix(-1,0,0,1,165.04946,-19.90625)" gradientUnits="userSpaceOnUse" xlink:href="#linearGradient3786"/><linearGradient id="linearGradient2558" x1="27.35" x2="65.281" y1="101.339" y2="82.839" gradientTransform="matrix(-1,0,0,1,127.81485,-1.745716)" gradientUnits="userSpaceOnUse" xlink:href="#linearGradient3832"/><linearGradient id="linearGradient2561" x1="20.174" x2="46.828" y1="97.839" y2="84.839" gradientTransform="translate(66.964015,-4.745716)" gradientUnits="userSpaceOnUse" xlink:href="#linearGradient3824"/><linearGradient id="linearGradient2564" x1="48.182" x2="42.031" y1="79.5" y2="82.5" gradientTransform="matrix(-1,0,0,1,127.11884,-1.40625)" gradientUnits="userSpaceOnUse" xlink:href="#linearGradient3840"/><linearGradient id="linearGradient2567" x1="46.132" x2="33.83" y1="57.5" y2="37.5" gradientTransform="matrix(-1,0,0,1,127.11884,-1.40625)" gradientUnits="userSpaceOnUse" xlink:href="#linearGradient3802"/><linearGradient id="linearGradient2570" x1="64.585" x2="31.78" y1="35.5" y2="51.5" gradientTransform="matrix(-1,0,0,1,127.11884,-1.40625)" gradientUnits="userSpaceOnUse" xlink:href="#linearGradient3848"/><linearGradient id="linearGradient2573" x1="46.132" x2="33.83" y1="57.5" y2="37.5" gradientTransform="translate(35.880315,-19.90625)" gradientUnits="userSpaceOnUse" xlink:href="#linearGradient3802"/><linearGradient id="linearGradient2576" x1="64.585" x2="64.585" y1="43.5" y2="58.5" gradientTransform="translate(-39.980925,-19.90625)" gradientUnits="userSpaceOnUse" xlink:href="#linearGradient3786"/><linearGradient id="linearGradient2579" x1="27.35" x2="65.281" y1="101.339" y2="82.839" gradientTransform="translate(-2.746313,-1.745716)" gradientUnits="userSpaceOnUse" xlink:href="#linearGradient3832"/><linearGradient id="linearGradient2582" x1="20.174" x2="46.828" y1="97.839" y2="84.839" gradientTransform="matrix(-1,0,0,1,58.104517,-4.745716)" gradientUnits="userSpaceOnUse" xlink:href="#linearGradient3824"/><linearGradient id="linearGradient2585" x1="48.182" x2="42.031" y1="79.5" y2="82.5" gradientTransform="translate(-2.050304,-1.40625)" gradientUnits="userSpaceOnUse" xlink:href="#linearGradient3840"/><linearGradient id="linearGradient2588" x1="46.132" x2="33.83" y1="57.5" y2="37.5" gradientTransform="translate(-2.050304,-1.40625)" gradientUnits="userSpaceOnUse" xlink:href="#linearGradient3802"/><linearGradient id="linearGradient2591" x1="64.585" x2="31.78" y1="35.5" y2="51.5" gradientTransform="translate(-2.050304,-1.40625)" gradientUnits="userSpaceOnUse" xlink:href="#linearGradient3848"/><linearGradient id="linearGradient2594" x1="46.132" x2="33.83" y1="57.5" y2="37.5" gradientTransform="matrix(-1,0,0,1,89.188217,-19.90625)" gradientUnits="userSpaceOnUse" xlink:href="#linearGradient3802"/><linearGradient id="linearGradient2597" x1="64.585" x2="64.585" y1="43.5" y2="58.5" gradientTransform="translate(-2.0503041,-38.40625)" gradientUnits="userSpaceOnUse" xlink:href="#linearGradient3786"/></defs><path style="fill:#000;fill-opacity:1;fill-rule:evenodd;stroke:#000;stroke-width:1;stroke-linecap:butt;stroke-linejoin:round;stroke-miterlimit:4;stroke-dasharray:none;stroke-opacity:1" id="path4621" d="M 62.4375,5.09375 C 62.167082,5.1027666 61.901305,5.1665532 61.65625,5.28125 L 48.34375,11.78125 C 47.950444,11.975757 47.632007,12.294194 47.4375,12.6875 L 38.5,30.125 L 25.46875,23.78125 C 24.916364,23.512529 24.271136,23.512529 23.71875,23.78125 L 10.40625,30.28125 C 9.7134798,30.618337 9.2758905,31.323342 9.28125,32.09375 L 9.28125,93.09375 C 9.2758905,93.864158 9.7134798,94.569163 10.40625,94.90625 L 23.71875,101.40625 C 24.271136,101.67497 24.916364,101.67497 25.46875,101.40625 L 38.8125,94.90625 C 39.50527,94.569163 39.94286,93.864158 39.9375,93.09375 L 39.9375,83.1875 C 40.366689,83.288163 40.817111,83.244219 41.21875,83.0625 L 47.21875,80.1875 L 47.21875,111.59375 C 47.21339,112.36416 47.65098,113.06916 48.34375,113.40625 L 61.65625,119.90625 C 62.208636,120.17497 62.853864,120.17497 63.40625,119.90625 L 76.75,113.40625 C 77.44277,113.06916 77.88036,112.36416 77.875,111.59375 L 77.875,80.1875 L 83.875,83.0625 C 84.263962,83.247857 84.70238,83.302659 85.125,83.21875 L 85.125,93.09375 C 85.11964,93.864158 85.55723,94.569163 86.25,94.90625 L 99.59375,101.40625 C 100.14614,101.67497 100.79136,101.67497 101.34375,101.40625 L 114.65625,94.90625 C 115.34902,94.569163 115.78661,93.864158 115.78125,93.09375 L 115.78125,32.09375 C 115.78661,31.323342 115.34902,30.618337 114.65625,30.28125 L 101.34375,23.78125 C 100.79136,23.512529 100.14614,23.512529 99.59375,23.78125 L 86.59375,30.125 L 77.65625,12.6875 C 77.461743,12.294194 77.143306,11.975757 76.75,11.78125 L 63.40625,5.28125 C 63.104058,5.1388311 62.771008,5.0743697 62.4375,5.09375 L 62.4375,5.09375 z"/><path id="path3794" d="M 62.534267,20.09375 L 49.207292,13.59375 L 62.534267,7.09375 L 75.861242,13.59375 L 62.534267,20.09375 z" style="fill:url(#linearGradient2597);fill-opacity:1;fill-rule:evenodd;stroke:#fff;stroke-width:1.5;stroke-linecap:butt;stroke-linejoin:round;stroke-miterlimit:4;stroke-dasharray:none;stroke-opacity:1"/><path id="path3810" d="M 62.534267,20.09375 L 49.207292,13.59375 L 36.905469,37.59375 L 50.232444,44.09375 L 62.534267,20.09375 z" style="fill:url(#linearGradient2594);fill-opacity:1;fill-rule:evenodd;stroke:#fff;stroke-width:1.5;stroke-linecap:butt;stroke-linejoin:round;stroke-miterlimit:4;stroke-dasharray:none;stroke-opacity:1"/><path style="fill:url(#linearGradient2591);fill-opacity:1;fill-rule:evenodd;stroke:#fff;stroke-width:1.5;stroke-linecap:butt;stroke-linejoin:round;stroke-miterlimit:4;stroke-dasharray:none;stroke-opacity:1" id="path3734" d="M 62.534267,44.09375 L 62.534267,20.09375 L 50.232444,44.09375 L 37.930621,32.09375 L 48.18214,52.09375 L 62.534267,44.09375 L 62.534267,44.09375"/><path style="fill:url(#linearGradient2588);fill-opacity:1;fill-rule:evenodd;stroke:#fff;stroke-width:1;stroke-linecap:butt;stroke-linejoin:round;stroke-miterlimit:4;stroke-dasharray:none;stroke-opacity:1" id="path3720" d="M 24.603646,38.59375 L 37.930621,32.09375 L 50.232444,56.09375 L 36.905469,62.59375 L 24.603646,38.59375 z"/><path style="fill:url(#linearGradient2585);fill-opacity:1;fill-rule:evenodd;stroke:#fff;stroke-width:1.5;stroke-linecap:butt;stroke-linejoin:round;stroke-miterlimit:4;stroke-dasharray:none;stroke-opacity:1" id="path3736" d="M 40.332696,81.26475 L 49.207292,77 L 49.207292,72.59375 L 40.332696,81.26475 z"/><path id="path3742" d="M 37.930621,80.093746 L 37.930621,93.09375 L 24.603646,99.59375 L 24.603646,60.593746" style="fill:url(#linearGradient2582);fill-opacity:1;fill-rule:evenodd;stroke:#fff;stroke-width:1.5;stroke-linecap:butt;stroke-linejoin:round;stroke-miterlimit:4;stroke-dasharray:none;stroke-opacity:1"/><path style="fill:url(#linearGradient2579);fill-opacity:1;fill-rule:evenodd;stroke:#fff;stroke-width:1.5;stroke-linecap:butt;stroke-linejoin:round;stroke-miterlimit:4;stroke-dasharray:none;stroke-opacity:1;opacity:.96" id="path2384" d="M 49.207292,111.59375 L 62.534267,118.09375 L 62.534267,57.09375 L 49.207292,50.59375 L 36.905469,62.59375 L 24.603646,38.59375 L 11.276671,32.09375 L 11.276671,93.09375 L 24.603646,99.59375 L 24.603646,60.59375 L 33.50087,77.933216 L 40.332493,81.265221 L 49.207292,72.59375 L 49.207292,111.59375 z"/><path style="fill:url(#linearGradient2576);fill-opacity:1;fill-rule:evenodd;stroke:#fff;stroke-width:1.5;stroke-linecap:butt;stroke-linejoin:round;stroke-miterlimit:4;stroke-dasharray:none;stroke-opacity:1" id="path3796" d="M 24.603646,38.59375 L 11.276671,32.09375 L 24.603646,25.59375 L 37.930621,32.09375 L 24.603646,38.59375 z"/><path style="fill:url(#linearGradient2573);fill-opacity:1;fill-rule:evenodd;stroke:#fff;stroke-width:1.5;stroke-linecap:butt;stroke-linejoin:round;stroke-miterlimit:4;stroke-dasharray:none;stroke-opacity:1" id="path3889" d="M 62.534265,20.09375 L 75.86124,13.59375 L 88.163063,37.59375 L 74.836088,44.09375 L 62.534265,20.09375 z"/><path id="path3891" d="M 62.534265,44.09375 L 62.534265,20.09375 L 74.836088,44.09375 L 87.137911,32.09375 L 76.886392,52.09375 L 62.534265,44.09375 L 62.534265,44.09375" style="fill:url(#linearGradient2570);fill-opacity:1;fill-rule:evenodd;stroke:#fff;stroke-width:1.5;stroke-linecap:butt;stroke-linejoin:round;stroke-miterlimit:4;stroke-dasharray:none;stroke-opacity:1"/><path id="path3893" d="M 100.46489,38.59375 L 87.137911,32.09375 L 74.836088,56.09375 L 88.163063,62.59375 L 100.46489,38.59375 z" style="fill:url(#linearGradient2567);fill-opacity:1;fill-rule:evenodd;stroke:#fff;stroke-width:1;stroke-linecap:butt;stroke-linejoin:round;stroke-miterlimit:4;stroke-dasharray:none;stroke-opacity:1"/><path id="path3895" d="M 84.735836,81.26475 L 75.86124,77 L 75.86124,72.59375 L 84.735836,81.26475 z" style="fill:url(#linearGradient2564);fill-opacity:1;fill-rule:evenodd;stroke:#fff;stroke-width:1.5;stroke-linecap:butt;stroke-linejoin:round;stroke-miterlimit:4;stroke-dasharray:none;stroke-opacity:1"/><path style="fill:url(#linearGradient2561);fill-opacity:1;fill-rule:evenodd;stroke:#fff;stroke-width:1.5;stroke-linecap:butt;stroke-linejoin:round;stroke-miterlimit:4;stroke-dasharray:none;stroke-opacity:1" id="path3897" d="M 87.137911,80.093746 L 87.137911,93.09375 L 100.46489,99.59375 L 100.46489,60.593746"/><path id="path3899" d="M 75.86124,111.59375 L 62.534265,118.09375 L 62.534265,57.09375 L 75.86124,50.59375 L 88.163063,62.59375 L 100.46489,38.59375 L 113.79186,32.09375 L 113.79186,93.09375 L 100.46489,99.59375 L 100.46489,60.59375 L 91.567662,77.933216 L 84.736039,81.265221 L 75.86124,72.59375 L 75.86124,111.59375 z" style="fill:url(#linearGradient2558);fill-opacity:1;fill-rule:evenodd;stroke:#fff;stroke-width:1.5;stroke-linecap:butt;stroke-linejoin:round;stroke-miterlimit:4;stroke-dasharray:none;stroke-opacity:1"/><path id="path3901" d="M 100.46489,38.59375 L 113.79186,32.09375 L 100.46489,25.59375 L 87.137911,32.09375 L 100.46489,38.59375 z" style="fill:url(#linearGradient2555);fill-opacity:1;fill-rule:evenodd;stroke:#fff;stroke-width:1.5;stroke-linecap:butt;stroke-linejoin:round;stroke-miterlimit:4;stroke-dasharray:none;stroke-opacity:1"/><path style="fill:url(#linearGradient2552);fill-opacity:1;fill-rule:evenodd;stroke:#fff;stroke-width:1.5;stroke-linecap:butt;stroke-linejoin:round;stroke-miterlimit:4;stroke-dasharray:none;stroke-opacity:1" id="path3714" d="M 62.534267,57.09375 L 49.207292,50.59375 L 62.534267,44.09375 L 75.861242,50.59375 L 62.534267,57.09375 z"/><path style="fill:#000;fill-opacity:1;fill-rule:evenodd;stroke:#000;stroke-width:1;stroke-linecap:butt;stroke-linejoin:round;stroke-miterlimit:4;stroke-dasharray:none;stroke-opacity:1" id="path5220" d="M 94.3125,80.65625 C 93.847761,80.654251 93.401479,80.837983 93.072856,81.166606 C 92.744233,81.495229 92.560501,81.941511 92.5625,82.40625 L 92.5625,92.9375 L 82,92.9375 C 81.535261,92.935501 81.088979,93.119233 80.760356,93.447856 C 80.431733,93.776479 80.248001,94.222761 80.25,94.6875 L 80.25,107 C 80.248001,107.46474 80.431733,107.91102 80.760356,108.23964 C 81.088979,108.56827 81.535261,108.752 82,108.75 L 92.5625,108.75 L 92.5625,119.3125 C 92.560501,119.77724 92.744233,120.22352 93.072856,120.55214 C 93.401479,120.88077 93.847761,121.0645 94.3125,121.0625 L 106.625,121.0625 C 107.08974,121.0645 107.53602,120.88077 107.86464,120.55214 C 108.19327,120.22352 108.377,119.77724 108.375,119.3125 L 108.375,108.75 L 118.9375,108.75 C 119.40224,108.752 119.84852,108.56827 120.17714,108.23964 C 120.50577,107.91102 120.6895,107.46474 120.6875,107 L 120.6875,94.6875 C 120.6895,94.222761 120.50577,93.776479 120.17714,93.447856 C 119.84852,93.119233 119.40224,92.935501 118.9375,92.9375 L 108.375,92.9375 L 108.375,82.40625 C 108.377,81.941511 108.19327,81.495229 107.86464,81.166606 C 107.53602,80.837983 107.08974,80.654251 106.625,80.65625 L 94.3125,80.65625 z" transform="translate(-4.88271e-2,-0.65625)"/><path style="fill:url(#linearGradient5228);fill-opacity:1;fill-rule:evenodd;stroke:#fff;stroke-width:1.5;stroke-linecap:butt;stroke-linejoin:round;stroke-miterlimit:4;stroke-dasharray:none;stroke-opacity:1" id="path5212" d="M 94.3125,82.40625 L 94.3125,94.6875 L 82,94.6875 L 82,107 L 94.3125,107 L 94.3125,119.3125 L 106.625,119.3125 L 106.625,107 L 118.9375,107 L 118.9375,94.6875 L 106.625,94.6875 L 106.625,82.40625 L 94.3125,82.40625 z" transform="translate(-4.88271e-2,-0.65625)"/></svg>