<?xml version="1.0" encoding="UTF-8" standalone="no"?>
<!-- Created with Inkscape (http://www.inkscape.org/) -->

<svg
   xmlns:dc="http://purl.org/dc/elements/1.1/"
   xmlns:cc="http://creativecommons.org/ns#"
   xmlns:rdf="http://www.w3.org/1999/02/22-rdf-syntax-ns#"
   xmlns:svg="http://www.w3.org/2000/svg"
   xmlns="http://www.w3.org/2000/svg"
   xmlns:sodipodi="http://sodipodi.sourceforge.net/DTD/sodipodi-0.dtd"
   xmlns:inkscape="http://www.inkscape.org/namespaces/inkscape"
   width="256"
   height="256"
   viewBox="0 0 256 256"
   version="1.1"
   id="root"
   inkscape:version="0.92.1 r15371"
   sodipodi:docname="residualvm-symbolic.svg">
  <defs
     id="defs4517" />
  <sodipodi:namedview
     id="base"
     pagecolor="#ffffff"
     bordercolor="#666666"
     borderopacity="1.0"
     inkscape:pageopacity="0.0"
     inkscape:pageshadow="2"
     inkscape:zoom="2.5078125"
     inkscape:cx="128"
     inkscape:cy="128.64693"
     inkscape:document-units="px"
     inkscape:current-layer="layer2"
     showgrid="true"
     units="px"
     inkscape:pagecheckerboard="true"
     inkscape:window-width="1428"
     inkscape:window-height="855"
     inkscape:window-x="295"
     inkscape:window-y="192"
     inkscape:window-maximized="0">
    <inkscape:grid
       type="xygrid"
       id="grid4482"
       empspacing="4" />
  </sodipodi:namedview>
  <metadata
     id="metadata4520">
    <rdf:RDF>
      <cc:Work
         rdf:about="">
        <dc:format>image/svg+xml</dc:format>
        <dc:type
           rdf:resource="http://purl.org/dc/dcmitype/StillImage" />
        <dc:title></dc:title>
        <cc:license
           rdf:resource="https://www.gnu.org/licenses/old-licenses/gpl-2.0.en.html" />
      </cc:Work>
    </rdf:RDF>
  </metadata>
  <g
     inkscape:groupmode="layer"
     id="layer2"
     inkscape:label="R"
     style="display:inline">
    <path
       style="opacity:1;stroke-width:0.5;stroke:none"
       d="M 92.691406,0.50195312 C 75.349866,0.49976313 71.65143,0.85607312 63.5,3.3144531 44.923794,8.9168331 33.818967,20.07126 30.214844,36.75 c -1.141472,5.28237 -1.17095,15.52858 -0.0625,21.25 0.45286,2.3375 1.162886,7.2875 1.578125,11 4.689603,41.92802 4.395835,90.22569 -0.796875,131 -2.156412,16.93261 -1.172586,23.38368 4.857422,31.83398 6.355616,8.90659 19.406624,15.1725 34.662109,16.64063 2.637775,0.25386 8.621875,0.3733 13.296875,0.26562 21.65912,-0.49887 36.00137,-6.17151 42.75,-16.9082 0.9625,-1.53129 1.8757,-2.79539 2.0293,-2.80859 0.15361,-0.0132 1.16611,1.35695 2.25,3.04492 2.10895,3.2843 7.9432,8.57478 11.73242,10.63867 2.98196,1.62419 9.87322,3.59917 16.98828,4.86914 8.1492,1.45456 26.86106,1.84554 35.25,0.73633 13.3281,-1.76227 19.55192,-4.46057 26.55078,-11.51367 3.81106,-3.84059 4.92683,-5.35602 6.8711,-9.31836 3.04096,-6.19735 3.88651,-9.51878 4.18945,-16.48047 0.42696,-9.81151 -1.72536,-18.04387 -7.70899,-29.5 -5.22253,-9.99895 -10.00716,-16.74967 -18.66992,-26.33594 -1.28538,-1.42242 -2.81822,-3.39925 -3.4043,-4.39258 l -1.06445,-1.80664 6.63086,-6.87304 c 12.60333,-13.06537 18.49591,-23.30347 21.40625,-37.19141 C 232.03031,93.068251 229.98593,74.39078 224.63867,60 220.89242,49.91793 216.63068,42.829306 210.26562,36.097656 200.30166,25.559846 188.19791,18.490258 167.80664,11.298828 145.25794,3.3465481 125.49652,0.50595312 92.691406,0.50195312 Z M 88.035156,20.537109 c 4.68787,-0.03627 10.717579,0.209895 19.464844,0.72461 26.10196,1.53592 38.41145,3.865754 56.25,10.646484 22.55887,8.575 33.12168,17.015946 39.45898,31.535156 4.58561,10.50594 6.98701,27.369537 5.2461,36.839841 -1.65131,8.98291 -5.77453,15.60764 -16.46875,26.4668 -9.01634,9.1554 -11.60738,12.59786 -13.04297,17.32422 -0.97352,3.20512 -0.98355,3.49591 -0.21094,6.51172 1.46911,5.73451 4.12072,9.87062 14.20508,22.16406 7.04705,8.59078 9.80871,12.75734 13.58789,20.5 3.33329,6.82912 4.47461,10.74622 4.47461,15.35547 0,9.20425 -4.86063,14.60486 -15,16.66406 -8.5099,1.72827 -26.61168,1.44184 -36.5,-0.57812 -10.30698,-2.10548 -13.08539,-5.48774 -15.00781,-18.26758 -0.55221,-3.67094 -1.45574,-8.03828 -2.00781,-9.70508 -3.06755,-9.26124 -12.20146,-16.55045 -19.38868,-15.47266 -4.13789,0.62052 -7.2423,2.10776 -9.65625,4.62305 -6.02225,6.2751 -6.76345,9.89104 -5.16601,25.19336 0.908,8.69788 0.78222,9.10509 -3.44727,11.16992 -7.078741,3.45584 -20.781165,5.00726 -32.57617,3.68946 -10.93511,-1.22173 -17.73575,-4.4771 -20.265625,-9.70313 -1.247,-2.57595 -1.284796,-1.53817 0.683594,-18.21875 4.46359,-37.82538 5.083062,-78.87462 1.789062,-118.5 C 53.329566,65.93709 52.300216,57.354113 51.572266,55.439453 51.309096,54.747263 50.816413,52.056614 50.476562,49.458984 48.479665,34.195824 57.056209,25.02297 76.621094,21.5 80.000609,20.891465 83.347286,20.573377 88.035156,20.537109 Z M 124.25,74.75 c -6.50657,0 -8.73461,0.793344 -12.72656,4.527344 -4.28519,4.0083 -6.55205,10.276816 -6.58985,18.222656 -0.063,13.25225 5.86058,22.73772 15.81641,25.32617 3.21239,0.83521 8.43263,0.46491 11.93555,-0.8457 8.57025,-3.20654 13.37954,-14.25496 11.91406,-27.369142 C 143.58131,85.498798 139.64468,79.364197 132.75,76.148438 130.03632,74.882746 129.22508,74.75 124.25,74.75 Z"
       id="path4539"
       inkscape:connector-curvature="0" />
    <path
       style="opacity:0.4;stroke-width:0.5;stroke:none"
       d="m 88.035156,20.537109 c -4.68787,0.03627 -8.034547,0.354356 -11.414062,0.962891 -19.564885,3.52297 -28.14143,12.695824 -26.144532,27.958984 0.339851,2.59763 0.832534,5.288279 1.095704,5.980469 0.72795,1.91466 1.7573,10.497637 2.884765,24.060547 3.294,39.62538 2.674528,80.67462 -1.789062,118.5 -1.96839,16.68058 -1.930594,15.6428 -0.683594,18.21875 2.529875,5.22603 9.330515,8.4814 20.265625,9.70313 11.795005,1.3178 25.497427,-0.23362 32.57617,-3.68946 4.22949,-2.06483 4.35527,-2.47204 3.44727,-11.16992 -1.59744,-15.30232 -0.85624,-18.91826 5.16601,-25.19336 2.41395,-2.51529 5.51836,-4.00253 9.65625,-4.62305 7.18722,-1.07779 16.32113,6.21142 19.38868,15.47266 0.55207,1.6668 1.4556,6.03414 2.00781,9.70508 1.92242,12.77984 4.70083,16.1621 15.00781,18.26758 9.88832,2.01996 27.9901,2.30639 36.5,0.57812 10.13937,-2.0592 15,-7.45981 15,-16.66406 0,-4.60925 -1.14132,-8.52635 -4.47461,-15.35547 -3.77918,-7.74266 -6.54084,-11.90922 -13.58789,-20.5 -10.08436,-12.29344 -12.73597,-16.42955 -14.20508,-22.16406 -0.77261,-3.01581 -0.76258,-3.3066 0.21094,-6.51172 1.43559,-4.72636 4.02663,-8.16882 13.04297,-17.32422 10.69422,-10.85916 14.81744,-17.48389 16.46875,-26.4668 1.74091,-9.470307 -0.66049,-26.333901 -5.2461,-36.839841 C 196.87168,48.924149 186.30887,40.483203 163.75,31.908203 145.91145,25.127473 133.60196,22.797639 107.5,21.261719 98.752735,20.747004 92.723026,20.500842 88.035156,20.537109 Z M 124.25,74.75 c 4.97508,0 5.78632,0.132747 8.5,1.398438 6.89468,3.215759 10.83131,9.35036 11.84961,18.46289 1.46548,13.114182 -3.34381,24.162602 -11.91406,27.369142 -3.50292,1.31061 -8.72316,1.68091 -11.93555,0.8457 -9.95583,-2.58845 -15.87936,-12.07392 -15.81641,-25.32617 0.0378,-7.94584 2.30466,-14.214356 6.58985,-18.222656 C 115.51539,75.543344 117.74343,74.75 124.25,74.75 Z"
       id="path4535"
       inkscape:connector-curvature="0" />
  </g>
</svg>
