<?xml version="1.0" encoding="UTF-8" standalone="no"?>
<svg
   xmlns:dc="http://purl.org/dc/elements/1.1/"
   xmlns:cc="http://creativecommons.org/ns#"
   xmlns:rdf="http://www.w3.org/1999/02/22-rdf-syntax-ns#"
   xmlns:svg="http://www.w3.org/2000/svg"
   xmlns="http://www.w3.org/2000/svg"
   xmlns:sodipodi="http://sodipodi.sourceforge.net/DTD/sodipodi-0.dtd"
   xmlns:inkscape="http://www.inkscape.org/namespaces/inkscape"
   width="180"
   height="180"
   version="1.1"
   id="svg1113"
   sodipodi:docname="nintendo3ds-symbolic.svg"
   viewBox="0 0 126 126"
   inkscape:version="0.92.3 (2405546, 2018-03-11)">
  <metadata
     id="metadata1119">
    <rdf:RDF>
      <cc:Work
         rdf:about="">
        <dc:format>image/svg+xml</dc:format>
        <dc:type
           rdf:resource="http://purl.org/dc/dcmitype/StillImage" />
        <dc:title></dc:title>
      </cc:Work>
    </rdf:RDF>
  </metadata>
  <defs
     id="defs1117" />
  <sodipodi:namedview
     pagecolor="#ffffff"
     bordercolor="#666666"
     borderopacity="1"
     objecttolerance="10"
     gridtolerance="10"
     guidetolerance="10"
     inkscape:pageopacity="0"
     inkscape:pageshadow="2"
     inkscape:window-width="1868"
     inkscape:window-height="1015"
     id="namedview1115"
     showgrid="false"
     scale-x="0.7"
     inkscape:zoom="3.3714851"
     inkscape:cx="113.15822"
     inkscape:cy="59.775442"
     inkscape:window-x="49"
     inkscape:window-y="28"
     inkscape:window-maximized="0"
     inkscape:current-layer="svg1113" />
  <g
     id="g1130"
     transform="matrix(0.99298569,0,0,0.99298569,-114.84374,-101.14053)">
    <path
       inkscape:connector-curvature="0"
       style="opacity:0.4"
       id="path1085"
       d="m 130.6,177 c 0,0.3 -0.3,0.6 -0.6,0.6 h -10.9 c -0.3,0 -0.6,-0.3 -0.6,-0.6 v -7.9 c 0,-0.3 0.3,-0.6 0.6,-0.6 H 130 c 0.3,0 0.6,0.3 0.6,0.6 z m -0.5,-10.9 -11.1,0.001 c -1.6,0 -2.9,1.3 -2.9,2.9 v 7.9 c 0,1.6 1.3,2.9 2.9,2.9 h 11.1 c 1.6,0 2.9,-1.3 2.9,-2.9 v -7.9 c 0,-1.6 -1.3,-2.9 -2.9,-2.9" />
    <path
       style="opacity:0.6"
       inkscape:connector-curvature="0"
       id="path1101"
       d="m 130.6,161.6 c 0,0.3 -0.3,0.6 -0.6,0.6 h -10.9 c -0.3,0 -0.6,-0.3 -0.6,-0.6 v -7.9 c 0,-0.3 0.3,-0.6 0.6,-0.6 H 130 c 0.3,0 0.6,0.3 0.6,0.6 z m -0.5,-10.9 H 119 c -1.6,0 -2.9,1.3 -2.9,2.9 v 8 c 0,1.6 1.3,2.9 2.9,2.9 h 11.1 c 1.6,0 2.9,-1.3 2.9,-2.9 v -8 c 0,-1.6 -1.3,-2.9 -2.9,-2.9" />
    <path
       inkscape:connector-curvature="0"
       id="path1103"
       d="m 213.1,174.2 c 2.6,1 8.2,1.9 12.6,1.9 4.8,0 6.8,-1.6 6.8,-3.7 0,-1.8 -1.8,-2.9 -7.1,-4.9 -7.1,-2.6 -12.2,-4.7 -12.2,-9.3 0,-4.8 6.2,-7.6 15.7,-7.6 5.1,0 6.8,0.3 10.1,0.9 v 4.6 c -3.2,-0.6 -6,-1.6 -10.4,-1.6 -4.7,0 -6.7,1.5 -6.7,3 0,2.2 3.1,3.3 8.5,5.2 7.5,2.7 11.7,4.8 11.7,9.3 0,4.7 -5.2,8 -17.1,8 -4.8,0 -8.2,-0.3 -11.9,-0.9 z" />
    <path
       inkscape:connector-curvature="0"
       id="path1105"
       d="m 188,154.6 h -5.6 v 21.3 h 5.6 c 8.6,0 14.1,-3.7 14.1,-10.6 0,-6.9 -5.4,-10.7 -14.1,-10.7 m 15.1,23.3 c -2.8,1.3 -8,2.1 -12.6,2.1 h -17.6 v -29.3 h 17.6 c 4.6,0 9.9,0.8 12.7,2.1 6.8,3.1 9,7.9 9,12.6 0,4.6 -2.2,9.5 -9,12.6" />
    <path
       inkscape:connector-curvature="0"
       id="path1107"
       d="m 160.5,163.9 c 0,0 8.2,-1.3 8.2,-6.4 0,-5 -8.7,-7 -18,-7 -8.4,0 -13.9,1 -13.9,1 v 4.5 c 3.8,-0.9 7.4,-1.7 12.4,-1.7 5.3,0 9.4,1.6 9.4,3.8 0,2.7 -4,4.3 -12.7,4.3 h -4 v 4.1 h 3.7 c 9.1,0 14.3,1.4 14.3,4.7 0,3 -4.6,4.8 -10.4,4.8 -5,0 -9.6,-1.1 -13.4,-2.1 v 4.9 c 1.8,0.3 6.6,1.3 15.4,1.3 9.8,0 18.4,-3.2 18.4,-8.7 0,-4.7 -5.9,-7.4 -9.4,-7.4" />
  </g>
</svg>
