<svg xmlns="http://www.w3.org/2000/svg" xmlns:svg="http://www.w3.org/2000/svg" id="root" width="256" height="256" version="1.1" viewBox="0 0 256 256"><metadata id="metadata4520"/><g id="layer1" transform="translate(0,-229.26666)" style="display:inline"><path style="opacity:1;fill-opacity:1;stroke:none;stroke-width:24;stroke-miterlimit:4;stroke-dasharray:none;stroke-opacity:1" id="rect4512" d="M 16 24 C 11.568 24 8 27.568 8 32 L 8 232 C 8 236.432 11.568 240 16 240 L 168 240 C 172.432 240 176 236.432 176 232 L 176 32 C 176 27.568 172.432 24 168 24 L 120 24 L 120 88 L 136 104 L 136 152 L 88 152 L 88 104 L 104 88 L 104 24 L 16 24 z" transform="translate(0,229.26666)"/><path style="display:inline;color:#000;font-style:normal;font-variant:normal;font-weight:400;font-stretch:normal;font-size:medium;line-height:normal;font-family:sans-serif;font-variant-ligatures:normal;font-variant-position:normal;font-variant-caps:normal;font-variant-numeric:normal;font-variant-alternates:normal;font-feature-settings:normal;text-indent:0;text-align:start;text-decoration:none;text-decoration-line:none;text-decoration-style:solid;text-decoration-color:#000;letter-spacing:normal;word-spacing:normal;text-transform:none;writing-mode:lr-tb;direction:ltr;text-orientation:mixed;dominant-baseline:auto;baseline-shift:baseline;text-anchor:start;white-space:normal;shape-padding:0;clip-rule:nonzero;overflow:visible;visibility:visible;opacity:1;isolation:auto;mix-blend-mode:normal;color-interpolation:sRGB;color-interpolation-filters:linearRGB;solid-color:#000;solid-opacity:1;vector-effect:none;fill-opacity:1;fill-rule:nonzero;stroke:none;stroke-width:32;stroke-linecap:butt;stroke-linejoin:miter;stroke-miterlimit:4;stroke-dasharray:none;stroke-dashoffset:0;stroke-opacity:1;color-rendering:auto;image-rendering:auto;shape-rendering:auto;text-rendering:auto;enable-background:accumulate" id="path4506" d="m 184,449.26666 c 42.98268,-3.24599 64,-40 64,-80 0,-40 -23.1697,-83.19325 -64,-84 h -40 v 164 z m 0,-132 c 20,0 32,28 32,52 0,24 -12,48 -32,48 -20,0 -28,-24 -28,-48 0,-24 8,-52 28,-52 z"/></g><g id="layer2" style="display:none"><path style="opacity:.2;fill-opacity:1;fill-rule:evenodd;stroke:none;stroke-width:1px;stroke-linecap:butt;stroke-linejoin:miter;stroke-opacity:1" id="path4519" d="m 104,24 v 64 l -16,16 v 48 h 48 V 104 L 120,88 V 24 Z"/></g></svg>