<svg xmlns="http://www.w3.org/2000/svg" xmlns:svg="http://www.w3.org/2000/svg" id="root" width="256" height="256" version="1.1" viewBox="0 0 256 256"><metadata id="metadata4520"/><g id="layer1" transform="translate(0,-229.26666)" style="display:none"><rect style="opacity:1;fill-opacity:1;stroke:none;stroke-width:34.21858978;stroke-miterlimit:4;stroke-dasharray:none;stroke-opacity:1" id="rect4501" width="40" height="216" x="108" y="249.267"/><path style="fill-rule:evenodd;stroke:none;stroke-width:1px;stroke-linecap:butt;stroke-linejoin:miter;stroke-opacity:1" id="path4505" d="m 152,249.26666 h 24 v 44 c 0,116 76,132 76,132 v 40 c -16,0 -100,-24 -100,-132 z"/><path id="path4509" d="M 104,249.26666 H 80 v 44 c 0,116 -76,132 -76,132 v 40 c 16,0 100,-24 100,-132 z" style="fill-rule:evenodd;stroke:none;stroke-width:1px;stroke-linecap:butt;stroke-linejoin:miter;stroke-opacity:1"/></g><g id="layer4" style="display:inline"><path style="display:inline;opacity:1;fill-opacity:1;stroke:none;stroke-width:34.21858978;stroke-miterlimit:4;stroke-dasharray:none;stroke-opacity:1" id="rect4798" d="m 108,20 v 24 h 40 V 20 Z m 0,32 v 24 h 40 V 52 Z m 0,32 v 24 h 40 V 84 Z m 0,32 v 24 h 40 v -24 z m 0,32 v 24 h 40 v -24 z m 0,32 v 24 h 40 v -24 z m 0,32 v 24 h 40 v -24 z"/><path style="display:inline;fill-rule:evenodd;stroke:none;stroke-width:1px;stroke-linecap:butt;stroke-linejoin:miter;stroke-opacity:1" id="path4800" d="m 152,20 v 24 h 24 V 20 Z m 0,32 v 24 h 24.29297 C 176.10712,72.119368 176,68.130411 176,64 V 52 Z m 0,32 v 20 c 0,1.34947 0.0229,2.67664 0.0488,4 h 28.20312 c -1.54872,-7.38023 -2.72596,-15.36321 -3.44336,-24 z m 0.37305,32 c 0.52208,8.5657 1.59157,16.55837 3.13281,24 h 35.14258 c -3.28113,-7.09205 -6.18037,-15.06318 -8.51758,-24 z m 5.01953,32 c 2.33852,8.80776 5.35246,16.78135 8.85937,24 h 46.24414 c -6.20455,-6.29786 -12.35067,-14.17975 -17.78515,-24 z m 13.10937,32 c 5.46296,9.40043 11.77937,17.33326 18.44922,24 H 252 v -8 c 0,0 -14.37983,-3.03309 -30.62891,-16 z m 27.31055,32 c 22.48678,18.30531 46.39709,24 54.1875,24 v -24 z"/><path style="display:inline;fill-rule:evenodd;stroke:none;stroke-width:1px;stroke-linecap:butt;stroke-linejoin:miter;stroke-opacity:1" id="path4802" d="m 80,20 v 24 h 24 V 20 Z m 0,32 v 12 c 0,4.130411 -0.107116,8.119368 -0.292969,12 H 104 V 52 Z m -0.808594,32 c -0.717395,8.63679 -1.894635,16.61977 -3.443359,24 H 103.95117 C 103.9771,106.67664 104,105.34947 104,104 V 84 Z m -5.322265,32 c -2.337213,8.93682 -5.236449,16.90795 -8.517579,24 h 35.142578 c 1.54124,-7.44163 2.61073,-15.4343 3.13281,-24 z m -12.580079,32 c -5.434485,9.82025 -11.580598,17.70214 -17.785156,24 h 46.244141 c 3.50691,-7.21865 6.52085,-15.19224 8.859375,-24 z M 34.628906,180 C 18.379829,192.96691 4,196 4,196 v 8 h 63.048828 c 6.669856,-6.66674 12.986258,-14.59957 18.449219,-24 z M 4,212 v 24 c 7.790412,0 31.700717,-5.69469 54.1875,-24 z"/></g></svg>