<?xml version="1.0" encoding="UTF-8" standalone="no"?>
<!-- Created with Inkscape (http://www.inkscape.org/) -->

<svg
   xmlns:dc="http://purl.org/dc/elements/1.1/"
   xmlns:cc="http://creativecommons.org/ns#"
   xmlns:rdf="http://www.w3.org/1999/02/22-rdf-syntax-ns#"
   xmlns:svg="http://www.w3.org/2000/svg"
   xmlns="http://www.w3.org/2000/svg"
   xmlns:sodipodi="http://sodipodi.sourceforge.net/DTD/sodipodi-0.dtd"
   xmlns:inkscape="http://www.inkscape.org/namespaces/inkscape"
   id="root"
   sodipodi:docname="browser-symbolic.svg"
   version="1.1"
   inkscape:version="0.92.1 r15371"
   width="16"
   height="16"
   viewBox="0 0 16 16">
  <metadata
     id="metadata90">
    <rdf:RDF>
      <cc:Work
         rdf:about="">
        <dc:format>image/svg+xml</dc:format>
        <dc:type
           rdf:resource="http://purl.org/dc/dcmitype/StillImage" />
        <dc:title>Gnome Symbolic Icon Theme</dc:title>
      </cc:Work>
    </rdf:RDF>
  </metadata>
  <sodipodi:namedview
     inkscape:object-paths="false"
     inkscape:current-layer="root"
     inkscape:bbox-paths="false"
     inkscape:pageshadow="2"
     inkscape:snap-bbox="true"
     inkscape:pageopacity="1"
     inkscape:guide-bbox="true"
     pagecolor="#ffffff"
     bordercolor="#808080"
     showguides="true"
     inkscape:snap-bbox-midpoints="false"
     inkscape:window-maximized="0"
     inkscape:snap-grids="true"
     inkscape:window-width="1595"
     id="namedview88"
     inkscape:window-x="105"
     inkscape:window-y="120"
     gridtolerance="10"
     borderopacity="1"
     showgrid="false"
     inkscape:cx="8.0409274"
     inkscape:cy="8.5274289"
     inkscape:snap-nodes="false"
     inkscape:window-height="931"
     inkscape:snap-global="true"
     inkscape:object-nodes="false"
     objecttolerance="10"
     inkscape:snap-others="false"
     inkscape:zoom="24.713097"
     guidetolerance="10"
     inkscape:snap-to-guides="true"
     showborder="true"
     inkscape:pagecheckerboard="true">
    <inkscape:grid
       enabled="true"
       type="xygrid"
       id="grid4866"
       visible="true"
       snapvisiblegridlinesonly="true"
       empspacing="2"
       spacingx="1px"
       spacingy="1px" />
  </sodipodi:namedview>
  <title
     id="title9167">Gnome Symbolic Icon Theme</title>
  <defs
     id="defs7386" />
  <g
     style="display:inline"
     inkscape:groupmode="layer"
     id="layer9"
     inkscape:label="status"
     transform="translate(-183,-529)" />
  <g
     inkscape:groupmode="layer"
     id="layer10"
     inkscape:label="devices"
     transform="translate(-183,-529)" />
  <g
     inkscape:groupmode="layer"
     id="layer11"
     inkscape:label="apps"
     transform="translate(-183,-529)">
    <path
       style="color:#000000;display:block;overflow:visible;visibility:visible;fill-opacity:1;fill-rule:nonzero;stroke:none;stroke-width:1;marker:none;enable-background:accumulate"
       sodipodi:nodetypes="cccccccc"
       id="path6242"
       inkscape:connector-curvature="0"
       d="m 191.0002,533.84553 v 10.38049 l -2.34399,-2.28818 -1.33941,2.73465 c -0.32808,0.73962 -2.03368,0.14492 -1.5487,-0.84412 l 1.32547,-2.83928 h -2.95789 z" />
    <path
       style="color:#000000;font-style:normal;font-variant:normal;font-weight:normal;font-stretch:normal;font-size:medium;line-height:normal;font-family:Sans;-inkscape-font-specification:Sans;text-indent:0;text-align:start;text-decoration:none;text-decoration-line:none;letter-spacing:normal;word-spacing:normal;text-transform:none;writing-mode:lr-tb;direction:ltr;baseline-shift:baseline;text-anchor:start;display:inline;overflow:visible;visibility:visible;fill-opacity:1;stroke:none;stroke-width:2;marker:none;enable-background:accumulate"
       sodipodi:nodetypes="csccssccsssc"
       id="path23405"
       inkscape:connector-curvature="0"
       d="m 190.15645,530.0625 c -3.82659,0.46006 -6.57883,3.95775 -6.09375,7.78125 0.13127,1.03473 0.29377,1.38184 0.29377,1.38184 l 1.67498,-1.63184 c -0.33104,-2.75343 1.62156,-5.23146 4.375,-5.5625 2.75344,-0.33104 5.23146,1.62156 5.5625,4.375 0.31355,2.60795 -1.39127,5.02493 -3.96875,5.53125 l 0.0312,2 c 0,0 0.52086,-0.1059 0.62354,-0.13097 3.41561,-0.83385 5.70627,-4.1273 5.28271,-7.65028 -0.46006,-3.8266 -3.95466,-6.55381 -7.78125,-6.09375 z" />
    <path
       style="color:#000000;display:inline;overflow:visible;visibility:visible;opacity:0.3;fill-opacity:1;fill-rule:nonzero;stroke:none;stroke-width:1;marker:none;enable-background:accumulate"
       id="path11289"
       inkscape:connector-curvature="0"
       d="m 187.11293,536.81497 v -0.20574 l -0.19826,0.0186 c 0.0165,-0.13095 0.0329,-0.26167 0.0496,-0.3926 h -0.11578 l -0.11556,0.14959 -0.11578,0.0559 -0.1653,-0.0932 -0.0165,-0.20575 0.0331,-0.22438 0.24798,-0.18688 h 0.19826 l 0.0329,-0.11229 0.24786,0.0559 0.18183,0.2246 0.0331,-0.37419 0.31401,-0.26167 0.11567,-0.28055 0.23133,-0.0934 0.1322,-0.18688 0.29738,-0.0564 0.14885,-0.22415 c -0.14874,0 -0.29749,0 -0.44623,0 l 0.28094,-0.13095 h 0.19814 l 0.28106,-0.0937 0.0331,-0.11186 -0.0992,-0.0937 -0.11567,-0.0375 0.0331,-0.11208 -0.0826,-0.16822 -0.19837,0.0746 0.0331,-0.14947 -0.23134,-0.13096 -0.18171,0.3177 0.0165,0.11229 -0.18171,0.075 -0.11578,0.24302 -0.0495,-0.22438 -0.31402,-0.13095 -0.0496,-0.16822 0.41315,-0.24325 0.18182,-0.16822 0.0165,-0.20563 -0.0991,-0.0562 -0.13219,-0.0188 -0.0826,0.20575 c 0,0 -0.1382,0.0271 -0.17373,0.0358 -0.45378,0.41804 -1.37066,1.32044 -1.58368,3.02405 0.008,0.0395 0.15441,0.26854 0.15441,0.26854 l 0.347,0.20552 0.347,0.0937 m 3.96609,-4.30034 -0.4298,-0.16833 -0.49552,0.0561 -0.61161,0.16822 -0.11567,0.11229 0.38008,0.26167 v 0.14959 l -0.14875,0.14959 0.19846,0.39294 0.13188,-0.075 0.16561,-0.26168 c 0.2553,-0.0789 0.4842,-0.16833 0.72686,-0.28053 l 0.19846,-0.5048 m 2.52925,0.34192 -0.375,0.0937 -0.21875,0.15625 v 0.125 l -0.375,0.25 0.0937,0.34375 0.21875,-0.15625 0.125,0.15625 0.15625,0.0937 0.0937,-0.28125 -0.0625,-0.15625 0.0625,-0.0937 0.21875,-0.1875 h 0.0937 l -0.0937,0.21875 v 0.1875 c 0.0892,-0.0242 0.1588,-0.051 0.25,-0.0625 l -0.25,0.1875 v 0.125 l -0.3125,0.21875 -0.28125,-0.0625 v -0.15625 l -0.125,0.0625 0.0625,0.15625 h -0.21875 l -0.125,0.21875 -0.15625,0.15625 -0.0937,0.0312 v 0.1875 l 0.0312,0.15625 h -0.0312 v 0.53125 l 0.0625,-0.0312 0.0937,-0.21875 0.1875,-0.125 0.0312,-0.0937 0.28125,-0.0625 0.15625,0.1875 0.1875,0.0937 -0.0937,0.1875 0.15625,-0.0312 0.0625,-0.21875 -0.1875,-0.21875 h 0.0625 L 193.2501,535 l 0.0312,0.21875 0.15625,0.21875 0.0625,-0.3125 0.0937,-0.0312 c 0.0959,0.0996 0.1692,0.23163 0.25,0.34375 h 0.28125 l 0.1875,0.125 -0.0937,0.0937 -0.15625,0.15625 h -0.25 l -0.34375,-0.0937 h -0.1875 l -0.125,0.15625 -0.34375,-0.375 -0.25,-0.0625 -0.375,0.0625 -0.15625,0.0937 V 538 l 0.0312,0.0312 0.25,-0.15625 0.0937,0.0937 h 0.28125 l 0.125,0.15625 -0.0937,0.3125 0.1875,0.1875 v 0.375 l 0.125,0.25 -0.0937,0.25 c -0.009,0.16159 0,0.30714 0,0.46875 0.0795,0.21894 0.14355,0.43575 0.21875,0.65625 l 0.0625,0.34375 v 0.1875 h 0.125 l 0.21875,-0.125 h 0.25 l 0.375,-0.4375 -0.0312,-0.15625 0.25,-0.21875 -0.1875,-0.1875 0.21875,-0.1875 0.21875,-0.125 0.0937,-0.125 -0.0625,-0.25 v -0.59375 l 0.1875,-0.375 0.1875,-0.25 0.25,-0.5625 v -0.15625 c -0.11654,0.0146 -0.22972,0.0231 -0.34375,0.0312 -0.0722,0.005 -0.14446,0 -0.21875,0 -0.12359,-0.25961 -0.2183,-0.50966 -0.3125,-0.78125 l -0.15625,-0.1875 -0.0937,-0.3125 0.0625,-0.0625 0.21875,0.25 0.25,0.5625 0.15625,0.15625 -0.0625,0.21875 0.15625,0.15625 0.25,-0.25 0.3125,-0.21875 0.15625,-0.1875 v -0.21875 c -0.0389,-0.0732 -0.0547,-0.14545 -0.0937,-0.21875 l -0.15625,0.1875 -0.125,-0.15625 -0.1875,-0.125 v -0.28125 l 0.21875,0.21875 0.21875,-0.0312 c 0.10166,0.0923 0.19205,0.20751 0.28125,0.3125 l 0.15625,-0.1875 c 0,-0.17463 -0.19976,-1.02044 -0.625,-1.75 -0.42526,-0.72932 -1.15625,-1.40625 -1.15625,-1.40625 l -0.0625,0.0937 -0.21875,0.21875 -0.25,-0.25 h 0.25 l 0.125,-0.125 -0.46875,-0.0937 -0.25,-0.0937 z" />
  </g>
  <g
     inkscape:groupmode="layer"
     id="layer13"
     inkscape:label="places"
     transform="translate(-183,-529)" />
  <g
     inkscape:groupmode="layer"
     id="layer14"
     inkscape:label="mimetypes"
     transform="translate(-183,-529)" />
  <g
     style="display:inline"
     inkscape:groupmode="layer"
     id="layer15"
     inkscape:label="emblems"
     transform="translate(-183,-529)" />
  <g
     style="display:inline"
     inkscape:groupmode="layer"
     id="g71291"
     inkscape:label="emotes"
     transform="translate(-183,-529)" />
  <g
     style="display:inline"
     inkscape:groupmode="layer"
     id="g4953"
     inkscape:label="categories"
     transform="translate(-183,-529)" />
  <g
     style="display:inline"
     inkscape:groupmode="layer"
     id="layer12"
     inkscape:label="actions"
     transform="translate(-183,-529)" />
</svg>
