<svg xmlns="http://www.w3.org/2000/svg" xmlns:svg="http://www.w3.org/2000/svg" id="root" width="256" height="256" version="1.1" viewBox="0 0 256 256"><title id="title4796">DGen Logo</title><metadata id="metadata4520"/><g id="layer3" transform="translate(0,16)" style="display:inline"><path style="opacity:1;fill-opacity:1;fill-rule:evenodd;stroke:none;stroke-width:1px;stroke-linecap:butt;stroke-linejoin:miter;stroke-opacity:1" id="path4518" d="m 7,32 h 70 c 25.62168,0.147363 42,15 42,45 v 75 c 0,34 -17,47 -47,47 H 7 V 88 h 20 v 89 h 50 c 12,0 21,-9 21,-20 V 74 C 98,64 90,54 77,54 H 7 Z"/><path style="opacity:1;fill-opacity:1;fill-rule:evenodd;stroke:none;stroke-width:1px;stroke-linecap:butt;stroke-linejoin:miter;stroke-opacity:1" id="path4520" d="m 7,61 h 68 c 11,0 17,7 17,16 v 79 c 0,9 -7,14 -15,14 H 34 V 88 h 23 v 56 c 0,3 1,4 3,4 h 8 c 2,0 3,-1 3,-3 V 87 c 0,-3 -1,-4 -3,-4 H 7 Z"/></g><g id="layer4" transform="translate(0,16)" style="display:inline"><path id="path4523" d="m 251,32 h -77 c -25.62168,0.147363 -47,22 -47,53 v 62 c 0,34 26,52 45,52 h 79 V 90 h -70 v 22 h 51 v 65 h -55 c -16,0 -28,-13 -28,-30 V 84 c 0,-16 11,-30 27,-30 h 75 z" style="display:inline;opacity:1;fill-opacity:1;fill-rule:evenodd;stroke:none;stroke-width:1px;stroke-linecap:butt;stroke-linejoin:miter;stroke-opacity:1"/><path id="path4525" d="m 251,61 h -73 c -13,0 -23,11 -23,24 v 61 c 0,13 10,24 24,24 h 46 v -51 h -44 v 21 h 17 c 2,0 3,1 3,4 0,3 -1,4 -3,4 h -19 c -2,0 -3,-1 -3,-3 V 87 c 0,-3 1,-4 3,-4 h 72 z" style="display:inline;opacity:1;fill-opacity:1;fill-rule:evenodd;stroke:none;stroke-width:1px;stroke-linecap:butt;stroke-linejoin:miter;stroke-opacity:1"/></g></svg>