<?xml version="1.0" encoding="UTF-8" standalone="no"?>
<!-- Created with Inkscape (http://www.inkscape.org/) -->

<svg
   xmlns:dc="http://purl.org/dc/elements/1.1/"
   xmlns:cc="http://creativecommons.org/ns#"
   xmlns:rdf="http://www.w3.org/1999/02/22-rdf-syntax-ns#"
   xmlns:svg="http://www.w3.org/2000/svg"
   xmlns="http://www.w3.org/2000/svg"
   xmlns:sodipodi="http://sodipodi.sourceforge.net/DTD/sodipodi-0.dtd"
   xmlns:inkscape="http://www.inkscape.org/namespaces/inkscape"
   width="256"
   height="256"
   viewBox="0 0 256 256"
   version="1.1"
   id="root"
   inkscape:version="0.92.1 r15371"
   sodipodi:docname="dgen-symbolic.svg">
  <title
     id="title4796">DGen Logo</title>
  <defs
     id="defs4517" />
  <sodipodi:namedview
     id="base"
     pagecolor="#ffffff"
     bordercolor="#666666"
     borderopacity="1.0"
     inkscape:pageopacity="0.0"
     inkscape:pageshadow="2"
     inkscape:zoom="2.5195312"
     inkscape:cx="128"
     inkscape:cy="128"
     inkscape:document-units="px"
     inkscape:current-layer="layer3"
     showgrid="true"
     units="px"
     inkscape:pagecheckerboard="true"
     inkscape:window-width="1428"
     inkscape:window-height="855"
     inkscape:window-x="274"
     inkscape:window-y="136"
     inkscape:window-maximized="0"
     inkscape:object-nodes="true"
     inkscape:snap-nodes="true"
     inkscape:snap-others="true">
    <inkscape:grid
       type="xygrid"
       id="grid4512" />
  </sodipodi:namedview>
  <metadata
     id="metadata4520">
    <rdf:RDF>
      <cc:Work
         rdf:about="">
        <dc:format>image/svg+xml</dc:format>
        <dc:type
           rdf:resource="http://purl.org/dc/dcmitype/StillImage" />
        <dc:title>DGen Logo</dc:title>
        <cc:license
           rdf:resource="http://creativecommons.org/publicdomain/zero/1.0/" />
        <dc:creator>
          <cc:Agent>
            <dc:title></dc:title>
          </cc:Agent>
        </dc:creator>
        <dc:source></dc:source>
      </cc:Work>
      <cc:License
         rdf:about="http://creativecommons.org/publicdomain/zero/1.0/">
        <cc:permits
           rdf:resource="http://creativecommons.org/ns#Reproduction" />
        <cc:permits
           rdf:resource="http://creativecommons.org/ns#Distribution" />
        <cc:permits
           rdf:resource="http://creativecommons.org/ns#DerivativeWorks" />
      </cc:License>
    </rdf:RDF>
  </metadata>
  <g
     inkscape:groupmode="layer"
     id="layer3"
     inkscape:label="D"
     style="display:inline"
     transform="translate(0,16)">
    <path
       style="opacity:1;fill-opacity:1;fill-rule:evenodd;stroke:none;stroke-width:1px;stroke-linecap:butt;stroke-linejoin:miter;stroke-opacity:1"
       d="m 7,32 h 70 c 25.62168,0.147363 42,15 42,45 v 75 c 0,34 -17,47 -47,47 H 7 V 88 h 20 v 89 h 50 c 12,0 21,-9 21,-20 V 74 C 98,64 90,54 77,54 H 7 Z"
       id="path4518"
       inkscape:connector-curvature="0"
       sodipodi:nodetypes="ccccccccccccccc" />
    <path
       style="opacity:1;fill-opacity:1;fill-rule:evenodd;stroke:none;stroke-width:1px;stroke-linecap:butt;stroke-linejoin:miter;stroke-opacity:1"
       d="m 7,61 h 68 c 11,0 17,7 17,16 v 79 c 0,9 -7,14 -15,14 H 34 V 88 h 23 v 56 c 0,3 1,4 3,4 h 8 c 2,0 3,-1 3,-3 V 87 c 0,-3 -1,-4 -3,-4 H 7 Z"
       id="path4520"
       inkscape:connector-curvature="0"
       sodipodi:nodetypes="cccccccccccccccc" />
  </g>
  <g
     inkscape:groupmode="layer"
     id="layer4"
     inkscape:label="G"
     style="display:inline"
     transform="translate(0,16)">
    <path
       sodipodi:nodetypes="ccccccccccccccccc"
       inkscape:connector-curvature="0"
       id="path4523"
       d="m 251,32 h -77 c -25.62168,0.147363 -47,22 -47,53 v 62 c 0,34 26,52 45,52 h 79 V 90 h -70 v 22 h 51 v 65 h -55 c -16,0 -28,-13 -28,-30 V 84 c 0,-16 11,-30 27,-30 h 75 z"
       style="display:inline;opacity:1;fill-opacity:1;fill-rule:evenodd;stroke:none;stroke-width:1px;stroke-linecap:butt;stroke-linejoin:miter;stroke-opacity:1" />
    <path
       sodipodi:nodetypes="ccccccccccsccccccc"
       inkscape:connector-curvature="0"
       id="path4525"
       d="m 251,61 h -73 c -13,0 -23,11 -23,24 v 61 c 0,13 10,24 24,24 h 46 v -51 h -44 v 21 h 17 c 2,0 3,1 3,4 0,3 -1,4 -3,4 h -19 c -2,0 -3,-1 -3,-3 V 87 c 0,-3 1,-4 3,-4 h 72 z"
       style="display:inline;opacity:1;fill-opacity:1;fill-rule:evenodd;stroke:none;stroke-width:1px;stroke-linecap:butt;stroke-linejoin:miter;stroke-opacity:1" />
  </g>
</svg>
