<?xml version="1.0" encoding="UTF-8" standalone="no"?>
<!-- Generator: Adobe Illustrator 16.0.3, SVG Export Plug-In . SVG Version: 6.00 Build 0)  -->

<svg
   xmlns:osb="http://www.openswatchbook.org/uri/2009/osb"
   xmlns:dc="http://purl.org/dc/elements/1.1/"
   xmlns:cc="http://creativecommons.org/ns#"
   xmlns:rdf="http://www.w3.org/1999/02/22-rdf-syntax-ns#"
   xmlns:svg="http://www.w3.org/2000/svg"
   xmlns="http://www.w3.org/2000/svg"
   xmlns:xlink="http://www.w3.org/1999/xlink"
   xmlns:sodipodi="http://sodipodi.sourceforge.net/DTD/sodipodi-0.dtd"
   xmlns:inkscape="http://www.inkscape.org/namespaces/inkscape"
   version="1.1"
   id="root"
   x="0px"
   y="0px"
   width="180"
   height="180"
   viewBox="0 -0.001 180 180"
   enable-background="new 0 -0.001 566.929 157.78"
   xml:space="preserve"
   sodipodi:docname="epic-games-store-symbolic.svg"
   inkscape:version="0.92.5 (2060ec1f9f, 2020-04-08)"><metadata
     id="metadata339"><rdf:RDF><cc:Work
         rdf:about=""><dc:format>image/svg+xml</dc:format><dc:type
           rdf:resource="http://purl.org/dc/dcmitype/StillImage" /><dc:title /></cc:Work></rdf:RDF></metadata><defs
     id="defs337"><linearGradient
       id="linearGradient977"
       osb:paint="solid"><stop
         style="stop-color:#000000;stop-opacity:1;"
         offset="0"
         id="stop975" /></linearGradient><linearGradient
       id="linearGradient971"
       osb:paint="solid"><stop
         style="stop-color:#000000;stop-opacity:1;"
         offset="0"
         id="stop969" /></linearGradient><linearGradient
       inkscape:collect="always"
       xlink:href="#linearGradient971"
       id="linearGradient973"
       x1="13.995921"
       y1="91.012157"
       x2="165.79159"
       y2="91.012157"
       gradientUnits="userSpaceOnUse" /><linearGradient
       inkscape:collect="always"
       xlink:href="#linearGradient977"
       id="linearGradient979"
       x1="70.18572"
       y1="22.192516"
       x2="81.961035"
       y2="22.192516"
       gradientUnits="userSpaceOnUse" /></defs><sodipodi:namedview
     pagecolor="#ffffff"
     bordercolor="#666666"
     borderopacity="1"
     objecttolerance="10"
     gridtolerance="10"
     guidetolerance="10"
     inkscape:pageopacity="0"
     inkscape:pageshadow="2"
     inkscape:window-width="3840"
     inkscape:window-height="2128"
     id="namedview335"
     showgrid="false"
     fit-margin-top="29"
     fit-margin-left="3"
     fit-margin-right="7"
     fit-margin-bottom="29"
     inkscape:zoom="5.6568544"
     inkscape:cx="-37.996069"
     inkscape:cy="47.846926"
     inkscape:window-x="0"
     inkscape:window-y="32"
     inkscape:window-maximized="1"
     inkscape:current-layer="layer1"
     scale-x="1"
     inkscape:pagecheckerboard="true"
     showguides="false" /><linearGradient
     id="SVGID_1_"
     gradientUnits="userSpaceOnUse"
     x1="558.12842"
     y1="955.59772"
     x2="11.77"
     y2="955.59772"
     gradientTransform="translate(-0.1797,-875.4102)"><stop
       offset="0"
       style="stop-color:#013A67"
       id="stop2" /><stop
       offset="1"
       style="stop-color:#6CD1FF"
       id="stop4" /></linearGradient><linearGradient
     id="SVGID_2_"
     gradientUnits="userSpaceOnUse"
     x1="64.709503"
     y1="938.78912"
     x2="60.764999"
     y2="934.84479"
     gradientTransform="translate(-0.1797,-875.4102)"><stop
       offset="0"
       style="stop-color:#08406F"
       id="stop9" /><stop
       offset="1"
       style="stop-color:#60C5F5"
       id="stop11" /></linearGradient><linearGradient
     id="SVGID_3_"
     gradientUnits="userSpaceOnUse"
     x1="123.2954"
     y1="1013.9102"
     x2="119.6701"
     y2="1010.2849"
     gradientTransform="translate(-0.1797,-875.4102)"><stop
       offset="0"
       style="stop-color:#08406F"
       id="stop16" /><stop
       offset="1"
       style="stop-color:#60C5F5"
       id="stop18" /></linearGradient><linearGradient
     id="SVGID_4_"
     gradientUnits="userSpaceOnUse"
     x1="25.7236"
     y1="994.05078"
     x2="25.7236"
     y2="989.73828"
     gradientTransform="translate(-0.1797,-875.4102)"><stop
       offset="0"
       style="stop-color:#08406F"
       id="stop23" /><stop
       offset="1"
       style="stop-color:#60C5F5"
       id="stop25" /></linearGradient><linearGradient
     id="SVGID_5_"
     gradientUnits="userSpaceOnUse"
     x1="121.1855"
     y1="1033.1816"
     x2="121.1855"
     y2="1028.7246"
     gradientTransform="translate(-0.1797,-875.4102)"><stop
       offset="0"
       style="stop-color:#08406F"
       id="stop30" /><stop
       offset="1"
       style="stop-color:#60C5F5"
       id="stop32" /></linearGradient><linearGradient
     id="SVGID_6_"
     gradientUnits="userSpaceOnUse"
     x1="427.69379"
     y1="994.02338"
     x2="427.69379"
     y2="989.55658"
     gradientTransform="translate(-0.1797,-875.4102)"><stop
       offset="0"
       style="stop-color:#08406F"
       id="stop37" /><stop
       offset="1"
       style="stop-color:#60C5F5"
       id="stop39" /></linearGradient><linearGradient
     id="SVGID_7_"
     gradientUnits="userSpaceOnUse"
     x1="251.0645"
     y1="994.89447"
     x2="251.0645"
     y2="990.41602"
     gradientTransform="translate(-0.1797,-875.4102)"><stop
       offset="0"
       style="stop-color:#08406F"
       id="stop44" /><stop
       offset="1"
       style="stop-color:#60C5F5"
       id="stop46" /></linearGradient><linearGradient
     id="SVGID_8_"
     gradientUnits="userSpaceOnUse"
     x1="522.28082"
     y1="882.1875"
     x2="522.28082"
     y2="877.32422"
     gradientTransform="translate(-0.1797,-875.4102)"><stop
       offset="0"
       style="stop-color:#08406F"
       id="stop51" /><stop
       offset="1"
       style="stop-color:#60C5F5"
       id="stop53" /></linearGradient><linearGradient
     id="SVGID_9_"
     gradientUnits="userSpaceOnUse"
     x1="515.01318"
     y1="906.71478"
     x2="515.01318"
     y2="902.50488"
     gradientTransform="translate(-0.1797,-875.4102)"><stop
       offset="0"
       style="stop-color:#08406F"
       id="stop58" /><stop
       offset="1"
       style="stop-color:#60C5F5"
       id="stop60" /></linearGradient><linearGradient
     id="SVGID_10_"
     gradientUnits="userSpaceOnUse"
     x1="459.3696"
     y1="950.23053"
     x2="459.3696"
     y2="946.51172"
     gradientTransform="translate(-0.1797,-875.4102)"><stop
       offset="0"
       style="stop-color:#08406F"
       id="stop65" /><stop
       offset="1"
       style="stop-color:#60C5F5"
       id="stop67" /></linearGradient><linearGradient
     id="SVGID_11_"
     gradientUnits="userSpaceOnUse"
     x1="490.16061"
     y1="925.11133"
     x2="490.16061"
     y2="919.55658"
     gradientTransform="translate(-0.1797,-875.4102)"><stop
       offset="0"
       style="stop-color:#08406F"
       id="stop72" /><stop
       offset="1"
       style="stop-color:#60C5F5"
       id="stop74" /></linearGradient><linearGradient
     id="SVGID_12_"
     gradientUnits="userSpaceOnUse"
     x1="74.389198"
     y1="968.8252"
     x2="70.846001"
     y2="965.28198"
     gradientTransform="translate(-0.1797,-875.4102)"><stop
       offset="0"
       style="stop-color:#08406F"
       id="stop79" /><stop
       offset="1"
       style="stop-color:#60C5F5"
       id="stop81" /></linearGradient><linearGradient
     id="SVGID_13_"
     gradientUnits="userSpaceOnUse"
     x1="120.2554"
     y1="904.36908"
     x2="114.8892"
     y2="904.36908"
     gradientTransform="translate(-0.1797,-875.4102)"><stop
       offset="0"
       style="stop-color:#08406F"
       id="stop86" /><stop
       offset="1"
       style="stop-color:#60C5F5"
       id="stop88" /></linearGradient><linearGradient
     id="SVGID_14_"
     gradientUnits="userSpaceOnUse"
     x1="173.0811"
     y1="919.96088"
     x2="166.4209"
     y2="919.96088"
     gradientTransform="translate(-0.1797,-875.4102)"><stop
       offset="0"
       style="stop-color:#08406F"
       id="stop93" /><stop
       offset="1"
       style="stop-color:#60C5F5"
       id="stop95" /></linearGradient><linearGradient
     id="SVGID_15_"
     gradientUnits="userSpaceOnUse"
     x1="255.9883"
     y1="925.21582"
     x2="249.9951"
     y2="925.21582"
     gradientTransform="translate(-0.1797,-875.4102)"><stop
       offset="0"
       style="stop-color:#08406F"
       id="stop100" /><stop
       offset="1"
       style="stop-color:#60C5F5"
       id="stop102" /></linearGradient><linearGradient
     id="SVGID_16_"
     gradientUnits="userSpaceOnUse"
     x1="349.27689"
     y1="904.625"
     x2="343.57571"
     y2="904.625"
     gradientTransform="translate(-0.1797,-875.4102)"><stop
       offset="0"
       style="stop-color:#08406F"
       id="stop107" /><stop
       offset="1"
       style="stop-color:#60C5F5"
       id="stop109" /></linearGradient><linearGradient
     id="SVGID_17_"
     gradientUnits="userSpaceOnUse"
     x1="400.96039"
     y1="918.44629"
     x2="395.1636"
     y2="918.44629"
     gradientTransform="translate(-0.1797,-875.4102)"><stop
       offset="0"
       style="stop-color:#08406F"
       id="stop114" /><stop
       offset="1"
       style="stop-color:#60C5F5"
       id="stop116" /></linearGradient><linearGradient
     id="SVGID_18_"
     gradientUnits="userSpaceOnUse"
     x1="101.7651"
     y1="968.93848"
     x2="96.654297"
     y2="968.93848"
     gradientTransform="translate(-0.1797,-875.4102)"><stop
       offset="0"
       style="stop-color:#08406F"
       id="stop121" /><stop
       offset="1"
       style="stop-color:#60C5F5"
       id="stop123" /></linearGradient><linearGradient
     id="SVGID_19_"
     gradientUnits="userSpaceOnUse"
     x1="121.2485"
     y1="973.83789"
     x2="117.6964"
     y2="970.28583"
     gradientTransform="translate(-0.1797,-875.4102)"><stop
       offset="0"
       style="stop-color:#08406F"
       id="stop128" /><stop
       offset="1"
       style="stop-color:#60C5F5"
       id="stop130" /></linearGradient><linearGradient
     id="SVGID_20_"
     gradientUnits="userSpaceOnUse"
     x1="553.43597"
     y1="892.5"
     x2="549.76727"
     y2="888.83112"
     gradientTransform="translate(-0.1797,-875.4102)"><stop
       offset="0"
       style="stop-color:#08406F"
       id="stop135" /><stop
       offset="1"
       style="stop-color:#60C5F5"
       id="stop137" /></linearGradient><linearGradient
     id="SVGID_21_"
     gradientUnits="userSpaceOnUse"
     x1="145.99409"
     y1="969.87891"
     x2="140.5957"
     y2="969.87891"
     gradientTransform="translate(-0.1797,-875.4102)"><stop
       offset="0"
       style="stop-color:#08406F"
       id="stop142" /><stop
       offset="1"
       style="stop-color:#60C5F5"
       id="stop144" /></linearGradient><linearGradient
     id="SVGID_22_"
     gradientUnits="userSpaceOnUse"
     x1="148.7769"
     y1="907.00983"
     x2="144.28909"
     y2="902.52197"
     gradientTransform="translate(-0.1797,-875.4102)"><stop
       offset="0"
       style="stop-color:#08406F"
       id="stop149" /><stop
       offset="1"
       style="stop-color:#60C5F5"
       id="stop151" /></linearGradient><linearGradient
     id="SVGID_23_"
     gradientUnits="userSpaceOnUse"
     x1="215.8457"
     y1="922.32129"
     x2="211.688"
     y2="918.16357"
     gradientTransform="translate(-0.1797,-875.4102)"><stop
       offset="0"
       style="stop-color:#08406F"
       id="stop156" /><stop
       offset="1"
       style="stop-color:#60C5F5"
       id="stop158" /></linearGradient><linearGradient
     id="SVGID_24_"
     gradientUnits="userSpaceOnUse"
     x1="304.31589"
     y1="927.81049"
     x2="299.9317"
     y2="923.42627"
     gradientTransform="translate(-0.1797,-875.4102)"><stop
       offset="0"
       style="stop-color:#08406F"
       id="stop163" /><stop
       offset="1"
       style="stop-color:#60C5F5"
       id="stop165" /></linearGradient><linearGradient
     id="SVGID_25_"
     gradientUnits="userSpaceOnUse"
     x1="376.97119"
     y1="906.86133"
     x2="372.76331"
     y2="902.65302"
     gradientTransform="translate(-0.1797,-875.4102)"><stop
       offset="0"
       style="stop-color:#08406F"
       id="stop170" /><stop
       offset="1"
       style="stop-color:#60C5F5"
       id="stop172" /></linearGradient><linearGradient
     id="SVGID_26_"
     gradientUnits="userSpaceOnUse"
     x1="488.73779"
     y1="935.26459"
     x2="485.28159"
     y2="931.80859"
     gradientTransform="translate(-0.1797,-875.4102)"><stop
       offset="0"
       style="stop-color:#08406F"
       id="stop177" /><stop
       offset="1"
       style="stop-color:#60C5F5"
       id="stop179" /></linearGradient><linearGradient
     id="SVGID_27_"
     gradientUnits="userSpaceOnUse"
     x1="499.80811"
     y1="979.37701"
     x2="495.84851"
     y2="975.41748"
     gradientTransform="translate(-0.1797,-875.4102)"><stop
       offset="0"
       style="stop-color:#08406F"
       id="stop184" /><stop
       offset="1"
       style="stop-color:#60C5F5"
       id="stop186" /></linearGradient><linearGradient
     id="SVGID_28_"
     gradientUnits="userSpaceOnUse"
     x1="441.8374"
     y1="921.61328"
     x2="437.55469"
     y2="917.33063"
     gradientTransform="translate(-0.1797,-875.4102)"><stop
       offset="0"
       style="stop-color:#08406F"
       id="stop191" /><stop
       offset="1"
       style="stop-color:#60C5F5"
       id="stop193" /></linearGradient><linearGradient
     id="SVGID_29_"
     gradientUnits="userSpaceOnUse"
     x1="486.85889"
     y1="916.64941"
     x2="481.74481"
     y2="911.53528"
     gradientTransform="translate(-0.1797,-875.4102)"><stop
       offset="0"
       style="stop-color:#08406F"
       id="stop198" /><stop
       offset="1"
       style="stop-color:#60C5F5"
       id="stop200" /></linearGradient><linearGradient
     id="SVGID_30_"
     gradientUnits="userSpaceOnUse"
     x1="185.9771"
     y1="992.33008"
     x2="182.33521"
     y2="988.68817"
     gradientTransform="translate(-0.1797,-875.4102)"><stop
       offset="0"
       style="stop-color:#08406F"
       id="stop205" /><stop
       offset="1"
       style="stop-color:#60C5F5"
       id="stop207" /></linearGradient><linearGradient
     id="SVGID_31_"
     gradientUnits="userSpaceOnUse"
     x1="303.0278"
     y1="969.13959"
     x2="299.3873"
     y2="965.49908"
     gradientTransform="translate(-0.1797,-875.4102)"><stop
       offset="0"
       style="stop-color:#08406F"
       id="stop212" /><stop
       offset="1"
       style="stop-color:#60C5F5"
       id="stop214" /></linearGradient><linearGradient
     id="SVGID_32_"
     gradientUnits="userSpaceOnUse"
     x1="349.88919"
     y1="973.08502"
     x2="346.37991"
     y2="969.57562"
     gradientTransform="translate(-0.1797,-875.4102)"><stop
       offset="0"
       style="stop-color:#08406F"
       id="stop219" /><stop
       offset="1"
       style="stop-color:#60C5F5"
       id="stop221" /></linearGradient><linearGradient
     id="SVGID_33_"
     gradientUnits="userSpaceOnUse"
     x1="370.8042"
     y1="993.63959"
     x2="366.38129"
     y2="989.21692"
     gradientTransform="translate(-0.1797,-875.4102)"><stop
       offset="0"
       style="stop-color:#08406F"
       id="stop226" /><stop
       offset="1"
       style="stop-color:#60C5F5"
       id="stop228" /></linearGradient><linearGradient
     id="SVGID_34_"
     gradientUnits="userSpaceOnUse"
     x1="229.457"
     y1="971.76862"
     x2="223.4189"
     y2="971.76862"
     gradientTransform="translate(-0.1797,-875.4102)"><stop
       offset="0"
       style="stop-color:#08406F"
       id="stop233" /><stop
       offset="1"
       style="stop-color:#60C5F5"
       id="stop235" /></linearGradient><linearGradient
     id="SVGID_35_"
     gradientUnits="userSpaceOnUse"
     x1="330.3042"
     y1="968.51862"
     x2="325.09229"
     y2="968.51862"
     gradientTransform="translate(-0.1797,-875.4102)"><stop
       offset="0"
       style="stop-color:#08406F"
       id="stop240" /><stop
       offset="1"
       style="stop-color:#60C5F5"
       id="stop242" /></linearGradient><linearGradient
     id="SVGID_36_"
     gradientUnits="userSpaceOnUse"
     x1="374.97021"
     y1="967.80658"
     x2="368.7251"
     y2="967.80658"
     gradientTransform="translate(-0.1797,-875.4102)"><stop
       offset="0"
       style="stop-color:#08406F"
       id="stop247" /><stop
       offset="1"
       style="stop-color:#60C5F5"
       id="stop249" /></linearGradient><linearGradient
     id="SVGID_37_"
     gradientUnits="userSpaceOnUse"
     x1="440.63721"
     y1="959.6748"
     x2="436.21909"
     y2="955.25677"
     gradientTransform="translate(-0.1797,-875.4102)"><stop
       offset="0"
       style="stop-color:#08406F"
       id="stop254" /><stop
       offset="1"
       style="stop-color:#60C5F5"
       id="stop256" /></linearGradient><linearGradient
     id="SVGID_38_"
     gradientUnits="userSpaceOnUse"
     x1="472.92041"
     y1="969.50983"
     x2="472.92041"
     y2="963.70801"
     gradientTransform="translate(-0.1797,-875.4102)"><stop
       offset="0"
       style="stop-color:#08406F"
       id="stop261" /><stop
       offset="1"
       style="stop-color:#60C5F5"
       id="stop263" /></linearGradient><g
     inkscape:groupmode="layer"
     id="layer1"
     inkscape:label="Fill"
     style="display:inline"
     transform="translate(1.2651637,30.169886)"><path
       sodipodi:type="star"
       style="opacity:0;fill:#ffffff;fill-opacity:1"
       id="path4699"
       sodipodi:sides="5"
       sodipodi:cx="17.212561"
       sodipodi:cy="-9.7464132"
       sodipodi:r1="7.4875207"
       sodipodi:r2="3.7437603"
       sodipodi:arg1="2.0724004"
       sodipodi:arg2="2.7007189"
       inkscape:flatsided="false"
       inkscape:rounded="0"
       inkscape:randomized="0"
       d="m 13.612316,-3.1812622 0.214466,-4.9675768 -3.9705876,-2.992867 4.7907196,-1.331097 1.619407,-4.701099 2.746362,4.144913 4.971435,0.08743 -3.093374,3.8927939 1.45311,4.7551329 -4.658173,-1.7390344 z"
       inkscape:transform-center-x="0.29240433"
       inkscape:transform-center-y="-0.43116907" /><path
       style="fill:url(#linearGradient979);stroke:#000000;stroke-width:1px;stroke-linecap:butt;stroke-linejoin:miter;stroke-opacity:1;fill-opacity:1"
       d="M 70.739719,9.63137 H 81.461035 V 34.753662 H 70.686775 Z"
       id="path4717"
       inkscape:connector-curvature="0" /><path
       style="fill:url(#linearGradient973);stroke:#000000;stroke-width:1px;stroke-linecap:butt;stroke-linejoin:miter;stroke-opacity:1;fill-opacity:1"
       d="m 34,10.972656 c -1.347991,0.003 -7.093971,0.367409 -12.732422,6.00586 -7.218066,7.218066 -6.716797,13.74414 -6.716797,13.74414 L 14.496094,148.17969 89.978516,171.0293 165.28711,148.22461 V 31.109375 c 0,0 0.43029,-6.845106 -5.94531,-13.220703 -7.41268,-7.412682 -14.18555,-6.910156 -14.18555,-6.910156 H 34.294922 c 0,0 -0.102352,-0.0063 -0.294922,-0.0059 z m 93.875,17.871094 h 13.53125 c 0,0 3.3984,-0.273472 6.82031,3.148438 C 151.33606,35.101689 151,38.4375 151,38.4375 V 54.15625 H 140.07812 V 39.871094 h -10.52343 -0.14844 v 60.910156 h 10.75 v -14.4375 h 10.82422 v 15.48047 c 0,0 0.26003,3.65012 -2.63477,6.54492 -3.5466,3.5466 -7.1582,3.24805 -7.1582,3.24805 h -12.92969 c 0,0 -3.08445,0.16359 -6.17187,-2.92383 -3.40326,-3.40324 -3.41406,-6.66211 -3.41406,-6.66211 V 38.046875 c 0,0 0.0248,-2.821695 3.29687,-6.09375 3.52779,-3.156443 5.90625,-3.109375 5.90625,-3.109375 z m -90.841797,0.02539 c 0.310834,-0.01587 0.484375,0.0059 0.484375,0.0059 h 16.525391 l -0.03906,0.152344 V 39.761719 H 39.695312 v 25.109375 h 10.761719 v 10.787109 h -10.77539 v 25.009767 h 14.388671 v 10.91406 H 38.292969 c 0,0 -3.026256,0.3175 -6.21875,-2.875 -3.610153,-3.61015 -3.259766,-6.60156 -3.259766,-6.60156 V 37.578125 c 0,0 -0.32655,-2.817981 2.75,-5.894531 2.374366,-2.374366 4.536249,-2.766846 5.46875,-2.814453 z m 47.492188,0.05078 c 1.069942,0.06433 3.556816,0.539238 6.328125,3.310547 3.017968,3.017968 2.699218,7.068359 2.699218,7.068359 v 26.5 c 0,0 0.399659,3.225343 -3.02539,6.650391 -3.727951,3.727951 -6.953125,3.328125 -6.953125,3.328125 L 71.898438,75.724609 V 111.56836 H 61.150391 V 28.921875 h 22.820312 c 0,0 0.19804,-0.0234 0.554688,-0.002 z m 16.158199,0 h 10.82422 V 111.60156 H 100.6875 V 28.996094 Z m -0.0742,93.228518 h 3.82031 v 21.85547 h -3.82227 v -14.33008 l -5.281248,10.68359 h -3.601563 l -5.214843,-10.5293 v 14.17579 h -3.900391 v -21.80079 h 3.78125 l 7.125,14 z M 64.75,122.21875 h 3.59375 l 10.96875,21.70313 h -3.890625 l -1.78125,-3.53126 H 59.53125 l -1.90625,3.5625 h -3.828125 l 0.03125,-0.0625 z m 43.0625,0 h 18.16992 l -0.006,3.82813 H 111.5625 v 5.14062 h 7.17188 v 3.82812 H 111.625 v 5.125 h 14.35938 v 3.89063 h -18.25 v -21.80078 z m 24.1875,0 h 16.40625 c 0,0 0.85912,-0.0549 1.8125,0.89844 0.85995,0.85993 0.84375,1.75781 0.84375,1.75781 v 2.89062 h -3.77344 l -0.0117,-1.01171 c 0,0 -0.01,-0.30855 -0.19922,-0.49805 -0.20141,-0.2014 -0.5,-0.20313 -0.5,-0.20313 h -12.74414 c 0,0 -0.27646,0.005 -0.50586,0.23438 -0.20723,0.20718 -0.1914,0.46289 -0.1914,0.46289 v 3.61328 c 0,0 0.005,0.31387 0.21289,0.52149 0.23493,0.23491 0.58789,0.27929 0.58789,0.27929 h 14.32031 c 0,0 1.06341,0.04 1.92578,0.90235 0.89461,0.89459 0.87891,1.90234 0.87891,1.90234 v 7.125 c 0,0 0.0373,0.87283 -1.02539,1.93555 -1.08479,1.08482 -1.92773,1.01758 -1.92773,1.01758 h -16.32813 c 0,-10e-6 -0.81835,0.0781 -1.69922,-0.80274 -0.90614,-0.90613 -0.83203,-1.72852 -0.83203,-1.72852 v -3.125 h 3.82617 v 0.97071 c 0,0 -0.004,0.33418 0.24219,0.58008 0.26268,0.26258 0.60352,0.26562 0.60352,0.26562 h 12.36328 c 0,0 0.35942,-0.0215 0.66406,-0.32617 0.28012,-0.28008 0.30859,-0.64648 0.30859,-0.64648 v -3.42969 c 0,0 -0.0109,-0.32734 -0.2539,-0.57031 -0.22078,-0.2208 -0.56641,-0.25 -0.56641,-0.25 h -14.59375 c 0,0 -0.93756,-0.0372 -1.79297,-0.89258 -0.82396,-0.82395 -0.79883,-1.63868 -0.79883,-1.63868 l 0.006,-7.5371 c 0,0 -0.0668,-0.97422 0.83985,-1.88086 C 130.92962,122.2032 132,122.21875 132,122.21875 Z m -100.357422,0.041 h 15.601563 c 0,0 1.193248,-0.088 2.320312,1.03906 1.033052,1.03305 0.949219,2.23242 0.949219,2.23242 v 4.02148 h -3.712891 v -2.74023 c 0,0 -0.0063,-0.33446 -0.24414,-0.57227 -0.270745,-0.27074 -0.605469,-0.27929 -0.605469,-0.27929 H 33.355469 c 0,0 -0.352121,0.0103 -0.615235,0.27344 -0.230601,0.2306 -0.230468,0.57226 -0.230468,0.57226 v 12.53516 c 0,0 -0.0042,0.39418 0.203125,0.60156 0.244141,0.24414 0.65039,0.25195 0.65039,0.25195 h 12.5 c 0,0 0.393045,-0.002 0.691407,-0.30078 0.233657,-0.23366 0.236328,-0.62891 0.236328,-0.62891 v -2.56445 h -3.525391 v -3.625 h 7.214844 v 7.90039 c 0,0 0.07468,1.17532 -0.783203,2.03321 -0.956098,0.95609 -2.09961,0.84961 -2.09961,0.84961 H 31.730469 c 0,0 -0.939287,0.0881 -2.015625,-0.98829 -0.925101,-0.9251 -0.84961,-1.8789 -0.84961,-1.8789 v -15.96485 c 0,0 -0.08346,-0.85599 0.861328,-1.80078 1.025812,-1.02581 1.916016,-0.96679 1.916016,-0.96679 z m 34.998047,4.20117 -5.398437,10.0625 h 10.625 z"
       transform="translate(-1.2651637,-30.170886)"
       id="path4719"
       inkscape:connector-curvature="0" /></g><g
     inkscape:groupmode="layer"
     id="layer2"
     inkscape:label="Outline" /></svg>