<svg xmlns="http://www.w3.org/2000/svg" xmlns:svg="http://www.w3.org/2000/svg" id="root" width="128" height="128" version="1.1" viewBox="0 0 128 128"><metadata id="metadata7"/><path style="fill-rule:evenodd;stroke:none;stroke-width:1" id="path3009" d="m 63.738729,85.581402 c 1.421275,0 2.566567,1.152279 2.566567,2.582008 v 0.0184 12.97652 c 0,1.42127 -1.145179,2.5891 -2.566567,2.5891 l -0.02964,-0.0156 v 0.0156 h -12.97201 v -0.0156 l -0.02817,0.0156 c -1.42691,0 -2.572202,-1.16772 -2.572202,-2.5891 v -12.97652 -0.0184 c 0,-1.429842 1.145179,-2.582008 2.572202,-2.582008 h 0.02817 12.972012 0.02964 M 70.75946,25.277496 c 1.455083,0 2.58764,1.173352 2.58764,2.618744 v 0.02107 13.157955 0.0169 c 0,1.448097 -1.132557,2.624379 -2.58764,2.624379 h -0.02817 -13.172605 -0.01837 c -1.450914,0 -2.61311,-1.176282 -2.61311,-2.624379 v -0.0169 -13.157955 -0.02107 c 0,-1.445279 1.162083,-2.618744 2.61311,-2.618744 h 0.01837 13.172605 0.02817 m 54.3977,36.208039 c 0,3.77091 -3.05396,6.809433 -6.80379,6.809433 H 89.16155 v -8.777379 h 24.59172 0.0184 c 1.45373,0 2.61875,-1.178986 2.61875,-2.621448 v -0.01837 -28.960797 -0.01972 c 0,-1.445279 -1.16502,-2.620096 -2.61875,-2.620096 h -0.0184 -13.18275 -0.0254 c -1.431188,0 -2.600371,1.174817 -2.600371,2.620096 v 0.01972 13.157954 0.0169 c 0,1.448097 1.169183,2.624379 2.600371,2.624379 h 0.0254 10.53391 V 52.49066 H 95.968729 c -3.763923,0 -6.807967,-3.042692 -6.807967,-6.803798 V 23.307296 c 0,-3.756936 3.044044,-6.807967 6.807967,-6.807967 h 22.382941 c 3.74984,0 6.8038,3.051144 6.8038,6.807967 v 38.177901 z m -0.0254,50.907625 h -8.65049 V 85.582529 h -6.04729 -0.0296 c -1.43119,0 -2.5722,1.152278 -2.5722,2.582001 v 0.0184 24.21082 H 99.183052 V 85.583092 h -6.061494 -0.01972 c -1.431192,0 -2.575019,1.152279 -2.575019,2.582008 v 0.0184 24.23335 H 81.879035 V 83.625067 c 0,-3.686391 2.996263,-6.689641 6.70801,-6.689641 H 125.13203 V 112.39406 Z M 75.338712,52.491562 H 52.947877 c -3.756937,0 -6.799629,-3.042692 -6.799629,-6.803798 V 23.308198 c 0,-3.756936 3.042692,-6.807968 6.799629,-6.807968 h 22.390835 c 3.749836,0 6.800981,3.051144 6.800981,6.807968 v 22.379566 c 0,3.761106 -3.051145,6.803798 -6.800981,6.803798 m -0.385971,53.197528 c 0,3.70194 -3.003251,6.70384 -6.703841,6.70384 H 46.196142 c -3.714564,0 -6.709475,-3.0019 -6.709475,-6.70384 V 83.62394 c 0,-3.686391 2.994799,-6.689641 6.709475,-6.689641 H 68.2489 c 3.70059,0 6.703841,3.00325 6.703841,6.689641 z M 39.127855,61.485535 c 0,3.77091 -3.051144,6.809433 -6.809433,6.809433 H 3.1322414 v -8.777379 h 24.5826996 0.02536 c 1.449449,0 2.61018,-1.178986 2.61018,-2.621448 v -0.01837 -28.960797 -0.01972 c 0,-1.445279 -1.160731,-2.620096 -2.61018,-2.620096 h -0.02536 -13.169223 -0.03099 c -1.445279,0 -2.607475,1.174817 -2.607475,2.620096 v 0.01972 13.157954 0.0169 c 0,1.448097 1.162083,2.624379 2.607475,2.624379 h 0.03099 10.535379 V 52.49066 H 9.9363777 c -3.7625708,0 -6.8037982,-3.042692 -6.8037982,-6.803798 V 23.307296 c 0,-3.756936 3.0413401,-6.807967 6.8037982,-6.807967 H 32.318197 c 3.758288,0 6.809433,3.051144 6.809433,6.807967 V 61.485197 Z M 32.562176,85.581402 H 14.405191 14.37837 c -1.428375,0 -2.573667,1.152279 -2.573667,2.582008 l 0.0056,0.0184 h -0.0056 v 12.97652 h 0.0056 l -0.0056,0.007 c 0,1.42274 1.145179,2.59192 2.573667,2.59192 h 0.02682 1.880609 16.277277 v 8.65759 H 9.8679735 v -0.0225 c -3.7103943,0 -6.7136444,-3.0019 -6.7136444,-6.70384 V 83.623038 c 0,-3.686391 3.0032501,-6.689641 6.7136444,-6.689641 H 32.563077 v 8.647779 z"/></svg>