<svg xmlns="http://www.w3.org/2000/svg" xmlns:svg="http://www.w3.org/2000/svg" id="root" width="256" height="256" version="1.1" viewBox="0 0 256 256"><metadata id="metadata4520"/><g id="layer1" transform="translate(0,-229.26666)" style="display:inline"><path style="opacity:1;fill-opacity:1;fill-rule:nonzero;stroke:none;stroke-width:48;stroke-miterlimit:4;stroke-dasharray:none;stroke-opacity:1;paint-order:stroke fill markers" id="rect4502" d="m 72,4 c -2.216,0 -4,1.784 -4,4 v 240 c 0,2.216 1.784,4 4,4 h 112 c 2.216,0 4,-1.784 4,-4 V 8 c 0,-2.216 -1.784,-4 -4,-4 z m 12,24 h 88 c 2.216,0 4,1.784 4,4 v 116 c 0,2.216 -1.784,4 -4,4 H 84 c -2.216,0 -4,-1.784 -4,-4 V 32 c 0,-2.216 1.784,-4 4,-4 z m 44,131.20312 c 22.00602,2e-5 40,17.99399 40,40 0,22.00604 -17.99398,40 -40,40 -22.00602,0 -40,-17.99396 -40,-40 0,-22.00602 17.99398,-40 40,-40 z" transform="translate(0,229.26666)"/></g><g id="layer2" style="display:inline"><path style="color:#000;font-style:normal;font-variant:normal;font-weight:400;font-stretch:normal;font-size:medium;line-height:normal;font-family:sans-serif;font-variant-ligatures:normal;font-variant-position:normal;font-variant-caps:normal;font-variant-numeric:normal;font-variant-alternates:normal;font-feature-settings:normal;text-indent:0;text-align:start;text-decoration:none;text-decoration-line:none;text-decoration-style:solid;text-decoration-color:#000;letter-spacing:normal;word-spacing:normal;text-transform:none;writing-mode:lr-tb;direction:ltr;text-orientation:mixed;dominant-baseline:auto;baseline-shift:baseline;text-anchor:start;white-space:normal;shape-padding:0;clip-rule:nonzero;display:inline;overflow:visible;visibility:visible;opacity:.1;isolation:auto;mix-blend-mode:normal;color-interpolation:sRGB;color-interpolation-filters:linearRGB;solid-color:#000;solid-opacity:1;vector-effect:none;fill-opacity:1;fill-rule:nonzero;stroke:none;stroke-width:14.41481686;stroke-linecap:butt;stroke-linejoin:miter;stroke-miterlimit:4;stroke-dasharray:none;stroke-dashoffset:0;stroke-opacity:1;paint-order:stroke fill markers;color-rendering:auto;image-rendering:auto;shape-rendering:auto;text-rendering:auto;enable-background:accumulate" id="path4574" d="m 128,159.20312 c -22.00602,0 -40,17.99398 -40,40 0,22.00604 17.99398,40 40,40 22.00602,0 40,-17.99396 40,-40 0,-22.00602 -17.99398,-39.99998 -40,-40 z m 0,7.20704 A 32.792591,32.792591 0 0 1 160.79297,199.20312 32.792591,32.792591 0 0 1 128,231.99414 32.792591,32.792591 0 0 1 95.207031,199.20312 32.792591,32.792591 0 0 1 128,166.41016 Z"/><circle style="opacity:1;fill-opacity:1;fill-rule:nonzero;stroke:none;stroke-width:14.41481686;stroke-miterlimit:4;stroke-dasharray:none;stroke-opacity:1;paint-order:stroke fill markers" id="path4505" cx="128" cy="199.202" r="32.793"/></g><g id="layer3" style="display:inline"><rect style="opacity:.1;fill-opacity:1;fill-rule:nonzero;stroke:none;stroke-width:16;stroke-miterlimit:4;stroke-dasharray:none;stroke-opacity:1;paint-order:stroke fill markers" id="rect4508" width="96" height="124" x="80" y="28" rx="4" ry="4"/></g><g id="layer4" style="display:inline"><rect style="opacity:1;fill-opacity:1;fill-rule:nonzero;stroke:none;stroke-width:19.20000076;stroke-miterlimit:4;stroke-dasharray:none;stroke-opacity:1;paint-order:stroke fill markers" id="rect4510" width="24" height="24" x="88" y="36" rx="4" ry="4"/><rect id="rect4512" width="24" height="24" x="116" y="36" rx="4" ry="4" style="opacity:1;fill-opacity:1;fill-rule:nonzero;stroke:none;stroke-width:19.20000076;stroke-miterlimit:4;stroke-dasharray:none;stroke-opacity:1;paint-order:stroke fill markers"/><rect style="opacity:1;fill-opacity:1;fill-rule:nonzero;stroke:none;stroke-width:19.20000076;stroke-miterlimit:4;stroke-dasharray:none;stroke-opacity:1;paint-order:stroke fill markers" id="rect4514" width="24" height="24" x="144" y="36" rx="4" ry="4"/><rect id="rect4516" width="24" height="24" x="88" y="64" rx="4" ry="4" style="opacity:1;fill-opacity:1;fill-rule:nonzero;stroke:none;stroke-width:19.20000076;stroke-miterlimit:4;stroke-dasharray:none;stroke-opacity:1;paint-order:stroke fill markers"/><rect style="opacity:1;fill-opacity:1;fill-rule:nonzero;stroke:none;stroke-width:19.20000076;stroke-miterlimit:4;stroke-dasharray:none;stroke-opacity:1;paint-order:stroke fill markers" id="rect4518" width="24" height="24" x="116" y="64" rx="4" ry="4"/><rect id="rect4520" width="24" height="24" x="144" y="64" rx="4" ry="4" style="opacity:1;fill-opacity:1;fill-rule:nonzero;stroke:none;stroke-width:19.20000076;stroke-miterlimit:4;stroke-dasharray:none;stroke-opacity:1;paint-order:stroke fill markers"/><rect style="opacity:1;fill-opacity:1;fill-rule:nonzero;stroke:none;stroke-width:19.20000076;stroke-miterlimit:4;stroke-dasharray:none;stroke-opacity:1;paint-order:stroke fill markers" id="rect4522" width="24" height="24" x="88" y="92" rx="4" ry="4"/><rect id="rect4524" width="24" height="24" x="116" y="92" rx="4" ry="4" style="opacity:1;fill-opacity:1;fill-rule:nonzero;stroke:none;stroke-width:19.20000076;stroke-miterlimit:4;stroke-dasharray:none;stroke-opacity:1;paint-order:stroke fill markers"/><rect style="opacity:1;fill-opacity:1;fill-rule:nonzero;stroke:none;stroke-width:19.20000076;stroke-miterlimit:4;stroke-dasharray:none;stroke-opacity:1;paint-order:stroke fill markers" id="rect4526" width="24" height="24" x="144" y="92" rx="4" ry="4"/><rect id="rect4528" width="24" height="24" x="88" y="120" rx="4" ry="4" style="opacity:1;fill-opacity:1;fill-rule:nonzero;stroke:none;stroke-width:19.20000076;stroke-miterlimit:4;stroke-dasharray:none;stroke-opacity:1;paint-order:stroke fill markers"/><rect style="opacity:1;fill-opacity:1;fill-rule:nonzero;stroke:none;stroke-width:19.20000076;stroke-miterlimit:4;stroke-dasharray:none;stroke-opacity:1;paint-order:stroke fill markers" id="rect4530" width="24" height="24" x="116" y="120" rx="4" ry="4"/><rect id="rect4532" width="24" height="24" x="144" y="120" rx="4" ry="4" style="opacity:1;fill-opacity:1;fill-rule:nonzero;stroke:none;stroke-width:19.20000076;stroke-miterlimit:4;stroke-dasharray:none;stroke-opacity:1;paint-order:stroke fill markers"/></g></svg>