<?xml version="1.0" encoding="UTF-8" standalone="no"?>
<svg
   xmlns:osb="http://www.openswatchbook.org/uri/2009/osb"
   xmlns:dc="http://purl.org/dc/elements/1.1/"
   xmlns:cc="http://creativecommons.org/ns#"
   xmlns:rdf="http://www.w3.org/1999/02/22-rdf-syntax-ns#"
   xmlns:svg="http://www.w3.org/2000/svg"
   xmlns="http://www.w3.org/2000/svg"
   xmlns:sodipodi="http://sodipodi.sourceforge.net/DTD/sodipodi-0.dtd"
   xmlns:inkscape="http://www.inkscape.org/namespaces/inkscape"
   inkscape:version="1.0 (4035a4fb49, 2020-05-01)"
   sodipodi:docname="legendary-symbolic.svg"
   xml:space="preserve"
   enable-background="new 0 -0.001 566.929 157.78"
   viewBox="0 -0.001 180 180"
   height="180"
   width="180"
   y="0px"
   x="0px"
   id="root"
   version="1.1"><metadata
     id="metadata339"><rdf:RDF><cc:Work
         rdf:about=""><dc:format>image/svg+xml</dc:format><dc:type
           rdf:resource="http://purl.org/dc/dcmitype/StillImage" /><dc:title /></cc:Work></rdf:RDF></metadata><defs
     id="defs337"><linearGradient
       osb:paint="solid"
       id="linearGradient977"><stop
         id="stop975"
         offset="0"
         style="stop-color:#000000;stop-opacity:1;" /></linearGradient><linearGradient
       osb:paint="solid"
       id="linearGradient971"><stop
         id="stop969"
         offset="0"
         style="stop-color:#000000;stop-opacity:1;" /></linearGradient></defs><sodipodi:namedview
     inkscape:document-rotation="0"
     showguides="false"
     inkscape:pagecheckerboard="true"
     scale-x="1"
     inkscape:current-layer="layer1"
     inkscape:window-maximized="1"
     inkscape:window-y="32"
     inkscape:window-x="0"
     inkscape:cy="50.926125"
     inkscape:cx="-28.233301"
     inkscape:zoom="4.0000001"
     fit-margin-bottom="29"
     fit-margin-right="7"
     fit-margin-left="3"
     fit-margin-top="29"
     showgrid="false"
     id="namedview335"
     inkscape:window-height="2128"
     inkscape:window-width="3840"
     inkscape:pageshadow="2"
     inkscape:pageopacity="0"
     guidetolerance="10"
     gridtolerance="10"
     objecttolerance="10"
     borderopacity="1"
     bordercolor="#666666"
     pagecolor="#ffffff" /><linearGradient
     gradientTransform="translate(-0.1797,-875.4102)"
     y2="955.59772"
     x2="11.77"
     y1="955.59772"
     x1="558.12842"
     gradientUnits="userSpaceOnUse"
     id="SVGID_1_"><stop
       id="stop2"
       style="stop-color:#013A67"
       offset="0" /><stop
       id="stop4"
       style="stop-color:#6CD1FF"
       offset="1" /></linearGradient><linearGradient
     gradientTransform="translate(-0.1797,-875.4102)"
     y2="934.84479"
     x2="60.764999"
     y1="938.78912"
     x1="64.709503"
     gradientUnits="userSpaceOnUse"
     id="SVGID_2_"><stop
       id="stop9"
       style="stop-color:#08406F"
       offset="0" /><stop
       id="stop11"
       style="stop-color:#60C5F5"
       offset="1" /></linearGradient><linearGradient
     gradientTransform="translate(-0.1797,-875.4102)"
     y2="1010.2849"
     x2="119.6701"
     y1="1013.9102"
     x1="123.2954"
     gradientUnits="userSpaceOnUse"
     id="SVGID_3_"><stop
       id="stop16"
       style="stop-color:#08406F"
       offset="0" /><stop
       id="stop18"
       style="stop-color:#60C5F5"
       offset="1" /></linearGradient><linearGradient
     gradientTransform="translate(-0.1797,-875.4102)"
     y2="989.73828"
     x2="25.7236"
     y1="994.05078"
     x1="25.7236"
     gradientUnits="userSpaceOnUse"
     id="SVGID_4_"><stop
       id="stop23"
       style="stop-color:#08406F"
       offset="0" /><stop
       id="stop25"
       style="stop-color:#60C5F5"
       offset="1" /></linearGradient><linearGradient
     gradientTransform="translate(-0.1797,-875.4102)"
     y2="1028.7246"
     x2="121.1855"
     y1="1033.1816"
     x1="121.1855"
     gradientUnits="userSpaceOnUse"
     id="SVGID_5_"><stop
       id="stop30"
       style="stop-color:#08406F"
       offset="0" /><stop
       id="stop32"
       style="stop-color:#60C5F5"
       offset="1" /></linearGradient><linearGradient
     gradientTransform="translate(-0.1797,-875.4102)"
     y2="989.55658"
     x2="427.69379"
     y1="994.02338"
     x1="427.69379"
     gradientUnits="userSpaceOnUse"
     id="SVGID_6_"><stop
       id="stop37"
       style="stop-color:#08406F"
       offset="0" /><stop
       id="stop39"
       style="stop-color:#60C5F5"
       offset="1" /></linearGradient><linearGradient
     gradientTransform="translate(-0.1797,-875.4102)"
     y2="990.41602"
     x2="251.0645"
     y1="994.89447"
     x1="251.0645"
     gradientUnits="userSpaceOnUse"
     id="SVGID_7_"><stop
       id="stop44"
       style="stop-color:#08406F"
       offset="0" /><stop
       id="stop46"
       style="stop-color:#60C5F5"
       offset="1" /></linearGradient><linearGradient
     gradientTransform="translate(-0.1797,-875.4102)"
     y2="877.32422"
     x2="522.28082"
     y1="882.1875"
     x1="522.28082"
     gradientUnits="userSpaceOnUse"
     id="SVGID_8_"><stop
       id="stop51"
       style="stop-color:#08406F"
       offset="0" /><stop
       id="stop53"
       style="stop-color:#60C5F5"
       offset="1" /></linearGradient><linearGradient
     gradientTransform="translate(-0.1797,-875.4102)"
     y2="902.50488"
     x2="515.01318"
     y1="906.71478"
     x1="515.01318"
     gradientUnits="userSpaceOnUse"
     id="SVGID_9_"><stop
       id="stop58"
       style="stop-color:#08406F"
       offset="0" /><stop
       id="stop60"
       style="stop-color:#60C5F5"
       offset="1" /></linearGradient><linearGradient
     gradientTransform="translate(-0.1797,-875.4102)"
     y2="946.51172"
     x2="459.3696"
     y1="950.23053"
     x1="459.3696"
     gradientUnits="userSpaceOnUse"
     id="SVGID_10_"><stop
       id="stop65"
       style="stop-color:#08406F"
       offset="0" /><stop
       id="stop67"
       style="stop-color:#60C5F5"
       offset="1" /></linearGradient><linearGradient
     gradientTransform="translate(-0.1797,-875.4102)"
     y2="919.55658"
     x2="490.16061"
     y1="925.11133"
     x1="490.16061"
     gradientUnits="userSpaceOnUse"
     id="SVGID_11_"><stop
       id="stop72"
       style="stop-color:#08406F"
       offset="0" /><stop
       id="stop74"
       style="stop-color:#60C5F5"
       offset="1" /></linearGradient><linearGradient
     gradientTransform="translate(-0.1797,-875.4102)"
     y2="965.28198"
     x2="70.846001"
     y1="968.8252"
     x1="74.389198"
     gradientUnits="userSpaceOnUse"
     id="SVGID_12_"><stop
       id="stop79"
       style="stop-color:#08406F"
       offset="0" /><stop
       id="stop81"
       style="stop-color:#60C5F5"
       offset="1" /></linearGradient><linearGradient
     gradientTransform="translate(-0.1797,-875.4102)"
     y2="904.36908"
     x2="114.8892"
     y1="904.36908"
     x1="120.2554"
     gradientUnits="userSpaceOnUse"
     id="SVGID_13_"><stop
       id="stop86"
       style="stop-color:#08406F"
       offset="0" /><stop
       id="stop88"
       style="stop-color:#60C5F5"
       offset="1" /></linearGradient><linearGradient
     gradientTransform="translate(-0.1797,-875.4102)"
     y2="919.96088"
     x2="166.4209"
     y1="919.96088"
     x1="173.0811"
     gradientUnits="userSpaceOnUse"
     id="SVGID_14_"><stop
       id="stop93"
       style="stop-color:#08406F"
       offset="0" /><stop
       id="stop95"
       style="stop-color:#60C5F5"
       offset="1" /></linearGradient><linearGradient
     gradientTransform="translate(-0.1797,-875.4102)"
     y2="925.21582"
     x2="249.9951"
     y1="925.21582"
     x1="255.9883"
     gradientUnits="userSpaceOnUse"
     id="SVGID_15_"><stop
       id="stop100"
       style="stop-color:#08406F"
       offset="0" /><stop
       id="stop102"
       style="stop-color:#60C5F5"
       offset="1" /></linearGradient><linearGradient
     gradientTransform="translate(-0.1797,-875.4102)"
     y2="904.625"
     x2="343.57571"
     y1="904.625"
     x1="349.27689"
     gradientUnits="userSpaceOnUse"
     id="SVGID_16_"><stop
       id="stop107"
       style="stop-color:#08406F"
       offset="0" /><stop
       id="stop109"
       style="stop-color:#60C5F5"
       offset="1" /></linearGradient><linearGradient
     gradientTransform="translate(-0.1797,-875.4102)"
     y2="918.44629"
     x2="395.1636"
     y1="918.44629"
     x1="400.96039"
     gradientUnits="userSpaceOnUse"
     id="SVGID_17_"><stop
       id="stop114"
       style="stop-color:#08406F"
       offset="0" /><stop
       id="stop116"
       style="stop-color:#60C5F5"
       offset="1" /></linearGradient><linearGradient
     gradientTransform="translate(-0.1797,-875.4102)"
     y2="968.93848"
     x2="96.654297"
     y1="968.93848"
     x1="101.7651"
     gradientUnits="userSpaceOnUse"
     id="SVGID_18_"><stop
       id="stop121"
       style="stop-color:#08406F"
       offset="0" /><stop
       id="stop123"
       style="stop-color:#60C5F5"
       offset="1" /></linearGradient><linearGradient
     gradientTransform="translate(-0.1797,-875.4102)"
     y2="970.28583"
     x2="117.6964"
     y1="973.83789"
     x1="121.2485"
     gradientUnits="userSpaceOnUse"
     id="SVGID_19_"><stop
       id="stop128"
       style="stop-color:#08406F"
       offset="0" /><stop
       id="stop130"
       style="stop-color:#60C5F5"
       offset="1" /></linearGradient><linearGradient
     gradientTransform="translate(-0.1797,-875.4102)"
     y2="888.83112"
     x2="549.76727"
     y1="892.5"
     x1="553.43597"
     gradientUnits="userSpaceOnUse"
     id="SVGID_20_"><stop
       id="stop135"
       style="stop-color:#08406F"
       offset="0" /><stop
       id="stop137"
       style="stop-color:#60C5F5"
       offset="1" /></linearGradient><linearGradient
     gradientTransform="translate(-0.1797,-875.4102)"
     y2="969.87891"
     x2="140.5957"
     y1="969.87891"
     x1="145.99409"
     gradientUnits="userSpaceOnUse"
     id="SVGID_21_"><stop
       id="stop142"
       style="stop-color:#08406F"
       offset="0" /><stop
       id="stop144"
       style="stop-color:#60C5F5"
       offset="1" /></linearGradient><linearGradient
     gradientTransform="translate(-0.1797,-875.4102)"
     y2="902.52197"
     x2="144.28909"
     y1="907.00983"
     x1="148.7769"
     gradientUnits="userSpaceOnUse"
     id="SVGID_22_"><stop
       id="stop149"
       style="stop-color:#08406F"
       offset="0" /><stop
       id="stop151"
       style="stop-color:#60C5F5"
       offset="1" /></linearGradient><linearGradient
     gradientTransform="translate(-0.1797,-875.4102)"
     y2="918.16357"
     x2="211.688"
     y1="922.32129"
     x1="215.8457"
     gradientUnits="userSpaceOnUse"
     id="SVGID_23_"><stop
       id="stop156"
       style="stop-color:#08406F"
       offset="0" /><stop
       id="stop158"
       style="stop-color:#60C5F5"
       offset="1" /></linearGradient><linearGradient
     gradientTransform="translate(-0.1797,-875.4102)"
     y2="923.42627"
     x2="299.9317"
     y1="927.81049"
     x1="304.31589"
     gradientUnits="userSpaceOnUse"
     id="SVGID_24_"><stop
       id="stop163"
       style="stop-color:#08406F"
       offset="0" /><stop
       id="stop165"
       style="stop-color:#60C5F5"
       offset="1" /></linearGradient><linearGradient
     gradientTransform="translate(-0.1797,-875.4102)"
     y2="902.65302"
     x2="372.76331"
     y1="906.86133"
     x1="376.97119"
     gradientUnits="userSpaceOnUse"
     id="SVGID_25_"><stop
       id="stop170"
       style="stop-color:#08406F"
       offset="0" /><stop
       id="stop172"
       style="stop-color:#60C5F5"
       offset="1" /></linearGradient><linearGradient
     gradientTransform="translate(-0.1797,-875.4102)"
     y2="931.80859"
     x2="485.28159"
     y1="935.26459"
     x1="488.73779"
     gradientUnits="userSpaceOnUse"
     id="SVGID_26_"><stop
       id="stop177"
       style="stop-color:#08406F"
       offset="0" /><stop
       id="stop179"
       style="stop-color:#60C5F5"
       offset="1" /></linearGradient><linearGradient
     gradientTransform="translate(-0.1797,-875.4102)"
     y2="975.41748"
     x2="495.84851"
     y1="979.37701"
     x1="499.80811"
     gradientUnits="userSpaceOnUse"
     id="SVGID_27_"><stop
       id="stop184"
       style="stop-color:#08406F"
       offset="0" /><stop
       id="stop186"
       style="stop-color:#60C5F5"
       offset="1" /></linearGradient><linearGradient
     gradientTransform="translate(-0.1797,-875.4102)"
     y2="917.33063"
     x2="437.55469"
     y1="921.61328"
     x1="441.8374"
     gradientUnits="userSpaceOnUse"
     id="SVGID_28_"><stop
       id="stop191"
       style="stop-color:#08406F"
       offset="0" /><stop
       id="stop193"
       style="stop-color:#60C5F5"
       offset="1" /></linearGradient><linearGradient
     gradientTransform="translate(-0.1797,-875.4102)"
     y2="911.53528"
     x2="481.74481"
     y1="916.64941"
     x1="486.85889"
     gradientUnits="userSpaceOnUse"
     id="SVGID_29_"><stop
       id="stop198"
       style="stop-color:#08406F"
       offset="0" /><stop
       id="stop200"
       style="stop-color:#60C5F5"
       offset="1" /></linearGradient><linearGradient
     gradientTransform="translate(-0.1797,-875.4102)"
     y2="988.68817"
     x2="182.33521"
     y1="992.33008"
     x1="185.9771"
     gradientUnits="userSpaceOnUse"
     id="SVGID_30_"><stop
       id="stop205"
       style="stop-color:#08406F"
       offset="0" /><stop
       id="stop207"
       style="stop-color:#60C5F5"
       offset="1" /></linearGradient><linearGradient
     gradientTransform="translate(-0.1797,-875.4102)"
     y2="965.49908"
     x2="299.3873"
     y1="969.13959"
     x1="303.0278"
     gradientUnits="userSpaceOnUse"
     id="SVGID_31_"><stop
       id="stop212"
       style="stop-color:#08406F"
       offset="0" /><stop
       id="stop214"
       style="stop-color:#60C5F5"
       offset="1" /></linearGradient><linearGradient
     gradientTransform="translate(-0.1797,-875.4102)"
     y2="969.57562"
     x2="346.37991"
     y1="973.08502"
     x1="349.88919"
     gradientUnits="userSpaceOnUse"
     id="SVGID_32_"><stop
       id="stop219"
       style="stop-color:#08406F"
       offset="0" /><stop
       id="stop221"
       style="stop-color:#60C5F5"
       offset="1" /></linearGradient><linearGradient
     gradientTransform="translate(-0.1797,-875.4102)"
     y2="989.21692"
     x2="366.38129"
     y1="993.63959"
     x1="370.8042"
     gradientUnits="userSpaceOnUse"
     id="SVGID_33_"><stop
       id="stop226"
       style="stop-color:#08406F"
       offset="0" /><stop
       id="stop228"
       style="stop-color:#60C5F5"
       offset="1" /></linearGradient><linearGradient
     gradientTransform="translate(-0.1797,-875.4102)"
     y2="971.76862"
     x2="223.4189"
     y1="971.76862"
     x1="229.457"
     gradientUnits="userSpaceOnUse"
     id="SVGID_34_"><stop
       id="stop233"
       style="stop-color:#08406F"
       offset="0" /><stop
       id="stop235"
       style="stop-color:#60C5F5"
       offset="1" /></linearGradient><linearGradient
     gradientTransform="translate(-0.1797,-875.4102)"
     y2="968.51862"
     x2="325.09229"
     y1="968.51862"
     x1="330.3042"
     gradientUnits="userSpaceOnUse"
     id="SVGID_35_"><stop
       id="stop240"
       style="stop-color:#08406F"
       offset="0" /><stop
       id="stop242"
       style="stop-color:#60C5F5"
       offset="1" /></linearGradient><linearGradient
     gradientTransform="translate(-0.1797,-875.4102)"
     y2="967.80658"
     x2="368.7251"
     y1="967.80658"
     x1="374.97021"
     gradientUnits="userSpaceOnUse"
     id="SVGID_36_"><stop
       id="stop247"
       style="stop-color:#08406F"
       offset="0" /><stop
       id="stop249"
       style="stop-color:#60C5F5"
       offset="1" /></linearGradient><linearGradient
     gradientTransform="translate(-0.1797,-875.4102)"
     y2="955.25677"
     x2="436.21909"
     y1="959.6748"
     x1="440.63721"
     gradientUnits="userSpaceOnUse"
     id="SVGID_37_"><stop
       id="stop254"
       style="stop-color:#08406F"
       offset="0" /><stop
       id="stop256"
       style="stop-color:#60C5F5"
       offset="1" /></linearGradient><linearGradient
     gradientTransform="translate(-0.1797,-875.4102)"
     y2="963.70801"
     x2="472.92041"
     y1="969.50983"
     x1="472.92041"
     gradientUnits="userSpaceOnUse"
     id="SVGID_38_"><stop
       id="stop261"
       style="stop-color:#08406F"
       offset="0" /><stop
       id="stop263"
       style="stop-color:#60C5F5"
       offset="1" /></linearGradient><g
     transform="translate(1.2651637,30.169886)"
     style="display:inline"
     inkscape:label="Fill"
     id="layer1"
     inkscape:groupmode="layer"><path
       inkscape:transform-center-y="-0.43116907"
       inkscape:transform-center-x="0.29240433"
       d="m 13.612316,-3.1812622 0.214466,-4.9675768 -3.9705876,-2.992867 4.7907196,-1.331097 1.619407,-4.701099 2.746362,4.144913 4.971435,0.08743 -3.093374,3.8927939 1.45311,4.7551329 -4.658173,-1.7390344 z"
       inkscape:randomized="0"
       inkscape:rounded="0"
       inkscape:flatsided="false"
       sodipodi:arg2="2.7007189"
       sodipodi:arg1="2.0724004"
       sodipodi:r2="3.7437603"
       sodipodi:r1="7.4875207"
       sodipodi:cy="-9.7464132"
       sodipodi:cx="17.212561"
       sodipodi:sides="5"
       id="path4699"
       style="opacity:0;fill:#ffffff;fill-opacity:1"
       sodipodi:type="star" /><path
       id="path1053"
       d="M 9.883027,145.00071 C 6.8270694,144.16162 4.343864,141.65425 3.526296,138.58211 3.3286892,137.83957 3.296108,132.85019 3.2944922,103.08465 L 3.2926122,68.451179 4.494725,67.865144 c 2.3010432,-1.121765 4.2857427,-3.630142 4.7984325,-6.064533 0.2264318,-1.075159 0.2264318,-2.948263 0,-4.023422 C 8.7804677,55.342798 6.7957682,52.834421 4.494725,51.712656 l -1.2021128,-0.586035 0.00188,-34.633474 c 0.00206,-38.038694 -0.069529,-35.276016 0.9691586,-37.398164 0.6818224,-1.393035 2.3948904,-3.106103 3.7879255,-3.787925 2.0922757,-1.024067 0.6613527,-0.967095 24.3420567,-0.969159 l 21.577365,-0.0019 0.597618,1.220373 c 1.129646,2.306806 3.601839,4.266211 6.030364,4.779529 1.190743,0.251687 55.10228,0.251687 56.29303,0 2.42852,-0.513318 4.90071,-2.472723 6.03036,-4.779529 l 0.59762,-1.220373 21.57736,0.0019 c 23.68071,0.0021 22.24978,-0.05491 24.34207,0.969159 1.39303,0.681822 3.10609,2.39489 3.78791,3.787926 1.03869,2.122148 0.9671,-0.640531 0.96916,37.398163 l 0.002,34.633475 -1.20211,0.586034 c -2.30105,1.121766 -4.28574,3.630143 -4.79844,6.064533 -0.22642,1.075159 -0.22642,2.948264 0,4.023422 0.5127,2.434391 2.49739,4.942768 4.79844,6.064534 l 1.20211,0.586034 -0.002,34.633471 c -0.002,38.0387 0.0695,35.27601 -0.96916,37.39817 -0.68182,1.39304 -2.39488,3.1061 -3.78791,3.78792 -2.09229,1.02407 -0.66136,0.9671 -24.34207,0.96916 l -21.57736,0.002 -0.59762,-1.22037 c -1.12965,-2.30682 -3.60184,-4.26622 -6.03036,-4.77953 -1.18805,-0.25112 -55.100781,-0.25174 -56.29303,0 -2.440441,0.51396 -4.907422,2.46749 -6.034224,4.77829 l -0.595994,1.22226 -21.655444,-0.0141 c -17.60153,-0.0116 -21.800496,-0.054 -22.430291,-0.22691 z M 38.679448,131.9439 c 1.080019,-0.2505 1.430586,-0.78051 2.363702,-3.57364 l 0.845747,-2.53159 h 7.812787 7.812786 l 0.842968,2.53428 c 0.707889,2.12819 0.92945,2.61461 1.38267,3.03554 0.709148,0.65861 1.298322,0.72426 5.915549,0.65928 3.558377,-0.0501 3.690052,-0.0633 4.031095,-0.40465 0.225834,-0.22603 0.349861,-0.53915 0.345053,-0.87116 -0.01128,-0.77894 -12.983068,-38.10528 -13.459844,-38.73071 -0.755953,-0.99165 -0.742945,-0.98979 -6.918185,-0.98979 -5.554318,0 -5.612339,0.003 -6.13102,0.35639 -0.287999,0.19601 -0.65325,0.53457 -0.811668,0.75236 -0.158416,0.21779 -3.252373,8.96739 -6.875459,19.44354 -4.70846,13.61452 -6.55634,19.14898 -6.478436,19.40311 0.145321,0.47407 0.387033,0.75935 0.777488,0.91761 0.440646,0.17861 7.774367,0.17813 8.544767,0 z m 8.634107,-22.25246 c 1.269912,-3.78469 2.357042,-6.83177 2.415843,-6.77129 0.116642,0.11998 4.565675,13.28906 4.565675,13.51434 0,0.076 -2.090352,0.13821 -4.645225,0.13821 h -4.645225 z m 35.806793,22.1263 c 0.303694,-0.15231 0.641207,-0.45512 0.75003,-0.67291 0.148264,-0.29674 0.198444,-1.99496 0.200195,-6.77503 l 0.0023,-6.37905 2.704133,0.0433 2.704135,0.0433 3.325161,6.4149 c 2.226807,4.29596 3.499209,6.58048 3.852071,6.91616 0.696387,0.66246 1.24406,0.72021 6.237597,0.65772 l 4.01338,-0.0502 0.38202,-0.44442 c 0.21011,-0.24442 0.38202,-0.59473 0.38202,-0.77845 0,-0.30014 -1.02513,-2.35733 -4.0475,-8.1223 -0.54806,-1.0454 -1.5312,-2.92912 -2.18476,-4.18605 l -1.18828,-2.28534 1.21559,-0.70784 c 1.49827,-0.87245 3.26937,-2.62923 4.0341,-4.00147 1.91386,-3.4343 2.21998,-8.62932 0.74016,-12.56118 -0.52876,-1.40492 -1.83813,-3.21304 -3.08973,-4.26665 -1.2758,-1.07397 -3.706162,-2.3166 -5.458322,-2.7908 -2.726887,-0.73794 -3.775942,-0.79804 -13.948258,-0.79903 -9.520683,-9.5e-4 -9.595159,0.002 -9.948847,0.33106 -0.195995,0.1826 -0.423265,0.50798 -0.505045,0.72308 -0.08967,0.23585 -0.14869,7.96596 -0.14869,19.47496 0,17.00445 0.02701,19.1361 0.247839,19.56314 0.436763,0.84462 0.848391,0.91752 5.216711,0.9241 3.461502,0.005 4.029305,-0.0289 4.51199,-0.271 z m 0.952559,-27.34216 v -4.37573 l 3.603435,10e-4 c 4.737047,0.002 6.343976,0.28433 7.463448,1.31328 1.585241,1.45705 1.476065,4.92857 -0.195084,6.20322 -1.184947,0.9038 -2.143155,1.06866 -6.713989,1.15512 l -4.15781,0.0786 v -4.37574 z m 50.284263,27.3945 c 1.03,-0.43037 1.03498,-0.4669 1.03498,-7.58573 v -6.40104 l 0.77629,-1.40767 c 2.72664,-4.94432 12.72919,-23.43515 12.85223,-23.75878 0.20535,-0.54012 -0.18121,-1.4453 -0.66947,-1.56764 -0.20176,-0.0506 -2.48636,-0.0709 -5.07691,-0.0452 l -4.71008,0.0467 -0.61943,0.63357 c -0.44822,0.45845 -1.64043,2.6138 -4.31334,7.79789 -2.03164,3.94038 -3.74242,7.11219 -3.80172,7.04848 -0.0593,-0.0637 -1.72881,-3.28766 -3.71003,-7.16432 -1.98122,-3.87667 -3.78814,-7.25085 -4.01537,-7.4982 -0.81514,-0.88732 -0.87686,-0.89662 -5.94902,-0.89662 -4.44916,0 -4.6959,0.0155 -4.99321,0.31276 -0.17201,0.17201 -0.35761,0.49146 -0.41242,0.70988 -0.10462,0.41684 -0.10624,0.41363 4.32405,8.56013 3.83418,7.05033 5.98285,11.00452 7.66564,14.10702 l 1.72369,3.17793 0.002,6.40483 c 0.002,4.8007 0.0519,6.50401 0.2002,6.80082 0.42856,0.85769 0.93557,0.94983 5.22751,0.9501 3.03458,0 4.04756,-0.0508 4.46407,-0.22485 z M 62.626531,80.07901 63.165066,79.540474 v -3.65004 c 0,-3.629902 -0.0021,-3.652491 -0.382202,-4.094452 l -0.3822,-0.444412 -9.63614,-0.0792 -9.636139,-0.0792 v -3.247051 -3.247051 l 8.790797,-0.08255 c 4.834938,-0.0454 8.809663,-0.09886 8.832723,-0.118794 0.02306,-0.01993 0.183166,-0.26789 0.355792,-0.551017 0.288121,-0.472553 0.313913,-0.805142 0.314457,-4.054854 l 5.92e-4,-3.540077 -0.538535,-0.538536 -0.538536,-0.538535 h -8.651591 -8.651592 l 0.04295,-3.128256 0.04295,-3.128257 9.398553,-0.0792 9.398553,-0.0792 0.382198,-0.444412 c 0.379399,-0.441157 0.382199,-0.470406 0.382199,-3.991964 0,-2.276601 -0.06342,-3.686744 -0.177025,-3.936077 -0.09736,-0.213691 -0.40029,-0.505681 -0.673169,-0.648868 -0.451547,-0.23694 -1.768097,-0.256077 -14.646443,-0.212899 l -14.150298,0.04744 -0.382235,0.444412 -0.382235,0.444413 v 19.483887 c 0,13.004915 0.05399,19.584776 0.162375,19.787287 0.424487,0.793159 -0.0047,0.771379 15.336354,0.778179 l 14.310784,0.006 0.538535,-0.53853 z m 17.523657,0.0764 0.517275,-0.462124 0.0792,-10.119596 0.0792,-10.119598 6.573299,9.820729 c 3.615314,5.401402 6.786015,10.066879 7.046002,10.367725 0.788578,0.912514 1.108618,0.974984 4.994624,0.974984 3.803082,0 4.199172,-0.0753 4.559772,-0.866732 0.1434,-0.314709 0.18923,-5.073482 0.18923,-19.645125 0,-14.571642 -0.0458,-19.330415 -0.18923,-19.645124 -0.37057,-0.813322 -0.69789,-0.866735 -5.311404,-0.866735 -4.559142,0 -4.681098,0.01989 -5.15005,0.839684 -0.151791,0.265354 -0.21807,2.716488 -0.278413,10.296187 l -0.0792,9.947926 L 86.381022,50.52721 C 81.144081,42.709375 79.451533,40.295932 79.01576,40.02491 78.479287,39.69126 78.255597,39.67056 74.699507,39.625498 l -3.750456,-0.04752 -0.526148,0.470112 -0.526146,0.470111 v 19.587488 19.587489 l 0.517276,0.462182 0.517274,0.46219 h 4.350803 4.350803 z m 52.470092,0.28723 c 5.39704,-0.658777 9.88494,-3.255324 12.5796,-7.278135 1.54052,-2.299812 2.38876,-4.74208 2.69984,-7.773434 0.20679,-2.015151 0.20841,-8.611697 0.003,-10.565649 -0.71264,-6.765532 -4.8967,-11.961604 -11.36791,-14.117502 -3.10702,-1.035112 -3.10434,-1.034909 -13.70846,-1.034909 h -9.63595 l -0.38239,0.444412 -0.38239,0.444413 v 19.517427 c 0,17.670037 0.0241,19.551823 0.25453,19.880829 0.14,0.199868 0.40729,0.425038 0.59398,0.500378 0.51048,0.20601 17.64212,0.19021 19.34656,-0.0178 z m -9.34375,-9.347946 c -0.0459,-0.120073 -0.065,-5.136409 -0.0424,-11.147413 l 0.041,-10.929099 3.88062,0.01589 c 4.16932,0.01707 5.09931,0.147405 6.64657,0.93146 1.60755,0.814606 2.83614,2.593589 3.1867,4.614282 0.26583,1.532335 0.21581,10.063455 -0.0669,11.406359 -0.55603,2.641405 -2.01158,4.176435 -4.65339,4.907489 -1.29274,0.357733 -8.8676,0.527075 -8.9922,0.201029 z m 5.88804,-41.566752 c 7.89572,-1.172401 13.34766,-5.991513 14.54482,-12.856549 0.1748,-1.002374 0.23597,-2.623839 0.23597,-6.254773 V 5.515009 l -0.46299,-0.462993 -0.463,-0.462994 h -7.70641 -7.70642 l -0.46299,0.462994 -0.463,0.462993 v 3.746598 3.746598 l 0.463,0.462994 0.46299,0.462994 h 2.69551 c 1.48254,0 2.72708,0.05346 2.76567,0.118795 0.0386,0.06534 0.006,0.577454 -0.0717,1.138037 -0.47318,3.401198 -2.9713,5.142567 -7.34507,5.120041 -2.94168,-0.01516 -4.69865,-0.832867 -5.95025,-2.769326 -0.71011,-1.098685 -1.04483,-2.079546 -1.2581,-3.686743 -0.19666,-1.481997 -0.19138,-8.900844 0.007,-10.295528 0.46964,-3.296261 1.88824,-5.260788 4.42915,-6.1336 0.84329,-0.289677 1.37341,-0.353348 2.93026,-0.351941 3.08872,0.0028 4.5215,0.629871 6.51937,2.853315 0.57285,0.637525 1.25762,1.234462 1.52173,1.32653 0.29098,0.101438 2.14752,0.167394 4.71179,0.167394 4.04117,0 4.25039,-0.01478 4.64895,-0.328282 0.34613,-0.272259 0.41735,-0.456563 0.41735,-1.08 0,-2.081232 -1.84754,-5.485291 -4.05165,-7.465083 -2.70612,-2.430719 -6.38211,-4.11448 -10.2153,-4.679047 -2.17308,-0.320059 -6.52802,-0.234241 -8.30402,0.163642 -3.57177,0.800189 -6.24828,2.190483 -8.68278,4.510211 -2.10926,2.009818 -3.58985,4.555337 -4.33398,7.451206 -0.8547,3.326164 -0.8428,13.95532 0.0194,17.334517 1.65181,6.473894 7.01021,11.106584 14.10612,12.195662 1.94387,0.298346 5.00393,0.300072 6.99821,0.0039 z M 66.228279,28.726171 c 0.227553,-0.227553 0.455512,-0.637394 0.506573,-0.910758 0.05106,-0.273362 0.07061,-1.982005 0.04344,-3.796981 l -0.04939,-3.299959 -0.517276,-0.461869 -0.517274,-0.46187 h -9.18428 -9.184279 V 4.545079 c 0,-16.925687 0.0765,-15.739373 -1.045166,-16.208034 -0.780794,-0.326236 -8.07971,-0.317154 -8.865168,0.01103 -1.077597,0.450255 -1.018765,-0.724574 -1.018765,20.343774 0,11.457915 0.05903,19.157169 0.148689,19.392987 0.08178,0.215096 0.30905,0.540482 0.505045,0.723079 0.356305,0.331948 0.35838,0.331996 14.560237,0.331996 h 14.203879 z m 35.475881,0.03125 c 0.22699,-0.210365 0.45527,-0.552085 0.5073,-0.759376 0.052,-0.207292 0.0727,-1.92999 0.046,-3.82822 l -0.0486,-3.451325 -0.51728,-0.461884 -0.51727,-0.461885 H 91.673239 82.172174 V 16.54768 13.300629 l 8.51361,-0.0023 c 6.487027,-0.0018 8.607869,-0.04944 8.909591,-0.200194 0.826585,-0.413019 0.949845,-0.998703 0.950115,-4.514743 1.5e-4,-2.462617 -0.0539,-3.342094 -0.23165,-3.767528 C 99.885275,3.790075 99.952148,3.797068 90.572097,3.797068 H 82.172194 V 0.712089 -2.37289 l 9.341649,-0.04328 9.341647,-0.04328 0.4391,-0.438858 0.43911,-0.438861 0.048,-3.552253 c 0.0541,-4.003458 -0.0207,-4.358527 -1.00375,-4.769281 -0.817524,-0.341582 -27.697598,-0.335194 -28.51605,0.0068 -1.077596,0.450248 -1.018764,-0.724581 -1.018764,20.343767 0,11.457915 0.05903,19.157169 0.148689,19.392987 0.08178,0.215096 0.30905,0.540482 0.505045,0.723079 l 0.356355,0.331996 H 86.772362 101.2915 Z"
       style="fill:#000000;stroke-width:0.158393" /></g><g
     inkscape:label="Outline"
     id="layer2"
     inkscape:groupmode="layer" /></svg>
