<svg xmlns="http://www.w3.org/2000/svg" xmlns:svg="http://www.w3.org/2000/svg" id="root" width="128" height="128" version="1.1" viewBox="0 0 128 128"><metadata id="metadata7"/><g id="layer1" transform="translate(-317.03125,-547.56)"><path style="opacity:1;fill-opacity:1;stroke:none;stroke-width:2.60679913;stroke-miterlimit:4;stroke-dasharray:none;stroke-opacity:1" id="path4317-5-6" d="m 355.71608,577.42032 8.4721,10.4272 h -18.66509 l -3.9102,15.6408 h -13.11545 l 3.9102,-15.6408 h -7.73895 L 317.5,616.52231 h 20.85439 l -2.60679,10.4272 h 19.44916 l -13.68569,15.64079 h 11.82224 l 12.70814,-15.64079 h 29.9171 l 12.70814,15.64079 h 11.82224 l -13.68569,-15.64079 h 19.44916 l -2.60679,-10.4272 H 444.5 l -7.16869,-28.67479 h -7.73895 l 3.9102,15.6408 h -13.11545 l -3.9102,-15.6408 h -18.66509 l 8.4721,-10.4272 h -7.74912 l -9.1238,10.4272 h -16.822 l -9.1238,-10.4272 z m -2.73917,18.24759 h 13.034 v 13.034 h -13.034 z m 43.0407,0 h 13.03399 v 13.034 h -13.03399 z"/></g></svg>