<?xml version="1.0" encoding="UTF-8" standalone="no"?>
<!-- Created with Inkscape (http://www.inkscape.org/) -->

<svg
   xmlns:dc="http://purl.org/dc/elements/1.1/"
   xmlns:cc="http://creativecommons.org/ns#"
   xmlns:rdf="http://www.w3.org/1999/02/22-rdf-syntax-ns#"
   xmlns:svg="http://www.w3.org/2000/svg"
   xmlns="http://www.w3.org/2000/svg"
   xmlns:sodipodi="http://sodipodi.sourceforge.net/DTD/sodipodi-0.dtd"
   xmlns:inkscape="http://www.inkscape.org/namespaces/inkscape"
   width="730"
   height="730"
   id="root"
   version="1.1"
   inkscape:version="0.92.1 r15371"
   sodipodi:docname="linux-symbolic.svg"
   inkscape:export-filename="./tux-large.png"
   inkscape:export-xdpi="300"
   inkscape:export-ydpi="300"
   viewBox="0 0 730 730">
  <title
     id="title20046">Tux</title>
  <sodipodi:namedview
     id="base"
     pagecolor="#ffffff"
     bordercolor="#666666"
     borderopacity="0.41176471"
     inkscape:pageopacity="0.0"
     inkscape:pageshadow="2"
     inkscape:zoom="0.95068493"
     inkscape:cx="348.0196"
     inkscape:cy="367.78419"
     inkscape:document-units="px"
     inkscape:current-layer="layer4"
     showgrid="false"
     inkscape:window-width="1342"
     inkscape:window-height="893"
     inkscape:window-x="321"
     inkscape:window-y="104"
     inkscape:window-maximized="0"
     fit-margin-top="0"
     fit-margin-left="0"
     fit-margin-right="0"
     fit-margin-bottom="0"
     showguides="true"
     inkscape:guide-bbox="true"
     inkscape:showpageshadow="false"
     showborder="true"
     inkscape:snap-intersection-paths="false"
     inkscape:object-paths="true"
     inkscape:object-nodes="false"
     inkscape:snap-smooth-nodes="false"
     inkscape:snap-nodes="true"
     inkscape:pagecheckerboard="true"
     scale-x="1" />
  <defs
     id="defs27452" />
  <metadata
     id="metadata27455">
    <rdf:RDF>
      <cc:Work
         rdf:about="">
        <dc:format>image/svg+xml</dc:format>
        <dc:type
           rdf:resource="http://purl.org/dc/dcmitype/StillImage" />
        <dc:title>Tux</dc:title>
        <dc:date>20 June 2012</dc:date>
        <dc:creator>
          <cc:Agent>
            <dc:title>Garrett LeSage</dc:title>
          </cc:Agent>
        </dc:creator>
        <cc:license
           rdf:resource="http://creativecommons.org/publicdomain/zero/1.0/" />
        <dc:contributor>
          <cc:Agent>
            <dc:title>Larry Ewing, the creator of the original Tux graphic</dc:title>
          </cc:Agent>
        </dc:contributor>
        <dc:subject>
          <rdf:Bag>
            <rdf:li>tux</rdf:li>
            <rdf:li>Linux</rdf:li>
            <rdf:li>penguin</rdf:li>
            <rdf:li>logo</rdf:li>
          </rdf:Bag>
        </dc:subject>
        <dc:rights>
          <cc:Agent>
            <dc:title>Larry Ewing, Garrett LeSage</dc:title>
          </cc:Agent>
        </dc:rights>
        <dc:source>https://github.com/garrett/Tux</dc:source>
      </cc:Work>
      <cc:License
         rdf:about="http://creativecommons.org/publicdomain/zero/1.0/">
        <cc:permits
           rdf:resource="http://creativecommons.org/ns#Reproduction" />
        <cc:permits
           rdf:resource="http://creativecommons.org/ns#Distribution" />
        <cc:permits
           rdf:resource="http://creativecommons.org/ns#DerivativeWorks" />
      </cc:License>
    </rdf:RDF>
  </metadata>
  <g
     inkscape:groupmode="layer"
     id="layer5"
     inkscape:label="Body"
     style="display:inline">
    <path
       style="display:inline;fill-opacity:1;fill-rule:evenodd;stroke-width:0.32847095"
       d="m 375.13867,10.09375 c -3.66326,0.03197 -6.77038,0.206488 -9.10156,0.410156 -10.4234,0.908799 -54.2712,11.429694 -74.73633,52.695313 -6.35748,12.566619 -10.54394,28.016723 -10.9082,46.968751 -1.54506,80.39146 3.4991,67.95894 0.38672,104.84765 -1.14543,13.576 -7.17459,33.93317 -17.07422,53.80274 -11.31832,22.71703 -26.27812,40.50464 -35.06641,53.5625 -17.98261,26.71901 -35.34567,49.85651 -48.44922,76.40234 -7.44627,15.08505 -12.7965,36.29261 -15.12109,51.54102 -1.51619,9.94449 -1.72024,22.72688 -1.40625,34.81445 3.78737,-2.50461 8.35605,-4.48055 13.96875,-5.4707 l 0.006,-0.002 0.008,-0.002 c 1.57689,-0.27501 3.21441,-0.39521 4.88672,-0.35351 5.01693,0.12511 10.35815,1.70636 15.39844,4.91797 6.71903,4.28129 13.18385,11.15327 20.08203,21.43554 l 0.004,0.006 c 18.29306,27.21198 41.40764,58.51788 63.28907,91.71289 0.001,0.001 0.001,0.003 0.002,0.004 0.14379,0.21509 0.28952,0.41113 0.43359,0.62305 10.45462,-6.39803 18.05508,-16.12723 14.13477,-30.17774 -3.25148,-11.65297 -19.77411,-21.11432 -43.35156,-39.0332 -12.81173,-9.73707 -19.10212,-15.80821 -24.14063,-21.3711 -2.88977,-2.55588 -5.43962,-5.29682 -7.69922,-8.20898 -0.14698,-0.16378 -0.29399,-0.3263 -0.43945,-0.49219 -0.002,-0.0284 -0.004,-0.0556 -0.006,-0.084 -8.60705,-11.37446 -12.8376,-25.36501 -15.10547,-41.58008 -3.17227,-22.6806 4.16191,-73.4415 35.00781,-100.96289 0.60188,-0.53696 1.23104,-0.85995 1.5918,-0.88281 0.46384,-0.0294 0.48505,0.43616 -0.56054,1.57226 -24.69895,26.83401 -32.97255,64.10975 -29.17188,95.36133 1.07852,8.89957 3.8229,17.08027 7.63867,24.68555 0.47778,-28.29688 6.26367,-47.77501 13.89844,-73.03711 7.40094,-21.51787 18.64066,-46.51601 28.89453,-55.82031 7.38337,-25.11258 6.8454,-16.9492 17.83203,-40.97461 9.14593,-20.00023 16.25903,-60.62511 18.45703,-75.27539 -1.97015,-1.86927 -4.04854,-3.78342 -6.11718,-5.84375 -0.87825,-0.87493 -1.30706,-1.70327 -1.65821,-2.44727 l -5.88281,-6.80859 -0.12891,-0.16602 c -3.78025,-4.86807 -3.23335,-10.4848 -2.20312,-14.36133 1.02942,-3.87348 2.70298,-6.92807 4.05859,-9.10156 10e-4,-0.001 0.001,-0.003 0.002,-0.004 l 0.002,-0.002 c 3.56986,-5.72948 8.56494,-10.62178 13.77539,-14.70703 -4.19222,-5.46318 -7.12884,-12.88145 -8.92383,-20.61914 -3.93321,-16.98632 0.31385,-35.73484 11.46094,-39.61914 h 0.002 c 2.57117,-0.89727 4.97917,-1.31848 7.23047,-1.31445 12.157,0.0218 19.69461,12.42832 23.07422,29.06054 0.88536,4.44345 1.16839,8.88526 0.97266,13.12891 4.19285,-1.2366 8.63076,-2.03386 13.13476,-2.39453 v -0.002 c 7.27771,-0.58278 13.53207,0.42939 19.69727,2.23633 -0.13578,-5.59829 0.45515,-13.4454 3.25586,-22.73828 4.48635,-14.77875 18.13404,-25.74333 32.26562,-25.57617 3.95684,0.0468 7.95051,0.96713 11.79297,2.91992 17.56551,8.92755 20.81021,32.10527 16.59961,45.16797 -2.11599,6.56481 -6.60188,14.00993 -10.70508,19.73633 3.18686,1.34387 5.86523,2.65845 8.12891,4.08594 l 0.006,0.002 0.006,0.004 c 5.13209,3.24828 8.41001,8.88869 9.30078,13.53516 l 0.004,0.0254 0.004,0.0234 c 0.75039,4.05268 0.42414,7.95743 -0.30469,12.11914 -0.72882,4.16171 -1.54931,8.14543 -4.67383,12.16211 l -0.008,0.0117 -0.008,0.008 c -1.37065,1.75182 -2.97808,3.0577 -4.52148,4.08594 3.74493,19.70338 8.55006,49.99565 20.42187,76.57226 8.40153,18.80838 8.95486,17.80029 13.1543,38.34571 5.37375,4.27436 14.37571,19.41942 16.25781,22.99023 19.66937,41.21814 26.60587,70.82366 25.27148,106.11133 1.42284,-0.0254 2.96506,-0.0739 4.50391,-0.11524 1.31735,-0.23936 2.68962,-0.46468 4.15039,-0.66601 5.45099,-10.19364 10.17014,-22.65608 11.04883,-33.6875 2.29483,-28.81062 -6.91223,-58.50212 -34.45313,-84.57227 -0.81944,-0.77573 -0.94782,-1.04717 -0.72461,-1.01367 0.2232,0.0335 0.79779,0.37153 1.38868,0.81836 23.782,17.98671 40.47024,43.84582 41.76171,77.41602 0.46821,12.17149 -3.71488,28.19306 -7.99023,39.99218 1.56174,-0.0918 3.16153,-0.17091 4.83008,-0.22656 3.18442,-0.1067 6.47477,-0.14646 9.80664,-0.0977 9.99559,0.1464 20.36968,1.09576 29.4082,3.48047 6.02568,1.58981 11.55122,3.75156 16.09375,7.56055 4.02614,3.37599 7.06616,8.78007 7.24414,14.57617 h 4.55078 c 5.00857,-19.05983 6.47195,-31.80139 5.49414,-48.2832 -2.33717,-39.3993 -27.08837,-81.09646 -59.43359,-128.5918 -10.9084,-16.01776 -23.67165,-32.58384 -32.73828,-46.78515 -10.50347,-16.45189 -21.44394,-35.47932 -25.66016,-52.76758 -3.17458,-13.0171 -4.52385,-37.58642 -4.95703,-78.50586 C 479.33411,74.19061 459.92513,45.24558 436.43555,27.1875 417.34989,12.515383 391.01283,9.9552177 375.13867,10.09375 Z"
       id="path4586" />
    <path
       style="display:inline;fill-opacity:1;fill-rule:evenodd;stroke-width:0.32847095"
       d="m 290.20117,221.45312 c -0.0352,-0.1523 -0.005,0.22287 0.25195,0.86329 -0.0841,-0.31894 -0.23335,-0.78278 -0.25195,-0.86329 z"
       id="path4584" />
    <path
       style="display:inline;fill-opacity:1;fill-rule:evenodd;stroke-width:0.32847095"
       d="m 461.99219,579.44922 c -16.60074,19.77209 -38.97668,35.08391 -64.30343,40.9541 -25.93538,6.01149 -53.39022,5.99752 -79.2613,-0.3309 -9.99047,-2.58908 -19.7438,-6.3116 -28.62473,-11.60758 11.07443,12.28186 23.59976,25.44734 25.30099,42.76473 0.62806,6.03186 0.70863,12.16359 -0.11539,18.18078 18.09252,-6.21171 37.56749,-6.28515 56.48706,-6.56908 27.42249,0.35424 55.02323,5.59688 80.05005,16.99681 -1.99228,-11.84822 -2.24524,-24.01693 0.55448,-35.76806 3.21033,-17.85046 9.66819,-35.27522 9.59317,-53.59127 0.11786,-3.67616 0.21676,-7.35292 0.3191,-11.02953 z"
       id="path4540"
       inkscape:connector-curvature="0" />
  </g>
  <g
     inkscape:groupmode="layer"
     id="layer2"
     inkscape:label="Feets"
     style="display:inline">
    <path
       d="m -24.936677,186.83749 c -12.352446,5.93475 -40.796223,5.81407 -47.696314,17.63584 -7.575394,13.00331 -2.677794,27.4066 -2.605596,44.00528 0.02444,11.74882 -0.168932,24.82544 -5.114325,38.74571 -4.053332,11.45993 -5.428377,15.5128 0.385657,25.59751 5.814199,10.10885 31.049374,14.95807 65.18713,23.11266 34.161701,8.13064 23.2809695,2.12307 61.520441,17.05667 23.691164,9.2639 57.129174,20.62758 78.793944,3.71544 7.98562,-6.24874 21.08556,-20.38583 21.88207,-34.16171 0.45845,-7.86507 -0.26573,-16.26081 -2.14715,-21.35129 -6.2487,-16.98546 -18.74567,-24.2469 -30.61506,-42.00332 C 92.916565,226.21025 69.828506,194.9437 51.372347,167.48868 38.344598,148.0677 27.874061,143.36298 19.019733,144.90699 c -27.2137201,4.80087 -18.43172079,29.6742 -43.956903,41.9305 v 0 0 h 3.29e-4 z"
       style="display:inline;opacity:1;fill-rule:evenodd;stroke-width:0.32847095"
       id="path3218"
       inkscape:connector-curvature="0"
       transform="translate(160,342.63782)" />
    <path
       style="display:inline;opacity:1;fill-rule:evenodd;stroke-width:0.32847095"
       d="m 589.07031,499.82031 c -10.72483,22.54469 -25.48347,45.54455 -49.76057,55.08703 -15.54579,7.21064 -37.75291,6.94415 -47.7841,-9.0616 -8.05159,-13.03871 -10.7649,-28.72904 -11.0706,-43.86136 -10.1455,9.75609 -8.66584,25.33785 -9.17474,38.24314 -0.87603,21.24348 -0.94095,42.54923 -2.41365,63.75826 -3.54986,24.55091 -14.53838,48.84711 -9.52925,73.9916 1.46174,19.52684 19.9657,32.21266 37.9011,35.068 18.37517,3.48456 38.54678,-1.00211 52.0173,-14.46012 16.18236,-14.63589 33.8349,-27.5722 51.33966,-40.56881 20.8029,-14.56881 43.41857,-26.80564 62.69942,-43.4227 10.46735,-8.99432 2.92915,-22.34481 -5.48391,-29.44547 -12.15049,-12.9045 -29.13959,-22.35543 -35.13116,-40.02312 -5.6321,-12.75803 -2.01664,-29.78226 -14.18133,-39.24794 -5.03731,-5.24397 -12.66397,-5.48037 -19.42817,-6.05691 z"
       id="path3220"
       inkscape:connector-curvature="0" />
    <path
       d="m 421.1568,155.26089 c 0.42353,-0.79533 1.2814,-3.98468 1.3463,-4.63236 1.62055,-16.15148 -29.79934,-19.78581 -54.25525,-18.97008 -11.0971,0.37008 -19.74554,1.67888 -24.91045,3.20374 -8.99805,2.65647 -13.4286,8.7504 -14.42547,16.37414 -2.01806,15.43367 2.56167,48.0374 17.8752,55.17064 15.83572,7.37631 39.81706,-3.1527 53.9735,-19.03473 9.58609,-10.75423 15.69053,-23.27522 20.39617,-32.11135 z"
       style="display:inline;fill-opacity:1;fill-rule:evenodd;stroke-width:0.32847095"
       id="path3232"
       inkscape:connector-curvature="0"
       transform="translate(160,342.63782)" />
  </g>
  <g
     inkscape:groupmode="layer"
     id="layer4"
     inkscape:label="Eyes"
     style="display:inline">
    <path
       style="display:inline;fill-opacity:1;fill-rule:evenodd;stroke-width:0.32847095"
       d="m 404.20312,176.84961 c 3.18501,-1.83375 6.03336,-4.72798 8.13282,-8.56445 5.81479,-10.59237 3.74045,-24.37117 -4.58399,-30.78907 -8.34839,-6.41842 -19.81068,-3.01619 -25.60156,7.57618 -4.05326,7.38337 -4.27143,16.33541 -1.20703,23.23632 z"
       id="path4538"
       inkscape:connector-curvature="0" />
    <path
       style="display:inline;fill-opacity:1;fill-rule:evenodd;stroke-width:0.32847095"
       d="m 326.29492,166.86133 c 0.36187,-1.279 0.62648,-2.65409 0.79492,-4.10156 1.30295,-11.02647 -3.90901,-22.44098 -11.65429,-25.45704 -7.74525,-3.01605 -15.07991,3.49893 -16.38282,14.52539 -1.25456,10.59237 3.49848,21.52247 10.71289,25.04493 z"
       id="path4517"
       inkscape:connector-curvature="0" />
  </g>
  <g
     inkscape:groupmode="layer"
     id="layer3"
     inkscape:label="Beak"
     style="display:inline">
    <path
       style="display:inline;opacity:1;fill-rule:evenodd;stroke-width:0.32847095"
       d="m 352.40625,164.36719 c -11.47752,-0.29441 -22.46438,3.88138 -31.98148,10.03836 -11.28613,7.26895 -23.92444,14.82904 -29.32457,27.78288 -3.79175,6.55496 1.51379,11.52631 7.51843,13.29937 9.90577,5.76007 19.98369,11.67629 31.3516,14.00863 21.2015,5.08383 43.40428,-1.92418 61.26779,-13.46811 7.95297,-4.7182 15.13855,-10.58191 22.48268,-16.12207 5.34665,-2.25154 9.28152,2.8679 2.43967,4.56356 -8.49343,4.74517 -15.86137,11.2911 -24.3238,16.1348 -12.98094,8.26275 -27.93065,13.58747 -43.23696,15.18445 -15.52884,1.35098 -30.57682,-4.56299 -43.60136,-12.5355 -2.14038,-0.97128 -10.18362,-6.56174 -5.35852,-1.68099 7.39406,6.35097 13.47286,13.95613 19.76302,21.3457 7.1442,7.94714 17.50188,12.59077 28.1721,12.80684 16.81466,1.48068 32.84229,-6.08136 45.99609,-15.92105 10.17596,-7.61196 19.39644,-16.6393 30.84077,-22.40892 5.50242,-4.44103 5.85825,-12.53536 5.73035,-19.07444 -0.42667,-7.90701 -8.58478,-10.95632 -14.81465,-13.48757 -15.53708,-5.70971 -31.15598,-11.19283 -46.58876,-17.19547 -5.25446,-1.84065 -10.73718,-3.20474 -16.3324,-3.27047 z m 6.91016,7.37695 c 4.51739,-2.12273 10.86582,8.30761 3.81748,5.84917 -2.77088,-1.56298 -7.37917,-3.24115 -8.92932,-5.0902 1.62032,-0.63359 3.38899,-0.76262 5.11184,-0.75897 z m -21.0586,0.1875 c 5.0901,0.65738 -4.98583,6.1931 -7.03346,6.26692 -4.05537,-3.88033 3.87838,-6.73261 7.03346,-6.26692 z"
       id="path3222"
       inkscape:connector-curvature="0" />
    <path
       transform="translate(160,342.63782)"
       d="m 180.51947,-169.82904 c -1.03787,-1.54489 -5.35979,-0.74848 -7.43599,0 -2.05222,0.7726 -3.64553,3.01786 -2.80021,4.53895 0.4343,0.77243 1.37596,1.15897 2.10001,1.01389 1.11069,-0.24146 2.29365,-1.4728 3.79029,-2.60737 1.59345,-1.23134 3.91094,-2.3175 4.34528,-2.94547 v 0 z"
       style="display:inline;opacity:0.05;fill-opacity:1;fill-rule:evenodd;stroke-width:0.32847095"
       id="path3234"
       inkscape:connector-curvature="0" />
    <path
       transform="translate(160,342.63782)"
       d="m 193.94181,-169.78062 c -0.62784,-0.65178 7.0255,-2.22128 10.04271,0.14463 3.04154,2.36591 2.84866,4.22463 1.93144,5.21454 -0.96548,1.01389 -9.874,-4.51434 -11.97415,-5.35966 v 3.3e-4 z"
       style="display:inline;opacity:0.05;fill-opacity:1;fill-rule:evenodd;stroke-width:0.32847095"
       id="path3236"
       inkscape:connector-curvature="0" />
  </g>
</svg>
