<?xml version="1.0" encoding="UTF-8" standalone="no"?>
<!-- Created with Inkscape (http://www.inkscape.org/) -->

<svg
   xmlns:dc="http://purl.org/dc/elements/1.1/"
   xmlns:cc="http://creativecommons.org/ns#"
   xmlns:rdf="http://www.w3.org/1999/02/22-rdf-syntax-ns#"
   xmlns:svg="http://www.w3.org/2000/svg"
   xmlns="http://www.w3.org/2000/svg"
   xmlns:sodipodi="http://sodipodi.sourceforge.net/DTD/sodipodi-0.dtd"
   xmlns:inkscape="http://www.inkscape.org/namespaces/inkscape"
   width="256"
   height="256"
   id="root"
   version="1.1"
   inkscape:version="0.92.1 r15371"
   sodipodi:docname="linux-symbolic.svg"
   inkscape:export-filename="./tux-large.png"
   inkscape:export-xdpi="300"
   inkscape:export-ydpi="300"
   viewBox="0 0 256 256">
  <title
     id="title20046">Tux</title>
  <sodipodi:namedview
     id="base"
     pagecolor="#ffffff"
     bordercolor="#666666"
     borderopacity="0.41176471"
     inkscape:pageopacity="0.0"
     inkscape:pageshadow="2"
     inkscape:zoom="1.3444715"
     inkscape:cx="114.29631"
     inkscape:cy="173.13893"
     inkscape:document-units="px"
     inkscape:current-layer="layer6"
     showgrid="false"
     inkscape:window-width="1342"
     inkscape:window-height="893"
     inkscape:window-x="321"
     inkscape:window-y="104"
     inkscape:window-maximized="0"
     fit-margin-top="0"
     fit-margin-left="0"
     fit-margin-right="0"
     fit-margin-bottom="0"
     showguides="true"
     inkscape:guide-bbox="true"
     inkscape:showpageshadow="false"
     showborder="true"
     inkscape:snap-intersection-paths="false"
     inkscape:object-paths="true"
     inkscape:object-nodes="false"
     inkscape:snap-smooth-nodes="false"
     inkscape:snap-nodes="true"
     inkscape:pagecheckerboard="true"
     scale-x="1"
     inkscape:snap-page="true"
     inkscape:snap-bbox="true"
     inkscape:bbox-nodes="true"
     inkscape:snap-others="false" />
  <defs
     id="defs27452" />
  <metadata
     id="metadata27455">
    <rdf:RDF>
      <cc:Work
         rdf:about="">
        <dc:format>image/svg+xml</dc:format>
        <dc:type
           rdf:resource="http://purl.org/dc/dcmitype/StillImage" />
        <dc:title>Tux</dc:title>
        <dc:date>20 June 2012</dc:date>
        <dc:creator>
          <cc:Agent>
            <dc:title>Garrett LeSage</dc:title>
          </cc:Agent>
        </dc:creator>
        <cc:license
           rdf:resource="http://creativecommons.org/publicdomain/zero/1.0/" />
        <dc:contributor>
          <cc:Agent>
            <dc:title>Larry Ewing, the creator of the original Tux graphic</dc:title>
          </cc:Agent>
        </dc:contributor>
        <dc:subject>
          <rdf:Bag>
            <rdf:li>tux</rdf:li>
            <rdf:li>Linux</rdf:li>
            <rdf:li>penguin</rdf:li>
            <rdf:li>logo</rdf:li>
          </rdf:Bag>
        </dc:subject>
        <dc:rights>
          <cc:Agent>
            <dc:title>Larry Ewing, Garrett LeSage</dc:title>
          </cc:Agent>
        </dc:rights>
        <dc:source>https://github.com/garrett/Tux</dc:source>
      </cc:Work>
      <cc:License
         rdf:about="http://creativecommons.org/publicdomain/zero/1.0/">
        <cc:permits
           rdf:resource="http://creativecommons.org/ns#Reproduction" />
        <cc:permits
           rdf:resource="http://creativecommons.org/ns#Distribution" />
        <cc:permits
           rdf:resource="http://creativecommons.org/ns#DerivativeWorks" />
      </cc:License>
    </rdf:RDF>
  </metadata>
  <g
     inkscape:groupmode="layer"
     id="layer6"
     inkscape:label="Border"
     transform="translate(0,-474)"
     style="display:inline">
    <path
       style="color:#000000;font-style:normal;font-variant:normal;font-weight:normal;font-stretch:normal;font-size:medium;line-height:normal;font-family:sans-serif;font-variant-ligatures:normal;font-variant-position:normal;font-variant-caps:normal;font-variant-numeric:normal;font-variant-alternates:normal;font-feature-settings:normal;text-indent:0;text-align:start;text-decoration:none;text-decoration-line:none;text-decoration-style:solid;text-decoration-color:#000000;letter-spacing:normal;word-spacing:normal;text-transform:none;writing-mode:lr-tb;direction:ltr;text-orientation:mixed;dominant-baseline:auto;baseline-shift:baseline;text-anchor:start;white-space:normal;shape-padding:0;clip-rule:nonzero;display:inline;overflow:visible;visibility:visible;opacity:1;isolation:auto;mix-blend-mode:normal;color-interpolation:sRGB;color-interpolation-filters:linearRGB;solid-color:#000000;solid-opacity:1;vector-effect:none;fill-opacity:1;fill-rule:nonzero;stroke:none;stroke-width:16;stroke-linecap:butt;stroke-linejoin:miter;stroke-miterlimit:4;stroke-dasharray:none;stroke-dashoffset:0;stroke-opacity:1;paint-order:stroke fill markers;color-rendering:auto;image-rendering:auto;shape-rendering:auto;text-rendering:auto;enable-background:accumulate"
       d="m 0,474 v 8 248 H 256 V 474 Z m 16,16 H 240 V 714 H 16 Z"
       id="rect4499"
       inkscape:connector-curvature="0" />
  </g>
  <g
     inkscape:groupmode="layer"
     id="layer5"
     inkscape:label="Body"
     style="display:inline"
     transform="translate(0,-474)">
    <path
       style="display:inline;fill-opacity:1;fill-rule:evenodd;stroke-width:0.32847095"
       d="m 130.52255,496.30407 c -1.10691,0.01 -2.04576,0.0624 -2.75015,0.12393 -3.14956,0.27461 -16.3987,3.45362 -22.58249,15.92252 -1.92099,3.79716 -3.18599,8.4656 -3.29605,14.19218 -0.46685,24.29127 1.0573,20.53462 0.11686,31.681 -0.34611,4.10215 -2.167892,10.25332 -5.159188,16.25715 -3.419969,6.86423 -7.940251,12.23896 -10.59574,16.18455 -5.433664,8.07348 -10.680122,15.06476 -14.639522,23.0859 -2.249982,4.55813 -3.866615,10.96625 -4.569019,15.57375 -0.458137,3.00485 -0.519793,6.86719 -0.424917,10.51961 1.1444,-0.7568 2.524884,-1.35386 4.220829,-1.65305 l 0.0019,-6.4e-4 0.0026,-6.4e-4 c 0.476475,-0.0832 0.971272,-0.11944 1.476583,-0.10683 1.515923,0.0378 3.129839,0.5156 4.652825,1.48602 2.030237,1.29365 3.983659,3.3701 6.06803,6.47702 l 0.0013,0.002 c 5.527469,8.22243 12.511824,17.68189 19.123559,27.71216 3.1e-4,3.1e-4 3.1e-4,9.3e-4 6.5e-4,9.3e-4 0.0435,0.0651 0.0875,0.12423 0.13102,0.18826 3.15899,-1.93323 5.45557,-4.87303 4.27099,-9.11857 -0.98247,-3.52107 -5.97499,-6.37993 -13.099201,-11.79435 -3.871218,-2.94217 -5.771938,-4.77665 -7.294381,-6.45753 -0.87318,-0.7723 -1.643648,-1.6005 -2.326413,-2.48045 -0.04442,-0.0495 -0.08884,-0.0986 -0.132788,-0.14871 -6.5e-4,-0.009 -0.0013,-0.0168 -0.0019,-0.0254 -2.600723,-3.43691 -3.879035,-7.66434 -4.564301,-12.56392 -0.958539,-6.85321 1.257571,-22.19123 10.578034,-30.50716 0.181869,-0.16224 0.371976,-0.25984 0.480984,-0.26675 0.140156,-0.01 0.146561,0.13179 -0.169375,0.47508 -7.463089,8.10822 -9.963056,19.37153 -8.814635,28.81458 0.325887,2.68913 1.155134,5.16101 2.308114,7.45905 0.144367,-8.55025 1.892645,-14.43581 4.199584,-22.06906 2.236285,-6.50189 5.6325,-14.05538 8.730829,-16.86678 2.23098,-7.58808 2.068422,-5.1214 5.388169,-12.38097 2.76354,-6.04332 4.91286,-18.31862 5.57701,-22.74538 -0.59529,-0.56483 -1.22331,-1.14321 -1.84838,-1.76575 -0.26538,-0.26438 -0.39494,-0.51467 -0.50105,-0.73948 l -1.77756,-2.05731 -0.0389,-0.0501 c -1.14224,-1.47094 -0.97698,-3.16811 -0.6657,-4.33945 0.31107,-1.17042 0.81675,-2.0934 1.22636,-2.75014 3e-4,-3.1e-4 3e-4,-9.3e-4 6.5e-4,-9.3e-4 l 6.5e-4,-6.6e-4 c 1.07867,-1.73122 2.58799,-3.20949 4.16239,-4.4439 -1.26673,-1.65077 -2.15406,-3.89228 -2.69644,-6.23033 -1.18846,-5.13261 0.0948,-10.7977 3.46306,-11.9714 h 6.6e-4 c 0.77691,-0.27111 1.50452,-0.39839 2.18476,-0.39717 3.6734,0.007 5.95098,3.75537 6.97217,8.781 0.26752,1.34264 0.35305,2.68479 0.2939,3.96705 1.26692,-0.37366 2.60789,-0.61456 3.96883,-0.72354 v -6.5e-4 c 2.19905,-0.17609 4.08888,0.12975 5.95176,0.67575 -0.041,-1.6916 0.13753,-4.0627 0.98381,-6.87066 1.3556,-4.46558 5.47941,-7.77867 9.74944,-7.72815 1.19561,0.0141 2.40235,0.29223 3.5634,0.88229 5.30763,2.69757 6.28806,9.701 5.01577,13.64806 -0.63937,1.98363 -1.99484,4.23326 -3.23467,5.96356 0.96294,0.40606 1.77224,0.80329 2.45624,1.23463 l 0.002,6.4e-4 0.002,9.2e-4 c 1.55072,0.98151 2.54118,2.68583 2.81034,4.08981 l 9.2e-4,0.008 9.4e-4,0.008 c 0.22674,1.22456 0.12815,2.40444 -0.0922,3.66194 -0.22022,1.25751 -0.46814,2.46124 -1.41226,3.67493 l -0.003,0.004 -0.003,0.003 c -0.41415,0.52933 -0.89986,0.92392 -1.36622,1.23462 1.13157,5.95361 2.58351,15.10678 6.17072,23.13724 2.53862,5.68317 2.70581,5.37855 3.97473,11.58662 1.62373,1.29154 4.34379,5.86781 4.91251,6.94676 5.94333,12.45458 8.03928,21.40025 7.63606,32.06284 0.42994,-0.008 0.89595,-0.0224 1.36092,-0.0349 0.39806,-0.0723 0.8127,-0.14041 1.25409,-0.20124 1.64709,-3.08014 3.07302,-6.84582 3.33853,-10.17909 0.69342,-8.70549 -2.08861,-17.67713 -10.41043,-25.55455 -0.2476,-0.23439 -0.28638,-0.31641 -0.21894,-0.3063 0.0675,0.0102 0.24107,0.11228 0.4196,0.24729 7.18602,5.4349 12.22858,13.24855 12.61881,23.39219 0.14149,3.67776 -1.12249,8.51887 -2.41433,12.08412 0.4719,-0.0279 0.95528,-0.0517 1.45946,-0.0685 0.9622,-0.0323 1.95644,-0.0443 2.96319,-0.0296 3.02029,0.0442 6.15494,0.33109 8.88605,1.05167 1.82072,0.48038 3.49033,1.13358 4.86293,2.28452 1.21653,1.02009 2.13511,2.653 2.18889,4.40436 h 1.37507 c 1.51341,-5.75917 1.95558,-9.60919 1.66013,-14.58936 -0.70621,-11.90498 -8.18508,-24.50427 -17.95857,-38.85557 -3.29612,-4.83997 -7.15269,-9.84561 -9.89228,-14.1367 -3.17376,-4.97114 -6.47954,-10.72051 -7.75354,-15.94436 -0.95924,-3.93328 -1.36693,-11.35721 -1.49781,-23.7215 0.4661,-18.94476 -5.39855,-27.69085 -12.4962,-33.14732 -5.76697,-4.43336 -13.72503,-5.20694 -18.5216,-5.16508 z"
       id="path4586"
       inkscape:connector-curvature="0" />
    <path
       style="display:inline;fill-opacity:1;fill-rule:evenodd;stroke-width:0.32847095"
       d="m 104.85765,560.16887 c -0.0107,-0.0461 -0.002,0.0674 0.076,0.26085 -0.0254,-0.0964 -0.0706,-0.23653 -0.076,-0.26085 z"
       id="path4584"
       inkscape:connector-curvature="0" />
    <path
       style="display:inline;fill-opacity:1;fill-rule:evenodd;stroke-width:0.32847095"
       d="m 156.76639,668.34174 c -5.01612,5.97436 -11.77727,10.60102 -19.43006,12.37476 -7.8367,1.81646 -16.13249,1.81224 -23.94977,-0.1 -3.01874,-0.78234 -5.96583,-1.90714 -8.6493,-3.50739 3.34627,3.71112 7.13095,7.68923 7.645,12.92189 0.18978,1.82259 0.21412,3.67538 -0.0348,5.49354 5.46686,-1.87695 11.35146,-1.89912 17.06823,-1.98493 8.28605,0.10704 16.62595,1.69116 24.18809,5.13579 -0.60198,-3.58008 -0.67842,-7.257 0.16755,-10.80775 0.97005,-5.39374 2.92137,-10.65883 2.89871,-16.19326 0.0356,-1.11079 0.0655,-2.22177 0.0964,-3.33269 z"
       id="path4540"
       inkscape:connector-curvature="0" />
  </g>
  <g
     inkscape:groupmode="layer"
     id="layer2"
     inkscape:label="Feets"
     style="display:inline"
     transform="translate(0,-474)">
    <path
       d="m 57.980861,653.24151 c -3.732442,1.79325 -12.327073,1.75679 -14.412017,5.32888 -2.288999,3.92911 -0.809132,8.28124 -0.787316,13.29673 0.0073,3.55005 -0.05104,7.50131 -1.545354,11.70749 -1.224763,3.46276 -1.64025,4.68739 0.116531,7.7346 1.756831,3.0545 9.381945,4.51976 19.697084,6.98377 10.322369,2.45677 7.034626,0.64151 18.589148,5.15389 7.158575,2.79919 17.262273,6.23287 23.808553,1.12266 2.41295,-1.88815 6.37124,-6.15983 6.61192,-10.32239 0.13853,-2.37652 -0.0802,-4.91339 -0.64879,-6.45155 -1.8881,-5.13235 -5.66422,-7.32648 -9.2507,-12.6918 -6.568272,-9.96533 -13.544604,-19.41289 -19.121359,-27.70876 -3.936491,-5.86828 -7.100294,-7.28988 -9.775736,-6.82333 -8.222956,1.45064 -5.569367,8.96641 -13.28211,12.66981 v 0 0 h 9.7e-5 z"
       style="display:inline;opacity:1;fill-rule:evenodd;stroke-width:0.32847095"
       id="path3218"
       inkscape:connector-curvature="0" />
    <path
       style="display:inline;opacity:1;fill-rule:evenodd;stroke-width:0.32847095"
       d="m 195.16459,644.2809 c -3.24065,6.81215 -7.70014,13.76183 -15.03576,16.64521 -4.69735,2.17878 -11.4075,2.09826 -14.43856,-2.73808 -2.43287,-3.93982 -3.25274,-8.68083 -3.3451,-13.25324 -3.06559,2.94791 -2.61849,7.65613 -2.77227,11.55563 -0.2647,6.41898 -0.28431,12.85678 -0.72931,19.26533 -1.07262,7.41835 -4.39295,14.75975 -2.87937,22.35746 0.44168,5.90027 6.03288,9.73345 11.45226,10.59623 5.55229,1.0529 11.64739,-0.30281 15.71768,-4.3693 4.8897,-4.42241 10.22361,-8.33127 15.5129,-12.25837 6.28584,-4.40213 13.11944,-8.09964 18.94539,-13.12069 3.16284,-2.71775 0.88507,-6.75175 -1.65703,-8.89731 -3.67141,-3.89926 -8.8049,-6.75497 -10.61531,-12.09347 -1.7018,-3.85499 -0.60936,-8.99907 -4.28507,-11.85925 -1.52207,-1.58452 -3.82656,-1.65595 -5.87045,-1.83015 z"
       id="path3220"
       inkscape:connector-curvature="0" />
    <path
       d="m 192.77343,643.70026 c 0.12797,-0.24032 0.38718,-1.20402 0.40679,-1.39974 0.48968,-4.88035 -9.00422,-5.97851 -16.39387,-5.73203 -3.35313,0.11184 -5.96636,0.5073 -7.52701,0.96804 -2.71886,0.8027 -4.0576,2.64405 -4.35882,4.94765 -0.60978,4.66347 0.77404,14.51509 5.40121,16.67049 4.78495,2.22883 12.03121,-0.95264 16.30875,-5.75158 2.89655,-3.24952 4.74107,-7.03289 6.16295,-9.70283 z"
       style="display:inline;fill-opacity:1;fill-rule:evenodd;stroke-width:0.32847095"
       id="path3232"
       inkscape:connector-curvature="0" />
  </g>
  <g
     inkscape:groupmode="layer"
     id="layer4"
     inkscape:label="Eyes"
     style="display:inline"
     transform="translate(0,-474)">
    <path
       style="display:inline;fill-opacity:1;fill-rule:evenodd;stroke-width:0.32847095"
       d="m 139.30471,546.69137 c 0.96241,-0.55408 1.82307,-1.42861 2.45744,-2.58785 1.75701,-3.20061 1.13023,-7.36406 -1.3851,-9.3033 -2.52256,-1.9394 -5.98605,-0.91137 -7.73582,2.28925 -1.22475,2.23097 -1.29068,4.93593 -0.36473,7.02113 z"
       id="path4538"
       inkscape:connector-curvature="0" />
    <path
       style="display:inline;fill-opacity:1;fill-rule:evenodd;stroke-width:0.32847095"
       d="m 115.76382,543.6733 c 0.10934,-0.38647 0.18929,-0.80197 0.2402,-1.23935 0.39368,-3.33178 -1.18116,-6.78081 -3.5215,-7.69215 -2.34031,-0.91134 -4.55657,1.05725 -4.95028,4.38903 -0.37907,3.2006 1.05712,6.50327 3.23704,7.56763 z"
       id="path4517"
       inkscape:connector-curvature="0" />
  </g>
  <g
     inkscape:groupmode="layer"
     id="layer3"
     inkscape:label="Beak"
     style="display:inline"
     transform="translate(0,-474)">
    <path
       style="display:inline;opacity:1;fill-rule:evenodd;stroke-width:0.32847095"
       d="m 123.65366,542.91966 c -3.46806,-0.089 -6.78787,1.17279 -9.66358,3.0332 -3.41024,2.19641 -7.22906,4.48078 -8.86078,8.39494 -1.14572,1.98067 0.4574,3.48281 2.27178,4.01857 2.99315,1.74047 6.03833,3.52813 9.47327,4.23289 6.40629,1.53613 13.11514,-0.58143 18.51281,-4.06957 2.40308,-1.42566 4.5743,-3.19744 6.79341,-4.87147 1.61556,-0.68033 2.80452,0.86657 0.73719,1.37893 -2.56641,1.43382 -4.79272,3.41175 -7.34973,4.87534 -3.92237,2.49668 -8.43959,4.1056 -13.06458,4.58815 -4.69224,0.40822 -9.23916,-1.37876 -13.17468,-3.78776 -0.64675,-0.29347 -3.07711,-1.98269 -1.61915,-0.50791 2.23422,1.91901 4.07099,4.21701 5.97164,6.44985 2.1587,2.40133 5.2884,3.80444 8.51254,3.86975 5.08076,0.4474 9.9237,-1.83757 13.89828,-4.81073 3.07478,-2.30006 5.86087,-5.02779 9.31891,-6.77114 1.66263,-1.34192 1.77014,-3.78773 1.7315,-5.76359 -0.12892,-2.38919 -2.594,-3.31057 -4.47643,-4.07542 -4.69471,-1.72525 -9.41415,-3.38205 -14.07736,-5.19581 -1.5877,-0.55619 -3.24438,-0.96836 -4.93504,-0.98822 z m 2.08799,2.22903 c 1.36499,-0.64141 3.28324,2.51025 1.15349,1.7674 -0.83725,-0.47227 -2.22969,-0.97935 -2.69808,-1.53806 0.4896,-0.19145 1.02402,-0.23044 1.54459,-0.22934 z m -6.3631,0.0567 c 1.53803,0.19862 -1.50653,1.87133 -2.12525,1.89362 -1.22538,-1.17249 1.17191,-2.03433 2.12525,-1.89362 z"
       id="path3222"
       inkscape:connector-curvature="0" />
    <path
       d="m 120.06194,545.47038 c -0.31361,-0.46681 -1.61954,-0.22616 -2.24687,0 -0.62012,0.23346 -1.10155,0.91188 -0.84613,1.3715 0.13122,0.2334 0.41575,0.3502 0.63454,0.30635 0.33561,-0.073 0.69305,-0.44501 1.14528,-0.78783 0.48149,-0.37207 1.18175,-0.70026 1.313,-0.89002 v 0 z"
       style="display:inline;opacity:0.05;fill-opacity:1;fill-rule:evenodd;stroke-width:0.32847095"
       id="path3234"
       inkscape:connector-curvature="0" />
    <path
       d="m 124.11766,545.48502 c -0.18972,-0.19696 2.12284,-0.67119 3.03452,0.0437 0.91904,0.71489 0.86075,1.27652 0.5836,1.57564 -0.29172,0.30635 -2.98354,-1.36407 -3.61812,-1.61949 v 10e-5 z"
       style="display:inline;opacity:0.05;fill-opacity:1;fill-rule:evenodd;stroke-width:0.32847095"
       id="path3236"
       inkscape:connector-curvature="0" />
  </g>
</svg>
