<?xml version="1.0" encoding="UTF-8" standalone="no"?>
<svg
   xmlns:dc="http://purl.org/dc/elements/1.1/"
   xmlns:cc="http://creativecommons.org/ns#"
   xmlns:rdf="http://www.w3.org/1999/02/22-rdf-syntax-ns#"
   xmlns:svg="http://www.w3.org/2000/svg"
   xmlns="http://www.w3.org/2000/svg"
   xmlns:sodipodi="http://sodipodi.sourceforge.net/DTD/sodipodi-0.dtd"
   xmlns:inkscape="http://www.inkscape.org/namespaces/inkscape"
   width="256"
   viewBox="0 0 256 256"
   version="1.1"
   height="256"
   id="root"
   sodipodi:docname="mac-symbolic.svg"
   inkscape:version="0.92.1 r15371">
  <metadata
     id="metadata10">
    <rdf:RDF>
      <cc:Work
         rdf:about="">
        <dc:format>image/svg+xml</dc:format>
        <dc:type
           rdf:resource="http://purl.org/dc/dcmitype/StillImage" />
        <dc:title></dc:title>
      </cc:Work>
    </rdf:RDF>
  </metadata>
  <defs
     id="defs8" />
  <sodipodi:namedview
     pagecolor="#ffffff"
     bordercolor="#666666"
     borderopacity="1"
     objecttolerance="10"
     gridtolerance="10"
     guidetolerance="10"
     inkscape:pageopacity="0"
     inkscape:pageshadow="2"
     inkscape:window-width="1424"
     inkscape:window-height="812"
     id="namedview6"
     showgrid="false"
     viewbox-x="0"
     inkscape:snap-page="true"
     inkscape:snap-bbox="true"
     inkscape:bbox-nodes="true"
     inkscape:object-nodes="false"
     inkscape:object-paths="true"
     inkscape:zoom="1.6931893"
     inkscape:cx="143.17803"
     inkscape:cy="127.39767"
     inkscape:window-x="136"
     inkscape:window-y="201"
     inkscape:window-maximized="0"
     inkscape:current-layer="root" />
  <path
     d="m 212.39195,186.07171 c -3.15602,7.29106 -6.89172,14.00247 -11.22,20.17282 -5.89981,8.41177 -10.73048,14.23433 -14.4533,17.46764 -5.77102,5.30728 -11.95426,8.02531 -18.57547,8.17989 -4.75334,0 -10.48573,-1.35256 -17.15847,-4.09639 -6.69464,-2.73094 -12.84697,-4.0835 -18.47242,-4.0835 -5.89983,0 -12.22734,1.35256 -18.99541,4.0835 -6.77837,2.74383 -12.23894,4.1737 -16.413916,4.31539 -6.349409,0.27052 -12.678207,-2.52481 -18.995413,-8.39889 -4.031985,-3.51673 -9.075186,-9.54539 -15.116721,-18.08596 -6.482092,-9.12027 -11.811268,-19.69619 -15.986241,-31.7535 -4.471251,-13.02342 -6.712674,-25.63465 -6.712674,-37.84397 0,-13.98571 3.022056,-26.04816 9.075186,-36.156458 4.757226,-8.119375 11.086026,-14.524176 19.007008,-19.226008 7.920981,-4.701832 16.479611,-7.097835 25.696494,-7.251137 5.043201,0 11.656687,1.559988 19.875247,4.625836 8.19536,3.076166 13.45754,4.63614 15.76467,4.63614 1.72487,0 7.57058,-1.824052 17.48051,-5.460568 9.37147,-3.372438 17.28085,-4.768815 23.76038,-4.218776 17.55782,1.416994 30.74871,8.338349 39.52117,20.807887 -15.70284,9.514444 -23.47053,22.840604 -23.31594,39.935964 0.14169,13.31587 4.97235,24.39673 14.46619,33.19494 4.3025,4.08355 9.10738,7.23956 14.45331,9.48097 -1.15936,3.36215 -2.38312,6.58256 -3.68419,9.67418 z M 172.12365,27.613438 c 0,10.436911 -3.813,20.181821 -11.4132,29.201616 -9.17184,10.722763 -20.26559,16.918879 -32.29584,15.941151 -0.15329,-1.252104 -0.24218,-2.569909 -0.24218,-3.954684 0,-10.01942 4.36177,-20.742183 12.10755,-29.509501 3.8671,-4.439048 8.78535,-8.130051 14.7496,-11.074428 5.95136,-2.900451 11.58067,-4.504486 16.87506,-4.779126 0.15458,1.395223 0.21901,2.790573 0.21901,4.174843 z"
     id="path2"
     inkscape:connector-curvature="0"
     style="stroke-width:1;" />
  <path
     style="color:#000000;font-style:normal;font-variant:normal;font-weight:normal;font-stretch:normal;font-size:medium;line-height:normal;font-family:sans-serif;font-variant-ligatures:normal;font-variant-position:normal;font-variant-caps:normal;font-variant-numeric:normal;font-variant-alternates:normal;font-feature-settings:normal;text-indent:0;text-align:start;text-decoration:none;text-decoration-line:none;text-decoration-style:solid;text-decoration-color:#000000;letter-spacing:normal;word-spacing:normal;text-transform:none;writing-mode:lr-tb;direction:ltr;text-orientation:mixed;dominant-baseline:auto;baseline-shift:baseline;text-anchor:start;white-space:normal;shape-padding:0;clip-rule:nonzero;display:inline;overflow:visible;visibility:visible;opacity:1;isolation:auto;mix-blend-mode:normal;color-interpolation:sRGB;color-interpolation-filters:linearRGB;solid-color:#000000;solid-opacity:1;vector-effect:none;fill-opacity:1;fill-rule:nonzero;stroke:none;stroke-width:16;stroke-linecap:butt;stroke-linejoin:miter;stroke-miterlimit:4;stroke-dasharray:none;stroke-dashoffset:0;stroke-opacity:1;paint-order:stroke fill markers;color-rendering:auto;image-rendering:auto;shape-rendering:auto;text-rendering:auto;enable-background:accumulate"
     d="M 0,0 V 8 256 H 256 V 0 Z M 16,16 H 240 V 240 H 16 Z"
     id="rect4487"
     inkscape:connector-curvature="0" />
</svg>
