<svg xmlns="http://www.w3.org/2000/svg" xmlns:svg="http://www.w3.org/2000/svg" id="root" width="180" height="180" x="0" y="0" enable-background="new 0 -.001 566.929 157.78" version="1.1" viewBox="0 -0.001 180 180" xml:space="preserve"><metadata id="metadata339"/><linearGradient id="SVGID_1_" x1="558.128" x2="11.77" y1="955.598" y2="955.598" gradientTransform="translate(-0.1797,-875.4102)" gradientUnits="userSpaceOnUse"><stop style="stop-color:#013a67" id="stop2" offset="0"/><stop style="stop-color:#6cd1ff" id="stop4" offset="1"/></linearGradient><linearGradient id="SVGID_2_" x1="64.71" x2="60.765" y1="938.789" y2="934.845" gradientTransform="translate(-0.1797,-875.4102)" gradientUnits="userSpaceOnUse"><stop style="stop-color:#08406f" id="stop9" offset="0"/><stop style="stop-color:#60c5f5" id="stop11" offset="1"/></linearGradient><linearGradient id="SVGID_3_" x1="123.295" x2="119.67" y1="1013.91" y2="1010.285" gradientTransform="translate(-0.1797,-875.4102)" gradientUnits="userSpaceOnUse"><stop style="stop-color:#08406f" id="stop16" offset="0"/><stop style="stop-color:#60c5f5" id="stop18" offset="1"/></linearGradient><linearGradient id="SVGID_4_" x1="25.724" x2="25.724" y1="994.051" y2="989.738" gradientTransform="translate(-0.1797,-875.4102)" gradientUnits="userSpaceOnUse"><stop style="stop-color:#08406f" id="stop23" offset="0"/><stop style="stop-color:#60c5f5" id="stop25" offset="1"/></linearGradient><linearGradient id="SVGID_5_" x1="121.186" x2="121.186" y1="1033.182" y2="1028.725" gradientTransform="translate(-0.1797,-875.4102)" gradientUnits="userSpaceOnUse"><stop style="stop-color:#08406f" id="stop30" offset="0"/><stop style="stop-color:#60c5f5" id="stop32" offset="1"/></linearGradient><linearGradient id="SVGID_6_" x1="427.694" x2="427.694" y1="994.023" y2="989.557" gradientTransform="translate(-0.1797,-875.4102)" gradientUnits="userSpaceOnUse"><stop style="stop-color:#08406f" id="stop37" offset="0"/><stop style="stop-color:#60c5f5" id="stop39" offset="1"/></linearGradient><linearGradient id="SVGID_7_" x1="251.065" x2="251.065" y1="994.894" y2="990.416" gradientTransform="translate(-0.1797,-875.4102)" gradientUnits="userSpaceOnUse"><stop style="stop-color:#08406f" id="stop44" offset="0"/><stop style="stop-color:#60c5f5" id="stop46" offset="1"/></linearGradient><linearGradient id="SVGID_8_" x1="522.281" x2="522.281" y1="882.188" y2="877.324" gradientTransform="translate(-0.1797,-875.4102)" gradientUnits="userSpaceOnUse"><stop style="stop-color:#08406f" id="stop51" offset="0"/><stop style="stop-color:#60c5f5" id="stop53" offset="1"/></linearGradient><linearGradient id="SVGID_9_" x1="515.013" x2="515.013" y1="906.715" y2="902.505" gradientTransform="translate(-0.1797,-875.4102)" gradientUnits="userSpaceOnUse"><stop style="stop-color:#08406f" id="stop58" offset="0"/><stop style="stop-color:#60c5f5" id="stop60" offset="1"/></linearGradient><linearGradient id="SVGID_10_" x1="459.37" x2="459.37" y1="950.231" y2="946.512" gradientTransform="translate(-0.1797,-875.4102)" gradientUnits="userSpaceOnUse"><stop style="stop-color:#08406f" id="stop65" offset="0"/><stop style="stop-color:#60c5f5" id="stop67" offset="1"/></linearGradient><linearGradient id="SVGID_11_" x1="490.161" x2="490.161" y1="925.111" y2="919.557" gradientTransform="translate(-0.1797,-875.4102)" gradientUnits="userSpaceOnUse"><stop style="stop-color:#08406f" id="stop72" offset="0"/><stop style="stop-color:#60c5f5" id="stop74" offset="1"/></linearGradient><linearGradient id="SVGID_12_" x1="74.389" x2="70.846" y1="968.825" y2="965.282" gradientTransform="translate(-0.1797,-875.4102)" gradientUnits="userSpaceOnUse"><stop style="stop-color:#08406f" id="stop79" offset="0"/><stop style="stop-color:#60c5f5" id="stop81" offset="1"/></linearGradient><linearGradient id="SVGID_13_" x1="120.255" x2="114.889" y1="904.369" y2="904.369" gradientTransform="translate(-0.1797,-875.4102)" gradientUnits="userSpaceOnUse"><stop style="stop-color:#08406f" id="stop86" offset="0"/><stop style="stop-color:#60c5f5" id="stop88" offset="1"/></linearGradient><linearGradient id="SVGID_14_" x1="173.081" x2="166.421" y1="919.961" y2="919.961" gradientTransform="translate(-0.1797,-875.4102)" gradientUnits="userSpaceOnUse"><stop style="stop-color:#08406f" id="stop93" offset="0"/><stop style="stop-color:#60c5f5" id="stop95" offset="1"/></linearGradient><linearGradient id="SVGID_15_" x1="255.988" x2="249.995" y1="925.216" y2="925.216" gradientTransform="translate(-0.1797,-875.4102)" gradientUnits="userSpaceOnUse"><stop style="stop-color:#08406f" id="stop100" offset="0"/><stop style="stop-color:#60c5f5" id="stop102" offset="1"/></linearGradient><linearGradient id="SVGID_16_" x1="349.277" x2="343.576" y1="904.625" y2="904.625" gradientTransform="translate(-0.1797,-875.4102)" gradientUnits="userSpaceOnUse"><stop style="stop-color:#08406f" id="stop107" offset="0"/><stop style="stop-color:#60c5f5" id="stop109" offset="1"/></linearGradient><linearGradient id="SVGID_17_" x1="400.96" x2="395.164" y1="918.446" y2="918.446" gradientTransform="translate(-0.1797,-875.4102)" gradientUnits="userSpaceOnUse"><stop style="stop-color:#08406f" id="stop114" offset="0"/><stop style="stop-color:#60c5f5" id="stop116" offset="1"/></linearGradient><linearGradient id="SVGID_18_" x1="101.765" x2="96.654" y1="968.938" y2="968.938" gradientTransform="translate(-0.1797,-875.4102)" gradientUnits="userSpaceOnUse"><stop style="stop-color:#08406f" id="stop121" offset="0"/><stop style="stop-color:#60c5f5" id="stop123" offset="1"/></linearGradient><linearGradient id="SVGID_19_" x1="121.249" x2="117.696" y1="973.838" y2="970.286" gradientTransform="translate(-0.1797,-875.4102)" gradientUnits="userSpaceOnUse"><stop style="stop-color:#08406f" id="stop128" offset="0"/><stop style="stop-color:#60c5f5" id="stop130" offset="1"/></linearGradient><linearGradient id="SVGID_20_" x1="553.436" x2="549.767" y1="892.5" y2="888.831" gradientTransform="translate(-0.1797,-875.4102)" gradientUnits="userSpaceOnUse"><stop style="stop-color:#08406f" id="stop135" offset="0"/><stop style="stop-color:#60c5f5" id="stop137" offset="1"/></linearGradient><linearGradient id="SVGID_21_" x1="145.994" x2="140.596" y1="969.879" y2="969.879" gradientTransform="translate(-0.1797,-875.4102)" gradientUnits="userSpaceOnUse"><stop style="stop-color:#08406f" id="stop142" offset="0"/><stop style="stop-color:#60c5f5" id="stop144" offset="1"/></linearGradient><linearGradient id="SVGID_22_" x1="148.777" x2="144.289" y1="907.01" y2="902.522" gradientTransform="translate(-0.1797,-875.4102)" gradientUnits="userSpaceOnUse"><stop style="stop-color:#08406f" id="stop149" offset="0"/><stop style="stop-color:#60c5f5" id="stop151" offset="1"/></linearGradient><linearGradient id="SVGID_23_" x1="215.846" x2="211.688" y1="922.321" y2="918.164" gradientTransform="translate(-0.1797,-875.4102)" gradientUnits="userSpaceOnUse"><stop style="stop-color:#08406f" id="stop156" offset="0"/><stop style="stop-color:#60c5f5" id="stop158" offset="1"/></linearGradient><linearGradient id="SVGID_24_" x1="304.316" x2="299.932" y1="927.81" y2="923.426" gradientTransform="translate(-0.1797,-875.4102)" gradientUnits="userSpaceOnUse"><stop style="stop-color:#08406f" id="stop163" offset="0"/><stop style="stop-color:#60c5f5" id="stop165" offset="1"/></linearGradient><linearGradient id="SVGID_25_" x1="376.971" x2="372.763" y1="906.861" y2="902.653" gradientTransform="translate(-0.1797,-875.4102)" gradientUnits="userSpaceOnUse"><stop style="stop-color:#08406f" id="stop170" offset="0"/><stop style="stop-color:#60c5f5" id="stop172" offset="1"/></linearGradient><linearGradient id="SVGID_26_" x1="488.738" x2="485.282" y1="935.265" y2="931.809" gradientTransform="translate(-0.1797,-875.4102)" gradientUnits="userSpaceOnUse"><stop style="stop-color:#08406f" id="stop177" offset="0"/><stop style="stop-color:#60c5f5" id="stop179" offset="1"/></linearGradient><linearGradient id="SVGID_27_" x1="499.808" x2="495.849" y1="979.377" y2="975.417" gradientTransform="translate(-0.1797,-875.4102)" gradientUnits="userSpaceOnUse"><stop style="stop-color:#08406f" id="stop184" offset="0"/><stop style="stop-color:#60c5f5" id="stop186" offset="1"/></linearGradient><linearGradient id="SVGID_28_" x1="441.837" x2="437.555" y1="921.613" y2="917.331" gradientTransform="translate(-0.1797,-875.4102)" gradientUnits="userSpaceOnUse"><stop style="stop-color:#08406f" id="stop191" offset="0"/><stop style="stop-color:#60c5f5" id="stop193" offset="1"/></linearGradient><linearGradient id="SVGID_29_" x1="486.859" x2="481.745" y1="916.649" y2="911.535" gradientTransform="translate(-0.1797,-875.4102)" gradientUnits="userSpaceOnUse"><stop style="stop-color:#08406f" id="stop198" offset="0"/><stop style="stop-color:#60c5f5" id="stop200" offset="1"/></linearGradient><linearGradient id="SVGID_30_" x1="185.977" x2="182.335" y1="992.33" y2="988.688" gradientTransform="translate(-0.1797,-875.4102)" gradientUnits="userSpaceOnUse"><stop style="stop-color:#08406f" id="stop205" offset="0"/><stop style="stop-color:#60c5f5" id="stop207" offset="1"/></linearGradient><linearGradient id="SVGID_31_" x1="303.028" x2="299.387" y1="969.14" y2="965.499" gradientTransform="translate(-0.1797,-875.4102)" gradientUnits="userSpaceOnUse"><stop style="stop-color:#08406f" id="stop212" offset="0"/><stop style="stop-color:#60c5f5" id="stop214" offset="1"/></linearGradient><linearGradient id="SVGID_32_" x1="349.889" x2="346.38" y1="973.085" y2="969.576" gradientTransform="translate(-0.1797,-875.4102)" gradientUnits="userSpaceOnUse"><stop style="stop-color:#08406f" id="stop219" offset="0"/><stop style="stop-color:#60c5f5" id="stop221" offset="1"/></linearGradient><linearGradient id="SVGID_33_" x1="370.804" x2="366.381" y1="993.64" y2="989.217" gradientTransform="translate(-0.1797,-875.4102)" gradientUnits="userSpaceOnUse"><stop style="stop-color:#08406f" id="stop226" offset="0"/><stop style="stop-color:#60c5f5" id="stop228" offset="1"/></linearGradient><linearGradient id="SVGID_34_" x1="229.457" x2="223.419" y1="971.769" y2="971.769" gradientTransform="translate(-0.1797,-875.4102)" gradientUnits="userSpaceOnUse"><stop style="stop-color:#08406f" id="stop233" offset="0"/><stop style="stop-color:#60c5f5" id="stop235" offset="1"/></linearGradient><linearGradient id="SVGID_35_" x1="330.304" x2="325.092" y1="968.519" y2="968.519" gradientTransform="translate(-0.1797,-875.4102)" gradientUnits="userSpaceOnUse"><stop style="stop-color:#08406f" id="stop240" offset="0"/><stop style="stop-color:#60c5f5" id="stop242" offset="1"/></linearGradient><linearGradient id="SVGID_36_" x1="374.97" x2="368.725" y1="967.807" y2="967.807" gradientTransform="translate(-0.1797,-875.4102)" gradientUnits="userSpaceOnUse"><stop style="stop-color:#08406f" id="stop247" offset="0"/><stop style="stop-color:#60c5f5" id="stop249" offset="1"/></linearGradient><linearGradient id="SVGID_37_" x1="440.637" x2="436.219" y1="959.675" y2="955.257" gradientTransform="translate(-0.1797,-875.4102)" gradientUnits="userSpaceOnUse"><stop style="stop-color:#08406f" id="stop254" offset="0"/><stop style="stop-color:#60c5f5" id="stop256" offset="1"/></linearGradient><linearGradient id="SVGID_38_" x1="472.92" x2="472.92" y1="969.51" y2="963.708" gradientTransform="translate(-0.1797,-875.4102)" gradientUnits="userSpaceOnUse"><stop style="stop-color:#08406f" id="stop261" offset="0"/><stop style="stop-color:#60c5f5" id="stop263" offset="1"/></linearGradient><g id="layer1" transform="translate(1.2651637,30.169886)" style="display:inline"><path id="path4837" d="M 127.342,51.15 116.278,51.717 116.697,8.939 11.591,114.895 46.209,114.328 91.598,70.276 h 8.705 l -0.42,44.264 36.152,-36.997 h 8.644 v 37.687 l 23.576,0.43048 L 167.12,11.089 Z" style="display:inline;opacity:.4"/></g><g id="layer2"><path style="display:inline" id="polygon4819" d="M 7.2646594,114.328 H 28.768427 l 4.197272,4.313 H 3.6235007 Z" transform="translate(139.17079,30.169886)"/><path style="display:inline" id="path14" d="M 114.692,13.213 13.577,114.328 2.106,118.641 c 0,0 -0.604,0.039 -0.271,-0.445 0,0 117.26,-117.292 117.472,-117.471 0.212,-0.181 0.467,-0.028 0.467,-0.028 z" transform="translate(1.2651637,30.169886)"/><polygon style="display:inline" id="polygon28" points="13.603 114.328 46.209 114.328 48.982 118.641 2.106 118.641" transform="translate(1.2651637,30.169886)"/><path style="display:inline" id="path84" d="M 96.872,70.634 48.982,118.643 46.209,114.33 92.81,67.965 c 2,-2.313 4.675,-1.731 4.675,-1.731 z" transform="translate(1.2651637,30.169886)"/><path style="display:inline" id="path91" d="M 114.71,51.669 V 13.193 l 5.063,-12.499 c 0,0 0.303,0.075 0.303,0.571 0,0.493 0,53.647 0,53.647 l -0.315,2.311 c 0,10e-4 -4.496,0.025 -5.051,-5.554 z" transform="translate(1.2651637,30.169886)"/><path id="path98" d="M 166.281,114.27252 C 166.201,106.95952 166.268,13.927 166.268,13.927 l 5.214,-13.896 c 0,0 0.182,-0.027 0.182,0.725 l -0.017,117.17588 c 0.0304,0.34268 -0.42879,0.71768 -0.77567,0.70912 z" transform="translate(1.2651637,30.169886)" style="display:inline"/><path style="display:inline" id="path126" d="m 97.759,120.82 c 0,0 -0.833,-0.069 -0.809,-1.149 -0.001,-0.917 -0.078,-49.036 -0.078,-49.036 0,0 -1.218,-1.577 0.613,-4.4 0.547,0.131 3.495,0.727 4.101,4.256 v 40.37 z" transform="translate(1.2651637,30.169886)"/><path style="display:inline" id="path133" d="m 140.843,78.598 c 0,0 -41.489,41.548 -41.883,41.938 -0.346,0.379 -1.202,0.282 -1.202,0.282 l 3.827,-9.963 36.059,-36.088 c 0,0 1.34,-1.727 3.831,-1.637 z" transform="translate(1.2651637,30.169886)"/><path id="path147" d="m 140.924,117.81057 c 0.0251,-0.60892 -0.079,-39.21957 -0.079,-39.21957 0,0 -1.301,-2.633 0.631,-5.456 0.593,-0.007 3.7,0.421 4.339,4.146 l -0.001,37.08687 -4.28487,4.27313 c -0.33823,0 -0.63026,-0.22151 -0.60513,-0.83043 z" transform="translate(1.2651637,30.169886)" style="display:inline"/><path style="display:inline" id="path154" d="m 166.269,13.926 -41.462,41.463 c -1.987,1.986 -5.045,1.836 -5.045,1.836 -1.795,-3.531 0.315,-6.065 0.315,-6.065 0,0 50.503,-50.49 50.867,-50.87 0.331,-0.417 0.541,-0.264 0.541,-0.264 z" transform="translate(1.2651637,30.169886)"/></g></svg>