<?xml version="1.0" encoding="UTF-8" standalone="no"?>
<!-- Created with Inkscape (http://www.inkscape.org/) -->

<svg
   xmlns:dc="http://purl.org/dc/elements/1.1/"
   xmlns:cc="http://creativecommons.org/ns#"
   xmlns:rdf="http://www.w3.org/1999/02/22-rdf-syntax-ns#"
   xmlns:svg="http://www.w3.org/2000/svg"
   xmlns="http://www.w3.org/2000/svg"
   xmlns:sodipodi="http://sodipodi.sourceforge.net/DTD/sodipodi-0.dtd"
   xmlns:inkscape="http://www.inkscape.org/namespaces/inkscape"
   width="256"
   height="256"
   viewBox="0 0 67.733332 67.733335"
   version="1.1"
   id="svg8"
   inkscape:version="0.92.3 (2405546, 2018-03-11)"
   sodipodi:docname="dos-symbolic.svg">
  <defs
     id="defs2" />
  <sodipodi:namedview
     id="base"
     pagecolor="#ffffff"
     bordercolor="#666666"
     borderopacity="1.0"
     inkscape:pageopacity="0.0"
     inkscape:pageshadow="2"
     inkscape:zoom="0.98994949"
     inkscape:cx="225.14939"
     inkscape:cy="-36.912175"
     inkscape:document-units="mm"
     inkscape:current-layer="layer1"
     showgrid="false"
     units="px"
     inkscape:window-width="1201"
     inkscape:window-height="850"
     inkscape:window-x="489"
     inkscape:window-y="177"
     inkscape:window-maximized="0" />
  <metadata
     id="metadata5">
    <rdf:RDF>
      <cc:Work
         rdf:about="">
        <dc:format>image/svg+xml</dc:format>
        <dc:type
           rdf:resource="http://purl.org/dc/dcmitype/StillImage" />
        <dc:title></dc:title>
      </cc:Work>
    </rdf:RDF>
  </metadata>
  <g
     inkscape:label="Layer 1"
     inkscape:groupmode="layer"
     id="layer1"
     transform="translate(0,-229.26665)">
    <path
       style="fill:#000000;stroke-width:0.14968298"
       d="m 33.301106,291.99577 c -1.987068,-0.28114 -4.715012,-1.00621 -4.715012,-1.25322 0,-0.0737 0.589379,-0.67556 1.309725,-1.33734 0.72035,-0.66178 1.579158,-1.60976 1.908459,-2.10662 l 0.59873,-0.90337 1.038603,0.0377 1.038602,0.0377 0.513503,0.87984 c 0.612896,1.05013 2.183852,2.67769 3.311359,3.43068 0.893539,0.59673 0.906489,0.57637 -0.58832,0.92523 -0.994996,0.2322 -3.609019,0.40354 -4.415649,0.2894 z m 10.552654,-0.36818 c -4.07018,-0.50377 -7.12601,-2.3487 -8.417761,-5.08213 -0.666747,-1.4109 -0.924631,-2.50721 -0.794263,-3.37658 l 0.100733,-0.67168 2.640617,0.0409 2.640618,0.0409 0.116619,0.56192 c 0.185283,0.89273 0.810937,1.98747 1.42562,2.49448 0.92497,0.76293 1.996973,1.0907 3.84365,1.17519 3.507272,0.16047 5.532765,-0.76284 5.836194,-2.66042 0.170528,-1.06639 -0.640391,-2.35197 -1.823662,-2.89111 -0.349401,-0.15919 -0.351489,-0.175 -0.260021,-1.96489 0.09716,-1.90116 0.22524,-3.42127 0.294078,-3.4901 0.09772,-0.0978 3.182859,1.06808 3.904884,1.47556 2.494852,1.40801 3.664235,3.65361 3.464531,6.65302 -0.243925,3.66365 -2.713121,6.26717 -6.967315,7.34634 -1.639829,0.41597 -4.240755,0.56703 -6.004517,0.34874 z m -29.075921,-0.48649 -3.854336,-0.14281 v -13.36077 -13.36077 l 4.118907,-0.11028 c 5.369296,-0.14379 8.229348,-0.0509 9.539661,0.30978 0.555701,0.15298 1.010362,0.34006 1.010362,0.41574 0,0.0757 -0.445185,0.60952 -0.9893,1.18632 -0.54412,0.57679 -1.352805,1.61218 -1.797079,2.30087 l -0.807779,1.25215 h -2.843092 -2.843092 v 8.07405 c 0,5.35997 0.05165,8.10596 0.153641,8.169 0.0845,0.0523 1.664324,0.13389 3.510717,0.18147 2.93353,0.0756 3.440935,0.0544 4.021815,-0.16737 1.253078,-0.47856 2.817596,-2.56 3.234268,-4.3029 0.08589,-0.35925 0.287511,-2.11037 0.448054,-3.89136 0.195997,-2.17432 0.387548,-3.51032 0.583047,-4.06656 0.322054,-0.91629 0.964046,-1.91621 1.617238,-2.51886 0.506788,-0.46758 1.625747,-1.1781 1.855333,-1.1781 0.263495,0 1.189319,2.17184 1.576545,3.69833 0.895801,3.53135 0.512043,7.82476 -0.973182,10.88767 -1.776797,3.66422 -4.872987,5.91747 -9.06722,6.59867 -1.466935,0.23825 -2.662093,0.24188 -8.494508,0.0257 z m 29.263128,-5.27597 c -1.603583,-0.43181 -2.582139,-1.18495 -2.582139,-1.98735 0,-0.21012 0.265283,-1.26192 0.589521,-2.33731 0.324231,-1.0754 0.634082,-2.29433 0.688562,-2.70873 0.143701,-1.09319 -0.169889,-3.32032 -0.700952,-4.97821 -0.253821,-0.79237 -0.495802,-1.81904 -0.537733,-2.28149 -0.07486,-0.82562 -0.06607,-0.84919 0.486828,-1.30493 0.741458,-0.61119 2.094948,-0.96824 3.440374,-0.90759 l 1.047785,0.0472 0.557856,1.12262 c 0.971547,1.95512 1.613658,4.74741 1.611661,7.00852 -0.0011,1.41044 -0.360507,3.62465 -0.83016,5.11643 -0.472232,1.49998 -1.199435,3.15836 -1.456588,3.32177 -0.281706,0.179 -1.445312,0.12322 -2.315015,-0.11097 z m -22.010632,-2.05139 c -0.804633,-2.44011 -0.980859,-3.55073 -0.979704,-6.17442 0.0011,-2.04476 0.05741,-2.63567 0.386519,-4.04144 0.71996,-3.07533 1.772192,-5.05228 3.704599,-6.96025 2.380613,-2.35053 4.951673,-3.334 8.758092,-3.35012 1.767271,-0.008 2.655791,0.10063 4.304688,0.52371 l 0.562613,0.14435 -0.969815,0.82276 c -0.940856,0.79818 -1.924454,1.96273 -2.597577,3.07544 l -0.328225,0.54257 -1.262464,0.0663 c -1.078085,0.0566 -1.426247,0.14721 -2.383882,0.6205 -1.712264,0.84624 -2.990256,2.271 -3.690784,4.11464 -0.164707,0.43346 -0.464115,2.29836 -0.750861,4.67683 -0.370915,3.07658 -0.553969,4.12948 -0.823541,4.73693 -0.458739,1.03369 -1.596198,2.24039 -2.294757,2.43443 -1.104946,0.30692 -1.134795,0.28441 -1.634901,-1.2322 z m 18.324899,-5.14805 c -3.618687,-1.33408 -5.183091,-3.37851 -5.183091,-6.77349 0,-4.37059 2.639735,-7.30134 7.388322,-8.20285 1.480818,-0.28113 4.747004,-0.18917 6.232834,0.17551 1.653224,0.40576 3.544203,1.42348 4.5902,2.47046 1.384791,1.38608 2.320425,3.39881 2.471515,5.31668 l 0.04718,0.59874 h -2.67725 -2.677242 l -0.17682,-0.59886 c -0.68011,-2.30341 -3.186184,-3.62679 -6.088504,-3.21516 -1.952999,0.27698 -3.378331,1.18715 -3.737751,2.38679 -0.159067,0.53091 -0.116863,0.74109 0.520236,2.59098 0.624471,1.81321 0.693342,2.14721 0.693342,3.36225 0,1.37596 -0.112818,2.29106 -0.280654,2.27639 -0.05143,-0.005 -0.556492,-0.17884 -1.122308,-0.38744 z m 4.433578,-16.22666 c -4.722254,-0.58396 -8.159732,-3.26887 -8.948083,-6.98912 -0.117888,-0.5563 -0.21551,-1.19668 -0.216935,-1.42308 l -0.0029,-0.41162 h 2.680937 2.680943 l 0.319722,0.66044 c 0.772081,1.59492 2.359104,2.74626 4.266076,3.09494 3.856628,0.70515 6.99205,-2.49942 4.647215,-4.74972 -0.790389,-0.75852 -1.655318,-1.09609 -4.790662,-1.86973 -4.418331,-1.09022 -6.175209,-1.8162 -7.64418,-3.15876 -1.434411,-1.31098 -2.011428,-2.75982 -2.008595,-5.04346 0.0029,-2.43447 0.612914,-3.95521 2.227069,-5.55317 1.103181,-1.0921 2.451403,-1.86561 4.207523,-2.41396 0.97067,-0.30308 1.426536,-0.35007 3.36787,-0.34706 2.556012,0.003 3.479579,0.19311 5.313742,1.08825 1.461724,0.71338 3.001802,2.22729 3.77919,3.71498 0.535917,1.02558 1.232089,3.41322 1.071132,3.67364 -0.043,0.0695 -1.270779,0.12643 -2.728457,0.12643 h -2.650326 l -0.271607,-0.76473 c -0.766244,-2.15741 -3.459129,-3.51037 -5.795564,-2.9118 -2.11859,0.54276 -3.161899,1.84348 -2.704143,3.37133 0.435324,1.45297 1.427045,1.95551 6.186664,3.13501 2.676146,0.66318 3.86753,1.03443 4.857762,1.51373 2.956608,1.43108 4.277001,3.76471 4.048315,7.15488 -0.173894,2.57784 -1.205623,4.49296 -3.248353,6.02966 -2.191258,1.64843 -5.554862,2.455 -8.644659,2.07292 z M 10.923503,248.60082 c 0,-7.5328 -0.01686,-13.7465 -0.03745,-13.80825 -0.0206,-0.0618 1.722435,-0.13021 3.873373,-0.15214 l 3.910792,-0.0399 0.166964,0.66308 c 0.612533,2.4326 3.912708,14.96021 3.951115,14.99861 0.02608,0.0261 0.706984,-3.36817 1.51315,-7.54275 0.806167,-4.17459 1.498321,-7.70802 1.538126,-7.8521 0.06683,-0.24189 0.409516,-0.26193 4.477931,-0.26193 h 4.405563 v 13.84567 13.84567 h -2.602012 -2.602017 l -0.08824,-0.93552 c -0.04855,-0.51453 -0.132918,-3.84871 -0.187522,-7.40929 -0.0546,-3.5606 -0.140618,-6.47354 -0.191144,-6.47323 -0.05052,3e-4 -0.760366,3.2503 -1.577417,7.2222 -0.817056,3.97191 -1.514676,7.30583 -1.550266,7.40874 -0.04871,0.14076 -0.762583,0.1871 -2.882587,0.1871 -2.553766,0 -2.825289,-0.0246 -2.896973,-0.26193 -0.0435,-0.14408 -0.895772,-3.39407 -1.893925,-7.22222 -0.998153,-3.82814 -1.842739,-6.98832 -1.876864,-7.02262 -0.03412,-0.0343 -0.06204,3.21569 -0.06204,7.22221 v 7.28456 h -2.694298 -2.694289 z"
       id="path3969"
       inkscape:connector-curvature="0" />
  </g>
</svg>
