<?xml version="1.0" encoding="iso-8859-1"?>
<!-- Generator: Adobe Illustrator 19.0.0, SVG Export Plug-In . SVG Version: 6.00 Build 0)  -->
<svg version="1.1" id="Layer_1" xmlns="http://www.w3.org/2000/svg" xmlns:xlink="http://www.w3.org/1999/xlink" x="0px" y="0px"
	 viewBox="0 0 512 512" style="enable-background:new 0 0 512 512;" xml:space="preserve">
<g>
	<g>
		<path d="M503.983,307.841h-86.046v-9.62h34.739c4.427,0,8.017-3.589,8.017-8.017V8.017c0-4.427-3.589-8.017-8.017-8.017H59.324
			c-4.427,0-8.017,3.589-8.017,8.017v59.858c0,4.427,3.589,8.017,8.017,8.017s8.017-3.589,8.017-8.017V16.033H444.66v266.155H67.34
			V110.63c0-4.427-3.589-8.017-8.017-8.017s-8.017,3.589-8.017,8.017v179.574c0,4.427,3.589,8.017,8.017,8.017h34.739v9.62H8.017
			c-4.427,0-8.017,3.589-8.017,8.017v188.125C0,508.411,3.589,512,8.017,512h495.967c4.427,0,8.017-3.589,8.017-8.017V315.858
			C512,311.431,508.411,307.841,503.983,307.841z M383.733,298.221h18.171v9.62h-18.171V298.221z M110.096,298.221h18.171v9.62
			h-18.171V298.221z M495.967,495.967H16.033V323.875h274.171c4.427,0,8.017-3.589,8.017-8.017s-3.589-8.017-8.017-8.017H144.301
			v-9.62h223.399v9.62H332.96c-4.427,0-8.017,3.589-8.017,8.017s3.589,8.017,8.017,8.017h163.006V495.967z"/>
	</g>
</g>
<g>
	<g>
		<path d="M461.228,350.597H187.591c-4.427,0-8.017,3.589-8.017,8.017v102.614c0,4.427,3.589,8.017,8.017,8.017h273.637
			c4.427,0,8.017-3.589,8.017-8.017V358.614C469.244,354.186,465.655,350.597,461.228,350.597z M453.211,453.211H195.608v-86.58
			h257.603V453.211z"/>
	</g>
</g>
<g>
	<g>
		<path d="M153.386,350.597c-4.427,0-8.017,3.589-8.017,8.017v102.614c0,4.427,3.589,8.017,8.017,8.017s8.017-3.589,8.017-8.017
			V358.614C161.403,354.186,157.814,350.597,153.386,350.597z"/>
	</g>
</g>
<g>
	<g>
		<path d="M119.182,350.597c-4.427,0-8.017,3.589-8.017,8.017v102.614c0,4.427,3.589,8.017,8.017,8.017s8.017-3.589,8.017-8.017
			V358.614C127.198,354.186,123.609,350.597,119.182,350.597z"/>
	</g>
</g>
<g>
	<g>
		<path d="M84.977,350.597c-4.427,0-8.017,3.589-8.017,8.017v102.614c0,4.427,3.589,8.017,8.017,8.017s8.017-3.589,8.017-8.017
			V358.614C92.994,354.186,89.404,350.597,84.977,350.597z"/>
	</g>
</g>
<g>
	<g>
		<path d="M50.772,350.597c-4.427,0-8.017,3.589-8.017,8.017v102.614c0,4.427,3.589,8.017,8.017,8.017s8.017-3.589,8.017-8.017
			V358.614C58.789,354.186,55.2,350.597,50.772,350.597z"/>
	</g>
</g>
<g>
	<g>
		<path d="M350.063,393.353H213.244c-4.427,0-8.017,3.589-8.017,8.017c0,4.427,3.589,8.017,8.017,8.017h34.739v26.188
			c0,4.427,3.589,8.017,8.017,8.017h51.307c4.427,0,8.017-3.589,8.017-8.017v-26.188h34.739c4.427,0,8.017-3.589,8.017-8.017
			C358.079,396.942,354.49,393.353,350.063,393.353z M299.29,427.557h-35.273v-18.171h35.273V427.557z"/>
	</g>
</g>
<g>
	<g>
		<path d="M435.574,393.353h-51.307c-4.427,0-8.017,3.589-8.017,8.017c0,4.427,3.589,8.017,8.017,8.017h51.307
			c4.427,0,8.017-3.589,8.017-8.017C443.591,396.942,440.001,393.353,435.574,393.353z"/>
	</g>
</g>
<g>
	<g>
		<path d="M409.921,34.205H102.079c-4.427,0-8.017,3.589-8.017,8.017V256c0,4.427,3.589,8.017,8.017,8.017h307.841
			c4.427,0,8.017-3.589,8.017-8.017V42.221C417.937,37.794,414.348,34.205,409.921,34.205z M350.597,247.983H110.096V50.238h240.501
			V247.983z M401.904,247.983H366.63V50.238h35.273V247.983z"/>
	</g>
</g>
<g>
	<g>
		<path d="M385.336,196.676h-1.069c-4.427,0-8.017,3.589-8.017,8.017s3.589,8.017,8.017,8.017h1.069
			c4.427,0,8.017-3.589,8.017-8.017S389.763,196.676,385.336,196.676z"/>
	</g>
</g>
<g>
	<g>
		<path d="M385.336,222.33h-1.069c-4.427,0-8.017,3.589-8.017,8.017s3.589,8.017,8.017,8.017h1.069c4.427,0,8.017-3.589,8.017-8.017
			S389.763,222.33,385.336,222.33z"/>
	</g>
</g>
<g>
	<g>
		<path d="M384.267,59.858c-4.427,0-8.017,3.589-8.017,8.017v17.102c0,4.427,3.589,8.017,8.017,8.017
			c4.427,0,8.017-3.589,8.017-8.017V67.875C392.284,63.447,388.695,59.858,384.267,59.858z"/>
	</g>
</g>
<g>
	<g>
		<path d="M384.267,102.614c-4.427,0-8.017,3.589-8.017,8.017v17.102c0,4.427,3.589,8.017,8.017,8.017
			c4.427,0,8.017-3.589,8.017-8.017V110.63C392.284,106.203,388.695,102.614,384.267,102.614z"/>
	</g>
</g>
<g>
	<g>
		<path d="M384.267,145.37c-4.427,0-8.017,3.589-8.017,8.017v17.102c0,4.427,3.589,8.017,8.017,8.017
			c4.427,0,8.017-3.589,8.017-8.017v-17.102C392.284,148.959,388.695,145.37,384.267,145.37z"/>
	</g>
</g>
<g>
	<g>
		<path d="M295.873,147.718c-3.088-3.088-8.249-3.089-11.337,0l-68.409,68.409c-2.919,2.918-3.113,7.74-0.427,10.877
			c2.998,3.501,8.502,3.721,11.763,0.46l68.409-68.409C298.962,155.967,298.962,150.806,295.873,147.718z"/>
	</g>
</g>
<g>
	<g>
		<path d="M295.873,79.309c-3.088-3.088-8.249-3.089-11.337,0L147.718,216.127c-2.919,2.918-3.113,7.74-0.427,10.877
			c2.998,3.501,8.502,3.721,11.763,0.46L295.873,90.645C298.962,87.557,298.962,82.397,295.873,79.309z"/>
	</g>
</g>
<g>
</g>
<g>
</g>
<g>
</g>
<g>
</g>
<g>
</g>
<g>
</g>
<g>
</g>
<g>
</g>
<g>
</g>
<g>
</g>
<g>
</g>
<g>
</g>
<g>
</g>
<g>
</g>
<g>
</g>
</svg>
