<?xml version="1.0" encoding="iso-8859-1"?>
<!-- Generator: Adobe Illustrator 19.0.0, SVG Export Plug-In . SVG Version: 6.00 Build 0)  -->
<svg version="1.1" id="Layer_1" xmlns="http://www.w3.org/2000/svg" xmlns:xlink="http://www.w3.org/1999/xlink" x="0px" y="0px"
	 viewBox="0 0 512.242 512.242" style="enable-background:new 0 0 512.242 512.242;" xml:space="preserve">
<g>
	<g>
		<path d="M486.4,55.587H25.6c-14.138,0-25.6,11.461-25.6,25.6v145.067c0,14.138,11.461,25.6,25.6,25.6h460.8
			c14.138,0,25.6-11.462,25.6-25.6V81.187C512,67.049,500.539,55.587,486.4,55.587z M494.933,226.254
			c0,4.713-3.82,8.533-8.533,8.533H25.6c-4.713,0-8.533-3.82-8.533-8.533V81.187c0-4.713,3.82-8.533,8.533-8.533h460.8
			c4.713,0,8.533,3.82,8.533,8.533V226.254z"/>
	</g>
</g>
<g>
	<g>
		<path d="M179.2,89.721h-128c-9.426,0-17.067,7.641-17.067,17.067v93.867c0,9.426,7.641,17.067,17.067,17.067h128
			c9.426,0,17.067-7.641,17.067-17.067v-93.867C196.267,97.362,188.626,89.721,179.2,89.721z M179.2,200.654h-128v-93.867h128
			V200.654z"/>
	</g>
</g>
<g>
	<g>
		<path d="M469.333,89.721H221.867c-4.713,0-8.533,3.821-8.533,8.533v42.667c0,4.713,3.82,8.533,8.533,8.533h247.467
			c4.713,0,8.533-3.82,8.533-8.533V98.254C477.867,93.541,474.046,89.721,469.333,89.721z M460.8,132.387H230.4v-25.6h230.4V132.387
			z"/>
	</g>
</g>
<g>
	<g>
		<path d="M469.333,166.521H221.867c-4.713,0-8.533,3.82-8.533,8.533s3.82,8.533,8.533,8.533h247.467
			c4.713,0,8.533-3.82,8.533-8.533S474.046,166.521,469.333,166.521z"/>
	</g>
</g>
<g>
	<g>
		<path d="M375.467,166.521h-59.733c-4.713,0-8.533,3.82-8.533,8.533v25.6c0,9.426,7.641,17.067,17.067,17.067h42.667
			c9.426,0,17.067-7.641,17.067-17.067v-25.6C384,170.341,380.18,166.521,375.467,166.521z M366.933,200.654h-42.667v-17.067h42.667
			V200.654z"/>
	</g>
</g>
<g>
	<g>
		<path d="M93.867,123.854H76.8c-4.713,0-8.533,3.82-8.533,8.533c0,4.713,3.82,8.533,8.533,8.533h17.067
			c4.713,0,8.533-3.82,8.533-8.533C102.4,127.674,98.58,123.854,93.867,123.854z"/>
	</g>
</g>
<g>
	<g>
		<path d="M153.6,123.854H128c-4.713,0-8.533,3.82-8.533,8.533c0,4.713,3.82,8.533,8.533,8.533h25.6c4.713,0,8.533-3.82,8.533-8.533
			C162.133,127.674,158.313,123.854,153.6,123.854z"/>
	</g>
</g>
<g>
	<g>
		<path d="M93.867,157.987H76.8c-4.713,0-8.533,3.82-8.533,8.533s3.82,8.533,8.533,8.533h17.067c4.713,0,8.533-3.82,8.533-8.533
			S98.58,157.987,93.867,157.987z"/>
	</g>
</g>
<g>
	<g>
		<path d="M511.488,288.206l-12.032-47.019c-0.996-3.867-4.542-6.526-8.533-6.4H21.333c-3.992-0.126-7.537,2.533-8.533,6.4
			L0.768,288.291c-1.887,7.603-0.19,15.652,4.608,21.845c4.833,6.278,12.301,9.965,20.224,9.984h460.8
			c8.028,0.04,15.61-3.687,20.48-10.069C511.678,303.858,513.375,295.809,511.488,288.206z M493.483,299.641
			c-1.665,2.222-4.307,3.496-7.083,3.413H25.6c-2.746,0.055-5.35-1.216-6.997-3.413c-1.565-2.036-2.129-4.669-1.536-7.168
			l10.581-40.619h456.704l10.667,40.619C495.611,294.971,495.047,297.604,493.483,299.641z"/>
	</g>
</g>
<g>
	<g>
		<path d="M509.099,419.449l-35.669-68.267c-4.592-8.684-13.644-14.082-23.467-13.995H62.037
			c-9.823-0.087-18.874,5.311-23.467,13.995L2.901,419.449c-4.102,7.753-3.81,17.095,0.768,24.576
			c4.812,7.916,13.436,12.714,22.699,12.629h459.264c9.263,0.085,17.887-4.714,22.699-12.629
			C512.909,436.543,513.201,427.201,509.099,419.449z M494.165,435.235c-1.8,2.949-5.086,4.658-8.533,4.437H26.368
			c-3.448,0.22-6.734-1.488-8.533-4.437c-1.42-2.424-1.42-5.427,0-7.851l35.669-68.267c1.716-3.085,5.005-4.959,8.533-4.864h387.925
			c3.529-0.095,6.817,1.779,8.533,4.864l35.669,68.267C495.586,429.809,495.586,432.811,494.165,435.235z"/>
	</g>
</g>
<g>
	<g>
		<path d="M409.6,405.454H102.4c-4.713,0-8.533,3.82-8.533,8.533s3.82,8.533,8.533,8.533h307.2c4.713,0,8.533-3.82,8.533-8.533
			S414.313,405.454,409.6,405.454z"/>
	</g>
</g>
<g>
	<g>
		<path d="M68.267,405.454H51.2c-4.713,0-8.533,3.82-8.533,8.533s3.82,8.533,8.533,8.533h17.067c4.713,0,8.533-3.82,8.533-8.533
			S72.979,405.454,68.267,405.454z"/>
	</g>
</g>
<g>
	<g>
		<path d="M85.333,371.321H68.267c-4.713,0-8.533,3.82-8.533,8.533s3.82,8.533,8.533,8.533h17.067c4.713,0,8.533-3.82,8.533-8.533
			S90.046,371.321,85.333,371.321z"/>
	</g>
</g>
<g>
	<g>
		<path d="M136.533,371.321h-17.067c-4.713,0-8.533,3.82-8.533,8.533s3.82,8.533,8.533,8.533h17.067c4.713,0,8.533-3.82,8.533-8.533
			S141.246,371.321,136.533,371.321z"/>
	</g>
</g>
<g>
	<g>
		<path d="M187.733,371.321h-17.067c-4.713,0-8.533,3.82-8.533,8.533s3.82,8.533,8.533,8.533h17.067c4.713,0,8.533-3.82,8.533-8.533
			S192.446,371.321,187.733,371.321z"/>
	</g>
</g>
<g>
	<g>
		<path d="M238.933,371.321h-17.067c-4.713,0-8.533,3.82-8.533,8.533s3.82,8.533,8.533,8.533h17.067c4.713,0,8.533-3.82,8.533-8.533
			S243.646,371.321,238.933,371.321z"/>
	</g>
</g>
<g>
	<g>
		<path d="M290.133,371.321h-17.067c-4.713,0-8.533,3.82-8.533,8.533s3.821,8.533,8.533,8.533h17.067
			c4.713,0,8.533-3.82,8.533-8.533S294.846,371.321,290.133,371.321z"/>
	</g>
</g>
<g>
	<g>
		<path d="M341.333,371.321h-17.067c-4.713,0-8.533,3.82-8.533,8.533s3.82,8.533,8.533,8.533h17.067c4.713,0,8.533-3.82,8.533-8.533
			S346.046,371.321,341.333,371.321z"/>
	</g>
</g>
<g>
	<g>
		<path d="M392.533,371.321h-17.067c-4.713,0-8.533,3.82-8.533,8.533s3.82,8.533,8.533,8.533h17.067c4.713,0,8.533-3.82,8.533-8.533
			S397.246,371.321,392.533,371.321z"/>
	</g>
</g>
<g>
	<g>
		<path d="M443.733,371.321h-17.067c-4.713,0-8.533,3.82-8.533,8.533s3.82,8.533,8.533,8.533h17.067c4.713,0,8.533-3.82,8.533-8.533
			S448.446,371.321,443.733,371.321z"/>
	</g>
</g>
<g>
	<g>
		<path d="M460.8,405.454h-17.067c-4.713,0-8.533,3.82-8.533,8.533s3.82,8.533,8.533,8.533H460.8c4.713,0,8.533-3.82,8.533-8.533
			S465.513,405.454,460.8,405.454z"/>
	</g>
</g>
<g>
	<g>
		<path d="M435.2,192.121c-4.713,0-8.533,3.82-8.533,8.533v42.667c0,9.426-7.641,17.067-17.067,17.067
			c-18.851,0-34.133,15.282-34.133,34.133v51.2c0,4.713,3.82,8.533,8.533,8.533s8.533-3.82,8.533-8.533v-51.2
			c0-9.426,7.641-17.067,17.067-17.067c18.851,0,34.133-15.282,34.133-34.133v-42.667
			C443.733,195.941,439.913,192.121,435.2,192.121z"/>
	</g>
</g>
<g>
</g>
<g>
</g>
<g>
</g>
<g>
</g>
<g>
</g>
<g>
</g>
<g>
</g>
<g>
</g>
<g>
</g>
<g>
</g>
<g>
</g>
<g>
</g>
<g>
</g>
<g>
</g>
<g>
</g>
</svg>
