<?xml version="1.0" encoding="UTF-8" standalone="no"?>
<!-- Created with Inkscape (http://www.inkscape.org/) -->

<svg
   xmlns:dc="http://purl.org/dc/elements/1.1/"
   xmlns:cc="http://creativecommons.org/ns#"
   xmlns:rdf="http://www.w3.org/1999/02/22-rdf-syntax-ns#"
   xmlns:svg="http://www.w3.org/2000/svg"
   xmlns="http://www.w3.org/2000/svg"
   xmlns:sodipodi="http://sodipodi.sourceforge.net/DTD/sodipodi-0.dtd"
   xmlns:inkscape="http://www.inkscape.org/namespaces/inkscape"
   id="root"
   sodipodi:version="0.32"
   inkscape:version="0.92.1 r15371"
   width="128"
   height="128"
   version="1.0"
   sodipodi:docname="mupen64plus-symbolic.svg"
   inkscape:output_extension="org.inkscape.output.svg.inkscape"
   inkscape:export-filename="/home/templarapheonix/Desktop/Mupen64_icon.png"
   inkscape:export-xdpi="198.08128"
   inkscape:export-ydpi="198.08128"
   viewBox="0 0 128 128">
  <metadata
     id="metadata7">
    <rdf:RDF>
      <cc:Work
         rdf:about="">
        <dc:format>image/svg+xml</dc:format>
        <dc:type
           rdf:resource="http://purl.org/dc/dcmitype/StillImage" />
        <dc:title />
        <dc:date>August 17, 2008</dc:date>
        <dc:creator>
          <cc:Agent>
            <dc:title>Tillin9</dc:title>
          </cc:Agent>
        </dc:creator>
        <dc:rights>
          <cc:Agent>
            <dc:title>Copyright (C) Tillin9</dc:title>
          </cc:Agent>
        </dc:rights>
        <dc:source>GPL (v2 or later) </dc:source>
        <dc:description>This icon is original work created by Tillin9 for Mupen64plus. 

This icon is free software; you can redistribute it and/or modify it under the terms of the GNU General Public License as published by the Free Software Foundation; either version 2 of the License, or  (at your option) any later version.

You may also copy it under the Creative Common Attribution-ShareAlike 3.0 license, as found here:   http://creativecommons.org/licenses/by-sa/3.0/ 

It is the author's desire that SVG / vector format copies be GPLed and rasterizations licensed under Creative Commons. This is because there are no clear guidelines to applying the GPL to artwork, whereas vector data consitutes source.</dc:description>
      </cc:Work>
    </rdf:RDF>
  </metadata>
  <defs
     id="defs5" />
  <sodipodi:namedview
     inkscape:window-height="835"
     inkscape:window-width="1245"
     inkscape:pageshadow="2"
     inkscape:pageopacity="0.0"
     guidetolerance="10.0"
     gridtolerance="10.0"
     objecttolerance="10.0"
     borderopacity="1.0"
     bordercolor="#666666"
     pagecolor="#ffffff"
     id="base"
     showgrid="true"
     inkscape:snap-global="true"
     showguides="true"
     inkscape:guide-bbox="true"
     inkscape:zoom="5.0314961"
     inkscape:cx="30.989171"
     inkscape:cy="66.077492"
     inkscape:window-x="184"
     inkscape:window-y="147"
     inkscape:current-layer="layer5"
     scale-x="1"
     inkscape:pagecheckerboard="true"
     inkscape:window-maximized="0" />
  <g
     inkscape:groupmode="layer"
     id="layer1"
     inkscape:label="Base"
     style="display:inline">
    <path
       style="color:#000000;font-style:normal;font-variant:normal;font-weight:normal;font-stretch:normal;font-size:medium;line-height:normal;font-family:sans-serif;font-variant-ligatures:normal;font-variant-position:normal;font-variant-caps:normal;font-variant-numeric:normal;font-variant-alternates:normal;font-feature-settings:normal;text-indent:0;text-align:start;text-decoration:none;text-decoration-line:none;text-decoration-style:solid;text-decoration-color:#000000;letter-spacing:normal;word-spacing:normal;text-transform:none;writing-mode:lr-tb;direction:ltr;text-orientation:mixed;dominant-baseline:auto;baseline-shift:baseline;text-anchor:start;white-space:normal;shape-padding:0;clip-rule:nonzero;display:inline;overflow:visible;visibility:visible;opacity:1;isolation:auto;mix-blend-mode:normal;color-interpolation:sRGB;color-interpolation-filters:linearRGB;solid-color:#000000;solid-opacity:1;vector-effect:none;fill-opacity:1;fill-rule:evenodd;stroke:none;stroke-width:1;stroke-linecap:butt;stroke-linejoin:round;stroke-miterlimit:4;stroke-dasharray:none;stroke-dashoffset:0;stroke-opacity:1;color-rendering:auto;image-rendering:auto;shape-rendering:auto;text-rendering:auto;enable-background:accumulate"
       d="m 62.414062,5.5957031 c -0.340037,0.016295 -0.672717,0.1023598 -0.978515,0.2519531 l -13.3125,6.4999998 c -0.485166,0.236405 -0.881943,0.623639 -1.128906,1.103516 L 38.257812,30.466797 25.6875,24.345703 c -0.691174,-0.335727 -1.499047,-0.335398 -2.189453,0.002 l -13.3125,6.5 C 9.3279215,31.266092 8.7816232,32.139471 8.78125,33.09375 v 61 c 3.508e-4,0.9543 0.5466526,1.827602 1.404297,2.246094 l 13.3125,6.499996 c 0.690406,0.33731 1.498279,0.33764 2.189453,0.002 l 13.34375,-6.500003 c 0.859378,-0.418183 1.406377,-1.292324 1.40625,-2.248047 V 84.625 c 0.335122,-0.01382 0.67786,0.02695 0.984375,-0.119141 a 0.50005,0.50005 0 0 0 0.002,0 l 5.294922,-2.535156 v 30.623047 c 3.53e-4,0.9543 0.546655,1.8276 1.404297,2.24609 l 13.3125,6.5 c 0.690406,0.33731 1.498279,0.33764 2.189453,0.002 l 13.34375,-6.5 c 0.859379,-0.41819 1.406378,-1.29233 1.40625,-2.24805 V 81.970703 l 5.294922,2.535156 a 0.50005,0.50005 0 0 0 0.002,0 c 0.296708,0.141293 0.628795,0.103669 0.953125,0.121094 v 8.162109 h -2.673828 c -1.232261,2.37e-4 -2.241953,1.009928 -2.242188,2.242188 v 12.3125 c 2.34e-4,1.23226 1.009926,2.24195 2.242188,2.24219 h 10.070312 v 10.07031 c 2.34e-4,1.23226 1.009926,2.24195 2.242188,2.24219 h 12.312494 c 1.23226,-2.4e-4 2.24196,-1.00993 2.24219,-2.24219 v -10.07031 h 10.07031 c 1.23226,-2.4e-4 2.24196,-1.00993 2.24219,-2.24219 v -12.3125 c -2.4e-4,-1.232261 -1.00993,-2.241952 -2.24219,-2.242188 h -2.60742 V 33.09375 c -3.5e-4,-0.954301 -0.54665,-1.827603 -1.4043,-2.246094 l -13.3125,-6.5 c -0.6904,-0.337302 -1.49828,-0.337631 -2.189446,-0.002 L 86.810547,30.466797 78.101562,13.453125 C 77.854185,12.970663 77.456486,12.582512 76.96875,12.345703 L 63.625,5.8457031 c -0.37641,-0.1830537 -0.792839,-0.2696666 -1.210938,-0.25 z M 62.5,7.34375 c 0.125563,-0.00545 0.250481,0.020747 0.363281,0.076172 l 13.289063,6.482422 c 0.01253,0.0055 0.0249,0.01138 0.03711,0.01758 0.0072,0.0038 0.01438,0.0077 0.02148,0.01172 l 0.0078,0.0039 c 0.01936,0.01023 0.03825,0.02131 0.05664,0.0332 0.0026,0.002 0.0052,0.0039 0.0078,0.0059 0.01814,0.01224 0.03573,0.02528 0.05273,0.03906 0.0026,0.002 0.0052,0.0039 0.0078,0.0059 0.01626,0.01429 0.0319,0.02928 0.04687,0.04492 0.01353,0.01318 0.02656,0.02686 0.03906,0.04102 0.0039,0.0045 0.0078,0.0091 0.01172,0.01367 0.002,0.0026 0.004,0.0052 0.0059,0.0078 0.01378,0.017 0.02681,0.03459 0.03906,0.05274 0.002,0.0026 0.004,0.0052 0.0059,0.0078 0.01123,0.01842 0.02165,0.03732 0.03125,0.05664 0.002,0.0026 0.004,0.0052 0.0059,0.0078 l 9.615234,18.763672 0.470703,-0.458984 c 0.0033,-0.0033 0.0065,-0.0066 0.0098,-0.0098 0.03601,-0.03373 0.07527,-0.06382 0.117188,-0.08984 0.0215,-0.01349 0.04366,-0.02587 0.06641,-0.03711 l 13.328131,-6.5 c 0.0915,-0.04504 0.19114,-0.07097 0.29297,-0.07617 0.12555,-0.0054 0.25047,0.02075 0.36328,0.07617 l 13.32812,6.5 c 0.003,0.002 0.007,0.0039 0.01,0.0059 0.004,0.002 0.008,0.0039 0.0117,0.0059 0.0187,0.0097 0.0369,0.02007 0.0547,0.03125 0.004,0.002 0.007,0.0039 0.01,0.0059 0.0175,0.01165 0.0344,0.02404 0.0508,0.03711 0.004,0.0026 0.007,0.0052 0.01,0.0078 0.0191,0.01601 0.0373,0.03296 0.0547,0.05078 0.009,0.0095 0.0183,0.01929 0.0273,0.0293 0.005,0.0058 0.0106,0.01168 0.0156,0.01758 0.0346,0.04093 0.0648,0.08546 0.0898,0.132813 0.0115,0.02225 0.0222,0.04507 0.0312,0.06836 0.003,0.0071 0.006,0.01428 0.008,0.02148 0.005,0.01289 0.01,0.02592 0.0137,0.03906 0.0232,0.07525 0.0342,0.153682 0.0332,0.232422 V 92.78918 h -1.5 -4.22266 V 82.75 c -2.4e-4,-1.232261 -1.00993,-2.241951 -2.24219,-2.242188 h -5.36132 -1.500001 -5.451172 C 93.031412,80.508049 92.02172,81.51774 92.021484,82.75 v 10.039062 h -4.132812 -1.5 V 82.292969 l -1.324219,0.646484 -0.002,0.002 c -0.0058,0.0027 -0.01168,0.0053 -0.01758,0.0078 -0.02296,0.01029 -0.04643,0.01944 -0.07031,0.02734 -0.04633,0.01569 -0.09408,0.0268 -0.142578,0.0332 h -0.002 c -0.04923,0.0062 -0.09895,0.0075 -0.148437,0.0039 -0.02489,-0.0021 -0.04966,-0.0053 -0.07422,-0.0098 h -0.002 c -0.0026,-7e-4 -0.0052,-0.0013 -0.0078,-0.002 -0.06489,-0.01185 -0.12793,-0.03221 -0.1875,-0.06055 l -7.798828,-3.75 v 33.402347 c -2.41e-4,0.28679 -0.163994,0.54834 -0.421875,0.67383 l -13.306641,6.49023 c -0.0084,0.005 -0.01689,0.01 -0.02539,0.0137 -0.0033,0.001 -0.0065,0.003 -0.0098,0.004 -0.04208,0.0197 -0.08588,0.0354 -0.130859,0.0469 -0.0026,0.001 -0.0052,0.001 -0.0078,0.002 h -0.002 c -0.02453,0.005 -0.0493,0.009 -0.07422,0.0117 -0.02136,0.004 -0.04286,0.006 -0.06445,0.008 -0.07843,0.003 -0.156852,-0.006 -0.232421,-0.0273 -0.02111,-0.006 -0.04196,-0.0125 -0.0625,-0.0195 -0.0026,-0.001 -0.0052,-0.003 -0.0078,-0.004 h -0.002 c -0.0033,-0.001 -0.0066,-0.003 -0.0098,-0.004 -0.01653,-0.007 -0.03281,-0.0135 -0.04883,-0.0215 l -13.326172,-6.5 c -0.257881,-0.12549 -0.421634,-0.38704 -0.421875,-0.67383 V 79.191406 l -7.798828,3.75 h -0.002 c -0.0039,0.002 -0.0078,0.004 -0.01172,0.0059 -0.01855,0.0086 -0.03745,0.01644 -0.05664,0.02344 -0.02812,0.01017 -0.05681,0.01869 -0.08594,0.02539 -0.02002,0.0047 -0.04022,0.0086 -0.06055,0.01172 -0.0039,7.01e-4 -0.0078,0.0013 -0.01172,0.002 -0.02077,0.0022 -0.04162,0.0035 -0.0625,0.0039 -0.07088,0.0035 -0.141908,-0.0031 -0.210938,-0.01953 -0.0065,-0.0012 -0.01303,-0.0025 -0.01953,-0.0039 -0.02179,-0.0062 -0.0433,-0.01338 -0.06445,-0.02148 -0.0039,-0.0013 -0.0078,-0.0026 -0.01172,-0.0039 -0.03081,-0.01169 -0.06083,-0.02539 -0.08984,-0.04102 L 38.679688,82.292969 V 94.09375 c -2.43e-4,0.286791 -0.163995,0.548341 -0.421876,0.673828 l -13.326171,6.500002 c -0.01475,0.007 -0.02974,0.0135 -0.04492,0.0195 -0.01287,0.006 -0.0259,0.0106 -0.03906,0.0156 -0.01993,0.007 -0.04013,0.0126 -0.06055,0.0176 -0.01295,0.003 -0.02597,0.006 -0.03906,0.008 -0.01553,0.003 -0.03118,0.006 -0.04687,0.008 -0.01169,0.002 -0.02341,0.003 -0.03516,0.004 -0.0091,10e-4 -0.01824,10e-4 -0.02734,0.002 -0.04962,0.002 -0.09934,1.8e-4 -0.148438,-0.008 -0.04856,-0.007 -0.09632,-0.0187 -0.142578,-0.0352 -0.0013,-0.001 -0.0026,-0.001 -0.0039,-0.002 -0.01718,-0.007 -0.03412,-0.0135 -0.05078,-0.0215 -0.0059,-0.003 -0.01178,-0.005 -0.01758,-0.008 L 10.947266,94.767578 c -0.25712,-0.12604 -0.420045,-0.387477 -0.419922,-0.673828 v -61 c -8.5e-5,-0.0065 -8.5e-5,-0.01303 0,-0.01953 6e-4,-0.0052 0.0012,-0.01042 0.002,-0.01563 5e-4,-0.01957 0.0018,-0.03912 0.0039,-0.05859 0.0029,-0.0223 0.0068,-0.04446 0.01172,-0.06641 7e-4,-0.002 0.0013,-0.0039 0.002,-0.0059 0.0048,-0.0224 0.01068,-0.04455 0.01758,-0.06641 7e-4,-0.0026 0.0013,-0.0052 0.002,-0.0078 0.0032,-0.0072 0.0064,-0.01438 0.0098,-0.02148 0.0053,-0.01581 0.01118,-0.03144 0.01758,-0.04687 0.01847,-0.04165 0.0407,-0.08153 0.06641,-0.11914 0.0013,-0.002 0.0026,-0.004 0.0039,-0.0059 v -0.002 c 0.01469,-0.01963 0.03033,-0.03854 0.04688,-0.05664 0.0013,-0.002 0.0026,-0.004 0.0039,-0.0059 0.01552,-0.01702 0.03181,-0.03331 0.04883,-0.04883 l 0.0039,-0.0039 c 0.0064,-0.0053 0.01293,-0.01053 0.01953,-0.01563 0.01264,-0.01151 0.02566,-0.02258 0.03906,-0.0332 0.03792,-0.02852 0.07847,-0.05337 0.121094,-0.07422 l 0.0059,-0.0039 c 0.0058,-0.0027 0.01168,-0.0053 0.01758,-0.0078 l 13.304688,-6.488281 c 0.09146,-0.04504 0.19115,-0.07097 0.292968,-0.07617 0.125563,-0.0054 0.250482,0.02075 0.363282,0.07617 l 13.328125,6.5 c 0.0039,0.002 0.0078,0.0039 0.01172,0.0059 0.0033,0.002 0.0066,0.0039 0.0098,0.0059 0.01866,0.0097 0.03691,0.02007 0.05469,0.03125 0.0033,0.002 0.0066,0.0039 0.0098,0.0059 0.01748,0.01229 0.03442,0.02532 0.05078,0.03906 0.01685,0.01298 0.03314,0.02666 0.04883,0.04102 l 0.0078,0.0078 0.0078,0.0078 0.46289,0.451172 9.615234,-18.763672 c 0.05115,-0.09945 0.123891,-0.186196 0.212891,-0.253906 l 0.0039,-0.0039 c 0.0494,-0.03708 0.103197,-0.06791 0.160157,-0.0918 L 62.205078,7.4199219 C 62.297141,7.3746269 62.397518,7.3487 62.5,7.34375 Z M 94.263672,82 h 12.312498 a 0.750075,0.750075 0 0 1 0.75,0.75 v 11.53125 h 11.5625 a 0.750075,0.750075 0 0 1 0.75,0.75 v 12.3125 a 0.750075,0.750075 0 0 1 -0.75,0.75 h -11.5625 v 11.5625 a 0.750075,0.750075 0 0 1 -0.75,0.75 H 94.263672 a 0.750075,0.750075 0 0 1 -0.75,-0.75 v -11.5625 h -11.5625 a 0.750075,0.750075 0 0 1 -0.75,-0.75 v -12.3125 a 0.750075,0.750075 0 0 1 0.75,-0.75 h 11.5625 V 82.75 a 0.750075,0.750075 0 0 1 0.75,-0.75 z"
       id="path1890"
       inkscape:connector-curvature="0" />
  </g>
  <g
     inkscape:groupmode="layer"
     id="layer3"
     inkscape:label="Edges"
     style="display:inline">
    <path
       style="color:#000000;font-style:normal;font-variant:normal;font-weight:normal;font-stretch:normal;font-size:medium;line-height:normal;font-family:sans-serif;font-variant-ligatures:normal;font-variant-position:normal;font-variant-caps:normal;font-variant-numeric:normal;font-variant-alternates:normal;font-feature-settings:normal;text-indent:0;text-align:start;text-decoration:none;text-decoration-line:none;text-decoration-style:solid;text-decoration-color:#000000;letter-spacing:normal;word-spacing:normal;text-transform:none;writing-mode:lr-tb;direction:ltr;text-orientation:mixed;dominant-baseline:auto;baseline-shift:baseline;text-anchor:start;white-space:normal;shape-padding:0;clip-rule:nonzero;display:inline;overflow:visible;visibility:visible;opacity:0.6;isolation:auto;mix-blend-mode:normal;color-interpolation:sRGB;color-interpolation-filters:linearRGB;solid-color:#000000;solid-opacity:1;vector-effect:none;fill-opacity:1;fill-rule:evenodd;stroke:none;color-rendering:auto;image-rendering:auto;shape-rendering:auto;text-rendering:auto;enable-background:accumulate"
       d="m 62.5,7.34375 a 0.750075,0.750075 0 0 0 -0.294922,0.076172 l -13.289062,6.482422 a 0.750075,0.750075 0 0 0 -0.160157,0.0918 0.750075,0.750075 0 0 0 -0.0039,0.0039 0.750075,0.750075 0 0 0 -0.212891,0.253906 l -9.615234,18.763672 -0.46289,-0.451172 a 0.750075,0.750075 0 0 0 -0.0078,-0.0078 0.750075,0.750075 0 0 0 -0.0078,-0.0078 0.750075,0.750075 0 0 0 -0.04883,-0.04102 0.750075,0.750075 0 0 0 -0.05078,-0.03906 0.750075,0.750075 0 0 0 -0.0098,-0.0059 0.750075,0.750075 0 0 0 -0.05469,-0.03125 0.750075,0.750075 0 0 0 -0.0098,-0.0059 0.750075,0.750075 0 0 0 -0.01172,-0.0059 l -13.328125,-6.5 a 0.750075,0.750075 0 0 0 -0.363282,-0.07617 0.750075,0.750075 0 0 0 -0.292968,0.07617 l -13.304688,6.488281 a 0.750075,0.750075 0 0 0 -0.01758,0.0078 l -0.0059,0.0039 a 0.750075,0.750075 0 0 0 -0.121094,0.07422 0.750075,0.750075 0 0 0 -0.03906,0.0332 0.750075,0.750075 0 0 0 -0.01953,0.01563 0.750075,0.750075 0 0 0 -0.0039,0.0039 0.750075,0.750075 0 0 0 -0.04883,0.04883 0.750075,0.750075 0 0 0 -0.0039,0.0059 0.750075,0.750075 0 0 0 -0.04688,0.05664 0.750075,0.750075 0 0 0 0,0.002 0.750075,0.750075 0 0 0 -0.0039,0.0059 0.750075,0.750075 0 0 0 -0.06641,0.11914 0.750075,0.750075 0 0 0 -0.01758,0.04687 0.750075,0.750075 0 0 0 -0.0098,0.02148 0.750075,0.750075 0 0 0 -0.002,0.0078 0.750075,0.750075 0 0 0 -0.01758,0.06641 0.750075,0.750075 0 0 0 -0.002,0.0059 0.750075,0.750075 0 0 0 -0.01172,0.06641 0.750075,0.750075 0 0 0 -0.0039,0.05859 0.750075,0.750075 0 0 0 -0.002,0.01563 0.750075,0.750075 0 0 0 0,0.01953 v 61 a 0.750075,0.750075 0 0 0 0.419922,0.673828 l 13.328125,6.500001 a 0.750075,0.750075 0 0 0 0.01758,0.008 0.750075,0.750075 0 0 0 0.05078,0.0215 0.750075,0.750075 0 0 0 0.0039,0.002 0.750075,0.750075 0 0 0 0.142578,0.0352 0.750075,0.750075 0 0 0 0.148438,0.008 0.750075,0.750075 0 0 0 0.02734,-0.002 0.750075,0.750075 0 0 0 0.03516,-0.004 0.750075,0.750075 0 0 0 0.04687,-0.008 0.750075,0.750075 0 0 0 0.03906,-0.008 0.750075,0.750075 0 0 0 0.06055,-0.0176 0.750075,0.750075 0 0 0 0.03906,-0.0156 0.750075,0.750075 0 0 0 0.04492,-0.0195 L 38.257812,94.767578 A 0.750075,0.750075 0 0 0 38.679688,94.09375 V 82.292969 l 1.291015,0.630859 a 0.750075,0.750075 0 0 0 0.08984,0.04102 0.750075,0.750075 0 0 0 0.01172,0.0039 0.750075,0.750075 0 0 0 0.06445,0.02148 0.750075,0.750075 0 0 0 0.01953,0.0039 0.750075,0.750075 0 0 0 0.210938,0.01953 0.750075,0.750075 0 0 0 0.0625,-0.0039 0.750075,0.750075 0 0 0 0.01172,-0.002 0.750075,0.750075 0 0 0 0.06055,-0.01172 0.750075,0.750075 0 0 0 0.08594,-0.02539 0.750075,0.750075 0 0 0 0.05664,-0.02344 0.750075,0.750075 0 0 0 0.01172,-0.0059 0.750075,0.750075 0 0 0 0.002,0 l 7.798828,-3.75 v 33.402342 a 0.750075,0.750075 0 0 0 0.421875,0.67383 l 13.326172,6.5 a 0.750075,0.750075 0 0 0 0.04883,0.0215 0.750075,0.750075 0 0 0 0.0098,0.004 0.750075,0.750075 0 0 0 0.002,0 0.750075,0.750075 0 0 0 0.0078,0.004 0.750075,0.750075 0 0 0 0.0625,0.0195 0.750075,0.750075 0 0 0 0.232421,0.0273 0.750075,0.750075 0 0 0 0.06445,-0.008 0.750075,0.750075 0 0 0 0.07422,-0.0117 0.750075,0.750075 0 0 0 0.002,0 0.750075,0.750075 0 0 0 0.0078,-0.002 0.750075,0.750075 0 0 0 0.130859,-0.0469 0.750075,0.750075 0 0 0 0.0098,-0.004 0.750075,0.750075 0 0 0 0.02539,-0.0137 l 13.306641,-6.49023 a 0.750075,0.750075 0 0 0 0.421875,-0.67383 V 79.191406 l 7.798828,3.75 a 0.750075,0.750075 0 0 0 0.1875,0.06055 0.750075,0.750075 0 0 0 0.0078,0.002 0.750075,0.750075 0 0 0 0.002,0 0.750075,0.750075 0 0 0 0.07422,0.0098 0.750075,0.750075 0 0 0 0.148437,-0.0039 0.750075,0.750075 0 0 0 0.002,0 0.750075,0.750075 0 0 0 0.142578,-0.0332 0.750075,0.750075 0 0 0 0.07031,-0.02734 0.750075,0.750075 0 0 0 0.01758,-0.0078 0.750075,0.750075 0 0 0 0.002,-0.002 l 1.324219,-0.646484 v 10.496093 h 1.5 V 81.5625 l 4.007812,-1.955078 a 0.750075,0.750075 0 0 0 0.126954,-0.07813 0.750075,0.750075 0 0 0 0.05664,-0.04883 0.750075,0.750075 0 0 0 0.002,0 0.750075,0.750075 0 0 0 0.05078,-0.05469 0.750075,0.750075 0 0 0 0.04688,-0.05859 0.750075,0.750075 0 0 0 0.05664,-0.0918 L 99.715206,64.69921 V 80.507803 H 101.2152 V 61.59375 a 0.750075,0.750075 0 0 0 -0.0332,-0.220703 0.750075,0.750075 0 0 0 0,-0.002 0.750075,0.750075 0 0 0 -1.384763,-0.119141 l -8.783203,17.117188 -4.203125,2.050781 -1.927735,0.939453 -8.498046,-8.302734 a 0.750075,0.750075 0 0 0 -0.544922,-0.212891 0.750075,0.750075 0 0 0 -0.07422,0.0059 0.750075,0.750075 0 0 0 -0.07422,0.01367 0.750075,0.750075 0 0 0 -0.01953,0.0059 0.750075,0.750075 0 0 0 -0.05273,0.01563 0.750075,0.750075 0 0 0 -0.134766,0.06055 0.750075,0.750075 0 0 0 -0.06445,0.04102 0.750075,0.750075 0 0 0 -0.111328,0.09961 0.750075,0.750075 0 0 0 -0.02539,0.03125 0.750075,0.750075 0 0 0 -0.02148,0.02539 0.750075,0.750075 0 0 0 0,0.002 0.750075,0.750075 0 0 0 -0.04102,0.06055 0.750075,0.750075 0 0 0 -0.002,0.002 0.750075,0.750075 0 0 0 -0.03516,0.06445 0.750075,0.750075 0 0 0 -0.02734,0.06836 0.750075,0.750075 0 0 0 -0.002,0.002 0.750075,0.750075 0 0 0 -0.01367,0.04883 0.750075,0.750075 0 0 0 -0.0078,0.02148 0.750075,0.750075 0 0 0 0,0.002 0.750075,0.750075 0 0 0 -0.01367,0.07227 0.750075,0.750075 0 0 0 -0.0078,0.07422 0.750075,0.750075 0 0 0 0,0.002 0.750075,0.750075 0 0 0 0,0.03125 V 78 112.125 L 63.28546,117.89258 V 58.5625 L 75.714844,52.5 l 0.818359,0.796875 11.105469,10.833984 a 0.750075,0.750075 0 0 0 1.191406,-0.195312 l 12.187502,-23.777344 12.02344,-5.863281 v 58.49414 h 1.5 V 33.105469 a 0.750075,0.750075 0 0 0 -0.0332,-0.232422 0.750075,0.750075 0 0 0 -0.0137,-0.03906 0.750075,0.750075 0 0 0 -0.008,-0.02148 0.750075,0.750075 0 0 0 -0.0312,-0.06836 0.750075,0.750075 0 0 0 -0.0898,-0.132813 0.750075,0.750075 0 0 0 -0.0156,-0.01758 0.750075,0.750075 0 0 0 -0.0273,-0.0293 0.750075,0.750075 0 0 0 -0.0547,-0.05078 0.750075,0.750075 0 0 0 -0.01,-0.0078 0.750075,0.750075 0 0 0 -0.0508,-0.03711 0.750075,0.750075 0 0 0 -0.01,-0.0059 0.750075,0.750075 0 0 0 -0.0547,-0.03125 0.750075,0.750075 0 0 0 -0.0117,-0.0059 0.750075,0.750075 0 0 0 -0.01,-0.0059 l -13.32812,-6.5 a 0.750075,0.750075 0 0 0 -0.36328,-0.07617 0.750075,0.750075 0 0 0 -0.29297,0.07617 l -13.328126,6.5 a 0.750075,0.750075 0 0 0 -0.06641,0.03711 0.750075,0.750075 0 0 0 -0.117188,0.08984 0.750075,0.750075 0 0 0 -0.0098,0.0098 l -0.470703,0.458984 -9.615234,-18.763672 a 0.750075,0.750075 0 0 0 -0.0059,-0.0078 0.750075,0.750075 0 0 0 -0.03125,-0.05664 0.750075,0.750075 0 0 0 -0.0059,-0.0078 0.750075,0.750075 0 0 0 -0.03906,-0.05274 0.750075,0.750075 0 0 0 -0.0059,-0.0078 0.750075,0.750075 0 0 0 -0.01172,-0.01367 0.750075,0.750075 0 0 0 -0.03906,-0.04102 0.750075,0.750075 0 0 0 -0.04687,-0.04492 0.750075,0.750075 0 0 0 -0.0078,-0.0059 0.750075,0.750075 0 0 0 -0.05273,-0.03906 0.750075,0.750075 0 0 0 -0.0078,-0.0059 0.750075,0.750075 0 0 0 -0.05664,-0.0332 0.750075,0.750075 0 0 0 -0.0078,-0.0039 0.750075,0.750075 0 0 0 -0.02148,-0.01172 0.750075,0.750075 0 0 0 -0.03711,-0.01758 L 62.863281,7.4199219 A 0.750075,0.750075 0 0 0 62.5,7.34375 Z M 62.53516,8.9277344 74.152348,14.59375 65.658207,18.736328 62.53516,20.259766 50.91602,14.59375 Z m -12.996094,6.6621096 1.753907,0.855468 10.224609,4.988282 -11.488281,22.414062 -9.982422,-9.736328 z m 25.990235,0 9.492187,18.521484 L 75.04102,43.847656 63.552734,21.433594 Z M 61.785156,24.203125 V 44.625 l -12.902344,6.292969 h -0.002 l -0.002,0.002 a 0.750075,0.750075 0 0 0 -0.0039,0.002 0.750075,0.750075 0 0 0 -0.05859,0.03125 0.750075,0.750075 0 0 0 -0.0039,0.002 0.750075,0.750075 0 0 0 -0.04492,0.0332 0.750075,0.750075 0 0 0 -0.01367,0.0078 0.750075,0.750075 0 0 0 -0.002,0.002 0.750075,0.750075 0 0 0 -0.05469,0.04687 0.750075,0.750075 0 0 0 -0.0039,0.002 0.750075,0.750075 0 0 0 -0.0098,0.0098 l -0.46875,0.457031 -7.521485,-14.675781 9.015625,8.792968 a 0.750075,0.750075 0 0 0 1.191407,-0.195312 z m 1.5,0 10.882813,21.232422 a 0.750075,0.750075 0 0 0 0.74414,0.404297 0.750075,0.750075 0 0 0 0.07422,-0.01172 0.750075,0.750075 0 0 0 0.07227,-0.01758 0.750075,0.750075 0 0 0 0.07031,-0.02734 0.750075,0.750075 0 0 0 0.06836,-0.03125 0.750075,0.750075 0 0 0 0.123046,-0.08594 0.750075,0.750075 0 0 0 0.03906,-0.03516 L 84.375,36.837891 76.853516,51.513672 76.384766,51.056641 a 0.750075,0.750075 0 0 0 -0.04883,-0.04297 0.750075,0.750075 0 0 0 -0.0078,-0.0059 0.750075,0.750075 0 0 0 -0.05273,-0.03906 0.750075,0.750075 0 0 0 -0.0078,-0.0059 0.750075,0.750075 0 0 0 -0.07813,-0.04297 l -0.01367,-0.0059 a 0.750075,0.750075 0 0 0 -0.04102,-0.01953 L 63.285156,44.625 Z M 24.603516,27.427734 36.220703,33.09375 24.603516,38.759766 12.986328,33.09375 Z m 75.861324,0 11.61719,5.666016 -8.49414,4.142578 -3.12305,1.523438 -11.617184,-5.666016 z m -62.867184,6.66211 9.494141,18.521484 -9.982422,9.736328 -11.490234,-22.416015 z m 49.873047,0 11.978516,5.841797 -11.490235,22.416015 -9.982422,-9.736328 z m -75.443359,0.205078 12.023437,5.863281 12.1875,23.777344 a 0.750075,0.750075 0 0 0 1.191407,0.195312 L 48.535156,53.296875 49.353516,52.5 l 12.43164,6.0625 v 59.33203 L 49.957031,112.125 V 78.017578 a 0.750075,0.750075 0 0 0 0,-0.01758 v -4.40625 a 0.750075,0.750075 0 0 0 -0.175781,-0.482422 0.750075,0.750075 0 0 0 -0.107422,-0.105469 0.750075,0.750075 0 0 0 -0.06055,-0.04297 0.750075,0.750075 0 0 0 -0.002,0 0.750075,0.750075 0 0 0 -0.203125,-0.0918 0.750075,0.750075 0 0 0 -0.148437,-0.02539 0.750075,0.750075 0 0 0 -0.150391,0.0039 0.750075,0.750075 0 0 0 -0.07227,0.01367 0.750075,0.750075 0 0 0 -0.330078,0.171875 0.750075,0.750075 0 0 0 -0.02344,0.02148 l -8.498047,8.302734 -1.916016,-0.933594 a 0.750075,0.750075 0 0 0 -0.01172,-0.0059 L 34.054688,78.369141 25.271484,61.251953 a 0.750075,0.750075 0 0 0 -1.091796,-0.277344 0.750075,0.750075 0 0 0 -0.002,0.002 0.750075,0.750075 0 0 0 -0.162109,0.152344 0.750075,0.750075 0 0 0 -0.06836,0.101563 0.750075,0.750075 0 0 0 -0.01367,0.02344 0.750075,0.750075 0 0 0 0,0.002 0.750075,0.750075 0 0 0 -0.0293,0.06641 0.750075,0.750075 0 0 0 0,0.002 0.750075,0.750075 0 0 0 -0.04102,0.142578 0.750075,0.750075 0 0 0 0,0.002 0.750075,0.750075 0 0 0 -0.0078,0.07227 0.750075,0.750075 0 0 0 0,0.002 0.750075,0.750075 0 0 0 -0.002,0.05078 V 99.394531 L 12.027344,93.625 Z m 50.507812,11.632812 1.154297,0.5625 10.462891,5.103516 -11.617188,5.666016 -11.61914,-5.666016 10.332031,-5.037109 z m -37.18164,18.771485 7.478515,14.576172 a 0.750075,0.750075 0 0 0 0.132813,0.18164 0.750075,0.750075 0 0 0 0.05273,0.05078 0.750075,0.750075 0 0 0 0.002,0 0.750075,0.750075 0 0 0 0.05859,0.04492 0.750075,0.750075 0 0 0 0.002,0.002 0.750075,0.750075 0 0 0 0.0918,0.05273 L 37.179688,81.5625 V 93.625 L 25.353516,99.394531 Z M 48.457031,75.375 v 2.152344 l -4.333984,2.083984 z m 28.154297,0 4.333984,4.236328 -4.333984,-2.083984 z"
       id="path1461"
       inkscape:connector-curvature="0" />
    <path
       style="color:#000000;font-style:normal;font-variant:normal;font-weight:normal;font-stretch:normal;font-size:medium;line-height:normal;font-family:sans-serif;font-variant-ligatures:normal;font-variant-position:normal;font-variant-caps:normal;font-variant-numeric:normal;font-variant-alternates:normal;font-feature-settings:normal;text-indent:0;text-align:start;text-decoration:none;text-decoration-line:none;text-decoration-style:solid;text-decoration-color:#000000;letter-spacing:normal;word-spacing:normal;text-transform:none;writing-mode:lr-tb;direction:ltr;text-orientation:mixed;dominant-baseline:auto;baseline-shift:baseline;text-anchor:start;white-space:normal;shape-padding:0;clip-rule:nonzero;display:inline;overflow:visible;visibility:visible;opacity:0.6;isolation:auto;mix-blend-mode:normal;color-interpolation:sRGB;color-interpolation-filters:linearRGB;solid-color:#000000;solid-opacity:1;vector-effect:none;fill-opacity:1;fill-rule:evenodd;stroke:none;stroke-width:1.5;stroke-linecap:butt;stroke-linejoin:round;stroke-miterlimit:4;stroke-dasharray:none;stroke-dashoffset:0;stroke-opacity:1;color-rendering:auto;image-rendering:auto;shape-rendering:auto;text-rendering:auto;enable-background:accumulate"
       d="m 94.263672,82 a 0.750075,0.750075 0 0 0 -0.75,0.75 v 11.53125 h -11.5625 a 0.750075,0.750075 0 0 0 -0.75,0.75 v 12.3125 a 0.750075,0.750075 0 0 0 0.75,0.75 h 11.5625 v 11.5625 a 0.750075,0.750075 0 0 0 0.75,0.75 h 12.312498 a 0.750075,0.750075 0 0 0 0.75,-0.75 v -11.5625 h 11.5625 a 0.750075,0.750075 0 0 0 0.75,-0.75 v -12.3125 a 0.750075,0.750075 0 0 0 -0.75,-0.75 h -11.5625 V 82.75 a 0.750075,0.750075 0 0 0 -0.75,-0.75 z m 0.75,1.5 h 10.812498 v 11.53125 a 0.750075,0.750075 0 0 0 0.75,0.75 h 11.5625 v 10.8125 h -11.5625 a 0.750075,0.750075 0 0 0 -0.75,0.75 v 11.5625 H 95.013672 v -11.5625 a 0.750075,0.750075 0 0 0 -0.75,-0.75 h -11.5625 v -10.8125 h 11.5625 a 0.750075,0.750075 0 0 0 0.75,-0.75 z"
       id="path1779"
       inkscape:connector-curvature="0" />
  </g>
  <g
     inkscape:groupmode="layer"
     id="layer5"
     inkscape:label="Faces"
     style="display:inline">
    <path
       style="color:#000000;font-style:normal;font-variant:normal;font-weight:normal;font-stretch:normal;font-size:medium;line-height:normal;font-family:sans-serif;font-variant-ligatures:normal;font-variant-position:normal;font-variant-caps:normal;font-variant-numeric:normal;font-variant-alternates:normal;font-feature-settings:normal;text-indent:0;text-align:start;text-decoration:none;text-decoration-line:none;text-decoration-style:solid;text-decoration-color:#000000;letter-spacing:normal;word-spacing:normal;text-transform:none;writing-mode:lr-tb;direction:ltr;text-orientation:mixed;dominant-baseline:auto;baseline-shift:baseline;text-anchor:start;white-space:normal;shape-padding:0;clip-rule:nonzero;display:inline;overflow:visible;visibility:visible;opacity:1;isolation:auto;mix-blend-mode:normal;color-interpolation:sRGB;color-interpolation-filters:linearRGB;solid-color:#000000;solid-opacity:1;vector-effect:none;fill-opacity:1;fill-rule:evenodd;stroke:none;color-rendering:auto;image-rendering:auto;shape-rendering:auto;text-rendering:auto;enable-background:accumulate"
       d="m 113.04102,34.294922 -12.02344,5.863281 -12.187502,23.777344 a 0.750075,0.750075 0 0 1 -1.191406,0.195312 L 75.714844,52.5 63.285156,58.5625 v 59.33008 L 75.111328,112.125 V 73.59375 a 0.750075,0.750075 0 0 1 1.273438,-0.537109 l 8.498046,8.302734 6.13086,-2.990234 8.783203,-17.117188 a 0.750075,0.750075 0 0 1 1.417965,0.341797 v 18.914062 h 5.36133 c 1.23226,2.35e-4 2.24195,1.009927 2.24219,2.242188 v 10.039062 h 4.22266 z"
       id="path3899"
       inkscape:connector-curvature="0" />
    <path
       style="color:#000000;font-style:normal;font-variant:normal;font-weight:normal;font-stretch:normal;font-size:medium;line-height:normal;font-family:sans-serif;font-variant-ligatures:normal;font-variant-position:normal;font-variant-caps:normal;font-variant-numeric:normal;font-variant-alternates:normal;font-feature-settings:normal;text-indent:0;text-align:start;text-decoration:none;text-decoration-line:none;text-decoration-style:solid;text-decoration-color:#000000;letter-spacing:normal;word-spacing:normal;text-transform:none;writing-mode:lr-tb;direction:ltr;text-orientation:mixed;dominant-baseline:auto;baseline-shift:baseline;text-anchor:start;white-space:normal;shape-padding:0;clip-rule:nonzero;display:inline;overflow:visible;visibility:visible;opacity:1;isolation:auto;mix-blend-mode:normal;color-interpolation:sRGB;color-interpolation-filters:linearRGB;solid-color:#000000;solid-opacity:1;vector-effect:none;fill-opacity:1;fill-rule:evenodd;stroke:none;color-rendering:auto;image-rendering:auto;shape-rendering:auto;text-rendering:auto;enable-background:accumulate"
       d="m 12.027344,34.294922 12.023437,5.863281 12.1875,23.777344 a 0.750075,0.750075 0 0 0 1.191407,0.195312 L 49.353516,52.5 l 12.43164,6.0625 v 59.33203 L 49.957031,112.125 V 73.59375 A 0.750075,0.750075 0 0 0 48.683594,73.056641 L 40.185547,81.359375 34.054688,78.369141 25.271484,61.251953 A 0.750075,0.750075 0 0 0 23.853516,61.59375 V 99.394531 L 12.027344,93.625 Z"
       id="path2384"
       inkscape:connector-curvature="0" />
    <path
       style="color:#000000;font-style:normal;font-variant:normal;font-weight:normal;font-stretch:normal;font-size:medium;line-height:normal;font-family:sans-serif;font-variant-ligatures:normal;font-variant-position:normal;font-variant-caps:normal;font-variant-numeric:normal;font-variant-alternates:normal;font-feature-settings:normal;text-indent:0;text-align:start;text-decoration:none;text-decoration-line:none;text-decoration-style:solid;text-decoration-color:#000000;letter-spacing:normal;word-spacing:normal;text-transform:none;writing-mode:lr-tb;direction:ltr;text-orientation:mixed;dominant-baseline:auto;baseline-shift:baseline;text-anchor:start;white-space:normal;shape-padding:0;clip-rule:nonzero;display:inline;overflow:visible;visibility:visible;opacity:0.2;isolation:auto;mix-blend-mode:normal;color-interpolation:sRGB;color-interpolation-filters:linearRGB;solid-color:#000000;solid-opacity:1;vector-effect:none;fill-opacity:1;fill-rule:evenodd;stroke:none;color-rendering:auto;image-rendering:auto;shape-rendering:auto;text-rendering:auto;enable-background:accumulate"
       d="M 37.707031,33.757812 47.398438,52.660156 37.042969,62.761719 25.28125,39.818359 Z"
       id="path3720"
       inkscape:connector-curvature="0" />
    <path
       style="color:#000000;font-style:normal;font-variant:normal;font-weight:normal;font-stretch:normal;font-size:medium;line-height:normal;font-family:sans-serif;font-variant-ligatures:normal;font-variant-position:normal;font-variant-caps:normal;font-variant-numeric:normal;font-variant-alternates:normal;font-feature-settings:normal;text-indent:0;text-align:start;text-decoration:none;text-decoration-line:none;text-decoration-style:solid;text-decoration-color:#000000;letter-spacing:normal;word-spacing:normal;text-transform:none;writing-mode:lr-tb;direction:ltr;text-orientation:mixed;dominant-baseline:auto;baseline-shift:baseline;text-anchor:start;white-space:normal;shape-padding:0;clip-rule:nonzero;display:inline;overflow:visible;visibility:visible;opacity:0.2;isolation:auto;mix-blend-mode:normal;color-interpolation:sRGB;color-interpolation-filters:linearRGB;solid-color:#000000;solid-opacity:1;vector-effect:none;fill-opacity:1;fill-rule:evenodd;stroke:none;color-rendering:auto;image-rendering:auto;shape-rendering:auto;text-rendering:auto;enable-background:accumulate"
       d="M 24.603519,27.427734 36.220706,33.09375 24.603519,38.759766 12.986331,33.09375 Z"
       id="path3796"
       inkscape:connector-curvature="0" />
    <path
       style="color:#000000;font-style:normal;font-variant:normal;font-weight:normal;font-stretch:normal;font-size:medium;line-height:normal;font-family:sans-serif;font-variant-ligatures:normal;font-variant-position:normal;font-variant-caps:normal;font-variant-numeric:normal;font-variant-alternates:normal;font-feature-settings:normal;text-indent:0;text-align:start;text-decoration:none;text-decoration-line:none;text-decoration-style:solid;text-decoration-color:#000000;letter-spacing:normal;word-spacing:normal;text-transform:none;writing-mode:lr-tb;direction:ltr;text-orientation:mixed;dominant-baseline:auto;baseline-shift:baseline;text-anchor:start;white-space:normal;shape-padding:0;clip-rule:nonzero;display:inline;overflow:visible;visibility:visible;opacity:0.2;isolation:auto;mix-blend-mode:normal;color-interpolation:sRGB;color-interpolation-filters:linearRGB;solid-color:#000000;solid-opacity:1;vector-effect:none;fill-opacity:1;fill-rule:evenodd;stroke:none;color-rendering:auto;image-rendering:auto;shape-rendering:auto;text-rendering:auto;enable-background:accumulate"
       d="M 87.361328,33.757812 99.787109,39.818359 88.025391,62.761719 77.669922,52.660156 Z"
       id="path3893"
       inkscape:connector-curvature="0" />
    <path
       style="color:#000000;font-style:normal;font-variant:normal;font-weight:normal;font-stretch:normal;font-size:medium;line-height:normal;font-family:sans-serif;font-variant-ligatures:normal;font-variant-position:normal;font-variant-caps:normal;font-variant-numeric:normal;font-variant-alternates:normal;font-feature-settings:normal;text-indent:0;text-align:start;text-decoration:none;text-decoration-line:none;text-decoration-style:solid;text-decoration-color:#000000;letter-spacing:normal;word-spacing:normal;text-transform:none;writing-mode:lr-tb;direction:ltr;text-orientation:mixed;dominant-baseline:auto;baseline-shift:baseline;text-anchor:start;white-space:normal;shape-padding:0;clip-rule:nonzero;display:inline;overflow:visible;visibility:visible;opacity:0.2;isolation:auto;mix-blend-mode:normal;color-interpolation:sRGB;color-interpolation-filters:linearRGB;solid-color:#000000;solid-opacity:1;vector-effect:none;fill-opacity:1;fill-rule:evenodd;stroke:none;color-rendering:auto;image-rendering:auto;shape-rendering:auto;text-rendering:auto;enable-background:accumulate"
       d="M 100.46489,27.427734 112.08208,33.09375 100.46489,38.759766 88.847706,33.09375 Z"
       id="path3901"
       inkscape:connector-curvature="0" />
    <path
       style="color:#000000;font-style:normal;font-variant:normal;font-weight:normal;font-stretch:normal;font-size:medium;line-height:normal;font-family:sans-serif;font-variant-ligatures:normal;font-variant-position:normal;font-variant-caps:normal;font-variant-numeric:normal;font-variant-alternates:normal;font-feature-settings:normal;text-indent:0;text-align:start;text-decoration:none;text-decoration-line:none;text-decoration-style:solid;text-decoration-color:#000000;letter-spacing:normal;word-spacing:normal;text-transform:none;writing-mode:lr-tb;direction:ltr;text-orientation:mixed;dominant-baseline:auto;baseline-shift:baseline;text-anchor:start;white-space:normal;shape-padding:0;clip-rule:nonzero;display:inline;overflow:visible;visibility:visible;opacity:0.2;isolation:auto;mix-blend-mode:normal;color-interpolation:sRGB;color-interpolation-filters:linearRGB;solid-color:#000000;solid-opacity:1;vector-effect:none;fill-opacity:1;fill-rule:evenodd;stroke:none;color-rendering:auto;image-rendering:auto;shape-rendering:auto;text-rendering:auto;enable-background:accumulate"
       d="M 62.53516,45.927734 74.152348,51.59375 62.53516,57.259766 50.91602,51.59375 Z"
       id="path3714"
       inkscape:connector-curvature="0" />
    <path
       style="color:#000000;font-style:normal;font-variant:normal;font-weight:normal;font-stretch:normal;font-size:medium;line-height:normal;font-family:sans-serif;font-variant-ligatures:normal;font-variant-position:normal;font-variant-caps:normal;font-variant-numeric:normal;font-variant-alternates:normal;font-feature-settings:normal;text-indent:0;text-align:start;text-decoration:none;text-decoration-line:none;text-decoration-style:solid;text-decoration-color:#000000;letter-spacing:normal;word-spacing:normal;text-transform:none;writing-mode:lr-tb;direction:ltr;text-orientation:mixed;dominant-baseline:auto;baseline-shift:baseline;text-anchor:start;white-space:normal;shape-padding:0;clip-rule:nonzero;display:inline;overflow:visible;visibility:visible;opacity:0.2;isolation:auto;mix-blend-mode:normal;color-interpolation:sRGB;color-interpolation-filters:linearRGB;solid-color:#000000;solid-opacity:1;vector-effect:none;fill-opacity:1;fill-rule:evenodd;stroke:none;color-rendering:auto;image-rendering:auto;shape-rendering:auto;text-rendering:auto;enable-background:accumulate"
       d="m 25.353516,64.699219 7.478515,14.576172 a 0.750075,0.750075 0 0 0 0.339844,0.332031 L 37.179688,81.5625 V 93.625 l -11.826172,5.769531 z"
       id="path3742"
       inkscape:connector-curvature="0" />
    <path
       style="color:#000000;font-style:normal;font-variant:normal;font-weight:normal;font-stretch:normal;font-size:medium;line-height:normal;font-family:sans-serif;font-variant-ligatures:normal;font-variant-position:normal;font-variant-caps:normal;font-variant-numeric:normal;font-variant-alternates:normal;font-feature-settings:normal;text-indent:0;text-align:start;text-decoration:none;text-decoration-line:none;text-decoration-style:solid;text-decoration-color:#000000;letter-spacing:normal;word-spacing:normal;text-transform:none;writing-mode:lr-tb;direction:ltr;text-orientation:mixed;dominant-baseline:auto;baseline-shift:baseline;text-anchor:start;white-space:normal;shape-padding:0;clip-rule:nonzero;display:inline;overflow:visible;visibility:visible;opacity:0.2;isolation:auto;mix-blend-mode:normal;color-interpolation:sRGB;color-interpolation-filters:linearRGB;solid-color:#000000;solid-opacity:1;vector-effect:none;fill-opacity:1;fill-rule:evenodd;stroke:none;color-rendering:auto;image-rendering:auto;shape-rendering:auto;text-rendering:auto;enable-background:accumulate"
       d="m 99.714844,64.699219 -7.478516,14.576172 a 0.750075,0.750075 0 0 1 -0.339844,0.332031 L 87.888672,81.5625 v 11.226562 h 4.132812 V 82.75 c 2.36e-4,-1.23226 1.009928,-2.241951 2.242188,-2.242188 h 5.451172 z"
       id="path3897"
       inkscape:connector-curvature="0" />
    <path
       style="color:#000000;font-style:normal;font-variant:normal;font-weight:normal;font-stretch:normal;font-size:medium;line-height:normal;font-family:sans-serif;font-variant-ligatures:normal;font-variant-position:normal;font-variant-caps:normal;font-variant-numeric:normal;font-variant-alternates:normal;font-feature-settings:normal;text-indent:0;text-align:start;text-decoration:none;text-decoration-line:none;text-decoration-style:solid;text-decoration-color:#000000;letter-spacing:normal;word-spacing:normal;text-transform:none;writing-mode:lr-tb;direction:ltr;text-orientation:mixed;dominant-baseline:auto;baseline-shift:baseline;text-anchor:start;white-space:normal;shape-padding:0;clip-rule:nonzero;display:inline;overflow:visible;visibility:visible;opacity:0.2;isolation:auto;mix-blend-mode:normal;color-interpolation:sRGB;color-interpolation-filters:linearRGB;solid-color:#000000;solid-opacity:1;vector-effect:none;fill-opacity:1;fill-rule:evenodd;stroke:none;color-rendering:auto;image-rendering:auto;shape-rendering:auto;text-rendering:auto;enable-background:accumulate"
       d="m 48.457031,75.375 v 2.152344 l -4.333984,2.083984 z"
       id="path3736"
       inkscape:connector-curvature="0" />
    <path
       style="color:#000000;font-style:normal;font-variant:normal;font-weight:normal;font-stretch:normal;font-size:medium;line-height:normal;font-family:sans-serif;font-variant-ligatures:normal;font-variant-position:normal;font-variant-caps:normal;font-variant-numeric:normal;font-variant-alternates:normal;font-feature-settings:normal;text-indent:0;text-align:start;text-decoration:none;text-decoration-line:none;text-decoration-style:solid;text-decoration-color:#000000;letter-spacing:normal;word-spacing:normal;text-transform:none;writing-mode:lr-tb;direction:ltr;text-orientation:mixed;dominant-baseline:auto;baseline-shift:baseline;text-anchor:start;white-space:normal;shape-padding:0;clip-rule:nonzero;display:inline;overflow:visible;visibility:visible;opacity:0.2;isolation:auto;mix-blend-mode:normal;color-interpolation:sRGB;color-interpolation-filters:linearRGB;solid-color:#000000;solid-opacity:1;vector-effect:none;fill-opacity:1;fill-rule:evenodd;stroke:none;color-rendering:auto;image-rendering:auto;shape-rendering:auto;text-rendering:auto;enable-background:accumulate"
       d="m 76.611328,75.375 4.333984,4.236328 -4.333984,-2.083984 z"
       id="path3895"
       inkscape:connector-curvature="0" />
    <path
       style="color:#000000;font-style:normal;font-variant:normal;font-weight:normal;font-stretch:normal;font-size:medium;line-height:normal;font-family:sans-serif;font-variant-ligatures:normal;font-variant-position:normal;font-variant-caps:normal;font-variant-numeric:normal;font-variant-alternates:normal;font-feature-settings:normal;text-indent:0;text-align:start;text-decoration:none;text-decoration-line:none;text-decoration-style:solid;text-decoration-color:#000000;letter-spacing:normal;word-spacing:normal;text-transform:none;writing-mode:lr-tb;direction:ltr;text-orientation:mixed;dominant-baseline:auto;baseline-shift:baseline;text-anchor:start;white-space:normal;shape-padding:0;clip-rule:nonzero;display:inline;overflow:visible;visibility:visible;opacity:0.2;isolation:auto;mix-blend-mode:normal;color-interpolation:sRGB;color-interpolation-filters:linearRGB;solid-color:#000000;solid-opacity:1;vector-effect:none;fill-opacity:1;fill-rule:evenodd;stroke:none;color-rendering:auto;image-rendering:auto;shape-rendering:auto;text-rendering:auto;enable-background:accumulate"
       d="M 62.53516,8.9277344 74.152348,14.59375 62.53516,20.259766 50.91602,14.59375 Z"
       id="path3794"
       inkscape:connector-curvature="0" />
    <path
       style="color:#000000;font-style:normal;font-variant:normal;font-weight:normal;font-stretch:normal;font-size:medium;line-height:normal;font-family:sans-serif;font-variant-ligatures:normal;font-variant-position:normal;font-variant-caps:normal;font-variant-numeric:normal;font-variant-alternates:normal;font-feature-settings:normal;text-indent:0;text-align:start;text-decoration:none;text-decoration-line:none;text-decoration-style:solid;text-decoration-color:#000000;letter-spacing:normal;word-spacing:normal;text-transform:none;writing-mode:lr-tb;direction:ltr;text-orientation:mixed;dominant-baseline:auto;baseline-shift:baseline;text-anchor:start;white-space:normal;shape-padding:0;clip-rule:nonzero;display:inline;overflow:visible;visibility:visible;opacity:0.2;isolation:auto;mix-blend-mode:normal;color-interpolation:sRGB;color-interpolation-filters:linearRGB;solid-color:#000000;solid-opacity:1;vector-effect:none;fill-opacity:1;fill-rule:evenodd;stroke:none;color-rendering:auto;image-rendering:auto;shape-rendering:auto;text-rendering:auto;enable-background:accumulate"
       d="M 49.539062,15.589844 61.519531,21.431641 50.029297,43.847656 40.046875,34.111328 Z"
       id="path3810"
       inkscape:connector-curvature="0" />
    <path
       style="color:#000000;font-style:normal;font-variant:normal;font-weight:normal;font-stretch:normal;font-size:medium;line-height:normal;font-family:sans-serif;font-variant-ligatures:normal;font-variant-position:normal;font-variant-caps:normal;font-variant-numeric:normal;font-variant-alternates:normal;font-feature-settings:normal;text-indent:0;text-align:start;text-decoration:none;text-decoration-line:none;text-decoration-style:solid;text-decoration-color:#000000;letter-spacing:normal;word-spacing:normal;text-transform:none;writing-mode:lr-tb;direction:ltr;text-orientation:mixed;dominant-baseline:auto;baseline-shift:baseline;text-anchor:start;white-space:normal;shape-padding:0;clip-rule:nonzero;display:inline;overflow:visible;visibility:visible;opacity:0.2;isolation:auto;mix-blend-mode:normal;color-interpolation:sRGB;color-interpolation-filters:linearRGB;solid-color:#000000;solid-opacity:1;vector-effect:none;fill-opacity:1;fill-rule:evenodd;stroke:none;color-rendering:auto;image-rendering:auto;shape-rendering:auto;text-rendering:auto;enable-background:accumulate"
       d="M 75.529297,15.589844 85.021484,34.111328 75.041016,43.847656 63.550781,21.431641 Z"
       id="path3889"
       inkscape:connector-curvature="0" />
    <path
       style="color:#000000;font-style:normal;font-variant:normal;font-weight:normal;font-stretch:normal;font-size:medium;line-height:normal;font-family:sans-serif;font-variant-ligatures:normal;font-variant-position:normal;font-variant-caps:normal;font-variant-numeric:normal;font-variant-alternates:normal;font-feature-settings:normal;text-indent:0;text-align:start;text-decoration:none;text-decoration-line:none;text-decoration-style:solid;text-decoration-color:#000000;letter-spacing:normal;word-spacing:normal;text-transform:none;writing-mode:lr-tb;direction:ltr;text-orientation:mixed;dominant-baseline:auto;baseline-shift:baseline;text-anchor:start;white-space:normal;shape-padding:0;clip-rule:nonzero;display:inline;overflow:visible;visibility:visible;opacity:0.2;isolation:auto;mix-blend-mode:normal;color-interpolation:sRGB;color-interpolation-filters:linearRGB;solid-color:#000000;solid-opacity:1;vector-effect:none;fill-opacity:1;fill-rule:evenodd;stroke:none;color-rendering:auto;image-rendering:auto;shape-rendering:auto;text-rendering:auto;enable-background:accumulate"
       d="M 61.785156,24.201172 V 44.625 l -12.90625,6.294922 a 0.750075,0.750075 0 0 0 -0.195312,0.136719 l -0.46875,0.457031 -7.523438,-14.679688 9.017578,8.796875 a 0.750075,0.750075 0 0 0 1.191407,-0.195312 z"
       id="path3734"
       inkscape:connector-curvature="0" />
    <path
       style="color:#000000;font-style:normal;font-variant:normal;font-weight:normal;font-stretch:normal;font-size:medium;line-height:normal;font-family:sans-serif;font-variant-ligatures:normal;font-variant-position:normal;font-variant-caps:normal;font-variant-numeric:normal;font-variant-alternates:normal;font-feature-settings:normal;text-indent:0;text-align:start;text-decoration:none;text-decoration-line:none;text-decoration-style:solid;text-decoration-color:#000000;letter-spacing:normal;word-spacing:normal;text-transform:none;writing-mode:lr-tb;direction:ltr;text-orientation:mixed;dominant-baseline:auto;baseline-shift:baseline;text-anchor:start;white-space:normal;shape-padding:0;clip-rule:nonzero;display:inline;overflow:visible;visibility:visible;opacity:0.2;isolation:auto;mix-blend-mode:normal;color-interpolation:sRGB;color-interpolation-filters:linearRGB;solid-color:#000000;solid-opacity:1;vector-effect:none;fill-opacity:1;fill-rule:evenodd;stroke:none;color-rendering:auto;image-rendering:auto;shape-rendering:auto;text-rendering:auto;enable-background:accumulate"
       d="m 63.285156,24.201172 10.882813,21.234375 a 0.750075,0.750075 0 0 0 1.191406,0.195312 l 9.017578,-8.796875 -7.523437,14.679688 -0.46875,-0.457031 A 0.750075,0.750075 0 0 0 76.189453,50.919922 L 63.285156,44.625 Z"
       id="path3891"
       inkscape:connector-curvature="0" />
    <path
       style="color:#000000;font-style:normal;font-variant:normal;font-weight:normal;font-stretch:normal;font-size:medium;line-height:normal;font-family:sans-serif;font-variant-ligatures:normal;font-variant-position:normal;font-variant-caps:normal;font-variant-numeric:normal;font-variant-alternates:normal;font-feature-settings:normal;text-indent:0;text-align:start;text-decoration:none;text-decoration-line:none;text-decoration-style:solid;text-decoration-color:#000000;letter-spacing:normal;word-spacing:normal;text-transform:none;writing-mode:lr-tb;direction:ltr;text-orientation:mixed;dominant-baseline:auto;baseline-shift:baseline;text-anchor:start;white-space:normal;shape-padding:0;clip-rule:nonzero;display:inline;overflow:visible;visibility:visible;opacity:1;isolation:auto;mix-blend-mode:normal;color-interpolation:sRGB;color-interpolation-filters:linearRGB;solid-color:#000000;solid-opacity:1;vector-effect:none;fill-opacity:1;fill-rule:evenodd;stroke:none;stroke-width:1.5;stroke-linecap:butt;stroke-linejoin:round;stroke-miterlimit:4;stroke-dasharray:none;stroke-dashoffset:0;stroke-opacity:1;color-rendering:auto;image-rendering:auto;shape-rendering:auto;text-rendering:auto;enable-background:accumulate"
       d="m 95.013673,83.5 h 10.812497 v 11.53125 a 0.750075,0.750075 0 0 0 0.75,0.75 h 11.5625 v 10.8125 h -11.5625 a 0.750075,0.750075 0 0 0 -0.75,0.75 v 11.5625 H 95.013673 v -11.5625 a 0.750075,0.750075 0 0 0 -0.75,-0.75 h -11.5625 v -10.8125 h 11.5625 a 0.750075,0.750075 0 0 0 0.75,-0.75 z"
       id="path5212"
       inkscape:connector-curvature="0" />
  </g>
</svg>
