<?xml version="1.0" standalone="no"?>
<!DOCTYPE svg PUBLIC "-//W3C//DTD SVG 20010904//EN"
 "http://www.w3.org/TR/2001/REC-SVG-20010904/DTD/svg10.dtd">
<svg version="1.0" xmlns="http://www.w3.org/2000/svg"
 width="1956.326897pt" height="709.692284pt" viewBox="0 0 1956.326897 709.692284"
 preserveAspectRatio="xMidYMid meet" id="root">
<metadata>
Created by potrace 1.12, written by Peter Selinger 2001-2015
</metadata>
<g transform="translate(-17.000000,756.856899) scale(0.100000,-0.100000)" stroke="none">
<path d="M9535 7559 c-110 -15 -271 -56 -369 -95 -210 -83 -387 -202 -561
-378 -328 -331 -481 -734 -462 -1211 10 -231 48 -409 129 -593 172 -392 581
-755 1001 -888 31 -9 57 -21 57 -25 0 -5 -82 -135 -182 -289 -101 -154 -248
-380 -328 -503 -79 -122 -200 -307 -267 -410 -68 -103 -123 -190 -123 -192 0
-3 301 -5 668 -5 648 0 669 1 678 19 8 17 477 727 1173 1774 247 371 311 488
375 678 59 177 77 283 83 479 6 203 -9 337 -58 502 -140 474 -557 905 -1031
1062 -186 63 -280 77 -508 81 -113 2 -236 -1 -275 -6z m370 -1125 c148 -38
273 -159 325 -315 42 -122 14 -328 -63 -464 -28 -50 -128 -126 -204 -156 -79
-30 -228 -38 -306 -15 -70 20 -194 103 -247 164 -165 191 -152 482 30 661 61
60 152 115 216 130 62 14 185 12 249 -5z"/>
<path d="M12950 7555 c-305 -51 -563 -192 -787 -429 -209 -221 -326 -476 -352
-772 -25 -265 34 -511 170 -721 l41 -62 -82 -89 c-254 -276 -381 -574 -397
-932 -19 -434 125 -825 426 -1151 237 -256 543 -428 891 -500 126 -26 420 -36
556 -19 360 44 672 203 930 472 231 241 370 515 431 848 25 136 25 471 0 594
-22 109 -60 230 -98 315 -63 139 -204 322 -327 423 l-43 36 48 63 c130 172
193 375 193 617 0 354 -146 685 -411 937 -222 211 -469 333 -755 375 -94 13
-342 11 -434 -5z m392 -987 c79 -36 142 -98 181 -177 29 -60 32 -73 32 -161 0
-82 -4 -103 -27 -152 -71 -152 -214 -239 -372 -224 -141 13 -259 96 -319 224
-28 60 -31 77 -31 157 0 98 17 151 70 220 38 51 116 105 182 126 83 28 208 22
284 -13z m1 -1578 c203 -63 348 -253 363 -475 20 -288 -173 -536 -449 -575
-243 -34 -463 80 -570 295 -56 114 -68 283 -29 411 51 166 192 302 363 348 83
22 243 20 322 -4z"/>
<path d="M16300 7559 c-361 -46 -683 -215 -898 -472 -173 -205 -260 -393 -302
-648 -34 -213 -42 -487 -38 -1394 5 -912 5 -920 60 -1145 94 -386 319 -675
669 -860 240 -125 500 -177 843 -167 284 8 498 59 708 169 344 179 563 461
662 853 61 242 61 251 61 1285 0 1006 -1 1044 -50 1285 -42 205 -114 391 -203
523 -53 77 -186 217 -268 283 -185 147 -438 247 -721 284 -122 16 -412 18
-523 4z m435 -968 c74 -37 117 -82 156 -166 64 -136 62 -106 66 -1155 4 -991
1 -1094 -37 -1204 -53 -154 -156 -235 -313 -244 -144 -9 -254 41 -338 152 -47
62 -74 145 -89 271 -16 141 -8 1978 9 2053 50 220 197 339 405 328 62 -3 91
-11 141 -35z"/>
<path d="M5705 7543 c-261 -31 -458 -76 -641 -148 -535 -209 -992 -632 -1244
-1149 -157 -321 -223 -626 -222 -1021 0 -225 8 -318 48 -514 115 -572 487
-1126 979 -1456 129 -87 348 -193 502 -244 151 -50 375 -96 547 -112 186 -17
514 -6 681 23 l130 23 3 609 c2 485 0 607 -10 603 -81 -30 -252 -78 -327 -91
-179 -30 -395 -15 -560 40 -380 126 -669 450 -757 849 -22 96 -29 329 -15 438
34 255 145 480 326 662 324 325 767 418 1237 260 57 -19 104 -35 106 -35 1 0
1 273 0 607 l-3 607 -60 12 c-149 30 -313 44 -498 43 -106 -1 -205 -4 -222 -6z"/>
<path d="M170 5221 l0 -2251 600 0 600 0 0 1707 0 1706 248 -6 c264 -7 359
-16 438 -42 113 -38 201 -122 245 -232 20 -50 23 -77 23 -188 1 -114 -2 -137
-23 -188 -50 -126 -164 -236 -298 -287 -88 -34 -241 -39 -356 -11 -49 12 -90
21 -93 21 -2 0 -4 -270 -4 -599 l0 -599 28 -6 c127 -25 179 -30 332 -30 122 0
203 5 267 17 336 63 609 204 851 441 275 267 435 572 487 926 23 156 16 440
-15 585 -81 383 -295 719 -602 949 -249 186 -458 256 -932 313 -106 13 -289
16 -963 20 l-833 5 0 -2251z"/>
<path d="M18530 5220 l0 -2250 595 0 595 0 0 1738 c0 956 3 1969 7 2250 l6
512 -601 0 -602 0 0 -2250z"/>
<path d="M6430 5215 l0 -335 680 0 680 0 -2 333 -3 332 -677 3 -678 2 0 -335z"/>
<path d="M4020 1729 c-178 -18 -305 -107 -345 -242 -28 -95 -13 -192 44 -278
59 -88 149 -135 378 -195 166 -44 219 -67 245 -108 24 -39 19 -102 -12 -145
-36 -52 -92 -74 -195 -79 -83 -3 -94 -1 -145 25 -64 32 -114 99 -125 164 l-7
41 -52 -6 c-28 -3 -81 -8 -118 -12 -67 -6 -68 -7 -68 -35 0 -17 9 -57 21 -91
63 -187 202 -282 434 -295 194 -11 341 33 432 130 121 128 131 339 22 477 -53
67 -160 118 -358 170 -162 43 -243 77 -261 109 -13 25 -13 77 0 102 18 33 89
62 165 67 127 8 199 -29 233 -119 10 -28 21 -50 25 -50 4 1 59 1 123 1 l117 0
-7 53 c-30 227 -236 346 -546 316z"/>
<path d="M5280 1729 c-129 -11 -200 -38 -297 -110 -56 -42 -131 -139 -161
-210 -55 -127 -70 -366 -33 -511 54 -212 199 -359 401 -409 81 -21 280 -18
355 5 191 57 327 198 381 396 25 90 26 328 1 419 -30 111 -74 190 -148 264
-123 123 -287 175 -499 156z m238 -244 c101 -55 155 -145 174 -289 29 -225
-45 -412 -190 -483 -49 -24 -69 -28 -142 -28 -73 0 -93 4 -142 28 -122 60
-184 171 -195 348 -13 221 50 362 192 431 56 27 67 29 155 26 82 -3 102 -8
148 -33z"/>
<path d="M10539 1729 c-222 -22 -387 -163 -459 -394 -31 -100 -39 -291 -16
-405 60 -301 302 -484 600 -455 193 19 324 107 401 270 59 126 61 119 -57 155
-57 17 -111 34 -120 36 -10 3 -18 1 -18 -5 0 -30 -47 -129 -78 -163 -55 -61
-104 -82 -192 -82 -84 0 -151 27 -202 81 -75 79 -112 263 -90 441 15 115 44
185 101 240 135 130 392 78 443 -90 6 -21 14 -38 17 -38 3 1 58 13 121 29 131
32 127 25 80 128 -84 183 -280 276 -531 252z"/>
<path d="M11779 1729 c-244 -24 -416 -173 -480 -416 -16 -60 -21 -109 -21
-213 -1 -215 40 -333 156 -457 65 -70 149 -122 241 -149 85 -26 297 -26 380 0
193 58 328 201 381 406 24 90 25 311 1 400 -81 305 -321 462 -658 429z m250
-244 c64 -35 111 -90 142 -165 18 -44 23 -81 27 -181 6 -187 -21 -282 -105
-367 -64 -63 -120 -85 -223 -86 -69 -1 -95 4 -138 23 -67 30 -143 113 -174
189 -20 51 -23 74 -23 207 0 189 17 240 104 326 75 74 118 89 241 86 83 -2
102 -6 149 -32z"/>
<path d="M170 1100 l0 -610 125 0 125 0 0 228 0 229 183 6 c249 9 326 31 410
121 93 99 120 302 57 443 -25 56 -89 124 -143 151 -73 36 -135 42 -453 42
l-304 0 0 -610z m519 400 c36 -5 76 -18 90 -28 101 -74 94 -223 -13 -283 -37
-21 -56 -24 -193 -27 l-153 -4 0 176 0 176 103 0 c56 0 131 -5 166 -10z"/>
<path d="M1310 1100 l0 -610 465 0 465 0 0 105 0 105 -340 0 -340 0 0 165 0
165 305 0 305 0 0 100 0 100 -305 0 -305 0 0 140 0 140 325 0 325 0 0 100 0
100 -450 0 -450 0 0 -610z"/>
<path d="M2450 1100 l0 -610 120 0 120 0 0 255 0 255 77 0 c141 0 155 -13 378
-347 l108 -163 144 0 c78 0 143 2 143 5 0 9 -202 329 -240 380 -44 58 -79 93
-134 129 -23 16 -33 27 -25 30 172 48 220 81 272 182 27 52 38 153 26 220 -27
146 -117 236 -264 263 -35 7 -194 11 -392 11 l-333 0 0 -610z m668 387 c94
-51 98 -204 5 -264 -23 -16 -55 -18 -230 -21 l-203 -3 0 149 c0 82 3 152 8
156 4 4 93 6 197 4 157 -3 196 -7 223 -21z"/>
<path d="M6142 1103 l3 -608 112 -3 113 -3 2 401 3 400 245 -397 246 -398 122
-3 122 -3 0 611 0 610 -110 0 -110 0 0 -400 c0 -220 -3 -400 -7 -400 -5 0
-118 180 -253 400 l-245 400 -123 0 -122 0 2 -607z"/>
<path d="M7500 1133 c-123 -318 -230 -593 -237 -611 l-14 -33 133 3 132 3 49
138 50 137 246 0 247 0 50 -137 51 -138 131 -3 c73 -1 132 1 132 5 0 4 -108
279 -241 611 l-242 602 -131 0 -132 0 -224 -577z m440 67 c44 -117 79 -215 77
-217 -3 -2 -76 -2 -165 -1 l-160 3 74 205 c41 113 77 211 79 219 3 8 8 12 10
9 3 -2 41 -100 85 -218z"/>
<path d="M12650 1100 l0 -611 113 3 112 3 3 465 4 465 117 -465 117 -465 119
0 119 0 115 462 c64 255 119 463 124 463 4 0 7 -209 7 -465 l0 -465 110 0 110
0 0 610 0 610 -183 0 -184 0 -103 -397 c-57 -219 -106 -404 -109 -411 -4 -7
-53 164 -110 380 -56 216 -104 401 -107 411 -5 15 -23 17 -190 17 l-184 0 0
-610z"/>
<path d="M14070 1100 l0 -610 125 0 125 0 0 228 0 229 183 6 c113 4 205 12
242 22 66 17 149 69 182 113 86 117 104 291 43 429 -25 56 -89 124 -143 151
-73 36 -135 42 -453 42 l-304 0 0 -610z m519 400 c36 -5 76 -18 90 -28 101
-74 94 -223 -13 -283 -37 -21 -56 -24 -193 -27 l-153 -4 0 176 0 176 103 0
c56 0 131 -5 166 -10z"/>
<path d="M15210 1323 c0 -499 9 -585 73 -679 71 -107 186 -160 366 -171 281
-15 451 76 507 272 15 51 18 124 22 513 l4 452 -126 0 -125 0 -3 -447 c-3
-401 -5 -451 -20 -479 -41 -75 -130 -112 -239 -100 -102 10 -169 60 -198 145
-7 23 -11 167 -11 457 l0 424 -125 0 -125 0 0 -387z"/>
<path d="M16350 1610 l0 -100 185 0 185 0 0 -510 0 -510 120 0 120 0 2 508 3
507 178 3 177 2 0 100 0 100 -485 0 -485 0 0 -100z"/>
<path d="M17482 1103 l3 -608 463 -3 462 -2 0 105 0 105 -340 0 -340 0 0 165
0 165 305 0 305 0 0 100 0 100 -302 2 -303 3 -3 138 -3 137 331 0 330 0 0 100
0 100 -455 0 -455 0 2 -607z"/>
<path d="M18620 1100 l0 -610 125 0 125 0 0 255 0 255 73 0 c88 0 140 -22 188
-78 19 -22 93 -128 164 -236 l130 -195 143 -1 c78 0 142 4 142 9 0 17 -216
352 -259 402 -24 28 -66 68 -93 90 -29 23 -44 40 -36 43 139 39 186 66 238
138 91 125 75 333 -34 441 -87 87 -143 97 -568 97 l-338 0 0 -610z m630 399
c105 -24 147 -128 93 -232 -28 -56 -75 -67 -285 -67 l-188 0 0 155 0 155 168
0 c92 0 187 -5 212 -11z"/>
<path d="M8612 1098 l3 -603 428 -3 427 -2 0 105 0 105 -305 0 -305 0 0 500 0
500 -125 0 -125 0 2 -602z"/>
</g>
</svg>
