<?xml version="1.0" encoding="UTF-8" standalone="no"?>
<!-- Created with Inkscape (http://www.inkscape.org/) -->

<svg
   xmlns:dc="http://purl.org/dc/elements/1.1/"
   xmlns:cc="http://creativecommons.org/ns#"
   xmlns:rdf="http://www.w3.org/1999/02/22-rdf-syntax-ns#"
   xmlns:svg="http://www.w3.org/2000/svg"
   xmlns="http://www.w3.org/2000/svg"
   xmlns:sodipodi="http://sodipodi.sourceforge.net/DTD/sodipodi-0.dtd"
   xmlns:inkscape="http://www.inkscape.org/namespaces/inkscape"
   version="1.1"
   id="svg4697"
   width="180"
   height="180"
   viewBox="0 0 648 648"
   sodipodi:docname="nintendogamecube-symbolic.svg"
   inkscape:version="0.92.3 (2405546, 2018-03-11)">
  <metadata
     id="metadata4703">
    <rdf:RDF>
      <cc:Work
         rdf:about="">
        <dc:format>image/svg+xml</dc:format>
        <dc:type
           rdf:resource="http://purl.org/dc/dcmitype/StillImage" />
        <dc:title></dc:title>
      </cc:Work>
    </rdf:RDF>
  </metadata>
  <defs
     id="defs4701" />
  <sodipodi:namedview
     pagecolor="#ffffff"
     bordercolor="#666666"
     borderopacity="1"
     objecttolerance="10"
     gridtolerance="10"
     guidetolerance="10"
     inkscape:pageopacity="0"
     inkscape:pageshadow="2"
     inkscape:window-width="1870"
     inkscape:window-height="1014"
     id="namedview4699"
     showgrid="false"
     scale-x="3.6"
     inkscape:zoom="4.2914382"
     inkscape:cx="134.34595"
     inkscape:cy="108.97577"
     inkscape:window-x="49"
     inkscape:window-y="28"
     inkscape:window-maximized="0"
     inkscape:current-layer="svg4697" />
  <path
     style="stroke-width:1.21518993"
     d="m 60.709499,598.59186 c -7.33666,-1.44591 -11.30024,-3.82456 -17.6058,-10.56572 -17.81888,-19.04982 -27.92066,-64.27548 -29.79163,-133.37707 -0.43737,-16.1539 -0.0666,-40.6809 0.93678,-61.97469 1.86362,-39.54858 1.90978,-45.61406 0.5187,-68.15813 -1.66638,-27.00578 2.06851,-47.32326 12.74397,-69.32598 8.46244,-17.44156 20.51941,-32.12116 34.78237,-42.34829 3.00869,-2.15735 5.6374,-5.31488 6.5629,-7.88321 0.84915,-2.35641 2.89328,-6.47174 4.5425,-9.14516 12.15777,-19.70789 33.800131,-28.11524 64.003641,-24.86333 12.37528,1.33241 12.95829,1.28429 20.38178,-1.68207 29.64187,-11.84465 80.2216,-20.1194 138.1159,-22.59553 24.74258,-1.05822 25.61912,-1.29465 25.65949,-6.92088 0.0361,-5.0266 9.53449,-21.79302 15.51541,-27.38746 9.15407,-8.56257 15.2858,-11.50082 29.80935,-14.284306 15.34683,-2.94126 20.94571,-5.50014 26.67197,-12.18999 5.08504,-5.94072 7.00922,-11.90953 7.00922,-21.742556 0,-6.436369 0.45961,-7.949168 3.42251,-11.265229 6.29065,-7.040468 17.85177,-4.488375 21.73525,4.798017 3.98478,9.528597 -1.05986,30.903926 -10.08704,42.741134 -7.44165,9.75814 -15.05365,14.19788 -34.37738,20.05079 -23.84754,7.2231 -31.72427,12.42012 -33.68532,22.22533 l -0.71896,3.59477 16.83015,0.84846 c 46.16159,2.32715 97.71152,11.09799 122.62272,20.86337 4.96369,1.94579 10.68583,3.27922 13.90364,3.23996 3.0076,-0.0367 12.03038,-0.22981 20.05064,-0.42912 21.11948,-0.52487 32.98214,3.10543 45.21715,13.83766 4.96924,4.35887 11.38736,13.87832 13.69064,20.30614 0.92318,2.57635 3.53613,5.71912 6.55422,7.88321 14.26297,10.22713 26.31992,24.90673 34.78237,42.34829 10.67546,22.00272 14.41036,42.3202 12.74397,69.32598 -1.39108,22.54407 -1.34492,28.60955 0.5187,68.15813 5.40976,114.80217 -9.3369,190.24561 -39.84697,203.85592 -7.42404,3.3118 -17.32549,3.19304 -25.41108,-0.30481 -7.64116,-3.30559 -17.57908,-13.66513 -23.07644,-24.05544 -11.50617,-21.74735 -19.18748,-57.7974 -22.29116,-104.61719 l -1.4807,-22.33673 -5.26784,10.48347 c -2.8973,5.76592 -6.91086,14.61955 -8.91899,19.67474 -6.0803,15.30628 -9.3733,20.81233 -17.77157,29.71494 -9.30728,9.8662 -20.55686,17.65156 -32.63218,22.58335 -7.70643,3.14745 -9.87757,3.47694 -23.08861,3.50378 -12.233,0.0248 -15.92571,-0.43413 -22.92109,-2.84898 -17.39932,-6.00634 -41.48679,-26.1194 -51.66384,-43.13936 -7.41182,-12.39541 -10.12959,-21.76015 -10.27351,-35.39976 -0.27367,-25.93944 10.41873,-47.92958 35.94705,-73.92924 10.75437,-10.95292 11.8481,-12.48937 11.8481,-16.64381 0,-4.46437 -0.142,-4.60951 -5.77215,-5.90032 -8.74427,-2.00478 -24.23664,-3.62221 -46.78482,-4.88443 -27.27553,-1.52684 -69.9113,0.85335 -87.49367,4.88443 -5.63016,1.29081 -5.77215,1.43595 -5.77215,5.90032 0,4.15444 1.09373,5.69089 11.8481,16.64381 24.96755,25.42852 36.05233,47.79833 36.03155,72.71405 -0.0164,19.71823 -7.0152,35.58062 -23.41572,53.0707 -10.67104,11.37996 -27.03172,22.68806 -38.60613,26.68361 -6.99539,2.41485 -10.6881,2.87383 -22.9211,2.84898 -13.21103,-0.0269 -15.38218,-0.35633 -23.08861,-3.50378 -12.07531,-4.93179 -23.3249,-12.71715 -32.63217,-22.58335 -8.39828,-8.90261 -11.69127,-14.40866 -17.77157,-29.71494 -2.00814,-5.05519 -6.02169,-13.90882 -8.919,-19.67474 l -5.26783,-10.48347 -1.4807,22.33673 c -5.46074,82.3767 -24.05649,126.9398 -54.840131,131.41958 -2.33924,0.34042 -6.53543,0.16916 -9.32488,-0.38058 z M 444.8228,498.82843 c 10.7474,-2.7697 20.17314,-5.64058 20.94611,-6.37975 0.77297,-0.73915 5.86609,-9.34793 11.31805,-19.13062 l 9.91264,-17.78671 -5.64408,-18.66899 c -3.10425,-10.26794 -6.28344,-19.30896 -7.06488,-20.09114 -2.36127,-2.36352 -33.17559,-19.84366 -34.98115,-19.84388 -2.50078,-3e-4 -36.70166,8.4508 -38.28346,9.45992 -0.74955,0.47817 -6.14846,8.23612 -11.99758,17.23988 l -10.63477,16.37048 4.66691,20.62718 c 2.72446,12.04178 5.44204,21.2835 6.52922,22.20403 1.83503,1.55374 34.19074,20.83722 35.18236,20.96812 0.28044,0.0371 9.30323,-2.19881 20.05063,-4.96852 z m -35.82516,-11.59641 -15.2646,-9.13042 -3.90531,-17.19462 c -2.14791,-9.45704 -3.89149,-17.95064 -3.87462,-18.87466 0.0169,-0.92401 4.17585,-8.13052 9.2422,-16.01446 l 9.21154,-14.33444 15.39606,-3.66629 c 8.46783,-2.01646 16.28307,-3.83273 17.36721,-4.03617 2.0383,-0.38247 30.44669,15.09369 32.37702,17.63817 1.1648,1.53539 10.05868,30.99519 9.97169,33.02994 -0.0285,0.66836 -4.05231,8.32405 -8.94167,17.01266 l -8.88972,15.79747 -16.28221,4.47283 c -8.95522,2.46006 -17.37589,4.46329 -18.7126,4.45161 -1.33671,-0.0121 -9.29946,-4.1299 -17.69499,-9.15162 z m 37.13803,-7.66418 c 20.24023,-8.87729 25.0689,-36.42131 9.17179,-52.31841 -16.56355,-16.56355 -44.52091,-10.55606 -52.89289,11.36565 -2.62199,6.86561 -2.10422,19.99385 1.02741,26.04973 7.97232,15.41679 26.65401,21.93798 42.69369,14.90303 z m -24.3038,-5.89028 c -13.76585,-6.5617 -18.85627,-21.52291 -12.00254,-35.27655 8.06727,-16.18891 29.2093,-19.11645 41.52952,-5.75058 11.04638,11.9839 9.09386,29.4581 -4.3471,38.90476 -6.74257,4.73884 -17.74515,5.66624 -25.17988,2.12237 z m -190.72959,25.98877 c 2.80681,-2.8068 2.98275,-3.77445 2.98275,-16.40507 v -13.42232 h 13.23247 c 18.28464,0 18.82817,-0.47561 19.3897,-16.96679 0.74143,-21.77418 -0.39077,-23.13447 -19.25508,-23.13447 h -13.36709 v -13.42232 c 0,-12.63061 -0.17594,-13.59827 -2.98275,-16.40507 -2.80525,-2.80526 -3.77798,-2.98274 -16.34788,-2.98274 -7.40129,0 -14.71929,0.61699 -16.39981,1.38269 -4.21438,1.92019 -5.58602,6.84701 -5.58602,20.06446 v 11.36298 H 179.7836 c -11.65951,0 -13.27207,0.26971 -15.79747,2.6422 -2.64484,2.4847 -2.8125,3.53508 -2.8125,17.62025 0,19.8983 -0.0546,19.83881 18.22785,19.83881 h 13.36709 v 11.4652 c 0,12.06969 1.17185,17.08014 4.60473,19.68826 1.42565,1.08314 6.58248,1.59153 16.41253,1.61803 13.62356,0.0367 14.4815,-0.10912 17.31645,-2.9441 z m -30.23244,-3.90334 c -0.44558,-0.44556 -0.81013,-7.81197 -0.81013,-16.36978 v -15.55967 l -16.10127,-0.33907 -16.10127,-0.33907 v -13.36709 -13.36709 l 16.10127,-0.33907 16.10127,-0.33907 v -15.63219 c 0,-13.1335 0.30725,-15.75007 1.92217,-16.36978 3.58275,-1.37483 23.04433,-0.80402 24.56897,0.72062 0.97572,0.97572 1.45823,6.39193 1.45823,16.36875 v 14.91054 l 15.49367,0.34009 15.49367,0.34011 v 13.36709 13.36709 l -15.49367,0.34011 -15.49367,0.34009 v 14.91054 c 0,9.97682 -0.48251,15.39303 -1.45823,16.36876 -1.55455,1.55454 -24.203,2.1261 -25.68101,0.64809 z M 142.94578,382.14512 c 3.0076,-0.7027 10.51561,-3.68616 16.68449,-6.62992 18.6742,-8.91126 32.64784,-24.78047 40.1743,-45.62409 2.88198,-7.9813 3.21839,-10.6277 3.21839,-25.318 0,-14.69029 -0.33641,-17.3367 -3.21839,-25.31799 -4.6132,-12.7757 -10.07372,-21.37087 -19.87751,-31.28835 -6.73185,-6.80992 -11.06607,-9.91701 -20.05063,-14.37374 -27.06709,-13.42648 -55.05374,-11.69313 -80.380381,4.97834 -34.70578,22.84537 -45.3326,70.60301 -23.82617,107.07641 11.33995,19.23177 33.93451,34.29597 56.863191,37.91172 7.55038,1.19065 22.17371,0.51057 30.41271,-1.41438 z m -36.71286,-6.54587 c -19.181991,-4.6507 -38.879321,-20.47645 -47.565091,-38.21601 -10.50653,-21.45821 -10.51187,-44.10822 -0.0155,-65.62026 3.359,-6.88416 6.85616,-11.4957 14.29424,-18.84916 15.22927,-15.05602 30.146121,-21.2521 51.163731,-21.2521 20.91622,0 35.95403,6.25035 51.16372,21.26582 7.4479,7.3528 10.93081,11.94219 14.29423,18.83544 14.23143,29.16682 9.02589,60.87181 -13.79036,83.99173 -7.27628,7.37312 -11.23849,10.2573 -19.46506,14.16901 -5.68101,2.70129 -13.22692,5.50756 -16.76867,6.23612 -8.64362,1.77806 -24.78586,1.5064 -33.31128,-0.56059 z m 28.68159,-29.11862 c 19.42476,-5.05951 32.27738,-21.74679 32.27738,-41.90752 0,-15.48091 -6.50712,-27.66293 -19.36148,-36.24674 -28.84726,-19.26346 -66.801631,1.33069 -66.801631,36.24674 0,15.25329 6.50519,27.64883 18.789127,35.80245 11.128644,7.38678 22.548904,9.37333 35.096604,6.10507 z m -16.5988,-5.61351 c -18.751084,-2.77791 -32.278961,-19.69644 -30.963641,-38.72439 1.54853,-22.40165 21.292781,-37.77099 43.441811,-33.81605 12.79312,2.28435 23.17889,11.01564 27.80258,23.37354 9.87751,26.40002 -12.18469,53.32925 -40.28075,49.1669 z m 419.33799,38.41882 c 20.02379,-4.72067 39.79859,-20.1474 47.95611,-37.41154 l 2.8626,-6.05826 8.51706,-0.12783 c 6.94631,-0.10428 9.34464,-0.68814 13.00428,-3.16583 5.01244,-3.39357 10.52168,-13.09996 10.52168,-18.53753 0,-8.61241 -11.95547,-49.82113 -15.91418,-54.85382 -6.10494,-7.76118 -20.14043,-10.65402 -28.30865,-5.83466 l -3.94827,2.32953 -6.98546,-5.28113 c -3.84201,-2.90463 -10.22883,-6.76988 -14.19293,-8.58945 -6.62726,-3.04197 -7.20748,-3.62396 -7.20748,-7.22949 0,-8.39245 -5.30854,-15.99113 -13.97468,-20.00342 -6.74742,-3.12395 -8.98315,-2.94192 -30.04238,2.44605 -24.62512,6.3003 -31.57933,9.02511 -36.06104,14.12949 -6.74136,7.678 -7.49375,19.26983 -1.81343,27.93909 1.76011,2.68626 1.58456,3.3106 -3.12756,11.12339 -6.27119,10.39778 -9.55563,20.92705 -10.54569,33.80747 l -0.77266,10.05189 -4.51984,0.60623 c -25.06523,3.36196 -35.43551,35.74392 -16.82996,52.55291 6.61499,5.97626 12.32076,8.17818 21.07964,8.13492 8.54003,-0.0422 13.96889,-2.11673 20.60846,-7.8752 l 4.81098,-4.17253 7.53287,5.1572 c 7.75471,5.30908 18.06057,9.75229 26.592,11.46472 8.0142,1.60861 22.59149,1.32321 30.75853,-0.6022 z m -32.15968,-6.57129 c -9.79908,-2.65109 -16.76701,-5.93861 -24.34982,-11.48845 -4.69387,-3.43541 -5.09832,-4.13542 -4.29756,-7.43789 1.65644,-6.83135 0.81564,-16.79222 -1.85334,-21.95631 -2.98526,-5.77607 -10.23866,-12.67991 -15.69752,-14.94105 -4.83331,-2.00202 -5.53826,-4.80271 -4.088,-16.24122 1.36397,-10.75781 4.74167,-20.31659 9.96638,-28.20448 3.68835,-5.56837 3.9404,-5.71553 8.18102,-4.77626 7.82718,1.73366 12.72423,0.94936 22.05759,-3.53267 7.06585,-3.39313 11.81621,-4.72155 20.65822,-5.77695 14.43447,-1.72295 17.11327,-2.75688 22.45143,-8.66558 l 4.31171,-4.77255 7.83128,3.85532 c 4.3072,2.12043 9.81931,5.57385 12.24913,7.67427 l 4.41784,3.81892 -2.04741,6.03054 c -2.52997,7.45186 -1.83661,11.67358 3.70225,22.54202 3.20088,6.28084 4.49624,10.78368 5.45736,18.97057 1.74989,14.90572 1.92708,15.54508 5.47733,19.7643 2.7285,3.24265 2.98555,4.23164 1.90527,7.33054 -3.45583,9.91338 -16.28138,24.37049 -27.40158,30.88735 -13.85766,8.12113 -33.97504,10.966 -48.93158,6.91958 z m 31.73126,-23.2653 c 9.45242,-3.53661 18.83486,-12.44712 23.20835,-22.04102 2.9093,-6.38196 3.48524,-9.25181 3.48524,-17.36686 0,-8.09065 -0.57836,-10.99001 -3.44754,-17.28288 -14.98096,-32.8572 -61.77144,-32.9084 -76.73488,-0.084 -2.90929,6.38196 -3.48523,9.25181 -3.48523,17.36686 0,8.11505 0.57594,10.9849 3.48523,17.36686 4.26659,9.35936 13.75326,18.48021 22.86338,21.98172 8.74566,3.36143 21.73249,3.38658 30.62545,0.0593 z m -27.55876,-5.91545 c -9.01779,-3.52534 -14.99878,-9.0248 -19.2859,-17.73318 -14.36594,-29.18138 13.93705,-60.49417 44.38307,-49.10286 24.42785,9.13962 30.79684,40.71044 11.92109,59.09228 -9.60477,9.35343 -24.78031,12.52796 -37.01826,7.74376 z m -72.03718,23.74243 c -8.49619,-3.74453 -14.14835,-12.42896 -14.23318,-21.869 -0.18015,-20.04898 21.18282,-31.19292 38.03113,-19.83885 11.61515,7.82746 13.03565,26.69332 2.73197,36.28363 -7.4514,6.93549 -18.14167,9.12119 -26.52992,5.42422 z m 155.54431,-38.07467 c -4.07985,-1.02151 -8.72372,-4.93954 -10.06967,-8.49575 -0.70219,-1.85531 -1.58747,-7.21932 -1.96727,-11.92 -0.76474,-9.46498 -3.26229,-17.8329 -7.57131,-25.36743 -7.46675,-13.05594 0.91795,-27.49627 15.04123,-25.90438 10.42756,1.17534 13.45434,6.61025 21.50642,38.61708 4.24764,16.88423 4.26292,21.05368 0.1005,27.40631 -3.24739,4.95614 -10.38793,7.3297 -17.03993,5.66417 z M 472.15586,259.27081 c -5.05009,-3.40325 -7.14339,-7.33084 -7.16683,-13.44692 -0.0403,-10.51366 5.35393,-14.31726 29.75424,-20.98036 30.62821,-8.36378 38.76412,-6.74225 42.41337,8.45315 1.12198,4.6719 -3.27828,13.65712 -7.84456,16.01844 -1.90342,0.9843 -5.57484,1.78964 -8.1587,1.78964 -8.67423,0 -19.05672,2.56163 -27.41828,6.76481 -9.88919,4.9711 -15.72008,5.34973 -21.57924,1.40124 z M 335.45174,319.0544 c 11.36504,-7.78746 12.38367,-24.32938 2.03442,-33.03771 -13.84714,-11.65159 -34.13531,-2.05447 -34.13531,16.14736 0,7.79538 5.78103,16.16003 13.36709,19.34107 4.78837,2.00789 13.9821,0.80518 18.7338,-2.45072 z m -20.94159,-6.98223 c -12.39107,-11.57499 2.27871,-31.0677 16.88674,-22.43853 8.01056,4.73196 9.06529,15.94237 2.11113,22.43853 -2.97864,2.78247 -4.78904,3.43765 -9.49894,3.43765 -4.70989,0 -6.52029,-0.65518 -9.49893,-3.43765 z m -56.18609,-95.29653 c 1.31482,-1.2204 1.45974,-1.20716 0.73724,0.0674 -0.70074,1.23619 0.51315,1.50447 5.49836,1.21519 6.64695,-0.38571 9.65735,-2.99316 4.89391,-4.23882 -1.40713,-0.36797 -2.54103,-1.01539 -2.51977,-1.4387 0.0547,-1.08765 3.133,-5.02283 3.92922,-5.02283 0.36408,0 2.10406,2.46076 3.86662,5.46835 2.65254,4.52621 3.82395,5.46836 6.79901,5.46836 3.1836,0 3.59435,-0.41661 3.59435,-3.64557 0,-4.62137 1.2602,-4.61889 3.89285,0.007 2.67989,4.70956 5.2364,4.60903 7.92104,-0.31148 l 2.15478,-3.94937 0.3838,3.94937 c 0.28805,2.96406 0.97093,3.94937 2.73719,3.94937 2.11852,0 2.35338,-0.90952 2.35338,-9.11393 0,-8.27261 -0.22207,-9.11392 -2.40568,-9.11392 -1.54167,0 -3.27055,1.63665 -4.81376,4.55696 -4.39308,8.31335 -4.29375,8.29416 -8.39877,1.62264 -5.0115,-8.14431 -7.4704,-8.17843 -7.4704,-0.10326 0,3.34177 -0.41012,6.07539 -0.91139,6.07471 -0.50126,-6.8e-4 -2.46399,-2.76556 -4.36161,-6.14416 -2.26082,-4.02528 -4.12647,-6.0127 -5.41191,-5.76515 -1.07893,0.20778 -3.90101,3.6562 -6.2713,7.66315 l -4.30961,7.28537 -0.38079,-3.94937 c -0.36687,-3.80502 -0.57782,-3.94936 -5.77215,-3.94936 -3.98219,0 -5.39136,0.47642 -5.39136,1.82278 0,1.13418 1.14767,1.82279 3.03797,1.82279 1.8903,0 3.03798,0.68861 3.03798,1.82278 0,1.35021 -1.41773,1.82279 -5.46836,1.82279 h -5.46835 v -4.80277 -4.80279 l 7.49848,-0.36177 c 4.64294,-0.22401 7.68948,-0.94024 8,-1.88077 0.37512,-1.13617 -2.12721,-1.51899 -9.92887,-1.51899 h -10.43037 v 7.0481 c 0,3.87646 0.6562,7.7043 1.45822,8.50633 1.94239,1.94238 15.81261,1.89536 17.92005,-0.0608 z m 65.68502,-0.91139 c 0,-2.1358 -0.81013,-2.43038 -6.68354,-2.43038 -3.67595,0 -6.68355,-0.54684 -6.68355,-1.21519 0,-0.66836 1.91393,-1.21519 4.25317,-1.21519 5.63945,0 5.90091,-3.33271 0.30379,-3.87238 -6.25224,-0.60283 -4.59195,-2.77418 2.43038,-3.17847 4.68053,-0.26947 6.37975,-0.85006 6.37975,-2.17982 0,-1.47273 -1.65164,-1.74558 -8.81013,-1.45548 l -8.81012,0.35703 -0.35704,8.81013 -0.35703,8.81013 h 9.16716 c 8.35703,0 9.16716,-0.21479 9.16716,-2.43038 z m 22.86553,-1.51899 c 0.30969,-2.6915 -0.10415,-3.34177 -2.12659,-3.34177 -1.3811,0 -2.51109,0.54683 -2.51109,1.21519 0,0.66835 -2.18734,1.21519 -4.86076,1.21519 -4.74502,0 -4.86076,-0.10123 -4.86076,-4.25317 0,-4.1519 0.11569,-4.25316 4.86076,-4.25316 2.67342,0 4.86076,0.54683 4.86076,1.21519 0,0.66835 1.09367,1.21519 2.43038,1.21519 1.7773,0 2.43038,-0.81013 2.43038,-3.01483 0,-3.65387 -2.79455,-4.57899 -12.21685,-4.04431 l -6.61859,0.37559 -0.3675,7.08987 c -0.49983,9.64286 0.60913,10.71971 10.58407,10.27775 7.73516,-0.34272 8.02453,-0.47013 8.39579,-3.69673 z m 20.63827,2.49114 c 0.82557,-0.82556 1.45823,-4.77974 1.45823,-9.11393 0,-6.84556 -0.25718,-7.65569 -2.43038,-7.65569 -2.13579,0 -2.43038,0.81013 -2.43038,6.68354 v 6.68355 h -5.46835 -5.46836 v -6.77265 c 0,-5.79419 -0.30724,-6.71417 -2.12658,-6.36794 -1.68214,0.32013 -2.20338,1.88399 -2.49408,7.48277 -0.21666,4.17267 0.21853,7.78419 1.06018,8.79832 1.79475,2.16255 15.79427,2.36748 17.89972,0.26203 z m 21.50886,-7.6557 v -8.50633 l -9.41772,-0.35491 -9.41772,-0.35492 v 9.21616 9.21616 l 9.41772,-0.35492 9.41772,-0.35491 z m -13.16455,4.65823 c -1.87812,-1.87812 -0.51051,-2.83544 4.05063,-2.83544 2.67342,0 4.86076,0.48833 4.86076,1.08517 0,2.10417 -7.15267,3.509 -8.91139,1.75027 z m -0.81013,-8.3038 c 0,-1.31645 1.35021,-1.82278 4.86076,-1.82278 3.51055,0 4.86076,0.50633 4.86076,1.82278 0,1.31645 -1.35021,1.82279 -4.86076,1.82279 -3.51055,0 -4.86076,-0.50634 -4.86076,-1.82279 z m 34.02532,10.32912 c 0,-2.1358 -0.81013,-2.43038 -6.68355,-2.43038 -3.67595,0 -6.68354,-0.54684 -6.68354,-1.21519 0,-0.66836 1.6405,-1.21519 3.64557,-1.21519 2.43038,0 3.64557,-0.6076 3.64557,-1.82279 0,-1.22614 -1.22644,-1.82278 -3.74683,-1.82278 -6.49813,0 -3.37977,-3.00091 3.53854,-3.40528 4.5059,-0.26336 6.28424,-0.86516 6.28424,-2.12658 0,-1.36803 -1.89175,-1.75928 -8.50633,-1.75928 h -8.50633 v 9.11392 9.11393 h 8.50633 c 7.6962,0 8.50633,-0.23147 8.50633,-2.43038 z m -4.39685,-21.01049 c 1.55446,-1.13665 2.03578,-2.85628 1.75125,-6.25669 -0.45315,-5.4155 -2.88676,-7.46304 -7.49543,-6.30633 -2.94306,0.73865 -3.22606,1.33284 -3.22606,6.77338 0,4.65787 0.46564,6.08538 2.12658,6.51942 3.72101,0.97241 4.65147,0.87319 6.84366,-0.72978 z m -5.72973,-1.67306 c -0.44557,-0.44556 -0.81013,-2.63291 -0.81013,-4.86076 0,-3.22752 0.48916,-4.05063 2.40723,-4.05063 2.98059,0 4.61361,5.29599 2.44043,7.91452 -1.6337,1.9685 -2.78232,2.25209 -4.03753,0.99687 z m -153.90359,-1.92405 0.0204,-3.94937 2.52924,3.94937 c 1.39108,2.17215 3.02238,3.94937 3.6251,3.94937 0.60272,0 1.09586,-3.0076 1.09586,-6.68355 0,-3.67595 -0.54684,-6.68354 -1.21519,-6.68354 -0.66836,0 -1.21723,1.77721 -1.21974,3.94937 l -0.005,3.94936 -2.40797,-3.94936 c -3.46761,-5.68789 -4.87371,-4.89913 -4.87371,2.73417 0,3.67595 0.54683,6.68355 1.21519,6.68355 0.66835,0 1.2244,-1.77722 1.23566,-3.94937 z m 24.28332,-2.73418 c 0,-3.67595 -0.54683,-6.68354 -1.21519,-6.68354 -0.66835,0 -1.21519,3.00759 -1.21519,6.68354 0,3.67595 0.54684,6.68355 1.21519,6.68355 0.66836,0 1.21519,-3.0076 1.21519,-6.68355 z m 17.06646,2.12659 0.0538,-4.55697 2.6804,4.54507 c 3.77157,6.39537 5.71835,5.90671 5.71835,-1.43537 0,-6.81244 -2.07103,-9.48963 -2.65847,-3.43656 l -0.38552,3.97243 -2.19486,-4.02687 c -1.20717,-2.21478 -2.84633,-3.8123 -3.64256,-3.55005 -1.82891,0.60238 -2.69079,13.04528 -0.90361,13.04528 0.70328,0 1.3029,-2.05063 1.33249,-4.55696 z m 26.68038,-0.9114 c 0,-4.05063 0.47258,-5.46835 1.82279,-5.46835 1.00253,0 1.82278,-0.54684 1.82278,-1.21519 0,-0.66836 -2.15506,-1.21519 -4.78904,-1.21519 -2.63397,0 -5.127,0.54683 -5.54007,1.21519 -0.41307,0.66835 0.37491,1.21519 1.75106,1.21519 2.15532,0 2.5021,0.75788 2.5021,5.46835 0,3.0076 0.54684,5.46836 1.21519,5.46836 0.66836,0 1.21519,-2.46076 1.21519,-5.46836 z m 21.28066,4.40383 c -2.07425,-0.4439 -3.80552,-1.68462 -4.03846,-2.89421 -0.31619,-1.64184 0.499,-2.16087 3.63073,-2.31169 l 4.03847,-0.19447 -4.02313,-0.49561 c -4.75034,-0.5852 -4.63434,-3.18468 0.16747,-3.75312 4.0502,-0.47947 4.30375,-2.65346 0.30948,-2.65346 -5.5787,0 -6.78294,1.17371 -6.78294,6.61102 0,6.27144 0.47215,6.79398 5.97469,6.6123 4.32049,-0.14266 4.32612,-0.14983 0.72369,-0.92076 z m 19.05043,-2.88484 0.38379,-3.94937 2.15479,3.94937 c 3.12029,5.719 4.52274,4.87116 4.52274,-2.73418 0,-3.67595 -0.54684,-6.68354 -1.21519,-6.68354 -0.66835,0 -1.21723,1.77721 -1.21973,3.94937 l -0.005,3.94936 -2.40797,-3.94936 c -3.46765,-5.68789 -4.87376,-4.89913 -4.87376,2.73417 0,7.18107 2.02571,9.26312 2.6602,2.73418 z m 29.92496,-2.00614 c 0.42294,-5.91127 -0.78572,-7.36307 -6.15478,-7.39298 -3.24713,-0.0181 -3.34177,0.17275 -3.34177,6.7383 v 6.7569 l 4.55696,-0.37715 c 4.45079,-0.36837 4.56588,-0.50175 4.93959,-5.72507 z m -7.06617,-0.0313 c 0,-4.18807 0.38532,-4.94986 2.50374,-4.94986 2.14928,0 2.45033,0.64368 2.12658,4.54685 -0.26358,3.17766 -1.01754,4.66821 -2.50374,4.94987 -1.74322,0.33035 -2.12658,-0.48931 -2.12658,-4.54686 z"
     id="path5278"
     inkscape:connector-curvature="0" />
  <rect
     style="fill-rule:evenodd;stroke-width:3.5999999"
     id="rect5280"
     width="193.78119"
     height="61.238213"
     x="223.98085"
     y="166.48311" />
</svg>
