<?xml version="1.0" encoding="UTF-8" standalone="no"?>
<!-- Created with Inkscape (http://www.inkscape.org/) -->

<svg
   xmlns:dc="http://purl.org/dc/elements/1.1/"
   xmlns:cc="http://creativecommons.org/ns#"
   xmlns:rdf="http://www.w3.org/1999/02/22-rdf-syntax-ns#"
   xmlns:svg="http://www.w3.org/2000/svg"
   xmlns="http://www.w3.org/2000/svg"
   xmlns:sodipodi="http://sodipodi.sourceforge.net/DTD/sodipodi-0.dtd"
   xmlns:inkscape="http://www.inkscape.org/namespaces/inkscape"
   width="256"
   height="256"
   viewBox="0 0 256 256"
   version="1.1"
   id="root"
   inkscape:version="0.92.4 (5da689c313, 2019-01-14)"
   sodipodi:docname="nintendo64-symbolic.svg">
  <defs
     id="defs4517" />
  <sodipodi:namedview
     id="base"
     pagecolor="#ffffff"
     bordercolor="#666666"
     borderopacity="1.0"
     inkscape:pageopacity="0.0"
     inkscape:pageshadow="2"
     inkscape:zoom="2.5195312"
     inkscape:cx="57.606697"
     inkscape:cy="104.86166"
     inkscape:document-units="px"
     inkscape:current-layer="layer1"
     showgrid="true"
     units="px"
     inkscape:pagecheckerboard="true"
     inkscape:window-width="1817"
     inkscape:window-height="1065"
     inkscape:window-x="2520"
     inkscape:window-y="250"
     inkscape:window-maximized="0">
    <inkscape:grid
       type="xygrid"
       id="grid4484"
       empspacing="4" />
  </sodipodi:namedview>
  <metadata
     id="metadata4520">
    <rdf:RDF>
      <cc:Work
         rdf:about="">
        <dc:format>image/svg+xml</dc:format>
        <dc:type
           rdf:resource="http://purl.org/dc/dcmitype/StillImage" />
        <dc:title></dc:title>
        <cc:license
           rdf:resource="http://creativecommons.org/publicdomain/zero/1.0/" />
      </cc:Work>
      <cc:License
         rdf:about="http://creativecommons.org/publicdomain/zero/1.0/">
        <cc:permits
           rdf:resource="http://creativecommons.org/ns#Reproduction" />
        <cc:permits
           rdf:resource="http://creativecommons.org/ns#Distribution" />
        <cc:permits
           rdf:resource="http://creativecommons.org/ns#DerivativeWorks" />
      </cc:License>
    </rdf:RDF>
  </metadata>
  <g
     inkscape:label="Lines"
     inkscape:groupmode="layer"
     id="layer1"
     transform="translate(0,-229.26666)">
    <path
       inkscape:connector-curvature="0"
       id="path2"
       d="m 155.26129,311.17627 7.20418,-8.18657 v -55.34122 l -34.3836,13.26225 v 0 l -28.48927,50.75673 28.48927,-10.97 z"
       style="stroke-width:1.63731408;opacity:0.855" />
    <path
       inkscape:connector-curvature="0"
       id="path4"
       d="m 216.3331,388.29377 v -93.32691 l 34.87479,-13.42597 v 146.86707 l -34.87479,14.73583 v 0 l -51.24793,-66.96615 v 88.5787 l -37.0033,15.55448 V 329.02299 l 37.0033,-14.0809 z"
       style="stroke-width:1.63731408;opacity:0.855" />
    <path
       inkscape:connector-curvature="0"
       id="path6"
       d="M 72.57692,428.57169 39.83064,365.04391 v 78.09988 0 z"
       style="stroke-width:1.63731408;opacity:0.855" />
    <path
       inkscape:connector-curvature="0"
       id="path8"
       d="m 74.70543,281.54089 v 0 l 16.37314,33.4012 8.51403,-3.27463 28.48927,-50.75673 -34.3836,-13.42598 z"
       style="stroke-width:1.63731408;opacity:0.491" />
    <path
       inkscape:connector-curvature="0"
       id="path10"
       d="m 155.26129,311.17627 v 0 l 26.19702,-29.63538 34.87479,13.42597 v 93.32691 l -51.24793,-73.35168 z"
       style="stroke-width:1.63731408;opacity:0.491" />
    <path
       inkscape:connector-curvature="0"
       id="path12"
       d="M 128.08187,480.31082 V 329.02299 l -37.0033,-14.0809 v 76.79003 L 39.66691,294.96686 v 0 L 4.79212,281.54089 v 146.86707 l 34.87479,14.73583 v -78.09988 l 51.41166,99.71243 z"
       style="stroke-width:1.63731408;opacity:0.491" />
    <path
       inkscape:connector-curvature="0"
       id="path14"
       d="m 39.83064,294.96686 34.87479,-13.42597 16.37314,33.4012 v 0 76.79003 z"
       style="stroke-width:1.63731408;opacity:0.343" />
    <path
       inkscape:connector-curvature="0"
       id="path16"
       d="m 165.08517,412.68974 10.47881,14.73583 40.76912,15.71822 v 0 l -51.24793,-66.96615 z"
       style="stroke-width:1.63731408;opacity:0.283" />
    <path
       inkscape:connector-curvature="0"
       id="path18"
       d="m 91.2423,314.94209 37.0033,-14.08089 37.0033,14.08089 v 0 l -37.0033,14.0809 z"
       style="stroke-width:1.63731408;opacity:0.233" />
    <path
       inkscape:connector-curvature="0"
       id="path20"
       d="m 216.3331,268.11491 34.87479,13.42598 -34.87479,13.42597 -34.87479,-13.42597 v 0 z"
       style="stroke-width:1.63731408;opacity:0.233" />
    <path
       inkscape:connector-curvature="0"
       id="path22"
       d="M 39.83064,268.11491 74.70543,281.54089 39.83064,294.96686 4.95585,281.54089 v 0 z"
       style="stroke-width:1.63731408;opacity:0.233" />
    <path
       inkscape:connector-curvature="0"
       id="path24"
       d="m 128.08187,234.22251 -34.3836,13.26224 34.3836,13.42598 34.3836,-13.26225 v 0 z"
       style="stroke-width:1.63731408;opacity:0.233" />
  </g>
</svg>
