<?xml version="1.0" encoding="iso-8859-1"?>
<!-- Generator: Adobe Illustrator 16.0.0, SVG Export Plug-In . SVG Version: 6.00 Build 0)  -->
<!DOCTYPE svg PUBLIC "-//W3C//DTD SVG 1.1//EN" "http://www.w3.org/Graphics/SVG/1.1/DTD/svg11.dtd">
<svg version="1.1" id="Capa_1" xmlns="http://www.w3.org/2000/svg" xmlns:xlink="http://www.w3.org/1999/xlink" x="0px" y="0px"
	 width="589.68px" height="589.68px" viewBox="0 0 589.68 589.68" style="enable-background:new 0 0 589.68 589.68;"
	 xml:space="preserve">
<g>
	<g>
		<path d="M484.619,296.554l-2.785-3.549c-4.744-6.047-11.934-9.657-19.242-9.657c-4.797,0-9.283,1.523-12.955,4.412l-61.984,48.183
			c-9.576,7.516-10.734,22.1-2.57,32.51l2.785,3.55c4.736,6.046,11.934,9.657,19.242,9.657c4.797,0,9.283-1.523,12.955-4.406
			l61.977-48.189c4.604-3.61,7.424-8.96,7.938-15.055C490.506,307.827,488.602,301.634,484.619,296.554z M407.328,375.961
			c-11.621,0-21.076-9.455-21.076-21.071c0-11.615,9.455-21.071,21.076-21.071c11.617,0,21.072,9.456,21.072,21.071
			C428.4,366.506,418.945,375.961,407.328,375.961z M462.408,333.121c-11.621,0-21.076-9.455-21.076-21.071
			c0-11.615,9.455-21.071,21.076-21.071c11.617,0,21.072,9.456,21.072,21.071C483.48,323.666,474.025,333.121,462.408,333.121z"/>
		<circle cx="407.328" cy="354.89" r="14.952"/>
		<path d="M354.812,277.258c1.016,0,1.959-0.845,2.131-1.86l3.236-17.944c0.178-1.016-0.488-1.836-1.512-1.836h-0.109l-0.08,0.024
			h-0.109l-0.08,0.024h-0.08l-0.078,0.025l-0.111,0.024l-0.055,0.024l-0.08,0.055l-0.078,0.024l-0.08,0.056l-0.055,0.055
			l-0.08,0.055l-0.08,0.056l-0.055,0.055l-0.055,0.056l-0.08,0.055l-0.055,0.086l-0.055,0.079l-0.057,0.056l-0.055,0.079
			l-0.023,0.08l-0.055,0.079l-0.025,0.079l-0.055,0.08l-0.031,0.079l-0.023,0.08l-0.025,0.11l-0.025,0.079l-0.023,0.11l-0.025,0.079
			l-0.023,0.08l-3.213,17.943C353.369,276.413,353.791,277.258,354.812,277.258z"/>
		<circle cx="462.408" cy="312.05" r="14.951"/>
		<path d="M346.258,255.617h-1.592l-4.021,21.641h1.568c1.016,0,2.006-0.845,2.184-1.86l3.402-17.944
			C347.971,256.432,347.279,255.617,346.258,255.617z"/>
		<circle cx="462.408" cy="397.73" r="14.951"/>
		<path d="M526.168,245.263v-3.391c-21.592-13.58-51.195-15.324-57.811-15.324h-64.076c-7.314,0-7.314,3.831-7.314,3.831H308.51
			c11.799-18.188,36.658-28.782,49.406-46.53c12.969-18.048,14.412-42.498,9.578-63.379c-3.557-15.38-27.16-8.855-23.605,6.506
			c12.283,53.109-46.035,62.656-62.448,103.403h-88.722c0,0,0-3.831-7.313-3.831h-64.076c-6.616,0-36.218,1.744-57.81,15.324v3.391
			C25.612,266.548,0,307.136,0,353.703c0,68.642,55.643,124.285,124.285,124.285c28.195,0,55.312-8.023,75.056-25.215
			c5.71-4.97,12.442-5.086,12.442-5.086h166.116c0,0,6.738,0.116,12.441,5.086c19.742,17.191,46.855,25.215,75.055,25.215
			c68.643,0,124.285-55.644,124.285-124.285C589.688,307.136,564.074,266.548,526.168,245.263z M124.285,423.452
			c-38.458,0-69.75-31.285-69.75-69.743s31.292-69.75,69.75-69.75c38.458,0,69.75,31.286,69.75,69.744
			S162.749,423.452,124.285,423.452z M326.479,252.46l-0.539,3.396h-3.832l-1.67,8.5h3.83l-0.537,2.858h-3.832l-1.592,9.254h3.832
			l-0.539,3.396h-7.771l5.396-27.412h7.254V252.46z M309.078,255.862l0.648-3.396h8.146l-0.539,3.396h-2.074l-4.346,24.015h-3.941
			l4.266-24.015H309.078z M299.818,252.46l1.781,14.326l2.674-14.326h3.99l-5.207,27.411h-3.451l-1.268-15.894l-3.213,15.894h-3.997
			l5.208-27.411H299.818z M294.531,252.46l-5.208,27.411h-3.452l5.208-27.411H294.531z M256.869,252.46l-0.539,3.396h-3.837
			l-1.701,8.5h3.831l-0.539,2.858h-3.831l-1.567,9.254h3.831l-0.538,3.396h-7.772l5.397-27.412h7.265V252.46z M240.73,252.46h4.345
			c1.481,0,2.442,1.211,2.161,2.723l-1.891,9.743c-0.263,1.408-1.622,2.534-3.048,2.534h-4.4l-2.375,12.411h-3.452l5.208-27.411
			H240.73z M228.319,252.46l-4.29,24.174c-0.061,0.354,0.184,0.648,0.539,0.648h2.564c0.349,0,0.692-0.3,0.759-0.648l4.4-24.174
			h3.238l-4.615,24.877c-0.263,1.414-1.646,2.534-3.078,2.534h-5.153c-1.419,0-2.38-1.12-2.129-2.534l4.314-24.877H228.319z
			 M210.026,279.877c-1.42,0-2.381-1.12-2.13-2.533l1.212-6.959h3.617l-0.918,5.019c-0.178,1.022,0.52,1.836,1.536,1.836
			c1.022,0,1.713-0.813,1.891-1.836c0,0,0.569-3.023,0.704-4.045c0.141-1.022-4.706-7.748-4.963-9.198
			c-0.208-0.166-0.3-1.065-0.269-1.727v-0.024v-0.024l0.024-0.055v-0.056v-0.055l0.031-0.079v-0.056v-0.079l0.024-0.056v-0.079
			l0.024-0.189l0.055-0.159l0.024-0.19l0.024-0.214l0.055-0.214l0.055-0.215l0.024-0.214l0.055-0.214l0.055-0.245l0.08-0.459
			l0.055-0.214l0.055-0.245l0.055-0.214l0.024-0.215l0.055-0.189l0.024-0.189l0.055-0.19l0.024-0.158l0.024-0.08l0.024-0.079v-0.08
			l0.031-0.055v-0.08l0.024-0.055v-0.056l0.024-0.055v-0.024v-0.055l0.024-0.025v-0.024v-0.024v-0.024
			c0.263-1.505,1.702-2.723,3.183-2.723h5.343c1.481,0,2.448,1.218,2.16,2.723l-1.267,6.775h-3.642l0.783-4.505
			c0.178-1.016-0.251-1.836-1.267-1.836c-1.016,0-1.983,0.814-2.161,1.836c0,0-0.575,2.84-0.569,3.269
			c0.006,0.428,0.159,1.132,0.349,1.242c0.441,0.263,4.749,7.375,4.749,7.907c0,0,0.129,0.049,0.135,0.514
			c0.006,0.459-1.322,6.959-1.322,6.959c-0.263,1.413-1.622,2.533-3.048,2.533h-5.141V279.877z M260.314,368.819l-28.416,22.21
			c-1.542,1.205-3.464,1.872-5.422,1.872c-2.735,0-5.263-1.229-6.952-3.391l-1.891-2.411c-2.993-3.831-2.313-9.382,1.512-12.374
			l28.415-22.21c3.703-2.901,9.492-2.173,12.375,1.518l1.891,2.417C264.818,360.275,264.139,365.827,260.314,368.819z
			 M266.96,264.926c-0.196,1.047-2.062,1.689-3.048,2.075h0.245c0,0,0.544,0.202,1.022,0.514c0.251,0.159,0.471,0.594,0.594,0.783
			c0.189,0.294,0.196,0.826,0.189,0.998c0,0.165-1.946,10.575-1.946,10.575h-3.452c0,0,1.842-9.554,1.891-9.957
			c0.049-0.404-0.018-0.918-0.08-1.322c-0.042-0.275-0.08-0.832-0.404-1.132h-2.454l-2.35,12.411h-3.452l5.178-27.411h7.797
			c1.481,0,2.448,1.211,2.16,2.723L266.96,264.926z M272.163,279.877l5.208-27.411h3.452l1.781,14.327l2.699-14.327h3.966
			l-5.208,27.411h-3.452l-1.267-15.894l-3.213,15.894H272.163z M323.002,368.819l-28.416,22.21
			c-1.542,1.205-3.464,1.872-5.422,1.872c-2.736,0-5.263-1.229-6.953-3.391l-1.891-2.411c-2.993-3.831-2.313-9.382,1.512-12.374
			l28.416-22.21c3.707-2.901,9.492-2.173,12.373,1.518l1.893,2.417C327.506,360.275,326.826,365.827,323.002,368.819z
			 M331.258,279.877l-1.268-15.894l-3.213,15.894h-3.996l5.207-27.411h3.482l1.781,14.327l2.676-14.327h3.99l-5.209,27.411H331.258z
			 M344.396,279.877h-7.877l5.209-27.411h7.773c1.48,0,2.441,1.212,2.16,2.724l-4.182,22.154
			C347.205,278.751,345.828,279.877,344.396,279.877z M353.381,255.183c0.264-1.505,1.678-2.723,3.158-2.723h5.881
			c1.475,0,2.449,1.218,2.16,2.723l-4.18,22.154c-0.264,1.414-1.646,2.534-3.078,2.534h-5.691c-1.42,0-2.355-1.12-2.105-2.534
			L353.381,255.183z M462.408,466.531c-62.1,0-112.619-50.521-112.619-112.614s50.52-112.614,112.619-112.614
			c62.094,0,112.615,50.521,112.615,112.614S524.502,466.531,462.408,466.531z"/>
		<path d="M462.408,247.417c-58.721,0-106.5,47.778-106.5,106.494c0,58.715,47.779,106.5,106.5,106.5
			c58.723,0,106.494-47.778,106.494-106.494S521.131,247.417,462.408,247.417z M407.109,387.779
			c-9.174,0-18.164-4.486-24.059-12.002l-2.785-3.549c-10.244-13.066-8.617-31.506,3.623-41.114l61.984-48.184
			c4.754-3.727,10.539-5.71,16.719-5.71c9.174,0,18.164,4.486,24.059,12.002l2.785,3.55c4.938,6.297,7.301,14.021,6.646,21.75
			c-0.656,7.81-4.309,14.688-10.27,19.363l-61.979,48.189C419.08,385.803,413.289,387.779,407.109,387.779z M542.318,331.781
			l2.777,3.543c10.246,13.072,8.623,31.513-3.623,41.121l-61.977,48.183c-4.756,3.727-10.545,5.71-16.727,5.71
			c-9.174,0-18.164-4.486-24.057-12.002l-2.785-3.549c-10.244-13.073-8.623-31.513,3.623-41.121l61.982-48.183
			c4.756-3.728,10.539-5.704,16.721-5.704C527.428,319.779,536.424,324.271,542.318,331.781z"/>
		<circle cx="517.488" cy="354.89" r="14.958"/>
		<path d="M505.305,330.306l-61.984,48.184c-9.578,7.515-10.734,22.105-2.57,32.516l2.785,3.549
			c4.742,6.047,11.934,9.658,19.24,9.658c4.799,0,9.285-1.524,12.957-4.413l61.977-48.183c9.578-7.516,10.74-22.1,2.576-32.516
			l-2.783-3.537c-4.744-6.047-11.941-9.658-19.248-9.658C513.463,325.899,508.977,327.424,505.305,330.306z M462.408,418.802
			c-11.621,0-21.076-9.456-21.076-21.071c0-11.616,9.455-21.071,21.076-21.071c11.617,0,21.072,9.455,21.072,21.071
			C483.48,409.346,474.025,418.802,462.408,418.802z M538.561,354.89c0,11.616-9.455,21.072-21.072,21.072
			c-11.621,0-21.076-9.456-21.076-21.072c0-11.615,9.455-21.07,21.076-21.07C529.105,333.812,538.561,343.269,538.561,354.89z"/>
		<path d="M124.285,290.073c-35.086,0-63.63,28.544-63.63,63.63c0,35.08,28.544,63.623,63.63,63.623s63.629-28.543,63.629-63.623
			C187.915,318.617,159.371,290.073,124.285,290.073z M175.405,339.822v27.682c0,3.127-2.546,5.673-5.673,5.673h-25.93v25.931
			c0,3.127-2.546,5.673-5.673,5.673h-27.681c-3.127,0-5.673-2.546-5.673-5.673v-25.931H78.844c-3.127,0-5.673-2.546-5.673-5.673
			v-27.682c0-3.127,2.546-5.673,5.673-5.673h25.931v-25.931c0-3.127,2.546-5.673,5.673-5.673h27.687
			c3.127,0,5.673,2.546,5.673,5.673v25.931h25.931C172.866,334.149,175.405,336.695,175.405,339.822z"/>
		<path d="M255.118,357.797c-0.514-0.654-1.285-1.034-2.129-1.034c-0.422,0-1.053,0.104-1.659,0.575l-28.415,22.204
			c-1.169,0.918-1.377,2.619-0.465,3.788l1.891,2.411c0.777,1.004,1.983,1.891,3.782,0.472l28.415-22.21
			c1.169-0.918,1.377-2.619,0.465-3.788L255.118,357.797z"/>
		<path d="M263.772,255.728h-1.567h-0.024h-0.03h-0.025h-0.024v0.024h-0.024h-0.024h-0.024l-0.055,0.024h-0.024l-0.024,0.024h-0.024
			l-0.025,0.024l-0.024,0.025h-0.03l-0.055,0.024l-0.024,0.024l-0.031,0.024l-1.591,8.286c-0.006,0.056,0,0.116,0,0.159
			c0.024,0.281,0.233,0.483,0.539,0.483h1.481c0.355,0,1.23-0.832,1.298-1.188l1.432-6.744
			C264.929,256.566,264.139,255.728,263.772,255.728z"/>
		<path d="M317.799,357.797c-0.514-0.654-1.291-1.034-2.129-1.034c-0.422,0-1.053,0.104-1.658,0.575l-28.41,22.204
			c-1.169,0.918-1.377,2.619-0.465,3.788l1.891,2.411c0.777,1.004,1.983,1.891,3.782,0.472l28.415-22.21
			c1.17-0.918,1.377-2.619,0.467-3.788L317.799,357.797z"/>
		<path d="M238.49,264.467v0.024l0.024,0.024v0.024v0.025l0.024,0.024l0.025,0.024v0.024l0.024,0.024l0.024,0.024v0.024h0.024
			l0.024,0.024l0.031,0.024h0.024l0.024,0.024h0.024h0.031v0.024h0.024h0.024h0.024h0.025l0.024,0.024h0.024h0.024h2.026
			c0.349,0,0.826-0.808,0.894-1.162l1.432-6.775c0.067-0.373-0.71-1.212-1.077-1.212h-1.671c-0.184,0-0.367,0.092-0.514,0.215
			l-1.622,8.286c-0.006,0.049,0,0.116,0,0.159v0.024l0.024,0.024v0.073H238.49z"/>
		<polygon points="137.682,308.666 110.895,308.666 110.895,340.27 79.291,340.27 79.291,367.057 110.895,367.057 110.895,398.66 
			137.682,398.66 137.682,367.057 169.285,367.057 169.285,340.27 137.682,340.27 		"/>
	</g>
</g>
<g>
</g>
<g>
</g>
<g>
</g>
<g>
</g>
<g>
</g>
<g>
</g>
<g>
</g>
<g>
</g>
<g>
</g>
<g>
</g>
<g>
</g>
<g>
</g>
<g>
</g>
<g>
</g>
<g>
</g>
</svg>
