<?xml version="1.0" encoding="iso-8859-1"?>
<!-- Generator: Adobe Illustrator 17.1.0, SVG Export Plug-In . SVG Version: 6.00 Build 0)  -->
<!DOCTYPE svg PUBLIC "-//W3C//DTD SVG 1.1//EN" "http://www.w3.org/Graphics/SVG/1.1/DTD/svg11.dtd">
<svg version="1.1" id="Capa_1" xmlns="http://www.w3.org/2000/svg" xmlns:xlink="http://www.w3.org/1999/xlink" x="0px" y="0px"
	 viewBox="0 0 415.792 415.792" style="enable-background:new 0 0 415.792 415.792;" xml:space="preserve">
<g>
	<path d="M123.355,199.801h-7.897v-8.022c0-8.822-7.178-16-16-16h-7.769c-8.822,0-16,7.178-16,16v8.022h-8.178
		c-8.822,0-16,7.178-16,16v7.769c0,8.822,7.178,16,16,16h8.178v8.334c0,8.822,7.178,16,16,16h7.769c8.822,0,16-7.178,16-16v-8.334
		h7.897c8.822,0,16-7.178,16-16v-7.769C139.355,206.979,132.177,199.801,123.355,199.801z M123.355,223.57h-15.897
		c-4.418,0-8,3.582-8,8l0.001,16.334h-7.771V231.57c0-4.418-3.582-8-8-8H67.511v-7.769h16.178c4.418,0,8-3.582,8-8v-16.022h7.769
		v16.022c0,4.418,3.582,8,8,8h15.897V223.57z"/>
	<path d="M311.477,219.849c0.001-2.205-0.908-4.312-2.513-5.824l-8.473-7.985c-1.484-1.399-3.447-2.178-5.487-2.178h-15.37
		c-4.418,0-8,3.582-8,8v15.96c0,4.418,3.582,8,8,8h15.37c2.038,0,3.999-0.778,5.483-2.174l8.473-7.975
		C310.566,224.161,311.476,222.054,311.477,219.849z"/>
	<path d="M359.13,203.862h-15.371c-2.04,0-4.003,0.779-5.487,2.178l-8.473,7.985c-1.604,1.512-2.514,3.62-2.513,5.824
		c0.001,2.205,0.911,4.312,2.517,5.823l8.473,7.975c1.484,1.396,3.445,2.174,5.483,2.174h15.371c4.418,0,8-3.582,8-8v-15.96
		C367.13,207.443,363.548,203.862,359.13,203.862z"/>
	<path d="M325.212,230.263c-1.511-1.605-3.617-2.516-5.822-2.517c-0.001,0-0.002,0-0.003,0c-2.204,0-4.311,0.909-5.822,2.513
		l-7.985,8.473c-1.398,1.484-2.178,3.447-2.178,5.487v15.371c0,4.418,3.582,8,8,8h15.96c4.418,0,8-3.582,8-8v-15.371
		c0-2.038-0.777-3.999-2.175-5.483L325.212,230.263z"/>
	<path d="M313.565,209.424c1.512,1.604,3.618,2.513,5.822,2.513c0.001,0,0.002,0,0.003,0c2.205-0.001,4.312-0.912,5.822-2.517
		l7.975-8.473c1.397-1.484,2.175-3.445,2.175-5.483v-15.37c0-4.418-3.582-8-8-8h-15.96c-4.418,0-8,3.582-8,8v15.37
		c0,2.04,0.779,4.002,2.178,5.487L313.565,209.424z"/>
	<path d="M325.528,124.048c-0.545-0.117-1.109-0.178-1.688-0.178h-52.467c-0.059-13.183-10.8-23.892-23.997-23.892h-79.5
		c-13.198,0-23.938,10.708-23.997,23.892H95.972C43.053,123.87,0,166.923,0,219.842s43.053,95.972,95.972,95.972
		c25.278,0,48.91-9.64,66.928-27.22h89.991c18.019,17.58,41.651,27.22,66.929,27.22c52.919,0,95.972-43.053,95.972-95.972
		C415.792,168.844,376.25,127.021,325.528,124.048z M167.875,115.978h79.5c4.375,0,7.936,3.531,7.995,7.892h-95.49
		C159.939,119.509,163.5,115.978,167.875,115.978z M319.82,299.813c-22.028,0-42.558-8.789-57.808-24.747
		c-1.51-1.58-3.6-2.473-5.784-2.473h-96.665c-2.185,0-4.274,0.894-5.784,2.473c-15.25,15.958-35.78,24.747-57.808,24.747
		C51.875,299.813,16,263.938,16,219.842s35.875-79.972,79.972-79.972h226.592c0.3,0.048,0.605,0.08,0.916,0.093
		c42.791,1.926,76.312,37.013,76.312,79.878C399.792,263.938,363.917,299.813,319.82,299.813z"/>
	<path d="M183.466,203.842c-8.822,0-16,7.178-16,16s7.178,16,16,16s16-7.178,16-16S192.289,203.842,183.466,203.842z"/>
	<path d="M231.785,203.842c-8.822,0-16,7.178-16,16s7.178,16,16,16s16-7.178,16-16S240.607,203.842,231.785,203.842z"/>
</g>
<g>
</g>
<g>
</g>
<g>
</g>
<g>
</g>
<g>
</g>
<g>
</g>
<g>
</g>
<g>
</g>
<g>
</g>
<g>
</g>
<g>
</g>
<g>
</g>
<g>
</g>
<g>
</g>
<g>
</g>
</svg>
