<?xml version="1.0" encoding="iso-8859-1"?>
<!-- Generator: Adobe Illustrator 19.0.0, SVG Export Plug-In . SVG Version: 6.00 Build 0)  -->
<svg version="1.1" id="Layer_1" xmlns="http://www.w3.org/2000/svg" xmlns:xlink="http://www.w3.org/1999/xlink" x="0px" y="0px"
	 viewBox="0 0 512 512" style="enable-background:new 0 0 512 512;" xml:space="preserve">
<g>
	<g>
		<path d="M397.584,0H114.416C98.573,0,85.682,12.891,85.682,28.735v454.531c0,15.844,12.891,28.735,28.735,28.735h283.167
			c15.844,0,28.735-12.891,28.735-28.735V28.735C426.318,12.891,413.427,0,397.584,0z M336.457,496.327h-19.644v-16.196H301.14
			v16.196h-19.644v-16.196h-15.673v16.196h-19.644v-16.196h-15.673v16.196H210.86v-16.196h-15.673v16.196h-19.644v-30.302
			c0-1.441,1.171-2.612,2.612-2.612h155.69c1.441,0,2.612,1.171,2.612,2.612V496.327z M410.645,483.265
			c0,7.202-5.859,13.061-13.061,13.061h-45.453v-30.302c0-10.082-8.203-18.286-18.286-18.286h-155.69
			c-10.082,0-18.286,8.203-18.286,18.286v30.302h-45.453c-7.202,0-13.061-5.859-13.061-13.061V28.735
			c0-7.202,5.859-13.061,13.061-13.061h283.167c7.202,0,13.061,5.859,13.061,13.061V483.265z"/>
	</g>
</g>
<g>
	<g>
		<path d="M111.804,26.122v235.102h288.392V26.122H111.804z M137.927,245.551h-10.449V41.796h10.449V245.551z M358.4,245.551H153.6
			V41.796h204.8V245.551z M384.522,245.551h-10.449V41.796h10.449V245.551z"/>
	</g>
</g>
<g>
	<g>
		<path d="M187.559,330.124v-23.51h-52.245v23.51h-23.51v52.245h23.51v23.51h52.245v-23.51h23.51v-52.245H187.559z M195.396,366.695
			h-23.51v23.51h-20.898v-23.51h-23.51v-20.898h23.51v-23.51h20.898v23.51h23.51V366.695z"/>
	</g>
</g>
<g>
	<g>
		<path d="M348.215,359.94c-10.188-10.185-26.76-10.184-36.944,0c-10.185,10.186-10.185,26.758,0,36.944
			c5.093,5.092,11.782,7.638,18.473,7.638c6.688,0,13.379-2.547,18.472-7.638C358.4,386.699,358.4,370.127,348.215,359.94z
			 M337.131,385.8c-4.074,4.076-10.704,4.075-14.777,0c-4.074-4.073-4.074-10.703,0-14.777c2.037-2.038,4.713-3.056,7.388-3.056
			c2.676,0,5.351,1.019,7.387,3.056C341.205,375.096,341.205,381.726,337.131,385.8z"/>
	</g>
</g>
<g>
	<g>
		<path d="M392.544,315.609c-4.934-4.934-11.493-7.651-18.471-7.651s-13.538,2.718-18.471,7.651
			c-4.935,4.934-7.652,11.494-7.652,18.472s2.718,13.538,7.651,18.471c4.934,4.935,11.494,7.652,18.472,7.652
			s13.538-2.718,18.471-7.651c4.935-4.934,7.652-11.494,7.652-18.472S397.478,320.544,392.544,315.609z M381.461,341.47
			c-1.974,1.974-4.596,3.06-7.387,3.06s-5.415-1.087-7.388-3.062c-1.974-1.974-3.06-4.596-3.06-7.387
			c0-2.791,1.087-5.415,3.062-7.388c1.974-1.974,4.596-3.061,7.387-3.061s5.415,1.087,7.387,3.061l0.001,0.001
			c1.974,1.974,3.06,4.596,3.06,7.387C384.522,336.872,383.436,339.495,381.461,341.47z"/>
	</g>
</g>
<g>
	<g>
		<rect x="214.204" y="295.184" width="31.347" height="15.673"/>
	</g>
</g>
<g>
	<g>
		<rect x="266.449" y="295.184" width="31.347" height="15.673"/>
	</g>
</g>
<g>
</g>
<g>
</g>
<g>
</g>
<g>
</g>
<g>
</g>
<g>
</g>
<g>
</g>
<g>
</g>
<g>
</g>
<g>
</g>
<g>
</g>
<g>
</g>
<g>
</g>
<g>
</g>
<g>
</g>
</svg>
