<?xml version="1.0" encoding="iso-8859-1"?>
<!-- Generator: Adobe Illustrator 16.0.0, SVG Export Plug-In . SVG Version: 6.00 Build 0)  -->
<!DOCTYPE svg PUBLIC "-//W3C//DTD SVG 1.1//EN" "http://www.w3.org/Graphics/SVG/1.1/DTD/svg11.dtd">
<svg version="1.1" id="Capa_1" xmlns="http://www.w3.org/2000/svg" xmlns:xlink="http://www.w3.org/1999/xlink" x="0px" y="0px"
	 width="585.781px" height="585.782px" viewBox="0 0 585.781 585.782" style="enable-background:new 0 0 585.781 585.782;"
	 xml:space="preserve">
<g>
	<g>
		<path d="M104.653,205.399c-38.115,0-69.119,31.004-69.119,69.119s31.004,69.119,69.119,69.119
			c38.109,0,69.113-31.004,69.113-69.119S142.762,205.399,104.653,205.399z M104.653,315.694c-22.699,0-41.169-18.471-41.169-41.176
			s18.47-41.175,41.169-41.175c22.699,0,41.169,18.47,41.169,41.175S127.358,315.694,104.653,315.694z"/>
		<path d="M104.653,239.469c-19.327,0-35.049,15.722-35.049,35.055c0,19.333,15.722,35.055,35.049,35.055
			c19.327,0,35.049-15.723,35.049-35.055C139.702,255.191,123.98,239.469,104.653,239.469z"/>
		<path d="M202.065,370.37c0-1.493-1.218-2.711-2.711-2.711H178.57c-1.5,0-2.711,1.218-2.711,2.711v27.889H147.97
			c-1.499,0-2.711,1.218-2.711,2.718v20.783c0,1.493,1.218,2.711,2.711,2.711h27.889v27.89c0,1.493,1.218,2.711,2.711,2.711h20.784
			c1.5,0,2.711-1.218,2.711-2.711v-27.883h27.889c1.499,0,2.717-1.219,2.717-2.712v-20.789c0-1.5-1.218-2.718-2.717-2.718h-27.889
			V370.37z"/>
		<path d="M534.253,184.444c0,0-9.241-47.925-77.376-34.07c0,0-39.235-21.389-143.03-24.945
			c5.086-25.888,37.21-20.086,54.945-32.706c14.982-10.655,22.571-29.37,20.943-47.369c-1.408-15.588-25.9-15.729-24.48,0
			c1.071,11.848-2.595,21.799-12.564,28.893c-9.994,7.111-24.406,4.278-35.221,10.153c-16.261,8.831-25.232,22.889-28.103,40.625
			C172.524,126.623,128.9,150.374,128.9,150.374c-68.128-13.855-77.369,34.07-77.369,34.07
			C-16.027,229.481,3.606,312.633,3.606,312.633C-3.322,396.937-5.923,552.17,50.375,552.17c56.298,0,56.01-145.424,56.01-145.424
			s9.817,16.169,17.32,37.534s63.52,79.683,124.144,15.588c60.631-64.095-23.097-128.189-23.097-128.189v-10.19
			c20.208-5.575,68.134-6.554,68.134-6.554s47.926,0.979,68.134,6.554v10.19c0,0-83.728,64.095-23.097,128.189
			s116.642,5.777,124.145-15.588c7.503-21.364,17.325-37.534,17.325-37.534s-0.287,145.424,56.011,145.424
			s53.703-155.24,46.769-239.543C582.179,312.627,601.812,229.481,534.253,184.444z M362.66,159.456
			c1.769-0.037,3.537-0.049,5.3,0.006c1.469,0.043,2.467,1.04,2.497,2.521c0.049,2.423,0.055,4.847,0,7.271
			c-0.037,1.634-1.438,2.913-3.201,2.98c-1.346,0.049-2.698,0.049-4.045,0c-1.946-0.067-3.237-1.444-3.25-3.391
			c-0.006-1.077,0-2.148,0-3.225c0-1.096,0.056-2.191-0.012-3.281C359.857,160.735,361.381,159.487,362.66,159.456z
			 M339.281,159.456c2.356,0,4.67-0.024,6.983,0.012c0.777,0.012,1.487,0.324,2.093,0.845c0.521,0.453,0.796,1.01,0.796,1.72
			c-0.013,2.423,0.006,4.847-0.019,7.271c-0.006,0.336-0.135,0.734-0.337,0.998c-0.795,1.034-1.737,1.713-3.182,1.646
			c-2.087-0.098-4.187-0.025-6.322-0.025C339.281,167.767,339.281,163.642,339.281,159.456z M317.904,159.45
			c0.937,0,1.842-0.019,2.748,0.018c0.153,0.006,0.337,0.232,0.435,0.398c1.199,2.099,2.393,4.21,3.586,6.316
			c0.104,0.189,0.221,0.373,0.398,0.686c0-2.534,0-4.939,0-7.381c0.789,0,1.523,0,2.288,0c0,4.125,0,8.25,0,12.436
			c-0.703,0-1.389,0.024-2.074-0.018c-0.153-0.012-0.33-0.245-0.422-0.417c-1.451-2.668-2.889-5.349-4.333-8.023
			c-0.086-0.153-0.178-0.3-0.35-0.6c0,3.097,0,6.035,0,9.015c-0.783,0-1.518,0-2.276,0
			C317.904,167.761,317.904,163.648,317.904,159.45z M296.497,161.831c0.012-1.634,0.808-2.387,2.447-2.387c2.167,0,4.34,0,6.506,0
			c0.178,0,0.355,0,0.563,0c0,0.667,0,1.279,0,1.971c-0.208,0-0.398,0-0.594,0c-1.641,0-3.28,0-4.921,0
			c-1.224,0-1.689,0.459-1.689,1.659c0,0.416,0,0.826,0,1.285c2.424,0,4.786,0,7.191,0c0,0.667,0,1.291,0,1.977
			c-2.381,0-4.762,0-7.179,0c0,0.912-0.03,1.769,0.013,2.62c0.024,0.52,0.673,0.991,1.254,0.997c1.769,0,3.538,0,5.3,0
			c0.196,0,0.392,0,0.618,0c0,0.661,0,1.273,0,1.946c-0.171,0.012-0.343,0.031-0.52,0.031c-2.167,0-4.34,0.006-6.506,0
			c-1.506,0-2.479-0.937-2.491-2.436C296.479,166.935,296.479,164.383,296.497,161.831z M276.117,159.487c3.476,0,6.94,0,10.459,0
			c0,0.648,0,1.261,0,1.922c-1.292,0-2.564,0-3.874,0c0,3.506,0,6.958,0,10.459c-0.894,0-1.738,0-2.644,0c0-3.452,0-6.916,0-10.447
			c-1.347,0-2.625,0-3.936,0C276.117,160.748,276.117,160.135,276.117,159.487z M276.062,176.562c5.704,0,11.365,0,17.062,0
			c0,1.175,0,2.332,0,3.55c-4.113,0-8.244,0-12.405,0c0,0.906,0,1.744,0,2.638c2.375,0,4.737,0,7.142,0c0,1.236,0,2.423,0,3.678
			c-2.375,0-4.749,0-7.154,0c0,0.985,0,1.903,0,2.876c4.149,0,8.274,0,12.43,0c0,1.322,0,2.595,0,3.898c-5.679,0-11.358,0-17.075,0
			C276.062,187.688,276.062,182.155,276.062,176.562z M255.444,159.45c1.016,0,2.025-0.012,3.042,0.018
			c0.135,0.006,0.3,0.227,0.379,0.379c1.126,2.124,2.234,4.253,3.354,6.377c0.092,0.171,0.189,0.342,0.379,0.501
			c0-2.405,0-4.804,0-7.24c0.894,0,1.726,0,2.601,0c0,4.119,0,8.237,0,12.43c-0.802,0-1.598,0.024-2.393-0.019
			c-0.147-0.006-0.318-0.257-0.41-0.435c-1.432-2.638-2.852-5.281-4.278-7.925c-0.098-0.177-0.196-0.349-0.386-0.514
			c0,2.944,0,5.888,0,8.88c-0.826,0-1.536,0-2.289,0C255.444,167.755,255.444,163.636,255.444,159.45z M239.312,159.462
			c0.856,0,1.67,0,2.54,0c0,4.137,0,8.256,0,12.417c-0.826,0-1.658,0-2.54,0C239.312,167.761,239.312,163.642,239.312,159.462z
			 M215.976,159.444c1.016,0,2.013-0.019,3.011,0.019c0.153,0.006,0.343,0.227,0.435,0.397c1.138,2.136,2.258,4.284,3.384,6.426
			c0.08,0.153,0.171,0.306,0.349,0.435c0-2.405,0-4.811,0-7.246c0.887,0,1.72,0,2.588,0c0,4.125,0,8.25,0,12.436
			c-0.795,0-1.542,0.025-2.289-0.018c-0.178-0.012-0.398-0.214-0.496-0.392c-1.463-2.687-2.907-5.38-4.357-8.072
			c-0.086-0.159-0.171-0.312-0.361-0.459c0,1.475,0,2.956,0,4.431s0,2.95,0,4.468c-0.759,0-1.493,0-2.264,0
			C215.976,167.749,215.976,163.624,215.976,159.444z M104.653,349.757c-41.487,0-75.239-33.752-75.239-75.239
			s33.752-75.239,75.239-75.239c41.488,0,75.233,33.752,75.233,75.239S146.141,349.757,104.653,349.757z M229.954,392.138
			c4.872,0,8.837,3.96,8.837,8.838v20.783c0,4.872-3.965,8.831-8.837,8.831h-21.769v21.77c0,4.871-3.959,8.831-8.831,8.831H178.57
			c-4.872,0-8.831-3.96-8.831-8.831v-21.764H147.97c-4.871,0-8.831-3.959-8.831-8.831v-20.789c0-4.878,3.96-8.838,8.831-8.838
			h21.769V370.37c0-4.871,3.959-8.831,8.831-8.831h20.784c4.872,0,8.831,3.96,8.831,8.831v21.769H229.954z M227.702,193.514
			c-3.623-0.043-7.252-0.019-10.881-0.019c-1.695,0-3.715-1.383-4.302-2.962c-0.098-0.263-0.128-0.569-0.128-0.857
			c-0.006-3.152-0.012-6.304,0-9.456c0-0.483,0.061-0.991,0.196-1.45c0.355-1.206,1.377-2.014,2.631-2.014
			c5.447-0.019,10.9-0.006,16.347-0.006c0.049,0,0.104,0.024,0.19,0.042c0,1.151,0,2.308,0,3.513c-4.89,0-9.768,0-14.688,0
			c0,3.078,0,6.059,0,9.07c3.568,0,7.105,0,10.679,0c0-0.82,0-1.616,0-2.485c-2.032,0-4.063,0-6.12,0c0-1.304,0-2.534,0-3.788
			c3.464,0,6.897,0,10.404,0c0.006,0.189,0.024,0.379,0.024,0.569c0,1.971-0.012,3.935,0.006,5.906
			c0.006,0.618-0.141,1.163-0.526,1.622c-0.392,0.478-0.808,0.937-1.261,1.358C229.562,193.226,228.724,193.526,227.702,193.514z
			 M270.095,184.946c-0.098,0.153-0.202,0.3-0.294,0.459c-1.438,2.473-2.882,4.939-4.302,7.417c-0.19,0.331-0.398,0.447-0.771,0.435
			c-0.856-0.024-1.713-0.031-2.57,0c-0.397,0.012-0.612-0.11-0.814-0.459c-1.377-2.423-2.778-4.829-4.167-7.24
			c-0.11-0.19-0.22-0.374-0.441-0.557c0,2.724,0,5.453,0,8.25c-0.288,0-0.477,0-0.667,0c-2.025,0-4.045-0.012-6.071,0.012
			c-0.417,0.006-0.643-0.116-0.857-0.483c-2.007-3.464-4.039-6.922-6.065-10.374c-0.098-0.166-0.208-0.331-0.355-0.569
			c-1.481,2.497-2.925,4.933-4.418,7.454c1.665,0,3.25,0,4.859,0c0,1.34,0,2.607,0,3.923c-3.997,0-7.987,0-12.038,0
			c0.085-0.165,0.146-0.312,0.226-0.447c3.091-5.238,6.188-10.471,9.272-15.716c0.22-0.374,0.447-0.539,0.894-0.521
			c0.894,0.037,1.787,0.037,2.681,0c0.459-0.018,0.716,0.129,0.948,0.526c2.246,3.831,4.523,7.65,6.787,11.469
			c0.11,0.184,0.227,0.373,0.429,0.709c0-4.314,0-8.464,0-12.692c0.899,0,1.75,0.098,2.558-0.025
			c1.353-0.202,2.056,0.355,2.699,1.53c1.738,3.158,3.635,6.224,5.471,9.333c0.11,0.184,0.227,0.367,0.374,0.593
			c0.955-1.622,1.879-3.182,2.803-4.749c1.23-2.087,2.467-4.167,3.685-6.261c0.177-0.306,0.361-0.435,0.722-0.428
			c1.236,0.024,2.472,0.012,3.746,0.012c0,5.582,0,11.108,0,16.695c-1.408,0-2.772,0-4.192,0c0-2.748,0-5.496,0-8.237
			C270.181,184.977,270.138,184.958,270.095,184.946z M292.892,291.667c-10.918,0-19.804-8.88-19.804-19.798
			c0-10.918,8.886-19.804,19.804-19.804c10.924,0,19.804,8.886,19.804,19.804C312.696,282.787,303.816,291.667,292.892,291.667z
			 M300.83,180.497c0,2.925,0,5.845,0,8.794c3.151,0,6.291,0,9.474,0c0-1.065,0-2.099,0-3.176c1.432,0,2.827,0,4.247,0
			c0.012,0.086,0.037,0.171,0.037,0.257c0,1.566,0.018,3.133-0.007,4.7c-0.019,1.444-0.789,2.179-2.215,2.172
			c-4.211,0-8.422,0-12.632,0c-1.646,0-3.018-1.236-3.201-2.882c-0.03-0.251-0.036-0.508-0.036-0.765c0-3.666,0-7.326,0-10.992
			c0-1.536,0.526-2.081,2.056-2.081c4.468-0.006,8.93-0.006,13.396,0c1.738,0.006,2.663,0.973,2.639,2.699
			c-0.013,1.096-0.013,2.185-0.019,3.28c0,0.178,0,0.355,0,0.563c-1.549,0-3.036,0-4.59,0c0-0.851,0-1.695,0-2.576
			C306.907,180.497,303.89,180.497,300.83,180.497z M334.961,177.192c0,4.266,0,8.531,0,12.797c0,1.964-0.991,3.054-2.98,3.256
			c-0.38,0.037-0.765,0.061-1.145,0.061c-3.733,0.006-7.473,0.019-11.206-0.006c-0.557-0.006-1.132-0.11-1.658-0.288
			c-1.071-0.367-1.701-1.188-1.714-2.301c-0.036-4.7-0.012-9.4-0.012-14.162c1.542,0,3.029,0,4.577,0c0,4.253,0,8.488,0,12.76
			c3.188,0,6.311,0,9.499,0c0-4.223,0-8.458,0-12.742c1.561,0,3.06,0,4.639,0C334.961,176.77,334.961,176.978,334.961,177.192z
			 M353.48,184.824c0.765,0.306,1.218,0.948,1.218,1.769c0.006,1.328,0,2.662,0,3.99c0,1.089-0.49,1.916-1.524,2.215
			c-0.967,0.282-1.989,0.483-2.992,0.496c-4.37,0.055-8.746,0.024-13.115,0.024c-0.141,0-0.282-0.024-0.44-0.042
			c0-5.582,0-11.126,0-16.745c0.22,0,0.416,0,0.605,0c4.994,0,9.981,0,14.976,0c1.695,0,2.484,0.777,2.491,2.467
			c0.006,1.31,0,2.625,0,3.935c0,0.924-0.325,1.303-1.255,1.457c-0.129,0.024-0.257,0.061-0.38,0.085
			c-0.006,0.049-0.018,0.104-0.024,0.153C353.187,184.689,353.333,184.762,353.48,184.824z M356.381,193.275
			c0-5.576,0-11.139,0-16.75c5.581,0,11.114,0,16.689,0c0,1.187,0,2.356,0,3.592c-4.125,0-8.256,0-12.424,0c0,0.9,0,1.744,0,2.632
			c2.381,0,4.743,0,7.148,0c0,1.224,0,2.393,0,3.641c-2.362,0-4.737,0-7.148,0c0,0.992,0,1.916,0,2.913c4.235,0,8.488,0,12.767,0
			c0,1.365,0,2.65,0,3.972C367.739,193.275,362.085,193.275,356.381,193.275z M445.696,417.891l-18.66,33.336
			c-0.41,0.734-1.102,1.267-1.915,1.469l-36.176,9.205c-0.251,0.066-0.502,0.098-0.753,0.098c-0.538,0-1.071-0.141-1.548-0.416
			l-32.204-18.874c-0.722-0.423-1.242-1.133-1.432-1.946l-8.69-37.197c-0.189-0.809-0.043-1.659,0.404-2.351l19.283-29.951
			c0.423-0.655,1.084-1.132,1.843-1.315l34.994-8.636c0.771-0.184,1.579-0.079,2.258,0.318l31.23,17.999
			c0.68,0.392,1.182,1.028,1.401,1.774l10.227,34.113C446.191,416.313,446.1,417.169,445.696,417.891z M556.009,303.907
			c-1.848,0.502-3.751,0.753-5.648,0.753c-2.754,0-5.392-0.576-7.852-1.537c-10.074,25.576-34.964,43.753-64.07,43.753
			c-17.583,0-33.599-6.678-45.784-17.559c-5.263,7.454-13.904,12.362-23.702,12.362c-16.017,0-29.046-13.029-29.046-29.039
			c0-16.017,13.029-29.046,29.046-29.046c0.306,0,0.587,0.08,0.887,0.092c-0.153-1.879-0.287-3.77-0.287-5.691
			c0-16.481,5.832-31.622,15.526-43.489c-2.461-2.564-4.321-5.741-5.294-9.339c-3.109-11.53,3.745-23.439,15.275-26.555l1.107-0.336
			c18.74-5.649,18.74-5.649,35.937-9.682l0.796-0.184c1.744-0.41,3.525-0.618,5.3-0.618c10.086,0,18.593,6.396,21.163,15.918
			c0.79,2.931,0.918,5.924,0.483,8.843c10.074,3.305,19.119,8.862,26.555,16.089c2.326-1.94,5.056-3.452,8.158-4.29
			c1.849-0.502,3.752-0.752,5.648-0.752c9.762,0,18.36,6.591,20.906,16.028l0.281,0.931c5.691,18.855,5.691,18.855,9.707,35.973
			l0.22,0.93C574.069,289.237,567.35,300.852,556.009,303.907z"/>
		<circle cx="292.892" cy="271.862" r="13.684"/>
		<path d="M346.81,168.6c0.006-1.916,0-3.825,0-5.741c0-0.686-0.551-1.396-1.236-1.42c-1.322-0.049-2.645-0.012-3.997-0.012
			c0,2.962,0,5.869,0,8.855c1.219,0,2.381,0,3.544,0C346.057,170.276,346.803,169.536,346.81,168.6z"/>
		<path d="M349.582,182.761c0.795,0,0.844-0.055,0.844-0.826c0-0.472-0.012-0.949,0-1.42c0.013-0.514-0.171-0.729-0.74-0.722
			c-2.638,0.031-5.275,0.012-7.913,0.012c-0.159,0-0.318,0.012-0.514,0.024c0,0.979,0,1.934,0,2.938c0.832,0,1.634,0,2.43,0
			C345.646,182.761,347.617,182.767,349.582,182.761z"/>
		<path d="M529.454,288.637c-0.073-0.275-0.109-0.563-0.104-0.857c0-0.116,0.189-11.512-1.8-18.88
			c-1.272-4.73-3.923-9.522-5.856-13.023c-1.261-2.277-2.093-3.789-2.417-4.976c-1.702-6.304-0.343-12.675,3.047-17.706
			c-6.793-6.658-15.085-11.769-24.314-14.81c-0.27,0.582-0.471,1.187-0.795,1.75c-2.883,5.019-7.547,8.611-13.134,10.11
			c-0.275,0.08-0.551,0.11-0.851,0.11l-0.918-0.006c-2.645,0-11.744,0.129-17.963,1.799c-4.736,1.279-9.528,3.929-13.023,5.863
			c-2.282,1.261-3.794,2.093-4.987,2.417c-1.849,0.502-3.752,0.753-5.655,0.753c-3.892,0-7.57-1.083-10.783-2.938
			c-8.886,10.833-14.229,24.669-14.229,39.743c0,2.222,0.122,4.413,0.349,6.573c12.589,3.176,21.977,14.511,21.977,28.072
			c0,3.979-0.808,7.767-2.265,11.225c11.212,10.446,26.206,16.897,42.706,16.897c26.817,0,49.694-16.94,58.666-40.655
			C533.469,297.278,530.715,293.313,529.454,288.637z M479.399,319.733c-22.063,0-40.02-17.95-40.02-40.013
			s17.95-40.019,40.02-40.019c22.068,0,40.019,17.956,40.019,40.019S501.468,319.733,479.399,319.733z"/>
		<path d="M362.604,168.85c0.019,0.777,0.35,1.09,1.114,1.096c0.894,0.006,1.781,0.012,2.675,0c0.881-0.012,1.45-0.594,1.456-1.487
			c0.006-1.836,0.006-3.672,0-5.514c0-0.802-0.729-1.53-1.523-1.536c-0.766-0.006-1.53-0.006-2.295,0
			c-0.869,0.012-1.427,0.569-1.433,1.438c-0.006,0.979,0,1.964,0,2.944h0.006C362.599,166.812,362.58,167.834,362.604,168.85z"/>
		<path d="M479.399,245.822c-18.69,0-33.899,15.202-33.899,33.898c0,18.69,15.202,33.893,33.899,33.893
			c18.696,0,33.898-15.202,33.898-33.893C513.298,261.023,498.09,245.822,479.399,245.822z"/>
		<path d="M401.105,367.548l-32.613,8.048l-17.926,27.84l8.098,34.651l29.987,17.577l33.685-8.568l17.387-31.059l-9.51-31.708
			L401.105,367.548z M395.157,442.323c-16.94,0-30.716-13.776-30.716-30.717c0-16.939,13.775-30.716,30.716-30.716
			s30.716,13.776,30.716,30.716C425.873,428.546,412.098,442.323,395.157,442.323z"/>
		<path d="M349.691,186.366c-2.638,0.031-5.275,0.012-7.913,0.012c-0.171,0-0.349,0.019-0.526,0.031c0,0.998,0,1.934,0,2.925
			c0.232,0,0.429,0,0.625,0c2.037,0,4.075,0,6.113,0c0.6,0,1.199-0.006,1.8-0.006c0.446,0.006,0.667-0.177,0.643-0.655
			c-0.031-0.526-0.019-1.052-0.007-1.585C350.433,186.592,350.267,186.36,349.691,186.366z"/>
		<path d="M395.157,387.016c-13.562,0-24.597,11.034-24.597,24.597c0,13.562,11.035,24.596,24.597,24.596
			s24.597-11.034,24.597-24.596C419.754,398.05,408.719,387.016,395.157,387.016z"/>
		<path d="M417.116,291.281c-2.032-0.783-4.205-1.23-6.47-1.401c-0.568-0.043-1.113-0.171-1.694-0.171
			c-12.639,0-22.926,10.288-22.926,22.925s10.281,22.92,22.926,22.92c8.09,0,15.171-4.235,19.253-10.575
			c1.199-1.867,2.075-3.93,2.699-6.114c0.569-1.995,0.967-4.058,0.967-6.23C431.877,302.878,425.727,294.58,417.116,291.281z"/>
		<path d="M429.258,229.848c1.407,1.53,3.097,2.754,4.976,3.636c3.207,1.499,6.892,2.013,10.508,1.04
			c0.508-0.146,2.234-1.102,3.623-1.873c3.771-2.081,8.936-4.939,14.395-6.408c6.757-1.817,15.924-2.014,19.554-2.014l0.562,0.006
			c3.838-1.145,7.038-3.666,9.039-7.148c0.062-0.11,0.092-0.227,0.153-0.337c1.004-1.836,1.604-3.819,1.812-5.845
			c0.189-1.86,0.073-3.757-0.429-5.612c-1.836-6.812-7.962-11.383-15.251-11.383c-1.303,0-2.613,0.147-3.904,0.453l-0.796,0.184
			c-17.014,3.984-17.014,3.984-35.562,9.578l-1.193,0.361c-8.36,2.259-13.274,10.808-11.047,19.083
			C426.345,225.987,427.63,228.086,429.258,229.848z"/>
		<path d="M565.134,277.915c-3.966-16.928-3.966-16.928-9.602-35.594l-0.307-1.022c-2.215-8.201-10.912-13.268-19.076-11.053
			c-2.104,0.569-3.983,1.555-5.587,2.828c-1.641,1.304-2.969,2.919-3.96,4.725c-1.86,3.396-2.491,7.479-1.407,11.505
			c0.146,0.508,1.102,2.228,1.866,3.617c2.081,3.77,4.938,8.935,6.407,14.394c1.995,7.405,2.032,17.785,2.014,20.123
			c0.704,2.375,2.032,4.431,3.685,6.144c1.523,1.579,3.348,2.821,5.367,3.666c3.06,1.273,6.506,1.665,9.884,0.759
			c8.134-2.19,12.938-10.599,10.937-19.149L565.134,277.915z"/>
	</g>
</g>
<g>
</g>
<g>
</g>
<g>
</g>
<g>
</g>
<g>
</g>
<g>
</g>
<g>
</g>
<g>
</g>
<g>
</g>
<g>
</g>
<g>
</g>
<g>
</g>
<g>
</g>
<g>
</g>
<g>
</g>
</svg>
