<?xml version="1.0" encoding="iso-8859-1"?>
<!-- Generator: Adobe Illustrator 16.0.0, SVG Export Plug-In . SVG Version: 6.00 Build 0)  -->
<!DOCTYPE svg PUBLIC "-//W3C//DTD SVG 1.1//EN" "http://www.w3.org/Graphics/SVG/1.1/DTD/svg11.dtd">
<svg version="1.1" id="Capa_1" xmlns="http://www.w3.org/2000/svg" xmlns:xlink="http://www.w3.org/1999/xlink" x="0px" y="0px"
	 width="595.17px" height="595.17px" viewBox="0 0 595.17 595.17" style="enable-background:new 0 0 595.17 595.17;"
	 xml:space="preserve">
<g>
	<g>
		<path d="M127.265,350.749l-31.505-0.342l-0.343,35.985H59.774l-0.343,31.506l35.979,0.343v35.637l31.506,0.343
			c0.19,0,0.343-0.147,0.343-0.343v-35.637h35.643l0.342-31.506l-35.979-0.343V350.749L127.265,350.749z"/>
		<path d="M351.606,406.509H216.74c-1.438,0-2.607,1.169-2.607,2.607v43.066c0,1.432,1.169,2.607,2.607,2.607h134.867
			c1.438,0,2.606-1.169,2.606-2.607v-43.066C354.213,407.678,353.044,406.509,351.606,406.509z M265.473,443.346h-25.502
			c-7.313,0-13.262-5.949-13.262-13.263c0-7.307,5.949-13.256,13.262-13.256h25.502c7.313,0,13.262,5.949,13.262,13.256
			C278.735,437.396,272.787,443.346,265.473,443.346z M328.944,443.346h-25.503c-7.313,0-13.262-5.949-13.262-13.263
			c0-7.307,5.949-13.256,13.262-13.256h25.503c7.312,0,13.262,5.949,13.262,13.256C342.2,437.396,336.251,443.346,328.944,443.346z"
			/>
		<path d="M416.582,410.664c-10.71,0-19.419,8.709-19.419,19.419s8.709,19.419,19.419,19.419s19.419-8.709,19.419-19.419
			S427.292,410.664,416.582,410.664z"/>
		<path d="M351.606,369.109H216.74c-1.438,0-2.607,1.169-2.607,2.607v15.869c0,1.432,1.169,2.607,2.607,2.607h134.867
			c1.438,0,2.606-1.169,2.606-2.607v-15.869C354.213,370.278,353.044,369.109,351.606,369.109z"/>
		<path d="M351.606,332.843H216.74c-1.438,0-2.607,1.169-2.607,2.606v15.869c0,1.433,1.169,2.607,2.607,2.607h134.867
			c1.438,0,2.606-1.169,2.606-2.607v-15.869C354.213,334.012,353.044,332.843,351.606,332.843z"/>
		<path d="M136.354,377.305v-37.565c0-0.244-0.202-0.446-0.447-0.446H86.782c-0.251,0-0.447,0.202-0.447,0.446v37.565H48.764
			c-0.251,0-0.447,0.201-0.447,0.446v49.125c0,0.245,0.202,0.447,0.447,0.447h37.564v37.57c0,0.245,0.202,0.447,0.447,0.447h49.125
			c0.25,0,0.447-0.202,0.447-0.447v-37.57h37.564c0.251,0,0.447-0.202,0.447-0.447v-49.125c0-0.245-0.202-0.446-0.447-0.446H136.354
			L136.354,377.305z M169.365,417.898c0,3.562-2.901,6.463-6.462,6.463h-29.517v29.517c0,3.562-2.901,6.463-6.462,6.463H95.753
			c-3.562,0-6.463-2.901-6.463-6.463v-29.517H59.768c-3.562,0-6.463-2.901-6.463-6.463v-31.169c0-3.562,2.901-6.463,6.463-6.463
			h29.522v-29.523c0-3.562,2.901-6.463,6.463-6.463h31.169c3.562,0,6.462,2.901,6.462,6.463v29.523h29.523
			c3.562,0,6.463,2.9,6.463,6.463v31.169H169.365z"/>
		<path d="M265.473,422.947h-25.502c-3.935,0-7.142,3.201-7.142,7.136c0,3.941,3.201,7.143,7.142,7.143h25.502
			c3.941,0,7.142-3.201,7.142-7.143C272.615,426.148,269.409,422.947,265.473,422.947z"/>
		<path d="M442.653,401.411h-52.136c-1.438,0-2.607,1.169-2.607,2.607v52.136c0,1.433,1.169,2.607,2.607,2.607h52.136
			c1.438,0,2.607-1.169,2.607-2.607v-52.136C445.255,402.58,444.086,401.411,442.653,401.411z M416.582,455.616
			c-14.082,0-25.538-11.457-25.538-25.539s11.456-25.539,25.538-25.539s25.539,11.457,25.539,25.539
			S430.664,455.616,416.582,455.616z"/>
		<path d="M518.805,351.478c1.347,0.049,2.381-0.862,2.466-2.282c0.067-1.096,0.013-2.197,0.013-3.299c0.019,0,0.03,0,0.049,0
			c0-0.826,0.037-1.652-0.012-2.479c-0.031-0.569-0.099-1.163-0.294-1.689c-0.343-0.931-1.096-1.407-2.081-1.407
			c-0.967,0-1.714,0.465-2.062,1.37c-0.195,0.502-0.3,1.065-0.312,1.604c-0.037,1.744-0.019,3.495-0.013,5.245
			c0,0.3,0.03,0.606,0.086,0.899C516.853,350.621,517.728,351.441,518.805,351.478z"/>
		<path d="M500.744,350.713c1.218,0.036,2.191-0.79,2.277-2.025c0.067-0.9,0.012-1.812,0.012-2.724l0,0
			c0-0.937,0.056-1.873-0.012-2.803c-0.086-1.225-1.028-2.014-2.259-1.989c-1.261,0.024-2.185,0.845-2.209,2.087
			c-0.043,1.774-0.043,3.55,0,5.324C498.584,349.825,499.508,350.676,500.744,350.713z"/>
		<path d="M328.944,422.947h-25.503c-3.94,0-7.142,3.201-7.142,7.136c0,3.941,3.201,7.143,7.142,7.143h25.503
			c3.935,0,7.142-3.201,7.142-7.143C336.08,426.148,332.879,422.947,328.944,422.947z"/>
		<path d="M351.606,468.848H216.74c-1.438,0-2.607,1.169-2.607,2.606v10.159h140.08v-10.159
			C354.213,470.017,353.044,468.848,351.606,468.848z"/>
		<path d="M216.74,317.652h134.867c1.438,0,2.606-1.169,2.606-2.606v-18.477h-140.08v18.477
			C214.133,316.483,215.302,317.652,216.74,317.652z"/>
		<path d="M498.187,410.664c-10.71,0-19.419,8.709-19.419,19.419s8.709,19.419,19.419,19.419s19.419-8.709,19.419-19.419
			S508.891,410.664,498.187,410.664z"/>
		<path d="M582.93,265.633H200.448c-0.189-0.722-0.404-1.444-0.734-2.173c-15.985-35.453,46.628-59.346,65.594-79.578
			c18.538-19.774,20.796-48.819,14.174-73.691c-4.058-15.239-27.674-8.764-23.605,6.505c13.195,49.548-30.881,65.459-61.818,91.305
			c-17.932,14.981-24.449,36.585-19.033,57.632H12.24c-6.762,0-12.24,5.478-12.24,12.24V481.43c0,6.763,5.478,12.24,12.24,12.24
			h570.69c6.763,0,12.24-5.478,12.24-12.24V277.873C595.17,271.11,589.692,265.633,582.93,265.633z M587.379,479.007
			c0,4.81-3.917,8.727-8.727,8.727H360.333v0.38h-152.32v-0.38H16.897c-4.811,0-8.728-3.917-8.728-8.727V298.803
			c0-4.81,3.917-8.727,8.728-8.727h561.755c4.816,0,8.727,3.917,8.727,8.727V479.007L587.379,479.007z"/>
		<path d="M463.603,344.104c0.686,0,1.377-0.013,2.062,0.006c0.293,0.006,0.392-0.098,0.367-0.38
			c-0.037-0.435-0.031-0.881-0.092-1.315c-0.172-1.15-1.127-1.989-2.259-2.025c-1.139-0.037-2.154,0.746-2.374,1.885
			c-0.092,0.483-0.074,0.985-0.117,1.475c-0.024,0.27,0.08,0.367,0.35,0.361C462.226,344.097,462.917,344.104,463.603,344.104z"/>
		<path d="M578.652,296.202H360.333v18.85c0,4.811-3.916,8.727-8.727,8.727H216.74c-4.81,0-8.727-3.916-8.727-8.727v-18.85H16.897
			c-1.438,0-2.607,1.169-2.607,2.606v180.198c0,1.432,1.169,2.606,2.607,2.606h191.121v-10.159c0-4.81,3.917-8.727,8.728-8.727
			h134.866c4.811,0,8.728,3.917,8.728,8.727v10.159h218.318c1.438,0,2.607-1.169,2.607-2.606V298.803
			C581.259,297.371,580.09,296.202,578.652,296.202z M180.485,426.876c0,3.623-2.944,6.567-6.567,6.567h-31.444v31.45
			c0,3.623-2.944,6.567-6.567,6.567H86.782c-3.623,0-6.567-2.944-6.567-6.567v-31.45H48.764c-3.623,0-6.567-2.944-6.567-6.567
			v-49.125c0-3.623,2.944-6.566,6.567-6.566h31.444v-31.445c0-3.623,2.944-6.566,6.567-6.566h49.125
			c3.623,0,6.566,2.943,6.566,6.566v31.445h31.445c3.623,0,6.567,2.943,6.567,6.566v49.125H180.485z M360.333,452.183
			c0,4.811-3.916,8.728-8.727,8.728H216.74c-4.81,0-8.727-3.917-8.727-8.728v-43.066c0-4.811,3.917-8.728,8.727-8.728h134.867
			c4.811,0,8.727,3.917,8.727,8.728V452.183z M360.333,387.58c0,4.811-3.916,8.727-8.727,8.727H216.74
			c-4.81,0-8.727-3.916-8.727-8.727v-15.869c0-4.811,3.917-8.728,8.727-8.728h134.867c4.811,0,8.727,3.917,8.727,8.728V387.58z
			 M360.333,351.312c0,4.811-3.916,8.728-8.727,8.728H216.74c-4.81,0-8.727-3.917-8.727-8.728v-15.869
			c0-4.811,3.917-8.728,8.727-8.728h134.867c4.811,0,8.727,3.917,8.727,8.728V351.312z M512.93,340.994
			c3.316-2.913,8.775-2.938,12.068-0.055c3.25,2.84,3.176,7.387-0.171,10.11c-1.702,1.383-3.673,1.995-6.041,2.001
			c-2.123-0.024-4.198-0.704-5.931-2.271C509.82,348.045,509.863,343.687,512.93,340.994z M493.713,342.077
			c0.686-0.973,1.554-1.738,2.625-2.276c1.059-0.532,2.179-0.729,3.36-0.655c1.193,0.074,2.252,0.545,3.341,1.139
			c0-1.23,0-2.381,0-3.531c0-1.156,0-2.313,0-3.513c1.897,0,3.746,0,5.625,0c0,6.364,0,12.711,0,19.088c-1.867,0-3.722,0-5.601,0
			c-0.018-0.214-0.036-0.422-0.061-0.691c-1.94,1.126-3.947,1.414-6.047,0.691c-1.383-0.478-2.473-1.358-3.311-2.552
			C492.042,347.519,492.072,344.396,493.713,342.077z M473.847,339.685c1.873,0,3.722,0,5.637,0c0,0.404,0,0.802,0,1.328
			c0.221-0.184,0.337-0.281,0.459-0.38c2.778-2.319,7.087-1.977,9.314,0.741c0.784,0.954,1.243,2.062,1.273,3.286
			c0.055,2.479,0.037,4.951,0.043,7.43c0,0.067-0.019,0.135-0.031,0.232c-1.854,0-3.702,0-5.6,0c-0.012-0.159-0.03-0.337-0.03-0.508
			c0-2.479,0-4.957,0-7.43c0-1.31-0.612-2.216-1.75-2.602c-1.151-0.385-2.448,0-3.188,0.955c-0.343,0.44-0.49,0.942-0.484,1.499
			c0.007,2.504,0.007,5.013,0.007,7.516c0,0.178,0,0.355,0,0.569c-1.892,0-3.752,0-5.643,0
			C473.847,348.118,473.847,343.913,473.847,339.685z M427.054,339.69c1.86,0,3.715,0,5.637,0c0,0.392,0,0.79,0,1.292
			c0.208-0.166,0.324-0.251,0.435-0.343c2.625-2.204,6.646-2.032,9.015,0.385c1.107,1.133,1.597,2.534,1.628,4.076
			c0.043,2.351,0.012,4.706,0.012,7.057c0,0.055-0.012,0.104-0.024,0.178c-1.866,0-3.721,0-5.643,0c0-0.153,0-0.312,0-0.472
			c0-2.516,0-5.037,0-7.552c0-1.316-0.802-2.338-2.025-2.602c-1.328-0.281-2.711,0.355-3.201,1.524
			c-0.141,0.33-0.189,0.722-0.189,1.083c-0.013,2.503,0,5.006,0.006,7.516c0,0.159,0,0.324,0,0.514c-1.922,0-3.764,0-5.643,0
			C427.054,348.118,427.054,343.92,427.054,339.69z M418.075,333.222c0.961,0,1.903,0,2.853,0c0.937,0,1.872,0,2.84,0
			c0,1.273,0,2.534,0,3.831c-1.873,0-3.765,0-5.692,0C418.075,335.773,418.075,334.525,418.075,333.222z M423.785,339.69
			c0,4.229,0,8.421,0,12.645c-1.896,0-3.77,0-5.679,0c0-4.211,0-8.415,0-12.645C419.997,339.69,421.876,339.69,423.785,339.69z
			 M394.691,333.228c0.152,0,0.3,0,0.446,0c1.652,0,3.305,0.013,4.957-0.006c0.355-0.006,0.557,0.092,0.753,0.41
			c2.546,4.149,5.104,8.286,7.662,12.43c0.086,0.141,0.172,0.275,0.355,0.397c0-4.394,0-8.788,0-13.207c1.988,0,3.904,0,5.851,0
			c0,6.371,0,12.718,0,19.113c-0.367,0-0.704,0-1.047,0c-1.456,0-2.919-0.013-4.376,0.006c-0.318,0.006-0.489-0.104-0.654-0.367
			c-2.577-4.161-5.159-8.323-7.742-12.479c-0.086-0.135-0.171-0.27-0.257-0.404c-0.037,0.007-0.073,0.019-0.11,0.024
			c0,2.191,0,4.383,0,6.573c0,2.197,0,4.4,0,6.622c-1.958,0-3.88,0-5.838,0C394.691,345.976,394.691,339.63,394.691,333.228z
			 M451.374,456.148c0,4.811-3.916,8.727-8.727,8.727h-52.137c-4.811,0-8.727-3.916-8.727-8.727v-52.137
			c0-4.81,3.917-8.727,8.727-8.727h52.137c4.811,0,8.727,3.917,8.727,8.727V456.148z M452.727,352.322c-1.921,0-3.812,0-5.753,0
			c0-4.211,0-8.427,0-12.675c-1.052,0-2.05,0-3.121,0c0-0.587-0.012-1.145,0.019-1.701c0-0.062,0.227-0.159,0.349-0.159
			c0.894-0.012,1.787-0.006,2.736-0.006c0-0.856,0-1.689,0-2.546c1.934,0,3.807,0,5.753,0c0,0.838,0,1.658,0,2.527
			c1.04,0,2.05,0,3.09,0c0,0.648,0,1.249,0,1.879c-1.028,0-2.025,0-3.06,0C452.727,343.877,452.727,348.081,452.727,352.322z
			 M455.132,345.511c0.123-1.781,0.942-3.231,2.265-4.395c1.977-1.737,4.314-2.404,6.909-2.215c2.234,0.159,4.187,0.985,5.777,2.589
			c1.249,1.254,1.995,3.011,1.928,4.553c-3.61,0-7.19,0-10.875,0c0.055,1.255,0.013,2.461,0.184,3.629
			c0.184,1.23,1.206,1.94,2.43,1.892c1.12-0.043,2.025-0.894,2.191-2.1c0.067-0.483,0.079-0.979,0.122-1.529c0.931,0,1.86,0,2.791,0
			c0.924,0,1.842,0,2.827,0c-0.073,0.208-0.122,0.386-0.202,0.551c-0.997,2.142-2.717,3.482-4.92,4.155
			c-3.201,0.974-6.219,0.563-8.881-1.542C455.897,349.69,454.967,347.824,455.132,345.511z M532.979,456.148
			c0,4.811-3.917,8.727-8.728,8.727h-52.136c-4.811,0-8.728-3.916-8.728-8.727v-52.137c0-4.81,3.917-8.727,8.728-8.727h52.136
			c4.811,0,8.728,3.917,8.728,8.727V456.148z"/>
		<path d="M524.251,401.411h-52.136c-1.438,0-2.607,1.169-2.607,2.607v52.136c0,1.433,1.169,2.607,2.607,2.607h52.136
			c1.438,0,2.607-1.169,2.607-2.607v-52.136C526.858,402.58,525.689,401.411,524.251,401.411z M498.187,455.616
			c-14.082,0-25.539-11.457-25.539-25.539s11.457-25.539,25.539-25.539s25.538,11.457,25.538,25.539
			S512.269,455.616,498.187,455.616z"/>
	</g>
</g>
<g>
</g>
<g>
</g>
<g>
</g>
<g>
</g>
<g>
</g>
<g>
</g>
<g>
</g>
<g>
</g>
<g>
</g>
<g>
</g>
<g>
</g>
<g>
</g>
<g>
</g>
<g>
</g>
<g>
</g>
</svg>
