<?xml version="1.0" encoding="UTF-8" standalone="no"?>
<!-- Created with Inkscape (http://www.inkscape.org/) -->

<svg
   xmlns:dc="http://purl.org/dc/elements/1.1/"
   xmlns:cc="http://creativecommons.org/ns#"
   xmlns:rdf="http://www.w3.org/1999/02/22-rdf-syntax-ns#"
   xmlns:svg="http://www.w3.org/2000/svg"
   xmlns="http://www.w3.org/2000/svg"
   xmlns:sodipodi="http://sodipodi.sourceforge.net/DTD/sodipodi-0.dtd"
   xmlns:inkscape="http://www.inkscape.org/namespaces/inkscape"
   width="256"
   height="256"
   viewBox="0 0 256 256"
   version="1.1"
   id="root"
   inkscape:version="0.92.1 r15371"
   sodipodi:docname="nulldc-symbolic.svg">
  <defs
     id="defs4517">
    <inkscape:path-effect
       effect="taper_stroke"
       id="path-effect4510"
       is_visible="true"
       stroke_width="16"
       attach_start="3.99999"
       end_offset="1.99999"
       smoothing="1"
       jointype="extrapolated"
       miter_limit="100" />
    <inkscape:path-effect
       effect="taper_stroke"
       id="path-effect4506"
       is_visible="true"
       stroke_width="20"
       attach_start="1.99999"
       end_offset="3.99999"
       smoothing="1"
       jointype="extrapolated"
       miter_limit="100" />
    <inkscape:path-effect
       effect="taper_stroke"
       id="path-effect4497"
       is_visible="true"
       stroke_width="1"
       attach_start="0.2"
       end_offset="0.2"
       smoothing="0.5"
       jointype="extrapolated"
       miter_limit="100" />
    <inkscape:path-effect
       effect="knot"
       id="path-effect4495"
       is_visible="true"
       interruption_width="3"
       prop_to_stroke_width="true"
       add_stroke_width="true"
       add_other_stroke_width="true"
       switcher_size="15"
       crossing_points_vector="" />
    <inkscape:path-effect
       effect="knot"
       id="path-effect4493"
       is_visible="true"
       interruption_width="3"
       prop_to_stroke_width="true"
       add_stroke_width="true"
       add_other_stroke_width="true"
       switcher_size="15"
       crossing_points_vector="" />
    <inkscape:path-effect
       effect="gears"
       id="path-effect4491"
       is_visible="true"
       teeth="10"
       phi="5"
       min_radius="5" />
    <inkscape:path-effect
       effect="ellipse_5pts"
       id="path-effect4489"
       is_visible="true" />
  </defs>
  <sodipodi:namedview
     id="base"
     pagecolor="#ffffff"
     bordercolor="#666666"
     borderopacity="1.0"
     inkscape:pageopacity="0.0"
     inkscape:pageshadow="2"
     inkscape:zoom="2.5625"
     inkscape:cx="71.219512"
     inkscape:cy="128"
     inkscape:document-units="px"
     inkscape:current-layer="layer2"
     showgrid="true"
     units="px"
     inkscape:pagecheckerboard="true"
     inkscape:window-width="1428"
     inkscape:window-height="855"
     inkscape:window-x="353"
     inkscape:window-y="138"
     inkscape:window-maximized="0">
    <inkscape:grid
       type="xygrid"
       id="grid4482"
       empspacing="4" />
  </sodipodi:namedview>
  <metadata
     id="metadata4520">
    <rdf:RDF>
      <cc:Work
         rdf:about="">
        <dc:format>image/svg+xml</dc:format>
        <dc:type
           rdf:resource="http://purl.org/dc/dcmitype/StillImage" />
        <dc:title></dc:title>
        <cc:license
           rdf:resource="http://creativecommons.org/publicdomain/zero/1.0/" />
      </cc:Work>
      <cc:License
         rdf:about="http://creativecommons.org/publicdomain/zero/1.0/">
        <cc:permits
           rdf:resource="http://creativecommons.org/ns#Reproduction" />
        <cc:permits
           rdf:resource="http://creativecommons.org/ns#Distribution" />
        <cc:permits
           rdf:resource="http://creativecommons.org/ns#DerivativeWorks" />
      </cc:License>
    </rdf:RDF>
  </metadata>
  <g
     inkscape:groupmode="layer"
     id="layer2"
     inkscape:label="Spirals"
     style="display:inline">
    <path
       transform="matrix(0,1.072873,1.072873,0,-246.29754,276.65571)"
       d="m -208.43158,398.04569 c 13.6326,16.77532 32.50964,25.19262 49.49328,27.2117 10.07033,1.19924 19.69238,0.21127 28.2449,-2.2733 10.29245,-3.00973 18.88541,-8.20459 25.53058,-14.11961 15.256787,-13.65216 20.070867,-31.0027 20.678604,-42.85516 0.496951,-9.62761 -1.522044,-17.48835 -3.776726,-22.9646 -4.316074,-10.44661 -10.571332,-15.16901 -12.247788,-16.26968 -2.44697,-1.60654 -2.92767,-1.12497 -2.92767,-1.12497 0,0 -0.35734,0.38067 0.59405,3.00466 0.22803,0.62894 4.042234,9.42285 5.327846,17.14781 0.813065,4.82432 1.203787,11.29327 -0.203347,18.73058 -1.727603,9.10733 -6.964259,22.0292 -18.627159,31.06242 -5.17455,4.04618 -11.73567,7.5293 -19.26656,9.38979 -6.28958,1.57107 -13.41941,2.03897 -20.84646,0.98773 -12.4143,-1.76112 -26.65364,-8.32666 -36.41915,-20.49958 -1.8e-4,-2.3e-4 -3.7e-4,-4.6e-4 -5.5e-4,-6.8e-4 -10.78037,-13.33797 -14.57074,-29.89588 -12.31926,-46.01773 2.25148,-16.12186 10.63037,-31.5541 23.99163,-42.05365 15.27531,-12.00366 34.13516,-16.14817 52.35907,-13.46276 18.22391,2.68542 35.566018,12.2655 47.318554,27.52714 13.168622,17.10054 17.650921,38.1327 14.557074,58.34905 -3.093847,20.21635 -13.813759,39.37615 -30.875498,52.31579 -3.77e-4,2.8e-4 -7.54e-4,5.7e-4 -0.0011,8.6e-4 -9.24735,7.02071 -19.88607,11.90352 -30.76263,14.4605 -11.03744,2.60774 -22.46238,2.87806 -33.29774,1.19295 -23.50807,-3.6558 -44.35219,-16.81727 -57.23509,-33.99947 -7.66108,-10.15032 -12.9103,-21.741 -15.65923,-33.47951 -2.84943,-12.11684 -3.1043,-24.54979 -1.28991,-36.23006 0,0 4e-5,-6e-5 4e-5,-6e-5 4.06695,-26.18612 18.77322,-48.64847 37.04171,-62.35929 11.17108,-8.43175 23.77047,-14.05576 36.28531,-17.01424 13.39453,-3.17679 26.90673,-3.39884 39.33178,-1.51369 30.150404,4.5731 54.061272,21.60726 68.106329,40.0731 9.697299,12.69756 15.655114,26.54592 18.818772,39.36287 0,0 1e-6,3e-5 1e-6,3e-5 3.884313,15.70574 3.862356,30.62527 2.185209,42.96105 -2.900088,21.33919 -11.246209,37.90984 -17.520581,47.98829 -6.357229,10.21154 -12.924688,17.49755 -16.373633,21.19654 -7.77196,8.33543 -7.832032,8.49614 -7.832032,8.49614 0,0 0.101665,0.14345 1.431805,-0.49475 1.096066,-0.52588 4.142299,-2.15772 8.609125,-5.55232 4.255877,-3.23429 11.831182,-9.61865 19.638157,-19.85711 7.607324,-9.97663 17.890421,-26.91209 22.374864,-50.06273 2.583431,-13.33532 3.428225,-29.71709 -0.166766,-47.43761 -7e-6,0 -8e-6,-4e-5 -8e-6,-4e-5 -2.945401,-14.48565 -9.043105,-30.29811 -19.607075,-45.11221 -15.503011,-21.65653 -42.085313,-41.89286 -76.979897,-47.96379 -14.34635,-2.49603 -30.03275,-2.53782 -45.87043,0.91119 -14.83452,3.24052 -29.77635,9.62447 -43.22983,19.47072 -22.1549,16.29396 -39.84577,42.45656 -45.04571,73.8834 3e-5,10e-6 -1e-5,8e-5 -1e-5,8e-5 -2.31079,13.96589 -2.1159,28.85298 1.21856,43.59933 3.25149,14.32771 9.52362,28.4099 18.83109,40.90216 15.97153,21.32073 40.93831,37.30677 69.84149,41.90073 13.26472,2.10837 27.24149,1.78693 40.95641,-1.41201 13.55912,-3.1754 26.716469,-9.20885 38.285155,-17.97448 4.68e-4,-3.5e-4 9.36e-4,-7.1e-4 0.0014,-0.001 21.404086,-16.23289 34.708359,-40.0589 38.559821,-65.22579 3.851462,-25.16689 -1.799804,-51.91541 -18.480858,-73.57713 -15.069366,-19.56882 -37.064752,-31.69455 -60.248952,-35.1109 -23.1842,-3.41635 -47.80309,1.94143 -67.63218,17.52353 -17.62275,13.84832 -28.49575,33.91653 -31.44195,55.01297 -2.9462,21.09644 2.11996,43.47467 16.57243,61.35593 2.6e-4,3.1e-4 5.1e-4,6.2e-4 7.6e-4,9.3e-4 z"
       sodipodi:t0="0.25"
       sodipodi:argument="-17.875937"
       sodipodi:radius="120.92973"
       sodipodi:revolution="3"
       sodipodi:expansion="0.64999998"
       sodipodi:cy="353.26666"
       sodipodi:cx="-144.04901"
       id="path4503"
       style="display:inline;fill-rule:nonzero;stroke:none;stroke-width:16;stroke-linecap:butt;stroke-linejoin:miter;stroke-miterlimit:4;stroke-dasharray:none;stroke-opacity:1;fill-opacity:1"
       sodipodi:type="spiral"
       inkscape:path-effect="#path-effect4506" />
    <path
       sodipodi:type="spiral"
       style="fill-rule:nonzero;stroke:none;stroke-width:1px;stroke-linecap:butt;stroke-linejoin:miter;stroke-opacity:1;fill-opacity:1;opacity:0.6"
       id="path4508"
       sodipodi:cx="-127.31952"
       sodipodi:cy="125.4382"
       sodipodi:expansion="3"
       sodipodi:revolution="3.1569905"
       sodipodi:radius="75.738625"
       sodipodi:argument="-17.618052"
       sodipodi:t0="0.5092907"
       d="m -111.90422,77.264175 c -12.61514,-1.975873 -24.63659,1.264493 -33.79948,7.230457 -11.0891,7.210553 -17.34285,18.468808 -18.82384,29.438148 -1.20575,9.83512 1.65556,18.84435 6.29216,25.51186 5.87767,8.47927 14.70345,12.67829 22.72249,13.41717 7.39912,0.58015 13.77309,-1.9341 18.21929,-5.32779 6.27757,-4.7616 8.54746,-11.47215 8.65849,-16.61644 0.047,-5.46175 -2.34514,-9.47684 -4.44053,-11.737 0,0 0,0 0,0 -2.12218,-2.31413 -4.49432,-3.29648 -6.03025,-3.68345 -1.59923,-0.40292 -2.80868,-0.31545 -3.48133,-0.18955 C -124.01864,115.57552 -124,116 -124,116 c 0,0 0.0486,0.25704 1.11477,0.98019 0.46117,0.3128 1.3516,0.89748 2.23002,1.68974 0.89088,0.80349 2.09013,2.10474 2.8978,3.8736 0,0 0,10e-6 0,10e-6 0.86289,1.86259 1.56251,4.71992 0.87522,7.65772 -0.58766,2.88543 -2.73279,6.37732 -6.48216,8.49753 -2.83058,1.6074 -6.79994,2.58062 -10.72045,1.84689 -4.41244,-0.70199 -9.39442,-3.80105 -12.47761,-8.84041 -2.56227,-4.18897 -4.04019,-9.98164 -3.07931,-15.69907 0.96146,-6.56714 5.39479,-13.74991 12.48184,-18.242485 6.10256,-3.863529 14.45825,-6.032839 22.7524,-4.696576 1.6e-4,2.5e-5 3.1e-4,5e-5 4.7e-4,7.5e-5 5.63826,0.893215 10.60816,2.991118 14.948497,6.014633 4.340334,3.023513 8.040353,6.991283 10.935445,11.598933 5.790185,9.21531 8.251993,20.96223 6.322945,32.02388 -5.4e-5,3e-4 -1.07e-4,6.1e-4 -1.6e-4,9.1e-4 -1.360605,7.82781 -4.500872,14.79231 -8.382719,20.36479 -4.474605,6.46274 -10.178568,11.46107 -15.704458,15.08642 -8.74107,5.72814 -17.87451,8.54233 -25.20671,9.8406 -7.43331,1.31618 -13.93792,1.26154 -18.90544,0.84966 -10.80509,-0.8897 -16.36689,-2.65073 -19.31567,-3.06992 -2.95636,-0.42026 -3.2657,0.0876 -3.2657,0.0876 0,0 -0.36125,0.61129 1.86662,2.74556 1.65263,1.58318 7.65707,6.54585 18.92829,9.74303 5.56388,1.56825 13.11702,2.81199 22.15639,2.20945 8.92269,-0.59476 20.22782,-3.0907 31.554533,-9.71186 7.177632,-4.19217 14.612963,-10.27623 20.712406,-18.63369 5.28936,-7.28165 9.506081,-16.36297 11.324523,-26.76263 7e-5,-4e-4 1.4e-4,-8.1e-4 2.1e-4,-0.001 2.640202,-15.13957 -0.616783,-30.67906 -8.537355,-43.28496 -3.960286,-6.302955 -9.113637,-11.879498 -15.337655,-16.215205 -6.224018,-4.335707 -13.529452,-7.411935 -21.590492,-8.688967 -2.4e-4,-3.8e-5 -4.7e-4,-7.6e-5 -7.1e-4,-1.13e-4 z"
       transform="scale(-1,1)"
       inkscape:path-effect="#path-effect4510" />
  </g>
</svg>
