<svg xmlns="http://www.w3.org/2000/svg" xmlns:svg="http://www.w3.org/2000/svg" id="root" width="256" height="256" version="1.1" viewBox="0 0 256 256"><metadata id="metadata4520"/><g id="layer1" transform="translate(0,-229.26666)"><rect style="opacity:1;fill-opacity:1;fill-rule:nonzero;stroke:none;stroke-width:16;stroke-miterlimit:4;stroke-dasharray:none;stroke-opacity:1;paint-order:stroke fill markers" id="rect5638" width="32" height="32" x="0" y="229.267"/><rect id="rect5640" width="32" height="32" x="32" y="261.267" style="opacity:1;fill-opacity:1;fill-rule:nonzero;stroke:none;stroke-width:16;stroke-miterlimit:4;stroke-dasharray:none;stroke-opacity:1;paint-order:stroke fill markers"/><rect id="rect5642" width="32" height="32" x="-256" y="229.267" transform="scale(-1,1)" style="opacity:1;fill-opacity:1;fill-rule:nonzero;stroke:none;stroke-width:16;stroke-miterlimit:4;stroke-dasharray:none;stroke-opacity:1;paint-order:stroke fill markers"/><rect style="opacity:1;fill-opacity:1;fill-rule:nonzero;stroke:none;stroke-width:16;stroke-miterlimit:4;stroke-dasharray:none;stroke-opacity:1;paint-order:stroke fill markers" id="rect5644" width="32" height="32" x="-224" y="261.267" transform="scale(-1,1)"/><rect style="opacity:1;fill-opacity:1;fill-rule:nonzero;stroke:none;stroke-width:16;stroke-miterlimit:4;stroke-dasharray:none;stroke-opacity:1;paint-order:stroke fill markers" id="rect5646" width="32" height="32" x="32" y="421.267"/><rect id="rect5648" width="32" height="32" x="-224" y="421.267" transform="scale(-1,1)" style="opacity:1;fill-opacity:1;fill-rule:nonzero;stroke:none;stroke-width:16;stroke-miterlimit:4;stroke-dasharray:none;stroke-opacity:1;paint-order:stroke fill markers"/><rect style="opacity:1;fill-opacity:1;fill-rule:nonzero;stroke:none;stroke-width:32;stroke-miterlimit:4;stroke-dasharray:none;stroke-opacity:1;paint-order:stroke fill markers" id="rect5650" width="128" height="32" x="-192" y="453.267" transform="scale(-1,1)"/><path style="fill-rule:evenodd;stroke:none;stroke-width:1px;stroke-linecap:butt;stroke-linejoin:miter;stroke-opacity:1;fill-opacity:1" id="path5652" d="m 64,293.26666 h 32 v -32 h 64 v 32 h 32 v 32 h -32 v 32 h 32 v -32 h 32 v 32 h 32 v 64 h -32 v -32 h -32 v 32 H 64 v -32 H 32 v 32 H 0 v -64 h 32 v -32 h 32 v 32 h 32 v -32 H 64 Z"/></g></svg>