<svg xmlns="http://www.w3.org/2000/svg" xmlns:svg="http://www.w3.org/2000/svg" id="root" width="256" height="256" version="1.1" viewBox="0 0 256 256"><metadata id="metadata4520"/><g id="layer1" transform="translate(0,-229.26666)"><path style="opacity:1;fill-opacity:1;fill-rule:nonzero;stroke:none;stroke-width:8;stroke-miterlimit:4;stroke-dasharray:none;stroke-opacity:1;paint-order:stroke fill markers" id="rect4502" d="M 6 64 C 4.892 64 4 64.892 4 66 L 4 166 C 4 167.108 4.892 168 6 168 L 250 168 C 251.108 168 252 167.108 252 166 L 252 66 C 252 64.892 251.108 64 250 64 L 6 64 z M 28 72 L 100 72 L 64 108 L 28 72 z M 20 80 L 56 116 L 20 152 L 20 80 z M 108 80 L 108 152 L 72 116 L 108 80 z M 148 108 L 192 108 L 192 152 L 148 152 L 148 108 z M 196 108 L 240 108 L 240 152 L 196 152 L 196 108 z M 64 124 L 100 160 L 28 160 L 64 124 z" transform="translate(0,229.26666)"/></g><g id="layer2" style="display:inline"><rect style="opacity:1;fill-opacity:1;fill-rule:nonzero;stroke:none;stroke-width:8;stroke-miterlimit:4;stroke-dasharray:none;stroke-opacity:1;paint-order:stroke fill markers" id="rect4507" width="72" height="72" x="28" y="80" rx="8" ry="8"/><circle style="opacity:1;fill-opacity:1;fill-rule:nonzero;stroke:none;stroke-width:8;stroke-miterlimit:4;stroke-dasharray:none;stroke-opacity:1;paint-order:stroke fill markers" id="path4520" cx="170" cy="130" r="18"/></g><g id="layer3" style="display:inline"><circle style="opacity:1;fill-opacity:1;fill-rule:nonzero;stroke:none;stroke-width:8;stroke-miterlimit:4;stroke-dasharray:none;stroke-opacity:1;paint-order:stroke fill markers" id="circle4525" cx="218" cy="130" r="18"/></g></svg>