<svg xmlns="http://www.w3.org/2000/svg" xmlns:svg="http://www.w3.org/2000/svg" id="root" width="512" height="512" version="1.1" viewBox="0 0 512 512"><metadata id="metadata4857"/><g id="layer2" style="display:inline"><path style="fill-opacity:1;stroke:none;stroke-width:1.10065675" id="rect4891-8-0" d="M 285.46094,15.486328 123.79492,52.3125 l 29.27735,128.41211 99.32617,63.30859 62.34179,-100.13281 z m -12.70117,21.455078 22.41992,98.330074 -49.83008,77.7168 -78.38867,-48.51172 -22.41797,-98.328122 z"/><path style="fill-opacity:1;stroke:none;stroke-width:1.10065675" id="rect4891-4-1" d="m 141.85938,197.79297 -128.472661,29.26562 36.84375,161.5918 128.470701,-29.26562 63.33789,-99.2793 z m -8.63282,19.55273 77.75196,49.80664 -48.53321,78.35157 -98.373044,22.4082 -29.220704,-128.1582 z"/><path style="fill-opacity:1;stroke:none;stroke-width:1.10065675" id="rect4891-8-4-2" d="M 258.80273,270.89062 196.46094,371.02344 225.74023,499.4375 387.40625,462.61133 358.12891,334.19727 Z m 7.04883,31.04493 78.38867,48.51172 22.41797,98.32812 -128.21679,29.20703 -22.41993,-98.33008 z"/><path style="fill-opacity:1;stroke:none;stroke-width:1.10065675" id="rect4891-4-9-5" d="m 463.00977,125.80859 -128.47266,29.26563 -63.33789,99.2793 100.17969,62.3125 128.47265,-29.26368 z m -13.8418,20.73829 29.21875,128.16015 -98.37305,22.4082 -77.7539,-49.80859 48.5332,-78.35156 z"/></g><g id="layer1" transform="translate(0,-540.36218)" style="display:inline"><path style="opacity:.8;fill-opacity:1" id="rect4891-0-5-9" d="m 272.76031,577.30374 22.41883,98.32905 -49.83024,77.71707 -78.38798,-48.51051 -22.41883,-98.32906 z"/><path style="opacity:.8;fill-opacity:1;stroke:none;stroke-width:1.10065675" id="rect4891-0-3-4" d="m 34.851569,780.11548 98.374381,-22.40849 77.75293,49.80726 -48.5329,78.35185 -98.374381,22.40849 z"/><path style="opacity:.8;fill-opacity:1;stroke:none;stroke-width:1.10065675" id="rect4891-0-5-2-7" d="m 238.44059,1018.3443 -22.41883,-98.32904 49.83024,-77.71708 78.38798,48.51052 22.41884,98.32905 z"/><path style="opacity:.8;fill-opacity:1;stroke:none;stroke-width:1.10065675" id="rect4891-0-3-3-8" d="m 478.38717,815.06837 -98.3744,22.4085 -77.75291,-49.80727 48.53289,-78.35184 98.3744,-22.4085 z"/></g></svg>