<svg xmlns="http://www.w3.org/2000/svg" xmlns:svg="http://www.w3.org/2000/svg" id="root" width="256" height="256" version="1.1" viewBox="0 0 256 256"><metadata id="metadata4520"/><g id="layer2"><path style="fill-rule:evenodd;stroke:none;stroke-width:1px;stroke-linecap:butt;stroke-linejoin:miter;stroke-opacity:1" id="path4495" d="M 252,144 240,80 208,40 156,16 80,24 16,80 4,148 l 28,52 72,32 52,-12 40,-48 -4,-64 -40,-40 H 96 l -36,32 v 52 l 36,32 44,-4 12,-28 v -28 l -24,-20 -20,4 -12,24 20,12 12,4 v 12 l -16,4 -32,-24 4,-24 20,-28 h 28 l 28,20 12,44 -20,36 -28,12 H 88 L 40,160 v -56 l 44,-48 68,-4 56,44 12,56 z"/></g></svg>