<svg xmlns="http://www.w3.org/2000/svg" xmlns:svg="http://www.w3.org/2000/svg" id="svg4551" width="180" height="180" version="1.1" viewBox="0 0 144 144"><metadata id="metadata4557"/><path style="fill:#000" id="path4561" d="m 3.0646184,111.82856 v -6.38302 l 33.1632396,-0.66173 c 18.239792,-0.36396 43.207692,-0.66174 55.484231,-0.66174 h 22.320981 l 3.11409,-2.78244 c 2.37675,-2.12363 3.23683,-3.871364 3.63246,-7.381424 0.81049,-7.1906 -1.14762,-11.67489 -6.07493,-13.91229 -3.88542,-1.7643 -7.44613,-1.88128 -57.89007,-1.90189 l -53.7500016,-0.022 v -6.5 -6.5 H 57.09674 c 59.6092,0 59.35222,0.025 62.51173,-6.08479 2.5338,-4.89984 1.58466,-13.24108 -1.9037,-16.73014 L 115.02023,39.622026 59.04242,39.347668 3.0646184,39.07331 V 32.723926 26.374542 L 56.31462,25.910286 c 29.2875,-0.255341 56.31502,-0.09604 60.06116,0.354002 15.89064,1.909021 23.55072,9.257789 24.47331,23.478698 0.54267,8.36474 -1.50303,15.82656 -5.32274,19.41499 -2.43409,2.28671 -2.44327,2.35574 -0.58431,4.39363 4.3921,4.81485 5.61509,8.75311 5.6116,18.07042 -0.004,10.334174 -2.0369,15.527894 -7.79846,19.922454 -8.05526,6.14405 -6.67774,6.02058 -70.94056,6.35831 l -58.7500016,0.30875 z"/></svg>