<?xml version="1.0" encoding="UTF-8" standalone="no"?>
<!-- Created with Inkscape (http://www.inkscape.org/) -->

<svg
   xmlns:dc="http://purl.org/dc/elements/1.1/"
   xmlns:cc="http://creativecommons.org/ns#"
   xmlns:rdf="http://www.w3.org/1999/02/22-rdf-syntax-ns#"
   xmlns:svg="http://www.w3.org/2000/svg"
   xmlns="http://www.w3.org/2000/svg"
   xmlns:xlink="http://www.w3.org/1999/xlink"
   xmlns:sodipodi="http://sodipodi.sourceforge.net/DTD/sodipodi-0.dtd"
   xmlns:inkscape="http://www.inkscape.org/namespaces/inkscape"
   width="256"
   height="256"
   viewBox="0 0 256 256"
   version="1.1"
   id="root"
   inkscape:version="0.92.4 (5da689c313, 2019-01-14)"
   sodipodi:docname="segasaturn-symbolic.svg">
  <defs
     id="defs4517" />
  <sodipodi:namedview
     id="base"
     pagecolor="#ffffff"
     bordercolor="#666666"
     borderopacity="1.0"
     inkscape:pageopacity="0.0"
     inkscape:pageshadow="2"
     inkscape:zoom="3.7421875"
     inkscape:cx="128"
     inkscape:cy="128"
     inkscape:document-units="px"
     inkscape:current-layer="layer1"
     showgrid="false"
     units="px"
     inkscape:pagecheckerboard="true"
     inkscape:window-width="1768"
     inkscape:window-height="1142"
     inkscape:window-x="2238"
     inkscape:window-y="43"
     inkscape:window-maximized="0">
    <inkscape:grid
       type="xygrid"
       id="grid4484"
       empspacing="4" />
  </sodipodi:namedview>
  <metadata
     id="metadata4520">
    <rdf:RDF>
      <cc:Work
         rdf:about="">
        <dc:format>image/svg+xml</dc:format>
        <dc:type
           rdf:resource="http://purl.org/dc/dcmitype/StillImage" />
        <dc:title></dc:title>
        <cc:license
           rdf:resource="http://creativecommons.org/publicdomain/zero/1.0/" />
      </cc:Work>
      <cc:License
         rdf:about="http://creativecommons.org/publicdomain/zero/1.0/">
        <cc:permits
           rdf:resource="http://creativecommons.org/ns#Reproduction" />
        <cc:permits
           rdf:resource="http://creativecommons.org/ns#Distribution" />
        <cc:permits
           rdf:resource="http://creativecommons.org/ns#DerivativeWorks" />
      </cc:License>
    </rdf:RDF>
  </metadata>
  <g
     inkscape:label="Lines"
     inkscape:groupmode="layer"
     id="layer1"
     transform="translate(0,-229.26666)">
    <image
       sodipodi:absref="/home/strider/SegaSaturnjp.png"
       y="215.78957"
       x="880.25769"
       id="image825"
       xlink:href="file:///home/strider/SegaSaturnjp.png"
       preserveAspectRatio="none"
       height="331.96753"
       width="1572.4775" />
    <circle
       style="opacity:0.5;fill-opacity:1;stroke:none;stroke-width:1.01653743"
       id="path830"
       cx="129.67442"
       cy="359.73489"
       r="73.190697" />
    <path
       style="color:#000000;font-style:normal;font-variant:normal;font-weight:normal;font-stretch:normal;font-size:medium;line-height:normal;font-family:sans-serif;font-variant-ligatures:normal;font-variant-position:normal;font-variant-caps:normal;font-variant-numeric:normal;font-variant-alternates:normal;font-feature-settings:normal;text-indent:0;text-align:start;text-decoration:none;text-decoration-line:none;text-decoration-style:solid;text-decoration-color:#000000;letter-spacing:normal;word-spacing:normal;text-transform:none;writing-mode:lr-tb;direction:ltr;text-orientation:mixed;dominant-baseline:auto;baseline-shift:baseline;text-anchor:start;white-space:normal;shape-padding:0;clip-rule:nonzero;display:inline;overflow:visible;visibility:visible;opacity:1;isolation:auto;mix-blend-mode:normal;color-interpolation:sRGB;color-interpolation-filters:linearRGB;solid-color:#000000;solid-opacity:1;vector-effect:none;fill:#000000;fill-opacity:1;fill-rule:nonzero;stroke:none;stroke-width:19.39999962;stroke-linecap:round;stroke-linejoin:miter;stroke-miterlimit:4;stroke-dasharray:none;stroke-dashoffset:0;stroke-opacity:1;color-rendering:auto;image-rendering:auto;shape-rendering:auto;text-rendering:auto;enable-background:accumulate"
       d="M 185.12891 58.304688 C 184.22838 58.297547 183.3229 58.299165 182.41406 58.308594 C 180.33671 58.330146 178.23788 58.392703 176.12109 58.498047 C 168.56242 58.874213 160.76686 59.786378 152.86719 61.115234 A 73.190697 73.190697 0 0 1 181.18164 78.548828 C 194.62979 78.082658 206.29475 79.367732 214.60938 82.783203 C 219.58441 84.905383 225.33362 82.550005 227.38867 77.546875 C 229.44372 72.543755 227.0108 66.825441 221.98047 64.837891 C 211.18205 60.402133 198.63675 58.411796 185.12891 58.304688 z M 128.07617 66.541016 C 127.01286 66.824137 125.95083 67.11333 124.88867 67.408203 C 125.95089 67.113644 127.0128 66.823833 128.07617 66.541016 z M 123.07422 67.917969 C 122.14265 68.182521 121.21124 68.445638 120.28125 68.71875 C 121.21103 68.445993 122.14286 68.182171 123.07422 67.917969 z M 116.08008 69.982422 C 115.25543 70.236421 114.43394 70.497599 113.61133 70.757812 C 114.43411 70.49779 115.25526 70.236218 116.08008 69.982422 z M 111.07422 71.568359 C 110.38769 71.79134 109.70229 72.015129 109.01758 72.242188 C 109.70199 72.015417 110.38799 71.791046 111.07422 71.568359 z M 105.27539 73.505859 C 104.90707 73.632532 104.53758 73.756991 104.16992 73.884766 C 104.53755 73.757089 104.90711 73.63243 105.27539 73.505859 z M 103.60156 74.085938 C 101.37836 74.86272 99.17174 75.66219 96.976562 76.476562 C 99.171582 75.662582 101.37857 74.86214 103.60156 74.085938 z M 176.58203 78.777344 C 176.28357 78.795801 175.98158 78.817843 175.68164 78.837891 C 175.98149 78.817849 176.28366 78.795795 176.58203 78.777344 z M 171.94531 79.125 C 171.55294 79.159025 171.16212 79.191935 170.76758 79.228516 C 171.16185 79.191957 171.55321 79.159006 171.94531 79.125 z M 166.36719 79.681641 C 166.25914 79.693968 166.15311 79.70429 166.04492 79.716797 C 166.15313 79.704285 166.25911 79.693973 166.36719 79.681641 z M 161.20117 80.332031 C 160.80364 80.38668 160.40292 80.446981 160.00391 80.503906 C 160.40281 80.446983 160.80375 80.386678 161.20117 80.332031 z M 156.24609 81.070312 C 155.79391 81.142014 155.3424 81.214576 154.88867 81.289062 C 155.34211 81.21461 155.7942 81.141982 156.24609 81.070312 z M 82.966797 81.996094 C 81.761218 82.502119 80.562367 83.012668 79.373047 83.529297 C 80.561772 83.011952 81.761646 82.502728 82.966797 81.996094 z M 139.81641 84.210938 C 139.30936 84.323869 138.80258 84.438734 138.29492 84.554688 C 138.80236 84.438762 139.30958 84.323842 139.81641 84.210938 z M 134.61523 85.421875 C 134.13826 85.537336 133.66273 85.64954 133.18555 85.767578 C 133.6625 85.649576 134.13848 85.537302 134.61523 85.421875 z M 128.18555 87.048828 C 127.91192 87.121575 127.6388 87.197921 127.36523 87.271484 C 127.63872 87.197932 127.912 87.121565 128.18555 87.048828 z M 70.455078 87.582031 C 55.196151 94.822989 41.686337 102.92007 31.294922 111.51953 C 24.15326 117.42965 18.396403 123.55194 14.703125 130.52148 C 11.009847 137.49102 9.6211613 146.1355 12.910156 153.82812 L 13.158203 154.40625 L 13.476562 154.94727 C 18.246919 163.02733 27.338313 165.35879 35.839844 165.61328 C 44.341374 165.86777 53.879219 164.30469 64.564453 161.80859 C 85.934922 156.81639 111.70033 147.82006 136.79492 139.1582 C 161.88951 130.49634 186.37864 122.17278 203.65625 118.5957 C 212.29506 116.80716 219.24003 116.42335 222.21875 116.94922 C 222.29345 116.96242 222.21676 116.9492 222.28516 116.96289 C 222.23456 117.17372 222.27815 117.07816 222.21875 117.29883 C 220.87204 122.28446 217.30717 131.08598 207.61914 140.80078 C 205.67287 142.75243 203.45445 144.74876 200.95898 146.75781 A 73.190697 73.190697 0 0 1 183.97266 179.42383 C 200.64388 171.87995 212.69149 163.18987 221.35742 154.5 C 233.53815 142.28562 238.81588 130.24799 240.94727 122.35742 C 241.74008 119.42237 242.04497 117.39512 242.19727 115.57031 L 242.27734 115.56641 C 242.27654 115.54261 242.26858 115.51804 242.26758 115.49414 L 242.27539 115.49414 C 242.25209 114.92888 242.25677 115.01841 242.25977 114.83594 C 242.27957 114.4661 242.35432 114.02517 242.35742 113.67188 C 242.35942 113.3906 242.36342 113.11876 242.32422 112.61328 C 242.30482 112.36054 242.28872 112.0718 242.16992 111.45508 C 242.11052 111.14671 242.0378 110.76277 241.80078 110.08203 C 241.56377 109.40129 239.54091 106.44914 239.53906 106.44727 C 239.53905 106.44726 239.46008 106.43565 239.45898 106.43555 C 238.7143 105.22061 237.87725 104.07418 236.85938 103.11328 C 233.51512 99.956242 229.48517 98.533393 225.58984 97.845703 C 217.7992 96.470323 209.46232 97.583149 199.72266 99.599609 C 180.24333 103.63252 155.58655 112.14909 130.46484 120.82031 C 105.34313 129.49154 79.82146 138.32321 60.152344 142.91797 C 50.317786 145.21535 41.899742 146.38474 36.419922 146.2207 C 32.07249 146.09056 30.942749 145.44711 30.597656 145.25195 C 30.256244 143.9224 30.322018 142.47711 31.84375 139.60547 C 33.708832 136.08589 37.764295 131.34756 43.662109 126.4668 C 47.648283 123.16802 52.453542 119.79621 57.865234 116.44922 A 73.190697 73.190697 0 0 1 70.455078 87.582031 z M 123.19727 88.425781 C 122.65431 88.580226 122.11258 88.736963 121.57031 88.894531 C 122.11224 88.737043 122.65464 88.580151 123.19727 88.425781 z M 117.81641 90.013672 C 117.41419 90.13629 117.01096 90.254613 116.60938 90.378906 C 117.01099 90.25459 117.41415 90.136314 117.81641 90.013672 z M 111.64062 91.962891 C 111.33207 92.064413 111.02677 92.17095 110.71875 92.273438 C 111.02663 92.170992 111.33222 92.064372 111.64062 91.962891 z M 106.68555 93.648438 C 106.19257 93.820611 105.70211 93.995326 105.21094 94.169922 C 105.70219 93.995289 106.19249 93.82065 106.68555 93.648438 z M 101.60352 95.480469 C 101.14167 95.651852 100.67863 95.820654 100.21875 95.994141 C 100.67845 95.820714 101.14184 95.651795 101.60352 95.480469 z M 90.816406 99.742188 C 90.306208 99.956378 89.801789 100.17435 89.294922 100.39062 C 89.801583 100.17451 90.306451 99.956216 90.816406 99.742188 z M 85.958984 101.83789 C 85.539045 102.02356 85.118451 102.2095 84.701172 102.39648 C 85.118443 102.20961 85.539072 102.02345 85.958984 101.83789 z M 75.580078 106.6875 C 75.396517 106.77831 75.216046 106.86993 75.033203 106.96094 C 75.216083 106.86998 75.39648 106.77826 75.580078 106.6875 z M 70.949219 109.03906 C 70.828272 109.10213 70.706517 109.16537 70.585938 109.22852 C 70.706514 109.16542 70.828275 109.10209 70.949219 109.03906 z M 197.59961 149.33008 C 197.42891 149.4552 197.26485 149.5819 197.0918 149.70703 C 197.26486 149.58191 197.4289 149.4552 197.59961 149.33008 z M 195.54883 150.79492 C 195.28063 150.98126 195.00991 151.1673 194.73633 151.35352 C 195.01 151.16727 195.28054 150.9813 195.54883 150.79492 z M 193.12695 152.42969 C 192.90633 152.574 192.67709 152.71717 192.45312 152.86133 C 192.67726 152.71709 192.90616 152.57408 193.12695 152.42969 z M 186.50781 156.43555 C 186.15206 156.63551 185.79642 156.83592 185.43359 157.03516 C 185.7966 156.83588 186.15189 156.63554 186.50781 156.43555 z M 183.49219 158.07812 C 183.18749 158.23869 182.87589 158.39861 182.56641 158.55859 C 182.87576 158.39873 183.18761 158.23857 183.49219 158.07812 z M 175.29492 162.05273 C 174.98213 162.19255 174.67241 162.33159 174.35547 162.4707 C 174.67246 162.33162 174.98209 162.19251 175.29492 162.05273 z M 171.95898 163.49805 C 171.60309 163.6473 171.24178 163.79504 170.88086 163.94336 C 171.24191 163.79505 171.60296 163.64728 171.95898 163.49805 z M 168.32422 164.97461 C 168.14164 165.04614 167.95139 165.11622 167.76758 165.1875 C 167.95138 165.11625 168.14164 165.0461 168.32422 164.97461 z M 162.17773 167.24414 C 161.84012 167.36238 161.50937 167.48222 161.16797 167.59961 C 161.50954 167.48221 161.83995 167.36239 162.17773 167.24414 z M 158.36133 168.53516 C 157.92671 168.67729 157.48935 168.81825 157.04883 168.95898 C 157.48941 168.8183 157.92665 168.67724 158.36133 168.53516 z M 154.16992 169.85938 C 153.75823 169.98432 153.33463 170.10678 152.91797 170.23047 C 153.33491 170.10675 153.75795 169.98435 154.16992 169.85938 z M 142.52734 173.04688 C 142.00889 173.17488 141.49003 173.30164 140.96484 173.42773 C 141.49018 173.30166 142.00874 173.17486 142.52734 173.04688 z M 137.60938 174.21094 C 137.16647 174.31105 136.7151 174.40906 136.26758 174.50781 C 136.7154 174.40904 137.16618 174.31107 137.60938 174.21094 z M 123.84961 176.95508 C 123.45213 177.02471 123.05889 177.09547 122.6582 177.16406 C 123.05907 177.09547 123.45195 177.02471 123.84961 176.95508 z M 118.53711 177.83984 C 118.05601 177.91582 117.56953 177.98997 117.08398 178.06445 C 117.5695 177.99 118.05604 177.91578 118.53711 177.83984 z M 183.83594 179.48438 C 179.0276 181.65516 173.8363 183.73088 168.22461 185.68164 C 173.83583 183.73019 179.02744 181.65518 183.83594 179.48438 z M 102.80469 179.95703 C 102.37856 180.00511 101.96041 180.05653 101.53125 180.10352 C 101.96029 180.05655 102.37868 180.00508 102.80469 179.95703 z M 97.134766 180.55664 C 96.418929 180.62709 95.698622 180.69624 94.974609 180.76367 C 95.698737 180.69624 96.418814 180.62708 97.134766 180.55664 z M 90.507812 181.1582 C 89.887565 181.20942 89.253028 181.25567 88.626953 181.30469 C 89.252917 181.25568 89.887672 181.2094 90.507812 181.1582 z M 79.21875 181.94336 C 67.227738 182.63731 54.272913 182.95571 40.197266 182.79492 C 34.819454 182.70412 30.395168 187.00655 30.333984 192.38477 C 30.272804 197.763 34.598078 202.16375 39.976562 202.19531 C 64.444784 202.47482 85.943466 201.37615 104.89062 199.24023 A 73.190697 73.190697 0 0 1 77.783203 182.03125 C 78.268747 182.0046 78.736449 181.97127 79.21875 181.94336 z M 168.21484 185.68359 C 166.88509 186.14578 165.52738 186.6009 164.15039 187.04883 C 165.52722 186.60073 166.88522 186.14593 168.21484 185.68359 z M 163.64258 187.21289 C 162.29498 187.64764 160.92651 188.07761 159.5332 188.49805 C 160.92664 188.07733 162.29487 187.64791 163.64258 187.21289 z M 159.11523 188.62109 C 153.10085 190.42376 146.66473 192.09239 139.76562 193.5957 C 146.66335 192.09169 153.10208 190.42442 159.11523 188.62109 z M 139.73438 193.60156 C 138.00737 193.97768 136.24963 194.34397 134.46484 194.69922 C 136.24898 194.34386 138.008 193.97779 139.73438 193.60156 z M 134.32031 194.72656 C 132.53121 195.08179 130.71522 195.42829 128.86719 195.76172 C 130.7156 195.42803 132.53088 195.08209 134.32031 194.72656 z M 128.86719 195.76172 C 121.4352 197.10262 113.51918 198.2609 105.0957 199.21484 C 113.51923 198.26093 121.43582 197.10328 128.86719 195.76172 z "
       transform="translate(0,229.26666)"
       id="path834" />
  </g>
</svg>
