<?xml version="1.0" encoding="UTF-8" standalone="no"?>
<!-- Generator: Adobe Illustrator 12.0.1, SVG Export Plug-In  -->

<svg
   xmlns:dc="http://purl.org/dc/elements/1.1/"
   xmlns:cc="http://creativecommons.org/ns#"
   xmlns:rdf="http://www.w3.org/1999/02/22-rdf-syntax-ns#"
   xmlns:svg="http://www.w3.org/2000/svg"
   xmlns="http://www.w3.org/2000/svg"
   xmlns:sodipodi="http://sodipodi.sourceforge.net/DTD/sodipodi-0.dtd"
   xmlns:inkscape="http://www.inkscape.org/namespaces/inkscape"
   version="1.0"
   width="512"
   height="512"
   viewBox="9 26.110352 512 512"
   enable-background="new 9 26.1103516 256 256"
   xml:space="preserve"
   id="root"
   sodipodi:version="0.32"
   inkscape:version="0.92.1 r15371"
   sodipodi:docname="scummvm-symbolic.svg"
   inkscape:output_extension="org.inkscape.output.svg.inkscape"
   style="display:inline"
   inkscape:export-filename="scummvm_icon.png"
   inkscape:export-xdpi="90"
   inkscape:export-ydpi="90"><sodipodi:namedview
     inkscape:window-height="889"
     inkscape:window-width="1280"
     inkscape:pageshadow="2"
     inkscape:pageopacity="0.0"
     guidetolerance="10.0"
     gridtolerance="10.0"
     objecttolerance="10.0"
     borderopacity="1.0"
     bordercolor="#666666"
     pagecolor="#ffffff"
     id="base"
     inkscape:zoom="0.7949219"
     inkscape:cx="26.651701"
     inkscape:cy="251.13204"
     inkscape:window-x="154"
     inkscape:window-y="97"
     inkscape:current-layer="layer11"
     showgrid="false"
     inkscape:pagecheckerboard="true"
     inkscape:window-maximized="0"
     inkscape:snap-page="true" /><metadata
     id="metadata21"><rdf:RDF><cc:Work
         rdf:about=""><dc:format>image/svg+xml</dc:format><dc:type
           rdf:resource="http://purl.org/dc/dcmitype/StillImage" /><dc:title /></cc:Work></rdf:RDF></metadata><defs
     id="defs4" /><g
     style="display:inline"
     inkscape:label="Border"
     id="layer6"
     inkscape:groupmode="layer"><path
       style="display:inline;opacity:1;fill-opacity:1;stroke:none;stroke-width:0.99229699;stroke-miterlimit:4;stroke-dasharray:none;stroke-opacity:1"
       d="M 247.75195 3.9707031 C 168.81478 4.4559723 111.24558 39.012507 87.701172 91.960938 C 66.98442 138.56716 72.242294 194.64561 95.78125 231.54883 C 103.63339 244.46501 122.20814 262.6738 125.04688 274.78516 C 126.28313 281.93592 114.94717 292.85795 109.18945 298.75391 C 93.159213 315.16903 68.367589 338.8906 61.617188 358.08398 C 48.501749 395.3793 79.287956 421.65858 98.892578 439.96484 C 137.14486 475.63334 194.66875 499.19627 268.63867 494.23047 C 317.80799 490.91993 357.20282 476.56994 389.41016 452.33398 C 420.3629 429.0421 439.13287 389.55703 444.36523 348.25195 C 447.87319 320.55953 438.71738 267.18414 414.10742 237.84766 C 407.0155 229.39368 391.80221 210.63586 391.29883 204.39062 C 390.70565 197.03119 395.48621 189.37084 405.78125 176.83008 C 422.38013 156.61048 436.41046 135.64339 439.06836 116.76172 C 443.39398 86.032799 409.14323 58.130375 367.06055 33.945312 C 337.60191 17.00206 294.73616 5.4097535 259.55078 4.1484375 C 255.56676 4.0056243 251.63411 3.9468374 247.75195 3.9707031 z M 243.86719 41.96875 C 279.30807 41.96875 302.08752 47.114847 325.4082 57.703125 C 356.90312 71.129827 376.94397 88.714193 394.06055 104.31445 C 400.73233 110.39519 394.97234 117.73592 391.49414 123.13086 C 382.75238 136.68998 370.38433 153.40945 366.52539 161.45312 C 363.45381 167.30047 357.77758 169.50126 353.06836 165.42578 C 353.06836 165.42578 341.42668 155.55847 332.02148 149.48633 C 322.61364 143.43277 313.71589 138.8804 304.70312 134.57422 C 295.68243 130.27334 287.56788 127.67653 279.73242 125.52344 C 271.88636 123.37831 265.66442 122.60937 259.7832 122.60938 C 252.72732 122.60938 246.89735 124.68446 243.57227 128.20312 C 240.23655 131.72179 239.02871 134.96475 239.20312 140.4375 C 239.51763 150.30529 241.01685 152.14316 250.31445 161.03516 C 258.34081 167.102 264.66748 171.46761 280.9082 180.12305 C 293.04806 186.59295 306.08957 193.8143 320.00781 201.83008 C 333.91805 209.85114 347.89785 220.1618 360.05273 231.5 C 372.20499 242.85676 381.67063 255.81438 389.71289 271.65234 C 397.73927 287.4956 401.76367 306.68186 401.76367 328.58398 C 401.76367 349.7039 397.35172 368.62089 388.53516 384.06641 C 379.71596 399.51987 367.93864 412.54035 353.82422 422.51562 C 339.71512 432.4909 323.41916 439.60125 305.58984 444.49609 C 287.74728 449.38031 269.50013 451.51367 251.47461 451.51367 C 215.40769 451.51367 187.64581 445.80079 163.15039 432.51367 C 135.19288 419.21861 97.190099 378.40844 97.949219 372.08594 C 98.936339 363.86458 120.41276 342.23877 133.43164 323.75977 C 139.77226 314.75991 142.28633 310.50778 151.78516 318.91406 C 151.78516 318.91406 160.0429 327.10337 168.27344 333.55469 C 176.50398 340.01397 185.73046 344.42631 195.33984 349.31055 C 204.93858 354.21067 210.65438 356.95381 222.2207 360.39453 C 232.21984 363.53403 243.41149 364.77539 252.03711 364.77539 C 260.65477 364.77539 266.40215 361.55803 270.47461 357.87695 C 274.97701 353.80725 276.29492 349.51331 276.29492 340.90625 C 276.29492 333.48179 270.06544 324.86908 262.03906 318.21094 C 254.0021 311.56872 244.9475 305.88672 232.99414 298.64258 C 221.0328 291.40638 207.78329 282.96177 193.87305 274.54297 C 179.95483 266.13743 167.02368 255.63256 155.07031 244.28906 C 143.10633 232.95086 134.68401 222.45627 126.65234 207.79297 C 118.61537 193.12437 113.96875 176.84024 113.96875 157.67188 C 113.96875 138.89597 116.866 120.58846 123.92188 106.50586 C 130.97777 92.423259 140.48009 80.599875 152.44141 71.011719 C 164.39213 61.434173 178.2091 54.200921 193.89062 49.300781 C 209.56417 44.416551 226.22881 41.96875 243.86719 41.96875 z "
       id="path53"
       transform="translate(9,26.110352)" /></g><g
     style="display:inline"
     inkscape:label="Green Plain"
     id="layer11"
     inkscape:groupmode="layer"><path
       sodipodi:nodetypes="cssscscsscsccsssccccsssscscsscccccssscsccc"
       style="display:inline;opacity:0.4;fill-opacity:1;stroke:none;stroke-width:0.52499998;stroke-miterlimit:4;stroke-dasharray:none;stroke-opacity:1"
       id="path3268"
       d="m 398.71192,297.76269 c 8.02638,15.84326 12.0515,35.02914 12.0515,56.93126 0,21.11992 -4.41224,40.03694 -13.2288,55.48246 -8.8192,15.45346 -20.59652,28.47438 -34.71094,38.44966 -14.1091,9.97528 -30.40474,17.08524 -48.23406,21.98008 -17.84256,4.88422 -36.08976,7.01718 -54.11528,7.01718 -36.06692,0 -63.82946,-5.71204 -88.32488,-18.99916 -27.95751,-13.29506 -65.95956,-54.1046 -65.20044,-60.4271 0.98712,-8.22136 22.46435,-29.8476 35.48323,-48.3266 6.34062,-8.99986 8.85358,-13.25202 18.35241,-4.84574 0,0 8.25883,8.18932 16.48937,14.64064 8.23054,6.45928 17.45705,10.8704 27.06643,15.75464 9.59874,4.90012 15.31322,7.6434 26.87954,11.08412 9.99914,3.1395 21.19056,4.38148 29.81618,4.38148 8.61766,0 14.36558,-3.21638 18.43804,-6.89746 4.5024,-4.0697 5.82072,-8.3652 5.82072,-16.97226 0,-7.42446 -6.22922,-16.0369 -14.2556,-22.69504 -8.03696,-6.64222 -17.09264,-12.32348 -29.046,-19.56762 -11.96134,-7.2362 -25.2103,-15.68208 -39.12054,-24.10088 -13.91822,-8.40554 -26.85002,-18.90904 -38.80339,-30.25254 -11.96398,-11.3382 -20.38534,-21.8336 -28.41701,-36.4969 -8.03697,-14.6686 -12.68312,-30.95144 -12.68312,-50.1198 0,-18.7759 2.89762,-37.08418 9.9535,-51.16678 7.05589,-14.0826 16.55654,-25.90604 28.51786,-35.494196 11.95072,-9.577546 25.76816,-16.811084 41.44968,-21.711224 15.67354,-4.88423 32.3388,-7.331648 49.97718,-7.331648 35.44088,0 58.21984,5.146172 81.54052,15.73445 31.49492,13.426702 51.5351,31.011788 68.65168,46.612048 6.67178,6.08074 0.9127,13.42022 -2.5655,18.81516 -8.74176,13.55912 -21.10932,30.27951 -24.96826,38.32319 -3.07158,5.84734 -8.7491,8.04662 -13.45832,3.97114 0,0 -11.64068,-9.8662 -21.04588,-15.93834 -9.40784,-6.05356 -18.305,-10.60579 -27.31776,-14.91197 -9.0207,-4.30088 -17.1356,-6.89888 -24.97106,-9.05197 -7.84606,-2.14513 -14.06878,-2.91249 -19.95,-2.91249 -7.05588,0 -12.88466,2.07515 -16.20974,5.59382 -3.33572,3.51866 -4.54368,6.76055 -4.36926,12.2333 0.3145,9.86779 1.81304,11.70507 11.11064,20.59707 8.02636,6.06684 14.3523,10.43232 30.59302,19.08776 12.13986,6.4699 25.18214,13.6928 39.10038,21.70858 13.91024,8.02106 27.88894,18.33102 40.04382,29.66922 12.15226,11.35676 21.61788,24.3145 29.66014,40.15246 z"
       inkscape:connector-curvature="0" /></g></svg>