<?xml version="1.0" encoding="iso-8859-1"?>
<!-- Generator: Adobe Illustrator 16.0.0, SVG Export Plug-In . SVG Version: 6.00 Build 0)  -->
<!DOCTYPE svg PUBLIC "-//W3C//DTD SVG 1.1//EN" "http://www.w3.org/Graphics/SVG/1.1/DTD/svg11.dtd">
<svg version="1.1" id="Capa_1" xmlns="http://www.w3.org/2000/svg" xmlns:xlink="http://www.w3.org/1999/xlink" x="0px" y="0px"
	 width="577.982px" height="577.981px" viewBox="0 0 577.982 577.981" style="enable-background:new 0 0 577.982 577.981;"
	 xml:space="preserve">
<g>
	<g>
		<circle cx="486.701" cy="191.477" r="18.911"/>
		<circle cx="534.302" cy="238.466" r="18.911"/>
		<path d="M486.095,265.933c-10.429,0-18.911,8.482-18.911,18.911c0,10.428,8.482,18.905,18.911,18.905
			c10.422,0,18.904-8.482,18.904-18.905S496.517,265.933,486.095,265.933z"/>
		<path d="M72.046,224.114c21.53,0,39.045-17.515,39.045-39.045s-17.515-39.045-39.045-39.045S33,163.539,33,185.069
			S50.522,224.114,72.046,224.114z"/>
		<path d="M438.494,256.765c10.422,0,18.904-8.482,18.904-18.905s-8.482-18.911-18.904-18.911c-10.429,0-18.911,8.482-18.911,18.911
			C419.583,248.289,428.065,256.765,438.494,256.765z"/>
		<path d="M112.328,568.598c12.815-43.023,10.985-43.023,17.393-58.582c6.408-15.562,19.223-16.475,35.698-20.135
			c15.404-3.42,72.418-11.646,114.934-12.699c0.006,0.117-0.018,0.221-0.012,0.338c1.542,27.191,3.079,54.383,4.621,81.566
			c0.888,15.691,25.374,15.777,24.48,0c-1.542-27.191-3.078-54.381-4.62-81.566c0-0.031-0.013-0.062-0.013-0.092
			c41.519,1.707,93.208,9.217,107.761,12.453c16.476,3.66,29.291,4.578,35.698,20.135c6.407,15.564,4.578,15.564,17.394,58.582
			c12.814,43.018,69.554-66.818,95.184-228.834c25.631-162.014-11.848-224.91-22.222-230.405
			c-10.373-5.49-79.382-20.404-79.382-20.404c-18.269-23.911-37.871-41.377-57.039-54.199v181.14
			c0,53.85-43.807,97.657-97.656,97.657h-21.524c-53.85,0-97.657-43.808-97.657-97.657V28.728
			C163.21,41.922,140.07,61.047,118.742,88.96c0,0-69.009,14.908-79.382,20.404c-10.374,5.49-47.853,68.385-22.222,230.405
			C42.762,501.779,99.513,611.621,112.328,568.598z M486.095,309.867c-13.801,0-25.031-11.223-25.031-25.024
			c0-13.801,11.23-25.031,25.031-25.031c13.8,0,25.024,11.224,25.024,25.031C511.12,298.645,499.895,309.867,486.095,309.867z
			 M534.302,213.435c13.801,0,25.03,11.224,25.03,25.031c0,13.801-11.229,25.025-25.03,25.025s-25.031-11.224-25.031-25.025
			S520.501,213.435,534.302,213.435z M486.701,166.446c13.801,0,25.031,11.224,25.031,25.031c0,13.8-11.23,25.024-25.031,25.024
			s-25.03-11.224-25.03-25.024C461.676,177.676,472.9,166.446,486.701,166.446z M438.494,212.829
			c13.801,0,25.024,11.224,25.024,25.031c0,13.801-11.224,25.025-25.024,25.025s-25.031-11.224-25.031-25.025
			C413.469,224.053,424.699,212.829,438.494,212.829z M262.066,444.875l28.458-48.342c1.408-2.418,5.056-2.441,6.5-0.006
			l28.451,48.342c0.729,1.242,0.759,2.662,0.099,3.818c-0.655,1.15-1.91,1.842-3.33,1.842h-56.928c-1.426,0-2.674-0.691-3.335-1.842
			C261.313,447.531,261.35,446.105,262.066,444.875z M126.055,273.546c2.699,0,4.896,2.191,4.896,4.89v26.23h26.23
			c2.693,0,4.89,2.191,4.89,4.891v23.801c0,2.697-2.191,4.889-4.89,4.889h-26.23v26.23c0,2.693-2.191,4.891-4.896,4.891h-23.801
			c-2.692,0-4.89-2.191-4.89-4.891v-26.23h-26.23c-2.693,0-4.89-2.191-4.89-4.889v-23.801c0-2.693,2.191-4.891,4.89-4.891h26.23
			v-26.23c0-2.699,2.191-4.89,4.89-4.89H126.055z M72.046,139.903c24.902,0,45.166,20.263,45.166,45.166
			s-20.263,45.166-45.166,45.166s-45.166-20.263-45.166-45.166S47.144,139.903,72.046,139.903z"/>
		<polygon points="72.364,332.127 103.485,332.127 103.485,363.246 124.825,363.246 124.825,332.127 155.945,332.127 
			155.945,310.785 124.825,310.785 124.825,279.666 103.485,279.666 103.485,310.785 72.364,310.785 		"/>
		<polygon points="293.78,403.062 269.441,444.41 318.12,444.41 		"/>
		<path d="M236.974,102.559c0.838,0,1.818-0.043,2.687-0.135c0.869-0.092,1.481-0.397,2.167-0.636
			c0.686-0.239,1.377-0.643,2.02-1.261c0.637-0.618,1.157-1.316,1.548-2.099c0.392-0.784,0.673-1.659,0.845-2.632
			c0.171-0.967,0.239-1.952,0.196-2.95c-0.042-1.12-0.343-1.953-0.648-2.907c-0.306-0.955-0.881-2.154-1.671-2.803
			c-0.869-0.716-1.493-1.224-2.387-1.481c-0.894-0.251-2.154-0.637-3.599-0.637c-0.881,0-2.05,0.062-2.62,0.128
			c-0.593,0.074-1.138,0.147-1.885,0.159l0.196,17.228C234.985,102.571,235.977,102.559,236.974,102.559z"/>
		<path d="M271.521,94.181c-0.031-0.624,0-0.416-0.073-0.765c-0.074-0.343-0.166-0.618-0.349-0.991
			c-0.184-0.367-0.502-0.624-0.795-0.894c-0.294-0.27-0.643-0.478-1.053-0.618c-0.404-0.147-1.01-0.22-1.475-0.22
			c-0.501,0-0.948,0.153-1.395,0.312s-0.838,0.374-1.175,0.649c-0.336,0.275-0.618,0.6-0.844,0.967
			c-0.227,0.367-0.392,0.729-0.496,1.071c-0.042,0.135-0.049,0.147-0.042,0.153c0.006,0.006,0.03-0.012-0.025,0.336H271.521z"/>
		<path d="M364.98,124.817h-142.4V250.92h142.4V124.817z M356.724,242.125c0,0.985-0.796,1.781-1.781,1.781H232.617
			c-0.979,0-1.781-0.796-1.781-1.781V133.612c0-0.985,0.795-1.781,1.781-1.781h122.326c0.985,0,1.781,0.795,1.781,1.781V242.125
			L356.724,242.125z"/>
		<path d="M284.729,95.637c-0.3,0.27-0.441,0.343-0.587,0.453c-0.147,0.11-0.361,0.171-0.551,0.269
			c-0.19,0.092-0.447,0.116-0.68,0.202c-0.226,0.085-1.022,0.11-1.346,0.153c-0.691,0.086-1.15,0.159-1.426,0.27
			c-0.6,0.214-0.955,0.275-1.298,0.496c-0.342,0.22-0.612,0.551-0.838,0.808c-0.227,0.257-0.312,0.49-0.404,0.747
			c-0.104,0.318-0.092,0.655-0.073,0.998c0.018,0.538,0.434,1.132,0.734,1.523c0.293,0.398,0.3,0.257,0.679,0.526
			c0.379,0.263,0.918,0.404,1.518,0.404c0.374,0,0.759-0.031,1.157-0.092c0.306-0.043,0.637-0.239,1.096-0.392
			c0.146-0.049,0.489-0.361,0.655-0.422c0,0,0.422-0.342,0.844-1.077c0.422-0.734,0.508-1.952,0.508-1.952L284.729,95.637z"/>
		<path d="M335.004,95.454c-0.294,0.27-0.44,0.349-0.588,0.459c-0.146,0.11-0.379,0.153-0.569,0.251
			c-0.189,0.092-0.428,0.135-0.66,0.22c-0.227,0.086-1.022,0.11-1.347,0.153c-0.691,0.085-1.15,0.159-1.426,0.269
			c-0.6,0.22-0.961,0.282-1.304,0.496c-0.343,0.221-0.618,0.551-0.845,0.808c-0.227,0.257-0.318,0.489-0.404,0.747
			c-0.104,0.318-0.085,0.655-0.073,1.003c0.019,0.533,0.435,1.132,0.734,1.524c0.3,0.398,0.3,0.257,0.686,0.526
			c0.38,0.263,0.918,0.404,1.524,0.404c0.373,0,0.759-0.03,1.162-0.092c0.307-0.042,0.643-0.245,1.096-0.392
			c0.146-0.049,0.489-0.361,0.655-0.422c0,0,0.422-0.343,0.844-1.077c0.423-0.729,0.509-1.953,0.509-1.953L335.004,95.454z"/>
		<path d="M283.015,307.438h21.523c50.558,0,91.537-40.985,91.537-91.536v-6.089V30.765C351.057,2.791,309.497,0,294.698,0
			c-3.69,0-5.71,0.171-5.71,0.171S286.962,0,283.278,0c-13.733,0-50.551,2.405-91.8,25.153v184.628v6.12
			C191.478,266.453,232.464,307.438,283.015,307.438z M349.521,89.26l1.806-0.061c0.018-0.379-0.031-1.567-0.031-2.497
			c0-0.453-0.227-0.869-0.41-1.096c0.82-0.184,2.069-0.563,2.638-0.728c-0.006,1.469,0.099,3.556,0.117,4.321l3.684,0.055
			c-0.019,0.63,0.049,0.851,0.062,1.419l-1.016-0.122h-2.705l-0.05,8.103l-0.024,0.679c0.024,0.723,0.123,1.641,0.282,2.001
			c0.159,0.361,0.385,0.496,0.679,0.655c0.3,0.159,0.637,0.196,0.949,0.196c0.22,0,0.551-0.006,0.808-0.006s0.435-0.019,1.071-0.202
			c-0.08,0.478-0.209,0.741-0.294,1.536c-0.588,0.166-0.857,0.208-1.206,0.245c-0.349,0.043-0.679-0.067-0.997-0.067
			c-0.777,0-1.414-0.11-1.903-0.337c-0.49-0.22-0.869-0.575-1.139-1.071c-0.275-0.49-0.465-1.708-0.496-2.552
			c-0.006-0.11-0.006-0.3-0.012-0.575c0-0.275-0.019-0.551,0-2.197l-0.056-6.402h-1.774C349.527,90.16,349.527,90.038,349.521,89.26
			z M346.589,98.569c-0.135-0.184-0.643-0.618-0.899-0.838c-0.257-0.227-0.937-0.557-1.824-0.924
			c-0.899-0.379-2.044-0.74-2.46-1.089c-0.416-0.355-1.175-0.759-1.475-1.132c-0.3-0.373-0.526-0.74-0.68-1.12
			c-0.153-0.374-0.043-0.943-0.055-1.328c-0.024-0.618,0.36-1.254,0.728-1.836c0.361-0.575,0.992-0.9,1.714-1.188
			c0.723-0.281,1.579-0.428,2.564-0.428c1.102,0,2.166,0.214,3.501,0.471c0.073,0.753-0.099,1.273-0.007,1.897
			c-0.961-0.636-2.025-0.955-3.072-0.955c-0.568,0-1.145,0.086-1.621,0.233c-0.478,0.146-1.01,0.624-1.218,0.918
			c-0.215,0.3-0.331,0.581-0.318,0.936c0.006,0.233,0.079,0.618,0.165,0.833c0.086,0.214,0.648,0.808,0.942,0.937
			c0.404,0.177,0.245,0.153,0.612,0.232c0.416,0.092,1.444,0.618,2.423,1.083c1.017,0.483,1.946,1.089,2.265,1.408
			c0.324,0.318,0.637,0.759,0.931,1.438c0.165,0.38,0.257,0.826,0.257,1.145c0,0.551-0.146,0.625-0.129,0.967
			c0.031,0.673-0.141,0.924-0.514,1.5c-0.373,0.576-1.071,1.126-1.849,1.444c-0.777,0.318-1.604,0.582-2.576,0.582
			c-0.416,0-1.377,0.049-1.934-0.006c-0.558-0.049-1.035-0.239-1.427-0.312c-0.392-0.073-0.643-0.092-1.224-0.232l-0.202-0.985
			c-0.006-0.116-0.263-0.771-0.373-1.396c1.646,0.906,3.385,1.542,4.633,1.542c0.654,0,1.304-0.19,1.75-0.361
			c0.447-0.171,0.882-0.489,1.096-0.826c0.208-0.336,0.44-0.661,0.521-1.016c0.049-0.196,0.11-0.459,0.061-0.637
			C346.828,99.315,346.724,98.752,346.589,98.569z M260.451,43.287c0.324-2.111,0.955-4.223,1.364-5.673
			c0.973-3.47,3.581-8.672,4.841-10.429s1.762-2.295,3.592-4.339c1.83-2.044,0.783-0.637,4.174-3.421
			c3.384-2.785,7.938-4.78,9.933-5.587c1.995-0.814,5.037-2.301,10.521-2.668s8.794,0.312,11.854,0.667
			c3.586,0.417,10.435,2.754,10.435,2.754s3.996,1.805,7.093,3.837c1.671,1.004,3.158,2.987,4.676,4.927
			c2.087,2.668,4.131,6.028,4.425,6.505c0.508,0.814,2.778,4.908,3.256,6.426c0.478,1.518,1.542,7.117,1.628,7.729
			c0.086,0.612,0.937,4.051-2.001,4.253c-3.22,0.22-3.55-3.066-3.758-4.002c-0.214-0.942-2.387-8.158-3.14-9.517
			c-0.753-1.359-5.264-7.962-7.265-10.135c-2.001-2.173-5.894-4.951-10.141-6.255c-4.063-1.254-10.961-2.479-15.6-2.276
			c-4.076,0.177-5.416,0.459-7.191,1.022c-3.629,1.157-6.812,2.993-9.015,4.382c-2.203,1.383-5.899,4.357-7.515,6.383
			c-1.916,2.405-5.166,8.354-5.888,11.64c-1.334,6.114-0.502,12.014-0.502,12.014s1.506,11.579,9.015,17.521
			c2.938,2.332,5.336,3.562,12.02,5.379c0.937,0.257,3.978,0.471,7.778,0.496c3.801,0.019,4.957-0.11,7.124-0.869
			c2.16-0.759,2.852-0.894,4.504-1.75c1.659-0.857,4.505-1.799,7.559-4.811c1.707-1.689,3.837-5.006,4.719-8.329
			c0.514-1.946,0.189-2.552,0.122-5.104c-0.019-0.783-0.092-1.493-0.153-2.167c-0.146-1.524-0.397-2.938-0.93-5.178
			c-0.771-3.231-0.539-2.387-1.292-4.449c-0.52-1.42-1.107-2.577-1.523-3.25c-0.416-0.673-0.814-1.12-1.273-1.818
			c-3.17-4.841-9.431-8.011-15.232-8.201c-1.934-0.067-4.314,0.135-6.714,0.894c-1.628,0.514-3.268,1.346-4.786,2.271
			c-0.63,0.379-1.23,0.673-1.812,1.132c-0.587,0.471-0.942,0.606-1.462,1.157c-0.471,0.501-1.114,1.628-1.5,2.136
			c-4.725,6.065-3.629,11.689-3.629,11.689s-0.44,13.207,13.52,14.646c3.525,0.171,9.89-2.087,12.301-4.67
			c1.481-1.591,1.585-4.437,1.536-6.964c-0.036-2.001-1.016-5.551-2.552-6.922c-3.342-2.98-6.12-3.072-7.576-3.158
			c-1.94-0.123-4.7,0.477-5.79,4.725c-0.38,1.475,0.777,4.547,2.962,4.982c1.879,0.379,3.88,0,4.762,0.128
			c0.783,0.11,1.971-0.153,1.971,2.313c-0.221,4.321-9.633,1.903-9.737,1.812c-0.722-0.624-4.969-3.042-5.134-7.631
			c-0.178-4.847,2.099-8.507,6.236-10.576c1.041-0.52,2.956-0.783,4.254-0.838c3.524,0.171,6.021,0.63,8.604,2.02
			c0.483,0.263,0.979,0.477,1.512,0.838c0.165,0.11,0.802,0.557,0.899,0.618c3.023,2.601,4.284,6.035,4.884,9.499
			c0.238,1.377,0.232,2.662,0.275,3.678c0.08,1.738-0.122,3.843-1.01,5.82c-0.942,2.112-2.638,4.082-5,5.318
			c-2.295,1.2-5.643,3.103-10.264,3.672c-2.784,0.342-6.021,0.287-9.773-0.924c-10.643-3.439-11.646-15.514-11.646-15.514
			s-2.173-8.898,3.69-16.916c0.618-0.844,1.322-1.928,2.129-2.735c2.644-2.644,5.012-4.015,7.185-5.166
			c3.99-2.111,6.916-2.595,7.779-2.595c0.618,0,2.093-0.085,3.824,0.043c1.983,0.141,4.309,0.526,6.065,0.955
			c1.928,0.471,3.537,0.851,4.792,1.383c1.188,0.508,2.038,1.175,2.968,1.744c1.922,1.169,4.982,3.488,6.017,5.055
			c1.07,1.628,2.589,3.715,3.77,7.387c0.691,2.154,1.273,5.232,1.983,8.703c1.064,5.196,0.679,10.447-0.502,13.764
			c-0.129,0.355-1.451,4.566-5.637,8.513c-4.187,3.954-9.455,6.193-11.016,6.817c-1.567,0.625-3.795,2.521-12.332,2.381
			c-7.387-0.123-12.987-2.081-14.651-2.754c-1.665-0.673-6.059-2.068-10.833-7.319c-4.773-5.257-5.814-8.648-6.573-10.949
			c-0.759-2.301-2.191-8.195-2.191-8.195s0.171-0.024-0.171-3.066C260.163,46.836,260.181,45.062,260.451,43.287z M334.276,102.675
			c-0.465,0.386-0.937,0.673-1.236,0.857c-0.637,0.134-1.021,0.281-1.426,0.312c-0.404,0.037-0.783,0.049-1.15,0.049
			c-1.212,0-2.1-0.367-2.791-0.686c-0.691-0.318-1.261-0.875-1.622-1.523c-0.36-0.649-0.44-1.243-0.471-2.008
			c-0.019-0.446,0.11-0.905,0.22-1.279c0.104-0.379,0.251-0.716,0.447-1.022c0.189-0.306,0.33-0.539,0.691-0.851
			c0.361-0.306,0.575-0.478,0.979-0.673c0.403-0.202,0.777-0.288,1.315-0.483c0.539-0.196,1.524-0.263,2.785-0.441
			c0.385-0.098,0.71-0.073,0.979-0.177c0.27-0.104,0.509-0.208,0.717-0.306c0.208-0.098,0.385-0.214,0.538-0.349
			s0.294-0.3,0.416-0.49c0.129-0.196,0.215-0.141,0.27-0.336c0.055-0.196,0.024-0.294,0.019-0.496
			c-0.019-0.489-0.043-0.765-0.337-1.107s-0.637-0.833-1.102-0.967c-0.459-0.141-1.23-0.361-1.849-0.361
			c-0.575,0-1.046,0.073-1.646,0.178c-0.6,0.104-1.114,0.232-1.549,0.373c-0.429,0.147-0.918,0.361-1.561,0.649
			c0.062-0.435,0.013-1.065,0.062-1.922c1.053-0.306,1.609-0.453,2.387-0.563s1.928-0.178,2.674-0.178
			c0.796,0,1.292,0.171,1.995,0.337c0.698,0.165,1.586,0.777,1.91,1.261c0.336,0.496,0.648,0.856,0.819,1.334
			c0.172,0.478,0.404,1.42,0.429,1.958c0.024,0.679,0.062,0.239,0.037,1.842c-0.024,1.609,0.073,4.547,0.061,5.912
			c-0.006,0.833,0.099,0.912,0.318,2.038c-0.483-0.019-1.102,0.024-1.401,0.024c-0.287,0-0.71-0.043-1.236-0.024v-1.53
			C334.974,102.033,334.741,102.29,334.276,102.675z M315.121,99.297c0.336,0.838,0.899,1.659,1.683,2.118s1.701,0.906,2.662,0.906
			c0.931,0,2.889-0.098,5.013-1.224c-0.013,0.159-0.098,0.514-0.153,0.942c-0.055,0.435-0.178,0.796-0.214,1.212
			c-0.637,0.166-1.31,0.349-1.903,0.41c-0.588,0.061-2.197,0.165-2.644,0.165c-0.949,0-2.051-0.196-2.864-0.483
			c-0.814-0.288-1.83-0.832-2.448-1.487c-0.624-0.655-1.328-1.31-1.646-2.283s-0.545-1.909-0.581-2.993
			c-0.056-1.457,0.177-1.946,0.587-3.25c0.404-1.31,1.438-2.252,2.394-2.993c0.954-0.741,3.164-1.371,4.859-1.371
			c1.248,0,2.711,0.208,3.91,0.575c0.086,0.851,0.116,1.31,0.178,1.861c-0.845-0.3-1.616-0.649-2.148-0.753
			s-1.199-0.202-1.652-0.202c-0.771,0-2.411,0.343-3.011,0.655c-0.6,0.318-1.102,0.765-1.512,1.353
			c-0.41,0.581-0.734,1.395-0.894,2.197s-0.221,0.869-0.189,1.702C314.588,97.479,314.778,98.458,315.121,99.297z M308.223,94.034
			c-0.019-0.575-0.189-1.224-0.306-1.548c-0.116-0.324-0.704-0.924-0.949-1.187c-0.244-0.263-0.611-0.312-0.961-0.447
			c-0.349-0.135-0.911-0.166-1.353-0.166c-0.354,0-0.802,0.062-1.095,0.147c-0.275,0.086-0.551,0.147-0.809,0.331
			c-0.281,0.189-0.532,0.3-0.752,0.575c-0.221,0.27-0.398,0.575-0.545,0.912c-0.153,0.349-0.159,0.869-0.189,1.432
			c-0.037,0.606,0.03,1.383,0.012,2.252c-0.024,0.918-0.024,4.56,0,6.065l0.422,1.346c-0.514-0.018-1.272-0.03-1.529-0.03
			c-0.239,0-0.894,0.006-1.457,0.03c0.043-1.224,0.19-0.11,0.196-1.407l0.024-5.594c0-1.108-0.013-2.057-0.043-2.833
			c-0.019-0.508-0.079-0.686-0.184-1.041c-0.098-0.355-0.275-0.802-0.532-1.096c-0.251-0.293-0.808-0.765-1.15-0.918
			c-0.35-0.153-0.839-0.269-1.268-0.269c-0.452,0-0.746,0.049-1.138,0.22s-0.734,0.251-1.059,0.594
			c-0.318,0.336-0.588,0.373-0.796,0.869c-0.208,0.489-0.367,0.385-0.459,1.181c-0.098,0.795-0.141,3.69-0.135,5.667
			c0.006,1.169,0.019,2.228,0.037,3.183c0.012,0.654,0.281,0.887,0.306,1.444c-0.569-0.018-1.212-0.03-1.42-0.03
			c-0.232,0-1.01,0.006-1.585,0.03l0.318-1.028c0.012-0.453,0.019-1.922,0.024-2.901l-0.147-8.292
			c-0.018-0.741-0.416-1.628-0.435-2.014c0.41,0.012,1.335-0.135,1.763-0.294c0.343-0.128,0.729-0.128,1.09-0.141l-0.006,1.928
			c0.275-0.557,0.776-0.612,1.01-0.942c0.232-0.324,0.471-0.312,0.856-0.587s0.624-0.288,1.139-0.361
			c0.63-0.092,1.027-0.123,1.572-0.123c0.38,0,0.753,0.049,1.126,0.147c0.374,0.098,0.717,0.239,1.041,0.417
			c0.318,0.177,0.594,0.379,0.826,0.605c0.232,0.227,0.483,0.349,0.691,0.741c0.073,0.128,0.637-0.624,1.426-1.083
			c0.79-0.453,1.72-0.802,2.711-0.802c0.637,0,2.057,0.085,2.662,0.312c0.606,0.227,1.463,0.557,1.836,0.979
			c0.367,0.429,0.478,0.618,0.809,0.967c0.41,0.435,0.538,1.53,0.562,1.995c0.019,0.477,0.067,1.199,0.067,2.16l0.006,6.818
			c0,0.655,0.19,0.734,0.312,1.481c-0.471-0.019-1.083-0.031-1.353-0.031c-0.281,0-0.955,0.006-1.506,0.031
			c0.367-1.169,0.294-0.771,0.325-1.487l0.024-6.181C308.253,95.19,308.248,94.676,308.223,94.034z M284.006,102.865
			c-0.459,0.386-0.937,0.667-1.23,0.857c-0.637,0.135-1.016,0.282-1.42,0.312c-0.404,0.031-0.79,0.049-1.151,0.049
			c-1.206,0-2.093-0.367-2.784-0.686c-0.692-0.318-1.255-0.875-1.616-1.524c-0.361-0.648-0.441-1.242-0.471-2.007
			c-0.019-0.447,0.116-0.906,0.22-1.279c0.104-0.374,0.251-0.716,0.44-1.022c0.19-0.306,0.331-0.539,0.692-0.844
			c0.361-0.306,0.575-0.478,0.979-0.673s0.771-0.288,1.31-0.483c0.539-0.19,1.524-0.263,2.778-0.441
			c0.38-0.098,0.71-0.073,0.979-0.177c0.269-0.104,0.508-0.208,0.716-0.306c0.208-0.098,0.386-0.214,0.539-0.349
			c0.153-0.135,0.294-0.3,0.417-0.49c0.128-0.196,0.214-0.263,0.269-0.459s0.024-0.294,0.019-0.496
			c-0.019-0.49-0.043-0.637-0.337-0.985c-0.293-0.349-0.636-0.833-1.095-0.967c-0.459-0.134-1.224-0.361-1.842-0.361
			c-0.575,0-1.046,0.074-1.646,0.177c-0.6,0.104-1.114,0.233-1.548,0.374c-0.429,0.147-0.918,0.361-1.561,0.649
			c0.062-0.441,0.012-1.065,0.062-1.928c1.046-0.3,1.604-0.453,2.38-0.563c0.777-0.11,1.928-0.177,2.668-0.177
			c0.795,0,1.292,0.171,1.989,0.336c0.704,0.166,1.579,0.777,1.904,1.261c0.336,0.496,0.648,0.851,0.82,1.328
			c0.165,0.478,0.404,1.42,0.428,1.958c0.025,0.686,0.062,0.239,0.037,1.842c-0.025,1.609,0.073,4.547,0.061,5.912
			c-0.006,0.826,0.098,0.912,0.318,2.038c-0.478-0.019-1.096,0.024-1.402,0.024c-0.281,0-0.709-0.043-1.236-0.024v-1.53
			C284.698,102.222,284.465,102.479,284.006,102.865z M264.031,99.756c0.422,0.875,0.991,1.438,1.769,1.891
			c0.777,0.447,1.805,0.839,2.791,0.839c1.139,0,3.213-0.478,4.915-1.328c-0.085,0.539-0.263,1.242-0.336,2.075
			c-0.838,0.238-2.222,0.771-2.84,0.856c-0.618,0.086-1.23,0.104-1.848,0.104c-1.102,0-2.197-0.275-3.084-0.569
			c-0.888-0.3-1.775-0.912-2.424-1.652c-0.655-0.735-1.297-1.536-1.603-2.491c-0.312-0.948-0.386-1.909-0.429-2.968
			c-0.055-1.475,0.184-2.025,0.637-3.286c0.453-1.261,1.401-2.179,2.387-2.901c0.979-0.722,2.246-1.083,3.794-1.083
			c0.802,0,1.713,0.062,2.454,0.325c0.74,0.263,1.365,0.539,1.867,1.071c0.508,0.539,0.93,1.071,1.224,1.86
			c0.294,0.79,0.361,0.802,0.526,1.72c0.074,0.429,0.129,1.102,0.092,1.438l-10.49,0.061c-0.012,0.545-0.049,0.814-0.037,1.096
			C263.425,97.859,263.608,98.881,264.031,99.756z M252.911,89.468c0.318-0.067,1.102-0.177,1.518-0.189l0.006,2.644
			c0.3-0.612,0.318-0.575,0.563-0.881c0.239-0.312,0.624-0.667,0.93-0.869c0.312-0.202,0.649-0.49,1.046-0.606
			c0.392-0.117,0.753-0.282,1.188-0.3c0.343-0.012,0.667-0.061,1.548,0.031c0.887,0.092,1.353,0.294,1.548,0.349
			c0.019,0.355-0.649,1.989-0.649,1.989s-0.636-0.055-1.211-0.293c-0.551-0.166-0.924-0.166-1.359-0.166
			c-0.514,0-1.12,0.116-1.524,0.312c-0.404,0.19-0.79,0.422-1.102,0.814s-0.52,0.796-0.71,1.34
			c-0.159,0.441-0.104,0.073-0.165,0.765c-0.067,0.691-0.006,7.326,0.049,8.819l0.263,0.857c-0.483-0.019-1.169,0-1.462,0
			c-0.27,0-0.924,0.012-1.469,0.03c0-0.281,0.282-0.673,0.288-0.942c0.067-4.633-0.03-8.213-0.141-11.206l-0.049-1.261l-0.44-1.071
			C252.023,89.584,252.629,89.523,252.911,89.468z M234.257,83.244c0.533,0,1.322,0.086,2.436,0.062
			c1.114-0.025,2.105,0,2.546,0.042c1.585,0.147,1.989,0.233,3.078,0.502c0.826,0.196,2.393,1.034,3.091,1.53
			c0.704,0.496,1.401,1.064,1.97,1.866c0.563,0.802,0.845,1.059,1.224,1.989c0.508,1.261,0.802,2.625,0.851,3.892
			c0.067,1.732-0.116,3.06-0.618,4.651c-0.496,1.591-1.603,2.772-2.668,3.837s-2.234,1.708-3.593,2.044
			c-1.365,0.336-2.901,0.667-4.596,0.667l-3.991-0.03l-3.8-0.092l0.539-1.42l-0.043-17.528c-0.012-0.508-0.251-1.034-0.501-1.922
			C231.38,83.361,233.406,83.244,234.257,83.244z M216.46,251.881V123.856c0-2.846,2.313-5.159,5.159-5.159h144.322
			c2.846,0,5.159,2.313,5.159,5.159v128.024c0,2.846-2.313,5.159-5.159,5.159H221.619C218.773,257.04,216.46,254.727,216.46,251.881
			z"/>
	</g>
</g>
<g>
</g>
<g>
</g>
<g>
</g>
<g>
</g>
<g>
</g>
<g>
</g>
<g>
</g>
<g>
</g>
<g>
</g>
<g>
</g>
<g>
</g>
<g>
</g>
<g>
</g>
<g>
</g>
<g>
</g>
</svg>
