<svg xmlns="http://www.w3.org/2000/svg" xmlns:svg="http://www.w3.org/2000/svg" id="root" width="256" height="256" version="1.1" viewBox="0 0 256 256"><metadata id="metadata4520"/><g id="layer1" transform="translate(0,-229.26666)"><ellipse style="opacity:1;fill-opacity:1;fill-rule:nonzero;stroke:none;stroke-width:24.71783257;stroke-linecap:square;stroke-linejoin:round;stroke-miterlimit:4;stroke-dasharray:none;stroke-opacity:1;paint-order:normal" id="ellipse4508" cx="153.83" cy="415.267" rx="54" ry="22"/><path style="opacity:1;fill-opacity:1;fill-rule:nonzero;stroke:none;stroke-width:19.09568787;stroke-linecap:square;stroke-linejoin:round;stroke-miterlimit:4;stroke-dasharray:none;stroke-opacity:1;paint-order:normal" id="path4513" d="m 203.95241,312.22253 a 50,42.592593 0 0 0 -50,42.59259 50,42.592593 0 0 0 0.37796,4.78697 38.888889,31.481481 0 0 1 16.28871,-2.93512 38.888889,31.481481 0 0 1 38.88889,31.48149 38.888889,31.481481 0 0 1 -1.67825,9.1182 50,42.592593 0 0 0 46.12269,-42.45154 50,42.592593 0 0 0 -50,-42.59259 z"/><ellipse id="ellipse4525" cx="58" cy="379.267" rx="54" ry="22" style="opacity:1;fill-opacity:1;fill-rule:nonzero;stroke:none;stroke-width:24.71783257;stroke-linecap:square;stroke-linejoin:round;stroke-miterlimit:4;stroke-dasharray:none;stroke-opacity:1;paint-order:normal"/><path id="path4527" d="m 108.17028,277.26666 a 49.386125,42.069662 0 0 0 -49.38612,42.06966 49.386125,42.069662 0 0 0 0.373323,4.72819 38.41143,31.094967 0 0 1 16.088719,-2.89907 38.41143,31.094967 0 0 1 38.411428,31.09497 38.41143,31.094967 0 0 1 -1.65763,9.00625 49.386125,42.069662 0 0 0 45.55641,-41.93034 49.386125,42.069662 0 0 0 -49.38613,-42.06966 z" style="opacity:1;fill-opacity:1;fill-rule:nonzero;stroke:none;stroke-width:18.86124039;stroke-linecap:square;stroke-linejoin:round;stroke-miterlimit:4;stroke-dasharray:none;stroke-opacity:1;paint-order:normal"/></g></svg>