<?xml version="1.0" encoding="UTF-8" standalone="no"?>
<!-- Generator: Adobe Illustrator 19.0.0, SVG Export Plug-In . SVG Version: 6.00 Build 0)  -->

<svg
   xmlns:dc="http://purl.org/dc/elements/1.1/"
   xmlns:cc="http://creativecommons.org/ns#"
   xmlns:rdf="http://www.w3.org/1999/02/22-rdf-syntax-ns#"
   xmlns:svg="http://www.w3.org/2000/svg"
   xmlns="http://www.w3.org/2000/svg"
   xmlns:sodipodi="http://sodipodi.sourceforge.net/DTD/sodipodi-0.dtd"
   xmlns:inkscape="http://www.inkscape.org/namespaces/inkscape"
   version="1.1"
   id="Capa_1"
   x="0px"
   y="0px"
   viewBox="0 0 384 384"
   xml:space="preserve"
   sodipodi:docname="sonyplaystation2-symbolic.svg"
   width="256"
   height="256"
   inkscape:version="0.92.3 (2405546, 2018-03-11)"><metadata
   id="metadata49"><rdf:RDF><cc:Work
       rdf:about=""><dc:format>image/svg+xml</dc:format><dc:type
         rdf:resource="http://purl.org/dc/dcmitype/StillImage" /><dc:title></dc:title></cc:Work></rdf:RDF></metadata><defs
   id="defs47" /><sodipodi:namedview
   pagecolor="#ffffff"
   bordercolor="#666666"
   borderopacity="1"
   objecttolerance="10"
   gridtolerance="10"
   guidetolerance="10"
   inkscape:pageopacity="0"
   inkscape:pageshadow="2"
   inkscape:window-width="1871"
   inkscape:window-height="1015"
   id="namedview45"
   showgrid="false"
   scale-x="1.5"
   inkscape:zoom="1.84375"
   inkscape:cx="192.90096"
   inkscape:cy="206.33684"
   inkscape:window-x="49"
   inkscape:window-y="28"
   inkscape:window-maximized="1"
   inkscape:current-layer="Capa_1" />


<g
   id="g12"
   transform="matrix(0.97818671,0,0,0.97818671,-58.416287,-58.416287)">
	<path
   d="m 188.31,258.297 v -34.442 c 0,-2.845 -2.307,-5.151 -5.151,-5.151 H 67.015 c -2.845,0 -5.151,2.307 -5.151,5.151 v 4.593 c 0,2.845 2.307,5.151 5.151,5.151 h 106.401 v 14.954 H 67.015 c -2.845,0 -5.151,2.306 -5.151,5.151 v 34.441 c 0,2.845 2.307,5.151 5.151,5.151 h 4.592 c 2.845,0 5.151,-2.306 5.151,-5.151 v -24.696 h 106.401 c 2.845,0 5.151,-2.307 5.151,-5.152 z"
   id="path6"
   inkscape:connector-curvature="0" />
	<path
   d="m 444.985,263.449 c 2.845,0 5.151,-2.306 5.151,-5.151 v -34.442 c 0,-2.845 -2.307,-5.151 -5.151,-5.151 H 328.838 c -2.845,0 -5.151,2.307 -5.151,5.151 v 4.593 c 0,2.845 2.306,5.151 5.151,5.151 h 106.397 v 14.954 H 328.838 c -2.845,0 -5.151,2.306 -5.151,5.151 v 34.441 c 0,2.845 2.306,5.151 5.151,5.151 h 116.148 c 2.845,0 5.151,-2.306 5.151,-5.151 v -4.822 c 0,-3.47 -3.37,-5.949 -6.679,-4.921 H 338.58 V 263.45 h 106.405 z"
   id="path8"
   inkscape:connector-curvature="0" />
	<path
   d="m 306.48,218.704 h -64.074 c -2.845,0 -5.151,2.307 -5.151,5.151 v 54.547 h -54.096 c -2.845,0 -5.151,2.307 -5.151,5.151 v 4.592 c 0,2.845 2.307,5.151 5.151,5.151 h 64.066 c 2.845,0 5.151,-2.306 5.151,-5.151 v -54.546 h 54.103 c 2.845,0 5.151,-2.307 5.151,-5.151 v -4.593 c 10e-4,-2.845 -2.305,-5.151 -5.15,-5.151 z"
   id="path10"
   inkscape:connector-curvature="0" />
</g>
<g
   id="g14"
   transform="translate(0,-256)">
</g>
<g
   id="g16"
   transform="translate(0,-256)">
</g>
<g
   id="g18"
   transform="translate(0,-256)">
</g>
<g
   id="g20"
   transform="translate(0,-256)">
</g>
<g
   id="g22"
   transform="translate(0,-256)">
</g>
<g
   id="g24"
   transform="translate(0,-256)">
</g>
<g
   id="g26"
   transform="translate(0,-256)">
</g>
<g
   id="g28"
   transform="translate(0,-256)">
</g>
<g
   id="g30"
   transform="translate(0,-256)">
</g>
<g
   id="g32"
   transform="translate(0,-256)">
</g>
<g
   id="g34"
   transform="translate(0,-256)">
</g>
<g
   id="g36"
   transform="translate(0,-256)">
</g>
<g
   id="g38"
   transform="translate(0,-256)">
</g>
<g
   id="g40"
   transform="translate(0,-256)">
</g>
<g
   id="g42"
   transform="translate(0,-256)">
</g>
</svg>
