<svg xmlns="http://www.w3.org/2000/svg" xmlns:svg="http://www.w3.org/2000/svg" id="Capa_1" width="256" height="256" x="0" y="0" version="1.1" viewBox="0 0 384 384" xml:space="preserve"><metadata id="metadata49"/><g id="g12" transform="matrix(0.97818671,0,0,0.97818671,-58.416287,-58.416287)"><path id="path6" d="m 188.31,258.297 v -34.442 c 0,-2.845 -2.307,-5.151 -5.151,-5.151 H 67.015 c -2.845,0 -5.151,2.307 -5.151,5.151 v 4.593 c 0,2.845 2.307,5.151 5.151,5.151 h 106.401 v 14.954 H 67.015 c -2.845,0 -5.151,2.306 -5.151,5.151 v 34.441 c 0,2.845 2.307,5.151 5.151,5.151 h 4.592 c 2.845,0 5.151,-2.306 5.151,-5.151 v -24.696 h 106.401 c 2.845,0 5.151,-2.307 5.151,-5.152 z"/><path id="path8" d="m 444.985,263.449 c 2.845,0 5.151,-2.306 5.151,-5.151 v -34.442 c 0,-2.845 -2.307,-5.151 -5.151,-5.151 H 328.838 c -2.845,0 -5.151,2.307 -5.151,5.151 v 4.593 c 0,2.845 2.306,5.151 5.151,5.151 h 106.397 v 14.954 H 328.838 c -2.845,0 -5.151,2.306 -5.151,5.151 v 34.441 c 0,2.845 2.306,5.151 5.151,5.151 h 116.148 c 2.845,0 5.151,-2.306 5.151,-5.151 v -4.822 c 0,-3.47 -3.37,-5.949 -6.679,-4.921 H 338.58 V 263.45 h 106.405 z"/><path id="path10" d="m 306.48,218.704 h -64.074 c -2.845,0 -5.151,2.307 -5.151,5.151 v 54.547 h -54.096 c -2.845,0 -5.151,2.307 -5.151,5.151 v 4.592 c 0,2.845 2.307,5.151 5.151,5.151 h 64.066 c 2.845,0 5.151,-2.306 5.151,-5.151 v -54.546 h 54.103 c 2.845,0 5.151,-2.307 5.151,-5.151 v -4.593 c 10e-4,-2.845 -2.305,-5.151 -5.15,-5.151 z"/></g></svg>