<svg xmlns="http://www.w3.org/2000/svg" xmlns:svg="http://www.w3.org/2000/svg" id="Ebene_1" width="180" height="180" x="0" y="0" enable-background="new 0 0 667 279.5" version="1.0" viewBox="0 0 648 648" xml:space="preserve"><metadata id="metadata4925"/><g id="g4918" transform="matrix(1.0207958,0,0,1.0207958,-16.360881,235.43167)"><g id="g4916"><g id="g4914"><path id="path4908" d="m 421.659,19.551 h -82.591 c -25.474,0 -37.958,15.741 -37.958,36.179 v 62.087 c 0,12.684 -5.989,21.788 -18.631,21.788 h -72.24 c -0.506,0 -0.925,0.419 -0.925,0.9 v 12.53 c 0,0.512 0.419,0.941 0.925,0.941 h 81.768 c 25.464,0 37.979,-15.67 37.979,-36.118 V 55.73 c 0,-12.694 5.943,-21.818 18.657,-21.818 h 73.017 c 0.573,0 1.023,-0.409 1.023,-0.921 V 20.482 c 0,-0.491 -0.451,-0.931 -1.024,-0.931 z"/><path id="path4910" d="M 178.54,19.551 H 19.607 c -0.578,0 -0.998,0.44 -0.998,0.931 v 12.509 c 0,0.512 0.419,0.941 0.998,0.941 h 149.374 c 12.627,0 18.621,9.104 18.621,21.797 0,12.643 -5.994,21.726 -18.621,21.726 H 50.81 c -18.351,0 -32.2,15.415 -32.2,35.862 v 39.687 c 0,0.543 0.419,0.973 0.998,0.973 h 26.927 c 0.527,0 0.967,-0.43 0.967,-0.973 v -39.687 c 0,-12.612 7.247,-21.511 17.762,-21.511 H 178.54 c 25.423,0 37.887,-15.62 37.887,-36.067 0,-20.415 -12.464,-36.188 -37.887,-36.188 z"/><path id="path4912" d="m 636.409,85.086 c -0.356,-0.399 -0.356,-1.084 0,-1.473 7.917,-6.557 11.835,-16.438 11.835,-27.874 0,-20.416 -12.438,-36.188 -37.938,-36.188 H 451.414 c -0.542,0 -0.94,0.44 -0.94,0.972 v 12.468 c 0,0.512 0.398,0.941 0.94,0.941 h 149.35 c 12.591,0 18.667,9.104 18.667,21.797 0,12.643 -6.035,21.726 -18.667,21.726 h -0.185 l -149.165,0.031 c -0.542,0 -0.94,0.389 -0.94,0.961 v 12.459 c 0,0.501 0.398,0.9 0.94,0.9 h 149.35 C 617.232,92 619.4,108.038 619.4,116.242 l 0.031,1.544 c 0,12.714 -6.076,21.859 -18.667,21.859 h -149.35 c -0.542,0 -0.94,0.388 -0.94,0.899 v 12.49 c 0,0.512 0.398,0.941 0.94,0.941 h 158.893 c 25.521,0 37.938,-16.939 37.938,-36.189 v -1.544 c -10e-4,-12.274 -3.919,-23.996 -11.836,-31.156 z"/></g></g></g></svg>