<svg xmlns="http://www.w3.org/2000/svg" xmlns:svg="http://www.w3.org/2000/svg" id="Capa_1" width="256" height="256" x="0" y="0" version="1.1" viewBox="0 0 358.4 358.4" xml:space="preserve"><metadata id="metadata6393"/><g id="g6332" transform="matrix(0.94555031,0,0,0.92961298,-62.859934,-58.779993)"><g id="g6330"><path id="path6328" d="M 185.292,219.796 H 72.551 c -2.761,0 -5,2.239 -5,5 v 4.458 c 0,2.762 2.239,5 5,5 H 175.834 V 248.77 H 72.551 c -2.761,0 -5,2.239 -5,5 v 33.432 c 0,2.761 2.239,5 5,5 h 4.457 c 2.761,0 5,-2.239 5,-5 V 263.23 h 103.283 c 2.761,0 5,-2.238 5,-5 v -33.433 c 0.002,-2.762 -2.238,-5.001 -4.999,-5.001 z"/></g></g><g id="g6338" transform="matrix(0.94555031,0,0,0.92961298,-62.859934,-58.779993)"><g id="g6336"><path id="path6334" d="M 439.448,219.796 H 326.707 c -2.761,0 -5,2.239 -5,5 v 4.458 c 0,2.762 2.239,5 5,5 H 429.99 V 248.77 H 326.707 c -2.761,0 -5,2.239 -5,5 v 33.432 c 0,2.761 2.239,5 5,5 h 4.457 c 2.761,0 5,-2.239 5,-5 V 263.23 h 103.283 c 2.761,0 5,-2.238 5,-5 v -33.433 c 10e-4,-2.762 -2.238,-5.001 -4.999,-5.001 z"/></g></g><g id="g6344" transform="matrix(0.94555031,0,0,0.92961298,-62.859934,-58.779993)"><g id="g6342"><path id="path6340" d="m 305.001,219.797 h -62.197 c -2.761,0 -5,2.239 -5,5 v 52.948 h -52.511 c -2.761,0 -5,2.239 -5,5 v 4.457 c 0,2.76 2.238,5 5,5 h 62.19 c 2.761,0 5,-2.239 5,-5 v -52.947 h 52.518 c 2.761,0 5,-2.238 5,-5 v -4.458 c 0.001,-2.761 -2.238,-5 -5,-5 z"/></g></g></svg>