<?xml version="1.0" encoding="UTF-8" standalone="no"?>
<!-- Generator: Adobe Illustrator 19.0.0, SVG Export Plug-In . SVG Version: 6.00 Build 0)  -->

<svg
   xmlns:dc="http://purl.org/dc/elements/1.1/"
   xmlns:cc="http://creativecommons.org/ns#"
   xmlns:rdf="http://www.w3.org/1999/02/22-rdf-syntax-ns#"
   xmlns:svg="http://www.w3.org/2000/svg"
   xmlns="http://www.w3.org/2000/svg"
   xmlns:sodipodi="http://sodipodi.sourceforge.net/DTD/sodipodi-0.dtd"
   xmlns:inkscape="http://www.inkscape.org/namespaces/inkscape"
   version="1.1"
   id="Capa_1"
   x="0px"
   y="0px"
   viewBox="0 0 358.4 358.4"
   xml:space="preserve"
   sodipodi:docname="sonyplaystationportable-symbolic.svg"
   width="256"
   height="256"
   inkscape:version="0.92.3 (2405546, 2018-03-11)"><metadata
   id="metadata6393"><rdf:RDF><cc:Work
       rdf:about=""><dc:format>image/svg+xml</dc:format><dc:type
         rdf:resource="http://purl.org/dc/dcmitype/StillImage" /><dc:title></dc:title></cc:Work></rdf:RDF></metadata><defs
   id="defs6391" /><sodipodi:namedview
   pagecolor="#ffffff"
   bordercolor="#666666"
   borderopacity="1"
   objecttolerance="10"
   gridtolerance="10"
   guidetolerance="10"
   inkscape:pageopacity="0"
   inkscape:pageshadow="2"
   inkscape:window-width="1871"
   inkscape:window-height="1015"
   id="namedview6389"
   showgrid="false"
   scale-x="1.4"
   inkscape:zoom="0.921875"
   inkscape:cx="299.49188"
   inkscape:cy="85.116884"
   inkscape:window-x="49"
   inkscape:window-y="28"
   inkscape:window-maximized="1"
   inkscape:current-layer="Capa_1" />
<g
   id="g6332"
   transform="matrix(0.94555031,0,0,0.92961298,-62.859934,-58.779993)">
	<g
   id="g6330">
		<path
   d="M 185.292,219.796 H 72.551 c -2.761,0 -5,2.239 -5,5 v 4.458 c 0,2.762 2.239,5 5,5 H 175.834 V 248.77 H 72.551 c -2.761,0 -5,2.239 -5,5 v 33.432 c 0,2.761 2.239,5 5,5 h 4.457 c 2.761,0 5,-2.239 5,-5 V 263.23 h 103.283 c 2.761,0 5,-2.238 5,-5 v -33.433 c 0.002,-2.762 -2.238,-5.001 -4.999,-5.001 z"
   id="path6328"
   inkscape:connector-curvature="0" />
	</g>
</g>
<g
   id="g6338"
   transform="matrix(0.94555031,0,0,0.92961298,-62.859934,-58.779993)">
	<g
   id="g6336">
		<path
   d="M 439.448,219.796 H 326.707 c -2.761,0 -5,2.239 -5,5 v 4.458 c 0,2.762 2.239,5 5,5 H 429.99 V 248.77 H 326.707 c -2.761,0 -5,2.239 -5,5 v 33.432 c 0,2.761 2.239,5 5,5 h 4.457 c 2.761,0 5,-2.239 5,-5 V 263.23 h 103.283 c 2.761,0 5,-2.238 5,-5 v -33.433 c 10e-4,-2.762 -2.238,-5.001 -4.999,-5.001 z"
   id="path6334"
   inkscape:connector-curvature="0"/>
	</g>
</g>
<g
   id="g6344"
   transform="matrix(0.94555031,0,0,0.92961298,-62.859934,-58.779993)">
	<g
   id="g6342">
		<path
   d="m 305.001,219.797 h -62.197 c -2.761,0 -5,2.239 -5,5 v 52.948 h -52.511 c -2.761,0 -5,2.239 -5,5 v 4.457 c 0,2.76 2.238,5 5,5 h 62.19 c 2.761,0 5,-2.239 5,-5 v -52.947 h 52.518 c 2.761,0 5,-2.238 5,-5 v -4.458 c 0.001,-2.761 -2.238,-5 -5,-5 z"
   id="path6340"
   inkscape:connector-curvature="0"/>
	</g>
</g>
<g
   id="g6350"
   transform="translate(0,-256)">
	<g
   id="g6348">
		
	</g>
</g>
<g
   id="g6356"
   transform="translate(0,-256)">
	<g
   id="g6354">
		
	</g>
</g>
<g
   id="g6358"
   transform="translate(0,-256)">
</g>
<g
   id="g6360"
   transform="translate(0,-256)">
</g>
<g
   id="g6362"
   transform="translate(0,-256)">
</g>
<g
   id="g6364"
   transform="translate(0,-256)">
</g>
<g
   id="g6366"
   transform="translate(0,-256)">
</g>
<g
   id="g6368"
   transform="translate(0,-256)">
</g>
<g
   id="g6370"
   transform="translate(0,-256)">
</g>
<g
   id="g6372"
   transform="translate(0,-256)">
</g>
<g
   id="g6374"
   transform="translate(0,-256)">
</g>
<g
   id="g6376"
   transform="translate(0,-256)">
</g>
<g
   id="g6378"
   transform="translate(0,-256)">
</g>
<g
   id="g6380"
   transform="translate(0,-256)">
</g>
<g
   id="g6382"
   transform="translate(0,-256)">
</g>
<g
   id="g6384"
   transform="translate(0,-256)">
</g>
<g
   id="g6386"
   transform="translate(0,-256)">
</g>
</svg>
