<svg xmlns="http://www.w3.org/2000/svg" xmlns:svg="http://www.w3.org/2000/svg" id="svg4" width="180" height="180" aria-hidden="true" class="svg-inline--fa fa-playstation fa-w-18" data-icon="playstation" data-prefix="fab" focusable="false" role="img" version="1.1" viewBox="0 0 594 594"><metadata id="metadata10"/><path id="path2" d="m 579.91642,415.05 c -11.3,14.2 -38.8,24.3 -38.8,24.3 l -205.1,73.6 v -54.3 l 150.9,-53.8 c 17.1,-6.1 19.8,-14.8 5.8,-19.4 -13.9,-4.6 -39.1,-3.3 -56.2,2.9 l -100.5,35.5 v -56.4 c 23.2,-7.8 47.1,-13.6 75.7,-16.8 40.9,-4.5 90.9,0.6 130.2,15.5 44.2,14 49.2,34.7 38,48.9 z m -224.4,-92.5 v -139 c 0,-16.3 -3,-31.3 -18.3,-35.6 -11.7,-3.8 -19,7.1 -19,23.4 v 347.9 l -93.79998,-29.8 V 74.75 c 39.9,7.4 97.99998,24.899997 129.19998,35.4 79.5,27.3 106.4,61.3 106.4,137.8 0,74.5 -46,102.8 -104.5,74.6 z M 52.216443,452.95 c -45.4000004,-12.8 -53.00000042,-39.5 -32.3,-54.8 19.1,-14.2 51.7,-24.9 51.7,-24.9 l 134.499997,-47.8 v 54.5 l -96.8,34.6 c -17.099997,6.1 -19.699997,14.8 -5.80001,19.4 13.90001,4.6 39.10001,3.3 56.20001,-2.9 l 46.4,-16.9 v 48.8 c -51.6,9.3 -101.40001,7.3 -153.899997,-10 z"/></svg>