<?xml version="1.0" encoding="UTF-8" standalone="no"?>
<!-- Created with Inkscape (http://www.inkscape.org/) -->

<svg
   xmlns:dc="http://purl.org/dc/elements/1.1/"
   xmlns:cc="http://creativecommons.org/ns#"
   xmlns:rdf="http://www.w3.org/1999/02/22-rdf-syntax-ns#"
   xmlns:svg="http://www.w3.org/2000/svg"
   xmlns="http://www.w3.org/2000/svg"
   xmlns:sodipodi="http://sodipodi.sourceforge.net/DTD/sodipodi-0.dtd"
   xmlns:inkscape="http://www.inkscape.org/namespaces/inkscape"
   width="256"
   height="256"
   viewBox="0 0 256 256"
   version="1.1"
   id="root"
   inkscape:version="0.92.1 r15371"
   sodipodi:docname="stella-symbolic.svg">
  <defs
     id="defs4517" />
  <sodipodi:namedview
     id="base"
     pagecolor="#ffffff"
     bordercolor="#666666"
     borderopacity="1.0"
     inkscape:pageopacity="0.0"
     inkscape:pageshadow="2"
     inkscape:zoom="2.5625"
     inkscape:cx="128"
     inkscape:cy="128"
     inkscape:document-units="px"
     inkscape:current-layer="layer2"
     showgrid="true"
     units="px"
     inkscape:pagecheckerboard="true"
     inkscape:window-width="1428"
     inkscape:window-height="855"
     inkscape:window-x="488"
     inkscape:window-y="129"
     inkscape:window-maximized="0"
     inkscape:snap-bbox="true"
     inkscape:snap-bbox-midpoints="false"
     inkscape:bbox-nodes="true"
     inkscape:measure-start="116,68"
     inkscape:measure-end="116,12"
     inkscape:snap-smooth-nodes="true"
     inkscape:object-nodes="true">
    <inkscape:grid
       type="xygrid"
       id="grid4482"
       empspacing="4" />
  </sodipodi:namedview>
  <metadata
     id="metadata4520">
    <rdf:RDF>
      <cc:Work
         rdf:about="">
        <dc:format>image/svg+xml</dc:format>
        <dc:type
           rdf:resource="http://purl.org/dc/dcmitype/StillImage" />
        <dc:title />
        <cc:license
           rdf:resource="http://creativecommons.org/publicdomain/zero/1.0/" />
      </cc:Work>
      <cc:License
         rdf:about="http://creativecommons.org/publicdomain/zero/1.0/">
        <cc:permits
           rdf:resource="http://creativecommons.org/ns#Reproduction" />
        <cc:permits
           rdf:resource="http://creativecommons.org/ns#Distribution" />
        <cc:permits
           rdf:resource="http://creativecommons.org/ns#DerivativeWorks" />
      </cc:License>
    </rdf:RDF>
  </metadata>
  <g
     inkscape:label="Base"
     inkscape:groupmode="layer"
     id="layer1"
     transform="translate(0,-229.26666)"
     style="display:inline">
    <path
       style="opacity:1;fill-opacity:1;fill-rule:nonzero;stroke:none;stroke-width:15.01732063;stroke-linecap:square;stroke-linejoin:round;stroke-miterlimit:4;stroke-dasharray:none;stroke-opacity:1;paint-order:normal"
       d="M 150.95508,97.378906 152,116 c 7.27909,2.03363 14.1028,5.71296 19.80469,9.03906 3.23903,1.88944 6.04477,3.94613 8.20508,6.33789 2.1603,2.39177 3.7832,5.28783 3.7832,8.62305 0,7.78029 -5.28888,15.09526 -14.63086,20.04102 -9.34198,4.94575 -22.92993,7.96484 -41.375,7.96484 -18.44507,0 -32.033021,-3.01909 -41.375001,-7.96484 C 77.070129,155.09526 71.78125,147.78029 71.78125,140 c 0,-3.33522 1.622903,-6.23128 3.783203,-8.62305 2.16031,-2.39176 4.966048,-4.44845 8.205078,-6.33789 5.70189,-3.3261 13.158419,-7.00543 20.437499,-9.03906 l 0.40625,-18.445312 -47.871092,19.558592 c 1.238005,0.35858 2.416904,0.77622 3.513671,1.26367 1.987735,0.88344 3.750642,1.97085 5.183594,3.47657 C 66.872406,123.35925 68,125.46784 68,127.83789 v 8 c 0,2.37005 -1.127594,4.47865 -2.560547,5.98438 -1.432952,1.50572 -3.195859,2.59312 -5.183594,3.47656 C 56.280389,147.0657 51.308396,148 45.837891,148 c -5.470505,0 -10.442499,-0.9343 -14.417969,-2.70117 -1.987735,-0.88344 -3.750642,-1.97084 -5.183594,-3.47656 -1.432953,-1.50573 -2.560547,-3.61433 -2.560547,-5.98438 v -5.2168 l -13.9140622,5.68555 c -5.0087373,2.04632 -5.0087383,5.3404 0,7.38672 L 118.95898,188.30664 c 5.00874,2.04632 13.0733,2.04632 18.08204,0 l 109.19726,-44.61328 c 5.00874,-2.04632 5.00874,-5.3404 0,-7.38672 z"
       id="rect4483"
       inkscape:connector-curvature="0"
       sodipodi:nodetypes="ccccssssscccccccssccsccscccccccc"
       transform="translate(0,229.26666)" />
    <path
       style="opacity:1;fill-rule:evenodd;stroke:none;stroke-width:1px;stroke-linecap:butt;stroke-linejoin:miter;stroke-opacity:1"
       d="m 4,377.26666 4,36 4,4 c 0,0 0,16 4,20 l 96,40 c 0,0 8,4 16,4 8,0 16,-4 16,-4 l 96,-40 c 4,-4 4,-20 4,-20 l 4,-4 4,-36 -108,44 c 0,0 -8,4 -16,4 -8,0 -16,-4 -16,-4 z"
       id="path4485"
       inkscape:connector-curvature="0"
       sodipodi:nodetypes="ccccczcccccczcc" />
  </g>
  <g
     inkscape:groupmode="layer"
     id="layer2"
     inkscape:label="Stick"
     style="display:inline">
    <path
       style="opacity:1;fill-opacity:1;fill-rule:nonzero;stroke:none;stroke-width:29.62624359;stroke-linecap:square;stroke-linejoin:round;stroke-miterlimit:4;stroke-dasharray:none;stroke-opacity:1;paint-order:normal"
       d="M 143.996,12.04492 C 143.997,12.02995 143.999,12.01497 144,12 c 0,-4.418278 -7.16344,-8 -16,-8 -8.83656,0 -16,3.581722 -16,8 0.001,0.01888 0.002,0.03776 0.004,0.05664 L 108,120 c 0,5.52285 8.95431,12 20,12 11.04569,0 20,-6.47715 20,-12 z"
       id="path4488"
       inkscape:connector-curvature="0"
       sodipodi:nodetypes="ccscccscc" />
    <path
       style="opacity:1;fill-opacity:1;fill-rule:nonzero;stroke:none;stroke-width:29.62624359;stroke-linecap:square;stroke-linejoin:round;stroke-miterlimit:4;stroke-dasharray:none;stroke-opacity:1;paint-order:normal"
       d="m 104,116 c -14.598941,4.2484 -28,12.65176 -28,20 0,12 16,24 52,24 36,0 52,-12 52,-24 0,-7.34824 -13.40106,-15.7516 -28,-20 l -0.002,3.85742 c 0.001,0.0475 0.002,0.0951 0.002,0.14258 0,4.92319 -3.39416,8.69111 -7.70703,11.44336 C 139.9801,134.19561 134.30471,136 128,136 c -6.30471,0 -11.9801,-1.80439 -16.29297,-4.55664 C 107.39416,128.69111 104,124.92319 104,120 c -2e-4,-0.0475 4.5e-4,-0.0951 0.002,-0.14258 z"
       id="path4519"
       inkscape:connector-curvature="0"
       sodipodi:nodetypes="cssscccsssccc" />
  </g>
  <g
     inkscape:groupmode="layer"
     id="layer4"
     inkscape:label="Button">
    <path
       style="opacity:1;fill-opacity:1;fill-rule:nonzero;stroke:none;stroke-width:11.38419914;stroke-linecap:square;stroke-linejoin:round;stroke-miterlimit:4;stroke-dasharray:none;stroke-opacity:1;paint-order:normal"
       d="m 64,124 c 0,-4.41828 -8.058875,-8 -18,-8 -9.941125,0 -18,3.58172 -18,8 v 8 c 0,4.41828 8.058875,8 18,8 9.941125,0 18,-3.58172 18,-8 z"
       id="path4548"
       inkscape:connector-curvature="0"
       sodipodi:nodetypes="csccscc" />
  </g>
</svg>
