<?xml version="1.0" encoding="UTF-8" standalone="no"?>
<!-- Created with Inkscape (http://www.inkscape.org/) -->

<svg
   xmlns:dc="http://purl.org/dc/elements/1.1/"
   xmlns:cc="http://creativecommons.org/ns#"
   xmlns:rdf="http://www.w3.org/1999/02/22-rdf-syntax-ns#"
   xmlns:svg="http://www.w3.org/2000/svg"
   xmlns="http://www.w3.org/2000/svg"
   xmlns:sodipodi="http://sodipodi.sourceforge.net/DTD/sodipodi-0.dtd"
   xmlns:inkscape="http://www.inkscape.org/namespaces/inkscape"
   width="256"
   height="256"
   viewBox="0 0 256 256"
   version="1.1"
   id="root"
   inkscape:version="0.92.1 r15371"
   sodipodi:docname="virtualjaguar-symbolic.svg">
  <defs
     id="defs4517" />
  <sodipodi:namedview
     id="base"
     pagecolor="#ffffff"
     bordercolor="#666666"
     borderopacity="1.0"
     inkscape:pageopacity="0.0"
     inkscape:pageshadow="2"
     inkscape:zoom="2.5078125"
     inkscape:cx="128"
     inkscape:cy="128"
     inkscape:document-units="px"
     inkscape:current-layer="layer3"
     showgrid="true"
     units="px"
     inkscape:pagecheckerboard="true"
     inkscape:window-width="1428"
     inkscape:window-height="855"
     inkscape:window-x="295"
     inkscape:window-y="192"
     inkscape:window-maximized="0"
     inkscape:snap-smooth-nodes="true"
     inkscape:snap-bbox="true"
     inkscape:bbox-nodes="true"
     inkscape:snap-page="true" />
  <metadata
     id="metadata4520">
    <rdf:RDF>
      <cc:Work
         rdf:about="">
        <dc:format>image/svg+xml</dc:format>
        <dc:type
           rdf:resource="http://purl.org/dc/dcmitype/StillImage" />
        <dc:title></dc:title>
        <cc:license
           rdf:resource="http://creativecommons.org/publicdomain/zero/1.0/" />
      </cc:Work>
      <cc:License
         rdf:about="http://creativecommons.org/publicdomain/zero/1.0/">
        <cc:permits
           rdf:resource="http://creativecommons.org/ns#Reproduction" />
        <cc:permits
           rdf:resource="http://creativecommons.org/ns#Distribution" />
        <cc:permits
           rdf:resource="http://creativecommons.org/ns#DerivativeWorks" />
      </cc:License>
    </rdf:RDF>
  </metadata>
  <g
     inkscape:groupmode="layer"
     id="layer3"
     inkscape:label="Traced"
     style="display:inline">
    <g
       id="g4563"
       transform="matrix(1.1092134,0,0,1.1092134,-8.4046006,-23.313786)"
       style="stroke-width:0.90153974;fill-opacity:1">
      <path
         transform="translate(0,-229.26666)"
         id="path4552"
         d="m 211.92814,474.09797 c -10.31908,-8.36811 -9.26851,-7.5835 -21.30139,-15.9089 -12.4165,-8.59082 -11.70381,-7.98374 -10.63152,-9.05603 1.12495,-1.12496 11.74069,6.1522 27.42498,18.80001 6.81245,5.49357 12.92742,9.9883 13.58882,9.9883 0.6614,0 1.20255,0.66108 1.20255,1.46906 0,2.48494 -1.89633,1.50896 -10.28344,-5.29244 z"
         style="stroke-width:0.90153974;fill-opacity:1"
         inkscape:connector-curvature="0" />
      <path
         transform="translate(0,-229.26666)"
         id="path4550"
         d="m 204.78383,451.47574 c -7.3824,-5.7055 -13.42255,-10.66257 -13.42255,-11.01572 0,-2.448 11.29003,4.7694 21.28493,13.60687 11.56078,10.22202 6.60231,8.5879 -7.86238,-2.59115 z"
         style="stroke-width:0.90153974;fill-opacity:1"
         inkscape:connector-curvature="0" />
      <path
         transform="translate(0,-229.26666)"
         id="path4548"
         d="m 227.72056,453.30247 c -2.22196,-1.37761 -4.03992,-2.96205 -4.03992,-3.52095 0,-1.28607 8.46412,2.87962 9.6064,4.72786 1.29363,2.09315 -1.07062,1.58054 -5.56648,-1.20691 z"
         style="stroke-width:0.90153974;fill-opacity:1"
         inkscape:connector-curvature="0" />
      <path
         transform="translate(0,-229.26666)"
         id="path4546"
         d="m 161.24551,436.77037 c -7.27186,-5.58881 -13.88264,-10.70086 -14.69062,-11.36013 -0.80798,-0.65928 -6.231,-4.98336 -12.05114,-9.60908 -5.82014,-4.62574 -11.10877,-9.26619 -11.7525,-10.31214 -0.64372,-1.04595 -4.14526,-3.64471 -7.78119,-5.77501 -6.79857,-3.98333 -33.491129,-30.33406 -36.586692,-36.11816 -0.954391,-1.78328 -4.185857,-4.8376 -7.181069,-6.78735 -14.819249,-9.64678 -18.237727,-16.14772 -5.068175,-9.63819 10.269888,5.07627 16.373561,10.12532 19.396524,16.04511 1.477553,2.89345 6.686229,9.0741 11.574826,13.73476 4.888596,4.66067 10.345206,10.51989 12.125796,13.0205 1.78059,2.50062 5.28767,5.42896 7.79351,6.50744 2.50584,1.07848 7.66552,5.22162 11.46597,9.20696 3.80046,3.98535 11.07232,10.32779 16.15968,14.09433 26.85958,19.886 35.51016,27.22957 32.02023,27.18229 -1.21198,-0.0165 -8.15329,-4.60253 -15.42515,-10.19133 z"
         style="stroke-width:0.90153974;fill-opacity:1"
         inkscape:connector-curvature="0" />
      <path
         transform="translate(0,-229.26666)"
         id="path4544"
         d="m 233.14536,443.51851 c -1.56712,-1.14591 -2.41892,-2.51387 -1.8929,-3.03992 1.0882,-1.08819 7.1188,2.3069 7.1188,4.00772 0,1.71626 -2.08269,1.33056 -5.2259,-0.9678 z"
         style="stroke-width:0.90153974;fill-opacity:1"
         inkscape:connector-curvature="0" />
      <path
         transform="translate(0,-229.26666)"
         id="path4542"
         d="m 218.89842,433.72748 c -4.39197,-2.55779 -10.41567,-8.67478 -9.47187,-9.61857 1.08075,-1.08074 12.78503,7.94946 12.78503,9.86403 0,1.63865 -0.0893,1.63203 -3.31316,-0.24546 z"
         style="stroke-width:0.90153974;fill-opacity:1"
         inkscape:connector-curvature="0" />
      <path
         transform="translate(0,-229.26666)"
         id="path4540"
         d="m 163.89232,420.74303 c -6.62411,-4.50722 -15.14124,-11.30167 -18.927,-15.09882 -3.78574,-3.79712 -8.9532,-7.88615 -11.48321,-9.08673 -2.53002,-1.20058 -6.24281,-3.93835 -8.25065,-6.08394 -2.00784,-2.1456 -6.95601,-6.31418 -10.99593,-9.26351 -4.03992,-2.94933 -15.396475,-13.38409 -25.23678,-23.18835 -14.292033,-14.23967 -18.96246,-18.02686 -23.214938,-18.82462 -5.784241,-1.08513 -7.951004,-4.0953 -5.2717,-7.32365 3.637295,-4.38268 12.326208,1.66283 36.508259,25.40143 30.367349,29.81048 39.812919,38.37905 42.307239,38.37905 1.78405,0 27.31049,21.42214 35.02297,29.39177 5.23642,5.41099 1.64767,3.93456 -10.45826,-4.30263 z"
         style="stroke-width:0.90153974;fill-opacity:1"
         inkscape:connector-curvature="0" />
      <path
         transform="translate(0,-229.26666)"
         id="path4538"
         d="m 169.32535,410.92355 c -10.0998,-7.5642 -24.88184,-19.86805 -32.84899,-27.34187 -7.96713,-7.47382 -17.8833,-15.87606 -22.03593,-18.67163 -4.15261,-2.79558 -12.37927,-10.15884 -18.281458,-16.3628 -5.902191,-6.20395 -13.163969,-12.52139 -16.137277,-14.03874 -6.298339,-3.21419 -9.123491,-5.61214 -9.123491,-7.74391 0,-1.89406 5.167278,-4.78309 6.382119,-3.56825 0.49071,0.49071 1.925484,0.0347 3.188393,-1.01349 2.044831,-1.69706 1.862374,-2.35849 -1.666827,-6.04218 -3.500951,-3.6542 -3.669306,-4.24921 -1.443927,-5.10317 1.607022,-0.61668 3.573831,0.16545 5.432209,2.16019 4.94783,5.31088 9.249934,4.0262 16.557224,-4.94426 7.895315,-9.69233 10.918275,-17.39349 8.141055,-20.73982 -3.17685,-3.82787 -12.695118,-7.91562 -18.431408,-7.91562 -7.436905,0 -15.025741,2.94766 -16.071478,6.24248 -0.474551,1.49516 -3.09737,4.95303 -5.828503,7.68416 -2.731118,2.73112 -5.407176,6.82988 -5.946777,9.10834 -0.539616,2.27847 -2.100758,5.46482 -3.469204,7.08079 -2.824977,3.33593 -4.96897,10.37914 -10.956161,35.99202 -1.227666,5.25189 -3.245716,13.88814 -4.484561,19.19166 -1.238845,5.30352 -2.252454,10.97777 -2.252454,12.60944 0,4.05426 -1.363098,5.08553 -4.50169,3.4058 -2.115905,-1.1324 -2.849642,-0.75395 -3.660667,1.88801 -0.557877,1.81736 -2.906877,7.38884 -5.219974,12.38108 -3.03445,6.54904 -5.099789,9.20827 -7.416353,9.5489 -2.057157,0.30249 -3.727039,2.05552 -4.647847,4.8793 -1.376218,4.22038 -3.408136,6.54004 -5.7710337,6.58828 -2.482362,0.0507 -1.0062339,-14.97207 2.0605207,-20.97016 1.739281,-3.40175 4.394802,-11.14307 5.901163,-17.20295 1.506376,-6.05988 4.049792,-12.80916 5.652054,-14.9984 1.602262,-2.18924 2.913208,-5.97706 2.913208,-8.41738 0,-2.44031 0.906955,-6.92936 2.01545,-9.97565 1.108496,-3.04629 3.849266,-11.15787 6.090584,-18.02574 2.241318,-6.86786 5.252528,-15.15427 6.691548,-18.41423 1.439019,-3.25997 3.066931,-7.72224 3.617579,-9.91617 1.201913,-4.78884 -1.248996,-5.27307 -7.764036,-1.53395 -4.083728,2.34373 -4.588497,2.3045 -11.137017,-0.86558 -3.772683,-1.82632 -6.859417,-3.84559 -6.859417,-4.48726 0,-0.64167 -1.322156,-1.51243 -2.938124,-1.93501 -4.09,-1.06956 -3.667087,-4.90522 0.86851,-7.87706 2.093633,-1.3718 4.398533,-4.05104 5.121987,-5.95386 0.806559,-2.1214 4.022232,-4.64521 8.313127,-6.52453 14.910699,-6.53053 30.875435,-11.90555 39.317135,-13.23731 4.847904,-0.76481 11.877953,-2.34809 15.622312,-3.51841 7.846421,-2.45242 21.716587,-2.76707 29.184077,-0.66205 2.82794,0.79717 8.4471,3.93929 12.48702,6.98249 21.91357,16.50712 16.87811,44.38619 -11.08507,61.37292 -4.811,2.92252 -8.74726,6.17965 -8.74726,7.23808 0,1.05842 2.47904,4.49949 5.50898,7.64684 3.02994,3.14735 9.16358,9.67063 13.63032,14.49619 4.46675,4.82556 14.69159,14.39289 22.72188,21.26076 14.20291,12.14695 17.6397,15.20614 34.53004,30.73625 4.44391,4.08602 8.55264,7.43594 9.13051,7.44425 1.63924,0.0235 11.43635,8.97632 11.43635,10.45072 0,0.72429 -0.99161,1.31688 -2.20359,1.31688 -1.21198,0 -2.20359,-0.50452 -2.20359,-1.12114 0,-0.61664 -3.8012,-4.05485 -8.44711,-7.64046 -4.64591,-3.58563 -14.06627,-11.19085 -20.93413,-16.9005 -6.86786,-5.70964 -16.45349,-13.30632 -21.3014,-16.88149 -4.8479,-3.57518 -11.25391,-8.85227 -14.23556,-11.72687 -2.98167,-2.87461 -6.61759,-6.25934 -8.07984,-7.52164 -1.46226,-1.2623 -5.67196,-5.56068 -9.3549,-9.55196 -3.68292,-3.99128 -8.39436,-8.0306 -10.46987,-8.97625 -2.07549,-0.94566 -6.146467,-3.80277 -9.046615,-6.34912 -3.509721,-3.08158 -6.394856,-4.4356 -8.627918,-4.04918 -2.986001,0.51673 -2.153645,1.69997 7.568695,10.75938 6.008008,5.59833 14.293808,13.48418 18.412888,17.5241 4.11907,4.03992 9.95061,9.28588 12.95896,11.65768 3.00836,2.3718 7.94411,6.59884 10.96835,9.39342 3.02424,2.79458 7.19911,6.14263 9.27748,7.44012 3.31025,2.06653 16.11282,13.33133 35.62741,31.34802 10.65647,9.83848 5.03468,6.92103 -13.69768,-7.1085 z"
         style="stroke-width:0.90153974;fill-opacity:1"
         inkscape:connector-curvature="0" />
      <path
         transform="translate(0,-229.26666)"
         id="path4526"
         d="m 29.764471,400.7956 c 0,-1.21198 0.661078,-2.2036 1.469062,-2.2036 0.807984,0 1.469062,-1.98323 1.469062,-4.40718 0,-3.02233 0.723527,-4.40719 2.302593,-4.40719 2.605807,0 1.777124,4.21668 -1.948755,9.91617 -2.530797,3.87134 -3.291962,4.12611 -3.291962,1.1018 z"
         style="stroke-width:0.90153974;fill-opacity:1"
         inkscape:connector-curvature="0" />
    </g>
  </g>
</svg>
