<svg xmlns="http://www.w3.org/2000/svg" xmlns:svg="http://www.w3.org/2000/svg" id="root" width="256" height="256" version="1.1" viewBox="0 0 256 256"><metadata id="metadata876"/><g id="layer1" style="display:inline"><path style="display:inline;opacity:1;fill-opacity:1;fill-rule:evenodd;stroke:none;stroke-width:1.23613441px;stroke-linecap:butt;stroke-linejoin:miter;stroke-opacity:1" id="path4514" d="m 98.320039,142.20403 c 11.856411,11.4641 20.009021,20.99496 21.712811,26.39231 l 8.78461,32.78461 c 1.37094,5.11639 -0.47256,14.25528 -5.52071,22.99184 -22.38921,7.87876 -30.871593,16.04148 -29.407491,21.50558 1.464101,5.4641 25.118461,7.81188 55.452501,-0.3161 30.33405,-8.12798 49.82953,-22.03773 48.36543,-27.50183 -1.4641,-5.4641 -12.97564,-8.24228 -36.23116,-3.90203 -8.80164,-5.02261 -14.89443,-12.05 -16.26626,-17.16977 l -8.78461,-32.78461 c -1.03366,-5.98077 3.07179,-21.32051 7.60769,-37.17691 -4.5359,15.8564 -18,31.17691 -18,31.17691 0,0 -15.8564,-4.5359 -27.712811,-16 z"/></g><g id="layer4" style="display:inline"><path style="display:inline;opacity:1;fill-opacity:1;fill-rule:evenodd;stroke:none;stroke-width:1.23613441px;stroke-linecap:butt;stroke-linejoin:miter;stroke-opacity:1" id="path4520" d="m 54.721163,32.082784 c -0.979585,1.82215 -1.383613,3.671883 -0.821729,5.4389 l 10.99498,34.577231 c 11.856406,11.464101 35.176916,11.071796 43.712816,-11.712813 8.53589,-22.78461 17.4641,-22.248712 27.8564,-16.248712 l -7.5252,-26.72377 C 124.08013,0.16065072 64.190441,14.468554 54.721163,32.082784 Z"/></g><g id="layer2" style="display:inline"><path style="display:inline;opacity:.6;fill-opacity:1;fill-rule:evenodd;stroke:none;stroke-width:1.23613441px;stroke-linecap:butt;stroke-linejoin:miter;stroke-opacity:1" id="path4535" d="m 64.894414,72.098915 c 10.343705,26.024136 21.569219,58.641015 33.425625,70.105115 11.856411,11.4641 22.248711,17.4641 27.712811,16 5.4641,-1.4641 13.4641,-15.32051 18,-31.17691 4.5359,-15.85641 -1.16254,-56.860863 -7.56922,-82.88973 -10.3923,-6 -19.32051,-6.535898 -27.8564,16.248712 -8.5359,22.784609 -31.85641,23.176914 -43.712816,11.712813 z"/></g></svg>